<?xml version="1.0" encoding="utf-8"?>
<!-- Generator: Adobe Illustrator 16.0.0, SVG Export Plug-In . SVG Version: 6.00 Build 0)  -->
<!DOCTYPE svg PUBLIC "-//W3C//DTD SVG 1.1//EN" "http://www.w3.org/Graphics/SVG/1.1/DTD/svg11.dtd">
<svg version="1.1" xmlns="http://www.w3.org/2000/svg" xmlns:xlink="http://www.w3.org/1999/xlink" x="0px" y="0px"
	 width="171.333px" height="200px" viewBox="0 0 171.333 200" enable-background="new 0 0 171.333 200" xml:space="preserve">
<g id="Layer_1">
	
		<line fill="none" stroke="#999999" stroke-width="2" stroke-linecap="square" stroke-miterlimit="10" x1="92.333" y1="171" x2="92.333" y2="178"/>
	<path fill="none" stroke="#666666" stroke-width="2" stroke-linecap="round" stroke-linejoin="round" stroke-miterlimit="10" d="
		M92.352,175.972c0,0,29.281-3.1,251.925-115.972"/>
	<path fill="none" stroke="#666666" stroke-width="2" stroke-linecap="round" stroke-linejoin="round" stroke-miterlimit="10" d="
		M92.209,172.261c0,0,95.326-16.561,259.536-94.261"/>
	<path fill="none" stroke="#666666" stroke-width="2" stroke-linecap="round" stroke-linejoin="round" stroke-miterlimit="10" d="
		M92.209,170.041c0,0,75.604-19.312,264.067-161.041"/>
	<path fill="none" stroke="#666666" stroke-width="2" stroke-linecap="round" stroke-linejoin="round" stroke-miterlimit="10" d="
		M92.352,175.055c141.46-47.127,138.78-36.067,296.407-138.952c0,0,9.834,7.171,25.525,0.432"/>
	<rect id="_x3C_Slice_x3E_" x="171.333" fill="none" width="846" height="200"/>
</g>
<g id="Layer_2">
	
		<polygon fill="#FFFFFF" stroke="#CCCCCC" stroke-width="2" stroke-linecap="round" stroke-linejoin="round" stroke-miterlimit="10" points="
		93.333,174.896 93.333,134 88.551,134 88.369,177.037 85.133,199 100.247,199 	"/>
	<polygon fill="#CCCCCC" points="87.748,175 94.333,175 94.333,178.068 100.247,199 84.574,200 87.668,178.449 	"/>
	
		<polygon fill="#FFFFFF" stroke="#CCCCCC" stroke-width="2" stroke-linecap="round" stroke-linejoin="round" stroke-miterlimit="10" points="
		72.333,174.896 72.333,134 67.433,134 67.262,177.037 64.217,199 78.434,199 	"/>
	<polygon fill="#CCCCCC" points="67.12,172 73.333,172 73.333,175.068 77.434,197 63.946,197 67.04,175.449 	"/>
	
		<polygon fill="#FFFFFF" stroke="#CCCCCC" stroke-width="2" stroke-linecap="round" stroke-linejoin="round" stroke-miterlimit="10" points="
		53.333,174.896 53.333,134 48.617,134 48.449,177.037 45.467,199 59.392,199 	"/>
	<polygon fill="#CCCCCC" points="48.078,172 54.333,172 54.333,175.068 58.392,197 44.904,197 47.999,175.449 	"/>
	
		<polygon fill="#FFFFFF" stroke="#CCCCCC" stroke-width="2" stroke-linecap="round" stroke-linejoin="round" stroke-miterlimit="10" points="
		33.333,174.896 33.333,134 28.45,134 28.289,177.037 25.435,199 38.764,199 	"/>
	<rect x="29.333" y="135" fill="#FF0000" width="3" height="5"/>
	<rect x="29.333" y="143" fill="#FF0000" width="3" height="5"/>
	<rect x="29.333" y="151" fill="#FF0000" width="3" height="6"/>
	<rect x="29.333" y="160" fill="#FF0000" width="3" height="5"/>
	<rect x="49.333" y="135" fill="#FF0000" width="3" height="5"/>
	<rect x="49.333" y="143" fill="#FF0000" width="3" height="5"/>
	<rect x="49.333" y="151" fill="#FF0000" width="3" height="6"/>
	<rect x="49.333" y="160" fill="#FF0000" width="3" height="5"/>
	<rect x="68.333" y="135" fill="#FF0000" width="3" height="5"/>
	<rect x="68.333" y="143" fill="#FF0000" width="3" height="5"/>
	<rect x="68.333" y="151" fill="#FF0000" width="3" height="6"/>
	<rect x="68.333" y="160" fill="#FF0000" width="3" height="5"/>
	<rect x="89.333" y="135" fill="#FF0000" width="3" height="5"/>
	<rect x="89.333" y="143" fill="#FF0000" width="3" height="5"/>
	<rect x="89.333" y="151" fill="#FF0000" width="3" height="6"/>
	<rect x="89.333" y="160" fill="#FF0000" width="3" height="5"/>
	<polygon fill="#CCCCCC" points="27.45,172 34.333,172 34.333,175.068 37.764,197 24.276,197 27.371,175.449 	"/>
	<line fill="none" stroke="#666666" stroke-width="2" stroke-miterlimit="10" x1="26.333" y1="133" x2="35.333" y2="133"/>
	<line fill="none" stroke="#666666" stroke-width="2" stroke-miterlimit="10" x1="46.333" y1="133" x2="55.333" y2="133"/>
	<line fill="none" stroke="#666666" stroke-width="2" stroke-miterlimit="10" x1="65.333" y1="133" x2="74.333" y2="133"/>
	<line fill="none" stroke="#666666" stroke-width="2" stroke-miterlimit="10" x1="86.333" y1="133" x2="95.333" y2="133"/>
	
		<polyline fill="none" stroke="#666666" stroke-width="3" stroke-linecap="round" stroke-linejoin="round" stroke-miterlimit="10" points="
		2.333,198.5 3.99,198.5 101.333,198.5 	"/>
	<path fill="none" stroke="#666666" stroke-width="3" stroke-linecap="round" stroke-linejoin="round" stroke-miterlimit="10" d="
		M9.559,169.553"/>
	
		<line fill="none" stroke="#666666" stroke-width="2" stroke-linecap="round" stroke-linejoin="round" stroke-miterlimit="10" x1="5.333" y1="199" x2="5.333" y2="172"/>
	
		<line fill="none" stroke="#666666" stroke-width="2" stroke-linecap="round" stroke-linejoin="round" stroke-miterlimit="10" x1="20.333" y1="199" x2="20.333" y2="172"/>
	
		<line fill="none" stroke="#666666" stroke-width="2" stroke-linecap="round" stroke-linejoin="round" stroke-miterlimit="10" x1="10.333" y1="197" x2="10.333" y2="171"/>
	
		<line fill="none" stroke="#666666" stroke-width="2" stroke-linecap="round" stroke-linejoin="round" stroke-miterlimit="10" x1="16.333" y1="197" x2="16.333" y2="171"/>
	
		<line fill="none" stroke="#666666" stroke-width="2" stroke-linecap="round" stroke-linejoin="round" stroke-miterlimit="10" x1="5.333" y1="178" x2="20.333" y2="178"/>
	
		<line fill="none" stroke="#666666" stroke-width="2" stroke-linecap="round" stroke-linejoin="round" stroke-miterlimit="10" x1="5.333" y1="185" x2="20.333" y2="185"/>
	
		<line fill="none" stroke="#666666" stroke-width="3" stroke-linecap="round" stroke-linejoin="round" stroke-miterlimit="10" x1="5.333" y1="181.5" x2="17.333" y2="181.5"/>
	
		<line fill="none" stroke="#666666" stroke-width="3" stroke-linecap="round" stroke-linejoin="round" stroke-miterlimit="10" x1="10.333" y1="189.5" x2="20.333" y2="189.5"/>
	
		<line fill="none" stroke="#666666" stroke-width="3" stroke-linecap="round" stroke-linejoin="round" stroke-miterlimit="10" x1="7.333" y1="173.5" x2="22.333" y2="173.5"/>
	
		<rect x="3.333" y="169" fill="#FFFFFF" stroke="#999999" stroke-width="2" stroke-linecap="round" stroke-linejoin="round" stroke-miterlimit="10" width="19" height="4"/>
	<path fill="none" stroke="#666666" stroke-width="3" stroke-linecap="round" stroke-linejoin="round" stroke-miterlimit="10" d="
		M32.409,169.553"/>
	
		<line fill="none" stroke="#666666" stroke-width="2" stroke-linecap="round" stroke-linejoin="round" stroke-miterlimit="10" x1="28.333" y1="199" x2="28.333" y2="172"/>
	
		<line fill="none" stroke="#666666" stroke-width="2" stroke-linecap="round" stroke-linejoin="round" stroke-miterlimit="10" x1="43.333" y1="199" x2="43.333" y2="172"/>
	
		<line fill="none" stroke="#666666" stroke-width="2" stroke-linecap="round" stroke-linejoin="round" stroke-miterlimit="10" x1="33.333" y1="197" x2="33.333" y2="171"/>
	
		<line fill="none" stroke="#666666" stroke-width="2" stroke-linecap="round" stroke-linejoin="round" stroke-miterlimit="10" x1="39.333" y1="197" x2="39.333" y2="171"/>
	
		<line fill="none" stroke="#666666" stroke-width="2" stroke-linecap="round" stroke-linejoin="round" stroke-miterlimit="10" x1="28.333" y1="178" x2="43.333" y2="178"/>
	
		<line fill="none" stroke="#666666" stroke-width="2" stroke-linecap="round" stroke-linejoin="round" stroke-miterlimit="10" x1="28.333" y1="185" x2="43.333" y2="185"/>
	
		<line fill="none" stroke="#666666" stroke-width="3" stroke-linecap="round" stroke-linejoin="round" stroke-miterlimit="10" x1="28.333" y1="181.5" x2="40.333" y2="181.5"/>
	
		<line fill="none" stroke="#666666" stroke-width="3" stroke-linecap="round" stroke-linejoin="round" stroke-miterlimit="10" x1="33.333" y1="189.5" x2="43.333" y2="189.5"/>
	
		<line fill="none" stroke="#666666" stroke-width="3" stroke-linecap="round" stroke-linejoin="round" stroke-miterlimit="10" x1="30.333" y1="173.5" x2="45.333" y2="173.5"/>
	
		<rect x="26.333" y="169" fill="#FFFFFF" stroke="#999999" stroke-width="2" stroke-linecap="round" stroke-linejoin="round" stroke-miterlimit="10" width="19" height="4"/>
	<path fill="none" stroke="#666666" stroke-width="3" stroke-linecap="round" stroke-linejoin="round" stroke-miterlimit="10" d="
		M55.576,169.553"/>
	
		<line fill="none" stroke="#666666" stroke-width="2" stroke-linecap="round" stroke-linejoin="round" stroke-miterlimit="10" x1="51.333" y1="199" x2="51.333" y2="172"/>
	
		<line fill="none" stroke="#666666" stroke-width="2" stroke-linecap="round" stroke-linejoin="round" stroke-miterlimit="10" x1="66.333" y1="199" x2="66.333" y2="172"/>
	
		<line fill="none" stroke="#666666" stroke-width="2" stroke-linecap="round" stroke-linejoin="round" stroke-miterlimit="10" x1="56.333" y1="197" x2="56.333" y2="171"/>
	
		<line fill="none" stroke="#666666" stroke-width="2" stroke-linecap="round" stroke-linejoin="round" stroke-miterlimit="10" x1="62.333" y1="197" x2="62.333" y2="171"/>
	
		<line fill="none" stroke="#666666" stroke-width="2" stroke-linecap="round" stroke-linejoin="round" stroke-miterlimit="10" x1="51.333" y1="178" x2="66.333" y2="178"/>
	
		<line fill="none" stroke="#666666" stroke-width="2" stroke-linecap="round" stroke-linejoin="round" stroke-miterlimit="10" x1="51.333" y1="185" x2="66.333" y2="185"/>
	
		<line fill="none" stroke="#666666" stroke-width="3" stroke-linecap="round" stroke-linejoin="round" stroke-miterlimit="10" x1="51.333" y1="181.5" x2="63.333" y2="181.5"/>
	
		<line fill="none" stroke="#666666" stroke-width="3" stroke-linecap="round" stroke-linejoin="round" stroke-miterlimit="10" x1="56.333" y1="189.5" x2="66.333" y2="189.5"/>
	
		<line fill="none" stroke="#666666" stroke-width="3" stroke-linecap="round" stroke-linejoin="round" stroke-miterlimit="10" x1="53.333" y1="173.5" x2="68.333" y2="173.5"/>
	
		<rect x="49.333" y="169" fill="#FFFFFF" stroke="#999999" stroke-width="2" stroke-linecap="round" stroke-linejoin="round" stroke-miterlimit="10" width="19" height="4"/>
	<path fill="none" stroke="#666666" stroke-width="3" stroke-linecap="round" stroke-linejoin="round" stroke-miterlimit="10" d="
		M78.108,169.553"/>
	
		<line fill="none" stroke="#666666" stroke-width="2" stroke-linecap="round" stroke-linejoin="round" stroke-miterlimit="10" x1="74.333" y1="199" x2="74.333" y2="172"/>
	
		<line fill="none" stroke="#666666" stroke-width="2" stroke-linecap="round" stroke-linejoin="round" stroke-miterlimit="10" x1="89.333" y1="199" x2="89.333" y2="172"/>
	
		<line fill="none" stroke="#666666" stroke-width="2" stroke-linecap="round" stroke-linejoin="round" stroke-miterlimit="10" x1="79.333" y1="197" x2="79.333" y2="171"/>
	
		<line fill="none" stroke="#666666" stroke-width="2" stroke-linecap="round" stroke-linejoin="round" stroke-miterlimit="10" x1="84.333" y1="196" x2="84.333" y2="171"/>
	
		<line fill="none" stroke="#666666" stroke-width="2" stroke-linecap="round" stroke-linejoin="round" stroke-miterlimit="10" x1="73.333" y1="178" x2="89.333" y2="178"/>
	
		<line fill="none" stroke="#666666" stroke-width="2" stroke-linecap="round" stroke-linejoin="round" stroke-miterlimit="10" x1="73.333" y1="185" x2="89.333" y2="185"/>
	
		<line fill="none" stroke="#666666" stroke-width="3" stroke-linecap="round" stroke-linejoin="round" stroke-miterlimit="10" x1="73.333" y1="181.5" x2="85.333" y2="181.5"/>
	
		<line fill="none" stroke="#666666" stroke-width="3" stroke-linecap="round" stroke-linejoin="round" stroke-miterlimit="10" x1="79.333" y1="189.5" x2="88.333" y2="189.5"/>
	
		<line fill="none" stroke="#666666" stroke-width="3" stroke-linecap="round" stroke-linejoin="round" stroke-miterlimit="10" x1="76.333" y1="173.5" x2="91.333" y2="173.5"/>
	
		<rect x="71.333" y="169" fill="#FFFFFF" stroke="#999999" stroke-width="2" stroke-linecap="round" stroke-linejoin="round" stroke-miterlimit="10" width="20" height="4"/>
	
		<line fill="none" stroke="#666666" stroke-width="3" stroke-linecap="square" stroke-linejoin="bevel" stroke-miterlimit="10" x1="7.833" y1="165" x2="7.833" y2="169"/>
	
		<line fill="none" stroke="#666666" stroke-width="3" stroke-linecap="square" stroke-linejoin="bevel" stroke-miterlimit="10" x1="33.833" y1="165" x2="33.833" y2="169"/>
	
		<line fill="none" stroke="#666666" stroke-width="3" stroke-linecap="square" stroke-linejoin="bevel" stroke-miterlimit="10" x1="54.833" y1="165" x2="54.833" y2="169"/>
	
		<line fill="none" stroke="#666666" stroke-width="3" stroke-linecap="square" stroke-linejoin="bevel" stroke-miterlimit="10" x1="75.833" y1="165" x2="75.833" y2="169"/>
</g>
</svg>
