<?xml version="1.0" encoding="utf-8"?>
<!-- Generator: Adobe Illustrator 16.0.0, SVG Export Plug-In . SVG Version: 6.00 Build 0)  -->
<!DOCTYPE svg PUBLIC "-//W3C//DTD SVG 1.1//EN" "http://www.w3.org/Graphics/SVG/1.1/DTD/svg11.dtd">
<svg version="1.1" id="Layer_1" xmlns="http://www.w3.org/2000/svg" xmlns:xlink="http://www.w3.org/1999/xlink" x="0px" y="0px"
	 width="336.029px" height="1033.5px" viewBox="0 0 336.029 1033.5" enable-background="new 0 0 336.029 1033.5"
	 xml:space="preserve">
<g id="Layer_3_2_">
	<circle fill="#003300" cx="175.499" cy="56.748" r="56.749"/>
	<circle fill="#003300" cx="97.502" cy="113.497" r="56.749"/>
	<circle fill="#003300" cx="111.266" cy="191.997" r="56.749"/>
	<circle fill="#003300" cx="54.518" cy="268.997" r="56.749"/>
	<circle fill="#003300" cx="83.016" cy="334.997" r="56.749"/>
	<circle fill="#003300" cx="154.251" cy="336.497" r="56.749"/>
	<circle fill="#003300" cx="154.251" cy="265.997" r="56.749"/>
	<circle fill="#003300" cx="257.747" cy="256.997" r="56.749"/>
	<circle fill="#003300" cx="279.282" cy="310.997" r="56.749"/>
	<circle fill="#003300" cx="279.282" cy="265.997" r="56.749"/>
	<circle fill="#003300" cx="232.248" cy="176.247" r="56.749"/>
	<circle fill="#003300" cx="267.749" cy="140.497" r="56.749"/>
	<circle fill="#003300" cx="248.25" cy="87.497" r="56.749"/>
	<circle fill="#003300" cx="200.999" cy="119.499" r="56.749"/>
	<circle fill="#003300" cx="181.5" cy="194.997" r="56.749"/>
	<circle fill="#003300" cx="83.017" cy="359.247" r="56.749"/>
</g>
<g id="Layer_2">
	<path fill="#745A33" d="M142,1033.5h44c0,0-1.484-704.091-5.524-704.091s47.713-26.785,48.723-64.159l-13.369-3.518
		c0,0-6.06,35.354-39.394,46.465c0,0-23.243-39.395,8.074-122.223c0,0,17.178-24.242,25.259-20.202l-2.021-11.111
		c0,0-22.223,10.102-35.354,24.242c0,0-12.122-41.414-26.264-42.424l-3.873,4.938c0,0,25.248,36.07,20.012,47.524l-2.071,26.325
		c0,0-3.197,9.091-12.197,12.121V237.5c0,0,7.224-1.02,10.253-4.05c0,0-21.212,76.768-14.142,90.909
		c0,0-20.202-35.354-30.303-35.354l-9.092,8.081c0,0,40.783,42.914,38.283,86.914L142,1033.5z"/>
</g>
<ellipse fill="#006600" cx="196.32" cy="47.409" rx="29.361" ry="29.289"/>
<ellipse fill="#006600" cx="104.718" cy="144.246" rx="40.027" ry="39.928"/>
<ellipse fill="#006600" cx="222.126" cy="129.579" rx="40.027" ry="39.928"/>
<ellipse fill="#006600" cx="272.253" cy="156.579" rx="30.337" ry="30.262"/>
<ellipse fill="#006600" cx="223.158" cy="224.204" rx="40.027" ry="39.928"/>
<ellipse fill="#006600" cx="124.751" cy="191.998" rx="29.627" ry="29.554"/>
<ellipse fill="#006600" cx="149.523" cy="102.6" rx="37.826" ry="39.214"/>
<ellipse fill="#006600" cx="83.018" cy="278.249" rx="56.123" ry="54.045"/>
<ellipse fill="#006600" cx="279.282" cy="275.295" rx="56.123" ry="54.045"/>
<ellipse fill="#006600" cx="248.25" cy="101.454" rx="56.123" ry="54.045"/>
<ellipse fill="#006600" cx="90.836" cy="113.497" rx="30.903" ry="28.458"/>
<ellipse fill="#006600" cx="80.955" cy="331.993" rx="38.21" ry="35.336"/>
<ellipse display="none" fill="#A5C61D" cx="192.093" cy="84.5" rx="31.638" ry="33.499"/>
<ellipse display="none" fill="#A5C61D" cx="222.295" cy="142.154" rx="32.546" ry="34.461"/>
<ellipse display="none" fill="#A5C61D" cx="215.346" cy="229.519" rx="34.688" ry="36.729"/>
<ellipse display="none" fill="#A5C61D" cx="271.434" cy="272.391" rx="28.992" ry="31.482"/>
<ellipse display="none" fill="#A5C61D" cx="113.894" cy="159.69" rx="28.405" ry="30.077"/>
<ellipse display="none" fill="#A5C61D" cx="62.626" cy="285.941" rx="27.745" ry="29.377"/>
</svg>
