<?xml version="1.0" encoding="utf-8"?>
<!-- Generator: Adobe Illustrator 16.0.0, SVG Export Plug-In . SVG Version: 6.00 Build 0)  -->
<!DOCTYPE svg PUBLIC "-//W3C//DTD SVG 1.1//EN" "http://www.w3.org/Graphics/SVG/1.1/DTD/svg11.dtd">
<svg version="1.1" id="Layer_1" xmlns="http://www.w3.org/2000/svg" xmlns:xlink="http://www.w3.org/1999/xlink" x="0px" y="0px"
	 width="406px" height="404.068px" viewBox="0 0 406 404.068" enable-background="new 0 0 406 404.068" xml:space="preserve">
<path fill="#663300" stroke="#663300" stroke-miterlimit="10" d="M311.415,405.568c-3.677-0.821-6.862-4.039-9.647-5.588
	c-2.791-1.549-5.183-3.423-7.285-5.54C283,382,282,365,274.928,350.719c-1.15-2.969-2.428-5.886-3.928-8.719
	c-4-6-10-11-16.676-13.314c-2.307-0.875-4.717-1.605-7.18-2.246c-3.52-1.259-7.027-2.531-10.418-3.877
	c-6.783-2.691-13.098-5.674-18.189-9.452c-3.016-0.887-6.204-1.608-9.537-2.108c-17-3-19-24.001-14.164-38.335
	c0,0,2.271-16.5,3.164-17.439c0.894-0.941,28-12.227,24-46.227c-0.784-6.662,16.5,1,22.5-3c0-1,0-3,0-4c-8-6-15.75-3-24.75-1
	c-3,0-4.875-9-2.875-12c7-12,22.063-10,33.32-7.816c2.266,0.355,4.566,0.732,6.854,1.062c2.289,0.331,4.611,0.613,6.947,0.784
	c3.987-0.022,7.494-1.279,10.44-3.454c2.947-2.174,5.345-5.271,7.133-8.969c1.75-2.313,3.302-5.107,4.427-8.607
	c-3,1-5.999,1-8.994,1.004C277.999,164,279,165,279,165c-6,8.5-13.75,9.75-21.813,8.916c-2.688-0.277-5.41-0.788-8.115-1.337
	C238,170,227,169,217,173c0-6,2-12,1-18c-14,2,0,35-13,39c-12,4-20-26-24.836-36.005c0,0-0.25-1.188-0.495-3.557
	c-0.244-2.37-6.814-2.709-6.794-7.438c0.014-3.152,0.454-6.761,1.125-15c-2.671-12.761,27.313-34,18.313-44
	c-4,8-13.313,37-20.313,31c-14-11,3-31,4-47c0-2-1-5-2-4c-3,9-2,23-8,24c-16,0-5-32-23-30c13,20,15,45,19.949,68.494
	c0,2.171-0.282,4.34-0.949,6.506c-1,5-11,2-17,2c-19-2-39-4-58-2c25.2,4.5,66.6-3.149,80.201,21.294
	c1.512,2.717,2.68,5.828,3.444,9.397C178,185,190,200,204,213c5,5,4,17-1,24c-11,12-28,5-40.051-0.941
	c-2.569-1.219-5.057-2.481-7.401-3.691C153.204,231.157,151,230,149,229c-3.5,8.5,3.5,11,11.75,13.125
	c2.75,0.708,5.639,1.375,8.324,2.208C173,247,179,247,180,253c0.5,2.5,0,4.938-1.081,7.39c-3.245,7.352-9.134,15.366-13.133,24.458
	C160,298,169,323.979,186.977,337.109c2.684,1.96,13.364,6.445,15.623,7.234c2.6,0.664,15.013,3.408,17.726,4.574
	C230,351,230,362,226,369c-6,10-18,12-26,19.007c-2,1.993-4,3.993-5.625,6.243S191.5,403,191,406
	C194.25,405.875,311.415,405.568,311.415,405.568z"/>
<g id="Layer_2_1_">
	<circle fill="#205924" cx="73.372" cy="35.19" r="33.84"/>
	<circle fill="#205924" cx="78.622" cy="55.627" r="33.84"/>
	<circle fill="#205924" cx="117.957" cy="34.877" r="33.84"/>
	<circle fill="#205924" cx="155.457" cy="34.877" r="33.84"/>
	<circle fill="#205924" cx="180.082" cy="58.877" r="33.84"/>
	<circle fill="#205924" cx="233.457" cy="52.126" r="33.84"/>
	<circle fill="#205924" cx="259.989" cy="68.03" r="33.84"/>
	<circle fill="#205924" cx="207.457" cy="90.126" r="33.84"/>
	<circle fill="#205924" cx="212.939" cy="133.466" r="33.84"/>
	<circle fill="#205924" cx="259.457" cy="134.842" r="33.84"/>
	<circle fill="#205924" cx="308.707" cy="132.876" r="33.84"/>
	<circle fill="#205924" cx="352.457" cy="138.24" r="33.84"/>
	<circle fill="#205924" cx="367" cy="150.876" r="33.84"/>
	<circle fill="#205924" cx="320.457" cy="158.267" r="33.84"/>
	<circle fill="#205924" cx="329.457" cy="227.002" r="33.84"/>
	<circle fill="#205924" cx="287.457" cy="235.002" r="33.84"/>
	<circle fill="#205924" cx="265.457" cy="218.376" r="33.84"/>
	<circle fill="#205924" cx="282.457" cy="217.144" r="33.84"/>
	<circle fill="#205924" cx="130.957" cy="220.502" r="33.84"/>
	<circle fill="#205924" cx="94.974" cy="221.252" r="33.84"/>
	<circle fill="#205924" cx="84.3" cy="213.376" r="33.84"/>
	<circle fill="#205924" cx="63.372" cy="138" r="33.84"/>
	<circle fill="#205924" cx="88.767" cy="146.501" r="33.84"/>
	<circle fill="#205924" cx="111.457" cy="145.425" r="33.84"/>
	<circle fill="#205924" cx="128.957" cy="68.717" r="33.84"/>
</g>
<circle fill="#3F7828" cx="169.125" cy="36.5" r="10.5"/>
<circle fill="#3F7828" cx="224.5" cy="68" r="7"/>
<circle fill="#3F7828" cx="241.5" cy="65.5" r="3.5"/>
<circle fill="#3F7828" cx="234.75" cy="55.75" r="6.75"/>
<circle fill="#3F7828" cx="260.473" cy="66.625" r="16.375"/>
<circle fill="#3F7828" cx="204.5" cy="83.5" r="5.5"/>
<ellipse fill="#3F7828" cx="174" cy="55" rx="0" ry="9"/>
<circle fill="#3F7828" cx="113.165" cy="41.75" r="10.25"/>
<circle fill="#3F7828" cx="121.5" cy="49.845" r="8.156"/>
<circle fill="#3F7828" cx="86.388" cy="44.612" r="5.612"/>
<circle fill="#3F7828" cx="96.29" cy="48.375" r="6.625"/>
<circle fill="#3F7828" cx="88.306" cy="35.306" r="9.306"/>
<circle fill="#3F7828" cx="170.75" cy="27.25" r="9.25"/>
<ellipse fill="#3F7828" cx="375" cy="152" rx="0" ry="2"/>
<ellipse fill="#3F7828" cx="317" cy="131.75" rx="0" ry="6.25"/>
<ellipse fill="#3F7828" cx="241" cy="120.466" rx="0" ry="5.269"/>
<circle fill="#3F7828" cx="209.721" cy="124.72" r="6.28"/>
<circle fill="#3F7828" cx="209.791" cy="136.791" r="7.791"/>
<circle fill="#3F7828" cx="219.141" cy="127.86" r="3.14"/>
<circle fill="#3F7828" cx="274" cy="217.5" r="22.247"/>
<circle fill="#3F7828" cx="310.5" cy="231.5" r="22.247"/>
<circle fill="#3F7828" cx="286.25" cy="233" r="22.247"/>
<circle fill="#3F7828" cx="332.747" cy="224.126" r="22.247"/>
<circle fill="#3F7828" cx="294" cy="145.625" r="22.247"/>
<circle fill="#3F7828" cx="250.782" cy="122.5" r="22.247"/>
<circle fill="#3F7828" cx="317" cy="159.216" r="22.247"/>
<circle fill="#3F7828" cx="341" cy="136.5" r="22.247"/>
<circle fill="#3F7828" cx="367" cy="147" r="22.247"/>
<circle fill="#3F7828" cx="208.631" cy="127.745" r="15.877"/>
<circle fill="#3F7828" cx="223.626" cy="140" r="15.877"/>
<circle fill="#3F7828" cx="234" cy="57.307" r="22.247"/>
<circle fill="#3F7828" cx="188.001" cy="61" r="16.997"/>
<ellipse fill="#3F7828" cx="207.908" cy="84.125" rx="18.484" ry="18.547"/>
<circle fill="#3F7828" cx="166.219" cy="29.025" r="15.966"/>
<circle fill="#3F7828" cx="66.767" cy="56.483" r="17.014"/>
<circle fill="#3F7828" cx="87.5" cy="30.188" r="22.247"/>
<circle fill="#3F7828" cx="113" cy="46.313" r="22.247"/>
<circle fill="#3F7828" cx="137.5" cy="38.313" r="22.247"/>
<circle fill="#3F7828" cx="155.983" cy="57.233" r="15.264"/>
<ellipse fill="#3F7828" cx="102.33" cy="150" rx="17.547" ry="17.259"/>
<circle fill="#3F7828" cx="79.5" cy="156.715" r="18.046"/>
<circle fill="#3F7828" cx="68" cy="136.5" r="22.247"/>
<ellipse fill="#3F7828" cx="327" cy="201.5" rx="0" ry="7.5"/>
<circle fill="#3F7828" cx="279.688" cy="212.563" r="10.063"/>
<circle fill="#3F7828" cx="267.813" cy="206.813" r="3.813"/>
<circle fill="#3F7828" cx="289.413" cy="221.413" r="10.413"/>
<circle fill="#3F7828" cx="331.5" cy="206" r="4.5"/>
<circle fill="#3F7828" cx="341" cy="211" r="5"/>
<circle fill="#3F7828" cx="341.75" cy="228.25" r="3.25"/>
<circle fill="#3F7828" cx="305.75" cy="237.126" r="10.841"/>
<circle fill="#3F7828" cx="297.537" cy="232.622" r="7.622"/>
<circle fill="#3F7828" cx="266.533" cy="231.391" r="5.387"/>
<circle fill="#3F7828" cx="261.607" cy="228.697" r="2.693"/>
<circle fill="#3F7828" cx="270.305" cy="223.695" r="7.695"/>
<circle fill="#3F7828" cx="282.5" cy="236.325" r="4.5"/>
<circle fill="#3F7828" cx="130.512" cy="215.762" r="12.262"/>
<circle fill="#3F7828" cx="134.619" cy="209.881" r="5.881"/>
<ellipse fill="#3F7828" cx="88" cy="218.736" rx="0" ry="4.412"/>
<circle fill="#3F7828" cx="110.068" cy="217.144" r="7.231"/>
<circle fill="#3F7828" cx="109.75" cy="228.25" r="6.25"/>
<circle fill="#3F7828" cx="88.718" cy="221.331" r="6.331"/>
<circle fill="#3F7828" cx="99.237" cy="232.513" r="4.263"/>
<circle fill="#3F7828" cx="139.4" cy="227.175" r="5.4"/>
<circle fill="#3F7828" cx="129.81" cy="222.952" r="7.19"/>
<circle fill="#3F7828" cx="117.25" cy="225" r="10"/>
<circle fill="#3F7828" cx="98.943" cy="221.038" r="3.894"/>
<circle fill="#3F7828" cx="116.25" cy="138.75" r="17.625"/>
<circle fill="#3F7828" cx="84.3" cy="209.913" r="17.625"/>
<circle fill="#3F7828" cx="136.5" cy="221.626" r="17.625"/>
<circle fill="#3F7828" cx="107.75" cy="225.592" r="17.625"/>
<ellipse fill="#3F7828" cx="59" cy="116.75" rx="0" ry="7.25"/>
<circle fill="#3F7828" cx="65" cy="153" r="4"/>
<circle fill="#3F7828" cx="88.353" cy="163.873" r="3.127"/>
<circle fill="#3F7828" cx="100.5" cy="137.5" r="2.5"/>
<path fill="#3F7828" d="M204.5,89c-3.037,0-9.555,14.357-9.555,11.32S201.463,78,204.5,78"/>
<g id="Layer_6" display="none">
	<circle display="inline" fill="#74A821" cx="110.875" cy="32.375" r="9.375"/>
	<circle display="inline" fill="#74A821" cx="137.155" cy="30.5" r="7.5"/>
	<circle display="inline" fill="#74A821" cx="114.502" cy="47.498" r="7.498"/>
	<circle display="inline" fill="#74A821" cx="94.903" cy="38.972" r="6.597"/>
	<circle display="inline" fill="#74A821" cx="120.265" cy="39.89" r="9.39"/>
	<circle display="inline" fill="#74A821" cx="137.562" cy="37.594" r="7.094"/>
	<ellipse display="inline" fill="#74A821" cx="165" cy="42.731" rx="0" ry="10.731"/>
	<circle display="inline" fill="#74A821" cx="150.281" cy="35.719" r="12.719"/>
	<circle display="inline" fill="#74A821" cx="172.469" cy="40.544" r="7.469"/>
	<circle display="inline" fill="#74A821" cx="189.313" cy="61.938" r="13.313"/>
	<circle display="inline" fill="#74A821" cx="207.5" cy="65.5" r="3.5"/>
	<circle display="inline" fill="#74A821" cx="218.604" cy="78.396" r="9.396"/>
	<circle display="inline" fill="#74A821" cx="241.137" cy="74.863" r="7.863"/>
	<circle display="inline" fill="#74A821" cx="258.992" cy="84.48" r="17.855"/>
	<circle display="inline" fill="#74A821" cx="237.25" cy="60" r="4.25"/>
	<circle display="inline" fill="#74A821" cx="208.469" cy="30.844" r="18.156"/>
	<circle display="inline" fill="#74A821" cx="182.313" cy="60.313" r="20.688"/>
	<circle display="inline" fill="#74A821" cx="229.75" cy="66.75" r="1.75"/>
	<circle display="inline" fill="#74A821" cx="221.375" cy="62.375" r="6.625"/>
	<circle display="inline" fill="#74A821" cx="204.5" cy="61" r="7.5"/>
	<circle display="inline" fill="#74A821" cx="159" cy="31" r="11"/>
	<circle display="inline" fill="#74A821" cx="145.578" cy="26.422" r="8.422"/>
	<circle display="inline" fill="#74A821" cx="106.702" cy="30.298" r="11.798"/>
	<circle display="inline" fill="#74A821" cx="118.375" cy="59.125" r="3.125"/>
	<circle display="inline" fill="#74A821" cx="208" cy="120.712" r="12"/>
	<circle display="inline" fill="#74A821" cx="226.906" cy="121.094" r="6.906"/>
	<circle display="inline" fill="#74A821" cx="236.828" cy="129.172" r="9.578"/>
	<circle display="inline" fill="#74A821" cx="245.736" cy="142.787" r="7.737"/>
	<circle display="inline" fill="#74A821" cx="214.604" cy="142.021" r="2.979"/>
	<circle display="inline" fill="#74A821" cx="227.205" cy="148.373" r="9.623"/>
	<circle display="inline" fill="#74A821" cx="239.652" cy="144.187" r="4.187"/>
	<circle display="inline" fill="#74A821" cx="197" cy="138" r="3"/>
	<circle display="inline" fill="#74A821" cx="310.27" cy="144.645" r="7.645"/>
	<circle display="inline" fill="#74A821" cx="355.898" cy="155.929" r="10.273"/>
	<circle display="inline" fill="#74A821" cx="347.047" cy="135.953" r="6.953"/>
	<circle display="inline" fill="#74A821" cx="324.551" cy="144.542" r="6.636"/>
	<circle display="inline" fill="#74A821" cx="314.729" cy="133.771" r="9.771"/>
	<circle display="inline" fill="#74A821" cx="309.207" cy="129.521" r="5.521"/>
	<circle display="inline" fill="#74A821" cx="292.521" cy="150.435" r="4.278"/>
	<circle display="inline" fill="#74A821" cx="321.125" cy="163.75" r="11.125"/>
	<circle display="inline" fill="#74A821" cx="325.75" cy="165" r="2"/>
	<circle display="inline" fill="#74A821" cx="373.086" cy="161.914" r="6.914"/>
	<circle display="inline" fill="#74A821" cx="398" cy="158" r="8"/>
	<circle display="inline" fill="#74A821" cx="377.086" cy="147.914" r="10.914"/>
	<circle display="inline" fill="#74A821" cx="370.418" cy="135.668" r="6.668"/>
	<circle display="inline" fill="#74A821" cx="346.938" cy="121.313" r="8.563"/>
	<circle display="inline" fill="#74A821" cx="320.75" cy="137.521" r="3.75"/>
	<circle display="inline" fill="#74A821" cx="333.188" cy="144.813" r="3.813"/>
	<circle display="inline" fill="#74A821" cx="339.577" cy="155.423" r="5.423"/>
	<circle display="inline" fill="#74A821" cx="357.132" cy="164.969" r="9.04"/>
	<circle display="inline" fill="#74A821" cx="339.117" cy="150.836" r="7.93"/>
	<circle display="inline" fill="#74A821" cx="327.411" cy="123.271" r="12.683"/>
	<circle display="inline" fill="#74A821" cx="326.875" cy="130.125" r="6.125"/>
	<circle display="inline" fill="#74A821" cx="336.866" cy="152.711" r="2.711"/>
	<circle display="inline" fill="#74A821" cx="287.594" cy="209.781" r="7.906"/>
	<circle display="inline" fill="#74A821" cx="269.958" cy="209.042" r="6.542"/>
	<circle display="inline" fill="#74A821" cx="243.766" cy="217.641" r="7.234"/>
	<circle display="inline" fill="#74A821" cx="252.102" cy="215.539" r="2.102"/>
	<circle display="inline" fill="#74A821" cx="271.813" cy="224.813" r="4.813"/>
	<circle display="inline" fill="#74A821" cx="297.313" cy="216.313" r="2.313"/>
	<circle display="inline" fill="#74A821" cx="313" cy="219" r="2"/>
	<ellipse display="inline" fill="#74A821" cx="341" cy="213.5" rx="0" ry="2.5"/>
	<circle display="inline" fill="#74A821" cx="354.875" cy="230.813" r="13.125"/>
	<ellipse display="inline" fill="#74A821" cx="310.77" cy="219.5" rx="18.711" ry="7.778"/>
	<circle display="inline" fill="#74A821" cx="269.406" cy="227.219" r="2.406"/>
	<circle display="inline" fill="#74A821" cx="305.5" cy="226.813" r="8.188"/>
	<circle display="inline" fill="#74A821" cx="320.063" cy="224.063" r="5.063"/>
	<circle display="inline" fill="#74A821" cx="334" cy="218" r="7"/>
	<circle display="inline" fill="#74A821" cx="300" cy="221" r="14"/>
	<circle display="inline" fill="#74A821" cx="327.5" cy="217.5" r="6.5"/>
	<circle display="inline" fill="#74A821" cx="112.381" cy="221.893" r="6.131"/>
	<circle display="inline" fill="#74A821" cx="131.429" cy="218.69" r="8.81"/>
	<circle display="inline" fill="#74A821" cx="138.936" cy="209.162" r="5.838"/>
	<circle display="inline" fill="#74A821" cx="107.667" cy="218.952" r="9.071"/>
	<circle display="inline" fill="#74A821" cx="89.686" cy="227.862" r="8.91"/>
	<ellipse display="inline" fill="#74A821" cx="76" cy="218.736" rx="0" ry="4.412"/>
	<circle display="inline" fill="#74A821" cx="101.661" cy="215.887" r="6.006"/>
	<circle display="inline" fill="#74A821" cx="124.774" cy="225.346" r="6.655"/>
	<circle display="inline" fill="#74A821" cx="115.941" cy="231.584" r="9.691"/>
	<circle display="inline" fill="#74A821" cx="103.25" cy="239.25" r="4.25"/>
	<circle display="inline" fill="#74A821" cx="73.313" cy="132.313" r="9.313"/>
	<circle display="inline" fill="#74A821" cx="53.313" cy="136.313" r="7.313"/>
	<circle display="inline" fill="#74A821" cx="41" cy="128" r="5"/>
	<circle display="inline" fill="#74A821" cx="27.97" cy="136.03" r="8.03"/>
	<circle display="inline" fill="#74A821" cx="26.5" cy="145.53" r="9.5"/>
	<circle display="inline" fill="#74A821" cx="33" cy="153" r="8"/>
	<circle display="inline" fill="#74A821" cx="48.25" cy="155.5" r="5.5"/>
	<circle display="inline" fill="#74A821" cx="70.125" cy="144.813" r="3.188"/>
	<circle display="inline" fill="#74A821" cx="53.781" cy="143.156" r="6.844"/>
	<circle display="inline" fill="#74A821" cx="36.985" cy="145.328" r="9.015"/>
	<circle display="inline" fill="#74A821" cx="57.656" cy="128.656" r="7.656"/>
	<circle display="inline" fill="#74A821" cx="80.313" cy="130" r="7"/>
	<circle display="inline" fill="#74A821" cx="108.5" cy="134.5" r="10.5"/>
	<circle display="inline" fill="#74A821" cx="76.9" cy="148.375" r="12.375"/>
	<circle display="inline" fill="#74A821" cx="92.656" cy="129.344" r="5.344"/>
	<circle display="inline" fill="#74A821" cx="52.5" cy="126.5" r="15.5"/>
</g>
<g id="Layer_5" display="none">
	<circle display="inline" fill="#A5C61D" cx="50.5" cy="120.5" r="4.5"/>
	<circle display="inline" fill="#A5C61D" cx="72.36" cy="123.761" r="3.761"/>
	<circle display="inline" fill="#A5C61D" cx="42.5" cy="133" r="8"/>
	<circle display="inline" fill="#A5C61D" cx="61.667" cy="130.693" r="6.932"/>
	<circle display="inline" fill="#A5C61D" cx="38.439" cy="141.5" r="10.5"/>
	<circle display="inline" fill="#A5C61D" cx="14.263" cy="145.5" r="5.5"/>
	<circle display="inline" fill="#A5C61D" cx="27.453" cy="130.453" r="7.453"/>
	<circle display="inline" fill="#A5C61D" cx="54.5" cy="123.5" r="9.5"/>
	<circle display="inline" fill="#A5C61D" cx="36.007" cy="124.446" r="6.007"/>
	<circle display="inline" fill="#A5C61D" cx="77.567" cy="126.411" r="11.214"/>
	<circle display="inline" fill="#A5C61D" cx="60.625" cy="150.625" r="4.625"/>
	<circle display="inline" fill="#A5C61D" cx="100.25" cy="131.75" r="5.75"/>
	<circle display="inline" fill="#A5C61D" cx="79.5" cy="133.5" r="11.5"/>
	<circle display="inline" fill="#A5C61D" cx="58.313" cy="148.313" r="2.313"/>
	<circle display="inline" fill="#A5C61D" cx="31.22" cy="159.22" r="7.22"/>
	<circle display="inline" fill="#A5C61D" cx="84.75" cy="150.25" r="5.25"/>
	<ellipse display="inline" fill="#A5C61D" cx="92" cy="37.65" rx="0" ry="6.962"/>
	<circle display="inline" fill="#A5C61D" cx="107.25" cy="26.75" r="6.25"/>
	<circle display="inline" fill="#A5C61D" cx="123.405" cy="25.905" r="10.72"/>
	<ellipse display="inline" fill="#A5C61D" cx="118" cy="46.5" rx="0" ry="11.5"/>
	<circle display="inline" fill="#A5C61D" cx="99.625" cy="40.625" r="7.625"/>
	<circle display="inline" fill="#A5C61D" cx="118.813" cy="49.188" r="13.188"/>
	<circle display="inline" fill="#A5C61D" cx="141.219" cy="45.719" r="9.219"/>
	<circle display="inline" fill="#A5C61D" cx="154.5" cy="37.5" r="6.5"/>
	<circle display="inline" fill="#A5C61D" cx="169" cy="34" r="11"/>
	<circle display="inline" fill="#A5C61D" cx="143.5" cy="8.5" r="8.5"/>
	<circle display="inline" fill="#A5C61D" cx="159.578" cy="20.422" r="3.422"/>
	<circle display="inline" fill="#A5C61D" cx="189.5" cy="43.5" r="9.5"/>
	<circle display="inline" fill="#A5C61D" cx="208.875" cy="75.125" r="8.125"/>
	<circle display="inline" fill="#A5C61D" cx="203.25" cy="59.25" r="14.75"/>
	<circle display="inline" fill="#A5C61D" cx="184" cy="74" r="8"/>
	<circle display="inline" fill="#A5C61D" cx="210.5" cy="77.25" r="6.25"/>
	<circle display="inline" fill="#A5C61D" cx="229.389" cy="82.612" r="10.388"/>
	<circle display="inline" fill="#A5C61D" cx="225.018" cy="61.983" r="7.982"/>
	<circle display="inline" fill="#A5C61D" cx="232.5" cy="60.5" r="8.5"/>
	<circle display="inline" fill="#A5C61D" cx="243.236" cy="83.861" r="8.236"/>
	<circle display="inline" fill="#A5C61D" cx="269" cy="76.25" r="3"/>
	<circle display="inline" fill="#A5C61D" cx="257" cy="61" r="3"/>
	<circle display="inline" fill="#A5C61D" cx="261.318" cy="68.681" r="10.681"/>
	<circle display="inline" fill="#A5C61D" cx="257.5" cy="94" r="2.5"/>
	<circle display="inline" fill="#A5C61D" cx="207.313" cy="93.938" r="5.313"/>
	<circle display="inline" fill="#A5C61D" cx="185.002" cy="83.998" r="7.998"/>
	<circle display="inline" fill="#A5C61D" cx="220.957" cy="119.168" r="6.707"/>
	<circle display="inline" fill="#A5C61D" cx="240.109" cy="120.484" r="6.297"/>
	<circle display="inline" fill="#A5C61D" cx="247.5" cy="132.234" r="6.5"/>
	<circle display="inline" fill="#A5C61D" cx="256.75" cy="138.722" r="7.75"/>
	<circle display="inline" fill="#A5C61D" cx="228.25" cy="143.875" r="5"/>
	<circle display="inline" fill="#A5C61D" cx="211.979" cy="134.854" r="8.979"/>
	<circle display="inline" fill="#A5C61D" cx="198.5" cy="150.5" r="5.5"/>
	<circle display="inline" fill="#A5C61D" cx="206" cy="123.86" r="10"/>
	<circle display="inline" fill="#A5C61D" cx="241.313" cy="114.5" r="7.5"/>
	<circle display="inline" fill="#A5C61D" cx="223.188" cy="143.938" r="5.063"/>
	<circle display="inline" fill="#A5C61D" cx="226.979" cy="137.07" r="6.021"/>
	<circle display="inline" fill="#A5C61D" cx="231.135" cy="132.178" r="10.178"/>
	<circle display="inline" fill="#A5C61D" cx="233.689" cy="148.689" r="4.311"/>
	<circle display="inline" fill="#A5C61D" cx="298.375" cy="122.75" r="9.75"/>
	<circle display="inline" fill="#A5C61D" cx="321.479" cy="127.521" r="8.479"/>
	<circle display="inline" fill="#A5C61D" cx="307.047" cy="154.5" r="9.047"/>
	<circle display="inline" fill="#A5C61D" cx="298.75" cy="146.25" r="8.25"/>
	<circle display="inline" fill="#A5C61D" cx="315.25" cy="138.875" r="7.125"/>
	<circle display="inline" fill="#A5C61D" cx="327.938" cy="144.438" r="5.563"/>
	<ellipse display="inline" fill="#A5C61D" cx="349" cy="139.453" rx="0" ry="1.547"/>
	<circle display="inline" fill="#A5C61D" cx="342.773" cy="129.477" r="9.977"/>
	<circle display="inline" fill="#A5C61D" cx="342.773" cy="129.477" r="9.977"/>
	<circle display="inline" fill="#A5C61D" cx="357.523" cy="128.977" r="10.477"/>
	<circle display="inline" fill="#A5C61D" cx="368.625" cy="153.375" r="11.375"/>
	<circle display="inline" fill="#A5C61D" cx="374" cy="158" r="11"/>
	<circle display="inline" fill="#A5C61D" cx="348.762" cy="148.215" r="8.762"/>
	<circle display="inline" fill="#A5C61D" cx="337.881" cy="150.334" r="10.881"/>
	<circle display="inline" fill="#A5C61D" cx="300.125" cy="164.875" r="11.875"/>
	<circle display="inline" fill="#A5C61D" cx="288.75" cy="172.75" r="6.75"/>
	<circle display="inline" fill="#A5C61D" cx="324.041" cy="161.959" r="2.959"/>
	<circle display="inline" fill="#A5C61D" cx="328.594" cy="167" r="12.5"/>
	<circle display="inline" fill="#A5C61D" cx="259.434" cy="214.186" r="11.482"/>
	<circle display="inline" fill="#A5C61D" cx="281.844" cy="204.656" r="2.156"/>
	<circle display="inline" fill="#A5C61D" cx="287.172" cy="207.828" r="3.172"/>
	<circle display="inline" fill="#A5C61D" cx="311.5" cy="214.5" r="4.5"/>
	<circle display="inline" fill="#A5C61D" cx="285.344" cy="226.656" r="15.656"/>
	<circle display="inline" fill="#A5C61D" cx="268.031" cy="210.406" r="3.594"/>
	<circle display="inline" fill="#A5C61D" cx="264.844" cy="202.156" r="4.656"/>
	<circle display="inline" fill="#A5C61D" cx="303.5" cy="218" r="8"/>
	<circle display="inline" fill="#A5C61D" cx="314.875" cy="221.375" r="3.375"/>
	<circle display="inline" fill="#A5C61D" cx="323.625" cy="221.375" r="5.375"/>
	<circle display="inline" fill="#A5C61D" cx="333.25" cy="207.75" r="6.25"/>
	<circle display="inline" fill="#A5C61D" cx="348.125" cy="216.375" r="8.625"/>
	<circle display="inline" fill="#A5C61D" cx="312.414" cy="217.305" r="7.445"/>
	<ellipse display="inline" fill="#A5C61D" cx="333" cy="210.875" rx="0" ry="3.125"/>
	<circle display="inline" fill="#A5C61D" cx="317.75" cy="210.25" r="4.25"/>
	<circle display="inline" fill="#A5C61D" cx="308.479" cy="228.686" r="3.936"/>
	<circle display="inline" fill="#A5C61D" cx="304.159" cy="243.841" r="2.841"/>
	<polygon display="inline" fill="#A5C61D" points="135.949,204.5 135.949,204.5 135.949,204.5 	"/>
	<circle display="inline" fill="#A5C61D" cx="140.677" cy="205.177" r="9.323"/>
	<circle display="inline" fill="#A5C61D" cx="125.387" cy="212.994" r="3.113"/>
	<circle display="inline" fill="#A5C61D" cx="111.019" cy="215.601" r="5.72"/>
	<circle display="inline" fill="#A5C61D" cx="102.269" cy="216.831" r="4.331"/>
	<circle display="inline" fill="#A5C61D" cx="115.2" cy="212.8" r="2.8"/>
	<circle display="inline" fill="#A5C61D" cx="85.006" cy="216.769" r="4.269"/>
	<circle display="inline" fill="#A5C61D" cx="75.563" cy="221.944" r="5.175"/>
	<circle display="inline" fill="#A5C61D" cx="79.241" cy="230.797" r="8.853"/>
	<circle display="inline" fill="#A5C61D" cx="96.238" cy="232.27" r="11.231"/>
	<circle display="inline" fill="#A5C61D" cx="122.108" cy="232.41" r="11.09"/>
	<circle display="inline" fill="#A5C61D" cx="130.5" cy="229.5" r="4.5"/>
	<circle display="inline" fill="#A5C61D" cx="146.712" cy="225.287" r="7.288"/>
	<circle display="inline" fill="#A5C61D" cx="131.393" cy="223.784" r="9.284"/>
	<circle display="inline" fill="#A5C61D" cx="105.893" cy="116.042" r="3.958"/>
	<ellipse display="inline" fill="#A5C61D" cx="169" cy="16.5" rx="0" ry="6.5"/>
	<circle display="inline" fill="#A5C61D" cx="179" cy="15" r="3"/>
	<circle display="inline" fill="#A5C61D" cx="186.5" cy="25.5" r="7.5"/>
	<circle display="inline" fill="#A5C61D" cx="337.875" cy="113.917" r="7.875"/>
	<circle display="inline" fill="#A5C61D" cx="295.188" cy="196.438" r="5.438"/>
	<circle display="inline" fill="#A5C61D" cx="250.633" cy="141.867" r="3.133"/>
</g>
</svg>
