<?xml version="1.0" encoding="utf-8"?>
<!-- Generator: Adobe Illustrator 16.0.0, SVG Export Plug-In . SVG Version: 6.00 Build 0)  -->
<!DOCTYPE svg PUBLIC "-//W3C//DTD SVG 1.1//EN" "http://www.w3.org/Graphics/SVG/1.1/DTD/svg11.dtd">
<svg version="1.1" xmlns="http://www.w3.org/2000/svg" xmlns:xlink="http://www.w3.org/1999/xlink" x="0px" y="0px"
	 width="336.029px" height="1033.5px" viewBox="0 0 336.029 1033.5" enable-background="new 0 0 336.029 1033.5"
	 xml:space="preserve">
<g id="Layer_3">
	<circle fill="#003300" cx="172.25" cy="111.25" r="28.25"/>
	<circle fill="#003300" cx="227.25" cy="139.25" r="28.25"/>
	<ellipse fill="#003300" cx="258.25" cy="173" rx="23.25" ry="15.5"/>
	<circle fill="#003300" cx="229.25" cy="164.25" r="28.25"/>
	<circle fill="#003300" cx="129.25" cy="213.25" r="28.25"/>
	<circle fill="#003300" cx="134.25" cy="224.25" r="28.25"/>
	<circle fill="#003300" cx="89.25" cy="246.25" r="28.25"/>
	<ellipse fill="#003300" cx="97.25" cy="224" rx="22.25" ry="20.5"/>
	<circle fill="#003300" cx="113.25" cy="274.25" r="28.25"/>
	<circle fill="#003300" cx="96.25" cy="266.25" r="28.25"/>
	<circle fill="#003300" cx="87.25" cy="279.25" r="28.25"/>
	<ellipse fill="#003300" cx="134.5" cy="259.75" rx="18" ry="19.75"/>
	<circle fill="#003300" cx="98.25" cy="132.25" r="28.25"/>
	<circle fill="#003300" cx="120.25" cy="164.25" r="28.25"/>
	<circle fill="#003300" cx="149.25" cy="167.25" r="28.25"/>
	<circle fill="#003300" cx="165.25" cy="140.25" r="28.25"/>
	<circle fill="#003300" cx="201.25" cy="144.25" r="28.25"/>
	<circle fill="#003300" cx="151.5" cy="201" r="19.5"/>
	<circle fill="#003300" cx="78.625" cy="196.875" r="19.625"/>
	<circle fill="#003300" cx="209.25" cy="242.25" r="28.25"/>
	<ellipse fill="#003300" cx="188.5" cy="221.25" rx="17.5" ry="21.25"/>
	<circle fill="#003300" cx="237.25" cy="274.25" r="28.25"/>
	<ellipse fill="#003300" cx="237.75" cy="246.75" rx="20.75" ry="19.75"/>
	<circle fill="#003300" cx="287.25" cy="256.25" r="28.25"/>
	<ellipse fill="#003300" cx="270.625" cy="293" rx="21.625" ry="18.5"/>
	<circle fill="#003300" cx="263.25" cy="206.25" r="28.25"/>
	<circle fill="#003300" cx="225.25" cy="197.25" r="28.25"/>
	<circle fill="#003300" cx="201.25" cy="192.25" r="28.25"/>
	<ellipse fill="#003300" cx="215.625" cy="103.25" rx="21.625" ry="28.25"/>
	<circle fill="#003300" cx="169.75" cy="102.75" r="20.75"/>
	<circle fill="#003300" cx="144.25" cy="47.25" r="28.25"/>
	<ellipse fill="#003300" cx="132.5" cy="101.5" rx="36.5" ry="47"/>
	<circle fill="#003300" cx="102.25" cy="237.25" r="28.25"/>
	<circle fill="#003300" cx="157.25" cy="265.25" r="28.25"/>
	<circle fill="#003300" cx="159.25" cy="290.25" r="28.25"/>
	<circle fill="#003300" cx="28.25" cy="258.25" r="28.25"/>
	<circle fill="#003300" cx="50.25" cy="290.25" r="28.25"/>
	<circle fill="#003300" cx="79.25" cy="293.25" r="28.25"/>
	<circle fill="#003300" cx="65.25" cy="327.25" r="28.25"/>
	<circle fill="#003300" cx="92.25" cy="330.25" r="28.25"/>
	<circle fill="#003300" cx="95.25" cy="266.25" r="28.25"/>
	<circle fill="#003300" cx="131.25" cy="270.25" r="28.25"/>
	<ellipse fill="#003300" cx="145.625" cy="229.25" rx="21.625" ry="28.25"/>
	<circle fill="#003300" cx="99.75" cy="228.75" r="20.75"/>
	<circle fill="#003300" cx="74.25" cy="173.25" r="28.25"/>
	<ellipse fill="#003300" cx="62.5" cy="227.5" rx="36.5" ry="47"/>
	<circle fill="#003300" cx="302.25" cy="246.25" r="28.25"/>
	<circle fill="#003300" cx="228.25" cy="267.25" r="28.25"/>
	<circle fill="#003300" cx="250.25" cy="299.25" r="28.25"/>
	<circle fill="#003300" cx="279.25" cy="302.25" r="28.25"/>
	<circle fill="#003300" cx="295.25" cy="275.25" r="28.25"/>
	<circle fill="#003300" cx="299.75" cy="237.75" r="20.75"/>
	<circle fill="#003300" cx="274.25" cy="182.25" r="28.25"/>
	<ellipse fill="#003300" cx="262.5" cy="236.5" rx="36.5" ry="47"/>
	<ellipse fill="#003300" cx="179.25" cy="19" rx="23.25" ry="15.5"/>
	<circle fill="#003300" cx="208.25" cy="102.25" r="28.25"/>
	<ellipse fill="#003300" cx="191.625" cy="139" rx="21.625" ry="18.5"/>
	<circle fill="#003300" cx="184.25" cy="52.25" r="28.25"/>
	<circle fill="#003300" cx="223.25" cy="92.25" r="28.25"/>
	<circle fill="#003300" cx="171.25" cy="145.25" r="28.25"/>
	<circle fill="#003300" cx="200.25" cy="148.25" r="28.25"/>
	<circle fill="#003300" cx="216.25" cy="121.25" r="28.25"/>
	<circle fill="#003300" cx="195.25" cy="28.25" r="28.25"/>
	<ellipse fill="#003300" cx="183.5" cy="82.5" rx="36.5" ry="47"/>
	<ellipse fill="#003300" cx="249.25" cy="62" rx="23.25" ry="15.5"/>
	<circle fill="#003300" cx="278.25" cy="145.25" r="28.25"/>
	<ellipse fill="#003300" cx="261.625" cy="182" rx="21.625" ry="18.5"/>
	<circle fill="#003300" cx="254.25" cy="95.25" r="28.25"/>
	<circle fill="#003300" cx="307.25" cy="159.25" r="28.25"/>
	<circle fill="#003300" cx="307.25" cy="136.25" r="28.25"/>
	<circle fill="#003300" cx="241.25" cy="188.25" r="28.25"/>
	<circle fill="#003300" cx="270.25" cy="191.25" r="28.25"/>
	<circle fill="#003300" cx="286.25" cy="164.25" r="28.25"/>
	<circle fill="#003300" cx="265.25" cy="71.25" r="28.25"/>
	<ellipse fill="#003300" cx="253.5" cy="125.5" rx="36.5" ry="47"/>
</g>
<g id="Layer_5">
	<ellipse fill="#006600" cx="56.25" cy="313.25" rx="18.25" ry="22.25"/>
	<ellipse fill="#006600" cx="73.25" cy="289.25" rx="18.25" ry="22.25"/>
	<ellipse fill="#006600" cx="91.25" cy="300.25" rx="18.25" ry="22.25"/>
	<ellipse fill="#006600" cx="93.25" cy="251.25" rx="18.25" ry="22.25"/>
	<ellipse fill="#006600" cx="93.25" cy="236.25" rx="18.25" ry="22.25"/>
	<ellipse fill="#006600" cx="37.25" cy="259.25" rx="18.25" ry="22.25"/>
	<ellipse fill="#006600" cx="54.25" cy="235.25" rx="18.25" ry="22.25"/>
	<ellipse fill="#006600" cx="72.25" cy="246.25" rx="18.25" ry="22.25"/>
	<ellipse fill="#006600" cx="74.25" cy="197.25" rx="18.25" ry="22.25"/>
	<ellipse fill="#006600" cx="74.25" cy="182.25" rx="18.25" ry="22.25"/>
	<ellipse fill="#006600" cx="226.25" cy="265.25" rx="18.25" ry="22.25"/>
	<ellipse fill="#006600" cx="163.25" cy="224.25" rx="18.25" ry="22.25"/>
	<ellipse fill="#006600" cx="261.25" cy="252.25" rx="18.25" ry="22.25"/>
	<ellipse fill="#006600" cx="183.25" cy="186.25" rx="18.25" ry="22.25"/>
	<ellipse fill="#006600" cx="183.25" cy="171.25" rx="18.25" ry="22.25"/>
	<ellipse fill="#006600" cx="122.25" cy="164.25" rx="18.25" ry="22.25"/>
	<ellipse fill="#006600" cx="100.52" cy="262.933" rx="18.52" ry="19.683"/>
	<ellipse fill="#006600" cx="140.52" cy="186.933" rx="18.52" ry="19.683"/>
	<ellipse fill="#006600" cx="126.52" cy="211.933" rx="18.52" ry="19.683"/>
	<ellipse fill="#006600" cx="127.145" cy="266.559" rx="14.145" ry="15.058"/>
	<ellipse fill="#006600" cx="98" cy="274.933" rx="34" ry="19.683"/>
	<ellipse fill="#006600" cx="91.52" cy="244.274" rx="18.52" ry="27.342"/>
	<ellipse fill="#006600" cx="96.02" cy="216.933" rx="31.02" ry="19.683"/>
	<ellipse fill="#006600" cx="107.107" cy="238.256" rx="16.107" ry="13.244"/>
	<ellipse fill="#006600" cx="212.438" cy="124.376" rx="19.438" ry="22.124"/>
	<ellipse fill="#006600" cx="240" cy="136.375" rx="20" ry="13.125"/>
	<ellipse fill="#006600" cx="208.813" cy="180.375" rx="19.813" ry="21.125"/>
	<ellipse fill="#006600" cx="192.813" cy="197.375" rx="19.813" ry="21.125"/>
	<ellipse fill="#006600" cx="262.125" cy="258.375" rx="21.125" ry="19.125"/>
	<ellipse fill="#006600" cx="178.375" cy="175.75" rx="12.375" ry="23.75"/>
	<ellipse fill="#006600" cx="254.375" cy="92.75" rx="12.375" ry="23.75"/>
	<ellipse fill="#006600" cx="133.852" cy="190.548" rx="25.852" ry="12.298"/>
	<ellipse fill="#006600" cx="225.063" cy="251.908" rx="20.063" ry="23.658"/>
	<ellipse fill="#006600" cx="206.625" cy="229.149" rx="21.125" ry="22.351"/>
	<ellipse fill="#006600" cx="263.375" cy="279.375" rx="12.375" ry="13.125"/>
	<ellipse fill="#006600" cx="287.515" cy="253.625" rx="18.515" ry="18.875"/>
	<ellipse fill="#006600" cx="243.25" cy="289.25" rx="18.25" ry="22.25"/>
	<ellipse fill="#006600" cx="260.25" cy="265.25" rx="18.25" ry="22.25"/>
	<ellipse fill="#006600" cx="278.25" cy="276.25" rx="18.25" ry="22.25"/>
	<ellipse fill="#006600" cx="200.25" cy="210.25" rx="18.25" ry="22.25"/>
	<ellipse fill="#006600" cx="279.125" cy="282.375" rx="21.125" ry="19.125"/>
	<ellipse fill="#006600" cx="242.063" cy="275.908" rx="20.063" ry="23.658"/>
	<ellipse fill="#006600" cx="280.375" cy="303.375" rx="12.375" ry="13.125"/>
	<ellipse fill="#006600" cx="304.515" cy="277.625" rx="18.515" ry="18.875"/>
	<ellipse fill="#006600" cx="256.25" cy="292.25" rx="18.25" ry="22.25"/>
	<ellipse fill="#006600" cx="273.25" cy="268.25" rx="18.25" ry="22.25"/>
	<ellipse fill="#006600" cx="291.25" cy="279.25" rx="18.25" ry="22.25"/>
	<ellipse fill="#006600" cx="203.25" cy="158.25" rx="18.25" ry="22.25"/>
	<ellipse fill="#006600" cx="213.25" cy="213.25" rx="18.25" ry="22.25"/>
	<ellipse fill="#006600" cx="174.25" cy="169.25" rx="18.25" ry="22.25"/>
	<ellipse fill="#006600" cx="274.25" cy="148.25" rx="18.25" ry="22.25"/>
	<ellipse fill="#006600" cx="274.25" cy="133.25" rx="18.25" ry="22.25"/>
	<ellipse fill="#006600" cx="203.813" cy="142.375" rx="19.813" ry="21.125"/>
	<ellipse fill="#006600" cx="290.375" cy="151.75" rx="12.375" ry="23.75"/>
	<ellipse fill="#006600" cx="224.852" cy="152.548" rx="25.852" ry="12.298"/>
	<ellipse fill="#006600" cx="211.25" cy="155.25" rx="18.25" ry="22.25"/>
	<ellipse fill="#006600" cx="294.25" cy="120.25" rx="18.25" ry="22.25"/>
	<ellipse fill="#006600" cx="224.25" cy="158.25" rx="18.25" ry="22.25"/>
	<ellipse fill="#006600" cx="162.25" cy="125.25" rx="18.25" ry="22.25"/>
	<ellipse fill="#006600" cx="162.25" cy="110.25" rx="18.25" ry="22.25"/>
	<ellipse fill="#006600" cx="111.438" cy="46.376" rx="19.438" ry="22.124"/>
	<ellipse fill="#006600" cx="139" cy="58.375" rx="20" ry="13.125"/>
	<ellipse fill="#006600" cx="171.813" cy="136.375" rx="19.813" ry="21.125"/>
	<ellipse fill="#006600" cx="157.375" cy="114.75" rx="12.375" ry="23.75"/>
	<ellipse fill="#006600" cx="112.852" cy="129.548" rx="25.852" ry="12.298"/>
	<ellipse fill="#006600" cx="182.25" cy="97.25" rx="18.25" ry="22.25"/>
	<ellipse fill="#006600" cx="153.25" cy="108.25" rx="18.25" ry="22.25"/>
	<ellipse fill="#006600" cx="173.25" cy="70.25" rx="18.25" ry="22.25"/>
	<ellipse fill="#006600" cx="173.25" cy="55.25" rx="18.25" ry="22.25"/>
	<ellipse fill="#006600" cx="182.813" cy="81.375" rx="19.813" ry="21.125"/>
	<ellipse fill="#006600" cx="189.375" cy="73.75" rx="12.375" ry="23.75"/>
	<ellipse fill="#006600" cx="123.852" cy="74.548" rx="25.852" ry="12.298"/>
	<ellipse fill="#006600" cx="190.25" cy="94.25" rx="18.25" ry="22.25"/>
	<ellipse fill="#006600" cx="193.25" cy="42.25" rx="18.25" ry="22.25"/>
	<ellipse fill="#006600" cx="203.25" cy="97.25" rx="18.25" ry="22.25"/>
	<ellipse fill="#006600" cx="292.125" cy="285.375" rx="21.125" ry="19.125"/>
	<ellipse fill="#006600" cx="255.063" cy="278.908" rx="20.063" ry="23.658"/>
	<ellipse fill="#006600" cx="293.375" cy="306.375" rx="12.375" ry="13.125"/>
	<ellipse fill="#006600" cx="317.515" cy="280.625" rx="18.515" ry="18.875"/>
</g>
<g id="Layer_2">
	<path fill="#745A33" d="M142,1033.5h44c0,0-1.485-704.091-5.525-704.091s47.713-26.785,48.723-64.159l-13.369-3.518
		c0,0-6.06,35.354-39.394,46.465c0,0-23.243-39.395,8.075-122.223c0,0,17.177-24.242,25.258-20.202l-2.021-11.111
		c0,0-22.223,10.101-35.354,24.242c0,0-12.122-41.414-26.263-42.424l-3.873,4.938c0,0,25.248,36.07,20.011,47.524l-2.071,26.325
		c0,0-3.197,9.091-12.197,12.121V237.5c0,0,7.223-1.02,10.253-4.05c0,0-21.212,76.767-14.142,90.909
		c0,0-20.202-35.354-30.303-35.354l-9.091,8.081c0,0,40.783,42.914,38.283,86.914L142,1033.5z"/>
</g>
<g id="Layer_4">
	<circle fill="#74A821" cx="110.805" cy="114.694" r="17.65"/>
	<ellipse fill="#74A821" cx="109.63" cy="127.694" rx="21.825" ry="22.65"/>
	<circle fill="#74A821" cx="136.805" cy="136.694" r="17.65"/>
	<circle fill="#74A821" cx="143.805" cy="177.694" r="17.65"/>
	<circle fill="#74A821" cx="108.805" cy="228.694" r="17.65"/>
	<circle fill="#74A821" cx="56.805" cy="236.694" r="17.65"/>
	<circle fill="#74A821" cx="84.805" cy="273.694" r="17.65"/>
	<ellipse fill="#74A821" cx="136.828" cy="239.694" rx="12.672" ry="17.65"/>
	<ellipse fill="#74A821" cx="93.393" cy="255.694" rx="13.237" ry="17.65"/>
	<circle fill="#74A821" cx="147.805" cy="57.694" r="17.65"/>
	<circle fill="#74A821" cx="162.805" cy="119.694" r="17.65"/>
	<circle fill="#74A821" cx="183.805" cy="107.694" r="17.65"/>
	<path fill="#74A821" d="M227.155,276.694c0,9.747,10.43,17.65,23.3,17.65c12.865,0,23.295-7.903,23.295-17.65
		s-10.43-17.65-23.295-17.65C237.585,259.044,227.155,266.947,227.155,276.694z"/>
	<ellipse fill="#74A821" cx="199.123" cy="246.765" rx="11.967" ry="13.58"/>
	<circle fill="#74A821" cx="275.805" cy="248.694" r="17.65"/>
	<ellipse fill="#74A821" cx="301.078" cy="271.297" rx="15.922" ry="25.048"/>
	<ellipse fill="#74A821" cx="230.805" cy="253.844" rx="17.65" ry="25.5"/>
	<ellipse fill="#74A821" cx="244.68" cy="75.194" rx="22.525" ry="21.15"/>
	<ellipse fill="#74A821" cx="225.68" cy="109.194" rx="22.525" ry="21.15"/>
	<ellipse fill="#74A821" cx="270.805" cy="201.194" rx="17.65" ry="24.15"/>
	<path fill="#74A821" d="M209.155,179.694c0,9.747,10.43,17.65,23.3,17.65c12.865,0,23.295-7.903,23.295-17.65
		s-10.43-17.65-23.295-17.65C219.585,162.044,209.155,169.947,209.155,179.694z"/>
	<ellipse fill="#74A821" cx="283.078" cy="174.297" rx="15.922" ry="25.048"/>
	<ellipse fill="#74A821" cx="285.078" cy="177.297" rx="15.922" ry="25.048"/>
	<ellipse fill="#74A821" cx="252.805" cy="104.194" rx="17.65" ry="24.15"/>
	<path fill="#74A821" d="M148.155,153.694c0,9.747,10.43,17.65,23.3,17.65c12.865,0,23.295-7.903,23.295-17.65
		s-10.43-17.65-23.295-17.65C158.585,136.044,148.155,143.947,148.155,153.694z"/>
	
		<ellipse transform="matrix(0.7801 -0.6257 0.6257 0.7801 -12.8409 173.4315)" fill="#74A821" cx="240.286" cy="104.982" rx="9.131" ry="14.364"/>
	
		<ellipse transform="matrix(0.7801 -0.6257 0.6257 0.7801 -7.5814 174.3947)" fill="#74A821" cx="244.286" cy="97.982" rx="9.131" ry="14.364"/>
	
		<ellipse transform="matrix(0.7801 -0.6257 0.6257 0.7801 -30.2271 161.9679)" fill="#74A821" cx="215.286" cy="123.982" rx="9.131" ry="14.364"/>
	<ellipse fill="#74A821" cx="189.805" cy="79.194" rx="17.65" ry="24.15"/>
	<path fill="#74A821" d="M39.155,287.694c0,9.747,10.43,17.65,23.3,17.65c12.865,0,23.295-7.903,23.295-17.65
		s-10.43-17.65-23.295-17.65C49.585,270.044,39.155,277.947,39.155,287.694z"/>
	<ellipse fill="#74A821" cx="118.078" cy="255.297" rx="15.922" ry="25.048"/>
	<ellipse fill="#74A821" cx="87.805" cy="185.194" rx="17.65" ry="24.15"/>
	<circle fill="#74A821" cx="185.805" cy="88.694" r="17.65"/>
</g>
<g id="Layer_6">
	<circle fill="#A5C61D" cx="132.098" cy="166.598" r="16.902"/>
	<circle fill="#A5C61D" cx="154.098" cy="82.598" r="16.902"/>
	<circle fill="#A5C61D" cx="90.188" cy="217.312" r="16.812"/>
	<ellipse fill="#A5C61D" cx="129.778" cy="215.265" rx="14.778" ry="17.92"/>
	<circle fill="#A5C61D" cx="115" cy="227.5" r="11"/>
	<ellipse fill="#A5C61D" cx="70.194" cy="271.369" rx="15.569" ry="20.542"/>
	<circle fill="#A5C61D" cx="106.412" cy="284.088" r="15.412"/>
	<ellipse fill="#A5C61D" cx="115.403" cy="282.215" rx="7.405" ry="0.801"/>
	<ellipse fill="#A5C61D" cx="101.585" cy="152.04" rx="10.367" ry="8.46"/>
	<ellipse fill="#A5C61D" cx="165.584" cy="162.04" rx="10.368" ry="8.46"/>
	<ellipse fill="#A5C61D" cx="132.341" cy="136.269" rx="15.607" ry="13.042"/>
	<ellipse fill="#A5C61D" cx="215.163" cy="150.424" rx="13.955" ry="12.878"/>
	<ellipse fill="#A5C61D" cx="233.163" cy="92.424" rx="13.955" ry="12.878"/>
	<ellipse fill="#A5C61D" cx="228" cy="183.5" rx="17" ry="18"/>
	<ellipse fill="#A5C61D" cx="265" cy="133.5" rx="17" ry="18"/>
	<ellipse fill="#A5C61D" cx="229.511" cy="160.148" rx="8.648" ry="10.352"/>
	<ellipse fill="#A5C61D" cx="258.214" cy="193.488" rx="15.214" ry="16.557"/>
	<ellipse fill="#A5C61D" cx="278.402" cy="251.25" rx="11.402" ry="11.25"/>
	<circle fill="#A5C61D" cx="255.589" cy="280.911" r="14.589"/>
	<circle fill="#A5C61D" cx="244" cy="258.5" r="11"/>
	<ellipse fill="#A5C61D" cx="224.594" cy="245.28" rx="19.594" ry="8.874"/>
	<ellipse fill="#A5C61D" cx="211.583" cy="212.027" rx="16.583" ry="10.473"/>
	<ellipse fill="#A5C61D" cx="192.574" cy="75.149" rx="5.574" ry="10.351"/>
</g>
</svg>
