<?xml version="1.0" encoding="utf-8"?>
<!-- Generator: Adobe Illustrator 16.0.0, SVG Export Plug-In . SVG Version: 6.00 Build 0)  -->
<!DOCTYPE svg PUBLIC "-//W3C//DTD SVG 1.1//EN" "http://www.w3.org/Graphics/SVG/1.1/DTD/svg11.dtd">
<svg version="1.1" id="Layer_2" xmlns="http://www.w3.org/2000/svg" xmlns:xlink="http://www.w3.org/1999/xlink" x="0px" y="0px"
	 width="120.179px" height="98.006px" viewBox="0 0 120.179 98.006" enable-background="new 0 0 120.179 98.006"
	 xml:space="preserve">
<path fill="#666666" stroke="#666666" stroke-miterlimit="10" d="M39.795,1.1l7.667,3.333l32.439,33.332l2.894,3.002l12.333-3
	l9.667-2.667c0,0,8.417-1.291,14.75,2.042c0,0-1.75,4.292-9.75,7.292s-26,8.333-26,8.333S59.462,92.765,56.128,95.099l-5.333,2
	c0,0,16.667-34.332,15-38.666c0,0-39.667,5.999-43,4.666c0,0-8,11.668-8.667,13.334l-4.667,2l5-13.334l-5-1.666l3.667-2.667l-12-8
	l4-1.333l2.667,1l-1.667-5.334h3.333l12,10.667c0,0,39.667-12.333,42.333-12.333C63.795,45.433,67.461,45.433,39.795,1.1z"/>
<path fill="#666666" stroke="#666666" stroke-miterlimit="10" d="M82.545,31.016c0,0,1.25,2.25,0.75,4.875
	c0,0-1.788,0.871-7.394,1.873l-3.879-3.985l1.773-0.388C73.795,33.391,75.795,31.391,82.545,31.016z"/>
<path fill="#666666" stroke="#666666" stroke-miterlimit="10" d="M82.295,61.266c0,0,1.125,2.125,1.25,4.75c0,0-4.5,1.625-8.375,1.5
	l-6.085-0.631l2.344-3.769l1.616,0.649C73.045,63.766,75.545,61.766,82.295,61.266z"/>
</svg>
