<?xml version="1.0" encoding="utf-8"?>
<!-- Generator: Adobe Illustrator 16.0.0, SVG Export Plug-In . SVG Version: 6.00 Build 0)  -->
<!DOCTYPE svg PUBLIC "-//W3C//DTD SVG 1.1//EN" "http://www.w3.org/Graphics/SVG/1.1/DTD/svg11.dtd">
<svg version="1.1" id="Layer_1" xmlns="http://www.w3.org/2000/svg" xmlns:xlink="http://www.w3.org/1999/xlink" x="0px" y="0px"
	 width="840.5px" height="277.271px" viewBox="0 -76.528 840.5 277.271" enable-background="new 0 -76.528 840.5 277.271"
	 xml:space="preserve">
<g id="Layer_2_1_">
	<linearGradient id="SVGID_1_" gradientUnits="userSpaceOnUse" x1="419.5237" y1="-72.5098" x2="419.5237" y2="210.0659">
		<stop  offset="0.0816" style="stop-color:#95C864;stop-opacity:0.5"/>
		<stop  offset="0.3096" style="stop-color:#81B45A;stop-opacity:0.4504"/>
		<stop  offset="0.7731" style="stop-color:#4E8141;stop-opacity:0.3494"/>
		<stop  offset="1" style="stop-color:#336633;stop-opacity:0.3"/>
	</linearGradient>
	<path fill="url(#SVGID_1_)" d="M329.5-11.238L151.024,85.574l-55-36L-2.097,78.5l-1.378,130.317l846,1.248L840.5,95.5
		c-25.239,9.607-30,15-112-17c-58.083-22.667-135.398-152.296-137-151c-3.266,2.645-65,141.269-65,141.269s-74.268-41.913-71-39.269
		c3.266,2.646-80.424,42.861-80.424,42.861L329.5-11.238z"/>
	<linearGradient id="SVGID_2_" gradientUnits="userSpaceOnUse" x1="420.2507" y1="200.7354" x2="420.2507" y2="64.769">
		<stop  offset="0" style="stop-color:#336633;stop-opacity:0.5"/>
		<stop  offset="0.238" style="stop-color:#4B7E3F;stop-opacity:0.4172"/>
		<stop  offset="0.7387" style="stop-color:#89BC5E;stop-opacity:0.243"/>
		<stop  offset="0.8622" style="stop-color:#99CC66;stop-opacity:0.2"/>
	</linearGradient>
	<polygon fill="url(#SVGID_2_)" points="-2.097,145.334 57.867,169.533 125.5,107.5 140.5,132.752 166.678,116.847 182.091,156.917 
		194.5,133.629 210.919,156.915 253.5,89.705 277.5,133.629 316.5,64.769 368.5,154.5 429.5,92.753 496.5,151.5 592.5,92.753 
		606.542,161.439 652.5,132.752 692.5,148.5 772.5,121.5 810.5,132.752 824.5,147.5 842.098,169.743 842.598,200.735 
		-2.097,199.943 	"/>
</g>
</svg>
