<?xml version="1.0" encoding="utf-8"?>
<!-- Generator: Adobe Illustrator 16.0.0, SVG Export Plug-In . SVG Version: 6.00 Build 0)  -->
<!DOCTYPE svg PUBLIC "-//W3C//DTD SVG 1.1//EN" "http://www.w3.org/Graphics/SVG/1.1/DTD/svg11.dtd">
<svg version="1.1" id="Layer_1" xmlns="http://www.w3.org/2000/svg" xmlns:xlink="http://www.w3.org/1999/xlink" x="0px" y="0px"
	 width="845px" height="199px" viewBox="0 0 845 199" enable-background="new 0 0 845 199" xml:space="preserve">
<g>
	
		<line fill="none" stroke="#999999" stroke-width="6" stroke-linecap="round" stroke-linejoin="round" stroke-miterlimit="10" x1="195" y1="16" x2="267" y2="16"/>
	
		<polygon fill="none" stroke="#999999" stroke-width="6" stroke-linecap="round" stroke-linejoin="round" stroke-miterlimit="10" points="
		253.703,87 272,41.013 272,16 191,16 191,41.013 207.497,87 	"/>
	
		<polyline fill="none" stroke="#999999" stroke-width="6" stroke-linecap="round" stroke-linejoin="round" stroke-miterlimit="10" points="
		258,25 203.646,25 199.628,25 263,25 263,51.516 231.499,81.881 200,51.516 200,25 	"/>
	
		<polygon fill="none" stroke="#999999" stroke-width="6" stroke-linecap="round" stroke-linejoin="round" stroke-miterlimit="10" points="
		272,2 272,16 262.409,16 	"/>
	
		<polygon fill="none" stroke="#999999" stroke-width="6" stroke-linecap="round" stroke-linejoin="round" stroke-miterlimit="10" points="
		191,16 191,2 199.628,16 	"/>
	
		<polyline fill="none" stroke="#999999" stroke-width="6" stroke-linecap="round" stroke-linejoin="round" stroke-miterlimit="10" points="
		200,41 200,51.516 172.859,51.26 190.588,41 200,41 	"/>
	
		<polyline fill="none" stroke="#999999" stroke-width="6" stroke-linecap="round" stroke-linejoin="round" stroke-miterlimit="10" points="
		289,52 262.409,52 271.951,41.255 262.409,51.885 270.779,16 262.409,16 262.06,49.506 	"/>
	
		<polygon fill="none" stroke="#999999" stroke-width="6" stroke-linecap="round" stroke-linejoin="round" stroke-miterlimit="10" points="
		190.588,16 200,16 200,48.516 	"/>
	
		<polygon fill="none" stroke="#999999" stroke-width="6" stroke-linecap="round" stroke-linejoin="round" stroke-miterlimit="10" points="
		230.935,81.854 226.582,87 234.786,87 	"/>
	
		<polygon fill="none" stroke="#999999" stroke-width="6" stroke-linecap="round" stroke-linejoin="round" stroke-miterlimit="10" points="
		207.455,86.809 207.254,88.561 195.108,196 266.928,196 266.712,194.248 253.703,87.012 239.641,86.953 	"/>
	
		<polyline fill="none" stroke="#999999" stroke-width="6" stroke-linecap="round" stroke-linejoin="round" stroke-miterlimit="10" points="
		239.987,194.697 240.034,86.945 222,86.809 222,196 240,196 	"/>
</g>
<line fill="none" stroke="#999999" stroke-width="6" stroke-linecap="round" stroke-linejoin="round" stroke-miterlimit="10" x1="191.306" y1="42.967" x2="199.628" y2="51.516"/>
<path fill="none" stroke="#999999" stroke-width="6" stroke-linecap="round" stroke-linejoin="round" stroke-miterlimit="10" d="
	M289.027,51.516"/>
<line fill="none" stroke="#999999" stroke-width="6" stroke-linecap="round" stroke-linejoin="round" stroke-miterlimit="10" x1="271.951" y1="41.013" x2="289.027" y2="51.516"/>
<polygon fill="none" stroke="#999999" stroke-width="6" stroke-linecap="round" stroke-linejoin="round" stroke-miterlimit="10" points="
	280.489,70 243.826,70 253.319,60.787 "/>
<polyline fill="none" stroke="#999999" stroke-width="6" stroke-linecap="round" stroke-linejoin="round" stroke-miterlimit="10" points="
	208.36,60.787 181.045,70 218,70 "/>
<polyline fill="none" stroke="#999999" stroke-width="3" stroke-linecap="round" stroke-linejoin="round" stroke-miterlimit="10" points="
	199.628,15.504 208.167,24.508 217.709,15.504 226.582,24.508 235.623,15.504 244.495,24.508 253.703,15.504 262.409,24.508 "/>
<polyline fill="none" stroke="#999999" stroke-width="3" stroke-linecap="round" stroke-linejoin="round" stroke-miterlimit="10" points="
	199.628,24.508 208.122,16.338 217.613,24.508 226.438,16.338 235.431,24.508 244.255,16.338 253.414,24.508 262.073,16.338 "/>
<polyline fill="none" stroke="#999999" stroke-width="3" stroke-linecap="round" stroke-linejoin="round" stroke-miterlimit="10" points="
	195.852,9.988 190.525,15.473 199.346,20.406 191.29,24.124 199.621,28.63 190.584,33.508 199.332,37.636 190.5,41.013 
	190.5,50.516 185.132,44.182 181.086,51.266 "/>
<polyline fill="none" stroke="#999999" stroke-width="3" stroke-linecap="round" stroke-linejoin="round" stroke-miterlimit="10" points="
	266.594,8.988 272.45,14.639 262.752,19.723 271.609,23.553 262.45,28.194 272.385,33.221 262.78,37.473 272.5,40.952 272.5,50.742 
	278.391,44.217 282.834,51.516 "/>
<polyline fill="none" stroke="#999999" stroke-width="3" stroke-linecap="round" stroke-linejoin="round" stroke-miterlimit="10" points="
	199.824,51.406 197.54,59.607 208.264,60.281 201.913,69.508 217.721,68.997 204.365,78.5 227.753,78.5 207.218,86.5 226.75,86.5 
	227.753,78.834 "/>
<polyline fill="none" stroke="#999999" stroke-width="3" stroke-linecap="round" stroke-linejoin="round" stroke-miterlimit="10" points="
	261.93,51.656 264.292,59.976 253.209,60.658 259.772,70.018 243.437,69.181 257.238,78.5 233.07,78.5 254.29,87.5 234.108,87.5 
	233.07,79.601 "/>
<polyline fill="none" stroke="#999999" stroke-width="3" stroke-linecap="round" stroke-linejoin="round" stroke-miterlimit="10" points="
	207.497,87.027 221.225,96.531 205.291,105.965 221.225,114.787 203.367,122.98 221.225,132.543 201.282,141.436 221.225,150.549 
	199.628,159.551 221.225,168.055 197.201,177.539 221.225,187.061 195.108,196.063 "/>
<polyline fill="none" stroke="#999999" stroke-width="3" stroke-linecap="round" stroke-linejoin="round" stroke-miterlimit="10" points="
	252.729,87.027 239.64,96.531 254.834,105.965 239.64,114.787 256.666,122.98 239.64,132.543 258.656,141.436 239.64,150.549 
	260.232,159.551 239.64,168.055 262.547,177.539 239.64,187.061 264.542,196.063 "/>
<polyline fill="none" stroke="#999999" stroke-width="3" stroke-linecap="round" stroke-linejoin="round" stroke-miterlimit="10" points="
	220.723,87.277 239.138,96.531 220.723,105.533 239.138,114.787 220.723,123.039 239.138,132.543 220.723,141.436 239.138,149.298 
	220.723,159.301 239.138,168.055 220.723,177.807 239.138,187.061 220.723,196.063 "/>
<polyline fill="none" stroke="#999999" stroke-width="3" stroke-linecap="round" stroke-linejoin="round" stroke-miterlimit="10" points="
	239.64,87.277 220.471,96.531 239.64,105.533 220.471,114.787 239.64,123.039 220.471,132.543 239.64,141.436 220.471,149.298 
	239.64,159.301 220.471,168.055 239.64,177.807 220.471,187.061 239.64,196.063 "/>
<polyline fill="none" stroke="#999999" stroke-width="3" stroke-linecap="round" stroke-linejoin="round" stroke-miterlimit="10" points="
	199.5,53 199.5,63.02 208.276,60.309 204.396,78.275 221.24,72.406 207.226,86.277 230.939,81.881 252.731,87.027 239.892,73.298 
	255.677,77.705 248.681,64.795 262.45,63.404 260.735,53.186 "/>
<polyline fill="none" stroke="#999999" stroke-width="3" stroke-linecap="round" stroke-linejoin="round" stroke-miterlimit="10" points="
	239.689,87.205 254.847,96.221 239.652,105.516 257.014,114.263 239.894,132.396 260.234,159.321 239.891,186.5 265.924,186.5 
	240.813,195.908 "/>
<polyline fill="none" stroke="#999999" stroke-width="3" stroke-linecap="round" stroke-linejoin="round" stroke-miterlimit="10" points="
	221.226,86.809 206.467,95.898 221.263,105.271 204.357,114.09 221.028,132.374 201.221,159.308 221.031,186.5 195.681,186.5 
	220.134,196.198 "/>
<polyline fill="none" stroke="#999999" stroke-width="3" stroke-linecap="round" stroke-linejoin="round" stroke-miterlimit="10" points="
	204.357,114.09 257.014,114.263 201.282,141.436 260.331,141.67 "/>
<line fill="none" stroke="#999999" stroke-width="3" stroke-linecap="round" stroke-linejoin="round" stroke-miterlimit="10" x1="191" y1="6.5" x2="186" y2="6.5"/>
<polyline fill="none" stroke="#999999" stroke-width="3" stroke-linecap="round" stroke-linejoin="round" stroke-miterlimit="10" points="
	173.5,52 173.5,57.5 171,57.5 175,57.5 "/>
<polyline fill="none" stroke="#999999" stroke-width="3" stroke-linecap="round" stroke-linejoin="round" stroke-miterlimit="10" points="
	181.5,70 181.5,75.5 179.036,75.5 183,75.5 "/>
<polyline fill="none" stroke="#999999" stroke-width="3" stroke-linecap="round" stroke-linejoin="round" stroke-miterlimit="10" points="
	289.5,52 289.5,57.5 287.52,57.5 291,57.5 "/>
<polyline fill="none" stroke="#999999" stroke-width="3" stroke-linecap="round" stroke-linejoin="round" stroke-miterlimit="10" points="
	280.5,70 280.5,75.5 278.982,75.5 283,75.5 "/>
<line fill="none" stroke="#999999" stroke-width="3" stroke-linecap="round" stroke-linejoin="round" stroke-miterlimit="10" x1="272" y1="6.5" x2="277" y2="6.5"/>
<polyline fill="none" stroke="#999999" stroke-width="3" stroke-linecap="round" stroke-linejoin="round" stroke-miterlimit="10" points="
	243.5,26 243.5,33.5 241.314,33.5 246,33.5 "/>
<polyline fill="none" stroke="#999999" stroke-width="3" stroke-linecap="round" stroke-linejoin="round" stroke-miterlimit="10" points="
	218.5,26 218.5,33.5 215.7,33.5 220,33.5 "/>
<g>
	
		<line fill="none" stroke="#999999" stroke-width="6" stroke-linecap="round" stroke-linejoin="round" stroke-miterlimit="10" x1="531" y1="16" x2="604" y2="16"/>
	
		<polygon fill="none" stroke="#999999" stroke-width="6" stroke-linecap="round" stroke-linejoin="round" stroke-miterlimit="10" points="
		589.702,87 609,41.013 609,16 527,16 527,41.013 543.496,87 	"/>
	
		<polyline fill="none" stroke="#999999" stroke-width="6" stroke-linecap="round" stroke-linejoin="round" stroke-miterlimit="10" points="
		595,25 539.646,25 535.628,25 599,25 599,51.516 567.5,81.881 536,51.516 536,25 	"/>
	
		<polygon fill="none" stroke="#999999" stroke-width="6" stroke-linecap="round" stroke-linejoin="round" stroke-miterlimit="10" points="
		609,2 609,16 598.407,16 	"/>
	
		<polygon fill="none" stroke="#999999" stroke-width="6" stroke-linecap="round" stroke-linejoin="round" stroke-miterlimit="10" points="
		527,16 527,2 535.628,16 	"/>
	
		<polyline fill="none" stroke="#999999" stroke-width="6" stroke-linecap="round" stroke-linejoin="round" stroke-miterlimit="10" points="
		536,41 536,51.516 508.859,51.26 526.588,41 536,41 	"/>
	
		<polyline fill="none" stroke="#999999" stroke-width="6" stroke-linecap="round" stroke-linejoin="round" stroke-miterlimit="10" points="
		626,52 598.407,52 607.95,41.255 598.407,51.885 606.778,16 598.407,16 598.561,49.506 	"/>
	
		<polygon fill="none" stroke="#999999" stroke-width="6" stroke-linecap="round" stroke-linejoin="round" stroke-miterlimit="10" points="
		526.588,16 536,16 536,48.516 	"/>
	
		<polygon fill="none" stroke="#999999" stroke-width="6" stroke-linecap="round" stroke-linejoin="round" stroke-miterlimit="10" points="
		566.934,81.854 562.581,87 570.784,87 	"/>
	
		<polygon fill="none" stroke="#999999" stroke-width="6" stroke-linecap="round" stroke-linejoin="round" stroke-miterlimit="10" points="
		543.454,86.809 543.253,88.561 531.106,196 602.928,196 602.712,194.248 589.702,87.012 575.64,86.953 	"/>
	
		<polyline fill="none" stroke="#999999" stroke-width="6" stroke-linecap="round" stroke-linejoin="round" stroke-miterlimit="10" points="
		575.986,194.697 575.533,86.945 557,86.809 557,196 576,196 	"/>
</g>
<line fill="none" stroke="#999999" stroke-width="6" stroke-linecap="round" stroke-linejoin="round" stroke-miterlimit="10" x1="527.305" y1="42.967" x2="535.628" y2="51.516"/>
<path fill="none" stroke="#999999" stroke-width="6" stroke-linecap="round" stroke-linejoin="round" stroke-miterlimit="10" d="
	M625.025,51.516"/>
<line fill="none" stroke="#999999" stroke-width="6" stroke-linecap="round" stroke-linejoin="round" stroke-miterlimit="10" x1="607.95" y1="41.013" x2="625.025" y2="51.516"/>
<polygon fill="none" stroke="#999999" stroke-width="6" stroke-linecap="round" stroke-linejoin="round" stroke-miterlimit="10" points="
	616.488,70 579.824,70 589.318,60.787 "/>
<polyline fill="none" stroke="#999999" stroke-width="6" stroke-linecap="round" stroke-linejoin="round" stroke-miterlimit="10" points="
	544.359,60.787 517.045,70 554,70 "/>
<polyline fill="none" stroke="#999999" stroke-width="3" stroke-linecap="round" stroke-linejoin="round" stroke-miterlimit="10" points="
	535.628,15.504 544.166,24.508 553.708,15.504 562.581,24.508 571.621,15.504 580.494,24.508 589.702,15.504 598.407,24.508 "/>
<polyline fill="none" stroke="#999999" stroke-width="3" stroke-linecap="round" stroke-linejoin="round" stroke-miterlimit="10" points="
	535.628,24.508 544.121,16.338 553.612,24.508 562.438,16.338 571.43,24.508 580.255,16.338 589.413,24.508 598.072,16.338 "/>
<polyline fill="none" stroke="#999999" stroke-width="3" stroke-linecap="round" stroke-linejoin="round" stroke-miterlimit="10" points="
	531.851,9.988 526.524,15.473 535.345,20.406 527.289,24.124 535.62,28.63 526.584,33.508 535.33,37.636 526.5,41.013 526.5,50.516 
	521.133,44.182 517.086,51.266 "/>
<polyline fill="none" stroke="#999999" stroke-width="3" stroke-linecap="round" stroke-linejoin="round" stroke-miterlimit="10" points="
	602.592,8.988 608.449,14.639 598.751,19.723 607.608,23.553 598.449,28.194 608.385,33.221 599.277,37.473 609.5,40.952 
	609.5,50.742 614.889,44.217 619.082,51.516 "/>
<polyline fill="none" stroke="#999999" stroke-width="3" stroke-linecap="round" stroke-linejoin="round" stroke-miterlimit="10" points="
	535.823,51.406 533.538,59.607 544.263,60.281 537.911,69.508 553.72,68.997 540.364,78.5 563.753,78.5 543.218,86.5 562.749,86.5 
	563.753,78.834 "/>
<polyline fill="none" stroke="#999999" stroke-width="3" stroke-linecap="round" stroke-linejoin="round" stroke-miterlimit="10" points="
	597.929,51.656 600.29,59.976 589.209,60.658 595.771,70.018 579.436,69.181 593.237,78.5 569.069,78.5 590.288,87.5 570.107,87.5 
	569.069,79.601 "/>
<polyline fill="none" stroke="#999999" stroke-width="3" stroke-linecap="round" stroke-linejoin="round" stroke-miterlimit="10" points="
	543.496,87.027 557.224,96.531 541.29,105.965 557.224,114.787 539.366,122.98 557.224,132.543 537.281,141.436 557.224,150.549 
	535.628,159.551 557.224,168.055 533.2,177.539 557.224,187.061 531.106,196.063 "/>
<polyline fill="none" stroke="#999999" stroke-width="3" stroke-linecap="round" stroke-linejoin="round" stroke-miterlimit="10" points="
	588.728,87.027 575.639,96.531 590.833,105.965 575.639,114.787 592.665,122.98 575.639,132.543 594.655,141.436 575.639,150.549 
	596.231,159.551 575.639,168.055 598.546,177.539 575.639,187.061 600.542,196.063 "/>
<polyline fill="none" stroke="#999999" stroke-width="3" stroke-linecap="round" stroke-linejoin="round" stroke-miterlimit="10" points="
	556.722,87.277 575.137,96.531 556.722,105.533 575.137,114.787 556.722,123.039 575.137,132.543 556.722,141.436 575.137,149.298 
	556.722,159.301 575.137,168.055 556.722,177.807 575.137,187.061 556.722,196.063 "/>
<polyline fill="none" stroke="#999999" stroke-width="3" stroke-linecap="round" stroke-linejoin="round" stroke-miterlimit="10" points="
	575.639,87.277 556.471,96.531 575.639,105.533 556.471,114.787 575.639,123.039 556.471,132.543 575.639,141.436 556.471,149.298 
	575.639,159.301 556.471,168.055 575.639,177.807 556.471,187.061 575.639,196.063 "/>
<polyline fill="none" stroke="#999999" stroke-width="3" stroke-linecap="round" stroke-linejoin="round" stroke-miterlimit="10" points="
	535.5,53 535.5,63.02 544.275,60.309 540.396,78.275 557.238,72.406 543.227,86.277 566.938,81.881 588.73,87.027 575.891,73.298 
	591.676,77.705 584.68,64.795 598.449,63.404 596.735,53.186 "/>
<polyline fill="none" stroke="#999999" stroke-width="3" stroke-linecap="round" stroke-linejoin="round" stroke-miterlimit="10" points="
	575.688,87.205 590.847,96.221 575.651,105.516 593.014,114.263 575.893,132.396 596.232,159.321 575.89,186.5 601.923,186.5 
	576.811,195.908 "/>
<polyline fill="none" stroke="#999999" stroke-width="3" stroke-linecap="round" stroke-linejoin="round" stroke-miterlimit="10" points="
	557.225,86.809 542.467,95.898 557.262,105.271 540.356,114.09 557.026,132.374 537.22,159.308 557.029,186.5 531.68,186.5 
	556.134,196.198 "/>
<polyline fill="none" stroke="#999999" stroke-width="3" stroke-linecap="round" stroke-linejoin="round" stroke-miterlimit="10" points="
	540.356,114.09 593.014,114.263 537.281,141.436 596.33,141.67 "/>
<line fill="none" stroke="#999999" stroke-width="3" stroke-linecap="round" stroke-linejoin="round" stroke-miterlimit="10" x1="527" y1="6.5" x2="522" y2="6.5"/>
<polyline fill="none" stroke="#999999" stroke-width="3" stroke-linecap="round" stroke-linejoin="round" stroke-miterlimit="10" points="
	509.5,52 509.5,57.5 507,57.5 511,57.5 "/>
<polyline fill="none" stroke="#999999" stroke-width="3" stroke-linecap="round" stroke-linejoin="round" stroke-miterlimit="10" points="
	517.5,70 517.5,75.5 515.035,75.5 519,75.5 "/>
<polyline fill="none" stroke="#999999" stroke-width="3" stroke-linecap="round" stroke-linejoin="round" stroke-miterlimit="10" points="
	579.5,26 579.5,33.5 577.313,33.5 581,33.5 "/>
<polyline fill="none" stroke="#999999" stroke-width="3" stroke-linecap="round" stroke-linejoin="round" stroke-miterlimit="10" points="
	554.5,26 554.5,33.5 551.699,33.5 556,33.5 "/>
<linearGradient id="SVGID_1_" gradientUnits="userSpaceOnUse" x1="-164" y1="196.5" x2="-164" y2="168.5">
	<stop  offset="0.15" style="stop-color:#FEFEFE"/>
	<stop  offset="0.355" style="stop-color:#FFFFFF"/>
	<stop  offset="0.4842" style="stop-color:#F9F9F9"/>
	<stop  offset="0.6619" style="stop-color:#E7E7E7"/>
	<stop  offset="0.855" style="stop-color:#CCCCCC"/>
</linearGradient>
<rect x="-188.5" y="168.5" fill="url(#SVGID_1_)" stroke="#CCCCCC" stroke-width="3" stroke-linecap="round" stroke-linejoin="round" stroke-miterlimit="10" width="49" height="28"/>
<polygon fill="#FFFFFF" stroke="#CCCCCC" stroke-width="3" stroke-linecap="round" stroke-linejoin="round" stroke-miterlimit="10" points="
	-191.5,168.5 -137.217,168.5 -139.685,161.5 -188.809,161.5 "/>
<line fill="none" stroke="#CCCCCC" stroke-width="3" stroke-linecap="round" stroke-linejoin="round" stroke-miterlimit="10" x1="-164.5" y1="161" x2="-164.5" y2="168"/>
<line fill="none" stroke="#CCCCCC" stroke-width="3" stroke-linecap="round" stroke-linejoin="round" stroke-miterlimit="10" x1="-155.704" y1="160.837" x2="-148.928" y2="167.566"/>
<line fill="none" stroke="#CCCCCC" stroke-width="3" stroke-linecap="round" stroke-linejoin="round" stroke-miterlimit="10" x1="-174.948" y1="160.837" x2="-181.724" y2="167.566"/>
<polyline fill="#FFFFFF" stroke="#CCCCCC" stroke-linecap="round" stroke-linejoin="round" stroke-miterlimit="10" points="
	-159.5,197 -159.5,177.5 -148.5,177.5 -148.5,197 "/>
<rect x="-156.5" y="181.5" fill="#0000FF" stroke="#0000FF" stroke-linecap="round" stroke-linejoin="round" stroke-miterlimit="10" width="4" height="2"/>
<rect x="-185.5" y="177.5" fill="#CCCCCC" stroke="#CCCCCC" stroke-linecap="round" stroke-linejoin="round" stroke-miterlimit="10" width="10" height="4"/>
<rect x="-184.5" y="185.5" fill="#CCCCCC" stroke="#CCCCCC" stroke-linecap="round" stroke-linejoin="round" stroke-miterlimit="10" width="9" height="4"/>
<line fill="none" stroke="#666666" stroke-linecap="round" stroke-linejoin="round" stroke-miterlimit="10" x1="-185.5" y1="181" x2="-185.5" y2="177"/>
<line fill="none" stroke="#666666" stroke-linecap="round" stroke-linejoin="round" stroke-miterlimit="10" x1="-175.5" y1="177" x2="-175.5" y2="181"/>
<line fill="none" stroke="#666666" stroke-linecap="round" stroke-linejoin="round" stroke-miterlimit="10" x1="-185.5" y1="185" x2="-185.5" y2="189"/>
<line fill="none" stroke="#666666" stroke-linecap="round" stroke-linejoin="round" stroke-miterlimit="10" x1="-175.5" y1="185" x2="-175.5" y2="189"/>
<line fill="none" stroke="#666666" stroke-linecap="round" stroke-linejoin="round" stroke-miterlimit="10" x1="-156" y1="188.5" x2="-153" y2="188.5"/>
<line fill="none" stroke="#666666" stroke-linecap="round" stroke-linejoin="round" stroke-miterlimit="10" x1="-156" y1="189.5" x2="-153" y2="189.5"/>
<line fill="none" stroke="#666666" stroke-linecap="round" stroke-linejoin="round" stroke-miterlimit="10" x1="-156" y1="191.5" x2="-153" y2="191.5"/>
<line fill="none" stroke="#666666" stroke-linecap="round" stroke-linejoin="round" stroke-miterlimit="10" x1="-156" y1="190.5" x2="-153" y2="190.5"/>
<path fill="none" stroke="#999999" stroke-width="3" stroke-linecap="round" stroke-linejoin="round" stroke-miterlimit="10" d="
	M-164.358,152.049c0,0-0.5,9.003,0,8.788"/>
<line fill="none" stroke="#666666" stroke-linecap="round" stroke-linejoin="round" stroke-miterlimit="10" x1="-182" y1="178.5" x2="-179" y2="178.5"/>
<line fill="none" stroke="#666666" stroke-linecap="round" stroke-linejoin="round" stroke-miterlimit="10" x1="-182" y1="179.5" x2="-179" y2="179.5"/>
<line fill="none" stroke="#666666" stroke-linecap="round" stroke-linejoin="round" stroke-miterlimit="10" x1="-182" y1="181.5" x2="-179" y2="181.5"/>
<line fill="none" stroke="#666666" stroke-linecap="round" stroke-linejoin="round" stroke-miterlimit="10" x1="-182" y1="180.5" x2="-179" y2="180.5"/>
<line fill="none" stroke="#666666" stroke-linecap="round" stroke-linejoin="round" stroke-miterlimit="10" x1="-182" y1="185.5" x2="-179" y2="185.5"/>
<line fill="none" stroke="#666666" stroke-linecap="round" stroke-linejoin="round" stroke-miterlimit="10" x1="-182" y1="186.5" x2="-179" y2="186.5"/>
<line fill="none" stroke="#666666" stroke-linecap="round" stroke-linejoin="round" stroke-miterlimit="10" x1="-182" y1="188.5" x2="-179" y2="188.5"/>
<line fill="none" stroke="#666666" stroke-linecap="round" stroke-linejoin="round" stroke-miterlimit="10" x1="-182" y1="187.5" x2="-179" y2="187.5"/>
<g>
	<g>
		<path fill="#999999" d="M966.948,161.846c0.327,0.373,1.303,2.443,1.682,3.264c1.728-1.009,3.454-2.019,5.182-3.027
			c-0.733-1.284-1.351-2.622-1.85-4.016c-1.827,0.771-3.655,1.541-5.483,2.313c0.574,0.859,1.147,1.72,1.721,2.58
			c2.184,3.277,6.727,0.465,5.182-3.027c-0.442-0.999-0.849-2.014-1.29-3.012c-1.728,1.009-3.454,2.019-5.182,3.027
			c0.342,0.396,0.629,0.826,0.86,1.291c1.571-1.211,3.142-2.423,4.712-3.635c-0.029-0.133-0.059-0.265-0.089-0.397
			c-1.229,1.23-2.46,2.461-3.69,3.69c0.155,0.057,0.31,0.112,0.464,0.168c3.66,1.325,5.168-4.437,1.595-5.785
			c-0.373-0.2-0.72-0.442-1.038-0.727c-0.504,1.864-1.009,3.728-1.514,5.591c1.63,0.103,3.203,0.398,4.795,0.753
			c-0.733-0.964-1.468-1.929-2.202-2.893c-0.009,1.479-0.013,2.905-0.323,4.364c1.827-0.238,3.655-0.478,5.483-0.716
			c-0.614-1.138-0.907-2.354-0.881-3.648c-1.964,0.266-3.929,0.531-5.893,0.798c0.349,1.856,0.511,3.734,0.86,5.592
			c1.929-0.532,3.856-1.063,5.785-1.596c-0.42-2.009-0.871-4.012-1.291-6.021c-0.803-3.846-6.362-2.142-5.785,1.596
			c0.293,1.896,0.315,3.746,0.323,5.654c1.964-0.266,3.929-0.531,5.893-0.798c-0.867-2.086-1.287-4.242-1.721-6.452
			c-1.929,0.532-3.856,1.063-5.785,1.596c0.646,2.453,0.742,4.854,0.753,7.375c1.964-0.266,3.929-0.531,5.893-0.798
			c-0.752-2.124-1.271-4.245-1.721-6.452c-0.79-3.874-6.287-2.118-5.785,1.596c0.331,2.448,0.317,4.91,0.322,7.375
			c1.964-0.266,3.929-0.531,5.893-0.798c-0.706-3.025-1.117-5.988-1.183-9.096c-2,0-4,0-6,0c0.362,3.44,0.426,6.867,0.43,10.324
			c2,0,4,0,6,0c-0.349-3.058-0.349-5.977,0-9.034c-2,0-4,0-6,0c0.348,3.297,0.427,6.58,0.431,9.894
			c1.964-0.266,3.929-0.531,5.893-0.798c-0.682-2.593-0.743-5.143-0.753-7.806c-1.964,0.266-3.929,0.531-5.893,0.798
			c0.652,3.728,0.37,7.486,0.322,11.247c1.964-0.266,3.929-0.531,5.893-0.798c-0.722-3.6-1.043-7.358,0.989-10.593
			c-1.728,0-3.454,0-5.182,0c1.79,4.033,0.035,9.492-0.732,13.604c1.964,0.267,3.929,0.532,5.893,0.798
			c-0.041-4.007-0.227-7.855,1.184-11.677c-1.929,0-3.856,0-5.785,0c0.591,4.021-0.009,8.072-0.107,12.106
			c1.964-0.266,3.929-0.531,5.893-0.798c-0.48-2.795-0.485-5.595,0.43-8.298c-1.929,0-3.856,0-5.785,0
			c0.652,3.057,0.266,6.033-0.107,9.096c2,0,4,0,6,0c-0.374-3.567-0.82-7.212,0.882-10.531c-1.828-0.238-3.656-0.478-5.483-0.716
			c0.575,3.265-0.104,6.42-0.86,9.59c1.929,0,3.856,0,5.785,0c-0.689-3.638-0.689-7.242,0-10.88
			c-1.964-0.267-3.929-0.532-5.893-0.798c-0.051,4.166-0.335,8.315,0,12.476c0.306,3.803,6.042,3.916,6,0
			c-0.032-3.022-0.439-6.17,1.312-8.811c-1.864-0.504-3.728-1.009-5.591-1.514c0.642,5.039-0.29,10.012-0.431,15.056
			c1.964-0.266,3.929-0.531,5.893-0.798c-1.401-3.512-2.368-7.395-0.731-11.023c-1.864-0.504-3.728-1.009-5.591-1.514
			c0.698,5.307,0.082,10.591,0,15.916c1.964-0.266,3.929-0.531,5.893-0.798c-1.109-3.944-1.858-7.775-0.431-11.74
			c-1.929,0-3.856,0-5.785,0c1.06,6.029,0.004,12.208-0.86,18.193c1.929,0,3.856,0,5.785,0c-1.55-5.356-1.092-10.853,0.86-16.042
			c-1.964-0.267-3.929-0.532-5.893-0.798c-0.125,5.78-1.201,11.459-1.721,17.207c2,0,4,0,6,0
			c-0.074-5.481-0.723-10.982,0.323-16.409c-1.964-0.267-3.929-0.532-5.893-0.798c-0.136,5.333-1.155,10.584-1.291,15.917
			c2,0,4,0,6,0c-0.502-5.752-1.562-11.58-0.107-17.271c-1.964-0.267-3.929-0.532-5.893-0.798c-0.156,5.047-1.146,10.008-1.29,15.057
			c2,0,4,0,6,0c-0.077-4.526-0.691-9.019,0.753-13.397c-1.964-0.267-3.929-0.532-5.893-0.798c0.33,6.029-0.264,12.052,0.43,18.066
			c2,0,4,0,6,0c-0.39-3.253-0.746-6.362,0.323-9.526c-1.964-0.267-3.929-0.532-5.893-0.798c0.354,5.019,0.044,10.033,0,15.057
			c1.964-0.266,3.929-0.531,5.893-0.798c-1.451-3.922-1.134-8.068,0.559-11.884c-1.864-0.504-3.728-1.009-5.591-1.514
			c0.244,4.138-0.382,8.055-1.184,12.106c1.929,0,3.856,0,5.785,0c-0.917-2.683-1.938-5.636-0.731-8.442
			c-1.828-0.238-3.656-0.478-5.483-0.716c0.754,3.829,0.362,7.801,0.322,11.677c1.964-0.266,3.929-0.531,5.893-0.798
			c-1.1-3.707-1.409-7.327,0.989-10.593c-1.828-0.238-3.656-0.478-5.483-0.716c0.938,3.449,0.708,6.548,0,10.019
			c1.964,0.267,3.929,0.532,5.893,0.798c-0.341-2.856-0.79-5.616,0.451-8.38c-1.828-0.238-3.656-0.478-5.483-0.716
			c0.565,3.029,0.308,5.757-0.431,8.729c1.964,0.267,3.929,0.532,5.893,0.798c-0.04-2.572-0.347-5.116,0.882-7.52
			c-1.828-0.239-3.656-0.479-5.483-0.717c0.924,3.291,0.344,6.334-0.431,9.589c1.929,0,3.856,0,5.785,0
			c-0.671-2.109-1.477-4.979,0.089-6.976c-1.707-0.707-3.414-1.414-5.121-2.121c-0.01,2.663-0.071,5.213-0.753,7.806
			c1.827-0.238,3.655-0.478,5.483-0.716c-1.001-1.378-1.187-2.901-0.559-4.571c-1.964-0.267-3.929-0.532-5.893-0.798
			c0.2,1.931,0.171,3.241-0.881,4.939c1.728,0,3.454,0,5.182,0c0-0.998,0-1.996,0-2.994c-1.828-0.239-3.656-0.479-5.483-0.717
			c0.606,2.017,0.421,3.971-0.559,5.861c1.728,0,3.454,0,5.182,0c-1.516-2.131-2.261-3.916-0.86-6.436
			c-1.828-0.238-3.656-0.478-5.483-0.716c0.505,2.099,0.386,3.632,0,5.717c1.929,0,3.856,0,5.785,0
			c-0.482-1.584-0.34-3.061,0.43-4.427c-1.929,0-3.856,0-5.785,0c0.682,2.593,0.743,5.143,0.753,7.806
			c0.013,3.323,5.172,4.172,5.893,0.798c-0.341,1.594,0.256,0.259,1.173-0.375c-1.01,0-2.019,0-3.028,0
			c0.01,0.006,0.02,0.011,0.029,0.017c-0.495-0.864-0.99-1.728-1.485-2.591c0,0.107,0,0.215,0,0.323c0,3.869,6,3.869,6,0
			c0-1.597-0.934-3.06-1.397-4.563c-0.698,1.23-1.396,2.461-2.095,3.69c-0.182-0.01-0.363-0.021-0.544-0.031
			c1.365,0.207,2.633-0.121,3.388-1.379c1.088-1.813,0.648-4.186,0.648-6.214c0-3.869-6-3.869-6,0c0-0.025,0.089,3.323,0.171,3.186
			c1.129-0.459,2.259-0.919,3.388-1.378c-0.95-0.145-1.7-0.169-2.646,0.031c-1.565,0.331-2.556,2.197-2.095,3.69
			c0.172,0.559,1.183,2.978,1.183,2.967c0,3.869,6,3.869,6,0c0-0.108,0-0.216,0-0.323c0-1.028-0.564-2.094-1.485-2.591
			c-0.011-0.005-0.021-0.011-0.03-0.016c-0.897-0.483-2.142-0.612-3.028,0c-1.372,0.948-3.553,2.195-3.93,3.96
			c1.964,0.267,3.929,0.532,5.893,0.798c-0.013-3.215-0.147-6.282-0.968-9.401c-0.821-3.123-4.745-2.575-5.785,0
			c-1.071,2.653-1.143,4.872-0.43,7.618s5.232,2.991,5.785,0c0.568-3.069,0.735-5.854,0-8.908c-0.605-2.52-4.24-2.953-5.483-0.716
			c-2.354,4.238-1.935,8.56,0.86,12.49c1.188,1.671,4.119,2.208,5.182,0c1.688-3.509,1.936-6.671,1.162-10.484
			c-0.569-2.81-4.095-2.603-5.483-0.717c-2.146,2.916-2.146,6.136,0,9.051c1.322,1.796,3.908,2.058,5.182,0
			c1.565-2.529,2.004-5.021,1.699-7.967c-0.328-3.169-5.06-4.32-5.893-0.798c-0.787,3.326-0.602,6.212,1.162,9.194
			c1.309,2.213,4.817,1.818,5.483-0.716c0.82-3.119,0.955-6.187,0.968-9.401c0.009-2.396-3.436-4.271-5.121-2.121
			c-3.006,3.831-3.079,8.266-1.632,12.813c0.863,2.715,5.068,3.011,5.785,0c1.024-4.304,1.646-8.453,0.431-12.78
			c-0.672-2.393-4.271-3.09-5.483-0.717c-1.755,3.435-1.759,6.747-1.7,10.549c0.052,3.345,5.063,4.141,5.893,0.798
			c1.001-4.027,1.193-7.834,0.431-11.92c-0.457-2.451-4.438-3.046-5.483-0.716c-1.721,3.833-1.766,7.251-1.27,11.407
			c0.369,3.092,5.158,4.396,5.893,0.798c0.921-4.512,1.221-8.725,0-13.21c-0.736-2.707-4.016-2.714-5.483-0.716
			c-3.288,4.478-3.114,10.086-1.593,15.216c0.964,3.249,5.857,2.619,5.893-0.798c0.046-4.458,0.33-8.871-0.537-13.272
			c-0.475-2.409-4.462-3.092-5.483-0.716c-1.906,4.438-1.416,8.552,0.128,13.065c0.888,2.596,5.168,3.118,5.785,0
			c0.903-4.562,1.674-9.036,1.398-13.702c-0.159-2.69-4.283-4.463-5.591-1.514c-2.32,5.233-3.191,11.022-1.162,16.507
			c1.141,3.083,5.861,2.744,5.893-0.798c0.044-5.023,0.354-10.038,0-15.057c-0.239-3.395-4.788-4.064-5.893-0.798
			c-1.242,3.673-0.993,7.323-0.538,11.122c0.453,3.787,6.443,3.846,6,0c-0.693-6.015-0.1-12.037-0.43-18.066
			c-0.187-3.406-4.819-4.053-5.893-0.798c-1.619,4.908-1.055,9.915-0.968,14.993c0.066,3.873,5.89,3.863,6,0
			c0.145-5.049,1.134-10.01,1.29-15.057c0.105-3.402-5.058-4.067-5.893-0.798c-1.604,6.278-0.661,12.513-0.107,18.866
			c0.332,3.805,5.9,3.92,6,0c0.136-5.333,1.155-10.584,1.291-15.917c0.085-3.339-5.245-4.157-5.893-0.798
			c-1.157,6.003-0.62,11.94-0.538,18.005c0.053,3.928,5.657,3.794,6,0c0.52-5.748,1.596-11.427,1.721-17.207
			c0.077-3.582-4.756-3.819-5.893-0.798c-2.306,6.128-2.684,12.931-0.86,19.233c0.76,2.628,5.339,3.095,5.785,0
			c1.03-7.134,2.122-14.209,0.86-21.385c-0.56-3.184-4.878-2.52-5.785,0c-1.773,4.923-0.953,10.011,0.431,14.932
			c0.924,3.286,5.841,2.59,5.893-0.798c0.082-5.325,0.698-10.609,0-15.916c-0.336-2.554-4.202-4.592-5.591-1.514
			c-2.326,5.158-1.951,10.439,0.128,15.646c1.214,3.042,5.793,2.775,5.893-0.798c0.141-5.044,1.072-10.017,0.431-15.056
			c-0.369-2.899-3.829-4.172-5.591-1.514c-2.37,3.575-2.175,7.706-2.13,11.838c2,0,4,0,6,0c-0.335-4.16-0.051-8.31,0-12.476
			c0.041-3.323-5.252-4.176-5.893-0.798c-0.897,4.734-0.897,9.337,0,14.071c0.56,2.95,5.118,2.792,5.785,0
			c1.027-4.299,1.634-8.394,0.86-12.781c-0.45-2.554-4.351-2.925-5.483-0.716c-2.238,4.364-2.203,8.766-1.7,13.559
			c0.408,3.887,5.533,3.83,6,0c0.445-3.653,0.665-7.074-0.107-10.691c-0.659-3.088-4.896-2.63-5.785,0
			c-1.266,3.738-1.091,7.645-0.43,11.489c0.592,3.443,5.813,2.465,5.893-0.798c0.113-4.634,0.57-9.091-0.107-13.702
			c-0.476-3.236-4.879-2.455-5.785,0c-1.594,4.318-1.444,8.735-1.398,13.272c0.033,3.294,5.256,4.209,5.893,0.798
			c1.126-6.03,2.722-12.384,0.129-18.228c-0.964-2.172-4.097-1.727-5.182,0c-2.911,4.635-2.633,10.034-1.593,15.216
			c0.683,3.401,5.851,2.503,5.893-0.798c0.055-4.336,0.214-8.554-0.537-12.843c-0.595-3.4-5.905-2.507-5.893,0.798
			c0.013,3.215,0.147,6.282,0.968,9.401c0.866,3.294,5.896,2.586,5.893-0.798c-0.004-3.313-0.083-6.597-0.431-9.894
			c-0.409-3.873-5.561-3.846-6,0c-0.349,3.058-0.349,5.977,0,9.034c0.428,3.746,6.005,3.961,6,0
			c-0.004-3.457-0.067-6.884-0.43-10.324c-0.396-3.761-6.084-3.943-6,0c0.077,3.645,0.568,7.143,1.397,10.691
			c0.779,3.34,5.899,2.552,5.893-0.798c-0.006-3.025-0.132-5.973-0.537-8.971c-1.929,0.532-3.856,1.063-5.785,1.596
			c0.45,2.206,0.968,4.327,1.721,6.452c1.098,3.101,5.908,2.729,5.893-0.798c-0.014-3.071-0.183-5.993-0.968-8.971
			c-0.995-3.777-6.522-2.161-5.785,1.596c0.434,2.209,0.853,4.365,1.721,6.452c1.226,2.945,5.908,2.845,5.893-0.798
			c-0.011-2.458-0.163-4.822-0.538-7.25c-1.929,0.532-3.856,1.063-5.785,1.596c0.42,2.009,0.871,4.012,1.291,6.021
			c0.795,3.805,6.495,2.171,5.785-1.596c-0.35-1.856-0.511-3.734-0.86-5.592c-0.627-3.335-6.076-2.56-5.893,0.798
			c0.134,2.45,0.679,4.451,1.699,6.676c1.08,2.354,4.967,1.71,5.483-0.716c0.422-1.981,0.526-3.936,0.538-5.96
			c0.008-1.283-0.914-2.606-2.202-2.893c-2.116-0.471-4.227-0.832-6.391-0.968c-3.29-0.207-3.666,3.981-1.514,5.591
			c0.788,0.589,1.551,0.983,2.471,1.33c0.531-1.929,1.063-3.857,1.595-5.785c-0.154-0.057-0.309-0.112-0.463-0.168
			c-2.315-0.839-4.101,1.639-3.69,3.69c0.236,1.183,0.699,2.255,1.632,3.044c2.545,2.153,6.436-0.534,4.712-3.635
			c-0.232-0.466-0.52-0.896-0.86-1.291c-2.302-3.142-6.749-0.518-5.182,3.027c0.442,0.999,0.849,2.014,1.29,3.012
			c1.728-1.009,3.454-2.019,5.182-3.027c-0.573-0.861-1.147-1.722-1.721-2.582c-1.802-2.7-6.652-1.057-5.483,2.313
			c0.667,1.923,1.506,3.643,2.453,5.447c1.821,3.471,6.776,0.428,5.182-3.027c-0.732-1.587-1.458-3.156-2.621-4.479
			C968.632,154.691,964.405,158.952,966.948,161.846L966.948,161.846z"/>
	</g>
</g>
<rect x="934" y="157" fill="#FFFFFF" stroke="#B3B3B3" stroke-width="2" stroke-linecap="round" stroke-linejoin="round" stroke-miterlimit="10" width="70" height="39"/>
<rect x="940" y="149" fill="#FFFFFF" stroke="#CCCCCC" stroke-width="6" stroke-linecap="round" stroke-linejoin="round" stroke-miterlimit="10" width="59" height="6"/>
<rect x="944" y="157" fill="#FFFFFF" stroke="#CCCCCC" stroke-width="2" stroke-linecap="round" stroke-linejoin="round" stroke-miterlimit="10" width="8" height="40"/>
<rect x="965" y="157" fill="#FFFFFF" stroke="#CCCCCC" stroke-width="2" stroke-linecap="round" stroke-linejoin="round" stroke-miterlimit="10" width="7" height="40"/>
<rect x="967" y="157" fill="#FFFFFF" stroke="#CCCCCC" stroke-width="2" stroke-linecap="round" stroke-linejoin="round" stroke-miterlimit="10" width="7" height="40"/>
<rect x="985" y="157" fill="#FFFFFF" stroke="#CCCCCC" stroke-width="2" stroke-linecap="round" stroke-linejoin="round" stroke-miterlimit="10" width="7" height="40"/>
<line fill="#FFFFFF" stroke="#CCCCCC" stroke-width="6" stroke-linecap="round" stroke-linejoin="round" stroke-miterlimit="10" x1="949" y1="149" x2="949" y2="136"/>
<line fill="#FFFFFF" stroke="#CCCCCC" stroke-width="4" stroke-linecap="round" stroke-linejoin="round" stroke-miterlimit="10" x1="959" y1="149" x2="959" y2="136"/>
<line fill="#FFFFFF" stroke="#CCCCCC" stroke-width="4" stroke-linecap="round" stroke-linejoin="round" stroke-miterlimit="10" x1="970" y1="149" x2="970" y2="136"/>
<line fill="#FFFFFF" stroke="#CCCCCC" stroke-width="4" stroke-linecap="round" stroke-linejoin="round" stroke-miterlimit="10" x1="981" y1="149" x2="981" y2="136"/>
<line fill="#FFFFFF" stroke="#CCCCCC" stroke-width="4" stroke-linecap="round" stroke-linejoin="round" stroke-miterlimit="10" x1="991" y1="149" x2="991" y2="136"/>
<line fill="none" stroke="#999999" stroke-width="4" stroke-linecap="round" stroke-linejoin="round" stroke-miterlimit="10" x1="948" y1="134" x2="950" y2="134"/>
<line fill="none" stroke="#999999" stroke-width="4" stroke-linecap="round" stroke-linejoin="round" stroke-miterlimit="10" x1="949" y1="142" x2="951" y2="142"/>
<line fill="none" stroke="#999999" stroke-width="4" stroke-linecap="round" stroke-linejoin="round" stroke-miterlimit="10" x1="949" y1="137" x2="951" y2="137"/>
<line fill="none" stroke="#999999" stroke-width="4" stroke-linecap="round" stroke-linejoin="round" stroke-miterlimit="10" x1="948" y1="141" x2="950" y2="141"/>
<line fill="none" stroke="#999999" stroke-width="4" stroke-linecap="round" stroke-linejoin="round" stroke-miterlimit="10" x1="958" y1="134" x2="960" y2="134"/>
<line fill="none" stroke="#999999" stroke-width="4" stroke-linecap="round" stroke-linejoin="round" stroke-miterlimit="10" x1="958" y1="137" x2="960" y2="137"/>
<line fill="none" stroke="#999999" stroke-width="4" stroke-linecap="round" stroke-linejoin="round" stroke-miterlimit="10" x1="958" y1="140" x2="960" y2="140"/>
<line fill="none" stroke="#999999" stroke-width="4" stroke-linecap="round" stroke-linejoin="round" stroke-miterlimit="10" x1="958" y1="143" x2="960" y2="143"/>
<line fill="none" stroke="#999999" stroke-width="4" stroke-linecap="round" stroke-linejoin="round" stroke-miterlimit="10" x1="969" y1="134" x2="971" y2="134"/>
<line fill="none" stroke="#999999" stroke-width="4" stroke-linecap="round" stroke-linejoin="round" stroke-miterlimit="10" x1="969" y1="137" x2="971" y2="137"/>
<line fill="none" stroke="#999999" stroke-width="4" stroke-linecap="round" stroke-linejoin="round" stroke-miterlimit="10" x1="969" y1="140" x2="971" y2="140"/>
<line fill="none" stroke="#999999" stroke-width="4" stroke-linecap="round" stroke-linejoin="round" stroke-miterlimit="10" x1="969" y1="143" x2="971" y2="143"/>
<line fill="none" stroke="#999999" stroke-width="4" stroke-linecap="round" stroke-linejoin="round" stroke-miterlimit="10" x1="982" y1="134" x2="980" y2="134"/>
<line fill="none" stroke="#999999" stroke-width="4" stroke-linecap="round" stroke-linejoin="round" stroke-miterlimit="10" x1="980" y1="137" x2="982" y2="137"/>
<line fill="none" stroke="#999999" stroke-width="4" stroke-linecap="round" stroke-linejoin="round" stroke-miterlimit="10" x1="980" y1="140" x2="982" y2="140"/>
<line fill="none" stroke="#999999" stroke-width="4" stroke-linecap="round" stroke-linejoin="round" stroke-miterlimit="10" x1="980" y1="143" x2="982" y2="143"/>
<line fill="none" stroke="#999999" stroke-width="4" stroke-linecap="round" stroke-linejoin="round" stroke-miterlimit="10" x1="991" y1="134" x2="993" y2="134"/>
<line fill="none" stroke="#999999" stroke-width="4" stroke-linecap="round" stroke-linejoin="round" stroke-miterlimit="10" x1="991" y1="137" x2="993" y2="137"/>
<line fill="none" stroke="#999999" stroke-width="4" stroke-linecap="round" stroke-linejoin="round" stroke-miterlimit="10" x1="991" y1="140" x2="993" y2="140"/>
<line fill="none" stroke="#999999" stroke-width="4" stroke-linecap="round" stroke-linejoin="round" stroke-miterlimit="10" x1="991" y1="143" x2="993" y2="143"/>
<polyline fill="#C69C6D" stroke="#8C6239" stroke-width="2" stroke-linecap="round" stroke-linejoin="round" stroke-miterlimit="10" points="
	1012,196 1012,196.38 1012,175 1035,175 1035,197 "/>
<polyline fill="none" stroke="#999999" stroke-width="2" stroke-linecap="round" stroke-linejoin="round" stroke-miterlimit="10" points="
	954,195 954,169 934,169 934,197 1054.245,197 934.423,197 920,197 920,184 1054,184 1054,196 "/>
<line fill="#FFFFFF" stroke="#999999" stroke-width="2" stroke-linecap="round" stroke-linejoin="round" stroke-miterlimit="10" x1="944" y1="196" x2="944" y2="168"/>
<path fill="#FFFFFF" stroke="#999999" stroke-width="6" stroke-linecap="round" stroke-linejoin="round" stroke-miterlimit="10" d="
	M955.035,196.289"/>
<polyline fill="#FFFFFF" stroke="#999999" stroke-width="2" stroke-linecap="round" stroke-linejoin="round" stroke-miterlimit="10" points="
	955,169 965,169 965,196 "/>
<line fill="#FFFFFF" stroke="#999999" stroke-width="4" stroke-linecap="round" stroke-linejoin="round" stroke-miterlimit="10" x1="935" y1="177" x2="935" y2="171"/>
<line fill="#FFFFFF" stroke="#999999" stroke-width="4" stroke-linecap="round" stroke-linejoin="round" stroke-miterlimit="10" x1="945" y1="177" x2="945" y2="171"/>
<line fill="#FFFFFF" stroke="#999999" stroke-width="4" stroke-linecap="round" stroke-linejoin="round" stroke-miterlimit="10" x1="926" y1="177" x2="926" y2="171"/>
<line fill="#FFFFFF" stroke="#999999" stroke-width="4" stroke-linecap="round" stroke-linejoin="round" stroke-miterlimit="10" x1="955" y1="177" x2="955" y2="171"/>
<polyline fill="none" stroke="#999999" stroke-width="2" stroke-linecap="round" stroke-linejoin="round" stroke-miterlimit="10" points="
	1042,196 1042,148 1034.026,148 1052,148 "/>
<line fill="#FFFFFF" stroke="#999999" stroke-width="6" stroke-linecap="round" stroke-linejoin="round" stroke-miterlimit="10" x1="1043" y1="147" x2="1043" y2="137"/>
<line fill="#FFFFFF" stroke="#999999" stroke-width="6" stroke-linecap="round" stroke-linejoin="round" stroke-miterlimit="10" x1="1043" y1="153" x2="1043" y2="156"/>
<line fill="#FFFFFF" stroke="#999999" stroke-width="4" stroke-linecap="round" stroke-linejoin="round" stroke-miterlimit="10" x1="966" y1="177" x2="966" y2="171"/>
<polyline fill="none" stroke="#999999" stroke-width="2" stroke-linecap="round" stroke-linejoin="round" stroke-miterlimit="10" points="
	935,169 925,169 925,195 "/>
<polyline fill="none" stroke="#999999" stroke-width="2" stroke-linecap="round" stroke-linejoin="round" stroke-miterlimit="10" points="
	1052,184 970.36,184 1054,184 1054,197 921,197 "/>
<path fill="none" stroke="#666666" stroke-width="2" stroke-linecap="round" stroke-linejoin="round" stroke-miterlimit="10" d="
	M1043.06,137.355c0,0-33.983,5.162-50.761-3.871"/>
<path fill="none" stroke="#999999" stroke-width="2" stroke-linecap="round" stroke-linejoin="round" stroke-miterlimit="10" d="
	M990.148,133.484c0,0-1.08,3.238-8.175,0.829c-0.662-0.225-1.377-0.499-2.149-0.829c0,0-4.302,4.731-9.464,0"/>
<path fill="none" stroke="#999999" stroke-width="2" stroke-linecap="round" stroke-linejoin="round" stroke-miterlimit="10" d="
	M968.209,133.484c0,0-3.441,5.592-8.604,0"/>
<path fill="none" stroke="#666666" stroke-width="2" stroke-linecap="round" stroke-linejoin="round" stroke-miterlimit="10" d="
	M1042.63,142.088c0,0-45.169,5.592-51.621-6.453"/>
<path fill="none" stroke="#999999" stroke-width="2" stroke-linecap="round" stroke-linejoin="round" stroke-miterlimit="10" d="
	M957.455,133.484c0,0-4.732,5.162-7.743,0"/>
<path fill="none" stroke="#999999" stroke-width="2" stroke-linecap="round" stroke-linejoin="round" stroke-miterlimit="10" d="
	M925.977,171.659c0,0,34.255,1.561,38.455-0.16c4.201-1.721-0.393,4.007-0.393,4.007L925,174.351V178h40"/>
<polygon fill="none" stroke="#333333" stroke-width="2" stroke-linecap="round" stroke-linejoin="round" stroke-miterlimit="10" points="
	920,183 925.622,183 1054,183 1054,197 920,197 "/>
<line fill="none" stroke="#333333" stroke-width="2" stroke-linecap="round" stroke-linejoin="round" stroke-miterlimit="10" x1="925" y1="196" x2="925" y2="183"/>
<line fill="none" stroke="#333333" stroke-width="2" stroke-linecap="round" stroke-linejoin="round" stroke-miterlimit="10" x1="930" y1="196" x2="930" y2="183"/>
<line fill="none" stroke="#333333" stroke-width="2" stroke-linecap="round" stroke-linejoin="round" stroke-miterlimit="10" x1="935" y1="196" x2="935" y2="183"/>
<line fill="none" stroke="#333333" stroke-width="2" stroke-linecap="round" stroke-linejoin="round" stroke-miterlimit="10" x1="940" y1="196" x2="940" y2="183"/>
<line fill="none" stroke="#333333" stroke-width="2" stroke-linecap="round" stroke-linejoin="round" stroke-miterlimit="10" x1="983" y1="196" x2="983" y2="183"/>
<line fill="none" stroke="#333333" stroke-width="2" stroke-linecap="round" stroke-linejoin="round" stroke-miterlimit="10" x1="988" y1="196" x2="988" y2="183"/>
<line fill="none" stroke="#333333" stroke-width="2" stroke-linecap="round" stroke-linejoin="round" stroke-miterlimit="10" x1="992" y1="196" x2="992" y2="183"/>
<line fill="none" stroke="#333333" stroke-width="2" stroke-linecap="round" stroke-linejoin="round" stroke-miterlimit="10" x1="1010" y1="196" x2="1010" y2="183"/>
<line fill="none" stroke="#333333" stroke-width="2" stroke-linecap="round" stroke-linejoin="round" stroke-miterlimit="10" x1="1014" y1="196" x2="1014" y2="183"/>
<line fill="none" stroke="#333333" stroke-width="2" stroke-linecap="round" stroke-linejoin="round" stroke-miterlimit="10" x1="1019" y1="196" x2="1019" y2="183"/>
<line fill="none" stroke="#333333" stroke-width="2" stroke-linecap="round" stroke-linejoin="round" stroke-miterlimit="10" x1="1024" y1="196" x2="1024" y2="183"/>
<line fill="none" stroke="#333333" stroke-width="2" stroke-linecap="round" stroke-linejoin="round" stroke-miterlimit="10" x1="1029" y1="196" x2="1029" y2="183"/>
<line fill="none" stroke="#333333" stroke-width="2" stroke-linecap="round" stroke-linejoin="round" stroke-miterlimit="10" x1="1034" y1="196" x2="1034" y2="183"/>
<line fill="none" stroke="#333333" stroke-width="2" stroke-linecap="round" stroke-linejoin="round" stroke-miterlimit="10" x1="1039" y1="196" x2="1039" y2="183"/>
<line fill="none" stroke="#333333" stroke-width="2" stroke-linecap="round" stroke-linejoin="round" stroke-miterlimit="10" x1="1045" y1="196" x2="1045" y2="183"/>
<line fill="none" stroke="#333333" stroke-width="2" stroke-linecap="round" stroke-linejoin="round" stroke-miterlimit="10" x1="1049" y1="196" x2="1049" y2="183"/>
<line fill="none" stroke="#333333" stroke-width="2" stroke-linecap="round" stroke-linejoin="round" stroke-miterlimit="10" x1="996" y1="196" x2="996" y2="183"/>
<line fill="none" stroke="#333333" stroke-width="2" stroke-linecap="round" stroke-linejoin="round" stroke-miterlimit="10" x1="1001" y1="196" x2="1001" y2="183"/>
<line fill="none" stroke="#333333" stroke-width="2" stroke-linecap="round" stroke-linejoin="round" stroke-miterlimit="10" x1="1005" y1="195" x2="1005" y2="183"/>
<line fill="none" stroke="#333333" stroke-width="2" stroke-linecap="round" stroke-linejoin="round" stroke-miterlimit="10" x1="944" y1="196" x2="944" y2="183"/>
<line fill="none" stroke="#333333" stroke-width="2" stroke-linecap="round" stroke-linejoin="round" stroke-miterlimit="10" x1="949" y1="196" x2="949" y2="183"/>
<line fill="none" stroke="#333333" stroke-width="2" stroke-linecap="round" stroke-linejoin="round" stroke-miterlimit="10" x1="954" y1="196" x2="954" y2="183"/>
<line fill="none" stroke="#333333" stroke-width="2" stroke-linecap="round" stroke-linejoin="round" stroke-miterlimit="10" x1="959" y1="196" x2="959" y2="183"/>
<line fill="none" stroke="#333333" stroke-width="2" stroke-linecap="round" stroke-linejoin="round" stroke-miterlimit="10" x1="965" y1="196" x2="965" y2="183"/>
<line fill="none" stroke="#333333" stroke-width="2" stroke-linecap="round" stroke-linejoin="round" stroke-miterlimit="10" x1="969" y1="196" x2="969" y2="183"/>
<line fill="none" stroke="#333333" stroke-width="2" stroke-linecap="round" stroke-linejoin="round" stroke-miterlimit="10" x1="974" y1="196" x2="974" y2="183"/>
<line fill="none" stroke="#333333" stroke-width="2" stroke-linecap="round" stroke-linejoin="round" stroke-miterlimit="10" x1="978" y1="196" x2="978" y2="183"/>
<path fill="none" stroke="#666666" stroke-width="2" stroke-linecap="round" stroke-linejoin="round" stroke-miterlimit="10" d="
	M243.961,34.816c0,0,26.676,29.731,310.191-0.528c0,0,13.213,4.794,25.267,0.542c0,0,350.065,129.169,368.14,103.169h2.009
	c-48.199,31-322.333-79-322.333-79h-3.715H626v-6"/>
<path fill="none" stroke="#666666" stroke-width="2" stroke-linecap="round" stroke-linejoin="round" stroke-miterlimit="10" d="
	M609,8h4.176c0,0,268.109,142,334.383,133H950"/>
<path fill="none" stroke="#666666" stroke-width="2" stroke-linecap="round" stroke-linejoin="round" stroke-miterlimit="10" d="
	M617,71v6h-2.019h3.215c0,0,259.072,97,329.362,67H950"/>
<rect id="_x3C_Slice_x3E__1_" x="845" y="-1" fill="none" width="216" height="200"/>
<path fill="none" stroke="#666666" stroke-width="2" stroke-linecap="round" stroke-linejoin="round" stroke-miterlimit="10" d="
	M-168.406,154.084c0,0,53.705,4.458,333.45-96.108"/>
<path fill="none" stroke="#666666" stroke-width="2" stroke-linecap="round" stroke-linejoin="round" stroke-miterlimit="10" d="
	M-168.558,156.444c0,0,143.121-11.828,349.445-81.058"/>
<path fill="none" stroke="#666666" stroke-width="2" stroke-linecap="round" stroke-linejoin="round" stroke-miterlimit="10" d="
	M-168.406,154.084c0,0,98.421-21.863,352.917-148.141"/>
<path fill="none" stroke="#666666" stroke-width="2" stroke-linecap="round" stroke-linejoin="round" stroke-miterlimit="10" d="
	M-168.558,156.444C8.052,115.916,19.108,122.828,218.042,33.387c0,0,5.818,7.206,25.533,1.373"/>
<path fill="none" stroke="#666666" stroke-width="2" stroke-linecap="round" stroke-linejoin="round" stroke-miterlimit="10" d="
	M276.974,6.752c0,0,60.269,22.757,244.591,0"/>
<path fill="none" stroke="#666666" stroke-width="2" stroke-linecap="round" stroke-linejoin="round" stroke-miterlimit="10" d="
	M289.278,57.268c0,0,139.372,11.754,219.479,0"/>
<path fill="none" stroke="#666666" stroke-width="2" stroke-linecap="round" stroke-linejoin="round" stroke-miterlimit="10" d="
	M280.74,75.273c0,0,149.229,15.471,234.295,0.5"/>
<ellipse fill="#FF6666" stroke="#FF6666" stroke-width="2" stroke-linecap="round" stroke-linejoin="round" stroke-miterlimit="10" cx="324.42" cy="14.428" rx="3.453" ry="3.438"/>
<ellipse fill="#FF6666" stroke="#FF6666" stroke-width="2" stroke-linecap="round" stroke-linejoin="round" stroke-miterlimit="10" cx="397.724" cy="46.428" rx="3.453" ry="3.438"/>
<ellipse fill="#FF6666" stroke="#FF6666" stroke-width="2" stroke-linecap="round" stroke-linejoin="round" stroke-miterlimit="10" cx="480.064" cy="11.428" rx="3.453" ry="3.438"/>
<ellipse fill="#FF6666" stroke="#FF6666" stroke-width="2" stroke-linecap="round" stroke-linejoin="round" stroke-miterlimit="10" cx="383.666" cy="82.428" rx="3.453" ry="3.438"/>
<ellipse fill="#FFFF66" stroke="#FFFF66" stroke-width="2" stroke-linecap="round" stroke-linejoin="round" stroke-miterlimit="10" cx="344.071" cy="61.388" rx="4.527" ry="4.509"/>
<ellipse fill="#FFFF66" stroke="#FFFF66" stroke-width="2" stroke-linecap="round" stroke-linejoin="round" stroke-miterlimit="10" cx="419.383" cy="14.388" rx="4.527" ry="4.509"/>
<ellipse fill="#FFFF66" stroke="#FFFF66" stroke-width="2" stroke-linecap="round" stroke-linejoin="round" stroke-miterlimit="10" cx="438.462" cy="61.388" rx="4.527" ry="4.509"/>
<rect id="_x3C_Slice_x3E_" x="-192" fill="none" width="192" height="198"/>
</svg>
