<?xml version="1.0" encoding="utf-8"?>
<!-- Generator: Adobe Illustrator 16.0.0, SVG Export Plug-In . SVG Version: 6.00 Build 0)  -->
<!DOCTYPE svg PUBLIC "-//W3C//DTD SVG 1.1//EN" "http://www.w3.org/Graphics/SVG/1.1/DTD/svg11.dtd">
<svg version="1.1" xmlns="http://www.w3.org/2000/svg" xmlns:xlink="http://www.w3.org/1999/xlink" x="0px" y="0px" width="840.5px"
	 height="277.271px" viewBox="0 0 840.5 277.271" enable-background="new 0 0 840.5 277.271" xml:space="preserve">
<g id="Layer_1" display="none">
	<g id="Layer_4" display="inline">
		
			<linearGradient id="SVGID_1_" gradientUnits="userSpaceOnUse" x1="362.6096" y1="-16.4812" x2="362.6096" y2="45.5754" gradientTransform="matrix(-1 0 0 -1 781.481 260.7905)">
			<stop  offset="0.1633" style="stop-color:#95C864;stop-opacity:0.5"/>
			<stop  offset="0.371" style="stop-color:#81B45A;stop-opacity:0.4504"/>
			<stop  offset="0.7933" style="stop-color:#4E8141;stop-opacity:0.3494"/>
			<stop  offset="1" style="stop-color:#336633;stop-opacity:0.3"/>
		</linearGradient>
		<path fill="url(#SVGID_1_)" d="M839.121,277.271h-840.5v-37.872c288.34-24.185,840.5-24.185,840.5-24.185V277.271z"/>
	</g>
	<g id="Layer_5">
		
			<linearGradient id="SVGID_2_" gradientUnits="userSpaceOnUse" x1="360.0413" y1="60.0471" x2="360.0413" y2="208.925" gradientTransform="matrix(-1 0 0 -1 780.3208 260.7905)">
			<stop  offset="0.0459" style="stop-color:#99CC66"/>
			<stop  offset="1" style="stop-color:#336633;stop-opacity:0.4"/>
		</linearGradient>
		<path display="inline" fill="url(#SVGID_2_)" d="M841.219,51.866c0,0-69.879,20.634-93.879,55.634c0,0-179-96-356,13
			c0,0-103-68.634-215,5.806c0,0-69-96.806-177-12.806v87.243h841.879V51.866z"/>
	</g>
	<g id="Layer_6">
		
			<linearGradient id="SVGID_3_" gradientUnits="userSpaceOnUse" x1="361.0901" y1="117.6599" x2="361.0901" y2="60.0471" gradientTransform="matrix(-1 0 0 -1 780.3208 260.7905)">
			<stop  offset="0" style="stop-color:#336633;stop-opacity:0.4"/>
			<stop  offset="0.8622" style="stop-color:#99CC66;stop-opacity:0.6"/>
		</linearGradient>
		<path display="inline" fill="url(#SVGID_3_)" d="M839.84,167.68c0,0-132.5-44-234.5,13.819c0,0-80-69.819-163-6
			c0,0-78-62-233-7.819c0,0-111-41.375-210-16.697l-0.719,48.961l841.219,0.8V167.68z"/>
	</g>
	<g id="Layer_3" display="inline">
		
			<linearGradient id="SVGID_4_" gradientUnits="userSpaceOnUse" x1="-59.6404" y1="9.5476" x2="-59.6404" y2="9.5476" gradientTransform="matrix(-1 0 0 -1 781.481 260.7905)">
			<stop  offset="0" style="stop-color:#336633;stop-opacity:0.4"/>
			<stop  offset="0.8622" style="stop-color:#99CC66;stop-opacity:0.6"/>
		</linearGradient>
		<path fill="url(#SVGID_4_)" d="M841.121,251.243"/>
		
			<linearGradient id="SVGID_5_" gradientUnits="userSpaceOnUse" x1="360.2502" y1="-16.4812" x2="360.2502" y2="9.5471" gradientTransform="matrix(-1 0 0 -1 781.481 260.7905)">
			<stop  offset="0.1633" style="stop-color:#95C864;stop-opacity:0.5"/>
			<stop  offset="0.371" style="stop-color:#81B45A;stop-opacity:0.4504"/>
			<stop  offset="0.7933" style="stop-color:#4E8141;stop-opacity:0.3494"/>
			<stop  offset="1" style="stop-color:#336633;stop-opacity:0.3"/>
		</linearGradient>
		<path fill="url(#SVGID_5_)" d="M841.121,251.243l0.719,25.609L0.621,277.271v-10.589c322.34-2.88,836.34-15.439,836.34-15.439
			H841.121z"/>
	</g>
</g>
<g id="Layer_2" display="none">
	<path display="inline" opacity="0.8" fill="#FFFF33" d="M816.784,217.522c0,0-159.179-12.725-439.243-1.991l-87.798,8.415
		L816.784,217.522z"/>
	<path display="inline" opacity="0.6" fill="#003300" d="M305.828,255.67c0,0,229.056-20.16,446.154-9.427l48.717,6l-321.015,6.726
		L305.828,255.67z"/>
	<path display="inline" opacity="0.6" fill="#003300" d="M291.718,224.016c0,0-194.639-13.063-258.656,12.695
		C33.062,236.712,280.418,224.385,291.718,224.016z"/>
	<path display="inline" opacity="0.8" fill="#FFFF33" d="M479.685,258.969L8.378,266.611
		C8.378,266.611,253.658,245.468,479.685,258.969z"/>
</g>
<g id="Layer_3_1_">
	<linearGradient id="SVGID_6_" gradientUnits="userSpaceOnUse" x1="-1.3787" y1="194.2488" x2="844.2151" y2="194.2488">
		<stop  offset="0.1633" style="stop-color:#95C864;stop-opacity:0.5"/>
		<stop  offset="0.371" style="stop-color:#81B45A;stop-opacity:0.4504"/>
		<stop  offset="0.7933" style="stop-color:#4E8141;stop-opacity:0.3494"/>
		<stop  offset="1" style="stop-color:#336633;stop-opacity:0.3"/>
	</linearGradient>
	<path fill="url(#SVGID_6_)" d="M-1.379,239.399c0,0,160.235,3.896,244.231,24.857s291.021,2.426,291.021,2.426v-84.959h40.463
		v46.262h24.064v-73.26h79.43v32.998h23.506v-76.496h93.488v104.771h7.5v-85.272H840.5l3.715,146.545H0L-1.379,239.399z"/>
	<linearGradient id="SVGID_7_" gradientUnits="userSpaceOnUse" x1="2.441406e-004" y1="215.9988" x2="840.5002" y2="215.9988">
		<stop  offset="0.1633" style="stop-color:#95C864;stop-opacity:0.5"/>
		<stop  offset="0.371" style="stop-color:#81B45A;stop-opacity:0.4504"/>
		<stop  offset="0.7933" style="stop-color:#4E8141;stop-opacity:0.3494"/>
		<stop  offset="1" style="stop-color:#336633;stop-opacity:0.3"/>
	</linearGradient>
	<polygon fill="url(#SVGID_7_)" points="0,266.682 533.873,266.682 533.873,243.583 533.873,198.223 570.746,198.223 
		570.746,266.682 598.401,266.682 598.401,174.224 639.881,174.224 639.881,220.454 676.754,220.454 676.754,246.22 701.336,241.72 
		701.336,154.725 725.918,154.725 725.918,244.72 758.18,240.22 758.18,202.722 779.688,202.722 779.688,229.721 808.879,229.721 
		808.879,162.224 840.5,162.224 840.5,277.271 0,277.271 	"/>
	<linearGradient id="SVGID_8_" gradientUnits="userSpaceOnUse" x1="504.7502" y1="251.0222" x2="533.8733" y2="251.0222">
		<stop  offset="0.1633" style="stop-color:#95C864;stop-opacity:0.5"/>
		<stop  offset="0.371" style="stop-color:#81B45A;stop-opacity:0.4504"/>
		<stop  offset="0.7933" style="stop-color:#4E8141;stop-opacity:0.3494"/>
		<stop  offset="1" style="stop-color:#336633;stop-opacity:0.3"/>
	</linearGradient>
	<polygon fill="url(#SVGID_8_)" points="533.873,235.362 504.75,249.561 515.417,249.561 515.75,266.682 533.873,266.682 	"/>
</g>
<g id="Layer_5_1_">
	<rect x="538.084" y="203.999" opacity="0.6" fill="#FFFFFF" width="26" height="12"/>
	<rect x="703.751" y="158.249" opacity="0.6" fill="#FFFFFF" width="18.666" height="6"/>
	<rect x="703.751" y="169.916" opacity="0.6" fill="#FFFFFF" width="18.666" height="6"/>
	<rect x="703.751" y="181.916" opacity="0.6" fill="#FFFFFF" width="18.666" height="6"/>
	<rect x="771.084" y="154.725" opacity="0.6" fill="#FFFFFF" width="18.666" height="30.413"/>
	<rect x="647.751" y="169.71" opacity="0.6" fill="#FFFFFF" width="18.666" height="30.413"/>
	<rect x="647.751" y="163.709" opacity="0.6" fill="#FFFFFF" width="18.666" height="30.413"/>
	<rect x="734.418" y="119.802" opacity="0.6" fill="#FFFFFF" width="18.666" height="6"/>
	<rect x="580.418" y="234.583" opacity="0.6" fill="#FFFFFF" width="11" height="6"/>
	<rect x="585.918" y="249.135" opacity="0.6" fill="#FFFFFF" width="11" height="6"/>
	
		<rect x="538.084" y="188.998" transform="matrix(-0.0158 -0.9999 0.9999 -0.0158 360.1992 738.5491)" opacity="0.6" fill="#FFFFFF" width="11" height="6.001"/>
	
		<rect x="548.671" y="188.998" transform="matrix(-0.0158 -0.9999 0.9999 -0.0158 370.9534 749.1346)" opacity="0.6" fill="#FFFFFF" width="11" height="6.001"/>
	
		<rect x="538.084" y="231.582" transform="matrix(-0.0158 -0.9999 0.9999 -0.0158 317.6205 781.806)" opacity="0.6" fill="#FFFFFF" width="11" height="6.001"/>
	
		<rect x="559.584" y="188.998" transform="matrix(-0.0158 -0.9999 0.9999 -0.0158 382.0389 760.0464)" opacity="0.6" fill="#FFFFFF" width="11" height="6.001"/>
	<rect x="679.751" y="200.999" opacity="0.6" fill="#FFFFFF" width="18.666" height="6"/>
	<rect x="768.418" y="119.802" opacity="0.6" fill="#FFFFFF" width="18.666" height="6"/>
	<rect x="616.418" y="194.999" opacity="0.6" fill="#FFFFFF" width="18.666" height="6"/>
	<rect x="603.751" y="181.916" opacity="0.6" fill="#FFFFFF" width="18.666" height="6"/>
	<rect x="644.084" y="231.583" opacity="0.6" fill="#FFFFFF" width="26" height="12"/>
	<rect x="814.5" y="172.916" opacity="0.6" fill="#FFFFFF" width="26" height="12"/>
	<rect x="814.5" y="191.999" opacity="0.6" fill="#FFFFFF" width="5.583" height="39.584"/>
	<rect x="827.5" y="197.999" opacity="0.6" fill="#FFFFFF" width="5.583" height="39.584"/>
</g>
</svg>
