<?xml version="1.0" encoding="utf-8"?>
<!-- Generator: Adobe Illustrator 16.0.0, SVG Export Plug-In . SVG Version: 6.00 Build 0)  -->
<!DOCTYPE svg PUBLIC "-//W3C//DTD SVG 1.1//EN" "http://www.w3.org/Graphics/SVG/1.1/DTD/svg11.dtd">
<svg version="1.1" xmlns="http://www.w3.org/2000/svg" xmlns:xlink="http://www.w3.org/1999/xlink" x="0px" y="0px" width="846px"
	 height="200px" viewBox="0 0 846 200" enable-background="new 0 0 846 200" xml:space="preserve">
<g id="Layer_1">
	<g>
		
			<line fill="none" stroke="#999999" stroke-width="2" stroke-linecap="round" stroke-linejoin="round" stroke-miterlimit="10" x1="196" y1="19" x2="268" y2="19"/>
		
			<polygon fill="none" stroke="#999999" stroke-width="2" stroke-linecap="round" stroke-linejoin="round" stroke-miterlimit="10" points="
			255.136,90 268.601,49.365 271,42.126 271,19 190,19 190,42.126 208.93,90 		"/>
		
			<polyline fill="none" stroke="#999999" stroke-width="2" stroke-linecap="round" stroke-linejoin="round" stroke-miterlimit="10" points="
			259,28 205.079,28 201.061,28 262,28 262,52.629 230.499,82.994 199,52.629 199,26 		"/>
		
			<polygon fill="none" stroke="#999999" stroke-width="2" stroke-linecap="round" stroke-linejoin="round" stroke-miterlimit="10" points="
			270,3.113 271,19 261.841,19 		"/>
		
			<polygon fill="none" stroke="#999999" stroke-width="2" stroke-linecap="round" stroke-linejoin="round" stroke-miterlimit="10" points="
			190,19 190,3.113 201.061,19 		"/>
		
			<polyline fill="none" stroke="#999999" stroke-width="2" stroke-linecap="round" stroke-linejoin="round" stroke-miterlimit="10" points="
			199,44 199,52.629 173.075,53.316 192.021,44 199,44 		"/>
		
			<polyline fill="none" stroke="#999999" stroke-width="2" stroke-linecap="round" stroke-linejoin="round" stroke-miterlimit="10" points="
			293,55 263.841,55 261.841,52.413 271.212,19 262,19 262,52 		"/>
		
			<polygon fill="none" stroke="#999999" stroke-width="2" stroke-linecap="round" stroke-linejoin="round" stroke-miterlimit="10" points="
			192.021,19 199,19 199,49.629 		"/>
		
			<polygon fill="none" stroke="#999999" stroke-width="2" stroke-linecap="round" stroke-linejoin="round" stroke-miterlimit="10" points="
			230.367,84.854 221.015,90 240.218,90 		"/>
		
			<polygon fill="none" stroke="#999999" stroke-width="2" stroke-linecap="round" stroke-linejoin="round" stroke-miterlimit="10" points="
			208.888,90.922 208.687,90.617 196.541,199 268.361,199 268.145,196.305 255.136,90.597 241.073,90.302 		"/>
		
			<polyline fill="none" stroke="#999999" stroke-width="2" stroke-linecap="round" stroke-linejoin="round" stroke-miterlimit="10" points="
			241.203,196.754 240.142,90.53 221,89.922 221,199 241,199 		"/>
	</g>
	
		<line fill="none" stroke="#999999" stroke-width="2" stroke-linecap="round" stroke-linejoin="round" stroke-miterlimit="10" x1="192.738" y1="44.08" x2="199.061" y2="52.629"/>
	<path fill="none" stroke="#999999" stroke-width="2" stroke-linecap="round" stroke-linejoin="round" stroke-miterlimit="10" d="
		M290.46,52.629"/>
	
		<line fill="none" stroke="#999999" stroke-width="2" stroke-linecap="round" stroke-linejoin="round" stroke-miterlimit="10" x1="269.384" y1="43.126" x2="292.46" y2="54.629"/>
	
		<polygon fill="none" stroke="#999999" stroke-width="2" stroke-linecap="round" stroke-linejoin="round" stroke-miterlimit="10" points="
		281.922,73 241.258,73 250.752,63.787 	"/>
	
		<polyline fill="none" stroke="#999999" stroke-width="2" stroke-linecap="round" stroke-linejoin="round" stroke-miterlimit="10" points="
		209.576,63.787 182.478,73 219,73 	"/>
	
		<polyline fill="none" stroke="#999999" stroke-width="2" stroke-linecap="round" stroke-linejoin="round" stroke-miterlimit="10" points="
		199.061,19.617 207.599,27.621 217.142,19.617 226.015,27.621 235.055,19.617 243.927,27.621 253.136,19.617 261.841,28.621 	"/>
	
		<polyline fill="none" stroke="#999999" stroke-width="2" stroke-linecap="round" stroke-linejoin="round" stroke-miterlimit="10" points="
		200.061,27.621 208.554,19.451 218.045,27.621 226.871,19.451 235.863,27.621 244.688,19.451 253.847,27.621 262.506,19.451 	"/>
	
		<polyline fill="none" stroke="#999999" stroke-width="2" stroke-linecap="round" stroke-linejoin="round" stroke-miterlimit="10" points="
		195.285,11.102 189.958,16.586 198.778,21.52 190.723,25.237 199.053,29.743 190.017,34.621 198.798,38.749 190,42.126 190,51.629 
		185.599,47.295 182.036,52.379 	"/>
	
		<polyline fill="none" stroke="#999999" stroke-width="2" stroke-linecap="round" stroke-linejoin="round" stroke-miterlimit="10" points="
		267.026,11.102 270.883,17.752 262.185,22.836 271.042,26.666 261.882,31.308 270.818,36.334 262.246,40.586 272,44.065 
		272,53.855 278.857,48.33 283.783,54.629 	"/>
	
		<polyline fill="none" stroke="#999999" stroke-width="2" stroke-linecap="round" stroke-linejoin="round" stroke-miterlimit="10" points="
		199.166,52.52 198.927,60.721 209.673,63.395 202.334,72.621 219.148,72.804 207.797,83 231.186,83 208.651,90 224,90 	"/>
	
		<polyline fill="none" stroke="#999999" stroke-width="2" stroke-linecap="round" stroke-linejoin="round" stroke-miterlimit="10" points="
		263.363,52.77 264.724,61.089 253.642,61.771 261.205,71.131 244.87,70.987 258.671,81 234.503,81 255.722,90 235.541,90 
		234.503,81.407 	"/>
	
		<polyline fill="none" stroke="#999999" stroke-width="2" stroke-linecap="round" stroke-linejoin="round" stroke-miterlimit="10" points="
		208.93,88.141 222.657,97.645 207.723,107.078 222.657,115.9 205.8,124.094 222.657,133.656 203.714,142.549 222.657,151.662 
		201.061,160.664 222.657,169.168 199.634,178.652 222.657,188.174 197.541,198.177 	"/>
	
		<polyline fill="none" stroke="#999999" stroke-width="2" stroke-linecap="round" stroke-linejoin="round" stroke-miterlimit="10" points="
		255.162,90.141 241.072,97.645 256.267,107.078 241.072,115.9 258.099,124.094 241.072,133.656 260.088,142.549 241.072,151.662 
		261.665,160.664 241.072,169.168 263.979,178.652 241.072,188.174 267.975,198.177 	"/>
	
		<polyline fill="none" stroke="#999999" stroke-width="2" stroke-linecap="round" stroke-linejoin="round" stroke-miterlimit="10" points="
		221.155,90.391 240.57,97.645 222.155,106.646 240.57,115.9 222.155,124.152 240.57,133.656 222.155,142.549 240.57,150.411 
		222.155,160.414 240.57,169.168 222.155,178.92 240.57,188.174 222.155,197.177 	"/>
	
		<polyline fill="none" stroke="#999999" stroke-width="2" stroke-linecap="round" stroke-linejoin="round" stroke-miterlimit="10" points="
		239.072,89.391 221.904,97.645 241.072,106.646 221.904,115.9 241.072,124.152 221.904,133.656 241.072,142.549 221.904,150.411 
		241.072,160.414 221.904,169.168 241.072,178.92 221.904,188.174 241.072,197.177 	"/>
	
		<polyline fill="none" stroke="#999999" stroke-width="2" stroke-linecap="round" stroke-linejoin="round" stroke-miterlimit="10" points="
		199,54 199,64.133 208.742,62.422 205.345,79.389 220.431,73.52 208.538,87.391 232.311,82.994 254.134,88.141 241.309,74.411 
		257.102,78.818 250.109,65.908 263.88,64.518 261.201,54.242 	"/>
	
		<polyline fill="none" stroke="#999999" stroke-width="2" stroke-linecap="round" stroke-linejoin="round" stroke-miterlimit="10" points="
		241.122,90.318 256.28,97.334 241.085,106.629 258.447,115.376 241.326,133.51 263.667,161.128 241.323,189 267.356,189 
		242.245,197.715 	"/>
	
		<polyline fill="none" stroke="#999999" stroke-width="2" stroke-linecap="round" stroke-linejoin="round" stroke-miterlimit="10" points="
		220.658,90.922 208.409,97.012 221.695,106.384 206.229,115.203 221.453,133.487 201.988,161.114 222.456,189 198.263,189 
		221.529,198.005 	"/>
	
		<polyline fill="none" stroke="#999999" stroke-width="2" stroke-linecap="round" stroke-linejoin="round" stroke-miterlimit="10" points="
		207.79,115.203 258.447,115.376 202.714,142.549 261.763,142.783 	"/>
	
		<line fill="none" stroke="#999999" stroke-width="2" stroke-linecap="round" stroke-linejoin="round" stroke-miterlimit="10" x1="190" y1="9" x2="185" y2="9"/>
	
		<polyline fill="none" stroke="#999999" stroke-width="2" stroke-linecap="round" stroke-linejoin="round" stroke-miterlimit="10" points="
		173,54 173,60 169.433,60 176,60 	"/>
	
		<polyline fill="none" stroke="#999999" stroke-width="2" stroke-linecap="round" stroke-linejoin="round" stroke-miterlimit="10" points="
		181,73 181,78 177.469,78 184,78 	"/>
	
		<polyline fill="none" stroke="#999999" stroke-width="2" stroke-linecap="round" stroke-linejoin="round" stroke-miterlimit="10" points="
		291,54 291,60.381 288.953,60 293,60 	"/>
	
		<polyline fill="none" stroke="#999999" stroke-width="2" stroke-linecap="round" stroke-linejoin="round" stroke-miterlimit="10" points="
		280,73 279.922,78 277,78 284,78 	"/>
	
		<line fill="none" stroke="#999999" stroke-width="2" stroke-linecap="round" stroke-linejoin="round" stroke-miterlimit="10" x1="272" y1="9" x2="276" y2="9"/>
	
		<polyline fill="none" stroke="#999999" stroke-width="2" stroke-linecap="round" stroke-linejoin="round" stroke-miterlimit="10" points="
		243,27 243,36 242.747,36 247,36 	"/>
	
		<polyline fill="none" stroke="#999999" stroke-width="2" stroke-linecap="round" stroke-linejoin="round" stroke-miterlimit="10" points="
		218,27 218,36 217.132,36 221,36 	"/>
	
		<line fill="none" stroke="#999999" stroke-width="2" stroke-linecap="round" stroke-linejoin="round" stroke-miterlimit="10" x1="205.714" y1="116.376" x2="261.447" y2="143.549"/>
	
		<line fill="none" stroke="#999999" stroke-width="2" stroke-linecap="round" stroke-linejoin="round" stroke-miterlimit="10" x1="270.353" y1="44.08" x2="262" y2="52.629"/>
	<g>
		
			<line fill="none" stroke="#999999" stroke-width="2" stroke-linecap="round" stroke-linejoin="round" stroke-miterlimit="10" x1="533" y1="18" x2="605" y2="18"/>
		
			<polygon fill="none" stroke="#999999" stroke-width="2" stroke-linecap="round" stroke-linejoin="round" stroke-miterlimit="10" points="
			592.136,89 605.602,48.365 608,41.126 608,18 527,18 527,41.126 545.93,89 		"/>
		
			<polyline fill="none" stroke="#999999" stroke-width="2" stroke-linecap="round" stroke-linejoin="round" stroke-miterlimit="10" points="
			596,27 542.078,27 538.061,27 599,27 599,51.629 567.499,81.994 536,51.629 536,25 		"/>
		
			<polygon fill="none" stroke="#999999" stroke-width="2" stroke-linecap="round" stroke-linejoin="round" stroke-miterlimit="10" points="
			607,2.113 608,18 598.842,18 		"/>
		
			<polygon fill="none" stroke="#999999" stroke-width="2" stroke-linecap="round" stroke-linejoin="round" stroke-miterlimit="10" points="
			527,18 527,2.113 538.061,18 		"/>
		
			<polyline fill="none" stroke="#999999" stroke-width="2" stroke-linecap="round" stroke-linejoin="round" stroke-miterlimit="10" points="
			536,43 536,51.629 510.075,52.316 529.021,43 536,43 		"/>
		
			<polyline fill="none" stroke="#999999" stroke-width="2" stroke-linecap="round" stroke-linejoin="round" stroke-miterlimit="10" points="
			630,54 600.842,54 598.842,51.413 608.212,18 599,18 599,51 		"/>
		
			<polygon fill="none" stroke="#999999" stroke-width="2" stroke-linecap="round" stroke-linejoin="round" stroke-miterlimit="10" points="
			529.021,18 536,18 536,48.629 		"/>
		
			<polygon fill="none" stroke="#999999" stroke-width="2" stroke-linecap="round" stroke-linejoin="round" stroke-miterlimit="10" points="
			567.367,83.854 558.015,89 577.219,89 		"/>
		
			<polygon fill="none" stroke="#999999" stroke-width="2" stroke-linecap="round" stroke-linejoin="round" stroke-miterlimit="10" points="
			545.888,89.922 545.687,89.617 533.541,198 605.361,198 605.145,195.305 592.136,89.597 578.073,89.302 		"/>
		
			<polyline fill="none" stroke="#999999" stroke-width="2" stroke-linecap="round" stroke-linejoin="round" stroke-miterlimit="10" points="
			578.203,195.754 577.143,89.53 558,88.922 558,198 578,198 		"/>
	</g>
	
		<line fill="none" stroke="#999999" stroke-width="2" stroke-linecap="round" stroke-linejoin="round" stroke-miterlimit="10" x1="529.738" y1="43.08" x2="536.061" y2="51.629"/>
	<path fill="none" stroke="#999999" stroke-width="2" stroke-linecap="round" stroke-linejoin="round" stroke-miterlimit="10" d="
		M627.46,51.629"/>
	
		<line fill="none" stroke="#999999" stroke-width="2" stroke-linecap="round" stroke-linejoin="round" stroke-miterlimit="10" x1="606.384" y1="42.126" x2="629.46" y2="53.629"/>
	
		<polygon fill="none" stroke="#999999" stroke-width="2" stroke-linecap="round" stroke-linejoin="round" stroke-miterlimit="10" points="
		618.922,72 578.258,72 587.752,62.787 	"/>
	
		<polyline fill="none" stroke="#999999" stroke-width="2" stroke-linecap="round" stroke-linejoin="round" stroke-miterlimit="10" points="
		546.576,62.787 519.479,72 556,72 	"/>
	
		<polyline fill="none" stroke="#999999" stroke-width="2" stroke-linecap="round" stroke-linejoin="round" stroke-miterlimit="10" points="
		536.061,18.617 544.6,26.621 554.142,18.617 563.015,26.621 572.055,18.617 580.928,26.621 590.136,18.617 598.842,27.621 	"/>
	
		<polyline fill="none" stroke="#999999" stroke-width="2" stroke-linecap="round" stroke-linejoin="round" stroke-miterlimit="10" points="
		537.061,26.621 545.555,18.451 555.045,26.621 563.871,18.451 572.863,26.621 581.688,18.451 590.847,26.621 599.506,18.451 	"/>
	
		<polyline fill="none" stroke="#999999" stroke-width="2" stroke-linecap="round" stroke-linejoin="round" stroke-miterlimit="10" points="
		532.285,10.102 526.958,15.586 535.778,20.52 527.723,24.237 536.053,28.743 527.017,33.621 535.798,37.749 527,41.126 527,50.629 
		522.599,46.295 519.035,51.379 	"/>
	
		<polyline fill="none" stroke="#999999" stroke-width="2" stroke-linecap="round" stroke-linejoin="round" stroke-miterlimit="10" points="
		604.026,10.102 607.883,16.752 599.185,21.836 608.041,25.666 598.883,30.308 607.818,35.334 599.246,39.586 609,43.065 
		609,52.855 615.857,47.33 620.783,53.629 	"/>
	
		<polyline fill="none" stroke="#999999" stroke-width="2" stroke-linecap="round" stroke-linejoin="round" stroke-miterlimit="10" points="
		536.166,51.52 535.927,59.721 546.674,62.395 539.334,71.621 556.148,71.804 544.797,82 568.186,82 545.65,89 561,89 	"/>
	
		<polyline fill="none" stroke="#999999" stroke-width="2" stroke-linecap="round" stroke-linejoin="round" stroke-miterlimit="10" points="
		600.363,51.77 601.725,60.089 590.643,60.771 598.205,70.131 581.869,69.987 595.671,80 571.503,80 592.723,89 572.541,89 
		571.503,80.407 	"/>
	
		<polyline fill="none" stroke="#999999" stroke-width="2" stroke-linecap="round" stroke-linejoin="round" stroke-miterlimit="10" points="
		545.93,87.141 559.657,96.645 544.723,106.078 559.657,114.9 542.8,123.094 559.657,132.656 540.715,141.549 559.657,150.662 
		538.061,159.664 559.657,168.168 536.634,177.652 559.657,187.174 534.541,197.177 	"/>
	
		<polyline fill="none" stroke="#999999" stroke-width="2" stroke-linecap="round" stroke-linejoin="round" stroke-miterlimit="10" points="
		592.162,89.141 578.072,96.645 593.267,106.078 578.072,114.9 595.099,123.094 578.072,132.656 597.088,141.549 578.072,150.662 
		598.665,159.664 578.072,168.168 600.979,177.652 578.072,187.174 604.975,197.177 	"/>
	
		<polyline fill="none" stroke="#999999" stroke-width="2" stroke-linecap="round" stroke-linejoin="round" stroke-miterlimit="10" points="
		558.155,89.391 577.57,96.645 559.155,105.646 577.57,114.9 559.155,123.152 577.57,132.656 559.155,141.549 577.57,149.411 
		559.155,159.414 577.57,168.168 559.155,177.92 577.57,187.174 559.155,196.177 	"/>
	
		<polyline fill="none" stroke="#999999" stroke-width="2" stroke-linecap="round" stroke-linejoin="round" stroke-miterlimit="10" points="
		576.072,88.391 558.904,96.645 578.072,105.646 558.904,114.9 578.072,123.152 558.904,132.656 578.072,141.549 558.904,149.411 
		578.072,159.414 558.904,168.168 578.072,177.92 558.904,187.174 578.072,196.177 	"/>
	
		<polyline fill="none" stroke="#999999" stroke-width="2" stroke-linecap="round" stroke-linejoin="round" stroke-miterlimit="10" points="
		536,53 536,63.133 545.742,61.422 542.345,78.389 557.431,72.52 545.538,86.391 569.311,81.994 591.134,87.141 578.309,73.411 
		594.102,77.818 587.109,64.908 600.881,63.518 598.201,53.242 	"/>
	
		<polyline fill="none" stroke="#999999" stroke-width="2" stroke-linecap="round" stroke-linejoin="round" stroke-miterlimit="10" points="
		578.122,89.318 593.279,96.334 578.085,105.629 595.447,114.376 578.326,132.51 600.666,160.128 578.323,188 604.356,188 
		579.245,196.715 	"/>
	
		<polyline fill="none" stroke="#999999" stroke-width="2" stroke-linecap="round" stroke-linejoin="round" stroke-miterlimit="10" points="
		557.658,89.922 545.408,96.012 558.695,105.384 543.229,114.203 558.453,132.487 538.988,160.114 559.456,188 535.264,188 
		558.529,197.005 	"/>
	
		<polyline fill="none" stroke="#999999" stroke-width="2" stroke-linecap="round" stroke-linejoin="round" stroke-miterlimit="10" points="
		544.79,114.203 595.447,114.376 539.715,141.549 598.764,141.783 	"/>
	
		<line fill="none" stroke="#999999" stroke-width="2" stroke-linecap="round" stroke-linejoin="round" stroke-miterlimit="10" x1="527" y1="8" x2="522" y2="8"/>
	
		<polyline fill="none" stroke="#999999" stroke-width="2" stroke-linecap="round" stroke-linejoin="round" stroke-miterlimit="10" points="
		510,53 510,59 506.434,59 513,59 	"/>
	
		<polyline fill="none" stroke="#999999" stroke-width="2" stroke-linecap="round" stroke-linejoin="round" stroke-miterlimit="10" points="
		518,72 518,77 514.469,77 521,77 	"/>
	
		<polyline fill="none" stroke="#999999" stroke-width="2" stroke-linecap="round" stroke-linejoin="round" stroke-miterlimit="10" points="
		628,53 628,59.381 625.953,59 630,59 	"/>
	
		<polyline fill="none" stroke="#999999" stroke-width="2" stroke-linecap="round" stroke-linejoin="round" stroke-miterlimit="10" points="
		617,72 616.922,77 614,77 621,77 	"/>
	
		<line fill="none" stroke="#999999" stroke-width="2" stroke-linecap="round" stroke-linejoin="round" stroke-miterlimit="10" x1="609" y1="8" x2="613" y2="8"/>
	
		<polyline fill="none" stroke="#999999" stroke-width="2" stroke-linecap="round" stroke-linejoin="round" stroke-miterlimit="10" points="
		580,26 580,35 579.747,35 584,35 	"/>
	
		<polyline fill="none" stroke="#999999" stroke-width="2" stroke-linecap="round" stroke-linejoin="round" stroke-miterlimit="10" points="
		555,26 555,35 554.133,35 558,35 	"/>
	
		<line fill="none" stroke="#999999" stroke-width="2" stroke-linecap="round" stroke-linejoin="round" stroke-miterlimit="10" x1="542.715" y1="115.376" x2="598.447" y2="142.549"/>
	
		<line fill="none" stroke="#999999" stroke-width="2" stroke-linecap="round" stroke-linejoin="round" stroke-miterlimit="10" x1="607.353" y1="43.08" x2="599" y2="51.629"/>
</g>
<g id="Layer_3">
	<linearGradient id="SVGID_1_" gradientUnits="userSpaceOnUse" x1="-79" y1="198.5" x2="-79" y2="183.5">
		<stop  offset="0.15" style="stop-color:#FEFEFE"/>
		<stop  offset="0.355" style="stop-color:#FFFFFF"/>
		<stop  offset="0.4842" style="stop-color:#F9F9F9"/>
		<stop  offset="0.6619" style="stop-color:#E7E7E7"/>
		<stop  offset="0.855" style="stop-color:#CCCCCC"/>
	</linearGradient>
	
		<rect x="-92.5" y="183.5" fill="url(#SVGID_1_)" stroke="#CCCCCC" stroke-width="3" stroke-linecap="round" stroke-linejoin="round" stroke-miterlimit="10" width="27" height="15"/>
	
		<polygon fill="#FFFFFF" stroke="#CCCCCC" stroke-width="2" stroke-linecap="round" stroke-linejoin="round" stroke-miterlimit="10" points="
		-63.906,184 -93.943,184 -92.455,179 -65.273,179 	"/>
	
		<line fill="none" stroke="#CCCCCC" stroke-width="2" stroke-linecap="round" stroke-linejoin="round" stroke-miterlimit="10" x1="-79" y1="180" x2="-79" y2="184"/>
	
		<line fill="none" stroke="#CCCCCC" stroke-width="2" stroke-linecap="round" stroke-linejoin="round" stroke-miterlimit="10" x1="-74.137" y1="179.113" x2="-69.388" y2="183.837"/>
	
		<line fill="none" stroke="#CCCCCC" stroke-width="2" stroke-linecap="round" stroke-linejoin="round" stroke-miterlimit="10" x1="-83.784" y1="179.113" x2="-88.533" y2="183.837"/>
	
		<rect x="-76.5" y="188.5" fill="#FFFFFF" stroke="#CCCCCC" stroke-linecap="round" stroke-linejoin="round" stroke-miterlimit="10" width="6" height="11"/>
	
		<rect x="-74.5" y="190.5" fill="#0000FF" stroke="#0000FF" stroke-linecap="round" stroke-linejoin="round" stroke-miterlimit="10" width="2" height="1"/>
	
		<rect x="-88.5" y="186.5" fill="#CCCCCC" stroke="#CCCCCC" stroke-linecap="round" stroke-linejoin="round" stroke-miterlimit="10" width="5" height="4"/>
	
		<rect x="-88.5" y="192.5" fill="#CCCCCC" stroke="#CCCCCC" stroke-linecap="round" stroke-linejoin="round" stroke-miterlimit="10" width="5" height="4"/>
	
		<line fill="none" stroke="#666666" stroke-linecap="round" stroke-linejoin="round" stroke-miterlimit="10" x1="-88.5" y1="190" x2="-88.5" y2="187"/>
	
		<line fill="none" stroke="#666666" stroke-linecap="round" stroke-linejoin="round" stroke-miterlimit="10" x1="-83.5" y1="187" x2="-83.5" y2="190"/>
	
		<line fill="none" stroke="#666666" stroke-linecap="round" stroke-linejoin="round" stroke-miterlimit="10" x1="-88.5" y1="193" x2="-88.5" y2="196"/>
	
		<line fill="none" stroke="#666666" stroke-linecap="round" stroke-linejoin="round" stroke-miterlimit="10" x1="-83.5" y1="193" x2="-83.5" y2="196"/>
	<path fill="none" stroke="#666666" stroke-linecap="round" stroke-linejoin="round" stroke-miterlimit="10" d="M-75,194.5"/>
	
		<line fill="none" stroke="#666666" stroke-linecap="round" stroke-linejoin="round" stroke-miterlimit="10" x1="-75" y1="194.5" x2="-72" y2="194.5"/>
	
		<line fill="none" stroke="#666666" stroke-linecap="round" stroke-linejoin="round" stroke-miterlimit="10" x1="-75" y1="196.5" x2="-72" y2="196.5"/>
	
		<line fill="none" stroke="#666666" stroke-linecap="round" stroke-linejoin="round" stroke-miterlimit="10" x1="-75" y1="195.5" x2="-72" y2="195.5"/>
	
		<line fill="none" stroke="#999999" stroke-width="2" stroke-linecap="square" stroke-miterlimit="10" x1="-79" y1="171" x2="-79" y2="178"/>
	
		<line fill="none" stroke="#666666" stroke-linecap="round" stroke-linejoin="round" stroke-miterlimit="10" x1="-87" y1="187.5" x2="-85" y2="187.5"/>
	
		<line fill="none" stroke="#666666" stroke-linecap="round" stroke-linejoin="round" stroke-miterlimit="10" x1="-87" y1="189.5" x2="-85" y2="189.5"/>
	
		<line fill="none" stroke="#666666" stroke-linecap="round" stroke-linejoin="round" stroke-miterlimit="10" x1="-87" y1="188.5" x2="-85" y2="188.5"/>
	
		<line fill="none" stroke="#666666" stroke-linecap="round" stroke-linejoin="round" stroke-miterlimit="10" x1="-87" y1="193.5" x2="-85" y2="193.5"/>
	
		<line fill="none" stroke="#666666" stroke-linecap="round" stroke-linejoin="round" stroke-miterlimit="10" x1="-87" y1="194.5" x2="-85" y2="194.5"/>
	
		<line fill="none" stroke="#666666" stroke-linecap="round" stroke-linejoin="round" stroke-miterlimit="10" x1="-87" y1="195.5" x2="-85" y2="195.5"/>
	
		<line fill="none" stroke="#666666" stroke-linecap="round" stroke-linejoin="round" stroke-miterlimit="10" x1="-87" y1="194.5" x2="-85" y2="194.5"/>
</g>
<g id="Layer_4">
	<g>
		<g>
			<path fill="#999999" d="M968.381,162.959c0.327,0.373,1.303,2.443,1.682,3.264c1.728-1.009,3.454-2.019,5.182-3.027
				c-0.733-1.283-1.35-2.622-1.85-4.016c-1.827,0.771-3.655,1.541-5.483,2.313c0.574,0.859,1.147,1.72,1.721,2.58
				c2.185,3.277,6.727,0.465,5.182-3.027c-0.442-0.999-0.849-2.014-1.29-3.012c-1.728,1.009-3.454,2.019-5.182,3.027
				c0.342,0.396,0.629,0.826,0.86,1.291c1.571-1.211,3.142-2.423,4.712-3.635c-0.029-0.133-0.059-0.265-0.089-0.397
				c-1.229,1.23-2.46,2.461-3.69,3.69c0.154,0.057,0.31,0.112,0.464,0.168c3.66,1.325,5.168-4.437,1.595-5.785
				c-0.373-0.2-0.72-0.442-1.037-0.727c-0.505,1.864-1.01,3.728-1.515,5.591c1.63,0.103,3.203,0.398,4.795,0.753
				c-0.733-0.964-1.468-1.929-2.202-2.893c-0.009,1.479-0.013,2.905-0.323,4.364c1.827-0.238,3.655-0.478,5.483-0.716
				c-0.614-1.138-0.907-2.354-0.881-3.648c-1.964,0.266-3.929,0.531-5.893,0.798c0.349,1.856,0.511,3.734,0.86,5.592
				c1.929-0.532,3.856-1.063,5.785-1.596c-0.419-2.009-0.871-4.012-1.291-6.021c-0.803-3.846-6.362-2.142-5.785,1.596
				c0.292,1.896,0.315,3.746,0.323,5.654c1.964-0.266,3.929-0.531,5.893-0.798c-0.867-2.086-1.287-4.242-1.721-6.452
				c-1.929,0.532-3.856,1.063-5.785,1.596c0.646,2.453,0.742,4.854,0.753,7.375c1.964-0.266,3.929-0.531,5.893-0.798
				c-0.752-2.124-1.271-4.245-1.721-6.452c-0.79-3.874-6.287-2.118-5.785,1.596c0.331,2.448,0.317,4.91,0.322,7.375
				c1.964-0.266,3.929-0.531,5.893-0.798c-0.706-3.025-1.116-5.988-1.183-9.096c-2,0-4,0-6,0c0.362,3.44,0.426,6.867,0.43,10.324
				c2,0,4,0,6,0c-0.349-3.058-0.35-5.977,0-9.034c-2,0-4,0-6,0c0.348,3.297,0.427,6.58,0.431,9.894
				c1.964-0.266,3.929-0.531,5.893-0.798c-0.682-2.593-0.743-5.143-0.753-7.806c-1.964,0.266-3.929,0.531-5.893,0.798
				c0.652,3.728,0.37,7.486,0.322,11.247c1.964-0.266,3.929-0.531,5.893-0.798c-0.722-3.6-1.043-7.358,0.989-10.593
				c-1.728,0-3.454,0-5.182,0c1.79,4.033,0.035,9.492-0.732,13.604c1.964,0.267,3.929,0.532,5.893,0.798
				c-0.041-4.007-0.227-7.855,1.184-11.677c-1.929,0-3.856,0-5.785,0c0.591,4.021-0.009,8.072-0.107,12.106
				c1.964-0.266,3.929-0.531,5.893-0.798c-0.48-2.795-0.485-5.595,0.43-8.298c-1.929,0-3.856,0-5.785,0
				c0.652,3.057,0.266,6.033-0.107,9.096c2,0,4,0,6,0c-0.374-3.567-0.82-7.212,0.882-10.531c-1.828-0.238-3.656-0.478-5.483-0.716
				c0.575,3.265-0.104,6.42-0.86,9.59c1.929,0,3.856,0,5.785,0c-0.689-3.638-0.689-7.242,0-10.88
				c-1.964-0.267-3.929-0.532-5.893-0.798c-0.051,4.166-0.335,8.315,0,12.476c0.307,3.803,6.042,3.916,6,0
				c-0.032-3.022-0.439-6.17,1.312-8.811c-1.864-0.504-3.728-1.009-5.591-1.514c0.642,5.039-0.29,10.012-0.431,15.056
				c1.964-0.266,3.929-0.531,5.893-0.798c-1.401-3.512-2.368-7.395-0.731-11.023c-1.864-0.504-3.728-1.009-5.591-1.514
				c0.698,5.307,0.081,10.591,0,15.916c1.964-0.266,3.929-0.531,5.893-0.798c-1.109-3.944-1.858-7.775-0.431-11.74
				c-1.929,0-3.856,0-5.785,0c1.06,6.029,0.004,12.208-0.86,18.193c1.929,0,3.856,0,5.785,0c-1.55-5.356-1.092-10.853,0.86-16.042
				c-1.964-0.267-3.929-0.532-5.893-0.798c-0.125,5.78-1.201,11.459-1.721,17.207c2,0,4,0,6,0
				c-0.074-5.481-0.723-10.982,0.323-16.409c-1.964-0.267-3.929-0.532-5.893-0.798c-0.136,5.333-1.155,10.584-1.291,15.917
				c2,0,4,0,6,0c-0.502-5.752-1.562-11.58-0.107-17.271c-1.964-0.267-3.929-0.532-5.893-0.798
				c-0.156,5.047-1.146,10.008-1.29,15.057c2,0,4,0,6,0c-0.077-4.526-0.691-9.019,0.753-13.397
				c-1.964-0.267-3.929-0.532-5.893-0.798c0.33,6.029-0.264,12.052,0.43,18.066c2,0,4,0,6,0c-0.39-3.253-0.746-6.362,0.323-9.526
				c-1.964-0.267-3.929-0.532-5.893-0.798c0.354,5.019,0.044,10.033,0,15.057c1.964-0.266,3.929-0.531,5.893-0.798
				c-1.451-3.922-1.134-8.068,0.559-11.884c-1.864-0.504-3.728-1.009-5.591-1.514c0.244,4.138-0.382,8.055-1.184,12.106
				c1.929,0,3.856,0,5.785,0c-0.917-2.683-1.938-5.636-0.731-8.442c-1.828-0.238-3.656-0.478-5.483-0.716
				c0.754,3.829,0.362,7.801,0.322,11.677c1.964-0.266,3.929-0.531,5.893-0.798c-1.1-3.708-1.409-7.327,0.989-10.593
				c-1.828-0.238-3.656-0.478-5.483-0.716c0.938,3.449,0.708,6.548,0,10.019c1.964,0.267,3.929,0.532,5.893,0.798
				c-0.341-2.856-0.79-5.616,0.451-8.38c-1.828-0.238-3.656-0.478-5.483-0.716c0.565,3.029,0.308,5.757-0.431,8.729
				c1.964,0.267,3.929,0.532,5.893,0.798c-0.04-2.572-0.347-5.116,0.882-7.52c-1.828-0.239-3.656-0.479-5.483-0.717
				c0.924,3.291,0.344,6.334-0.431,9.589c1.929,0,3.856,0,5.785,0c-0.671-2.109-1.477-4.979,0.089-6.976
				c-1.707-0.707-3.414-1.414-5.121-2.121c-0.01,2.663-0.071,5.213-0.753,7.806c1.827-0.238,3.655-0.478,5.483-0.716
				c-1.001-1.378-1.187-2.901-0.559-4.571c-1.964-0.267-3.929-0.532-5.893-0.798c0.2,1.931,0.171,3.241-0.881,4.939
				c1.728,0,3.454,0,5.182,0c0-0.998,0-1.996,0-2.994c-1.828-0.239-3.656-0.479-5.483-0.717c0.606,2.017,0.421,3.971-0.559,5.861
				c1.728,0,3.454,0,5.182,0c-1.516-2.131-2.261-3.916-0.86-6.436c-1.828-0.238-3.656-0.478-5.483-0.716
				c0.505,2.099,0.386,3.632,0,5.717c1.929,0,3.856,0,5.785,0c-0.482-1.584-0.34-3.061,0.43-4.427c-1.929,0-3.856,0-5.785,0
				c0.682,2.593,0.743,5.143,0.753,7.806c0.013,3.323,5.172,4.172,5.893,0.798c-0.341,1.594,0.257,0.258,1.173-0.375
				c-1.01,0-2.02,0-3.028,0c0.01,0.006,0.02,0.011,0.03,0.017c-0.496-0.864-0.991-1.728-1.486-2.591c0,0.107,0,0.215,0,0.323
				c0,3.869,6,3.869,6,0c0-1.597-0.934-3.06-1.397-4.563c-0.698,1.23-1.396,2.461-2.095,3.69c-0.182-0.01-0.363-0.021-0.544-0.031
				c1.365,0.207,2.633-0.121,3.388-1.379c1.088-1.813,0.648-4.186,0.648-6.214c0-3.869-6-3.869-6,0c0-0.025,0.088,3.323,0.171,3.186
				c1.129-0.459,2.259-0.919,3.388-1.378c-0.95-0.145-1.7-0.169-2.646,0.031c-1.564,0.331-2.555,2.197-2.095,3.69
				c0.172,0.559,1.183,2.978,1.183,2.967c0,3.869,6,3.869,6,0c0-0.108,0-0.216,0-0.323c0-1.028-0.564-2.094-1.486-2.591
				c-0.01-0.005-0.02-0.011-0.029-0.016c-0.897-0.483-2.142-0.612-3.028,0c-1.372,0.948-3.553,2.195-3.93,3.96
				c1.964,0.267,3.929,0.532,5.893,0.798c-0.013-3.215-0.147-6.282-0.968-9.401c-0.821-3.123-4.745-2.575-5.785,0
				c-1.072,2.653-1.143,4.872-0.43,7.618s5.232,2.991,5.785,0c0.568-3.069,0.735-5.854,0-8.908c-0.605-2.52-4.24-2.953-5.483-0.716
				c-2.354,4.238-1.935,8.56,0.86,12.49c1.188,1.671,4.119,2.208,5.182,0c1.688-3.509,1.936-6.671,1.162-10.484
				c-0.569-2.81-4.095-2.603-5.483-0.717c-2.146,2.916-2.146,6.136,0,9.051c1.322,1.796,3.908,2.058,5.182,0
				c1.565-2.529,2.004-5.021,1.699-7.967c-0.328-3.169-5.06-4.32-5.893-0.798c-0.787,3.326-0.602,6.212,1.162,9.194
				c1.309,2.213,4.817,1.818,5.483-0.716c0.82-3.119,0.955-6.187,0.968-9.401c0.009-2.396-3.436-4.271-5.121-2.121
				c-3.006,3.831-3.079,8.266-1.632,12.813c0.863,2.715,5.068,3.011,5.785,0c1.024-4.304,1.646-8.453,0.431-12.78
				c-0.672-2.393-4.271-3.09-5.483-0.717c-1.754,3.435-1.76,6.747-1.7,10.549c0.052,3.345,5.063,4.141,5.893,0.798
				c1.001-4.027,1.193-7.834,0.431-11.92c-0.457-2.451-4.438-3.046-5.483-0.716c-1.721,3.833-1.766,7.251-1.27,11.407
				c0.369,3.092,5.159,4.396,5.893,0.798c0.921-4.512,1.221-8.725,0-13.21c-0.736-2.707-4.016-2.714-5.483-0.716
				c-3.288,4.478-3.114,10.086-1.593,15.216c0.964,3.249,5.857,2.619,5.893-0.798c0.046-4.458,0.33-8.871-0.537-13.272
				c-0.475-2.409-4.462-3.092-5.483-0.716c-1.906,4.438-1.416,8.552,0.128,13.065c0.888,2.596,5.168,3.118,5.785,0
				c0.903-4.562,1.674-9.036,1.398-13.702c-0.159-2.69-4.283-4.463-5.591-1.514c-2.32,5.233-3.191,11.022-1.162,16.507
				c1.141,3.083,5.861,2.744,5.893-0.798c0.044-5.023,0.354-10.038,0-15.057c-0.239-3.395-4.788-4.064-5.893-0.798
				c-1.242,3.673-0.992,7.323-0.538,11.122c0.453,3.787,6.443,3.846,6,0c-0.693-6.015-0.1-12.037-0.43-18.066
				c-0.187-3.406-4.819-4.053-5.893-0.798c-1.618,4.908-1.055,9.915-0.968,14.993c0.066,3.873,5.89,3.863,6,0
				c0.145-5.049,1.134-10.01,1.29-15.057c0.105-3.402-5.058-4.067-5.893-0.798c-1.604,6.278-0.661,12.513-0.107,18.866
				c0.332,3.805,5.9,3.92,6,0c0.136-5.333,1.155-10.584,1.291-15.917c0.085-3.339-5.245-4.157-5.893-0.798
				c-1.157,6.003-0.62,11.94-0.538,18.005c0.053,3.928,5.657,3.794,6,0c0.52-5.748,1.596-11.427,1.721-17.207
				c0.077-3.582-4.756-3.819-5.893-0.798c-2.306,6.128-2.684,12.931-0.86,19.233c0.76,2.628,5.339,3.095,5.785,0
				c1.03-7.134,2.122-14.209,0.86-21.385c-0.56-3.184-4.878-2.52-5.785,0c-1.773,4.923-0.953,10.011,0.431,14.932
				c0.924,3.286,5.841,2.59,5.893-0.798c0.081-5.325,0.698-10.609,0-15.916c-0.336-2.554-4.202-4.592-5.591-1.514
				c-2.326,5.158-1.951,10.439,0.128,15.646c1.214,3.042,5.793,2.775,5.893-0.798c0.141-5.044,1.072-10.017,0.431-15.056
				c-0.369-2.899-3.829-4.172-5.591-1.514c-2.37,3.575-2.175,7.706-2.13,11.838c2,0,4,0,6,0c-0.335-4.16-0.051-8.31,0-12.476
				c0.041-3.323-5.252-4.176-5.893-0.798c-0.897,4.734-0.897,9.337,0,14.071c0.56,2.95,5.118,2.792,5.785,0
				c1.027-4.299,1.634-8.394,0.86-12.781c-0.45-2.554-4.351-2.925-5.483-0.716c-2.238,4.364-2.203,8.766-1.7,13.559
				c0.408,3.887,5.533,3.83,6,0c0.444-3.653,0.665-7.074-0.107-10.691c-0.659-3.088-4.896-2.63-5.785,0
				c-1.266,3.738-1.091,7.645-0.43,11.489c0.592,3.443,5.813,2.465,5.893-0.798c0.113-4.634,0.57-9.091-0.107-13.702
				c-0.476-3.236-4.879-2.455-5.785,0c-1.595,4.318-1.444,8.735-1.398,13.272c0.033,3.294,5.256,4.209,5.893,0.798
				c1.126-6.03,2.722-12.384,0.129-18.228c-0.964-2.172-4.097-1.727-5.182,0c-2.911,4.635-2.633,10.034-1.593,15.216
				c0.683,3.401,5.851,2.503,5.893-0.798c0.055-4.336,0.214-8.554-0.537-12.843c-0.595-3.4-5.905-2.507-5.893,0.798
				c0.013,3.215,0.147,6.282,0.968,9.401c0.866,3.294,5.897,2.585,5.893-0.798c-0.004-3.313-0.083-6.597-0.431-9.894
				c-0.409-3.874-5.561-3.846-6,0c-0.35,3.058-0.349,5.977,0,9.034c0.428,3.746,6.005,3.961,6,0
				c-0.004-3.457-0.067-6.884-0.43-10.324c-0.396-3.761-6.084-3.943-6,0c0.077,3.645,0.568,7.143,1.397,10.691
				c0.779,3.34,5.899,2.552,5.893-0.798c-0.006-3.025-0.132-5.973-0.537-8.971c-1.929,0.532-3.856,1.063-5.785,1.596
				c0.45,2.206,0.968,4.327,1.721,6.452c1.098,3.101,5.908,2.729,5.893-0.798c-0.014-3.071-0.183-5.993-0.968-8.971
				c-0.995-3.777-6.522-2.161-5.785,1.596c0.434,2.21,0.853,4.365,1.721,6.452c1.226,2.945,5.908,2.845,5.893-0.798
				c-0.01-2.458-0.163-4.822-0.538-7.25c-1.929,0.532-3.856,1.063-5.785,1.596c0.419,2.009,0.871,4.012,1.291,6.021
				c0.794,3.805,6.495,2.171,5.785-1.596c-0.35-1.856-0.511-3.734-0.86-5.592c-0.627-3.335-6.076-2.56-5.893,0.798
				c0.134,2.45,0.679,4.451,1.699,6.676c1.08,2.354,4.967,1.71,5.483-0.716c0.422-1.981,0.526-3.936,0.538-5.96
				c0.008-1.283-0.914-2.606-2.202-2.893c-2.116-0.471-4.227-0.832-6.391-0.968c-3.29-0.207-3.667,3.981-1.515,5.591
				c0.789,0.589,1.552,0.983,2.472,1.33c0.531-1.929,1.063-3.857,1.595-5.785c-0.154-0.057-0.309-0.112-0.463-0.168
				c-2.315-0.839-4.101,1.639-3.69,3.69c0.236,1.183,0.699,2.255,1.632,3.044c2.545,2.153,6.436-0.534,4.712-3.635
				c-0.232-0.466-0.52-0.896-0.86-1.291c-2.302-3.142-6.749-0.518-5.182,3.027c0.442,0.999,0.849,2.014,1.29,3.012
				c1.728-1.009,3.454-2.019,5.182-3.027c-0.573-0.861-1.147-1.722-1.721-2.582c-1.802-2.7-6.652-1.057-5.483,2.313
				c0.667,1.923,1.506,3.643,2.453,5.447c1.821,3.471,6.776,0.428,5.182-3.027c-0.732-1.587-1.459-3.156-2.621-4.479
				C970.064,155.805,965.838,160.065,968.381,162.959L968.381,162.959z"/>
		</g>
	</g>
	
		<rect x="935" y="158" fill="#FFFFFF" stroke="#CCCCCC" stroke-width="2" stroke-linecap="round" stroke-linejoin="round" stroke-miterlimit="10" width="70" height="39"/>
	
		<rect x="941" y="150" fill="#FFFFFF" stroke="#CCCCCC" stroke-width="6" stroke-linecap="round" stroke-linejoin="round" stroke-miterlimit="10" width="59" height="6"/>
	
		<rect x="945" y="158" fill="#FFFFFF" stroke="#CCCCCC" stroke-width="2" stroke-linecap="round" stroke-linejoin="round" stroke-miterlimit="10" width="8" height="40"/>
	
		<rect x="966" y="158" fill="#FFFFFF" stroke="#CCCCCC" stroke-width="2" stroke-linecap="round" stroke-linejoin="round" stroke-miterlimit="10" width="7" height="40"/>
	
		<path fill="#FFFFFF" stroke="#CCCCCC" stroke-width="2" stroke-linecap="round" stroke-linejoin="round" stroke-miterlimit="10" d="
		M975,198"/>
	
		<rect x="986" y="158" fill="#FFFFFF" stroke="#CCCCCC" stroke-width="2" stroke-linecap="round" stroke-linejoin="round" stroke-miterlimit="10" width="7" height="40"/>
	
		<line fill="#FFFFFF" stroke="#CCCCCC" stroke-width="6" stroke-linecap="round" stroke-linejoin="round" stroke-miterlimit="10" x1="950" y1="150" x2="950" y2="145"/>
	
		<line fill="#FFFFFF" stroke="#CCCCCC" stroke-width="4" stroke-linecap="round" stroke-linejoin="round" stroke-miterlimit="10" x1="960" y1="150" x2="960" y2="137"/>
	
		<line fill="#FFFFFF" stroke="#CCCCCC" stroke-width="4" stroke-linecap="round" stroke-linejoin="round" stroke-miterlimit="10" x1="971" y1="150" x2="971" y2="137"/>
	
		<line fill="#FFFFFF" stroke="#CCCCCC" stroke-width="4" stroke-linecap="round" stroke-linejoin="round" stroke-miterlimit="10" x1="982" y1="150" x2="982" y2="137"/>
	
		<line fill="#FFFFFF" stroke="#CCCCCC" stroke-width="4" stroke-linecap="round" stroke-linejoin="round" stroke-miterlimit="10" x1="992" y1="150" x2="992" y2="137"/>
	
		<line fill="none" stroke="#999999" stroke-width="4" stroke-linecap="round" stroke-linejoin="round" stroke-miterlimit="10" x1="949" y1="135" x2="951" y2="135"/>
	
		<line fill="none" stroke="#999999" stroke-width="4" stroke-linecap="round" stroke-linejoin="round" stroke-miterlimit="10" x1="949" y1="143" x2="951" y2="143"/>
	
		<line fill="none" stroke="#999999" stroke-width="4" stroke-linecap="round" stroke-linejoin="round" stroke-miterlimit="10" x1="949" y1="138" x2="951" y2="138"/>
	
		<line fill="none" stroke="#999999" stroke-width="4" stroke-linecap="round" stroke-linejoin="round" stroke-miterlimit="10" x1="959" y1="135" x2="961" y2="135"/>
	
		<line fill="none" stroke="#999999" stroke-width="4" stroke-linecap="round" stroke-linejoin="round" stroke-miterlimit="10" x1="959" y1="138" x2="961" y2="138"/>
	
		<line fill="none" stroke="#999999" stroke-width="4" stroke-linecap="round" stroke-linejoin="round" stroke-miterlimit="10" x1="959" y1="141" x2="961" y2="141"/>
	
		<line fill="none" stroke="#999999" stroke-width="4" stroke-linecap="round" stroke-linejoin="round" stroke-miterlimit="10" x1="959" y1="144" x2="961" y2="144"/>
	
		<line fill="none" stroke="#999999" stroke-width="4" stroke-linecap="round" stroke-linejoin="round" stroke-miterlimit="10" x1="970" y1="135" x2="972" y2="135"/>
	
		<line fill="none" stroke="#999999" stroke-width="4" stroke-linecap="round" stroke-linejoin="round" stroke-miterlimit="10" x1="970" y1="138" x2="972" y2="138"/>
	
		<line fill="none" stroke="#999999" stroke-width="4" stroke-linecap="round" stroke-linejoin="round" stroke-miterlimit="10" x1="970" y1="141" x2="972" y2="141"/>
	
		<line fill="none" stroke="#999999" stroke-width="4" stroke-linecap="round" stroke-linejoin="round" stroke-miterlimit="10" x1="970" y1="144" x2="972" y2="144"/>
	
		<line fill="none" stroke="#999999" stroke-width="4" stroke-linecap="round" stroke-linejoin="round" stroke-miterlimit="10" x1="983" y1="135" x2="981" y2="135"/>
	
		<line fill="none" stroke="#999999" stroke-width="4" stroke-linecap="round" stroke-linejoin="round" stroke-miterlimit="10" x1="981" y1="138" x2="983" y2="138"/>
	
		<line fill="none" stroke="#999999" stroke-width="4" stroke-linecap="round" stroke-linejoin="round" stroke-miterlimit="10" x1="981" y1="141" x2="983" y2="141"/>
	
		<line fill="none" stroke="#999999" stroke-width="4" stroke-linecap="round" stroke-linejoin="round" stroke-miterlimit="10" x1="981" y1="144" x2="983" y2="144"/>
	
		<line fill="none" stroke="#999999" stroke-width="4" stroke-linecap="round" stroke-linejoin="round" stroke-miterlimit="10" x1="992" y1="135" x2="994" y2="135"/>
	
		<line fill="none" stroke="#999999" stroke-width="4" stroke-linecap="round" stroke-linejoin="round" stroke-miterlimit="10" x1="992" y1="138" x2="994" y2="138"/>
	
		<line fill="none" stroke="#999999" stroke-width="4" stroke-linecap="round" stroke-linejoin="round" stroke-miterlimit="10" x1="992" y1="141" x2="994" y2="141"/>
	
		<line fill="none" stroke="#999999" stroke-width="4" stroke-linecap="round" stroke-linejoin="round" stroke-miterlimit="10" x1="992" y1="144" x2="994" y2="144"/>
	
		<polyline fill="#C69C6D" stroke="#8C6239" stroke-width="2" stroke-linecap="round" stroke-linejoin="round" stroke-miterlimit="10" points="
		1013,197 1013,197.493 1013,176 1036,176 1036,198 	"/>
	
		<polyline fill="none" stroke="#999999" stroke-width="2" stroke-linecap="round" stroke-linejoin="round" stroke-miterlimit="10" points="
		955,196 955,170 936,170 936,198 	"/>
	
		<line fill="#FFFFFF" stroke="#999999" stroke-width="2" stroke-linecap="round" stroke-linejoin="round" stroke-miterlimit="10" x1="944" y1="198" x2="944" y2="179"/>
	
		<path fill="#FFFFFF" stroke="#999999" stroke-width="6" stroke-linecap="round" stroke-linejoin="round" stroke-miterlimit="10" d="
		M956.468,197.402"/>
	
		<polyline fill="#FFFFFF" stroke="#999999" stroke-width="2" stroke-linecap="round" stroke-linejoin="round" stroke-miterlimit="10" points="
		956,170 966,170 966,197 	"/>
	
		<line fill="#FFFFFF" stroke="#999999" stroke-width="6" stroke-linecap="round" stroke-linejoin="round" stroke-miterlimit="10" x1="935" y1="178" x2="935" y2="172"/>
	
		<line fill="#FFFFFF" stroke="#999999" stroke-width="6" stroke-linecap="round" stroke-linejoin="round" stroke-miterlimit="10" x1="944" y1="178" x2="944" y2="172"/>
	
		<line fill="#FFFFFF" stroke="#999999" stroke-width="6" stroke-linecap="round" stroke-linejoin="round" stroke-miterlimit="10" x1="926" y1="178" x2="926" y2="172"/>
	
		<line fill="#FFFFFF" stroke="#999999" stroke-width="6" stroke-linecap="round" stroke-linejoin="round" stroke-miterlimit="10" x1="955" y1="178" x2="955" y2="172"/>
	
		<line fill="none" stroke="#999999" stroke-width="2" stroke-linecap="round" stroke-linejoin="round" stroke-miterlimit="10" x1="1035" y1="151" x2="1050" y2="151"/>
	
		<line fill="none" stroke="#999999" stroke-width="2" stroke-linecap="round" stroke-linejoin="round" stroke-miterlimit="10" x1="1043" y1="197" x2="1043" y2="149"/>
	
		<line fill="#FFFFFF" stroke="#999999" stroke-width="6" stroke-linecap="round" stroke-linejoin="round" stroke-miterlimit="10" x1="1043" y1="147" x2="1043" y2="138"/>
	
		<line fill="#FFFFFF" stroke="#999999" stroke-width="6" stroke-linecap="round" stroke-linejoin="round" stroke-miterlimit="10" x1="1043" y1="154" x2="1043" y2="157"/>
	
		<line fill="#FFFFFF" stroke="#999999" stroke-width="6" stroke-linecap="round" stroke-linejoin="round" stroke-miterlimit="10" x1="966" y1="178" x2="966" y2="172"/>
	
		<polyline fill="none" stroke="#999999" stroke-width="2" stroke-linecap="round" stroke-linejoin="round" stroke-miterlimit="10" points="
		936,170 926,170 926,196 	"/>
	<path fill="none" stroke="#666666" stroke-width="2" stroke-linecap="round" stroke-linejoin="round" stroke-miterlimit="10" d="
		M1044.492,138.469c0,0-33.983,5.162-50.761-3.871"/>
	<path fill="none" stroke="#999999" stroke-width="2" stroke-linecap="round" stroke-linejoin="round" stroke-miterlimit="10" d="
		M991.581,134.598c0,0-1.08,3.238-8.175,0.829c-0.662-0.225-1.377-0.499-2.149-0.829c0,0-4.302,4.731-9.464,0"/>
	<path fill="none" stroke="#999999" stroke-width="2" stroke-linecap="round" stroke-linejoin="round" stroke-miterlimit="10" d="
		M969.642,134.598c0,0-3.441,5.592-8.604,0"/>
	<path fill="none" stroke="#666666" stroke-width="2" stroke-linecap="round" stroke-linejoin="round" stroke-miterlimit="10" d="
		M1044.063,143.201c0,0-45.169,5.592-51.621-6.453"/>
	<path fill="none" stroke="#999999" stroke-width="2" stroke-linecap="round" stroke-linejoin="round" stroke-miterlimit="10" d="
		M958.888,134.598c0,0-4.732,5.162-7.743,0"/>
	
		<polyline fill="none" stroke="#999999" stroke-width="2" stroke-linecap="round" stroke-linejoin="round" stroke-miterlimit="10" points="
		926.525,172.716 964.764,172.584 964.059,176.604 926,175.464 926,179 965,179 	"/>
	
		<polygon fill="none" stroke="#333333" stroke-width="2" stroke-linecap="round" stroke-linejoin="round" stroke-miterlimit="10" points="
		921,184 927.055,184 1055,184 1055,198 921,198 	"/>
	
		<line fill="none" stroke="#333333" stroke-width="2" stroke-linecap="round" stroke-linejoin="round" stroke-miterlimit="10" x1="926" y1="197" x2="926" y2="184"/>
	
		<line fill="none" stroke="#333333" stroke-width="2" stroke-linecap="round" stroke-linejoin="round" stroke-miterlimit="10" x1="931" y1="197" x2="931" y2="184"/>
	
		<line fill="none" stroke="#333333" stroke-width="2" stroke-linecap="round" stroke-linejoin="round" stroke-miterlimit="10" x1="936" y1="197" x2="936" y2="184"/>
	
		<line fill="none" stroke="#333333" stroke-width="2" stroke-linecap="round" stroke-linejoin="round" stroke-miterlimit="10" x1="941" y1="197" x2="941" y2="184"/>
	
		<line fill="none" stroke="#333333" stroke-width="2" stroke-linecap="round" stroke-linejoin="round" stroke-miterlimit="10" x1="984" y1="197" x2="984" y2="184"/>
	
		<line fill="none" stroke="#333333" stroke-width="2" stroke-linecap="round" stroke-linejoin="round" stroke-miterlimit="10" x1="989" y1="197" x2="989" y2="184"/>
	
		<line fill="none" stroke="#333333" stroke-width="2" stroke-linecap="round" stroke-linejoin="round" stroke-miterlimit="10" x1="993" y1="197" x2="993" y2="184"/>
	
		<line fill="none" stroke="#333333" stroke-width="2" stroke-linecap="round" stroke-linejoin="round" stroke-miterlimit="10" x1="1011" y1="197" x2="1011" y2="184"/>
	
		<line fill="none" stroke="#333333" stroke-width="2" stroke-linecap="round" stroke-linejoin="round" stroke-miterlimit="10" x1="1015" y1="197" x2="1015" y2="184"/>
	
		<line fill="none" stroke="#333333" stroke-width="2" stroke-linecap="round" stroke-linejoin="round" stroke-miterlimit="10" x1="1020" y1="197" x2="1020" y2="184"/>
	
		<line fill="none" stroke="#333333" stroke-width="2" stroke-linecap="round" stroke-linejoin="round" stroke-miterlimit="10" x1="1025" y1="197" x2="1025" y2="184"/>
	
		<line fill="none" stroke="#333333" stroke-width="2" stroke-linecap="round" stroke-linejoin="round" stroke-miterlimit="10" x1="1030" y1="197" x2="1030" y2="184"/>
	
		<line fill="none" stroke="#333333" stroke-width="2" stroke-linecap="round" stroke-linejoin="round" stroke-miterlimit="10" x1="1035" y1="197" x2="1035" y2="184"/>
	
		<line fill="none" stroke="#333333" stroke-width="2" stroke-linecap="round" stroke-linejoin="round" stroke-miterlimit="10" x1="1040" y1="197" x2="1040" y2="184"/>
	
		<line fill="none" stroke="#333333" stroke-width="2" stroke-linecap="round" stroke-linejoin="round" stroke-miterlimit="10" x1="1046" y1="197" x2="1046" y2="184"/>
	
		<line fill="none" stroke="#333333" stroke-width="2" stroke-linecap="round" stroke-linejoin="round" stroke-miterlimit="10" x1="1050" y1="197" x2="1050" y2="184"/>
	
		<line fill="none" stroke="#333333" stroke-width="2" stroke-linecap="round" stroke-linejoin="round" stroke-miterlimit="10" x1="997" y1="197" x2="997" y2="184"/>
	
		<line fill="none" stroke="#333333" stroke-width="2" stroke-linecap="round" stroke-linejoin="round" stroke-miterlimit="10" x1="1002" y1="197" x2="1002" y2="184"/>
	
		<line fill="none" stroke="#333333" stroke-width="2" stroke-linecap="round" stroke-linejoin="round" stroke-miterlimit="10" x1="1006" y1="196" x2="1006" y2="184"/>
	
		<line fill="none" stroke="#333333" stroke-width="2" stroke-linecap="round" stroke-linejoin="round" stroke-miterlimit="10" x1="945" y1="197" x2="945" y2="184"/>
	
		<line fill="none" stroke="#333333" stroke-width="2" stroke-linecap="round" stroke-linejoin="round" stroke-miterlimit="10" x1="950" y1="197" x2="950" y2="184"/>
	
		<line fill="none" stroke="#333333" stroke-width="2" stroke-linecap="round" stroke-linejoin="round" stroke-miterlimit="10" x1="955" y1="197" x2="955" y2="184"/>
	
		<line fill="none" stroke="#333333" stroke-width="2" stroke-linecap="round" stroke-linejoin="round" stroke-miterlimit="10" x1="960" y1="197" x2="960" y2="184"/>
	
		<line fill="none" stroke="#333333" stroke-width="2" stroke-linecap="round" stroke-linejoin="round" stroke-miterlimit="10" x1="966" y1="197" x2="966" y2="184"/>
	
		<line fill="none" stroke="#333333" stroke-width="2" stroke-linecap="round" stroke-linejoin="round" stroke-miterlimit="10" x1="970" y1="197" x2="970" y2="184"/>
	
		<line fill="none" stroke="#333333" stroke-width="2" stroke-linecap="round" stroke-linejoin="round" stroke-miterlimit="10" x1="975" y1="197" x2="975" y2="184"/>
	
		<line fill="none" stroke="#333333" stroke-width="2" stroke-linecap="round" stroke-linejoin="round" stroke-miterlimit="10" x1="979" y1="197" x2="979" y2="184"/>
	<path fill="none" stroke="#666666" stroke-width="2" stroke-linecap="round" stroke-linejoin="round" stroke-miterlimit="10" d="
		M944.999,140.141"/>
	<path fill="none" stroke="#666666" stroke-width="2" stroke-linecap="round" stroke-linejoin="round" stroke-miterlimit="10" d="
		M243.202,35.873c0,0,28.773,30.76,312.287,0.5c0,0,15.262,3.752,27.315-0.5c0,0,309.696,109.147,363.765,102.309"/>
	<path fill="none" stroke="#666666" stroke-width="2" stroke-linecap="round" stroke-linejoin="round" stroke-miterlimit="10" d="
		M610,8h3.608c0,0,268.109,146,334.383,137H950"/>
	<path fill="none" stroke="#666666" stroke-width="2" stroke-linecap="round" stroke-linejoin="round" stroke-miterlimit="10" d="
		M616.922,77c0,0,261.563,90,332.063,61H951"/>
	<rect id="_x3C_Slice_x3E__1_" x="846" fill="none" width="216" height="200"/>
	<path fill="none" stroke="#666666" stroke-width="2" stroke-linecap="round" stroke-linejoin="round" stroke-miterlimit="10" d="
		M628,59.381c0,0,257,94.619,321,81.619h2"/>
</g>
<g id="Layer_2">
	<path fill="none" stroke="#666666" stroke-width="2" stroke-linecap="round" stroke-linejoin="round" stroke-miterlimit="10" d="
		M-78.925,175.972c0,0,29.281-3.1,251.925-115.972"/>
	<path fill="none" stroke="#666666" stroke-width="2" stroke-linecap="round" stroke-linejoin="round" stroke-miterlimit="10" d="
		M-79.067,172.261c0,0,95.326-16.561,259.536-94.261"/>
	<path fill="none" stroke="#666666" stroke-width="2" stroke-linecap="round" stroke-linejoin="round" stroke-miterlimit="10" d="
		M-79.067,170.041c0,0,75.604-19.312,264.067-161.041"/>
	<path fill="none" stroke="#666666" stroke-width="2" stroke-linecap="round" stroke-linejoin="round" stroke-miterlimit="10" d="
		M-78.925,175.055c141.46-47.127,138.78-36.067,296.407-138.952c0,0,9.834,7.171,25.525,0.432"/>
	<path fill="none" stroke="#666666" stroke-width="2" stroke-linecap="round" stroke-linejoin="round" stroke-miterlimit="10" d="
		M275.406,8.865c0,0,63.269,21.757,247.591-1"/>
	<path fill="none" stroke="#666666" stroke-width="2" stroke-linecap="round" stroke-linejoin="round" stroke-miterlimit="10" d="
		M290.711,60.381c0,0,139.372,9.754,219.479-2"/>
	<path fill="none" stroke="#666666" stroke-width="2" stroke-linecap="round" stroke-linejoin="round" stroke-miterlimit="10" d="
		M281.173,78.387c0,0,150.229,13.471,235.295-1.5"/>
</g>
<g id="Layer_5">
	
		<ellipse fill="#FF6666" stroke="#FF6666" stroke-width="2" stroke-linecap="round" stroke-linejoin="round" stroke-miterlimit="10" cx="325.853" cy="15.541" rx="3.453" ry="3.438"/>
	
		<ellipse fill="#FF6666" stroke="#FF6666" stroke-width="2" stroke-linecap="round" stroke-linejoin="round" stroke-miterlimit="10" cx="399.156" cy="47.541" rx="3.453" ry="3.438"/>
	
		<ellipse fill="#FF6666" stroke="#FF6666" stroke-width="2" stroke-linecap="round" stroke-linejoin="round" stroke-miterlimit="10" cx="481.497" cy="12.541" rx="3.453" ry="3.438"/>
	
		<ellipse fill="#FF6666" stroke="#FF6666" stroke-width="2" stroke-linecap="round" stroke-linejoin="round" stroke-miterlimit="10" cx="385.098" cy="83.541" rx="3.453" ry="3.438"/>
	
		<ellipse fill="#FFFF66" stroke="#FFFF66" stroke-width="2" stroke-linecap="round" stroke-linejoin="round" stroke-miterlimit="10" cx="345.504" cy="62.501" rx="4.527" ry="4.509"/>
	
		<ellipse fill="#FFFF66" stroke="#FFFF66" stroke-width="2" stroke-linecap="round" stroke-linejoin="round" stroke-miterlimit="10" cx="420.815" cy="15.501" rx="4.527" ry="4.509"/>
	
		<ellipse fill="#FFFF66" stroke="#FFFF66" stroke-width="2" stroke-linecap="round" stroke-linejoin="round" stroke-miterlimit="10" cx="439.895" cy="62.501" rx="4.527" ry="4.509"/>
	<polygon fill="none" points="-63.906,185 -66,185 -66,200 -70.667,200 -70.667,200 -76.753,200 -76.753,200 -93,200 -93,185 
		-93.943,185 -92.455,181 -65.273,181 	"/>
	<rect id="_x3C_Slice_x3E_" fill="none" width="846" height="200"/>
</g>
</svg>
