<?xml version="1.0" encoding="utf-8"?>
<!-- Generator: Adobe Illustrator 16.0.0, SVG Export Plug-In . SVG Version: 6.00 Build 0)  -->
<!DOCTYPE svg PUBLIC "-//W3C//DTD SVG 1.1//EN" "http://www.w3.org/Graphics/SVG/1.1/DTD/svg11.dtd">
<svg version="1.1" id="Layer_1" xmlns="http://www.w3.org/2000/svg" xmlns:xlink="http://www.w3.org/1999/xlink" x="0px" y="0px"
	 width="193px" height="198px" viewBox="0 0 193 198" enable-background="new 0 0 193 198" xml:space="preserve">
<linearGradient id="SVGID_1_" gradientUnits="userSpaceOnUse" x1="29" y1="196.5" x2="29" y2="168.5">
	<stop  offset="0.15" style="stop-color:#FEFEFE"/>
	<stop  offset="0.355" style="stop-color:#FFFFFF"/>
	<stop  offset="0.4842" style="stop-color:#F9F9F9"/>
	<stop  offset="0.6619" style="stop-color:#E7E7E7"/>
	<stop  offset="0.855" style="stop-color:#CCCCCC"/>
</linearGradient>
<rect x="4.5" y="168.5" fill="url(#SVGID_1_)" stroke="#CCCCCC" stroke-width="3" stroke-linecap="round" stroke-linejoin="round" stroke-miterlimit="10" width="49" height="28"/>
<polygon fill="#FFFFFF" stroke="#CCCCCC" stroke-width="3" stroke-linecap="round" stroke-linejoin="round" stroke-miterlimit="10" points="
	1.5,168.5 55.783,168.5 53.315,161.5 4.191,161.5 "/>
<line fill="none" stroke="#CCCCCC" stroke-width="3" stroke-linecap="round" stroke-linejoin="round" stroke-miterlimit="10" x1="28.5" y1="161" x2="28.5" y2="168"/>
<line fill="none" stroke="#CCCCCC" stroke-width="3" stroke-linecap="round" stroke-linejoin="round" stroke-miterlimit="10" x1="37.296" y1="160.837" x2="44.072" y2="167.566"/>
<line fill="none" stroke="#CCCCCC" stroke-width="3" stroke-linecap="round" stroke-linejoin="round" stroke-miterlimit="10" x1="18.052" y1="160.837" x2="11.276" y2="167.566"/>
<polyline fill="#FFFFFF" stroke="#CCCCCC" stroke-linecap="round" stroke-linejoin="round" stroke-miterlimit="10" points="
	33.5,197 33.5,177.5 44.5,177.5 44.5,197 "/>
<rect x="36.5" y="181.5" fill="#0000FF" stroke="#0000FF" stroke-linecap="round" stroke-linejoin="round" stroke-miterlimit="10" width="4" height="2"/>
<rect x="7.5" y="177.5" fill="#CCCCCC" stroke="#CCCCCC" stroke-linecap="round" stroke-linejoin="round" stroke-miterlimit="10" width="10" height="4"/>
<rect x="8.5" y="185.5" fill="#CCCCCC" stroke="#CCCCCC" stroke-linecap="round" stroke-linejoin="round" stroke-miterlimit="10" width="9" height="4"/>
<line fill="none" stroke="#666666" stroke-linecap="round" stroke-linejoin="round" stroke-miterlimit="10" x1="7.5" y1="181" x2="7.5" y2="177"/>
<line fill="none" stroke="#666666" stroke-linecap="round" stroke-linejoin="round" stroke-miterlimit="10" x1="17.5" y1="177" x2="17.5" y2="181"/>
<line fill="none" stroke="#666666" stroke-linecap="round" stroke-linejoin="round" stroke-miterlimit="10" x1="7.5" y1="185" x2="7.5" y2="189"/>
<line fill="none" stroke="#666666" stroke-linecap="round" stroke-linejoin="round" stroke-miterlimit="10" x1="17.5" y1="185" x2="17.5" y2="189"/>
<line fill="none" stroke="#666666" stroke-linecap="round" stroke-linejoin="round" stroke-miterlimit="10" x1="37" y1="188.5" x2="40" y2="188.5"/>
<line fill="none" stroke="#666666" stroke-linecap="round" stroke-linejoin="round" stroke-miterlimit="10" x1="37" y1="189.5" x2="40" y2="189.5"/>
<line fill="none" stroke="#666666" stroke-linecap="round" stroke-linejoin="round" stroke-miterlimit="10" x1="37" y1="191.5" x2="40" y2="191.5"/>
<line fill="none" stroke="#666666" stroke-linecap="round" stroke-linejoin="round" stroke-miterlimit="10" x1="37" y1="190.5" x2="40" y2="190.5"/>
<path fill="none" stroke="#999999" stroke-width="3" stroke-linecap="round" stroke-linejoin="round" stroke-miterlimit="10" d="
	M28.642,152.049c0,0-0.5,9.003,0,8.788"/>
<line fill="none" stroke="#666666" stroke-linecap="round" stroke-linejoin="round" stroke-miterlimit="10" x1="11" y1="178.5" x2="14" y2="178.5"/>
<line fill="none" stroke="#666666" stroke-linecap="round" stroke-linejoin="round" stroke-miterlimit="10" x1="11" y1="179.5" x2="14" y2="179.5"/>
<line fill="none" stroke="#666666" stroke-linecap="round" stroke-linejoin="round" stroke-miterlimit="10" x1="11" y1="181.5" x2="14" y2="181.5"/>
<line fill="none" stroke="#666666" stroke-linecap="round" stroke-linejoin="round" stroke-miterlimit="10" x1="11" y1="180.5" x2="14" y2="180.5"/>
<line fill="none" stroke="#666666" stroke-linecap="round" stroke-linejoin="round" stroke-miterlimit="10" x1="11" y1="185.5" x2="14" y2="185.5"/>
<line fill="none" stroke="#666666" stroke-linecap="round" stroke-linejoin="round" stroke-miterlimit="10" x1="11" y1="186.5" x2="14" y2="186.5"/>
<line fill="none" stroke="#666666" stroke-linecap="round" stroke-linejoin="round" stroke-miterlimit="10" x1="11" y1="188.5" x2="14" y2="188.5"/>
<line fill="none" stroke="#666666" stroke-linecap="round" stroke-linejoin="round" stroke-miterlimit="10" x1="11" y1="187.5" x2="14" y2="187.5"/>
<path fill="none" stroke="#666666" stroke-width="2" stroke-linecap="round" stroke-linejoin="round" stroke-miterlimit="10" d="
	M29.218,154.084c0,0,53.483,4.458,332.071-96.108"/>
<path fill="none" stroke="#666666" stroke-width="2" stroke-linecap="round" stroke-linejoin="round" stroke-miterlimit="10" d="
	M29.067,156.444c0,0,142.529-11.828,348-81.058"/>
<path fill="none" stroke="#666666" stroke-width="2" stroke-linecap="round" stroke-linejoin="round" stroke-miterlimit="10" d="
	M29.218,154.084c0,0,98.014-21.863,351.457-148.141"/>
<path fill="none" stroke="#666666" stroke-width="2" stroke-linecap="round" stroke-linejoin="round" stroke-miterlimit="10" d="
	M29.067,156.444c175.879-40.528,186.889-33.616,385-123.058c0,0,5.794,7.206,25.427,1.373"/>
<rect id="_x3C_Slice_x3E_" x="1" fill="none" width="192" height="198"/>
</svg>
