<?xml version="1.0" encoding="utf-8"?>
<!-- Generator: Adobe Illustrator 16.0.0, SVG Export Plug-In . SVG Version: 6.00 Build 0)  -->
<!DOCTYPE svg PUBLIC "-//W3C//DTD SVG 1.1//EN" "http://www.w3.org/Graphics/SVG/1.1/DTD/svg11.dtd">
<svg version="1.1" xmlns="http://www.w3.org/2000/svg" xmlns:xlink="http://www.w3.org/1999/xlink" x="0px" y="0px" width="840.5px"
	 height="215.981px" viewBox="0 -15.238 840.5 215.981" enable-background="new 0 -15.238 840.5 215.981" xml:space="preserve">
<g id="Layer_1">
	<g id="Layer_2" display="none">
		
			<path display="inline" fill="#99CC66" stroke="#99CC66" stroke-width="6" stroke-linecap="round" stroke-linejoin="round" stroke-miterlimit="10" d="
			M544.01,357.215H58.073l22.605-64.523l34.923,18.458l5.632-40.396l18.026,4.179l82.237-52.585l114.908,41.79l81.105,0.231
			c0,0,58.584,27.279,55.2,30.762c-3.377,3.482-13.515,8.707-10.138,8.707c3.381,0,13.519,1.73,13.519,1.73l4.509,10.089h-10.942
			l5.308,4.547l11.266,2.786l20.279,9.751l24.781,11.145L544.01,357.215z"/>
		
			<polyline display="inline" fill="#669933" stroke="#669933" stroke-width="6" stroke-linecap="round" stroke-linejoin="round" stroke-miterlimit="10" points="
			158.803,212.439 151.412,214.793 158.825,216.531 164.494,214.498 170.067,214.498 185.481,212.439 158.861,212.439 		"/>
		
			<polygon display="inline" fill="#FFFFFF" stroke="#FFFFFF" stroke-width="6" stroke-linecap="round" stroke-linejoin="round" stroke-miterlimit="10" points="
			112.94,223.907 124.349,237.518 122.773,240.331 118.644,239.227 113.133,244.888 111.11,240.331 100.615,249.858 		"/>
		
			<polygon display="inline" fill="#FFFFFF" stroke="#FFFFFF" stroke-width="6" stroke-linecap="round" stroke-linejoin="round" stroke-miterlimit="10" points="
			143.222,263.163 135.294,262.304 132.702,265.987 121.744,266.679 120.285,271.681 131.559,271.681 136.689,268.317 
			143.222,266.288 		"/>
	</g>
	<g id="Layer_2_1_">
		<linearGradient id="SVGID_1_" gradientUnits="userSpaceOnUse" x1="423.7268" y1="7.4258" x2="423.7268" y2="201.9917">
			<stop  offset="0.0459" style="stop-color:#99CC66;stop-opacity:0.6"/>
			<stop  offset="1" style="stop-color:#336633;stop-opacity:0.4"/>
		</linearGradient>
		<path fill="url(#SVGID_1_)" d="M331.171,7.426L129.469,142.292L97.537,88.09L6.046,131.635L0,199.491l846,2.5l1.452-158.2
			L646.495,99.084c0,0-39.213-53.971-42.481-51.325c-3.267,2.645-62.082,43.806-62.082,43.806s-91.492-49.095-88.225-46.451
			c3.265,2.646-75.155,19.174-75.155,19.174L331.171,7.426z"/>
		<polygon fill="#336633" points="1.305,117.571 61.269,154.445 133.076,74.774 243.162,142.112 365.203,-13.975 422.977,115.186 
			568.969,64.125 609.945,142.112 651.919,-13.244 708.886,113.309 845.5,154.767 846,201.991 1.305,200.785 		"/>
	</g>
	<g id="Layer_4">
		<linearGradient id="SVGID_2_" gradientUnits="userSpaceOnUse" x1="29.5681" y1="122.415" x2="29.5681" y2="208.9277">
			<stop  offset="0.0459" style="stop-color:#99CC66;stop-opacity:0.6"/>
			<stop  offset="1" style="stop-color:#336633;stop-opacity:0.4"/>
		</linearGradient>
		<polygon fill="url(#SVGID_2_)" points="1.305,122.415 57.831,208.928 1.305,208.73 		"/>
		<linearGradient id="SVGID_3_" gradientUnits="userSpaceOnUse" x1="95.9026" y1="75.2744" x2="95.9026" y2="208.147">
			<stop  offset="0.0459" style="stop-color:#99CC66;stop-opacity:0.6"/>
			<stop  offset="1" style="stop-color:#336633;stop-opacity:0.4"/>
		</linearGradient>
		<polygon fill="url(#SVGID_3_)" points="130.5,75.274 94.5,208.146 61.305,154.663 		"/>
		<linearGradient id="SVGID_4_" gradientUnits="userSpaceOnUse" x1="244.45" y1="201.8008" x2="244.45" y2="202.8926">
			<stop  offset="0.0459" style="stop-color:#99CC66;stop-opacity:0.6"/>
			<stop  offset="1" style="stop-color:#336633;stop-opacity:0.4"/>
		</linearGradient>
		<path fill="url(#SVGID_4_)" d="M221.957,202.047l-0.757,0.846c15.5-0.297,30.999-0.664,46.499-1.092
			C252.452,201.869,237.204,201.947,221.957,202.047z"/>
		<linearGradient id="SVGID_5_" gradientUnits="userSpaceOnUse" x1="298.363" y1="201.6768" x2="298.363" y2="201.7734">
			<stop  offset="0.0459" style="stop-color:#99CC66;stop-opacity:0.6"/>
			<stop  offset="1" style="stop-color:#336633;stop-opacity:0.4"/>
		</linearGradient>
		<path fill="url(#SVGID_5_)" d="M298.923,201.677c-0.373,0.001-0.747,0.003-1.12,0.005c0.363,0.028,0.727,0.057,1.091,0.092
			L298.923,201.677z"/>
		<linearGradient id="SVGID_6_" gradientUnits="userSpaceOnUse" x1="293.7874" y1="-15.2378" x2="293.7874" y2="205.7827">
			<stop  offset="0.0459" style="stop-color:#99CC66;stop-opacity:0.6"/>
			<stop  offset="1" style="stop-color:#336633;stop-opacity:0.4"/>
		</linearGradient>
		<path fill="url(#SVGID_6_)" d="M303.038,203l63.336-218.238L243.42,141.5l15.195,17.801L221.2,202.893
			C236.448,202.793,298.923,209.371,303.038,203z"/>
		<linearGradient id="SVGID_7_" gradientUnits="userSpaceOnUse" x1="282.7507" y1="201.3936" x2="282.7507" y2="201.8008">
			<stop  offset="0.0459" style="stop-color:#99CC66;stop-opacity:0.6"/>
			<stop  offset="1" style="stop-color:#336633;stop-opacity:0.4"/>
		</linearGradient>
		<path fill="url(#SVGID_7_)" d="M297.803,201.682c-6.434-0.517-12.869-0.182-19.303-0.182c-3.601,0.107-7.201,0.201-10.801,0.301"
			/>
		<linearGradient id="SVGID_8_" gradientUnits="userSpaceOnUse" x1="486.4631" y1="62.9775" x2="486.4631" y2="220.5005">
			<stop  offset="0.0459" style="stop-color:#99CC66;stop-opacity:0.6"/>
			<stop  offset="1" style="stop-color:#336633;stop-opacity:0.4"/>
		</linearGradient>
		<polygon fill="url(#SVGID_8_)" points="569.305,62.978 441.5,220.5 403.62,144.411 423.227,115.38 		"/>
		<linearGradient id="SVGID_9_" gradientUnits="userSpaceOnUse" x1="631.3049" y1="-13.2739" x2="631.3049" y2="237.5005">
			<stop  offset="0.0459" style="stop-color:#99CC66;stop-opacity:0.6"/>
			<stop  offset="1" style="stop-color:#336633;stop-opacity:0.4"/>
		</linearGradient>
		<polygon fill="url(#SVGID_9_)" points="652.305,-13.274 642.5,237.5 610.305,145.871 		"/>
		<linearGradient id="SVGID_10_" gradientUnits="userSpaceOnUse" x1="777.6526" y1="113.7676" x2="777.6526" y2="202.4326">
			<stop  offset="0.0459" style="stop-color:#99CC66;stop-opacity:0.6"/>
			<stop  offset="1" style="stop-color:#336633;stop-opacity:0.4"/>
		</linearGradient>
		<polygon fill="url(#SVGID_10_)" points="709.305,113.768 788.492,202.433 846,201.991 846,159.5 		"/>
	</g>
</g>
<g id="Layer_3" display="none">
	
		<path display="inline" fill="#99CC66" stroke="#99CC66" stroke-width="6" stroke-linecap="round" stroke-linejoin="round" stroke-miterlimit="10" d="
		M687.596,50.716l39.579,46.564l27.937,0.258c0,0,20.18,30.397,19.013,34.276c-1.163,3.881-4.654,9.701-3.49,9.701
		s4.656,1.93,4.656,1.93l1.552,11.241h-3.77l1.829,5.067l3.88,3.104l6.985,10.865l8.537,12.417l4.38,14.855H631.305"/>
	
		<path display="inline" fill="#99CC66" stroke="#99CC66" stroke-width="6" stroke-linecap="round" stroke-linejoin="round" stroke-miterlimit="10" d="
		M651.12,149.664l1.939-45.012l6.209,4.656l28.327-58.593"/>
	
		<polyline display="inline" fill="#669933" stroke="#669933" stroke-width="6" stroke-linecap="round" stroke-linejoin="round" stroke-miterlimit="10" points="
		687.336,50.199 660.045,107.757 671.686,112.413 687.336,50.199 	"/>
	
		<path display="inline" fill="#669933" stroke="#669933" stroke-width="6" stroke-linecap="round" stroke-linejoin="round" stroke-miterlimit="10" d="
		M774.116,132.697l-12.019,8.537h-6.616l-3.1,2.896c0,0,4.672,0.675,5.836,0c1.163-0.676,7.371,0,7.371,0l5.045-1.839
		L774.116,132.697z"/>
	
		<polygon display="inline" fill="#669933" stroke="#669933" stroke-width="6" stroke-linecap="round" stroke-linejoin="round" stroke-miterlimit="10" points="
		773.073,155.464 764.795,155.464 760.656,153.302 760.656,155.464 766.865,158.566 771.003,158.566 774.902,160.528 	"/>
	
		<polyline display="inline" fill="#669933" stroke="#669933" stroke-width="6" stroke-linecap="round" stroke-linejoin="round" stroke-miterlimit="10" points="
		723.339,97.772 714.977,100.436 723.364,102.401 729.776,100.101 736.078,100.101 753.515,97.772 723.403,97.772 	"/>
	
		<polygon display="inline" fill="#669933" stroke="#669933" stroke-width="6" stroke-linecap="round" stroke-linejoin="round" stroke-miterlimit="10" points="
		701.565,200.995 702.729,173.646 705.286,193.75 723.373,193.75 719.802,183.493 726.809,193.706 744.568,187.385 774.902,196.345 
		782.389,169.245 794.304,186.494 792.363,193.313 796.912,195.124 798.684,200.995 	"/>
	
		<polyline display="inline" fill="#FFFFFF" stroke="#FFFFFF" stroke-width="6" stroke-linecap="round" stroke-linejoin="round" stroke-miterlimit="10" points="
		685.267,68.777 673.395,79.555 687.336,50.199 	"/>
	
		<polyline display="inline" fill="#FFFFFF" stroke="#FFFFFF" stroke-width="6" stroke-linecap="round" stroke-linejoin="round" stroke-miterlimit="10" points="
		693.789,67.528 687.555,73.932 685.267,68.777 	"/>
	
		<polygon display="inline" fill="#FFFFFF" stroke="#FFFFFF" stroke-width="6" stroke-linecap="round" stroke-linejoin="round" stroke-miterlimit="10" points="
		663.114,101.471 666.383,109.155 670.628,109.155 672.203,112.931 660.045,107.498 	"/>
	
		<polygon display="inline" fill="#FFFFFF" stroke="#FFFFFF" stroke-width="6" stroke-linecap="round" stroke-linejoin="round" stroke-miterlimit="10" points="
		720.591,94.604 711.623,93.633 708.693,97.799 696.297,98.581 694.645,104.24 707.399,104.24 713.2,100.436 720.591,98.14 	"/>
	
		<polyline display="inline" fill="#669933" stroke="#669933" stroke-width="6" stroke-linecap="round" stroke-linejoin="round" stroke-miterlimit="10" points="
		647.345,140.199 652.285,104.263 652.131,148.737 647.345,140.199 	"/>
	<g id="Layer_3_1_" display="inline">
		
			<path fill="#669933" stroke="#669933" stroke-width="6" stroke-linecap="round" stroke-linejoin="round" stroke-miterlimit="10" d="
			M687.555,151.498l17.731-16.538c0,0-7.528,9.816-4.11,8.107c3.419-1.709-9.915,6.815-5.547,10.234L687.555,151.498z"/>
	</g>
	<path display="inline" fill="none" stroke="#999999" stroke-width="6" stroke-linecap="square" stroke-miterlimit="10" d="
		M747.894,98.14"/>
	<path display="inline" fill="none" stroke="#999999" stroke-width="6" stroke-linecap="square" stroke-miterlimit="10" d="
		M744.769,97.827"/>
	<line display="inline" fill="none" x1="745.081" y1="98.607" x2="747.578" y2="98.607"/>
	
		<polygon display="inline" fill="#CCCCCC" stroke="#999999" stroke-width="6" stroke-linecap="round" stroke-linejoin="round" stroke-miterlimit="10" points="
		747.267,96.183 747.267,92.631 741.957,92.674 741.957,96.577 747.267,96.577 	"/>
	
		<polygon display="inline" fill="#FFFFFF" stroke="#CCCCCC" stroke-width="6" stroke-linecap="round" stroke-miterlimit="10" points="
		743.53,92.361 745.628,92.361 745.584,72.994 743.735,72.994 	"/>
	
		<polygon display="inline" fill="#CCCCCC" stroke="#CCCCCC" stroke-width="6" stroke-linecap="round" stroke-linejoin="round" stroke-miterlimit="10" points="
		743.53,73.932 743.53,73.932 745.662,73.932 746.458,72.994 742.809,72.994 	"/>
	
		<polyline display="inline" fill="#CCCCCC" stroke="#999999" stroke-width="6" stroke-linecap="round" stroke-linejoin="round" stroke-miterlimit="10" points="
		743.364,97.046 743.364,92.578 750.548,92.529 750.548,96.577 	"/>
	
		<line display="inline" fill="none" stroke="#999999" stroke-width="6" stroke-linecap="round" stroke-linejoin="round" stroke-miterlimit="10" x1="743.52" y1="97.046" x2="750.548" y2="97.046"/>
	
		<polyline display="inline" fill="#FFFFFF" stroke="#CCCCCC" stroke-width="6" stroke-linecap="round" stroke-miterlimit="10" points="
		745.812,70.652 745.535,91.893 748.357,91.893 748.298,70.652 	"/>
	
		<polyline display="inline" fill="#CCCCCC" stroke="#CCCCCC" stroke-width="6" stroke-linecap="round" stroke-linejoin="round" stroke-miterlimit="10" points="
		744.568,70.34 745.535,71.589 745.535,71.589 748.403,71.589 749.473,70.34 	"/>
	
		<polygon display="inline" fill="#CCCCCC" stroke="#999999" stroke-width="6" stroke-linecap="round" stroke-linejoin="round" stroke-miterlimit="10" points="
		745.55,97.671 745.55,92.095 753.515,92.036 753.515,97.671 	"/>
	
		<polyline display="inline" fill="#FFFFFF" stroke="#CCCCCC" stroke-width="6" stroke-linecap="round" stroke-miterlimit="10" points="
		748.254,67.685 747.944,91.424 751.125,91.424 751.058,67.685 	"/>
	
		<polygon display="inline" fill="#999999" stroke="#999999" stroke-width="6" stroke-linecap="round" stroke-linejoin="round" stroke-miterlimit="10" points="
		723.373,97.671 723.373,89.705 741.02,89.705 741.02,97.351 741.02,97.671 	"/>
	
		<line display="inline" fill="none" stroke="#666666" stroke-width="6" stroke-linecap="round" stroke-linejoin="round" stroke-miterlimit="10" x1="723.373" y1="91.893" x2="736.18" y2="91.893"/>
	
		<line display="inline" fill="none" stroke="#666666" stroke-width="6" stroke-linecap="round" stroke-linejoin="round" stroke-miterlimit="10" x1="741.02" y1="93.454" x2="733.368" y2="93.454"/>
	
		<line display="inline" fill="none" stroke="#666666" stroke-width="6" stroke-linecap="round" stroke-linejoin="round" stroke-miterlimit="10" x1="741.02" y1="95.172" x2="733.368" y2="95.172"/>
	
		<line display="inline" fill="none" stroke="#666666" stroke-width="6" stroke-linecap="round" stroke-linejoin="round" stroke-miterlimit="10" x1="741.02" y1="96.577" x2="733.368" y2="96.577"/>
	
		<line display="inline" fill="none" stroke="#666666" stroke-width="6" stroke-linecap="round" stroke-linejoin="round" stroke-miterlimit="10" x1="725.56" y1="89.237" x2="727.745" y2="89.237"/>
	
		<line display="inline" fill="none" stroke="#666666" stroke-width="6" stroke-linecap="round" stroke-linejoin="round" stroke-miterlimit="10" x1="729.776" y1="89.237" x2="731.962" y2="89.237"/>
	
		<line display="inline" fill="none" stroke="#666666" stroke-width="12" stroke-linecap="round" stroke-linejoin="round" stroke-miterlimit="10" x1="726.809" y1="97.671" x2="726.809" y2="86.427"/>
	
		<line display="inline" fill="none" stroke="#666666" stroke-width="12" stroke-linecap="round" stroke-linejoin="round" stroke-miterlimit="10" x1="731.025" y1="97.671" x2="731.025" y2="86.427"/>
	
		<linearGradient id="SVGID_11_" gradientUnits="userSpaceOnUse" x1="673.2405" y1="-15.2075" x2="675.1057" y2="-15.2075" gradientTransform="matrix(1 0 0 -1 58.98 183.5195)">
		<stop  offset="0.0918" style="stop-color:#996633"/>
		<stop  offset="1" style="stop-color:#544A00"/>
	</linearGradient>
	<polygon display="inline" fill="url(#SVGID_11_)" points="732.74,196.079 733.691,196.079 734.086,201.36 732.221,201.375 	"/>
	<polygon display="inline" fill="#006633" points="733.466,190.583 737.469,197.136 736.115,196.685 735.934,197.875 
		734.943,196.906 734.28,198.725 733.52,197.315 732.509,198.686 731.978,196.983 730.906,197.874 730.906,196.706 729.221,197.054 
			"/>
	<polygon display="inline" fill="#336633" points="733.444,188.815 736.929,194.52 735.75,194.127 735.592,195.163 734.73,194.321 
		734.154,195.903 733.491,194.677 732.613,195.869 732.123,194.388 731.164,195.163 731.164,194.146 729.724,194.448 	"/>
	<polyline display="inline" fill="#006633" points="733.406,188.124 735.582,191.686 734.845,191.441 734.747,192.09 
		734.207,191.563 733.848,192.551 733.434,191.784 732.886,192.528 732.559,191.604 731.941,192.088 731.941,191.452 
		731.062,191.642 733.406,188.124 	"/>
	
		<linearGradient id="SVGID_12_" gradientUnits="userSpaceOnUse" x1="610.1194" y1="74.0439" x2="611.9827" y2="74.0439" gradientTransform="matrix(1 0 0 -1 58.98 183.5195)">
		<stop  offset="0.0918" style="stop-color:#996633"/>
		<stop  offset="1" style="stop-color:#544A00"/>
	</linearGradient>
	<polygon display="inline" fill="url(#SVGID_12_)" points="669.616,106.827 670.568,106.827 670.962,112.109 669.099,112.124 	"/>
	<polygon display="inline" fill="#006633" points="670.342,101.332 674.345,107.884 672.991,107.433 672.811,108.624 
		671.819,107.654 671.157,109.474 670.396,108.063 669.387,109.434 668.855,107.73 667.782,108.622 667.782,107.454 
		666.098,107.803 	"/>
	<polygon display="inline" fill="#336633" points="670.321,99.563 673.806,105.268 672.627,104.876 672.47,105.912 671.608,105.068 
		671.031,106.652 670.368,105.425 669.49,106.616 669,105.135 668.04,105.911 668.04,104.895 666.601,105.198 	"/>
	<polyline display="inline" fill="#006633" points="670.282,98.872 672.458,102.435 671.722,102.189 671.624,102.837 
		671.085,102.31 670.726,103.299 670.311,102.532 669.763,103.276 669.437,102.352 668.817,102.836 668.817,102.2 667.938,102.39 
		670.282,98.872 	"/>
	
		<linearGradient id="SVGID_13_" gradientUnits="userSpaceOnUse" x1="714.8928" y1="38.085" x2="716.7561" y2="38.085" gradientTransform="matrix(1 0 0 -1 58.98 183.5195)">
		<stop  offset="0.0918" style="stop-color:#996633"/>
		<stop  offset="1" style="stop-color:#544A00"/>
	</linearGradient>
	<polygon display="inline" fill="url(#SVGID_13_)" points="774.391,142.786 775.341,142.786 775.736,148.068 773.873,148.083 	"/>
	<polygon display="inline" fill="#006633" points="775.116,137.292 779.118,143.843 777.766,143.392 777.583,144.583 
		776.592,143.613 775.931,145.433 775.17,144.023 774.161,145.394 773.629,143.69 772.555,144.583 772.555,143.414 770.872,143.763 
			"/>
	<polygon display="inline" fill="#336633" points="775.094,135.523 778.579,141.227 777.402,140.836 777.242,141.871 
		776.38,141.027 775.804,142.611 775.143,141.384 774.264,142.576 773.773,141.095 772.814,141.871 772.814,140.854 
		771.374,141.156 	"/>
	<polyline display="inline" fill="#006633" points="775.057,134.832 777.232,138.395 776.496,138.148 776.397,138.797 
		775.86,138.269 775.499,139.258 775.085,138.493 774.537,139.236 774.21,138.312 773.59,138.796 773.59,138.161 772.711,138.349 
		775.057,134.832 	"/>
	
		<linearGradient id="SVGID_14_" gradientUnits="userSpaceOnUse" x1="682.8792" y1="-14.3774" x2="685.4592" y2="-14.3774" gradientTransform="matrix(1 0 0 -1 58.98 183.5195)">
		<stop  offset="0.0918" style="stop-color:#996633"/>
		<stop  offset="0.551" style="stop-color:#7F5C00"/>
		<stop  offset="0.9847" style="stop-color:#544A00"/>
	</linearGradient>
	<polygon display="inline" fill="url(#SVGID_14_)" points="742.576,194.268 743.894,194.268 744.44,201.434 741.86,201.526 	"/>
	
		<linearGradient id="SVGID_15_" gradientUnits="userSpaceOnUse" x1="684.2268" y1="-2.8931" x2="684.2268" y2="-14.1675" gradientTransform="matrix(1 0 0 -1 58.98 183.5195)">
		<stop  offset="0.0714" style="stop-color:#008400"/>
		<stop  offset="0.9847" style="stop-color:#006837"/>
	</linearGradient>
	<polygon display="inline" fill="url(#SVGID_15_)" points="743.331,186.412 748.873,195.483 747,194.859 746.748,196.509 
		745.374,195.166 744.46,197.687 743.406,195.733 742.009,197.629 741.36,195.272 739.958,196.507 739.958,194.889 737.542,195.371 
			"/>
	
		<linearGradient id="SVGID_16_" gradientUnits="userSpaceOnUse" x1="684.2424" y1="-0.4458" x2="684.2424" y2="-10.2603" gradientTransform="matrix(1 0 0 -1 58.98 183.5195)">
		<stop  offset="0.0714" style="stop-color:#008400"/>
		<stop  offset="0.9847" style="stop-color:#006837"/>
	</linearGradient>
	<polygon display="inline" fill="url(#SVGID_16_)" points="743.302,183.965 748.127,191.861 746.496,191.319 746.278,192.755 
		745.081,191.585 744.284,193.779 743.368,192.078 742.152,193.729 741.639,191.678 740.477,192.752 740.477,191.344 
		738.318,191.765 	"/>
	
		<linearGradient id="SVGID_17_" gradientUnits="userSpaceOnUse" x1="684.1594" y1="0.5132" x2="684.1594" y2="-5.6177" gradientTransform="matrix(1 0 0 -1 58.98 183.5195)">
		<stop  offset="0.0714" style="stop-color:#008400"/>
		<stop  offset="0.9847" style="stop-color:#006837"/>
	</linearGradient>
	<polyline display="inline" fill="url(#SVGID_17_)" points="743.248,183.006 746.26,187.938 745.242,187.6 745.106,188.495 
		744.361,187.766 743.862,189.137 743.288,188.075 742.529,189.105 742.094,187.824 741.252,188.495 741.252,187.615 
		740.02,187.878 743.248,183.006 	"/>
	
		<linearGradient id="SVGID_18_" gradientUnits="userSpaceOnUse" x1="629.4534" y1="34.8057" x2="630.717" y2="34.8057" gradientTransform="matrix(1 0 0 -1 58.98 183.5195)">
		<stop  offset="0.0918" style="stop-color:#996633"/>
		<stop  offset="0.551" style="stop-color:#7F5C00"/>
		<stop  offset="0.9847" style="stop-color:#544A00"/>
	</linearGradient>
	<polygon display="inline" fill="url(#SVGID_18_)" points="688.783,146.926 689.429,146.926 689.697,150.475 688.434,150.502 	"/>
	
		<linearGradient id="SVGID_19_" gradientUnits="userSpaceOnUse" x1="630.0979" y1="40.356" x2="630.0979" y2="34.8354" gradientTransform="matrix(1 0 0 -1 58.98 183.5195)">
		<stop  offset="0.0714" style="stop-color:#008400"/>
		<stop  offset="0.9847" style="stop-color:#006837"/>
	</linearGradient>
	<polygon display="inline" fill="url(#SVGID_19_)" points="689.154,143.163 691.867,147.604 690.95,147.3 690.827,148.107 
		690.155,147.449 689.706,148.684 689.191,147.727 688.506,148.655 688.157,147.501 687.444,148.104 687.444,147.314 
		686.289,147.551 	"/>
	
		<linearGradient id="SVGID_20_" gradientUnits="userSpaceOnUse" x1="630.1057" y1="41.5542" x2="630.1057" y2="36.7495" gradientTransform="matrix(1 0 0 -1 58.98 183.5195)">
		<stop  offset="0.0714" style="stop-color:#008400"/>
		<stop  offset="0.9847" style="stop-color:#006837"/>
	</linearGradient>
	<polygon display="inline" fill="url(#SVGID_20_)" points="689.14,141.965 691.501,145.83 690.702,145.566 690.596,146.269 
		690.011,145.695 689.62,146.77 689.171,145.938 688.575,146.745 688.298,145.741 687.701,146.267 687.701,145.578 686.671,145.783 
			"/>
	
		<linearGradient id="SVGID_21_" gradientUnits="userSpaceOnUse" x1="630.0999" y1="42.0239" x2="630.0999" y2="39.022" gradientTransform="matrix(1 0 0 -1 58.98 183.5195)">
		<stop  offset="0.0714" style="stop-color:#008400"/>
		<stop  offset="0.9847" style="stop-color:#006837"/>
	</linearGradient>
	<polyline display="inline" fill="url(#SVGID_21_)" points="689.114,141.495 690.588,143.909 690.089,143.744 690.022,144.183 
		689.656,143.826 689.413,144.497 689.133,143.977 688.761,144.481 688.59,143.855 688.219,144.183 688.219,143.753 687.573,143.88 
		689.114,141.495 	"/>
	
		<linearGradient id="SVGID_22_" gradientUnits="userSpaceOnUse" x1="633.3342" y1="39.4629" x2="634.5959" y2="39.4629" gradientTransform="matrix(1 0 0 -1 58.98 183.5195)">
		<stop  offset="0.0918" style="stop-color:#996633"/>
		<stop  offset="0.551" style="stop-color:#7F5C00"/>
		<stop  offset="0.9847" style="stop-color:#544A00"/>
	</linearGradient>
	<polygon display="inline" fill="url(#SVGID_22_)" points="692.664,142.269 693.31,142.269 693.576,145.82 692.314,145.845 	"/>
	
		<linearGradient id="SVGID_23_" gradientUnits="userSpaceOnUse" x1="633.9788" y1="45.0122" x2="633.9788" y2="39.4927" gradientTransform="matrix(1 0 0 -1 58.98 183.5195)">
		<stop  offset="0.0714" style="stop-color:#008400"/>
		<stop  offset="0.9847" style="stop-color:#006837"/>
	</linearGradient>
	<polygon display="inline" fill="url(#SVGID_23_)" points="693.034,138.507 695.748,142.947 694.83,142.643 694.707,143.45 
		694.035,142.794 693.586,144.026 693.071,143.069 692.387,143.999 692.038,142.845 691.323,143.448 691.323,142.657 
		690.169,142.894 	"/>
	
		<linearGradient id="SVGID_24_" gradientUnits="userSpaceOnUse" x1="633.9866" y1="46.2114" x2="633.9866" y2="41.4067" gradientTransform="matrix(1 0 0 -1 58.98 183.5195)">
		<stop  offset="0.0714" style="stop-color:#008400"/>
		<stop  offset="0.9847" style="stop-color:#006837"/>
	</linearGradient>
	<polygon display="inline" fill="url(#SVGID_24_)" points="693.02,137.308 695.382,141.174 694.583,140.909 694.477,141.612 
		693.892,141.039 693.501,142.112 693.052,141.28 692.456,142.09 692.178,141.085 691.582,141.611 691.582,140.922 690.552,141.127 
			"/>
	
		<linearGradient id="SVGID_25_" gradientUnits="userSpaceOnUse" x1="633.9807" y1="46.6802" x2="633.9807" y2="43.6792" gradientTransform="matrix(1 0 0 -1 58.98 183.5195)">
		<stop  offset="0.0714" style="stop-color:#008400"/>
		<stop  offset="0.9847" style="stop-color:#006837"/>
	</linearGradient>
	<polyline display="inline" fill="url(#SVGID_25_)" points="692.994,136.839 694.469,139.255 693.97,139.087 693.903,139.526 
		693.538,139.169 693.294,139.84 693.013,139.32 692.642,139.825 692.47,139.198 692.1,139.525 692.1,139.096 691.454,139.223 
		692.994,136.839 	"/>
	
		<linearGradient id="SVGID_26_" gradientUnits="userSpaceOnUse" x1="699.0432" y1="44.896" x2="700.3069" y2="44.896" gradientTransform="matrix(1 0 0 -1 58.98 183.5195)">
		<stop  offset="0.0918" style="stop-color:#996633"/>
		<stop  offset="0.551" style="stop-color:#7F5C00"/>
		<stop  offset="0.9847" style="stop-color:#544A00"/>
	</linearGradient>
	<polygon display="inline" fill="url(#SVGID_26_)" points="758.375,136.836 759.02,136.836 759.287,140.387 758.024,140.411 	"/>
	
		<linearGradient id="SVGID_27_" gradientUnits="userSpaceOnUse" x1="699.6887" y1="50.4448" x2="699.6887" y2="44.9263" gradientTransform="matrix(1 0 0 -1 58.98 183.5195)">
		<stop  offset="0.0714" style="stop-color:#008400"/>
		<stop  offset="0.9847" style="stop-color:#006837"/>
	</linearGradient>
	<polygon display="inline" fill="url(#SVGID_27_)" points="758.745,133.074 761.458,137.516 760.54,137.209 760.417,138.017 
		759.744,137.36 759.297,138.593 758.781,137.637 758.096,138.566 757.749,137.412 757.034,138.016 757.034,137.224 755.88,137.461 
			"/>
	
		<linearGradient id="SVGID_28_" gradientUnits="userSpaceOnUse" x1="699.6965" y1="51.6431" x2="699.6965" y2="46.8384" gradientTransform="matrix(1 0 0 -1 58.98 183.5195)">
		<stop  offset="0.0714" style="stop-color:#008400"/>
		<stop  offset="0.9847" style="stop-color:#006837"/>
	</linearGradient>
	<polygon display="inline" fill="url(#SVGID_28_)" points="758.731,131.876 761.092,135.741 760.292,135.477 760.187,136.179 
		759.601,135.606 759.211,136.681 758.762,135.849 758.166,136.656 757.889,135.652 757.293,136.179 757.293,135.488 
		756.262,135.693 	"/>
	
		<linearGradient id="SVGID_29_" gradientUnits="userSpaceOnUse" x1="699.6897" y1="52.1128" x2="699.6897" y2="49.1118" gradientTransform="matrix(1 0 0 -1 58.98 183.5195)">
		<stop  offset="0.0714" style="stop-color:#008400"/>
		<stop  offset="0.9847" style="stop-color:#006837"/>
	</linearGradient>
	<polyline display="inline" fill="url(#SVGID_29_)" points="758.703,131.406 760.178,133.821 759.68,133.655 759.615,134.095 
		759.248,133.737 759.004,134.407 758.723,133.887 758.352,134.393 758.181,133.765 757.811,134.095 757.811,133.663 
		757.163,133.792 758.703,131.406 	"/>
	
		<linearGradient id="SVGID_30_" gradientUnits="userSpaceOnUse" x1="589.7131" y1="-14.6963" x2="592.6917" y2="-14.6963" gradientTransform="matrix(1 0 0 -1 58.98 183.5195)">
		<stop  offset="0.0918" style="stop-color:#996633"/>
		<stop  offset="0.551" style="stop-color:#7F5C00"/>
		<stop  offset="0.9847" style="stop-color:#544A00"/>
	</linearGradient>
	<polyline display="inline" fill="url(#SVGID_30_)" points="650.902,195.044 651.672,201.367 648.694,201.388 	"/>
	
		<linearGradient id="SVGID_31_" gradientUnits="userSpaceOnUse" x1="593.7678" y1="-5.2192" x2="593.7678" y2="-14.2876" gradientTransform="matrix(1 0 0 -1 58.98 183.5195)">
		<stop  offset="0.1224" style="stop-color:#339933"/>
		<stop  offset="1" style="stop-color:#006837"/>
	</linearGradient>
	<polyline display="inline" fill="url(#SVGID_31_)" points="649.9,188.738 655.597,196.035 653.671,195.534 653.413,196.861 
		652.001,195.781 651.059,197.807 	"/>
	
		<linearGradient id="SVGID_32_" gradientUnits="userSpaceOnUse" x1="593.4202" y1="-3.2495" x2="593.4202" y2="-11.145" gradientTransform="matrix(1 0 0 -1 58.98 183.5195)">
		<stop  offset="0.1224" style="stop-color:#339933"/>
		<stop  offset="1" style="stop-color:#006837"/>
	</linearGradient>
	<polyline display="inline" fill="url(#SVGID_32_)" points="649.921,186.769 654.881,193.123 653.203,192.685 652.979,193.841 
		651.75,192.899 650.93,194.664 	"/>
	
		<linearGradient id="SVGID_33_" gradientUnits="userSpaceOnUse" x1="592.4338" y1="-2.479" x2="592.4338" y2="-6.896" gradientTransform="matrix(1 0 0 -1 58.98 183.5195)">
		<stop  offset="0.1224" style="stop-color:#339933"/>
		<stop  offset="1" style="stop-color:#006837"/>
	</linearGradient>
	<polyline display="inline" fill="url(#SVGID_33_)" points="649.865,185.998 652.963,189.966 651.915,189.693 651.775,190.415 
		651.007,189.828 	"/>
	
		<linearGradient id="SVGID_34_" gradientUnits="userSpaceOnUse" x1="639.1018" y1="43.3501" x2="640.7854" y2="43.3501" gradientTransform="matrix(1 0 0 -1 58.98 183.5195)">
		<stop  offset="0.0918" style="stop-color:#996633"/>
		<stop  offset="0.551" style="stop-color:#7F5C00"/>
		<stop  offset="0.9847" style="stop-color:#544A00"/>
	</linearGradient>
	<polygon display="inline" fill="url(#SVGID_34_)" points="698.278,138.388 699.33,138.388 699.766,141.917 698.082,141.951 	"/>
	
		<linearGradient id="SVGID_35_" gradientUnits="userSpaceOnUse" x1="639.6995" y1="48.7778" x2="639.6995" y2="43.6548" gradientTransform="matrix(1 0 0 -1 58.98 183.5195)">
		<stop  offset="0.1224" style="stop-color:#339933"/>
		<stop  offset="1" style="stop-color:#006837"/>
	</linearGradient>
	<polygon display="inline" fill="url(#SVGID_35_)" points="698.764,134.741 701.983,138.864 700.895,138.581 700.748,139.33 
		699.951,138.72 699.419,139.864 698.807,138.977 697.995,139.84 697.593,138.768 696.757,139.328 696.757,138.593 695.377,138.813 
			"/>
	
		<linearGradient id="SVGID_36_" gradientUnits="userSpaceOnUse" x1="639.719" y1="49.8901" x2="639.719" y2="45.4312" gradientTransform="matrix(1 0 0 -1 58.98 183.5195)">
		<stop  offset="0.1224" style="stop-color:#339933"/>
		<stop  offset="1" style="stop-color:#006837"/>
	</linearGradient>
	<polygon display="inline" fill="url(#SVGID_36_)" points="698.776,133.629 701.578,137.218 700.631,136.97 700.504,137.623 
		699.81,137.092 699.346,138.088 698.814,137.316 698.107,138.065 697.75,137.135 697.016,137.622 697.016,136.982 695.82,137.173 	
		"/>
	
		<linearGradient id="SVGID_37_" gradientUnits="userSpaceOnUse" x1="639.6877" y1="50.3267" x2="639.6877" y2="47.5405" gradientTransform="matrix(1 0 0 -1 58.98 183.5195)">
		<stop  offset="0.1224" style="stop-color:#339933"/>
		<stop  offset="1" style="stop-color:#006837"/>
	</linearGradient>
	<polygon display="inline" fill="url(#SVGID_37_)" points="698.744,133.192 700.494,135.435 699.904,135.281 699.823,135.688 
		699.39,135.356 699.101,135.979 698.768,135.497 698.326,135.964 698.048,135.384 697.532,135.688 697.532,135.288 
		696.843,135.406 	"/>
</g>
</svg>
