<?xml version="1.0" encoding="utf-8"?>
<!-- Generator: Adobe Illustrator 16.0.0, SVG Export Plug-In . SVG Version: 6.00 Build 0)  -->
<!DOCTYPE svg PUBLIC "-//W3C//DTD SVG 1.1//EN" "http://www.w3.org/Graphics/SVG/1.1/DTD/svg11.dtd">
<svg version="1.1" xmlns="http://www.w3.org/2000/svg" xmlns:xlink="http://www.w3.org/1999/xlink" x="0px" y="0px"
	 width="1250.567px" height="199.887px" viewBox="0 0 1250.567 199.887" enable-background="new 0 0 1250.567 199.887"
	 xml:space="preserve">
<g id="Layer_1">
	<g>
		
			<line fill="none" stroke="#999999" stroke-width="6" stroke-linecap="round" stroke-linejoin="round" stroke-miterlimit="10" x1="390.567" y1="16.887" x2="462.567" y2="16.887"/>
		
			<polygon fill="none" stroke="#999999" stroke-width="6" stroke-linecap="round" stroke-linejoin="round" stroke-miterlimit="10" points="
			449.582,87.887 467.567,42.013 467.567,16.887 386.567,16.887 386.567,42.013 403.566,87.887 		"/>
		
			<polyline fill="none" stroke="#999999" stroke-width="6" stroke-linecap="round" stroke-linejoin="round" stroke-miterlimit="10" points="
			453.567,25.887 399.731,25.887 395.73,25.887 458.567,25.887 458.567,52.516 427.067,82.881 395.567,52.516 395.567,25.887 		"/>
		
			<polygon fill="none" stroke="#999999" stroke-width="6" stroke-linecap="round" stroke-linejoin="round" stroke-miterlimit="10" points="
			467.567,3 467.567,16.887 458.251,16.887 		"/>
		
			<polygon fill="none" stroke="#999999" stroke-width="6" stroke-linecap="round" stroke-linejoin="round" stroke-miterlimit="10" points="
			386.567,16.887 386.567,3 395.73,16.887 		"/>
		
			<polyline fill="none" stroke="#999999" stroke-width="6" stroke-linecap="round" stroke-linejoin="round" stroke-miterlimit="10" points="
			395.567,41.887 395.567,52.516 368.805,52.203 386.728,41.887 395.567,41.887 		"/>
		
			<polyline fill="none" stroke="#999999" stroke-width="6" stroke-linecap="round" stroke-linejoin="round" stroke-miterlimit="10" points="
			484.567,52.887 458.251,52.887 467.754,42.198 458.251,52.8 466.587,16.887 458.251,16.887 457.821,50.393 		"/>
		
			<polygon fill="none" stroke="#999999" stroke-width="6" stroke-linecap="round" stroke-linejoin="round" stroke-miterlimit="10" points="
			386.728,16.887 395.567,16.887 395.567,49.516 		"/>
		
			<polygon fill="none" stroke="#999999" stroke-width="6" stroke-linecap="round" stroke-linejoin="round" stroke-miterlimit="10" points="
			426.907,82.74 422.573,87.887 430.742,87.887 		"/>
		
			<polygon fill="none" stroke="#999999" stroke-width="6" stroke-linecap="round" stroke-linejoin="round" stroke-miterlimit="10" points="
			403.525,87.809 403.324,89.504 391.229,196.887 462.752,196.887 462.537,195.191 449.582,87.983 435.577,87.938 		"/>
		
			<polyline fill="none" stroke="#999999" stroke-width="6" stroke-linecap="round" stroke-linejoin="round" stroke-miterlimit="10" points="
			435.738,195.641 435.656,87.917 417.567,87.809 417.567,196.887 435.567,196.887 		"/>
	</g>
	
		<line fill="none" stroke="#999999" stroke-width="6" stroke-linecap="round" stroke-linejoin="round" stroke-miterlimit="10" x1="387.442" y1="43.967" x2="395.73" y2="52.516"/>
	<path fill="none" stroke="#999999" stroke-width="6" stroke-linecap="round" stroke-linejoin="round" stroke-miterlimit="10" d="
		M484.76,52.516"/>
	
		<line fill="none" stroke="#999999" stroke-width="6" stroke-linecap="round" stroke-linejoin="round" stroke-miterlimit="10" x1="467.754" y1="42.013" x2="484.76" y2="52.516"/>
	
		<polygon fill="none" stroke="#999999" stroke-width="6" stroke-linecap="round" stroke-linejoin="round" stroke-miterlimit="10" points="
		476.257,70.887 439.745,70.887 449.199,61.674 	"/>
	
		<polyline fill="none" stroke="#999999" stroke-width="6" stroke-linecap="round" stroke-linejoin="round" stroke-miterlimit="10" points="
		404.197,61.674 377.225,70.887 413.567,70.887 	"/>
	
		<polyline fill="none" stroke="#999999" stroke-width="3" stroke-linecap="round" stroke-linejoin="round" stroke-miterlimit="10" points="
		395.73,16.504 404.233,25.508 413.736,16.504 422.573,25.508 431.576,16.504 440.411,25.508 449.582,16.504 458.251,25.508 	"/>
	
		<polyline fill="none" stroke="#999999" stroke-width="3" stroke-linecap="round" stroke-linejoin="round" stroke-miterlimit="10" points="
		395.73,25.508 404.188,17.338 413.641,25.508 422.43,17.338 431.385,25.508 440.173,17.338 449.294,25.508 457.917,17.338 	"/>
	
		<polyline fill="none" stroke="#999999" stroke-width="3" stroke-linecap="round" stroke-linejoin="round" stroke-miterlimit="10" points="
		391.97,10.988 386.665,16.473 395.449,21.406 387.427,25.124 395.723,29.63 386.724,34.508 395.148,38.636 386.067,42.013 
		386.067,51.516 381.008,45.182 377.122,52.266 	"/>
	
		<polyline fill="none" stroke="#999999" stroke-width="3" stroke-linecap="round" stroke-linejoin="round" stroke-miterlimit="10" points="
		462.419,9.988 468.251,15.639 458.593,20.723 467.413,24.553 458.292,29.194 468.187,34.221 458.504,38.473 468.067,41.952 
		468.067,51.742 474.05,45.217 478.533,52.516 	"/>
	
		<polyline fill="none" stroke="#999999" stroke-width="3" stroke-linecap="round" stroke-linejoin="round" stroke-miterlimit="10" points="
		395.926,52.406 393.65,60.607 404.33,61.281 398.006,70.508 413.749,69.94 400.447,79.387 423.739,79.387 403.289,87.387 
		422.739,87.387 423.739,79.777 	"/>
	
		<polyline fill="none" stroke="#999999" stroke-width="3" stroke-linecap="round" stroke-linejoin="round" stroke-miterlimit="10" points="
		457.774,52.656 460.126,60.976 449.09,61.658 455.626,71.018 439.358,70.124 453.102,79.387 429.034,79.387 450.166,88.387 
		430.068,88.387 429.034,80.544 	"/>
	
		<polyline fill="none" stroke="#999999" stroke-width="3" stroke-linecap="round" stroke-linejoin="round" stroke-miterlimit="10" points="
		403.566,88.027 417.237,97.531 401.369,106.965 417.237,115.787 399.454,123.98 417.237,133.543 397.377,142.436 417.237,151.549 
		395.73,160.551 417.237,169.055 393.313,178.539 417.237,188.061 391.229,197.063 	"/>
	
		<polyline fill="none" stroke="#999999" stroke-width="3" stroke-linecap="round" stroke-linejoin="round" stroke-miterlimit="10" points="
		448.612,88.027 435.576,97.531 450.708,106.965 435.576,115.787 452.532,123.98 435.576,133.543 454.514,142.436 435.576,151.549 
		456.084,160.551 435.576,169.055 458.389,178.539 435.576,188.061 460.376,197.063 	"/>
	
		<polyline fill="none" stroke="#999999" stroke-width="3" stroke-linecap="round" stroke-linejoin="round" stroke-miterlimit="10" points="
		416.737,88.277 435.076,97.531 416.737,106.533 435.076,115.787 416.737,124.039 435.076,133.543 416.737,142.436 435.076,150.298 
		416.737,160.301 435.076,169.055 416.737,178.807 435.076,188.061 416.737,197.063 	"/>
	
		<polyline fill="none" stroke="#999999" stroke-width="3" stroke-linecap="round" stroke-linejoin="round" stroke-miterlimit="10" points="
		435.576,88.277 416.487,97.531 435.576,106.533 416.487,115.787 435.576,124.039 416.487,133.543 435.576,142.436 416.487,150.298 
		435.576,160.301 416.487,169.055 435.576,178.807 416.487,188.061 435.576,197.063 	"/>
	
		<polyline fill="none" stroke="#999999" stroke-width="3" stroke-linecap="round" stroke-linejoin="round" stroke-miterlimit="10" points="
		395.067,53.887 395.067,64.02 404.075,61.309 400.344,79.275 417.186,73.406 403.263,87.277 426.895,82.881 448.605,88.027 
		435.823,74.298 451.545,78.705 444.579,65.795 458.292,64.404 456.317,54.129 	"/>
	
		<polyline fill="none" stroke="#999999" stroke-width="3" stroke-linecap="round" stroke-linejoin="round" stroke-miterlimit="10" points="
		435.626,88.205 450.721,97.221 435.589,106.516 452.879,115.263 435.829,133.396 456.085,160.265 435.826,187.387 461.752,187.387 
		436.744,196.852 	"/>
	
		<polyline fill="none" stroke="#999999" stroke-width="3" stroke-linecap="round" stroke-linejoin="round" stroke-miterlimit="10" points="
		417.239,87.809 402.541,96.898 417.275,106.271 400.44,115.09 417.042,133.374 397.317,160.251 417.044,187.387 391.799,187.387 
		416.151,197.142 	"/>
	
		<polyline fill="none" stroke="#999999" stroke-width="3" stroke-linecap="round" stroke-linejoin="round" stroke-miterlimit="10" points="
		400.44,115.09 452.879,115.263 397.377,142.436 456.182,142.67 	"/>
	
		<line fill="none" stroke="#999999" stroke-width="3" stroke-linecap="round" stroke-linejoin="round" stroke-miterlimit="10" x1="386.567" y1="7.387" x2="381.567" y2="7.387"/>
	
		<polyline fill="none" stroke="#999999" stroke-width="3" stroke-linecap="round" stroke-linejoin="round" stroke-miterlimit="10" points="
		369.067,52.887 369.067,58.387 367.221,58.387 370.567,58.387 	"/>
	
		<polyline fill="none" stroke="#999999" stroke-width="3" stroke-linecap="round" stroke-linejoin="round" stroke-miterlimit="10" points="
		377.067,70.887 377.067,76.387 375.224,76.387 378.567,76.387 	"/>
	
		<polyline fill="none" stroke="#999999" stroke-width="3" stroke-linecap="round" stroke-linejoin="round" stroke-miterlimit="10" points="
		485.067,52.887 485.067,58.387 483.259,58.387 486.567,58.387 	"/>
	
		<polyline fill="none" stroke="#999999" stroke-width="3" stroke-linecap="round" stroke-linejoin="round" stroke-miterlimit="10" points="
		476.067,70.887 476.067,76.387 474.756,76.387 478.567,76.387 	"/>
	
		<line fill="none" stroke="#999999" stroke-width="3" stroke-linecap="round" stroke-linejoin="round" stroke-miterlimit="10" x1="467.567" y1="7.387" x2="472.567" y2="7.387"/>
	
		<polyline fill="none" stroke="#999999" stroke-width="3" stroke-linecap="round" stroke-linejoin="round" stroke-miterlimit="10" points="
		439.067,26.887 439.067,34.387 437.244,34.387 441.567,34.387 	"/>
	
		<polyline fill="none" stroke="#999999" stroke-width="3" stroke-linecap="round" stroke-linejoin="round" stroke-miterlimit="10" points="
		414.067,26.887 414.067,34.387 411.735,34.387 415.567,34.387 	"/>
	<g>
		
			<line fill="none" stroke="#999999" stroke-width="6" stroke-linecap="round" stroke-linejoin="round" stroke-miterlimit="10" x1="725.567" y1="16.887" x2="797.567" y2="16.887"/>
		
			<polygon fill="none" stroke="#999999" stroke-width="6" stroke-linecap="round" stroke-linejoin="round" stroke-miterlimit="10" points="
			784.19,87.887 802.567,42.013 802.567,16.887 721.567,16.887 721.567,42.013 738.176,87.887 		"/>
		
			<polyline fill="none" stroke="#999999" stroke-width="6" stroke-linecap="round" stroke-linejoin="round" stroke-miterlimit="10" points="
			788.567,25.887 734.341,25.887 730.34,25.887 792.567,25.887 792.567,52.516 761.567,82.881 730.567,52.516 730.567,25.887 		"/>
		
			<polygon fill="none" stroke="#999999" stroke-width="6" stroke-linecap="round" stroke-linejoin="round" stroke-miterlimit="10" points="
			802.567,3 802.567,16.887 792.86,16.887 		"/>
		
			<polygon fill="none" stroke="#999999" stroke-width="6" stroke-linecap="round" stroke-linejoin="round" stroke-miterlimit="10" points="
			721.567,16.887 721.567,3 730.34,16.887 		"/>
		
			<polyline fill="none" stroke="#999999" stroke-width="6" stroke-linecap="round" stroke-linejoin="round" stroke-miterlimit="10" points="
			730.567,41.887 730.567,52.516 703.61,52.203 721.337,41.887 730.567,41.887 		"/>
		
			<polyline fill="none" stroke="#999999" stroke-width="6" stroke-linecap="round" stroke-linejoin="round" stroke-miterlimit="10" points="
			819.567,52.887 792.86,52.887 802.363,42.198 792.86,52.8 801.196,16.887 792.86,16.887 792.626,50.393 		"/>
		
			<polygon fill="none" stroke="#999999" stroke-width="6" stroke-linecap="round" stroke-linejoin="round" stroke-miterlimit="10" points="
			721.337,16.887 730.567,16.887 730.567,49.516 		"/>
		
			<polygon fill="none" stroke="#999999" stroke-width="6" stroke-linecap="round" stroke-linejoin="round" stroke-miterlimit="10" points="
			761.517,82.74 757.182,87.887 765.351,87.887 		"/>
		
			<polygon fill="none" stroke="#999999" stroke-width="6" stroke-linecap="round" stroke-linejoin="round" stroke-miterlimit="10" points="
			738.134,87.809 737.934,89.504 725.838,196.887 797.361,196.887 797.146,195.191 784.19,87.983 770.187,87.938 		"/>
		
			<polyline fill="none" stroke="#999999" stroke-width="6" stroke-linecap="round" stroke-linejoin="round" stroke-miterlimit="10" points="
			770.543,195.641 770.059,87.917 751.567,87.809 751.567,196.887 770.567,196.887 		"/>
	</g>
	
		<line fill="none" stroke="#999999" stroke-width="6" stroke-linecap="round" stroke-linejoin="round" stroke-miterlimit="10" x1="722.052" y1="43.967" x2="730.34" y2="52.516"/>
	<path fill="none" stroke="#999999" stroke-width="6" stroke-linecap="round" stroke-linejoin="round" stroke-miterlimit="10" d="
		M819.368,52.516"/>
	
		<line fill="none" stroke="#999999" stroke-width="6" stroke-linecap="round" stroke-linejoin="round" stroke-miterlimit="10" x1="802.363" y1="42.013" x2="819.368" y2="52.516"/>
	
		<polygon fill="none" stroke="#999999" stroke-width="6" stroke-linecap="round" stroke-linejoin="round" stroke-miterlimit="10" points="
		810.866,70.887 774.354,70.887 783.809,61.674 	"/>
	
		<polyline fill="none" stroke="#999999" stroke-width="6" stroke-linecap="round" stroke-linejoin="round" stroke-miterlimit="10" points="
		739.001,61.674 711.834,70.887 748.567,70.887 	"/>
	
		<polyline fill="none" stroke="#999999" stroke-width="3" stroke-linecap="round" stroke-linejoin="round" stroke-miterlimit="10" points="
		730.34,16.504 738.843,25.508 748.346,16.504 757.182,25.508 766.185,16.504 775.021,25.508 784.19,16.504 792.86,25.508 	"/>
	
		<polyline fill="none" stroke="#999999" stroke-width="3" stroke-linecap="round" stroke-linejoin="round" stroke-miterlimit="10" points="
		730.34,25.508 738.798,17.338 748.25,25.508 757.039,17.338 765.994,25.508 774.782,17.338 783.903,25.508 792.526,17.338 	"/>
	
		<polyline fill="none" stroke="#999999" stroke-width="3" stroke-linecap="round" stroke-linejoin="round" stroke-miterlimit="10" points="
		726.578,10.988 721.274,16.473 730.059,21.406 722.036,25.124 730.332,29.63 721.333,34.508 729.953,38.636 721.067,42.013 
		721.067,51.516 715.813,45.182 711.829,52.266 	"/>
	
		<polyline fill="none" stroke="#999999" stroke-width="3" stroke-linecap="round" stroke-linejoin="round" stroke-miterlimit="10" points="
		797.027,9.988 802.86,15.639 793.202,20.723 802.022,24.553 792.901,29.194 802.796,34.221 793.308,38.473 803.067,41.952 
		803.067,51.742 808.854,45.217 813.239,52.516 	"/>
	
		<polyline fill="none" stroke="#999999" stroke-width="3" stroke-linecap="round" stroke-linejoin="round" stroke-miterlimit="10" points="
		730.535,52.406 728.259,60.607 738.939,61.281 732.614,70.508 748.357,69.94 735.057,79.387 758.349,79.387 737.898,87.387 
		757.349,87.387 758.349,79.777 	"/>
	
		<polyline fill="none" stroke="#999999" stroke-width="3" stroke-linecap="round" stroke-linejoin="round" stroke-miterlimit="10" points="
		792.384,52.656 794.735,60.976 783.699,61.658 790.235,71.018 773.967,70.124 787.711,79.387 763.644,79.387 784.774,88.387 
		764.677,88.387 763.644,80.544 	"/>
	
		<polyline fill="none" stroke="#999999" stroke-width="3" stroke-linecap="round" stroke-linejoin="round" stroke-miterlimit="10" points="
		738.176,88.027 751.847,97.531 735.979,106.965 751.847,115.787 734.063,123.98 751.847,133.543 731.986,142.436 751.847,151.549 
		730.34,160.551 751.847,169.055 727.923,178.539 751.847,188.061 725.838,197.063 	"/>
	
		<polyline fill="none" stroke="#999999" stroke-width="3" stroke-linecap="round" stroke-linejoin="round" stroke-miterlimit="10" points="
		783.221,88.027 770.186,97.531 785.317,106.965 770.186,115.787 787.142,123.98 770.186,133.543 789.123,142.436 770.186,151.549 
		790.693,160.551 770.186,169.055 792.998,178.539 770.186,188.061 794.985,197.063 	"/>
	
		<polyline fill="none" stroke="#999999" stroke-width="3" stroke-linecap="round" stroke-linejoin="round" stroke-miterlimit="10" points="
		751.347,88.277 769.686,97.531 751.347,106.533 769.686,115.787 751.347,124.039 769.686,133.543 751.347,142.436 769.686,150.298 
		751.347,160.301 769.686,169.055 751.347,178.807 769.686,188.061 751.347,197.063 	"/>
	
		<polyline fill="none" stroke="#999999" stroke-width="3" stroke-linecap="round" stroke-linejoin="round" stroke-miterlimit="10" points="
		770.186,88.277 751.097,97.531 770.186,106.533 751.097,115.787 770.186,124.039 751.097,133.543 770.186,142.436 751.097,150.298 
		770.186,160.301 751.097,169.055 770.186,178.807 751.097,188.061 770.186,197.063 	"/>
	
		<polyline fill="none" stroke="#999999" stroke-width="3" stroke-linecap="round" stroke-linejoin="round" stroke-miterlimit="10" points="
		730.067,53.887 730.067,64.02 738.88,61.309 735.051,79.275 751.844,73.406 737.897,87.277 761.516,82.881 783.221,88.027 
		770.436,74.298 786.155,78.705 779.189,65.795 792.901,64.404 791.122,54.129 	"/>
	
		<polyline fill="none" stroke="#999999" stroke-width="3" stroke-linecap="round" stroke-linejoin="round" stroke-miterlimit="10" points="
		770.235,88.205 785.33,97.221 770.198,106.516 787.488,115.263 770.438,133.396 790.694,160.265 770.436,187.387 796.361,187.387 
		771.353,196.852 	"/>
	
		<polyline fill="none" stroke="#999999" stroke-width="3" stroke-linecap="round" stroke-linejoin="round" stroke-miterlimit="10" points="
		751.848,87.809 737.15,96.898 751.885,106.271 735.049,115.09 751.65,133.374 731.926,160.251 751.653,187.387 726.408,187.387 
		750.761,197.142 	"/>
	
		<polyline fill="none" stroke="#999999" stroke-width="3" stroke-linecap="round" stroke-linejoin="round" stroke-miterlimit="10" points="
		735.049,115.09 787.488,115.263 731.986,142.436 790.791,142.67 	"/>
	
		<line fill="none" stroke="#999999" stroke-width="3" stroke-linecap="round" stroke-linejoin="round" stroke-miterlimit="10" x1="721.567" y1="7.387" x2="716.567" y2="7.387"/>
	
		<polyline fill="none" stroke="#999999" stroke-width="3" stroke-linecap="round" stroke-linejoin="round" stroke-miterlimit="10" points="
		704.067,52.887 704.067,58.387 701.83,58.387 705.567,58.387 	"/>
	
		<polyline fill="none" stroke="#999999" stroke-width="3" stroke-linecap="round" stroke-linejoin="round" stroke-miterlimit="10" points="
		712.067,70.887 712.067,76.387 709.833,76.387 713.567,76.387 	"/>
	
		<polyline fill="none" stroke="#999999" stroke-width="3" stroke-linecap="round" stroke-linejoin="round" stroke-miterlimit="10" points="
		774.067,26.887 774.067,34.387 771.854,34.387 775.567,34.387 	"/>
	
		<polyline fill="none" stroke="#999999" stroke-width="3" stroke-linecap="round" stroke-linejoin="round" stroke-miterlimit="10" points="
		749.067,26.887 749.067,34.387 746.345,34.387 750.567,34.387 	"/>
</g>
<g id="Layer_3">
	<linearGradient id="SVGID_1_" gradientUnits="userSpaceOnUse" x1="28.5674" y1="197.3867" x2="28.5674" y2="169.3867">
		<stop  offset="0.15" style="stop-color:#FEFEFE"/>
		<stop  offset="0.355" style="stop-color:#FFFFFF"/>
		<stop  offset="0.4842" style="stop-color:#F9F9F9"/>
		<stop  offset="0.6619" style="stop-color:#E7E7E7"/>
		<stop  offset="0.855" style="stop-color:#CCCCCC"/>
	</linearGradient>
	
		<rect x="4.067" y="169.387" fill="url(#SVGID_1_)" stroke="#CCCCCC" stroke-width="3" stroke-linecap="round" stroke-linejoin="round" stroke-miterlimit="10" width="49" height="28"/>
	
		<polygon fill="#FFFFFF" stroke="#CCCCCC" stroke-width="3" stroke-linecap="round" stroke-linejoin="round" stroke-miterlimit="10" points="
		1.5,169.387 55.783,169.387 53.315,162.387 4.191,162.387 	"/>
	
		<line fill="none" stroke="#CCCCCC" stroke-width="3" stroke-linecap="round" stroke-linejoin="round" stroke-miterlimit="10" x1="28.067" y1="161.887" x2="28.067" y2="168.887"/>
	
		<line fill="none" stroke="#CCCCCC" stroke-width="3" stroke-linecap="round" stroke-linejoin="round" stroke-miterlimit="10" x1="37.296" y1="161.837" x2="44.072" y2="168.566"/>
	
		<line fill="none" stroke="#CCCCCC" stroke-width="3" stroke-linecap="round" stroke-linejoin="round" stroke-miterlimit="10" x1="18.052" y1="161.837" x2="11.276" y2="168.566"/>
	<polyline fill="#FFFFFF" stroke="#CCCCCC" stroke-linecap="round" stroke-linejoin="round" stroke-miterlimit="10" points="
		33.067,197.887 33.067,178.387 44.067,178.387 44.067,197.887 	"/>
	
		<rect x="36.067" y="182.387" fill="#0000FF" stroke="#0000FF" stroke-linecap="round" stroke-linejoin="round" stroke-miterlimit="10" width="4" height="2"/>
	
		<rect x="7.067" y="178.387" fill="#CCCCCC" stroke="#CCCCCC" stroke-linecap="round" stroke-linejoin="round" stroke-miterlimit="10" width="10" height="4"/>
	
		<rect x="8.067" y="186.387" fill="#CCCCCC" stroke="#CCCCCC" stroke-linecap="round" stroke-linejoin="round" stroke-miterlimit="10" width="9" height="4"/>
	
		<line fill="none" stroke="#666666" stroke-linecap="round" stroke-linejoin="round" stroke-miterlimit="10" x1="7.067" y1="181.887" x2="7.067" y2="177.887"/>
	
		<line fill="none" stroke="#666666" stroke-linecap="round" stroke-linejoin="round" stroke-miterlimit="10" x1="17.067" y1="177.887" x2="17.067" y2="181.887"/>
	
		<line fill="none" stroke="#666666" stroke-linecap="round" stroke-linejoin="round" stroke-miterlimit="10" x1="7.067" y1="185.887" x2="7.067" y2="189.887"/>
	
		<line fill="none" stroke="#666666" stroke-linecap="round" stroke-linejoin="round" stroke-miterlimit="10" x1="17.067" y1="185.887" x2="17.067" y2="189.887"/>
	
		<line fill="none" stroke="#666666" stroke-linecap="round" stroke-linejoin="round" stroke-miterlimit="10" x1="36.567" y1="189.387" x2="39.567" y2="189.387"/>
	
		<line fill="none" stroke="#666666" stroke-linecap="round" stroke-linejoin="round" stroke-miterlimit="10" x1="36.567" y1="190.387" x2="39.567" y2="190.387"/>
	
		<line fill="none" stroke="#666666" stroke-linecap="round" stroke-linejoin="round" stroke-miterlimit="10" x1="36.567" y1="192.387" x2="39.567" y2="192.387"/>
	
		<line fill="none" stroke="#666666" stroke-linecap="round" stroke-linejoin="round" stroke-miterlimit="10" x1="36.567" y1="191.387" x2="39.567" y2="191.387"/>
	<path fill="none" stroke="#999999" stroke-width="3" stroke-linecap="round" stroke-linejoin="round" stroke-miterlimit="10" d="
		M28.642,153.049c0,0-0.5,9.003,0,8.788"/>
	
		<line fill="none" stroke="#666666" stroke-linecap="round" stroke-linejoin="round" stroke-miterlimit="10" x1="10.567" y1="179.387" x2="13.567" y2="179.387"/>
	
		<line fill="none" stroke="#666666" stroke-linecap="round" stroke-linejoin="round" stroke-miterlimit="10" x1="10.567" y1="180.387" x2="13.567" y2="180.387"/>
	
		<line fill="none" stroke="#666666" stroke-linecap="round" stroke-linejoin="round" stroke-miterlimit="10" x1="10.567" y1="182.387" x2="13.567" y2="182.387"/>
	
		<line fill="none" stroke="#666666" stroke-linecap="round" stroke-linejoin="round" stroke-miterlimit="10" x1="10.567" y1="181.387" x2="13.567" y2="181.387"/>
	
		<line fill="none" stroke="#666666" stroke-linecap="round" stroke-linejoin="round" stroke-miterlimit="10" x1="10.567" y1="186.387" x2="13.567" y2="186.387"/>
	
		<line fill="none" stroke="#666666" stroke-linecap="round" stroke-linejoin="round" stroke-miterlimit="10" x1="10.567" y1="187.387" x2="13.567" y2="187.387"/>
	
		<line fill="none" stroke="#666666" stroke-linecap="round" stroke-linejoin="round" stroke-miterlimit="10" x1="10.567" y1="189.387" x2="13.567" y2="189.387"/>
	
		<line fill="none" stroke="#666666" stroke-linecap="round" stroke-linejoin="round" stroke-miterlimit="10" x1="10.567" y1="188.387" x2="13.567" y2="188.387"/>
</g>
<g id="Layer_4">
	<g>
		<g>
			<path fill="#999999" d="M1161.009,161.785c0.867,0.986,1.379,2.403,1.917,3.567c0.863-0.505,1.727-1.009,2.59-1.514
				c-0.793-1.398-1.46-2.856-2-4.373c-0.914,0.385-1.827,0.771-2.741,1.155c0.573,0.86,1.147,1.721,1.721,2.581
				c1.092,1.639,3.362,0.232,2.59-1.514c-0.441-0.999-0.848-2.013-1.29-3.012c-0.863,0.505-1.727,1.009-2.59,1.514
				c0.341,0.396,0.628,0.826,0.86,1.291c0.785-0.605,1.57-1.212,2.355-1.817c-0.158-0.354-0.316-0.706-0.475-1.059
				c-0.615,0.615-1.23,1.229-1.845,1.845c0.154,0.056,0.309,0.112,0.463,0.168c1.831,0.663,2.584-2.219,0.798-2.893
				c-0.519-0.205-0.984-0.498-1.396-0.877c-0.252,0.932-0.505,1.863-0.757,2.795c1.762,0.11,3.474,0.424,5.194,0.807
				c-0.367-0.482-0.734-0.964-1.102-1.446c-0.01,1.621-0.035,3.159-0.377,4.764c0.914-0.12,1.828-0.239,2.741-0.358
				c-0.749-1.371-1.111-2.84-1.085-4.405c-0.982,0.133-1.964,0.266-2.946,0.398c0.349,1.858,0.511,3.735,0.86,5.592
				c0.964-0.266,1.929-0.531,2.893-0.797c-0.42-2.01-0.871-4.013-1.291-6.021c-0.401-1.923-3.182-1.071-2.893,0.797
				c0.315,2.047,0.368,3.999,0.377,6.054c0.982-0.133,1.964-0.266,2.946-0.398c-0.868-2.087-1.287-4.243-1.721-6.452
				c-0.964,0.266-1.929,0.531-2.893,0.797c0.68,2.579,0.795,5.125,0.807,7.774c0.982-0.133,1.964-0.266,2.946-0.398
				c-0.752-2.125-1.271-4.246-1.721-6.452c-0.396-1.938-3.144-1.06-2.893,0.797c0.351,2.594,0.371,5.165,0.376,7.774
				c0.982-0.133,1.964-0.266,2.946-0.398c-0.735-3.15-1.168-6.26-1.236-9.495c-1,0-2,0-3,0c0.362,3.44,0.426,6.867,0.43,10.324
				c1,0,2,0,3,0c-0.349-3.058-0.35-5.977,0-9.034c-1,0-2,0-3,0c0.348,3.297,0.427,6.58,0.431,9.894
				c0.982-0.133,1.964-0.266,2.946-0.398c-0.715-2.72-0.796-5.413-0.807-8.205c-0.982,0.133-1.964,0.266-2.946,0.398
				c0.679,3.877,0.426,7.737,0.376,11.646c0.982-0.133,1.964-0.266,2.946-0.398c-0.802-3.995-1.117-8.154,1.14-11.749
				c-0.863,0-1.727,0-2.59,0c1.999,4.506,0.278,10.153-0.582,14.761c0.982,0.133,1.964,0.266,2.946,0.398
				c-0.042-4.131-0.218-8.135,1.237-12.076c-0.964,0-1.929,0-2.893,0c0.614,4.18,0.049,8.316-0.054,12.506
				c0.982-0.133,1.964-0.266,2.946-0.398c-0.526-3.06-0.574-6.128,0.43-9.097c-0.964,0-1.929,0-2.893,0
				c0.687,3.218,0.339,6.273-0.054,9.495c1,0,2,0,3,0c-0.407-3.876-0.763-7.683,1.086-11.288c-0.913-0.119-1.827-0.238-2.741-0.358
				c0.626,3.553-0.035,6.933-0.86,10.389c0.964,0,1.929,0,2.893,0c-0.744-3.927-0.744-7.752,0-11.679
				c-0.982-0.133-1.964-0.266-2.946-0.398c-0.051,4.166-0.335,8.315,0,12.476c0.153,1.901,3.021,1.958,3,0
				c-0.035-3.299-0.4-6.676,1.516-9.567c-0.932-0.252-1.863-0.505-2.795-0.757c0.642,5.039-0.29,10.012-0.431,15.056
				c0.982-0.133,1.964-0.266,2.946-0.398c-1.57-3.936-2.399-8.147-0.581-12.18c-0.932-0.252-1.863-0.505-2.795-0.757
				c0.698,5.307,0.081,10.591,0,15.916c0.982-0.133,1.964-0.266,2.946-0.398c-1.178-4.187-1.946-8.329-0.431-12.539
				c-0.964,0-1.929,0-2.893,0c1.111,6.321,0.046,12.714-0.86,18.992c0.964,0,1.929,0,2.893,0c-1.619-5.597-1.182-11.414,0.86-16.841
				c-0.982-0.133-1.964-0.266-2.946-0.398c-0.125,5.78-1.201,11.459-1.721,17.207c1,0,2,0,3,0
				c-0.076-5.631-0.698-11.23,0.377-16.809c-0.982-0.133-1.964-0.266-2.946-0.398c-0.136,5.333-1.155,10.584-1.291,15.917
				c1,0,2,0,3,0c-0.515-5.906-1.548-11.822-0.054-17.67c-0.982-0.133-1.964-0.266-2.946-0.398
				c-0.156,5.047-1.146,10.008-1.29,15.057c1,0,2,0,3,0c-0.08-4.666-0.684-9.276,0.807-13.797c-0.982-0.133-1.964-0.266-2.946-0.398
				c0.33,6.029-0.264,12.052,0.43,18.066c1,0,2,0,3,0c-0.405-3.39-0.739-6.623,0.377-9.926c-0.982-0.133-1.964-0.266-2.946-0.398
				c0.354,5.019,0.044,10.033,0,15.057c0.982-0.133,1.964-0.266,2.946-0.398c-1.597-4.315-1.142-8.867,0.709-13.04
				c-0.932-0.252-1.863-0.505-2.795-0.757c0.252,4.265-0.411,8.329-1.237,12.506c0.964,0,1.929,0,2.893,0
				c-1.075-3.145-1.989-6.319-0.581-9.599c-0.913-0.119-1.827-0.238-2.741-0.358c0.783,3.977,0.418,8.053,0.376,12.076
				c0.982-0.133,1.964-0.266,2.946-0.398c-1.205-4.063-1.488-8.171,1.14-11.749c-0.913-0.119-1.827-0.238-2.741-0.358
				c1.013,3.724,0.764,7.072,0,10.817c0.982,0.133,1.964,0.266,2.946,0.398c-0.383-3.204-0.749-6.008,0.655-9.137
				c-0.914-0.119-1.827-0.238-2.741-0.358c0.619,3.317,0.379,6.266-0.431,9.527c0.982,0.133,1.964,0.266,2.946,0.398
				c-0.045-2.888-0.306-5.554,1.086-8.277c-0.913-0.119-1.827-0.238-2.741-0.358c0.999,3.56,0.407,6.866-0.431,10.388
				c0.964,0,1.929,0,2.893,0c-0.869-2.732-1.518-5.896,0.475-8.436c-0.854-0.354-1.707-0.707-2.561-1.061
				c-0.011,2.792-0.092,5.485-0.807,8.205c0.914-0.12,1.827-0.239,2.741-0.358c-1.203-1.729-1.439-3.639-0.709-5.728
				c-0.982-0.133-1.964-0.266-2.946-0.398c0.226,2.183,0.102,3.778-1.085,5.696c0.863,0,1.727,0,2.59,0c0-1.503,0-3.006,0-4.509
				c-0.914-0.119-1.827-0.238-2.741-0.358c0.71,2.413,0.474,4.752-0.709,7.018c0.863,0,1.727,0,2.59,0
				c-1.846-2.597-2.525-4.952-0.86-7.949c-0.914-0.119-1.827-0.238-2.741-0.358c0.583,2.424,0.444,4.11,0,6.516
				c0.964,0,1.929,0,2.893,0c-0.578-1.87-0.435-3.612,0.43-5.226c-0.964,0-1.929,0-2.893,0c0.715,2.72,0.796,5.413,0.807,8.205
				c0.007,1.661,2.586,2.086,2.946,0.398c-0.012,0.39,0.184,0.283,0.586-0.319c1.511-0.706,1.194-1.342-0.951-1.907
				c0,1.935,3,1.935,3,0c0-1.454-0.92-2.788-1.344-4.163c-0.35,0.615-0.698,1.229-1.048,1.845c0.085-0.011,0.169-0.021,0.254-0.031
				c0.683,0.104,1.316-0.061,1.694-0.689c0.919-1.532,0.443-3.748,0.443-5.457c0-1.935-3-1.935-3,0c0,0.788,0.399,3.221-0.034,3.943
				c0.564-0.23,1.129-0.46,1.694-0.689c-0.696-0.105-1.158-0.115-1.849,0.031c-0.783,0.165-1.278,1.099-1.048,1.845
				c0.241,0.784,1.236,2.604,1.236,3.366c0,1.935,3,1.935,3,0c0-0.108,0-0.216,0-0.323c0-0.514-0.282-1.047-0.743-1.295
				c-0.01-0.006-0.02-0.011-0.029-0.017c-0.449-0.241-1.071-0.306-1.515,0c-1.042,0.72-2.956,1.733-3.24,3.064
				c0.982,0.133,1.964,0.266,2.946,0.398c-0.012-3.092-0.126-6.005-0.914-9.002c-0.41-1.563-2.372-1.288-2.893,0
				c-0.985,2.44-1.083,4.301-0.43,6.819c0.356,1.374,2.616,1.496,2.893,0c0.517-2.792,0.668-5.332,0-8.109
				c-0.303-1.26-2.12-1.478-2.741-0.358c-2.11,3.798-1.628,7.478,0.86,10.977c0.594,0.835,2.059,1.104,2.59,0
				c1.504-3.124,1.7-5.932,1.012-9.328c-0.284-1.405-2.047-1.302-2.741-0.358c-1.866,2.534-1.866,5.002,0,7.536
				c0.661,0.898,1.953,1.028,2.59,0c1.441-2.327,1.775-4.5,1.495-7.21c-0.164-1.584-2.53-2.16-2.946-0.398
				c-0.695,2.939-0.552,5.396,1.012,8.038c0.654,1.106,2.408,0.909,2.741-0.358c0.788-2.997,0.902-5.91,0.914-9.002
				c0.005-1.198-1.718-2.135-2.561-1.061c-2.654,3.384-2.511,7.378-1.246,11.354c0.432,1.357,2.534,1.506,2.893,0
				c0.964-4.046,1.573-7.912,0.431-11.981c-0.336-1.197-2.135-1.545-2.741-0.358c-1.624,3.178-1.551,6.268-1.496,9.791
				c0.026,1.672,2.531,2.07,2.946,0.398c0.933-3.755,1.143-7.308,0.431-11.121c-0.229-1.226-2.219-1.523-2.741-0.358
				c-1.601,3.563-1.527,6.786-1.065,10.65c0.185,1.546,2.579,2.197,2.946,0.398c0.867-4.248,1.148-8.189,0-12.411
				c-0.368-1.354-2.008-1.357-2.741-0.358c-3.067,4.176-2.862,9.275-1.442,14.06c0.481,1.625,2.929,1.31,2.946-0.398
				c0.045-4.313,0.355-8.615-0.483-12.873c-0.237-1.205-2.231-1.547-2.741-0.358c-1.735,4.04-1.119,7.823,0.278,11.909
				c0.443,1.299,2.584,1.56,2.893,0c0.879-4.439,1.613-8.759,1.345-13.303c-0.079-1.346-2.142-2.231-2.795-0.757
				c-2.165,4.882-2.898,10.253-1.012,15.351c0.57,1.542,2.931,1.373,2.946-0.398c0.044-5.023,0.354-10.038,0-15.057
				c-0.119-1.697-2.395-2.032-2.946-0.398c-1.2,3.548-0.924,7.049-0.484,10.723c0.227,1.894,3.222,1.923,3,0
				c-0.693-6.015-0.1-12.037-0.43-18.066c-0.093-1.703-2.409-2.026-2.946-0.398c-1.575,4.775-0.998,9.649-0.914,14.594
				c0.033,1.937,2.944,1.932,3,0c0.145-5.049,1.134-10.01,1.29-15.057c0.053-1.701-2.528-2.033-2.946-0.398
				c-1.567,6.13-0.595,12.262-0.054,18.467c0.166,1.902,2.95,1.96,3,0c0.136-5.333,1.155-10.584,1.291-15.917
				c0.043-1.67-2.622-2.078-2.946-0.398c-1.129,5.857-0.564,11.687-0.484,17.605c0.026,1.964,2.828,1.896,3,0
				c0.52-5.748,1.596-11.427,1.721-17.207c0.039-1.791-2.378-1.909-2.946-0.398c-2.218,5.895-2.616,12.367-0.86,18.435
				c0.38,1.314,2.669,1.548,2.893,0c0.988-6.847,2.071-13.698,0.86-20.586c-0.28-1.592-2.438-1.261-2.893,0
				c-1.688,4.688-0.888,9.448,0.431,14.133c0.462,1.644,2.92,1.296,2.946-0.398c0.081-5.325,0.698-10.609,0-15.916
				c-0.168-1.276-2.102-2.296-2.795-0.757c-2.159,4.788-1.64,9.685,0.278,14.49c0.607,1.521,2.896,1.389,2.946-0.398
				c0.141-5.044,1.072-10.017,0.431-15.056c-0.185-1.45-1.914-2.086-2.795-0.757c-2.222,3.351-1.968,7.207-1.926,11.081c1,0,2,0,3,0
				c-0.335-4.16-0.051-8.31,0-12.476c0.021-1.662-2.626-2.088-2.946-0.398c-0.845,4.454-0.845,8.818,0,13.272
				c0.279,1.476,2.56,1.396,2.893,0c0.961-4.021,1.585-7.874,0.86-11.982c-0.225-1.277-2.175-1.463-2.741-0.358
				c-2.109,4.111-1.97,8.292-1.496,12.802c0.204,1.943,2.767,1.915,3,0c0.427-3.507,0.688-6.82-0.054-10.292
				c-0.33-1.544-2.447-1.315-2.893,0c-1.178,3.48-1.047,7.104-0.43,10.69c0.296,1.723,2.906,1.233,2.946-0.398
				c0.11-4.484,0.603-8.84-0.054-13.303c-0.237-1.619-2.439-1.228-2.893,0c-1.552,4.204-1.39,8.453-1.345,12.873
				c0.017,1.646,2.628,2.104,2.946,0.398c1.037-5.554,2.676-11.671,0.279-17.071c-0.481-1.086-2.048-0.863-2.59,0
				c-2.693,4.286-2.404,9.266-1.442,14.06c0.341,1.701,2.926,1.252,2.946-0.398c0.053-4.192,0.243-8.297-0.483-12.443
				c-0.298-1.701-2.952-1.254-2.946,0.398c0.012,3.092,0.126,6.005,0.914,9.002c0.434,1.647,2.948,1.293,2.946-0.398
				c-0.004-3.313-0.083-6.597-0.431-9.894c-0.204-1.937-2.78-1.923-3,0c-0.35,3.058-0.349,5.977,0,9.034c0.214,1.873,3.002,1.98,3,0
				c-0.004-3.457-0.067-6.884-0.43-10.324c-0.198-1.88-3.042-1.972-3,0c0.074,3.521,0.543,6.865,1.344,10.292
				c0.39,1.671,2.949,1.276,2.946-0.398c-0.006-2.886-0.097-5.712-0.483-8.571c-0.964,0.266-1.929,0.531-2.893,0.797
				c0.45,2.207,0.968,4.328,1.721,6.452c0.549,1.551,2.954,1.365,2.946-0.398c-0.013-2.949-0.161-5.715-0.914-8.571
				c-0.498-1.889-3.262-1.081-2.893,0.797c0.434,2.21,0.853,4.366,1.721,6.452c0.612,1.474,2.954,1.423,2.946-0.398
				c-0.01-2.321-0.131-4.56-0.484-6.851c-0.964,0.266-1.929,0.531-2.893,0.797c0.42,2.01,0.871,4.013,1.291,6.021
				c0.397,1.902,3.247,1.086,2.893-0.797c-0.35-1.858-0.512-3.735-0.86-5.592c-0.313-1.668-3.038-1.28-2.946,0.398
				c0.119,2.169,0.591,3.948,1.495,5.919c0.54,1.177,2.483,0.855,2.741-0.358c0.394-1.849,0.474-3.67,0.484-5.561
				c0.004-0.642-0.457-1.303-1.102-1.446c-1.99-0.443-3.955-0.786-5.991-0.914c-1.646-0.104-1.833,1.99-0.757,2.795
				c0.68,0.509,1.324,0.882,2.112,1.18c0.267-0.964,0.532-1.929,0.798-2.893c-0.154-0.057-0.309-0.112-0.464-0.168
				c-1.157-0.419-2.05,0.819-1.845,1.845c0.19,0.954,0.491,1.745,1.246,2.383c1.272,1.077,3.218-0.267,2.355-1.817
				c-0.232-0.466-0.519-0.896-0.86-1.291c-1.15-1.57-3.374-0.259-2.59,1.514c0.441,0.999,0.848,2.013,1.29,3.012
				c0.863-0.505,1.727-1.009,2.59-1.514c-0.573-0.86-1.146-1.722-1.721-2.581c-0.9-1.351-3.325-0.529-2.741,1.155
				c0.625,1.804,1.412,3.394,2.303,5.09c0.91,1.735,3.388,0.214,2.59-1.514c-0.671-1.453-1.317-2.959-2.386-4.175
				C1161.851,158.208,1159.737,160.339,1161.009,161.785L1161.009,161.785z"/>
		</g>
	</g>
	
		<rect x="1127.567" y="156.887" fill="#FFFFFF" stroke="#B3B3B3" stroke-width="6" stroke-linecap="round" stroke-linejoin="round" stroke-miterlimit="10" width="70" height="39"/>
	
		<rect x="1132.567" y="149.887" fill="#FFFFFF" stroke="#CCCCCC" stroke-width="6" stroke-linecap="round" stroke-linejoin="round" stroke-miterlimit="10" width="59" height="6"/>
	
		<rect x="1137.567" y="156.887" fill="#FFFFFF" stroke="#CCCCCC" stroke-width="6" stroke-linecap="round" stroke-linejoin="round" stroke-miterlimit="10" width="8" height="40"/>
	
		<rect x="1158.567" y="156.887" fill="#FFFFFF" stroke="#CCCCCC" stroke-width="6" stroke-linecap="round" stroke-linejoin="round" stroke-miterlimit="10" width="7" height="40"/>
	
		<rect x="1160.567" y="156.887" fill="#FFFFFF" stroke="#CCCCCC" stroke-width="6" stroke-linecap="round" stroke-linejoin="round" stroke-miterlimit="10" width="7" height="40"/>
	
		<rect x="1178.567" y="156.887" fill="#FFFFFF" stroke="#CCCCCC" stroke-width="6" stroke-linecap="round" stroke-linejoin="round" stroke-miterlimit="10" width="7" height="40"/>
	
		<line fill="#FFFFFF" stroke="#CCCCCC" stroke-width="6" stroke-linecap="round" stroke-linejoin="round" stroke-miterlimit="10" x1="1141.567" y1="149.887" x2="1141.567" y2="136.887"/>
	
		<line fill="#FFFFFF" stroke="#CCCCCC" stroke-width="6" stroke-linecap="round" stroke-linejoin="round" stroke-miterlimit="10" x1="1151.567" y1="149.887" x2="1151.567" y2="136.887"/>
	
		<line fill="#FFFFFF" stroke="#CCCCCC" stroke-width="6" stroke-linecap="round" stroke-linejoin="round" stroke-miterlimit="10" x1="1162.567" y1="149.887" x2="1162.567" y2="136.887"/>
	
		<line fill="#FFFFFF" stroke="#CCCCCC" stroke-width="6" stroke-linecap="round" stroke-linejoin="round" stroke-miterlimit="10" x1="1173.567" y1="149.887" x2="1173.567" y2="136.887"/>
	
		<line fill="#FFFFFF" stroke="#CCCCCC" stroke-width="6" stroke-linecap="round" stroke-linejoin="round" stroke-miterlimit="10" x1="1183.567" y1="149.887" x2="1183.567" y2="136.887"/>
	
		<line fill="none" stroke="#999999" stroke-width="6" stroke-linecap="round" stroke-linejoin="round" stroke-miterlimit="10" x1="1140.567" y1="134.887" x2="1142.567" y2="134.887"/>
	
		<line fill="none" stroke="#999999" stroke-width="6" stroke-linecap="round" stroke-linejoin="round" stroke-miterlimit="10" x1="1150.567" y1="134.887" x2="1152.567" y2="134.887"/>
	
		<line fill="none" stroke="#999999" stroke-width="6" stroke-linecap="round" stroke-linejoin="round" stroke-miterlimit="10" x1="1150.567" y1="137.887" x2="1152.567" y2="137.887"/>
	
		<line fill="none" stroke="#999999" stroke-width="6" stroke-linecap="round" stroke-linejoin="round" stroke-miterlimit="10" x1="1150.567" y1="140.887" x2="1152.567" y2="140.887"/>
	
		<line fill="none" stroke="#999999" stroke-width="6" stroke-linecap="round" stroke-linejoin="round" stroke-miterlimit="10" x1="1150.567" y1="143.887" x2="1152.567" y2="143.887"/>
	
		<line fill="none" stroke="#999999" stroke-width="6" stroke-linecap="round" stroke-linejoin="round" stroke-miterlimit="10" x1="1161.567" y1="134.887" x2="1163.567" y2="134.887"/>
	
		<line fill="none" stroke="#999999" stroke-width="6" stroke-linecap="round" stroke-linejoin="round" stroke-miterlimit="10" x1="1161.567" y1="137.887" x2="1163.567" y2="137.887"/>
	
		<line fill="none" stroke="#999999" stroke-width="6" stroke-linecap="round" stroke-linejoin="round" stroke-miterlimit="10" x1="1161.567" y1="140.887" x2="1163.567" y2="140.887"/>
	
		<line fill="none" stroke="#999999" stroke-width="6" stroke-linecap="round" stroke-linejoin="round" stroke-miterlimit="10" x1="1161.567" y1="143.887" x2="1163.567" y2="143.887"/>
	
		<line fill="none" stroke="#999999" stroke-width="6" stroke-linecap="round" stroke-linejoin="round" stroke-miterlimit="10" x1="1174.567" y1="134.887" x2="1172.567" y2="134.887"/>
	
		<line fill="none" stroke="#999999" stroke-width="6" stroke-linecap="round" stroke-linejoin="round" stroke-miterlimit="10" x1="1172.567" y1="137.887" x2="1174.567" y2="137.887"/>
	
		<line fill="none" stroke="#999999" stroke-width="6" stroke-linecap="round" stroke-linejoin="round" stroke-miterlimit="10" x1="1172.567" y1="140.887" x2="1174.567" y2="140.887"/>
	
		<line fill="none" stroke="#999999" stroke-width="6" stroke-linecap="round" stroke-linejoin="round" stroke-miterlimit="10" x1="1172.567" y1="143.887" x2="1174.567" y2="143.887"/>
	
		<line fill="none" stroke="#999999" stroke-width="6" stroke-linecap="round" stroke-linejoin="round" stroke-miterlimit="10" x1="1183.567" y1="134.887" x2="1185.567" y2="134.887"/>
	
		<line fill="none" stroke="#999999" stroke-width="6" stroke-linecap="round" stroke-linejoin="round" stroke-miterlimit="10" x1="1183.567" y1="137.887" x2="1185.567" y2="137.887"/>
	
		<line fill="none" stroke="#999999" stroke-width="6" stroke-linecap="round" stroke-linejoin="round" stroke-miterlimit="10" x1="1183.567" y1="140.887" x2="1185.567" y2="140.887"/>
	
		<line fill="none" stroke="#999999" stroke-width="6" stroke-linecap="round" stroke-linejoin="round" stroke-miterlimit="10" x1="1183.567" y1="143.887" x2="1185.567" y2="143.887"/>
	
		<polyline fill="#C69C6D" stroke="#8C6239" stroke-width="6" stroke-linecap="round" stroke-linejoin="round" stroke-miterlimit="10" points="
		1205.567,196.887 1205.567,195.568 1205.567,174.887 1228.567,174.887 1228.567,195.887 	"/>
	
		<polyline fill="none" stroke="#999999" stroke-width="6" stroke-linecap="round" stroke-linejoin="round" stroke-miterlimit="10" points="
		1147.567,195.887 1147.567,168.887 1127.567,168.887 1127.567,196.887 1247.245,196.887 1127.423,196.887 1113.567,196.887 
		1113.567,183.887 1247.567,183.887 1247.567,196.887 	"/>
	
		<line fill="#FFFFFF" stroke="#999999" stroke-width="6" stroke-linecap="round" stroke-linejoin="round" stroke-miterlimit="10" x1="1137.567" y1="196.887" x2="1137.567" y2="168.887"/>
	
		<path fill="#FFFFFF" stroke="#999999" stroke-width="6" stroke-linecap="round" stroke-linejoin="round" stroke-miterlimit="10" d="
		M1148.035,197.289"/>
	
		<polyline fill="#FFFFFF" stroke="#999999" stroke-width="6" stroke-linecap="round" stroke-linejoin="round" stroke-miterlimit="10" points="
		1147.567,168.887 1158.567,168.887 1158.567,196.887 	"/>
	
		<line fill="#FFFFFF" stroke="#999999" stroke-width="12" stroke-linecap="round" stroke-linejoin="round" stroke-miterlimit="10" x1="1127.567" y1="177.887" x2="1127.567" y2="171.887"/>
	
		<line fill="#FFFFFF" stroke="#999999" stroke-width="12" stroke-linecap="round" stroke-linejoin="round" stroke-miterlimit="10" x1="1137.567" y1="177.887" x2="1137.567" y2="171.887"/>
	
		<line fill="#FFFFFF" stroke="#999999" stroke-width="12" stroke-linecap="round" stroke-linejoin="round" stroke-miterlimit="10" x1="1118.567" y1="177.887" x2="1118.567" y2="171.887"/>
	
		<line fill="#FFFFFF" stroke="#999999" stroke-width="12" stroke-linecap="round" stroke-linejoin="round" stroke-miterlimit="10" x1="1147.567" y1="177.887" x2="1147.567" y2="171.887"/>
	
		<polyline fill="none" stroke="#999999" stroke-width="6" stroke-linecap="round" stroke-linejoin="round" stroke-miterlimit="10" points="
		1235.567,196.887 1235.567,147.887 1227.026,147.887 1244.567,147.887 	"/>
	
		<line fill="#FFFFFF" stroke="#999999" stroke-width="12" stroke-linecap="round" stroke-linejoin="round" stroke-miterlimit="10" x1="1235.567" y1="147.887" x2="1235.567" y2="137.887"/>
	
		<line fill="#FFFFFF" stroke="#999999" stroke-width="12" stroke-linecap="round" stroke-linejoin="round" stroke-miterlimit="10" x1="1235.567" y1="153.887" x2="1235.567" y2="156.887"/>
	
		<line fill="#FFFFFF" stroke="#999999" stroke-width="12" stroke-linecap="round" stroke-linejoin="round" stroke-miterlimit="10" x1="1158.567" y1="177.887" x2="1158.567" y2="171.887"/>
	
		<polyline fill="none" stroke="#999999" stroke-width="6" stroke-linecap="round" stroke-linejoin="round" stroke-miterlimit="10" points="
		1127.567,168.887 1118.567,168.887 1118.567,195.887 	"/>
	
		<polyline fill="none" stroke="#999999" stroke-width="6" stroke-linecap="round" stroke-linejoin="round" stroke-miterlimit="10" points="
		1244.567,183.887 1163.36,183.887 1247.567,183.887 1247.567,196.887 1113.567,196.887 	"/>
	<path fill="none" stroke="#666666" stroke-width="2" stroke-linecap="round" stroke-linejoin="round" stroke-miterlimit="10" d="
		M1236.06,138.355c0,0-33.983,5.162-50.761-3.871"/>
	<path fill="none" stroke="#999999" stroke-width="2" stroke-linecap="round" stroke-linejoin="round" stroke-miterlimit="10" d="
		M1183.148,134.484c0,0-1.08,3.238-8.175,0.829c-0.662-0.225-1.377-0.499-2.149-0.829c0,0-4.302,4.731-9.464,0"/>
	<path fill="none" stroke="#999999" stroke-width="2" stroke-linecap="round" stroke-linejoin="round" stroke-miterlimit="10" d="
		M1161.209,134.484c0,0-3.441,5.592-8.604,0"/>
	<path fill="none" stroke="#666666" stroke-width="2" stroke-linecap="round" stroke-linejoin="round" stroke-miterlimit="10" d="
		M1235.63,143.088c0,0-45.169,5.592-51.621-6.453"/>
	<path fill="none" stroke="#999999" stroke-width="2" stroke-linecap="round" stroke-linejoin="round" stroke-miterlimit="10" d="
		M1150.455,134.484c0,0-4.732,5.162-7.743,0"/>
	<path fill="none" stroke="#999999" stroke-width="2" stroke-linecap="round" stroke-linejoin="round" stroke-miterlimit="10" d="
		M1118.807,172.103c0,0,35.183,1.839,39.483,0.118c4.303-1.721-0.073,4.146-0.073,4.146l-39.649-1.016v2.536h40"/>
	
		<polygon fill="none" stroke="#333333" stroke-width="6" stroke-linecap="round" stroke-linejoin="round" stroke-miterlimit="10" points="
		1113.567,183.887 1118.622,183.887 1247.567,183.887 1247.567,196.887 1113.567,196.887 	"/>
	
		<line fill="none" stroke="#333333" stroke-width="6" stroke-linecap="round" stroke-linejoin="round" stroke-miterlimit="10" x1="1118.567" y1="196.887" x2="1118.567" y2="183.887"/>
	
		<line fill="none" stroke="#333333" stroke-width="6" stroke-linecap="round" stroke-linejoin="round" stroke-miterlimit="10" x1="1123.567" y1="196.887" x2="1123.567" y2="183.887"/>
	
		<line fill="none" stroke="#333333" stroke-width="6" stroke-linecap="round" stroke-linejoin="round" stroke-miterlimit="10" x1="1128.567" y1="196.887" x2="1128.567" y2="183.887"/>
	
		<line fill="none" stroke="#333333" stroke-width="6" stroke-linecap="round" stroke-linejoin="round" stroke-miterlimit="10" x1="1133.567" y1="196.887" x2="1133.567" y2="183.887"/>
	
		<line fill="none" stroke="#333333" stroke-width="6" stroke-linecap="round" stroke-linejoin="round" stroke-miterlimit="10" x1="1176.567" y1="196.887" x2="1176.567" y2="183.887"/>
	
		<line fill="none" stroke="#333333" stroke-width="6" stroke-linecap="round" stroke-linejoin="round" stroke-miterlimit="10" x1="1181.567" y1="196.887" x2="1181.567" y2="183.887"/>
	
		<line fill="none" stroke="#333333" stroke-width="6" stroke-linecap="round" stroke-linejoin="round" stroke-miterlimit="10" x1="1185.567" y1="196.887" x2="1185.567" y2="183.887"/>
	
		<line fill="none" stroke="#333333" stroke-width="6" stroke-linecap="round" stroke-linejoin="round" stroke-miterlimit="10" x1="1203.567" y1="196.887" x2="1203.567" y2="183.887"/>
	
		<line fill="none" stroke="#333333" stroke-width="6" stroke-linecap="round" stroke-linejoin="round" stroke-miterlimit="10" x1="1207.567" y1="196.887" x2="1207.567" y2="183.887"/>
	
		<line fill="none" stroke="#333333" stroke-width="6" stroke-linecap="round" stroke-linejoin="round" stroke-miterlimit="10" x1="1212.567" y1="196.887" x2="1212.567" y2="183.887"/>
	
		<line fill="none" stroke="#333333" stroke-width="6" stroke-linecap="round" stroke-linejoin="round" stroke-miterlimit="10" x1="1217.567" y1="196.887" x2="1217.567" y2="183.887"/>
	
		<line fill="none" stroke="#333333" stroke-width="6" stroke-linecap="round" stroke-linejoin="round" stroke-miterlimit="10" x1="1222.567" y1="196.887" x2="1222.567" y2="183.887"/>
	
		<line fill="none" stroke="#333333" stroke-width="6" stroke-linecap="round" stroke-linejoin="round" stroke-miterlimit="10" x1="1227.567" y1="196.887" x2="1227.567" y2="183.887"/>
	
		<line fill="none" stroke="#333333" stroke-width="6" stroke-linecap="round" stroke-linejoin="round" stroke-miterlimit="10" x1="1232.567" y1="196.887" x2="1232.567" y2="183.887"/>
	
		<line fill="none" stroke="#333333" stroke-width="6" stroke-linecap="round" stroke-linejoin="round" stroke-miterlimit="10" x1="1238.567" y1="196.887" x2="1238.567" y2="183.887"/>
	
		<line fill="none" stroke="#333333" stroke-width="6" stroke-linecap="round" stroke-linejoin="round" stroke-miterlimit="10" x1="1242.567" y1="196.887" x2="1242.567" y2="183.887"/>
	
		<line fill="none" stroke="#333333" stroke-width="6" stroke-linecap="round" stroke-linejoin="round" stroke-miterlimit="10" x1="1189.567" y1="196.887" x2="1189.567" y2="183.887"/>
	
		<line fill="none" stroke="#333333" stroke-width="6" stroke-linecap="round" stroke-linejoin="round" stroke-miterlimit="10" x1="1194.567" y1="196.887" x2="1194.567" y2="183.887"/>
	
		<line fill="none" stroke="#333333" stroke-width="6" stroke-linecap="round" stroke-linejoin="round" stroke-miterlimit="10" x1="1198.567" y1="195.887" x2="1198.567" y2="183.887"/>
	
		<line fill="none" stroke="#333333" stroke-width="6" stroke-linecap="round" stroke-linejoin="round" stroke-miterlimit="10" x1="1137.567" y1="196.887" x2="1137.567" y2="183.887"/>
	
		<line fill="none" stroke="#333333" stroke-width="6" stroke-linecap="round" stroke-linejoin="round" stroke-miterlimit="10" x1="1142.567" y1="196.887" x2="1142.567" y2="183.887"/>
	
		<line fill="none" stroke="#333333" stroke-width="6" stroke-linecap="round" stroke-linejoin="round" stroke-miterlimit="10" x1="1147.567" y1="196.887" x2="1147.567" y2="183.887"/>
	
		<line fill="none" stroke="#333333" stroke-width="6" stroke-linecap="round" stroke-linejoin="round" stroke-miterlimit="10" x1="1152.567" y1="196.887" x2="1152.567" y2="183.887"/>
	
		<line fill="none" stroke="#333333" stroke-width="6" stroke-linecap="round" stroke-linejoin="round" stroke-miterlimit="10" x1="1158.567" y1="196.887" x2="1158.567" y2="183.887"/>
	
		<line fill="none" stroke="#333333" stroke-width="6" stroke-linecap="round" stroke-linejoin="round" stroke-miterlimit="10" x1="1162.567" y1="196.887" x2="1162.567" y2="183.887"/>
	
		<line fill="none" stroke="#333333" stroke-width="6" stroke-linecap="round" stroke-linejoin="round" stroke-miterlimit="10" x1="1167.567" y1="196.887" x2="1167.567" y2="183.887"/>
	
		<line fill="none" stroke="#333333" stroke-width="6" stroke-linecap="round" stroke-linejoin="round" stroke-miterlimit="10" x1="1171.567" y1="196.887" x2="1171.567" y2="183.887"/>
	<path fill="none" stroke="#666666" stroke-width="2" stroke-linecap="round" stroke-linejoin="round" stroke-miterlimit="10" d="
		M439.495,35.76c0,0,26.759,29.76,309.101-0.5c0,0,13.254,4.752,25.258,0.5c0,0,348.714,129.127,366.714,103.127h2
		c-48,31-321-79-321-79h-3.699h1.699v-6"/>
	<path fill="none" stroke="#666666" stroke-width="2" stroke-linecap="round" stroke-linejoin="round" stroke-miterlimit="10" d="
		M802.567,8.887h5c0,0,267,142,333,133h2"/>
	<path fill="none" stroke="#666666" stroke-width="2" stroke-linecap="round" stroke-linejoin="round" stroke-miterlimit="10" d="
		M810.567,71.887v6h-1.202h3.202c0,0,258,97,328,67h2"/>
</g>
<g id="Layer_2">
	<path fill="none" stroke="#666666" stroke-width="2" stroke-linecap="round" stroke-linejoin="round" stroke-miterlimit="10" d="
		M29.218,155.084c0,0,53.483,4.458,332.07-96.108"/>
	<path fill="none" stroke="#666666" stroke-width="2" stroke-linecap="round" stroke-linejoin="round" stroke-miterlimit="10" d="
		M29.067,157.444c0,0,142.529-11.828,348-81.058"/>
	<path fill="none" stroke="#666666" stroke-width="2" stroke-linecap="round" stroke-linejoin="round" stroke-miterlimit="10" d="
		M29.218,155.084c0,0,98.014-21.863,351.457-148.141"/>
	<path fill="none" stroke="#666666" stroke-width="2" stroke-linecap="round" stroke-linejoin="round" stroke-miterlimit="10" d="
		M29.067,157.444c175.879-40.528,186.889-33.616,385-123.058c0,0,5.794,7.206,25.427,1.373"/>
	<path fill="none" stroke="#666666" stroke-width="2" stroke-linecap="round" stroke-linejoin="round" stroke-miterlimit="10" d="
		M472.756,7.752c0,0,60.02,22.757,243.579,0"/>
	<path fill="none" stroke="#666666" stroke-width="2" stroke-linecap="round" stroke-linejoin="round" stroke-miterlimit="10" d="
		M485.01,58.268c0,0,138.795,11.754,218.571,0"/>
	<path fill="none" stroke="#666666" stroke-width="2" stroke-linecap="round" stroke-linejoin="round" stroke-miterlimit="10" d="
		M476.507,76.273c0,0,148.611,15.471,233.326,0.5"/>
</g>
<g id="Layer_5">
	
		<circle fill="#FF6666" stroke="#FF6666" stroke-width="2" stroke-linecap="round" stroke-linejoin="round" stroke-miterlimit="10" cx="520.006" cy="15.428" r="3.439"/>
	
		<circle fill="#FF6666" stroke="#FF6666" stroke-width="2" stroke-linecap="round" stroke-linejoin="round" stroke-miterlimit="10" cx="593.006" cy="47.428" r="3.439"/>
	
		<circle fill="#FF6666" stroke="#FF6666" stroke-width="2" stroke-linecap="round" stroke-linejoin="round" stroke-miterlimit="10" cx="675.006" cy="12.428" r="3.439"/>
	
		<circle fill="#FF6666" stroke="#FF6666" stroke-width="2" stroke-linecap="round" stroke-linejoin="round" stroke-miterlimit="10" cx="579.006" cy="83.428" r="3.439"/>
	
		<circle fill="#FFFF66" stroke="#FFFF66" stroke-width="2" stroke-linecap="round" stroke-linejoin="round" stroke-miterlimit="10" cx="539.576" cy="62.388" r="4.509"/>
	
		<circle fill="#FFFF66" stroke="#FFFF66" stroke-width="2" stroke-linecap="round" stroke-linejoin="round" stroke-miterlimit="10" cx="614.576" cy="15.388" r="4.509"/>
	
		<circle fill="#FFFF66" stroke="#FFFF66" stroke-width="2" stroke-linecap="round" stroke-linejoin="round" stroke-miterlimit="10" cx="633.576" cy="62.388" r="4.509"/>
</g>
</svg>
