<?xml version="1.0" encoding="utf-8"?>
<!-- Generator: Adobe Illustrator 16.0.0, SVG Export Plug-In . SVG Version: 6.00 Build 0)  -->
<!DOCTYPE svg PUBLIC "-//W3C//DTD SVG 1.1//EN" "http://www.w3.org/Graphics/SVG/1.1/DTD/svg11.dtd">
<svg version="1.1" id="Layer_1" xmlns="http://www.w3.org/2000/svg" xmlns:xlink="http://www.w3.org/1999/xlink" x="0px" y="0px"
	 width="96.333px" height="200px" viewBox="0 0 96.333 200" enable-background="new 0 0 96.333 200" xml:space="preserve">
<linearGradient id="SVGID_1_" gradientUnits="userSpaceOnUse" x1="17.3335" y1="198.5" x2="17.3335" y2="183.5">
	<stop  offset="0.15" style="stop-color:#FEFEFE"/>
	<stop  offset="0.355" style="stop-color:#FFFFFF"/>
	<stop  offset="0.4842" style="stop-color:#F9F9F9"/>
	<stop  offset="0.6619" style="stop-color:#E7E7E7"/>
	<stop  offset="0.855" style="stop-color:#CCCCCC"/>
</linearGradient>
<rect x="3.833" y="183.5" fill="url(#SVGID_1_)" stroke="#CCCCCC" stroke-width="3" stroke-linecap="round" stroke-linejoin="round" stroke-miterlimit="10" width="27" height="15"/>
<polygon fill="#FFFFFF" stroke="#CCCCCC" stroke-width="2" stroke-linecap="round" stroke-linejoin="round" stroke-miterlimit="10" points="
	32.371,184 2.333,184 3.822,179 31.004,179 "/>
<line fill="none" stroke="#CCCCCC" stroke-width="2" stroke-linecap="round" stroke-linejoin="round" stroke-miterlimit="10" x1="17.333" y1="180" x2="17.333" y2="184"/>
<line fill="none" stroke="#CCCCCC" stroke-width="2" stroke-linecap="round" stroke-linejoin="round" stroke-miterlimit="10" x1="22.14" y1="179.113" x2="26.889" y2="183.837"/>
<line fill="none" stroke="#CCCCCC" stroke-width="2" stroke-linecap="round" stroke-linejoin="round" stroke-miterlimit="10" x1="12.493" y1="179.113" x2="7.744" y2="183.837"/>
<rect x="19.833" y="188.5" fill="#FFFFFF" stroke="#CCCCCC" stroke-linecap="round" stroke-linejoin="round" stroke-miterlimit="10" width="6" height="11"/>
<rect x="21.777" y="190.5" fill="#0000FF" stroke="#0000FF" stroke-linecap="round" stroke-linejoin="round" stroke-miterlimit="10" width="2" height="1"/>
<rect x="7.833" y="186.5" fill="#CCCCCC" stroke="#CCCCCC" stroke-linecap="round" stroke-linejoin="round" stroke-miterlimit="10" width="5" height="4"/>
<rect x="7.833" y="192.5" fill="#CCCCCC" stroke="#CCCCCC" stroke-linecap="round" stroke-linejoin="round" stroke-miterlimit="10" width="5" height="4"/>
<line fill="none" stroke="#666666" stroke-linecap="round" stroke-linejoin="round" stroke-miterlimit="10" x1="7.833" y1="190" x2="7.833" y2="187"/>
<line fill="none" stroke="#666666" stroke-linecap="round" stroke-linejoin="round" stroke-miterlimit="10" x1="12.833" y1="187" x2="12.833" y2="190"/>
<line fill="none" stroke="#666666" stroke-linecap="round" stroke-linejoin="round" stroke-miterlimit="10" x1="7.833" y1="193" x2="7.833" y2="196"/>
<line fill="none" stroke="#666666" stroke-linecap="round" stroke-linejoin="round" stroke-miterlimit="10" x1="12.833" y1="193" x2="12.833" y2="196"/>
<path fill="none" stroke="#666666" stroke-linecap="round" stroke-linejoin="round" stroke-miterlimit="10" d="M21.277,194.5"/>
<line fill="none" stroke="#666666" stroke-linecap="round" stroke-linejoin="round" stroke-miterlimit="10" x1="21.333" y1="194.5" x2="24.333" y2="194.5"/>
<line fill="none" stroke="#666666" stroke-linecap="round" stroke-linejoin="round" stroke-miterlimit="10" x1="21.333" y1="196.5" x2="24.333" y2="196.5"/>
<line fill="none" stroke="#666666" stroke-linecap="round" stroke-linejoin="round" stroke-miterlimit="10" x1="21.333" y1="195.5" x2="24.333" y2="195.5"/>
<line fill="none" stroke="#999999" stroke-width="2" stroke-linecap="square" stroke-miterlimit="10" x1="17.333" y1="171" x2="17.333" y2="178"/>
<line fill="none" stroke="#666666" stroke-linecap="round" stroke-linejoin="round" stroke-miterlimit="10" x1="9.333" y1="187.5" x2="11.333" y2="187.5"/>
<line fill="none" stroke="#666666" stroke-linecap="round" stroke-linejoin="round" stroke-miterlimit="10" x1="9.333" y1="189.5" x2="11.333" y2="189.5"/>
<line fill="none" stroke="#666666" stroke-linecap="round" stroke-linejoin="round" stroke-miterlimit="10" x1="9.333" y1="188.5" x2="11.333" y2="188.5"/>
<line fill="none" stroke="#666666" stroke-linecap="round" stroke-linejoin="round" stroke-miterlimit="10" x1="9.333" y1="193.5" x2="11.333" y2="193.5"/>
<line fill="none" stroke="#666666" stroke-linecap="round" stroke-linejoin="round" stroke-miterlimit="10" x1="9.333" y1="194.5" x2="11.333" y2="194.5"/>
<line fill="none" stroke="#666666" stroke-linecap="round" stroke-linejoin="round" stroke-miterlimit="10" x1="9.333" y1="195.5" x2="11.333" y2="195.5"/>
<line fill="none" stroke="#666666" stroke-linecap="round" stroke-linejoin="round" stroke-miterlimit="10" x1="9.333" y1="194.5" x2="11.333" y2="194.5"/>
<path fill="none" stroke="#666666" stroke-width="2" stroke-linecap="round" stroke-linejoin="round" stroke-miterlimit="10" d="
	M17.352,175.972c0,0,29.281-3.1,251.925-115.972"/>
<path fill="none" stroke="#666666" stroke-width="2" stroke-linecap="round" stroke-linejoin="round" stroke-miterlimit="10" d="
	M17.209,172.261c0,0,95.326-16.561,259.536-94.261"/>
<path fill="none" stroke="#666666" stroke-width="2" stroke-linecap="round" stroke-linejoin="round" stroke-miterlimit="10" d="
	M17.209,170.041c0,0,75.604-19.312,264.067-161.041"/>
<path fill="none" stroke="#666666" stroke-width="2" stroke-linecap="round" stroke-linejoin="round" stroke-miterlimit="10" d="
	M17.352,175.055c141.46-47.127,138.78-36.067,296.407-138.952c0,0,9.834,7.171,25.525,0.432"/>
<polygon fill="none" points="32.371,185 30.333,185 30.333,200 25.609,200 25.609,200 19.523,200 19.523,200 3.333,200 3.333,185 
	2.333,185 3.822,181 31.004,181 "/>
<rect id="_x3C_Slice_x3E_" x="96.333" fill="none" width="846" height="200"/>
</svg>
