<?xml version="1.0" encoding="utf-8"?>
<!-- Generator: Adobe Illustrator 16.0.0, SVG Export Plug-In . SVG Version: 6.00 Build 0)  -->
<!DOCTYPE svg PUBLIC "-//W3C//DTD SVG 1.1//EN" "http://www.w3.org/Graphics/SVG/1.1/DTD/svg11.dtd">
<svg version="1.1" id="Layer_1" xmlns="http://www.w3.org/2000/svg" xmlns:xlink="http://www.w3.org/1999/xlink" x="0px" y="0px"
	 width="840.5px" height="277.271px" viewBox="0 0 840.5 277.271" enable-background="new 0 0 840.5 277.271" xml:space="preserve">
<g id="Layer_1_1_">
	<g id="Layer_4">
		
			<linearGradient id="SVGID_1_" gradientUnits="userSpaceOnUse" x1="301.2908" y1="593.9617" x2="301.2908" y2="531.9041" gradientTransform="matrix(1 0 0 1 117.96 -316.6895)">
			<stop  offset="0.1633" style="stop-color:#95C864;stop-opacity:0.5"/>
			<stop  offset="0.371" style="stop-color:#81B45A;stop-opacity:0.4504"/>
			<stop  offset="0.7933" style="stop-color:#4E8141;stop-opacity:0.3494"/>
			<stop  offset="1" style="stop-color:#336633;stop-opacity:0.3"/>
		</linearGradient>
		<path fill="url(#SVGID_1_)" d="M-1,215.215c0,0,552.16,0,840.5,24.186v37.872H-1V215.215z"/>
	</g>
	<g id="Layer_5" display="none">
		
			<linearGradient id="SVGID_2_" gradientUnits="userSpaceOnUse" x1="302.8621" y1="517.4333" x2="302.8621" y2="368.5554" gradientTransform="matrix(-1 0 0 1 720.8013 -316.6895)">
			<stop  offset="0.0459" style="stop-color:#99CC66"/>
			<stop  offset="1" style="stop-color:#336633;stop-opacity:0.4"/>
		</linearGradient>
		<path display="inline" fill="url(#SVGID_2_)" d="M838.879,51.866c0,0-69.879,20.634-93.879,55.634c0,0-179-96-356,13
			c0,0-103-68.634-215,5.807c0,0-69-96.807-177-12.807v87.243h841.879V51.866z"/>
	</g>
	<g id="Layer_6" display="none">
		
			<linearGradient id="SVGID_3_" gradientUnits="userSpaceOnUse" x1="303.9099" y1="459.8201" x2="303.9099" y2="517.4324" gradientTransform="matrix(-1 0 0 1 720.8013 -316.6895)">
			<stop  offset="0" style="stop-color:#336633;stop-opacity:0.4"/>
			<stop  offset="0.8622" style="stop-color:#99CC66;stop-opacity:0.6"/>
		</linearGradient>
		<path display="inline" fill="url(#SVGID_3_)" d="M837.5,167.68c0,0-132.5-44-234.5,13.818c0,0-80-69.818-163-6
			c0,0-78-62-233-7.818c0,0-111-41.375-210-16.697l-0.719,48.961l841.219,0.8V167.68z"/>
	</g>
	<g id="Layer_3">
		
			<linearGradient id="SVGID_4_" gradientUnits="userSpaceOnUse" x1="-120.9597" y1="567.9324" x2="-120.9597" y2="567.9324" gradientTransform="matrix(1 0 0 1 117.96 -316.6895)">
			<stop  offset="0" style="stop-color:#336633;stop-opacity:0.4"/>
			<stop  offset="0.8622" style="stop-color:#99CC66;stop-opacity:0.6"/>
		</linearGradient>
		<path fill="url(#SVGID_4_)" d="M-3,251.243"/>
		
			<linearGradient id="SVGID_5_" gradientUnits="userSpaceOnUse" x1="300.4314" y1="593.9607" x2="300.4314" y2="567.9324" gradientTransform="matrix(1 0 0 1 117.96 -316.6895)">
			<stop  offset="0.1633" style="stop-color:#95C864;stop-opacity:0.5"/>
			<stop  offset="0.371" style="stop-color:#81B45A;stop-opacity:0.4504"/>
			<stop  offset="0.7933" style="stop-color:#4E8141;stop-opacity:0.3494"/>
			<stop  offset="1" style="stop-color:#336633;stop-opacity:0.3"/>
		</linearGradient>
		<path fill="url(#SVGID_5_)" d="M1.16,251.243c0,0,514,12.561,836.34,15.439v10.589l-838.219-0.419L0,251.243H1.16z"/>
	</g>
</g>
<g id="Layer_2">
	<path opacity="0.8" fill="#FFFF33" enable-background="new    " d="M23.677,217.522c0,0,159.179-12.726,439.243-1.991l87.798,8.415
		L23.677,217.522z"/>
	<path opacity="0.6" fill="#003300" enable-background="new    " d="M534.633,255.67c0,0-229.056-20.159-446.154-9.427l-48.718,6
		l321.015,6.727L534.633,255.67z"/>
	<path opacity="0.6" fill="#003300" enable-background="new    " d="M548.742,224.016c0,0,194.64-13.063,258.656,12.694
		C807.4,236.712,560.043,224.385,548.742,224.016z"/>
	<path opacity="0.8" fill="#FFFF33" enable-background="new    " d="M360.777,258.969l471.308,7.643
		C832.082,266.611,586.803,245.469,360.777,258.969z"/>
</g>
</svg>
