<?xml version="1.0" encoding="utf-8"?>
<!-- Generator: Adobe Illustrator 16.0.0, SVG Export Plug-In . SVG Version: 6.00 Build 0)  -->
<!DOCTYPE svg PUBLIC "-//W3C//DTD SVG 1.1//EN" "http://www.w3.org/Graphics/SVG/1.1/DTD/svg11.dtd">
<svg version="1.1" xmlns="http://www.w3.org/2000/svg" xmlns:xlink="http://www.w3.org/1999/xlink" x="0px" y="0px" width="191px"
	 height="109.5px" viewBox="0 0 191 109.5" enable-background="new 0 0 191 109.5" xml:space="preserve">
<g id="Layer_4">
	
		<rect x="15" y="1" fill="#CCCCCC" stroke="#666666" stroke-width="2" stroke-linecap="round" stroke-linejoin="round" stroke-miterlimit="10" width="7" height="106"/>
	
		<rect x="72" y="1" fill="#CCCCCC" stroke="#666666" stroke-width="2" stroke-linecap="round" stroke-linejoin="round" stroke-miterlimit="10" width="8" height="39"/>
	
		<rect x="128" y="3" fill="#CCCCCC" stroke="#666666" stroke-width="2" stroke-linecap="round" stroke-linejoin="round" stroke-miterlimit="10" width="7" height="49"/>
</g>
<g id="Layer_2">
	
		<ellipse fill="#FFFFFF" stroke="#666666" stroke-width="2" stroke-linecap="round" stroke-linejoin="round" stroke-miterlimit="10" cx="151.833" cy="71.12" rx="37.833" ry="31.405"/>
	
		<rect x="114" y="70" fill="#FFFFFF" stroke="#666666" stroke-width="2" stroke-linecap="round" stroke-linejoin="round" stroke-miterlimit="10" width="76" height="38"/>
</g>
<g id="Layer_3">
	
		<rect x="1" y="73" fill="#FFFFFF" stroke="#666666" stroke-width="2" stroke-linecap="round" stroke-linejoin="round" stroke-miterlimit="10" width="52" height="35"/>
</g>
<g id="Layer_1">
	
		<path fill="#FFFFFF" stroke="#666666" stroke-width="2" stroke-linecap="round" stroke-linejoin="round" stroke-miterlimit="10" d="
		M134,68.034C134,49.238,116.644,34,94,34c-27.977,0-42,17.905-42,34.034c0,18.797,19.356,34.034,42,34.034
		C116.644,102.068,134,86.831,134,68.034z"/>
	
		<rect x="52" y="66" fill="#FFFFFF" stroke="#666666" stroke-width="2" stroke-linecap="round" stroke-linejoin="round" stroke-miterlimit="10" width="82" height="42"/>
	<polyline fill="none" stroke="#666666" stroke-linecap="round" stroke-linejoin="round" stroke-miterlimit="10" points="34.5,109 
		34.5,90.5 42.5,90.5 42.5,108 	"/>
</g>
<g id="Layer_5">
	<polyline fill="none" stroke="#666666" stroke-linecap="round" stroke-linejoin="round" stroke-miterlimit="10" points="
		113.75,108.25 94,78.5 79.5,78.5 79.5,71.121 79.5,66 	"/>
	<path fill="none" stroke="#666666" stroke-linecap="round" stroke-linejoin="round" stroke-miterlimit="10" d="M110,103.5"/>
	<polyline fill="none" stroke="#666666" stroke-linecap="round" stroke-linejoin="round" stroke-miterlimit="10" points="93.5,79 
		93.5,84.5 97.5,84.5 97.5,90.5 101.5,90.5 101.5,96.5 105.5,96.5 105.5,102 109.5,102.068 109.5,108.5 114,108.5 	"/>
	<polyline fill="none" stroke="#666666" stroke-linecap="round" stroke-linejoin="round" stroke-miterlimit="10" points="80,71.5 
		93.5,71.5 93.5,78 	"/>
	
		<line fill="none" stroke="#666666" stroke-linecap="round" stroke-linejoin="round" stroke-miterlimit="10" x1="93.5" y1="71.5" x2="114.5" y2="102"/>
	
		<line fill="none" stroke="#666666" stroke-linecap="round" stroke-linejoin="round" stroke-miterlimit="10" x1="80" y1="74.5" x2="93" y2="74.5"/>
	
		<line fill="none" stroke="#666666" stroke-linecap="round" stroke-linejoin="round" stroke-miterlimit="10" x1="95.5" y1="75" x2="95.5" y2="80"/>
	
		<line fill="none" stroke="#666666" stroke-linecap="round" stroke-linejoin="round" stroke-miterlimit="10" x1="90.5" y1="72" x2="90.5" y2="78"/>
	
		<line fill="none" stroke="#666666" stroke-linecap="round" stroke-linejoin="round" stroke-miterlimit="10" x1="87.5" y1="72" x2="87.5" y2="78"/>
	
		<line fill="none" stroke="#666666" stroke-linecap="round" stroke-linejoin="round" stroke-miterlimit="10" x1="84.5" y1="72" x2="84.5" y2="78"/>
	
		<line fill="none" stroke="#666666" stroke-linecap="round" stroke-linejoin="round" stroke-miterlimit="10" x1="81.5" y1="72" x2="81.5" y2="78"/>
	
		<line fill="none" stroke="#666666" stroke-linecap="round" stroke-linejoin="round" stroke-miterlimit="10" x1="97.5" y1="78" x2="97.5" y2="83"/>
	
		<line fill="none" stroke="#666666" stroke-linecap="round" stroke-linejoin="round" stroke-miterlimit="10" x1="99.5" y1="81" x2="99.5" y2="86"/>
	
		<line fill="none" stroke="#666666" stroke-linecap="round" stroke-linejoin="round" stroke-miterlimit="10" x1="101.5" y1="84" x2="101.5" y2="89"/>
	
		<line fill="none" stroke="#666666" stroke-linecap="round" stroke-linejoin="round" stroke-miterlimit="10" x1="103.5" y1="87" x2="103.5" y2="92"/>
	
		<line fill="none" stroke="#666666" stroke-linecap="round" stroke-linejoin="round" stroke-miterlimit="10" x1="105.5" y1="90" x2="105.5" y2="95"/>
	
		<line fill="none" stroke="#666666" stroke-linecap="round" stroke-linejoin="round" stroke-miterlimit="10" x1="107.5" y1="93" x2="107.5" y2="98"/>
	
		<line fill="none" stroke="#666666" stroke-linecap="round" stroke-linejoin="round" stroke-miterlimit="10" x1="109.5" y1="96" x2="109.5" y2="101"/>
	
		<line fill="none" stroke="#666666" stroke-linecap="round" stroke-linejoin="round" stroke-miterlimit="10" x1="111.5" y1="99" x2="111.5" y2="104"/>
	
		<line fill="none" stroke="#666666" stroke-linecap="round" stroke-linejoin="round" stroke-miterlimit="10" x1="114.5" y1="102" x2="114.5" y2="108"/>
	
		<line fill="none" stroke="#666666" stroke-linecap="round" stroke-linejoin="round" stroke-miterlimit="10" x1="80" y1="79.5" x2="93" y2="79.5"/>
	
		<line fill="none" stroke="#666666" stroke-linecap="round" stroke-linejoin="round" stroke-miterlimit="10" x1="79.5" y1="71" x2="79.5" y2="108"/>
</g>
</svg>
