<?xml version="1.0" encoding="utf-8"?>
<!-- Generator: Adobe Illustrator 16.0.0, SVG Export Plug-In . SVG Version: 6.00 Build 0)  -->
<!DOCTYPE svg PUBLIC "-//W3C//DTD SVG 1.1//EN" "http://www.w3.org/Graphics/SVG/1.1/DTD/svg11.dtd">
<svg version="1.1" xmlns="http://www.w3.org/2000/svg" xmlns:xlink="http://www.w3.org/1999/xlink" x="0px" y="0px"
	 width="130.876px" height="336.639px" viewBox="0 0 130.876 336.639" enable-background="new 0 0 130.876 336.639"
	 xml:space="preserve">
<g id="Layer_3" display="none">
	<g display="inline">
		<path fill="#666666" d="M116.981,403.004l-24.334-0.351c-4.253-13.399,15.32-8.973,15.334-9.334c0.022-0.602-1-6-1-6
			c4.087-3.268,10.333,0,10.333,0L116.981,403.004z"/>
		<g>
			<path fill="#666666" d="M116.981,401.504c-8.111-0.117-16.223-0.233-24.334-0.351c0.482,0.367,0.964,0.734,1.446,1.102
				c-1.721-6.146,2.497-7.806,7.821-7.856c1.958-0.02,4.99,1.034,6.823,0.216c0.441-0.196,0.78-0.822,0.743-1.295
				c-0.167-2.146-0.655-4.285-1.054-6.398c-0.229,0.564-0.459,1.129-0.689,1.693c2.057-1.303,3.759-1.41,6.095-0.953
				c0.632,0.152,1.252,0.344,1.859,0.574c0.993,0.603,1.033,0.323,0.12-0.837c-0.034,1.628-0.069,3.256-0.104,4.884
				c-0.076,3.574-0.151,7.147-0.228,10.722c-0.041,1.936,2.959,1.932,3,0c0.111-5.229,0.222-10.456,0.333-15.685
				c0.011-0.497-0.286-1.068-0.743-1.295c-3.827-1.898-8.146-2.347-11.847,0c-0.606,0.384-0.819,1.006-0.689,1.693
				c0.262,1.391,0.512,2.783,0.751,4.178c0.211,1.236,2.536,0.072,0.331-0.182c-2.633-0.304-5.312-0.48-7.946-0.109
				c-6.397,0.9-9.22,5.198-7.47,11.447c0.182,0.65,0.775,1.092,1.446,1.102c8.111,0.117,16.223,0.233,24.334,0.351
				C118.917,404.533,118.914,401.533,116.981,401.504z"/>
		</g>
	</g>
	<g display="inline">
		<path fill="#CC9933" d="M124.647,355.32c-5.333,4.667-4.666,22-3.333,30.667c-5.503-0.119-11.333-0.119-16.667,0
			c-2.666-9.333-10-24.667-5.333-33.333"/>
		<g>
			<path fill="#CC9933" d="M123.587,354.259c-3.511,3.503-4.104,8.914-4.521,13.617c-0.544,6.14-0.084,12.424,0.803,18.509
				c0.482-0.633,0.964-1.266,1.446-1.898c-5.557-0.106-11.11-0.109-16.667,0c0.482,0.367,0.964,0.734,1.446,1.102
				c-2.799-9.43-10.104-22.403-5.484-32.178c0.822-1.738-1.764-3.262-2.59-1.514c-5.158,10.914,2.063,23.986,5.182,34.488
				c0.188,0.632,0.771,1.115,1.446,1.102c5.557-0.109,11.11-0.106,16.667,0c1.067,0.021,1.582-0.967,1.446-1.898
				c-0.73-5.014-0.974-10.081-0.839-15.143c0.12-4.487,0.395-10.681,3.786-14.065C127.079,355.013,124.957,352.891,123.587,354.259
				L123.587,354.259z"/>
		</g>
	</g>
	<g display="inline">
		<path fill="#F1D53C" d="M121.647,278.654c-17.333,2.666-27.333,22-34,39.333c-4,11.333-9.577,42.667-9.577,42.667l67.574,4.168
			c0,0-1.997-39.502-7.33-54.168c-2-6-10.667-40.667-20.667-32"/>
		<g>
			<path fill="#F1D53C" d="M121.249,277.208c-19.274,3.473-30.048,25.026-35.556,41.897c-4.333,13.272-6.62,27.426-9.069,41.15
				c-0.178,0.994,0.412,1.835,1.446,1.898c22.524,1.39,45.05,2.778,67.574,4.168c0.787,0.049,1.54-0.72,1.5-1.5
				c-0.93-18.162-1.84-37.539-7.499-54.922c-2.267-6.959-10.286-42.405-23.059-32.307c-1.518,1.199,0.621,3.308,2.121,2.121
				c8.137-6.434,18.118,30.331,19.661,36.419c3.982,15.715,4.948,32.535,5.775,48.688c0.5-0.5,1-1,1.5-1.5
				c-22.524-1.39-45.05-2.778-67.574-4.168c0.482,0.633,0.964,1.266,1.446,1.898c2.188-12.261,4.563-24.547,7.749-36.592
				c4.555-17.225,15.283-40.848,34.78-44.36C123.948,279.757,123.14,276.867,121.249,277.208L121.249,277.208z"/>
		</g>
	</g>
	<g display="inline">
		<g>
			<path fill="#F4D7D1" d="M123.046,233.433c8.46-1.721,12.923,12.734,12.102,19.221c-0.242,1.916,2.761,1.893,3,0
				c1.106-8.74-5.16-24.298-15.898-22.113C120.354,230.926,121.158,233.817,123.046,233.433L123.046,233.433z"/>
		</g>
	</g>
	<g display="inline">
		<path fill="#375C74" d="M127.585,229.654c-1.334-1.333,0.333-0.332-0.334-2.332c13.334-8.667,13.667,9.665,1,2.332"/>
		<g>
			<path fill="#375C74" d="M128.646,228.593c-0.107-0.109-0.214-0.22-0.315-0.335c0.146,0.197,0.178,0.239,0.097,0.125
				c-0.01-0.016-0.02-0.032-0.029-0.048c0.105,0.188,0.156,0.39,0.153,0.606c-0.002,0.231-0.06,0.448-0.173,0.65
				c-0.208,0.356-0.261,0.32-0.149,0.208c0.126-0.127,0.235-0.274,0.339-0.418c0.506-0.706,0.374-1.686,0.13-2.457
				c-0.229,0.565-0.459,1.129-0.689,1.694c0.871-0.563,1.774-1.073,2.724-1.492c0.344-0.152-0.303,0.123,0.038-0.015
				c0.097-0.039,0.193-0.076,0.291-0.112c0.186-0.07,0.374-0.133,0.563-0.194c0.373-0.12,0.753-0.214,1.137-0.289
				c0.082-0.016,0.164-0.029,0.246-0.042c0.308-0.05-0.383,0.046-0.079,0.01c0.152-0.018,0.305-0.028,0.458-0.037
				c0.304-0.016,0.608-0.004,0.91,0.027c0.272,0.029-0.408-0.06-0.142-0.018c0.063,0.01,0.124,0.022,0.186,0.035
				c0.12,0.024,0.237,0.055,0.354,0.089c0.111,0.032,0.221,0.071,0.329,0.113c0.232,0.089-0.377-0.165-0.152-0.063
				c0.066,0.03,0.132,0.063,0.196,0.097c0.094,0.05,0.184,0.105,0.272,0.164c0.044,0.028,0.086,0.058,0.128,0.088
				c0.191,0.137-0.324-0.257-0.143-0.109c0.165,0.135,0.313,0.29,0.447,0.455c-0.388-0.477,0.013,0.044,0.101,0.211
				c0.021,0.041,0.041,0.083,0.061,0.125c0.097,0.205-0.162-0.398-0.079-0.188c0.04,0.1,0.072,0.202,0.101,0.306
				c0.024,0.088,0.043,0.178,0.06,0.268c0.058,0.309-0.045-0.47-0.014-0.083c0.016,0.197,0.008,0.395-0.015,0.591
				c0.074-0.656-0.015-0.005-0.074,0.181c-0.043,0.138-0.203,0.492,0.036-0.057c-0.044,0.1-0.095,0.196-0.148,0.291
				c-0.055,0.096-0.117,0.188-0.182,0.277c-0.132,0.182,0.287-0.354,0.085-0.116c-0.042,0.049-0.087,0.097-0.132,0.144
				c-0.092,0.096-0.192,0.184-0.296,0.267c0.465-0.376,0.055-0.052-0.08,0.029c-0.109,0.065-0.223,0.122-0.337,0.175
				c-0.215,0.1,0.419-0.166,0.098-0.044c-0.072,0.027-0.146,0.051-0.22,0.074c-0.155,0.049-0.313,0.085-0.474,0.116
				c-0.123,0.024-0.468,0.066,0.082-0.004c-0.089,0.011-0.178,0.019-0.267,0.025c-0.363,0.027-0.73,0.012-1.093-0.024
				c-0.408-0.041,0.274,0.043,0.001,0c-0.11-0.017-0.221-0.038-0.33-0.06c-0.233-0.046-0.464-0.104-0.693-0.168
				c-0.248-0.069-0.493-0.15-0.735-0.236c-0.13-0.046-0.257-0.095-0.385-0.145c-0.065-0.026-0.131-0.053-0.196-0.08
				c0.193,0.082,0.213,0.09,0.06,0.023c-0.583-0.254-1.146-0.551-1.697-0.868c-1.68-0.965-3.19,1.627-1.514,2.591
				c2.653,1.524,6.192,2.85,9.121,1.266c1.913-1.034,2.911-3.481,2.132-5.54c-0.738-1.948-2.445-2.962-4.452-3.202
				c-2.734-0.326-5.585,1.121-7.801,2.552c-0.552,0.356-0.898,1.035-0.689,1.694c0.038,0.122,0.154,0.792,0.106,0.316
				c0.042,0.415,0.108-0.289,0.008,0.02c0.128-0.273,0.156-0.349,0.084-0.227c0.228-0.37,0.23-0.284,0.13-0.179
				c-0.127,0.133-0.233,0.274-0.345,0.424c-0.681,0.918,0.097,1.992,0.736,2.639c0.574,0.582,1.546,0.575,2.121,0
				C129.227,230.134,129.22,229.175,128.646,228.593L128.646,228.593z"/>
		</g>
	</g>
	<g display="inline">
		<g>
			<path fill="#F1A793" d="M96.535,256.921c-0.321,0.892-0.903,1.656-1.262,2.533c-0.39,0.954-0.359,1.952-0.072,2.931
				c0.216,0.734,1.067,1.334,1.845,1.048c1.063-0.391,1.994-1.047,2.193-2.239c0.193-1.159-0.075-2.317,0.188-3.476
				C99.856,255.834,96.964,255.035,96.535,256.921c-0.215,0.942-0.285,1.883-0.243,2.847c0.009,0.184,0.017,0.367,0.021,0.551
				c0.001,0.02-0.044,0.536,0.009,0.22c-0.049,0.293-0.009,0.028,0.066-0.056c0.117-0.131-0.056,0.026-0.14,0.058
				c0.615,0.349,1.229,0.698,1.845,1.048c-0.188-0.643-0.086-1.007,0.233-1.581c0.417-0.748,0.809-1.479,1.101-2.289
				C100.086,255.894,97.187,255.116,96.535,256.921L96.535,256.921z"/>
		</g>
	</g>
	<g display="inline">
		<path fill="#F4D7D1" d="M105.314,237.987c-4.666,2.667-4,6-4.667,11.333c-0.666,5.334-0.666,31.334,4,28.667l23.334-3.333
			c2.666-8,8-9.334,8.666-17.334c0.667-6.666-0.666-18.666-6-22.666C124.647,229.987,109.981,231.987,105.314,237.987"/>
		<g>
			<path fill="#F4D7D1" d="M104.558,236.691c-6.173,4.014-5.6,12.161-5.713,18.805c-0.113,6.654-0.743,15.619,2.236,21.802
				c1.766,3.666,5.937,1.854,9.17,1.392c6.043-0.863,12.086-1.727,18.129-2.59c0.531-0.076,0.879-0.596,1.048-1.048
				c2.582-6.904,8.175-11.063,8.805-18.771c0.521-6.386-0.565-13.442-3.554-19.132c-5.387-10.257-23.85-7.783-30.425-0.224
				c-1.264,1.452,0.85,3.583,2.121,2.121c4.467-5.134,12.797-6.261,19.164-5.02c8.26,1.609,9.477,11.849,9.753,18.759
				c0.139,3.489-0.211,6.93-1.89,10.048c-1.561,2.896-3.941,5.276-5.524,8.187c-1.151,2.114,0.289,2.103-2.023,2.434
				c-2.038,0.291-4.076,0.582-6.114,0.873c-4.396,0.628-8.792,1.256-13.188,1.884c-0.868,0.124-1.85,0.13-2.662,0.48
				c0.079-0.034-1.01-3.919-1.152-4.724c-0.96-5.381-0.948-11.022-0.894-16.472c0.053-5.234-0.54-13.114,4.227-16.215
				C107.687,238.232,106.185,235.633,104.558,236.691L104.558,236.691z"/>
		</g>
	</g>
	<g display="inline">
		<g>
			<path fill="#F1A793" d="M125.535,254.718c0.769,1.912,1.022,3.871,1.051,5.922c0.012,0.862-0.063,1.724-0.151,2.58
				c-0.154,1.495-1.225,0.184-2.03-0.321c-1.645-1.03-3.148,1.565-1.514,2.59c1.229,0.771,2.251,1.59,3.757,1.595
				c1.669,0.005,2.424-1.475,2.653-2.861c0.56-3.376,0.412-7.103-0.873-10.301C127.716,252.15,124.813,252.922,125.535,254.718
				L125.535,254.718z"/>
		</g>
	</g>
	<g display="inline">
		<g>
			<path fill="#FDFDFD" d="M101.812,253.572c1.938-0.032,3.932-0.464,5.852-0.054c1.887,0.403,2.688-2.488,0.797-2.893
				c-2.227-0.477-4.404-0.091-6.648-0.054C99.879,250.604,99.876,253.604,101.812,253.572L101.812,253.572z"/>
		</g>
	</g>
	<polygon display="inline" fill="#FDFDFD" stroke="#FDFDFD" stroke-miterlimit="10" points="139.314,262.428 131.981,258.322 
		129.683,269.271 127.981,274.654 131.981,276.32 135.314,269.654 	"/>
	<g display="inline">
		<g>
			<path fill="#FDFDFD" d="M136.258,270.72c0.214-0.514,0.465-0.891,0.612-1.422c0.138-0.495,0.005-1.106-0.386-1.459
				c-0.71-0.641-1.219-0.67-2.173-0.768c-1.247-0.127-2.068,1.772-1.061,2.561c2.702,2.112,5.58,1.507,6.852-1.766
				c1.283-3.305-1.626-5.731-4.689-4.491c-1.09,0.44-1.432,1.58-0.662,2.507c2.299,2.77,6.479,1.291,5.007-2.459
				c-0.349,0.615-0.698,1.229-1.048,1.845c0.861-0.179,1.132-0.457,1.858-0.901c0.999-0.61,1.005-2.543-0.358-2.741
				c-3.146-0.459-3.853-3.54-7.405-1.849c0.684,0.179,1.368,0.358,2.052,0.538c-0.472-0.717-1.18-1.55-1.349-2.392
				c-0.295-1.471-2.552-1.401-2.893,0c-0.563,2.313-0.196,4.646-0.717,6.964c-0.41,1.828-1.385,3.26-1.587,5.185
				c0.5-0.5,1-1,1.5-1.5c-1.896-0.016-2.37,1.463-2.696,3.102c-0.318,1.6,1.898,2.729,2.741,1.155c0.12-0.268,0.291-0.5,0.516-0.696
				c-0.785-0.605-1.57-1.212-2.355-1.817c-0.679,1.286-0.915,2.306-0.955,3.757c-0.025,0.898,0.993,1.809,1.898,1.446
				c0.222-0.089,1.43-1.021,0.75-0.75c-0.564-0.734-1.129-1.469-1.693-2.203c-0.167,0.333-0.334,0.666-0.5,1
				c-0.451,0.9-0.059,1.876,0.896,2.203c0.667,0.229,0.951,0.295,1.639,0.239c-0.366,0.029-1.303-1.244-0.285,0.321
				c0.564,0.87,1.588,0.928,2.355,0.304c0.396-0.27,0.729-0.603,1-1c-0.707-0.707-1.414-1.414-2.121-2.121
				c-0.578,0.747-0.856,1.267-1.136,2.162c-0.449,1.438,1.479,2.529,2.507,1.459c0.562-0.53,1.062-1.113,1.5-1.75
				c-0.854-0.354-1.707-0.707-2.561-1.061c-0.125,0.583-0.125,1.167,0,1.75c0.127,1.181,1.164,1.803,2.257,1.295
				c2.717-1.26,3.167-3.886,1.304-6.105c-0.749-0.893-2.218-0.349-2.507,0.662c-0.021,0.072-0.042,0.146-0.063,0.219
				c-0.289,1.011,0.499,1.804,1.446,1.898c0.104,0.011,0.208,0.021,0.313,0.031c0.487,0.049,1.079-0.314,1.295-0.743
				c1.109-2.198,1.005-4.001-0.734-5.817c-0.526-0.55-1.606-0.62-2.121,0c-1.488,1.795-1.968,4.449,1.007,4.798
				c3.407,0.4,4.253-4.038,3.75-6.386c-0.356-1.665-3.001-1.282-2.946,0.398c0.028,0.878,0.071,1.319,0.304,2.148
				c0.3,1.07,1.717,1.482,2.507,0.662c1.248-1.296,1.756-2.419,1.386-4.209c-0.391-1.895-3.282-1.091-2.893,0.797
				c-0.205,0.431-0.409,0.86-0.614,1.291c0.836,0.221,1.671,0.441,2.507,0.662c-0.065-0.451-0.131-0.901-0.196-1.352
				c-0.982,0.133-1.964,0.266-2.946,0.398c0.249,0.689,0.219,1.361-0.089,2.016c-0.149,0.151-0.299,0.302-0.448,0.452
				c-0.685,0.187-0.42,0.335,0.794,0.444c-0.707,0-1.414,0-2.121,0c0.088,0.728,0.177,1.455,0.266,2.183
				c0.432-0.248,0.863-0.495,1.295-0.743c-0.104-0.011-0.208-0.021-0.313-0.031c0.482,0.633,0.964,1.266,1.446,1.898
				c0.021-0.072,0.042-0.146,0.063-0.219c-0.836,0.221-1.671,0.441-2.507,0.662c-0.232,0.465-0.465,0.93-0.696,1.395
				c0.752,0.432,1.505,0.863,2.257,1.295c-0.125-0.583-0.125-1.167,0-1.75c0.134-1.245-1.779-2.07-2.561-1.061
				c-0.438,0.637-0.938,1.22-1.5,1.75c0.836,0.486,1.671,0.973,2.507,1.459c0.061-0.306,0.183-0.585,0.364-0.838
				c1.152-1.491-0.855-3.625-2.121-2.121c-0.271,0.396-0.604,0.73-1,1c0.785,0.102,1.57,0.202,2.355,0.304
				c-1.082-1.666-1.218-1.279-3.146-1.939c0.299,0.734,0.598,1.469,0.896,2.203c0.167-0.333,0.334-0.666,0.5-1
				c0.522-1.044-0.359-2.737-1.693-2.203c-0.222,0.089-1.43,1.021-0.75,0.75c0.633,0.482,1.266,0.964,1.898,1.446
				c0.182-0.748,0.363-1.495,0.545-2.243c0.821-1.555-1.068-2.91-2.355-1.817c-0.437,0.37-0.715,0.799-0.984,1.304
				c0.914,0.385,1.827,0.771,2.741,1.155c0.482-0.853,0.417-1.151-0.196-0.898c0.882,0.007,1.415-0.692,1.5-1.5
				c0.199-1.896,1.282-3.507,1.696-5.352c0.448-1.996,0.013-3.998,0.5-6c-0.964,0-1.929,0-2.893,0
				c0.264,1.313,0.925,2.007,1.651,3.108c0.479,0.727,1.282,0.904,2.052,0.538c1.29-0.613,3.592,1.933,5.095,2.151
				c-0.12-0.914-0.239-1.827-0.358-2.741c-0.413,0.252-0.681,0.502-1.142,0.599c-0.74,0.154-1.334,1.117-1.048,1.845
				c0.002-0.152,0.005-0.306,0.007-0.459c-0.221,0.836-0.441,1.671-0.662,2.507c2.195-0.888,0.857,2.567-0.838,1.243
				c-0.354,0.854-0.707,1.707-1.061,2.561c0.018-0.037,0.034-0.074,0.052-0.111c-0.129-0.486-0.258-0.973-0.386-1.459
				c-0.127,0.456-0.431,0.984-0.612,1.422C132.621,271.708,135.524,272.479,136.258,270.72L136.258,270.72z"/>
		</g>
	</g>
	<g display="inline">
		<g>
			<path fill="#999999" d="M104.062,257.072c1.935,0,1.935-3,0-3S102.127,257.072,104.062,257.072L104.062,257.072z"/>
		</g>
	</g>
	<g display="inline">
		<g>
			<path fill="#FDFDFD" d="M121.062,255.822c-0.009,0.181-0.008,0.188,0.003,0.02c-0.079,0.387,0.126-0.182-0.064,0.166
				c-0.188,0.344,0.153-0.135-0.127,0.139c0.209-0.204-0.232,0.084,0.04-0.021c-0.764,0.292-1.28,0.999-1.048,1.845
				c0.201,0.731,1.08,1.34,1.845,1.048c1.397-0.534,2.289-1.682,2.352-3.196c0.034-0.817-0.708-1.5-1.5-1.5
				C121.719,254.322,121.095,255.005,121.062,255.822L121.062,255.822z"/>
		</g>
	</g>
	<g display="inline">
		<g>
			<path fill="#FDFDFD" d="M121.46,255.375c-1.745-0.582-2.585-0.835-3.693,0.689c0.684-0.18,1.368-0.359,2.052-0.538
				c-1.771-0.909-3.039-2.148-4.817-0.766c-0.438,0.341-0.468,0.971-0.386,1.459c0.011,0.063,0.021,0.125,0.031,0.188
				c0.201,1.208,1.74,1.319,2.507,0.662c1.083-0.929,0.712-2.296-0.335-3.043c-0.839-0.6-1.909,0.057-2.203,0.896
				c-0.352,1.005-0.631,1.906-1.099,2.892c0.914,0.385,1.827,0.771,2.741,1.155c0.244-0.475,0.41-0.975,0.5-1.5
				c0.457-1.917-2.205-2.569-2.893-0.797c-0.517,1.331-0.709,2.489-0.804,3.898c-0.113,1.685,2.615,2.056,2.946,0.398
				c0.083-0.416,0.167-0.833,0.25-1.25c0.327-1.637-1.832-2.663-2.741-1.155c-0.877,1.452-1.23,2.556-1.205,4.257
				c0.025,1.686,2.501,2.053,2.946,0.398c0.16-0.594,0.261-1.05,0.304-1.648c0.104-1.443-2.186-2.117-2.795-0.757
				c-0.646,1.438-1.018,2.69-1.205,4.257c0.633-0.482,1.266-0.964,1.898-1.446c-0.11-0.032-0.221-0.065-0.332-0.098
				c-0.858-0.253-1.535,0.304-1.845,1.048c-0.385,0.924-0.507,1.861-0.668,2.848c0.982,0.133,1.964,0.266,2.946,0.398
				c0.065-0.45,0.131-0.9,0.196-1.352c0.415-1.658-1.848-2.616-2.741-1.155c-0.869,1.42-1.246,2.61-1.455,4.257c1,0,2,0,3,0
				c0-0.667,0-1.333,0-2c0-1.433-2.109-2.128-2.795-0.757c-0.703,1.406-0.81,1.605-1.151,3.108c0.982,0.133,1.964,0.266,2.946,0.398
				c0-0.417,0-0.833,0-1.25c0-1.787-2.366-1.919-2.946-0.398c-0.226,0.591-0.523,1.156-0.75,1.75
				c0.982,0.133,1.964,0.266,2.946,0.398c0-0.667,0-1.333,0-2c0-1.767-2.39-1.945-2.946-0.398c-0.2,0.464-0.399,0.928-0.599,1.392
				c-0.617,1.274,0.38,2.381,1.693,2.203c0.049-0.007,0.097-0.013,0.145-0.02c0.453-0.062,0.982-0.598,1.048-1.048
				c0.079-0.547,0.146-1.075,0.159-1.629c0.035-1.462-2.104-2.09-2.795-0.757c-0.195,0.436-0.45,0.835-0.766,1.196
				c0.854,0.354,1.707,0.707,2.561,1.061c0-0.5,0-1,0-1.5c0-1.309-1.635-1.986-2.561-1.061c-0.417,0.417-0.833,0.833-1.25,1.25
				c0.836,0.486,1.671,0.973,2.507,1.459c0.115-0.768,0.115-1.279,0-2.047c-0.098-0.649-0.84-1.102-1.446-1.102
				c-2.017,0,0.24,0.479-1.002-0.249c-0.632-0.37-1.263-0.176-1.896,0.053c0.633,0.482,1.266,0.964,1.898,1.446c0-0.25,0-0.5,0-0.75
				c0-1.038-1.315-2.002-2.257-1.295c-0.334,0.25-0.667,0.5-1,0.75c0.684,0.179,1.368,0.358,2.052,0.538
				c-0.131-0.235-0.297-0.437-0.475-0.637c-0.481-0.542-1.221-0.497-1.818-0.235c-0.253,0.111-0.506,0.223-0.759,0.334
				c0.752,0.432,1.505,0.863,2.257,1.295c0.004-1.143,0.059-1.544-0.549-2.444c-0.397-0.591-0.995-0.835-1.693-0.689
				c-1.092,0.227-1.409,0.584-2.318,1.323c0.836,0.221,1.671,0.441,2.507,0.662c-0.063-0.504-0.146-1.004-0.25-1.5
				c-0.234-1.233-1.708-1.283-2.507-0.662c-0.394,0.306-0.784,0.585-0.984,1.054c0.914,0.119,1.827,0.238,2.741,0.358
				c-0.013-0.028-0.026-0.056-0.039-0.083c-0.053-0.845-0.644-1.461-1.5-1.5c-1.585-0.072-2.726,1.298-2.104,2.88
				c0.315,0.805,0.976,1.222,1.845,1.048c1.133-0.227,1.55-1.417,1.602-2.446c0.081-1.615-1.997-1.878-2.795-0.757
				c-0.811,1.137-0.837,1.62-0.705,3.007c0.142,1.489,1.927,2.043,2.795,0.757c0.659-0.976,0.756-1.584,0.705-2.757
				c-0.055-1.265-1.615-2.041-2.561-1.061c-1.076,1.116-1.377,1.349-1.377,2.842c0,0.483,0.275,1.087,0.743,1.295
				c1.425,0.637,1.804,0.497,3.201-0.281c-0.605-0.785-1.212-1.57-1.817-2.355c-1.547,1.397-1.609,2.478-1.136,4.459
				c0.275,1.151,1.703,1.386,2.507,0.662c0.709-0.639,0.934-0.978,1.484-1.804c0.888-1.331-0.8-2.694-2.052-2.052
				c-2.268,1.162-2.563,3.081-2.189,5.443c0.229,1.453,2.063,1.243,2.741,0.358c0.871-1.133,1.064-1.828,0.955-3.257
				c-0.105-1.388-1.519-1.876-2.561-1.061c-1.909,1.494-2.297,3.164-1.636,5.459c0.376,1.305,2.027,1.416,2.741,0.358
				c0.659-0.976,0.756-1.584,0.705-2.757c-0.053-1.213-1.651-2.109-2.561-1.061c-2.332,2.69-1.911,8.695,2.371,5.371
				c-0.707-0.707-1.414-1.414-2.121-2.121c-1.715,1.375-1.956,2.625-1.386,4.709c0.238,0.872,1.403,1.468,2.203,0.896
				c1.648-1.175,2.243-1.988,2.243-4.045c0-1.412-2.14-2.156-2.795-0.757c-0.417,0.888-0.638,1.42-0.901,2.358
				c-0.262,0.932,0.474,1.91,1.446,1.898c1.856-0.022,2.388,0.076,3.545-1.493c-0.914-0.385-1.827-0.771-2.741-1.155
				c-0.256,0.645-0.423,1.312-0.5,2c-0.193,1.121,1.029,2.583,2.203,1.693c1.131-0.856,1.99-1.609,2.788-2.788
				c0.881-1.299-0.804-2.745-2.052-2.052c-0.544,0.302-0.968,0.754-1.288,1.288c-0.641,1.066,0.426,2.669,1.693,2.203
				c1.303-0.479,1.819-0.813,2.646-1.939c-0.932-0.252-1.863-0.505-2.795-0.757c-0.078,0.888-0.061,1.309,0.054,2.148
				c0.165,1.215,1.764,1.312,2.507,0.662c1.115-0.975,1.587-1.571,2.136-2.912c-0.982-0.133-1.964-0.266-2.946-0.398
				c0,0.583,0,1.167,0,1.75c0,1.138,1.274,1.868,2.257,1.295c0.524-0.306,0.975-0.693,1.5-1c-0.605-0.785-1.212-1.57-1.817-2.355
				c-0.094,0.094-0.188,0.188-0.281,0.281c-0.473,0.473-0.581,1.24-0.234,1.817c0.094,0.156,0.188,0.313,0.281,0.469
				c0.451,0.753,1.302,0.882,2.052,0.538c0.654-0.299,1.422-0.628,1.788-1.288c-0.914-0.119-1.827-0.238-2.741-0.358
				c0.112,0.678,0.368,0.969,0.886,1.412c0.574,0.492,1.571,0.664,2.121,0c0.287-0.364,0.603-0.703,0.946-1.016
				c-0.684-0.684-1.368-1.368-2.052-2.052c-0.475,0.79-0.391,1.279-0.151,2.155c0.282,1.036,1.75,1.527,2.507,0.662
				c0.438-0.563,0.938-1.063,1.5-1.5c-0.605,0.078-1.212,0.156-1.817,0.234c2.035,1.229,3.491,0.81,5.655-0.099
				c1.727-0.725,1.131-3.407-0.797-2.893c-0.395,0.105-0.737,0.236-1.108,0.401c0.605,0.785,1.212,1.57,1.817,2.355
				c2.289-2.039,4.535-1.863,4.439-5.811c-0.028-1.186-1.696-2.148-2.561-1.061c-0.65,0.817-1.084,1.409-1.386,2.412
				c-0.354,1.177,1.116,2.497,2.203,1.693c1.755-1.297,2.383-2.351,2.493-4.545c0.059-1.171-1.308-1.822-2.257-1.295
				c-0.544,0.302-0.968,0.754-1.288,1.288c-0.895,1.491,1.133,2.976,2.355,1.817c1.287-1.219,1.391-2.303,1.439-4.061
				c0.042-1.501-2.064-2.036-2.795-0.757c-0.301,0.475-0.551,0.975-0.75,1.5c-0.64,1.438,1.155,3.212,2.355,1.817
				c1.467-1.703,1.942-3.282,1.136-5.459c-0.366-0.99-1.69-1.565-2.507-0.662c-0.63,0.695-0.824,0.95-1.234,1.804
				c-0.702,1.457,1.149,3.156,2.355,1.817c1.26-1.397,1.545-2.402,1.439-4.311c-0.063-1.141-1.225-1.861-2.257-1.295
				c-0.962,0.527-1.252,0.746-2.054,1.484c0.707,0.707,1.414,1.414,2.121,2.121c0.844-1.03,1.099-1.372,1.734-2.554
				c-0.863,0-1.727,0-2.59,0c0.032,0.131,0.065,0.262,0.099,0.392c0.274,1.029,1.762,1.536,2.507,0.662
				c1.442-1.689,1.857-2.81,1.136-4.959c-0.393-1.169-2.094-1.567-2.741-0.358c-0.42,0.782-0.632,1.269-0.901,2.108
				c-0.335,1.04,0.776,2.229,1.845,1.845c4.947-1.78,1.816-8.121-1.709-4.507c-1.165,1.194,0.361,3.315,1.817,2.355
				c1.089-0.717,1.675-1.386,2.288-2.538c0.667-1.251-0.735-2.935-2.052-2.052c-1.333,0.894-1.569,1.464-1.743,3.045
				c-0.149,1.361,1.707,1.903,2.561,1.061c1.004-0.99,1.353-1.782,1.636-3.162c0.308-1.499-1.356-2.461-2.507-1.459
				c-0.922,0.803-1.179,0.981-1.448,2.1c-0.203,0.842,0.26,1.562,1.048,1.845c1.175,0.423,1.636,0.04,2.718-0.589
				c1.201-0.697,0.811-2.303-0.358-2.741c-1.37-0.514-1.804-0.429-3.155,0.151c0.605,0.785,1.212,1.57,1.817,2.355
				c0.417-0.333,0.833-0.667,1.25-1c1.096-0.876,0.117-2.514-1.061-2.561c-2.177-0.088-3.502,0.56-4.545,2.493
				c-0.646,1.198,0.403,2.475,1.693,2.203c1.521-0.32,1.645-2.032,1.146-3.203c-0.331-0.781-1.398-0.875-2.052-0.538
				c-2.78,1.431-2.558,4.427-1.038,6.802c0.734,1.149,2.292,0.855,2.741-0.358c0.652-1.762,0.496-2.803-0.401-4.405
				c-0.486-0.87-1.661-0.948-2.355-0.304c-2.566,2.382-2.391,5.538-0.25,8.121c0.801,0.967,2.129,0.269,2.507-0.662
				c0.536-1.318,0.803-3.076-0.001-4.333c-0.478-0.747-1.28-0.879-2.052-0.538c-3.352,1.482-2.307,6.695-1.188,9.229
				c0.441,1.001,2.136,0.962,2.59,0c1.252-2.647,0.868-4.94-1.484-6.817c-0.719-0.574-1.862-0.625-2.355,0.304
				c-1.395,2.621-1.395,4.893,0,7.514c0.483,0.909,1.651,0.903,2.355,0.304c1.906-1.624,2.657-4.623-0.085-5.887
				c-3.731-1.721-4.652,3.387-4.476,5.826c0.108,1.501,1.946,2.03,2.795,0.757c1.407-2.11,1.407-3.903,0-6.014
				c-0.507-0.762-1.679-1.064-2.355-0.304c-2.358,2.648-3.018,6.628-0.5,9.371c0.634,0.69,1.922,0.536,2.355-0.304
				c1.178-2.277,1.293-3.945,0.25-6.264c-0.582-1.295-2.354-0.73-2.741,0.358c-0.808,2.271-0.65,4.286,1.722,5.334
				c1.279,0.564,3.369,0.063,3.784-1.445c0.319-1.161-0.094-3.361-1.507-3.682c-2.048-0.464-2.663,1.103-3.249,2.793
				c-0.3,0.863,0.504,1.994,1.446,1.898c2.54-0.257,3.853-1.569,3.5-4.25c-0.098-0.744-0.61-1.588-1.5-1.5
				c-3.285,0.326-5.248,2.601-5.696,5.852c-0.188,1.369,1.356,2.653,2.507,1.459c1.347-1.397,2.502-4.094,0.044-5.123
				c-3.18-1.332-4.346,2.821-4.604,5.063c-0.18,1.552,2.087,1.95,2.795,0.757c1.054-1.775,1.142-2.936,0.401-4.905
				c-0.311-0.826-1.354-1.509-2.203-0.896c-2.037,1.467-2.924,2.991-2.993,5.545c-0.034,1.266,1.688,2.045,2.561,1.061
				c4.775-5.393-3.402-9.191-4.757-2.459c-0.243,1.209,1.018,2.457,2.203,1.693c5.983-3.85-5.509-9.761-4.757-1.045
				c0.111,1.295,1.551,1.996,2.561,1.061c5.365-4.969-4.738-10.686-4.311-1.561c0.05,1.072,1.258,1.953,2.257,1.295
				c1.974-1.298,3.384-4.484,0.361-5.651c-3.628-1.401-3.938,3.186-3.564,5.505c0.16,0.996,1.428,1.316,2.203,0.896
				c2.878-1.556,3.805-4.81-0.226-5.295c-4.238-0.511-3.039,3.952-0.788,5.545c3.243,2.296,3.832-1.413,2.51-3.731
				c-2.243-3.933-4.975-1.493-4.503,2.187c0.172,1.342,1.481,1.929,2.561,1.061c4.762-3.828-2.187-10.386-3.507-3.709
				c-0.373,1.883,2.478,2.695,2.893,0.797c0.201-0.921,0.274-1.458,0.304-2.398c0.044-1.396-1.625-1.868-2.561-1.061
				c-3.823,3.298-2.167,9.931,2.412,11.507c1.834,0.632,2.615-2.267,0.797-2.893c-2.713-0.935-3.005-4.839-1.088-6.493
				c-0.854-0.354-1.707-0.707-2.561-1.061c-0.065,0.534-0.131,1.067-0.196,1.602c0.964,0.266,1.929,0.531,2.893,0.797
				c-0.502,0.264-1.005,0.527-1.507,0.791c0.854,0.354,1.707,0.707,2.561,1.061c-0.112-0.616-0.168-1.237-0.166-1.862
				c0.064,1.794-1.793-0.337-0.654,1.657c0.552,0.968,2.577,0.163,0.863-1.229c0.029,0.023-0.799-0.268-1.55,0.139
				c0.734,0.299,1.469,0.598,2.203,0.896c-0.401-0.549-0.802-1.098-1.203-1.646c0.752,0.432,1.505,0.863,2.257,1.295
				c0.253-1.455-0.018-1.643-0.811-0.561c0.854,0.354,1.707,0.707,2.561,1.061c-0.286-0.615-0.205-1.13,0.243-1.545
				c0.734,0.564,1.469,1.129,2.203,1.693c-0.086-0.152-0.171-0.306-0.257-0.459c0.854,0.354,1.707,0.707,2.561,1.061
				c0.502-0.985,1.005-1.97,1.507-2.955c-0.734-0.299-1.469-0.598-2.203-0.896c-0.033,0.865-0.066,1.729-0.099,2.595
				c0.932,0.252,1.863,0.505,2.795,0.757c-0.187-0.687-0.374-1.374-0.561-2.061c0.836,0.486,1.671,0.973,2.507,1.459
				c-0.01-1.702,0.925-2.919,2.804-3.648c-0.5-0.5-1-1-1.5-1.5c-0.167,0.417-0.333,0.833-0.5,1.25
				c0.482,0.633,0.964,1.266,1.446,1.898c-0.25-1-0.5-2-0.75-3c-0.914,0.12-1.827,0.239-2.741,0.358
				c-0.084,1.079-0.167,2.157-0.25,3.236c0.785-0.102,1.57-0.202,2.355-0.304c-1.042-1.917-0.876-3.626,0.5-5.129
				c-0.785-0.102-1.57-0.202-2.355-0.304c0,0.995,0,1.991,0,2.986c0.932,0.252,1.863,0.505,2.795,0.757
				c0.15-0.798-0.036-1.484-0.561-2.061c0.785,0.102,1.57,0.202,2.355,0.304c0-1.495,0-2.991,0-4.486
				c-0.785,0.102-1.57,0.202-2.355,0.304c0.338,1.061,0.677,2.122,1.016,3.183c0.863,0,1.727,0,2.59,0
				c-0.998-1.771-0.961-3.479,0.112-5.125c-0.684-0.18-1.368-0.358-2.052-0.538c0.372,0.582-0.069,1.449-0.302,2.021
				c0.836-0.221,1.671-0.441,2.507-0.662c0.083-1.293,0.167-2.586,0.25-3.879c-0.785-0.102-1.57-0.202-2.355-0.304
				c0.032,0.698,0.065,1.396,0.099,2.095c0.914-0.12,1.827-0.239,2.741-0.358c-0.013-0.899-0.025-1.799-0.038-2.698
				c-0.684-0.179-1.368-0.358-2.052-0.538c0.215-0.401,0.431-0.802,0.646-1.203c0.564,0.734,1.129,1.469,1.693,2.203
				c0.652-0.335,1.304-0.671,1.955-1.007c-0.354-0.854-0.707-1.707-1.061-2.561c-0.417,0.333-0.833,0.667-1.25,1
				c-1.45,1.16,0.399,2.964,1.817,2.355c0.185-0.308,0.467-0.257,0.845,0.151c-0.12-0.914-0.239-1.827-0.358-2.741
				c-0.136,0.095-0.271,0.19-0.407,0.286c0.35,0.615,0.699,1.229,1.048,1.845c0.226-0.258,0.451-0.517,0.677-0.775
				c-0.836-0.486-1.671-0.973-2.507-1.459c-0.288,0.612-0.576,1.225-0.864,1.838c0.854,0.354,1.707,0.707,2.561,1.061
				c0.086-0.151,0.172-0.303,0.257-0.455c-0.684-0.684-1.368-1.368-2.052-2.052c-0.404,0.487-0.809,0.975-1.212,1.462
				c0.605,0.785,1.212,1.57,1.817,2.355c-0.403-0.169-0.807-0.338-1.209-0.507c0.615,0.615,1.229,1.229,1.845,1.845
				c0.2-0.464,0.399-0.928,0.599-1.392c-0.914-0.119-1.827-0.238-2.741-0.358c-0.121,0.681-0.243,1.36-0.364,2.041
				c0.836,0.221,1.671,0.441,2.507,0.662c-0.105-0.395-0.236-0.737-0.401-1.108c-0.461-1.037-2.094-0.921-2.59,0
				c-0.422,0.648-0.844,1.298-1.266,1.946c-1.208,1.477,0.673,3.453,2.121,2.121c0.482-0.338,0.965-0.677,1.446-1.016
				c-0.752-0.432-1.505-0.863-2.257-1.295c-0.187,0.729-0.374,1.46-0.561,2.189c0.785,0.605,1.57,1.212,2.355,1.817
				c0.256-0.398,0.511-0.798,0.766-1.196c-0.836-0.221-1.671-0.441-2.507-0.662c-0.121,0.848-0.243,1.694-0.364,2.541
				c0.785,0.605,1.57,1.212,2.355,1.817c0.2-0.525,0.45-1.025,0.75-1.5c-0.932-0.252-1.863-0.505-2.795-0.757
				c-0.187,0.646-0.374,1.293-0.561,1.939c0.785,0.605,1.57,1.212,2.355,1.817c0.071-0.07,0.142-0.141,0.212-0.212
				c-0.752-0.432-1.505-0.863-2.257-1.295c-0.336,0.651-0.672,1.303-1.007,1.955c0.734,0.564,1.469,1.129,2.203,1.693
				c0.205-0.362,0.409-0.725,0.614-1.088c-0.854-0.354-1.707-0.707-2.561-1.061c-0.117,0.518-0.234,1.036-0.352,1.554
				c-0.482-0.119-1.123-0.024-1.459,0.386c-0.534,0.65-1.123,1.191-1.75,1.75c-1.371,1.222,0.371,2.999,1.817,2.355
				c0.131-0.032,0.262-0.065,0.392-0.099c-0.266-0.964-0.531-1.929-0.797-2.893c-1.027,0.651-2.143,0.785-3.345,0.401
				c-0.602-0.363-1.315-0.212-1.817,0.234c-0.563,0.438-1.063,0.938-1.5,1.5c0.836,0.221,1.671,0.441,2.507,0.662
				c-0.05,0.052-0.101,0.104-0.151,0.155c0.729-1.215-0.803-2.982-2.052-2.052c-0.599,0.445-1.074,0.905-1.554,1.484
				c0.707,0,1.414,0,2.121,0c-0.038-0.029-0.076-0.059-0.114-0.088c-0.219-1.313-2.151-1.42-2.741-0.358
				c-0.254-0.094-0.491-0.023-0.712,0.212c0.684,0.179,1.368,0.358,2.052,0.538c-0.094-0.156-0.188-0.313-0.281-0.469
				c-0.078,0.605-0.156,1.212-0.234,1.817c0.094-0.094,0.188-0.188,0.281-0.281c1.209-1.209-0.34-3.218-1.817-2.355
				c-0.524,0.306-0.975,0.693-1.5,1c0.752,0.432,1.505,0.863,2.257,1.295c0-0.583,0-1.167,0-1.75c0-1.813-2.338-1.884-2.946-0.398
				c-0.315,0.651-0.77,1.181-1.364,1.588c0.836,0.221,1.671,0.441,2.507,0.662c0.018-0.451,0.036-0.901,0.054-1.352
				c0.146-1.645-2.01-1.826-2.795-0.757c-0.285,0.187-0.569,0.374-0.854,0.561c0.564,0.734,1.129,1.469,1.693,2.203
				c0.071-0.07,0.142-0.141,0.212-0.212c-0.684-0.684-1.368-1.368-2.052-2.052c-0.571,0.57-1.142,1.141-1.712,1.712
				c0.734,0.564,1.469,1.129,2.203,1.693c0.077-0.688,0.244-1.354,0.5-2c0.547-1.738-1.794-2.439-2.741-1.155
				c0.093-0.127,0.458-0.011-0.955,0.007c0.482,0.633,0.964,1.266,1.446,1.898c0.2-0.547,0.399-1.094,0.599-1.642
				c-0.932-0.252-1.863-0.505-2.795-0.757c-0.252,0.485-0.505,0.97-0.757,1.455c0.734,0.299,1.469,0.598,2.203,0.896
				c0.205-0.598,0.409-1.194,0.614-1.791c1.519-1.218-0.621-3.286-2.121-2.121c1.081,0.78,1.704,0.404,1.871-1.129
				c-0.854-0.354-1.707-0.707-2.561-1.061c-0.099,0.414-0.197,0.828-0.295,1.243c0.914,0.119,1.827,0.238,2.741,0.358
				c0.288-0.848,0.576-1.694,0.864-2.541c-0.854-0.354-1.707-0.707-2.561-1.061c-0.182,0.581-0.363,1.162-0.545,1.743
				c0.914,0.119,1.827,0.238,2.741,0.358c0.271-0.686,0.541-1.371,0.811-2.057c-0.684-0.684-1.368-1.368-2.052-2.052
				c-0.339,0.398-0.678,0.798-1.016,1.196c0.836,0.221,1.671,0.441,2.507,0.662c0.121-0.514,0.243-1.027,0.364-1.541
				c1.297-1.171-0.361-3.167-1.817-2.355c0.355,0.285,0.712,0.57,1.067,0.855c-0.854-0.354-1.707-0.707-2.561-1.061
				c-0.099,0.414-0.197,0.828-0.295,1.243c0.932,0.252,1.863,0.505,2.795,0.757c-0.276-0.603-0.179-1.101,0.295-1.493
				c-0.932-0.252-1.863-0.505-2.795-0.757c0.2-0.148,0.4-0.298,0.602-0.446c0.615,0.349,1.229,0.698,1.845,1.048
				c-0.263,0.306-0.526,0.611-0.789,0.917c-0.5-0.5-1-1-1.5-1.5c0.02,0.305,0.032,0.595,0.146,0.88
				c0.413,1.034,2.165,1.703,2.741,0.358c0.157-0.165,0.329-0.314,0.516-0.446c-0.836-0.221-1.671-0.441-2.507-0.662
				c0.104,0.497,0.188,0.997,0.25,1.5c0.183,1.236,1.744,1.282,2.507,0.662c0.332-0.184,0.663-0.368,0.994-0.552
				c-0.564-0.229-1.129-0.459-1.693-0.689c0.046,0.311,0.093,0.62,0.139,0.931c-0.004,1.237,1.254,1.735,2.257,1.295
				c0.253-0.111,0.507-0.222,0.76-0.333c-0.606-0.078-1.212-0.156-1.818-0.234c0.003,0.01,0.005,0.02,0.007,0.029
				c0.363,0.654,1.406,1.022,2.052,0.538c0.334-0.25,0.667-0.5,1-0.75c-0.752-0.432-1.505-0.863-2.257-1.295c0,0.25,0,0.5,0,0.75
				c0,0.919,0.969,1.781,1.898,1.446c-0.231-0.146-0.462-0.293-0.693-0.439c0.261,0.458,0.771,0.743,1.295,0.743c0.5,0,1,0,1.5,0
				c-0.482-0.367-0.964-0.734-1.446-1.102c0,0.151,0,0.302,0,0.453c-0.21,1.396,1.352,2.614,2.507,1.459
				c0.417-0.417,0.833-0.833,1.25-1.25c-0.854-0.354-1.707-0.707-2.561-1.061c0,0.5,0,1,0,1.5c0,1.191,1.719,2.143,2.561,1.061
				c0.452-0.581,0.895-1.146,1.234-1.804c-0.932-0.252-1.863-0.505-2.795-0.757c-0.06,0.437,0.225,0.371,0.852-0.196
				c0.564,0.734,1.129,1.469,1.693,2.203c0.354-0.732,0.629-1.35,0.901-2.108c-0.982-0.133-1.964-0.266-2.946-0.398
				c0,0.667,0,1.333,0,2c0,1.787,2.366,1.919,2.946,0.398c0.226-0.591,0.523-1.156,0.75-1.75c-0.982-0.133-1.964-0.266-2.946-0.398
				c0,0.417,0,0.833,0,1.25c0,1.67,2.565,2.074,2.946,0.398c0.283-0.797,0.566-1.594,0.849-2.392
				c-0.932-0.252-1.863-0.505-2.795-0.757c0,0.667,0,1.333,0,2c0,1.99,2.764,1.86,3,0c0.349-0.914,0.697-1.828,1.045-2.743
				c-0.914-0.385-1.827-0.771-2.741-1.155c-0.205,0.82-0.273,1.306-0.304,2.148c-0.06,1.667,2.67,2.084,2.946,0.398
				c0.162-0.985,0.283-1.923,0.668-2.848c-0.615,0.35-1.229,0.699-1.845,1.048c0.11,0.032,0.221,0.065,0.332,0.098
				c1.022,0.301,1.787-0.51,1.898-1.446c0.265-0.914,0.53-1.828,0.795-2.743c-0.932-0.252-1.863-0.505-2.795-0.757
				c-0.065,0.284-0.131,0.567-0.196,0.852c0.982,0.133,1.964,0.266,2.946,0.398c0.265-0.914,0.53-1.828,0.795-2.743
				c-0.914-0.385-1.827-0.771-2.741-1.155c-0.083,0.416-0.167,0.833-0.25,1.25c0.982,0.133,1.964,0.266,2.946,0.398
				c-0.008-1.096,0.225-2.13,0.696-3.102c-0.964-0.266-1.929-0.531-2.893-0.797c-0.09,0.524-0.257,1.024-0.5,1.5
				c-0.642,1.574,2.017,2.682,2.741,1.155c0.622-1.307,0.944-2.301,1.401-3.608c-0.734,0.299-1.469,0.598-2.203,0.896
				c-0.091-0.556-0.182-1.112-0.272-1.668c0.836,0.221,1.671,0.441,2.507,0.662c-0.983,1.403-0.729,2.239,0.766,2.506
				c0.784,0.402,1.551,0.151,2.052-0.538c0.103,0.23,0.204,0.46,0.307,0.689C122.503,258.881,123.286,255.984,121.46,255.375
				L121.46,255.375z"/>
		</g>
	</g>
	<g display="inline">
		<g>
			<path fill="#375C74" d="M100.647,237.654c8.667,17.599,29.381,16.563,38.667,22.774"/>
			<g>
				<path fill="#375C74" d="M99.353,238.411c3.766,7.211,9.807,12.214,17.291,15.283c7.105,2.914,15.374,3.897,21.914,8.029
					c1.641,1.037,3.145-1.56,1.514-2.59c-5.178-3.271-11.447-4.481-17.21-6.332c-8.882-2.853-16.488-7.421-20.919-15.904
					C101.047,235.181,98.458,236.698,99.353,238.411L99.353,238.411z"/>
			</g>
		</g>
		<g>
			<path fill="#375C74" d="M140.314,262.428c6.667-22.774-14-51.108-39.247-24.706"/>
			<g>
				<path fill="#375C74" d="M141.761,262.827c3.07-11.341,0.611-24.585-8.439-32.597c-10.902-9.65-24.668-2.313-33.314,6.432
					c-1.361,1.376,0.76,3.498,2.121,2.121c8.07-8.161,19.844-14.601,29.86-5.733c7.876,6.972,9.494,19.321,6.88,28.98
					C138.361,263.9,141.256,264.692,141.761,262.827L141.761,262.827z"/>
			</g>
		</g>
	</g>
	<g display="inline">
		<g>
			<path fill="#336666" d="M131.812,293.822c-10.729,0.863-20.964,4.938-30.439-2.561c-1.499-1.187-3.638,0.921-2.121,2.121
				c10.334,8.179,20.717,4.393,32.561,3.439C133.727,296.667,133.741,293.667,131.812,293.822L131.812,293.822z"/>
		</g>
	</g>
	<g display="inline">
		<g>
			<path fill="#336666" d="M135.413,306.375c-13.951,5.352-29.437,5.136-42.345-2.849c-1.65-1.021-3.155,1.575-1.514,2.59
				c13.54,8.376,30.005,8.771,44.655,3.151C137.997,308.583,137.222,305.681,135.413,306.375L135.413,306.375z"/>
		</g>
	</g>
	<g display="inline">
		<g>
			<path fill="#336666" d="M140.413,325.375c-17.457,6.665-38.416,7.386-53.541-5.114c-1.479-1.223-3.613,0.888-2.121,2.121
				c15.965,13.194,37.892,12.975,56.459,5.886C142.999,327.585,142.224,324.684,140.413,325.375L140.413,325.375z"/>
		</g>
	</g>
	<g display="inline">
		<g>
			<path fill="#336666" d="M145.913,348.875c-9.754,3.725-20.705,4.096-31.023,3.679c-10.017-0.405-22.942-1.626-31.018-8.293
				c-1.479-1.222-3.614,0.889-2.121,2.121c7.92,6.54,19.32,8.059,29.208,8.922c11.668,1.02,24.681,0.692,35.751-3.536
				C148.499,351.085,147.724,348.184,145.913,348.875L145.913,348.875z"/>
		</g>
	</g>
</g>
<g id="Layer_2">
	<line fill="none" stroke="#000000" stroke-width="4" stroke-miterlimit="10" x1="70.62" y1="311.953" x2="1.953" y2="0.431"/>
	<line stroke="#000000" stroke-width="3" stroke-miterlimit="10" x1="12.277" y1="51.915" x2="9.348" y2="52.561"/>
	<line stroke="#000000" stroke-width="3" stroke-miterlimit="10" x1="28.538" y1="121.035" x2="22.678" y2="122.327"/>
	<line stroke="#000000" stroke-width="3" stroke-miterlimit="10" x1="41.552" y1="184.727" x2="33.74" y2="186.449"/>
	<line stroke="#000000" stroke-width="3" stroke-miterlimit="10" x1="56.189" y1="251.133" x2="46.425" y2="253.285"/>
	<path fill="#333333" stroke="#000000" stroke-miterlimit="10" d="M45.726,276.507c0.123,0.563,0.322,1.092,0.582,1.576
		c1.259,2.349,3.967,3.676,6.697,3.073c2.472-0.544,4.26-2.513,4.693-4.853c0.146-0.779,0.139-1.603-0.043-2.426
		c-0.726-3.294-3.984-5.376-7.279-4.649C47.082,269.955,44.999,273.213,45.726,276.507z"/>
	<polygon stroke="#000000" stroke-miterlimit="10" points="48.821,289.719 60.558,287.205 57.656,274.045 45.414,276.577 	"/>
	<polygon stroke="#000000" stroke-miterlimit="10" points="64.111,289.389 53.182,290.91 54.15,295.304 65.42,295.331 	"/>
	<path stroke="#000000" stroke-miterlimit="10" d="M113.266,345.398"/>
	<polygon stroke="#000000" stroke-miterlimit="10" points="55.208,286.166 52.279,286.811 53.074,290.421 56.111,290.265 	"/>
	<polygon fill="#333333" stroke="#000000" stroke-miterlimit="10" points="55.308,291.263 48.472,292.77 49.053,295.405 
		55.774,293.379 	"/>
	
		<rect x="68.932" y="300.81" transform="matrix(0.9766 -0.2152 0.2152 0.9766 -65.7609 22.7178)" stroke="#000000" stroke-width="4" stroke-miterlimit="10" width="5" height="25"/>
</g>
<g id="Layer_4">
	<g>
		<g>
			<path fill="#F4D7D1" d="M79.401,309.694c-4.583-2.281-9.334-3.746-14.18-1.333c-0.747,0.371-0.91,1.372-0.538,2.052
				c0.791,1.445,1.76,2.414,3.204,3.205c0.385-0.914,0.771-1.827,1.155-2.741c-1.751-0.252-2.988-1.161-4.797-0.667
				c-0.906,0.247-1.424,1.383-0.896,2.203c1.163,1.811,2.095,3.271,3.872,4.538c0.252-0.932,0.505-1.863,0.757-2.795
				c-0.702,0-1.403,0-2.105,0c-1.935,0-1.935,3,0,3c0.035,0,0.07,0,0.105,0c-0.482-0.367-0.964-0.734-1.446-1.102
				c0.311,0.968,0.447,2.295,1.026,3.162c0.513,0.77,1.603,1.21,2.329,1.734c0.385-0.914,0.771-1.827,1.155-2.741
				c-1.441-0.332-4.555-0.262-3.95,2.101c0.636,2.485,4.217,2.487,6.17,1.777c4.397-1.598,7.825-8.217,4.442-12.159
				c-0.605,0.785-1.212,1.57-1.817,2.355c1.218,0.792,2.673,0.862,4.091,0.872c-0.252-0.932-0.505-1.863-0.757-2.795
				c-1.653,0.961-2.911,2.219-3.872,3.871c0.932,0.252,1.863,0.505,2.795,0.757c0-1.111,0-2.222,0-3.333
				c-0.752,0.432-1.505,0.863-2.257,1.295c0.057,0.037,0.114,0.074,0.171,0.111c-0.248-0.432-0.495-0.863-0.743-1.296
				c0.034-0.358-0.217,0.379-0.402,0.443c0.633,0.482,1.266,0.964,1.898,1.446c0-1.021,0.145-2.15-0.072-3.152
				c-0.26-1.202-2.211-1.547-2.741-0.358c-0.563,1.259-0.76,2.81-0.854,4.178c1,0,2,0,3,0c0-1.333,0-2.667,0-4
				c0-1.79-2.362-1.915-2.946-0.398c-0.571,1.481-0.703,2.819-0.72,4.398c0.932-0.252,1.863-0.505,2.795-0.757
				c-0.521-0.961-0.096-2.282-0.667-3.334c-0.779-1.437-2.638-0.608-2.795,0.757c-0.088,0.768-0.374,1.536-0.613,2.269
				c0.982,0.133,1.964,0.266,2.946,0.398c0-1.111,0-2.222,0-3.333c0-1.375-1.603-1.896-2.561-1.061
				c-1.162,1.014-0.58,1.467-1.052,2.662c0.964,0,1.929,0,2.893,0c-0.331-1.119-0.916-1.828-1.72-2.662
				c-0.856-0.889-2.68-0.271-2.561,1.061c0.144,1.607,0.564,3.441,1.539,4.757c0.299-0.734,0.598-1.469,0.896-2.203
				c0.03-0.01,1.072,0.505,0.082-0.075c-0.295-0.173-0.604-0.206-0.938-0.203c-0.983,0.011-1.532,0.935-2.041,1.634
				c-0.412,0.564-0.177,1.345,0.234,1.817c1.164,1.339,2.729,1.269,3.688-0.304c-0.914-0.119-1.827-0.238-2.741-0.358
				c0.518,1.478,0.286,3.131,0.667,4.667c0.258,1.042,1.771,1.523,2.507,0.662c0.776-0.907,1.389-2.437,2.362-3.099
				c-0.752-0.432-1.505-0.863-2.257-1.295c0.025,0.013,0.052,0.025,0.077,0.038c0.734,0.564,1.469,1.129,2.203,1.693
				c0.444-1.11,0.889-2.222,1.333-3.333c0.421-1.051-0.831-2.193-1.845-1.845c-0.767,0.264-1.264,1.204-2,1.333
				c0.615,0.615,1.229,1.229,1.845,1.845c0.652-2.997-0.216-4.252-3.048-5.178c-1.844-0.604-2.627,2.294-0.797,2.893
				c1.238,0.405,1.253,0.106,0.952,1.488c-0.258,1.183,0.702,2.045,1.845,1.845c0.886-0.154,1.814-1.269,2-1.333
				c-0.615-0.615-1.229-1.23-1.845-1.845c-0.444,1.11-0.889,2.222-1.333,3.333c-0.522,1.306,1.158,2.259,2.203,1.693
				c1.034-0.56,1.353-1.488,1.409-2.628c0.055-1.097-1.331-1.924-2.257-1.295c-1.412,0.958-1.885,2.299-2.97,3.567
				c0.836,0.221,1.671,0.441,2.507,0.662c-0.387-1.561-0.134-3.146-0.667-4.667c-0.424-1.211-2.034-1.517-2.741-0.358
				c0.018-0.042,0.035-0.085,0.053-0.127c0.486,0.129,0.973,0.258,1.459,0.386c-0.163-0.188-0.326-0.375-0.489-0.563
				c0.078,0.605,0.156,1.212,0.234,1.817c0.411-0.563-2.505-0.396-0.44,0.097c0.582,0.14,0.972,0.103,1.544-0.073
				c0.846-0.26,1.496-1.394,0.896-2.203c-0.651-0.88-1.031-2.15-1.129-3.243c-0.854,0.354-1.707,0.707-2.561,1.061
				c0.316,0.446,0.632,0.893,0.948,1.338c0.451,1.522,2.368,1.329,2.893,0c0.08-0.203,0.215-1.28,0.28-1.338
				c-0.854-0.354-1.707-0.707-2.561-1.061c0,1.111,0,2.222,0,3.333c0,1.738,2.429,1.984,2.946,0.398c0.33-1.01,0.6-2.01,0.721-3.065
				c-0.932,0.252-1.863,0.505-2.795,0.757c0.521,0.961,0.096,2.282,0.667,3.334c0.727,1.34,2.78,0.699,2.795-0.757
				c0.014-1.284,0.149-2.399,0.612-3.602c-0.982-0.133-1.964-0.266-2.946-0.398c0,1.333,0,2.667,0,4c0,1.952,2.869,1.911,3,0
				c0.053-0.778,0.136-1.975,0.443-2.663c-0.914-0.12-1.827-0.239-2.741-0.358c0.146,0.678-0.035,1.645-0.035,2.354
				c0,0.927,0.967,1.771,1.898,1.446c1.434-0.498,2.463-1.829,2.605-3.336c0.051-0.529-0.326-1.025-0.742-1.295
				c-0.058-0.037-0.114-0.073-0.172-0.11c-0.969-0.627-2.257,0.197-2.257,1.295c0,1.111,0,2.222,0,3.333
				c0,1.491,2.044,2.049,2.795,0.757c0.706-1.213,1.583-2.09,2.796-2.795c1.299-0.755,0.729-2.784-0.757-2.795
				c-0.883-0.006-1.804,0.04-2.577-0.462c-1.508-0.98-2.873,1.125-1.817,2.355c1.495,1.742-0.277,4.584-1.505,5.93
				c-0.709,0.777-1.702,1.403-2.759,1.541c-0.177,0.002-0.354,0.003-0.53,0.005c-0.93-0.431-1.396,0.058-1.396,1.464
				c0.281-0.024,0.579,0.051,0.852,0.113c1.726,0.397,2.511-1.763,1.155-2.741c-0.508-0.367-1.6-1.521-1.242-0.582
				c-0.307-0.806-0.471-1.699-0.734-2.521c-0.205-0.64-0.758-1.102-1.446-1.102c-0.035,0-0.07,0-0.105,0c-1.935,0-1.935,3,0,3
				c0.702,0,1.403,0,2.105,0c1.588,0,1.919-1.967,0.757-2.795c-1.314-0.938-1.941-2.134-2.796-3.462
				c-0.299,0.734-0.598,1.469-0.896,2.203c0.991-0.271,2.225,0.526,3.203,0.667c1.568,0.226,2.769-1.857,1.155-2.741
				c-1.002-0.55-1.579-1.126-2.128-2.129c-0.179,0.684-0.358,1.368-0.538,2.052c3.783-1.884,7.636-0.417,11.152,1.333
				C79.613,313.143,81.134,310.555,79.401,309.694L79.401,309.694z"/>
		</g>
	</g>
	<g>
		<g>
			<path fill="#F4D7D1" d="M67.145,317.989c-0.063-1.047-0.393-2.074-0.72-3.064c-0.62-1.879-3.171-1.08-2.893,0.797
				c0.105,0.715,0.562,1.293,0.666,2c0.914-0.385,1.828-0.771,2.741-1.155c-0.184-0.374-0.425-0.826-0.461-1.243
				c-0.162-1.898-3-1.962-3,0c0,0.444,0,0.889,0,1.333c0,0.817,0.683,1.5,1.5,1.5c0.222,0,0.444,0,0.666,0
				c1.228,0,1.747-1.253,1.295-2.257c-0.665-1.479-0.658-3.17-1.333-4.667c-0.794-1.762-3.378-0.234-2.59,1.514
				c0.666,1.478,0.658,3.17,1.333,4.667c0.432-0.752,0.863-1.505,1.295-2.257c-0.222,0-0.444,0-0.666,0c0.5,0.5,1,1,1.5,1.5
				c0-0.444,0-0.889,0-1.333c-1,0-2,0-3,0c0.084,0.983,0.438,1.876,0.871,2.757c0.813,1.659,2.97,0.388,2.741-1.155
				c-0.105-0.715-0.562-1.293-0.666-2c-0.964,0.266-1.929,0.531-2.893,0.797c0.231,0.701,0.577,1.678,0.612,2.268
				C64.26,319.911,67.261,319.922,67.145,317.989L67.145,317.989z"/>
		</g>
	</g>
	<g>
		<path fill="#336666" d="M106.981,334.987c25.333,2.965,22-23.584,22-31.667c0,0-0.414-10.252-6.667-18
			c-11.39-14.112-18,21.334-21.333,27.334"/>
		<g>
			<path fill="#CC9933" d="M106.981,336.487c11.353,1.117,19.877-3.896,22.592-15.171c1.879-7.8,1.675-17.263-0.28-25.055
				c-1.841-7.336-10.271-22.54-18.274-12.033c-6.228,8.173-6.721,18.807-11.332,27.669c-0.893,1.714,1.697,3.23,2.59,1.514
				c3.441-6.611,4.662-14.363,7.646-21.209c1.297-2.977,3.218-7.57,6.621-8.614c5.374-1.646,9.302,11.258,10.137,14.586
				c1.558,6.208,1.35,13.646,0.458,19.915c-1.587,11.172-8.983,16.498-20.156,15.398
				C105.057,333.297,105.074,336.299,106.981,336.487L106.981,336.487z"/>
		</g>
	</g>
	<g>
		<path fill="#336666" d="M106.647,317.32c-6-3.333-25.333-9.333-30-5.333c-16,13.333,26.289,23.822,36,22.835"/>
		<g>
			<path fill="#CC9933" d="M107.404,316.025c-7.863-4.183-18.492-7.597-27.472-6.746c-5.662,0.536-9.845,6.571-7.581,11.896
				c2.693,6.338,12.357,9.322,18.231,11.261c6.786,2.24,14.831,4.467,22.064,3.887c1.915-0.153,1.93-3.154,0-3
				c-5.48,0.439-11.227-1.022-16.488-2.381c-6.409-1.654-13.357-3.88-18.575-8.106c-5.858-4.745-1.406-10.727,5.126-10.664
				c7.623,0.072,16.479,2.881,23.181,6.444C107.598,319.523,109.113,316.933,107.404,316.025L107.404,316.025z"/>
		</g>
	</g>
</g>
</svg>
