<?xml version="1.0" encoding="utf-8"?>
<!-- Generator: Adobe Illustrator 16.0.0, SVG Export Plug-In . SVG Version: 6.00 Build 0)  -->
<!DOCTYPE svg PUBLIC "-//W3C//DTD SVG 1.1//EN" "http://www.w3.org/Graphics/SVG/1.1/DTD/svg11.dtd">
<svg version="1.1" xmlns="http://www.w3.org/2000/svg" xmlns:xlink="http://www.w3.org/1999/xlink" x="0px" y="0px" width="653px"
	 height="588.894px" viewBox="0 0 653 588.894" enable-background="new 0 0 653 588.894" xml:space="preserve">
<g id="Layer_2">
	
		<path fill="#99CC66" stroke="#99CC66" stroke-width="6" stroke-linecap="round" stroke-linejoin="round" stroke-miterlimit="10" d="
		M650,585.894H3l30.097-277.909l46.498,79.496l7.5-173.991l23.999,17.999L220.588,5L373.58,184.991l107.995,1
		c0,0,77.996,117.495,73.496,132.494s-17.998,37.498-13.499,37.498s17.998,7.456,17.998,7.456l6,43.455H551l7.071,19.585l14.999,12
		l26.998,41.997l32.999,47.998L650,585.894z"/>
	
		<polygon fill="#669933" stroke="#669933" stroke-width="6" stroke-linecap="round" stroke-linejoin="round" stroke-miterlimit="10" points="
		114.093,225.488 159.091,243.488 219.588,3 	"/>
	
		<polygon fill="#669933" stroke="#669933" stroke-width="6" stroke-linecap="round" stroke-linejoin="round" stroke-miterlimit="10" points="
		33.097,310.984 40.597,585.894 3,585.894 	"/>
	
		<path fill="#669933" stroke="#669933" stroke-width="6" stroke-linecap="round" stroke-linejoin="round" stroke-miterlimit="10" d="
		M555.034,321.896l-46.461,32.998H483l-11.98,11.198c0,0,18.055,2.609,22.555,0s28.498,0,28.498,0l19.5-7.109L555.034,321.896z"/>
	
		<polygon fill="#669933" stroke="#669933" stroke-width="6" stroke-linecap="round" stroke-linejoin="round" stroke-miterlimit="10" points="
		551,409.894 519,409.894 503,401.541 503,409.894 527,421.894 543,421.894 558.071,429.479 	"/>
	
		<polyline fill="#669933" stroke="#669933" stroke-width="6" stroke-linecap="round" stroke-linejoin="round" stroke-miterlimit="10" points="
		358.748,186.896 326.433,197.188 358.851,204.788 383.635,195.894 408,195.894 475.398,186.894 359,186.894 	"/>
	
		<polygon fill="#669933" stroke="#669933" stroke-width="6" stroke-linecap="round" stroke-linejoin="round" stroke-miterlimit="10" points="
		274.585,585.894 279.085,480.179 288.977,557.894 358.884,557.894 345.082,518.246 372.165,557.721 440.815,533.288 
		558.071,567.926 587.008,463.167 633.067,529.848 625.567,556.2 643.146,563.209 650,585.894 	"/>
	
		<polygon fill="#FFFFFF" stroke="#FFFFFF" stroke-width="6" stroke-linecap="round" stroke-linejoin="round" stroke-miterlimit="10" points="
		219.588,3 269.476,62.515 262.586,74.817 244.532,69.987 220.432,94.739 211.588,74.817 165.697,116.473 	"/>
	
		<polygon fill="#FFFFFF" stroke="#FFFFFF" stroke-width="6" stroke-linecap="round" stroke-linejoin="round" stroke-miterlimit="10" points="
		125.956,201.193 138.593,230.894 155,230.894 161.091,245.488 114.093,224.488 	"/>
	
		<polygon fill="#FFFFFF" stroke="#FFFFFF" stroke-width="6" stroke-linecap="round" stroke-linejoin="round" stroke-miterlimit="10" points="
		352,174.648 317.333,170.894 306,186.999 258.086,190.022 251.704,211.894 301,211.894 323.433,197.188 352,188.313 	"/>
	
		<polygon fill="#669933" stroke="#669933" stroke-width="6" stroke-linecap="round" stroke-linejoin="round" stroke-miterlimit="10" points="
		84.097,211.984 83.5,383.894 65,350.894 	"/>
</g>
<g id="Layer_4">
</g>
<g id="Layer_3">
	
		<path fill="#669933" stroke="#669933" stroke-width="6" stroke-linecap="round" stroke-linejoin="round" stroke-miterlimit="10" d="
		M220.432,394.563l68.545-63.921c0,0-29.105,37.946-15.892,31.34c13.214-6.607-38.328,26.345-21.443,39.559L220.432,394.563z"/>
</g>
<g id="Layer_1">
	<g id="Layer_1_1_">
		<path fill="none" stroke="#999999" stroke-width="6" stroke-linecap="square" stroke-miterlimit="10" d="M453.665,188.313"/>
		<path fill="none" stroke="#999999" stroke-width="6" stroke-linecap="square" stroke-miterlimit="10" d="M441.592,187.105"/>
		
			<linearGradient id="SVGID_1_" gradientUnits="userSpaceOnUse" x1="389.8555" y1="388.2734" x2="387.4414" y2="384.0922" gradientTransform="matrix(1 0 0 -1 58.98 576.3066)">
			<stop  offset="0" style="stop-color:#F2F2F2"/>
			<stop  offset="0.195" style="stop-color:#F6B9BB"/>
			<stop  offset="0.3788" style="stop-color:#F9888C"/>
			<stop  offset="0.5779" style="stop-color:#FB5A60"/>
			<stop  offset="0.7551" style="stop-color:#FD3940"/>
			<stop  offset="0.9019" style="stop-color:#FF242C"/>
			<stop  offset="1" style="stop-color:#FF1D25"/>
		</linearGradient>
		<line fill="url(#SVGID_1_)" x1="442.799" y1="190.124" x2="452.457" y2="190.124"/>
		
			<polygon fill="#CCCCCC" stroke="#999999" stroke-width="6" stroke-linecap="round" stroke-linejoin="round" stroke-miterlimit="10" points="
			451.25,180.749 451.25,167.02 430.725,167.187 430.725,182.276 451.25,182.276 		"/>
		<polygon fill="#FFFFFF" stroke="#CCCCCC" stroke-width="6" stroke-linecap="round" stroke-miterlimit="10" points="
			436.799,165.976 444.914,165.976 444.746,91.117 437.594,91.117 		"/>
		
			<polygon fill="#CCCCCC" stroke="#CCCCCC" stroke-width="6" stroke-linecap="round" stroke-linejoin="round" stroke-miterlimit="10" points="
			436.799,94.739 436.799,94.739 445.044,94.739 448.123,91.117 434.018,91.117 		"/>
		
			<polyline fill="#CCCCCC" stroke="#999999" stroke-width="6" stroke-linecap="round" stroke-linejoin="round" stroke-miterlimit="10" points="
			436.157,184.087 436.157,166.815 463.928,166.627 463.928,182.276 		"/>
		
			<line fill="none" stroke="#999999" stroke-width="6" stroke-linecap="round" stroke-linejoin="round" stroke-miterlimit="10" x1="436.762" y1="184.087" x2="463.928" y2="184.087"/>
		<polygon fill="#FFFFFF" stroke="#CCCCCC" stroke-width="6" stroke-linecap="round" stroke-miterlimit="10" points="
			444.555,164.165 455.459,164.165 455.234,82.062 445.621,82.062 		"/>
		
			<polygon fill="#CCCCCC" stroke="#CCCCCC" stroke-width="6" stroke-linecap="round" stroke-linejoin="round" stroke-miterlimit="10" points="
			444.555,85.684 444.555,85.684 455.635,85.684 459.773,80.854 440.815,80.854 		"/>
		
			<polygon fill="#CCCCCC" stroke="#999999" stroke-width="6" stroke-linecap="round" stroke-linejoin="round" stroke-miterlimit="10" points="
			444.609,186.502 444.609,164.947 475.398,164.722 475.398,186.502 		"/>
		<polygon fill="#FFFFFF" stroke="#CCCCCC" stroke-width="6" stroke-linecap="round" stroke-miterlimit="10" points="
			453.863,162.354 466.156,162.354 465.902,70.591 455.066,70.591 		"/>
		
			<polygon fill="#CCCCCC" stroke="#CCCCCC" stroke-width="6" stroke-linecap="round" stroke-linejoin="round" stroke-miterlimit="10" points="
			453.863,74.817 453.863,74.817 466.353,74.817 471.02,69.987 449.648,69.987 		"/>
		
			<polygon fill="#999999" stroke="#999999" stroke-width="6" stroke-linecap="round" stroke-linejoin="round" stroke-miterlimit="10" points="
			358.884,186.502 358.884,155.713 427.102,155.713 427.102,185.263 427.102,186.502 		"/>
		
			<line fill="none" stroke="#666666" stroke-width="6" stroke-linecap="round" stroke-linejoin="round" stroke-miterlimit="10" x1="358.884" y1="164.165" x2="408.387" y2="164.165"/>
		
			<line fill="none" stroke="#666666" stroke-width="6" stroke-linecap="round" stroke-linejoin="round" stroke-miterlimit="10" x1="427.102" y1="170.202" x2="397.52" y2="170.202"/>
		
			<line fill="none" stroke="#666666" stroke-width="6" stroke-linecap="round" stroke-linejoin="round" stroke-miterlimit="10" x1="427.102" y1="176.843" x2="397.52" y2="176.843"/>
		
			<line fill="none" stroke="#666666" stroke-width="6" stroke-linecap="round" stroke-linejoin="round" stroke-miterlimit="10" x1="427.102" y1="182.276" x2="397.52" y2="182.276"/>
		
			<line fill="none" stroke="#666666" stroke-width="6" stroke-linecap="round" stroke-linejoin="round" stroke-miterlimit="10" x1="367.335" y1="153.902" x2="375.787" y2="153.902"/>
		
			<line fill="none" stroke="#666666" stroke-width="6" stroke-linecap="round" stroke-linejoin="round" stroke-miterlimit="10" x1="383.636" y1="153.902" x2="392.088" y2="153.902"/>
		
			<line fill="none" stroke="#666666" stroke-width="12" stroke-linecap="round" stroke-linejoin="round" stroke-miterlimit="10" x1="372.165" y1="186.502" x2="372.165" y2="143.035"/>
		
			<line fill="none" stroke="#666666" stroke-width="12" stroke-linecap="round" stroke-linejoin="round" stroke-miterlimit="10" x1="388.465" y1="186.502" x2="388.465" y2="143.035"/>
	</g>
</g>
<g id="Layer_5">
	<linearGradient id="SVGID_2_" gradientUnits="userSpaceOnUse" x1="393.0918" y1="577.1318" x2="400.292" y2="577.1318">
		<stop  offset="0.0918" style="stop-color:#996633"/>
		<stop  offset="1" style="stop-color:#544A00"/>
	</linearGradient>
	<polygon fill="url(#SVGID_2_)" points="395.09,566.894 398.77,566.894 400.292,587.313 393.092,587.369 	"/>
	<polygon fill="#006633" points="397.898,545.653 413.369,570.978 408.139,569.237 407.438,573.841 403.605,570.093 
		401.047,577.125 398.106,571.675 394.205,576.969 392.147,570.39 388,573.835 388,569.318 381.492,570.666 	"/>
	<polygon fill="#336633" points="397.816,538.82 411.284,560.866 406.73,559.352 406.121,563.358 402.785,560.097 400.558,566.219 
		397.998,561.474 394.602,566.082 392.71,560.354 389,563.354 389,559.422 383.434,560.596 	"/>
	<polyline fill="#006633" points="397.665,536.146 406.076,549.915 403.232,548.969 402.852,551.472 400.768,549.434 
		399.377,553.257 397.777,550.294 395.657,553.172 394.396,549.595 392,551.468 392,549.013 388.604,549.745 397.665,536.146 	"/>
	<linearGradient id="SVGID_3_" gradientUnits="userSpaceOnUse" x1="149.0918" y1="232.1313" x2="156.292" y2="232.1313">
		<stop  offset="0.0918" style="stop-color:#996633"/>
		<stop  offset="1" style="stop-color:#544A00"/>
	</linearGradient>
	<polygon fill="url(#SVGID_3_)" points="151.09,221.894 154.77,221.894 156.292,242.313 149.092,242.369 	"/>
	<polygon fill="#006633" points="153.898,200.653 169.369,225.978 164.139,224.237 163.438,228.841 159.605,225.093 
		157.047,232.125 154.106,226.675 150.205,231.969 148.147,225.39 144,228.835 144,224.318 137.492,225.666 	"/>
	<polygon fill="#336633" points="153.816,193.82 167.284,215.866 162.73,214.352 162.121,218.358 158.785,215.097 156.558,221.219 
		153.998,216.474 150.602,221.082 148.71,215.354 145,218.354 145,214.422 139.434,215.596 	"/>
	<polyline fill="#006633" points="153.665,191.146 162.076,204.915 159.232,203.969 158.852,206.472 156.768,204.434 
		155.377,208.257 153.777,205.294 151.657,208.172 150.396,204.595 148,206.468 148,204.013 144.604,204.745 153.665,191.146 	"/>
	<linearGradient id="SVGID_4_" gradientUnits="userSpaceOnUse" x1="554.0918" y1="371.1318" x2="561.292" y2="371.1318">
		<stop  offset="0.0918" style="stop-color:#996633"/>
		<stop  offset="1" style="stop-color:#544A00"/>
	</linearGradient>
	<polygon fill="url(#SVGID_4_)" points="556.09,360.894 559.77,360.894 561.292,381.313 554.092,381.369 	"/>
	<polygon fill="#006633" points="558.898,339.653 574.369,364.978 569.139,363.237 568.438,367.841 564.605,364.093 
		562.047,371.125 559.106,365.675 555.205,370.969 553.147,364.39 549,367.835 549,363.318 542.492,364.666 	"/>
	<polygon fill="#336633" points="558.816,332.82 572.284,354.866 567.73,353.352 567.121,357.358 563.785,354.097 561.558,360.219 
		558.998,355.474 555.602,360.082 553.71,354.354 550,357.354 550,353.422 544.434,354.596 	"/>
	<polyline fill="#006633" points="558.665,330.146 567.076,343.915 564.232,342.969 563.852,345.472 561.768,343.434 
		560.377,347.257 558.777,344.294 556.657,347.172 555.396,343.595 553,345.468 553,343.013 549.604,343.745 558.665,330.146 	"/>
	<linearGradient id="SVGID_5_" gradientUnits="userSpaceOnUse" x1="430.3486" y1="573.9268" x2="440.3193" y2="573.9268">
		<stop  offset="0.0918" style="stop-color:#996633"/>
		<stop  offset="0.551" style="stop-color:#7F5C00"/>
		<stop  offset="0.9847" style="stop-color:#544A00"/>
	</linearGradient>
	<polygon fill="url(#SVGID_5_)" points="433.116,559.894 438.21,559.894 440.319,587.594 430.349,587.959 	"/>
	<linearGradient id="SVGID_6_" gradientUnits="userSpaceOnUse" x1="435.5557" y1="529.5283" x2="435.5557" y2="573.1064">
		<stop  offset="0.0714" style="stop-color:#008400"/>
		<stop  offset="0.9847" style="stop-color:#006837"/>
	</linearGradient>
	<polygon fill="url(#SVGID_6_)" points="436.037,529.528 457.457,564.593 450.216,562.183 449.244,568.558 443.938,563.368 
		440.396,573.106 436.325,565.56 430.923,572.89 428.408,563.779 423,568.549 423,562.296 413.654,564.163 	"/>
	<linearGradient id="SVGID_7_" gradientUnits="userSpaceOnUse" x1="435.6104" y1="520.0674" x2="435.6104" y2="558.0039">
		<stop  offset="0.0714" style="stop-color:#008400"/>
		<stop  offset="0.9847" style="stop-color:#006837"/>
	</linearGradient>
	<polygon fill="url(#SVGID_7_)" points="435.923,520.067 454.57,550.592 448.266,548.496 447.422,554.044 442.804,549.526 
		439.719,558.004 436.173,551.434 431.472,557.814 429.494,549.884 425,554.037 425,548.593 416.65,550.217 	"/>
	<linearGradient id="SVGID_8_" gradientUnits="userSpaceOnUse" x1="435.2949" y1="516.3652" x2="435.2949" y2="540.0576">
		<stop  offset="0.0714" style="stop-color:#008400"/>
		<stop  offset="0.9847" style="stop-color:#006837"/>
	</linearGradient>
	<polyline fill="url(#SVGID_8_)" points="435.715,516.365 447.359,535.429 443.422,534.119 442.894,537.583 440.011,534.763 
		438.085,540.058 435.871,535.954 432.934,539.939 431.252,534.986 428,537.58 428,534.18 423.23,535.194 435.715,516.365 	"/>
	<linearGradient id="SVGID_9_" gradientUnits="userSpaceOnUse" x1="223.8281" y1="383.8047" x2="228.71" y2="383.8047">
		<stop  offset="0.0918" style="stop-color:#996633"/>
		<stop  offset="0.551" style="stop-color:#7F5C00"/>
		<stop  offset="0.9847" style="stop-color:#544A00"/>
	</linearGradient>
	<polygon fill="url(#SVGID_9_)" points="225.183,376.894 227.677,376.894 228.71,390.618 223.828,390.716 	"/>
	<linearGradient id="SVGID_10_" gradientUnits="userSpaceOnUse" x1="226.3198" y1="362.3506" x2="226.3198" y2="383.6865">
		<stop  offset="0.0714" style="stop-color:#008400"/>
		<stop  offset="0.9847" style="stop-color:#006837"/>
	</linearGradient>
	<polygon fill="url(#SVGID_10_)" points="226.613,362.351 237.101,379.519 233.556,378.339 233.08,381.46 230.482,378.919 
		228.747,383.687 226.754,379.992 224.109,383.581 222.763,379.12 220,381.455 220,378.394 215.539,379.308 	"/>
	<linearGradient id="SVGID_11_" gradientUnits="userSpaceOnUse" x1="226.3521" y1="357.7178" x2="226.3521" y2="376.292">
		<stop  offset="0.0714" style="stop-color:#008400"/>
		<stop  offset="0.9847" style="stop-color:#006837"/>
	</linearGradient>
	<polygon fill="url(#SVGID_11_)" points="226.558,357.718 235.688,372.663 232.601,371.638 232.188,374.354 229.926,372.142 
		228.416,376.292 226.68,373.075 224.378,376.199 223.305,372.316 221,374.351 221,371.685 217.017,372.479 	"/>
	<linearGradient id="SVGID_12_" gradientUnits="userSpaceOnUse" x1="226.3306" y1="355.9053" x2="226.3306" y2="367.5059">
		<stop  offset="0.0714" style="stop-color:#008400"/>
		<stop  offset="0.9847" style="stop-color:#006837"/>
	</linearGradient>
	<polyline fill="url(#SVGID_12_)" points="226.456,355.905 232.157,365.239 230.229,364.598 229.97,366.294 228.559,364.913 
		227.616,367.506 226.532,365.496 225.094,367.447 224.432,365.022 223,366.292 223,364.628 220.504,365.124 226.456,355.905 	"/>
	<linearGradient id="SVGID_13_" gradientUnits="userSpaceOnUse" x1="238.8281" y1="365.8047" x2="243.71" y2="365.8047">
		<stop  offset="0.0918" style="stop-color:#996633"/>
		<stop  offset="0.551" style="stop-color:#7F5C00"/>
		<stop  offset="0.9847" style="stop-color:#544A00"/>
	</linearGradient>
	<polygon fill="url(#SVGID_13_)" points="240.183,358.894 242.677,358.894 243.71,372.618 238.828,372.716 	"/>
	<linearGradient id="SVGID_14_" gradientUnits="userSpaceOnUse" x1="241.3198" y1="344.3506" x2="241.3198" y2="365.6865">
		<stop  offset="0.0714" style="stop-color:#008400"/>
		<stop  offset="0.9847" style="stop-color:#006837"/>
	</linearGradient>
	<polygon fill="url(#SVGID_14_)" points="241.613,344.351 252.101,361.519 248.556,360.339 248.08,363.46 245.482,360.919 
		243.747,365.687 241.754,361.992 239.109,365.581 237.763,361.12 235,363.455 235,360.394 230.539,361.308 	"/>
	<linearGradient id="SVGID_15_" gradientUnits="userSpaceOnUse" x1="241.3521" y1="339.7178" x2="241.3521" y2="358.292">
		<stop  offset="0.0714" style="stop-color:#008400"/>
		<stop  offset="0.9847" style="stop-color:#006837"/>
	</linearGradient>
	<polygon fill="url(#SVGID_15_)" points="241.558,339.718 250.688,354.663 247.601,353.638 247.188,356.354 244.926,354.142 
		243.416,358.292 241.68,355.075 239.378,358.199 238.305,354.316 236,356.351 236,353.685 232.017,354.479 	"/>
	<linearGradient id="SVGID_16_" gradientUnits="userSpaceOnUse" x1="241.3306" y1="337.9053" x2="241.3306" y2="349.5059">
		<stop  offset="0.0714" style="stop-color:#008400"/>
		<stop  offset="0.9847" style="stop-color:#006837"/>
	</linearGradient>
	<polyline fill="url(#SVGID_16_)" points="241.456,337.905 247.157,347.239 245.229,346.598 244.97,348.294 243.559,346.913 
		242.616,349.506 241.532,347.496 240.094,349.447 239.432,347.022 238,348.292 238,346.628 235.504,347.124 241.456,337.905 	"/>
	<linearGradient id="SVGID_17_" gradientUnits="userSpaceOnUse" x1="492.8281" y1="344.8047" x2="497.71" y2="344.8047">
		<stop  offset="0.0918" style="stop-color:#996633"/>
		<stop  offset="0.551" style="stop-color:#7F5C00"/>
		<stop  offset="0.9847" style="stop-color:#544A00"/>
	</linearGradient>
	<polygon fill="url(#SVGID_17_)" points="494.184,337.894 496.678,337.894 497.71,351.618 492.828,351.716 	"/>
	<linearGradient id="SVGID_18_" gradientUnits="userSpaceOnUse" x1="495.3203" y1="323.3506" x2="495.3203" y2="344.6865">
		<stop  offset="0.0714" style="stop-color:#008400"/>
		<stop  offset="0.9847" style="stop-color:#006837"/>
	</linearGradient>
	<polygon fill="url(#SVGID_18_)" points="495.613,323.351 506.102,340.519 502.556,339.339 502.08,342.46 499.482,339.919 
		497.747,344.687 495.754,340.992 493.109,344.581 491.763,340.12 489,342.455 489,339.394 484.539,340.308 	"/>
	<linearGradient id="SVGID_19_" gradientUnits="userSpaceOnUse" x1="495.3516" y1="318.7178" x2="495.3516" y2="337.292">
		<stop  offset="0.0714" style="stop-color:#008400"/>
		<stop  offset="0.9847" style="stop-color:#006837"/>
	</linearGradient>
	<polygon fill="url(#SVGID_19_)" points="495.558,318.718 504.688,333.663 501.601,332.638 501.188,335.354 498.926,333.142 
		497.416,337.292 495.68,334.075 493.378,337.199 492.305,333.316 490,335.351 490,332.685 486.017,333.479 	"/>
	<linearGradient id="SVGID_20_" gradientUnits="userSpaceOnUse" x1="495.3301" y1="316.9053" x2="495.3301" y2="328.5059">
		<stop  offset="0.0714" style="stop-color:#008400"/>
		<stop  offset="0.9847" style="stop-color:#006837"/>
	</linearGradient>
	<polyline fill="url(#SVGID_20_)" points="495.455,316.905 501.157,326.239 499.229,325.598 498.971,327.294 497.559,325.913 
		496.616,328.506 495.532,326.496 494.094,328.447 493.432,326.022 492,327.292 492,325.628 489.504,326.124 495.455,316.905 	"/>
	<linearGradient id="SVGID_21_" gradientUnits="userSpaceOnUse" x1="70.2144" y1="575.1572" x2="81.7285" y2="575.1572">
		<stop  offset="0.0918" style="stop-color:#996633"/>
		<stop  offset="0.551" style="stop-color:#7F5C00"/>
		<stop  offset="0.9847" style="stop-color:#544A00"/>
	</linearGradient>
	<polygon fill="url(#SVGID_21_)" points="71.547,562.894 78.749,562.894 81.729,587.335 70.214,587.42 	"/>
	<linearGradient id="SVGID_22_" gradientUnits="userSpaceOnUse" x1="74.2632" y1="538.5176" x2="74.2632" y2="573.5771">
		<stop  offset="0.1224" style="stop-color:#339933"/>
		<stop  offset="1" style="stop-color:#006837"/>
	</linearGradient>
	<polygon fill="url(#SVGID_22_)" points="74.875,538.518 96.9,566.728 89.453,564.79 88.455,569.917 83,565.743 79.357,573.577 
		75.171,567.505 69.618,573.402 66.795,566.073 61,569.911 61,564.88 51.626,566.382 	"/>
	<linearGradient id="SVGID_23_" gradientUnits="userSpaceOnUse" x1="74.4546" y1="530.9053" x2="74.4546" y2="561.4268">
		<stop  offset="0.1224" style="stop-color:#339933"/>
		<stop  offset="1" style="stop-color:#006837"/>
	</linearGradient>
	<polygon fill="url(#SVGID_23_)" points="74.957,530.905 94.131,555.465 87.648,553.777 86.779,558.241 82.031,554.606 
		78.859,561.427 75.215,556.142 70.38,561.275 67.984,554.895 63,558.235 63,553.855 54.778,555.163 	"/>
	<linearGradient id="SVGID_24_" gradientUnits="userSpaceOnUse" x1="74.3599" y1="527.9268" x2="74.3599" y2="546.9883">
		<stop  offset="0.1224" style="stop-color:#339933"/>
		<stop  offset="1" style="stop-color:#006837"/>
	</linearGradient>
	<polygon fill="url(#SVGID_24_)" points="74.742,527.927 86.717,543.265 82.667,542.211 82.125,544.999 79.159,542.729 
		77.179,546.988 74.902,543.688 71.883,546.894 70.25,542.909 67,544.995 67,542.26 62.003,543.076 	"/>
	<linearGradient id="SVGID_25_" gradientUnits="userSpaceOnUse" x1="261.1274" y1="350.7803" x2="267.6318" y2="350.7803">
		<stop  offset="0.0918" style="stop-color:#996633"/>
		<stop  offset="0.551" style="stop-color:#7F5C00"/>
		<stop  offset="0.9847" style="stop-color:#544A00"/>
	</linearGradient>
	<polygon fill="url(#SVGID_25_)" points="261.88,343.894 265.949,343.894 267.632,357.536 261.127,357.667 	"/>
	<linearGradient id="SVGID_26_" gradientUnits="userSpaceOnUse" x1="263.4341" y1="329.7939" x2="263.4341" y2="349.5996">
		<stop  offset="0.1224" style="stop-color:#339933"/>
		<stop  offset="1" style="stop-color:#006837"/>
	</linearGradient>
	<polygon fill="url(#SVGID_26_)" points="263.76,329.794 276.203,345.73 271.996,344.636 271.432,347.532 268.351,345.174 
		266.292,349.6 263.927,346.169 260.79,349.501 259.235,345.36 256,347.528 256,344.687 250.666,345.535 	"/>
	<linearGradient id="SVGID_27_" gradientUnits="userSpaceOnUse" x1="263.5103" y1="325.4932" x2="263.5103" y2="342.7354">
		<stop  offset="0.1224" style="stop-color:#339933"/>
		<stop  offset="1" style="stop-color:#006837"/>
	</linearGradient>
	<polygon fill="url(#SVGID_27_)" points="263.807,325.493 274.639,339.367 270.976,338.414 270.485,340.937 267.803,338.883 
		266.011,342.735 263.952,339.75 261.221,342.65 259.842,339.046 257,340.933 257,338.458 252.381,339.197 	"/>
	<linearGradient id="SVGID_28_" gradientUnits="userSpaceOnUse" x1="263.3911" y1="323.8105" x2="263.3911" y2="334.5791">
		<stop  offset="0.1224" style="stop-color:#339933"/>
		<stop  offset="1" style="stop-color:#006837"/>
	</linearGradient>
	<polygon fill="url(#SVGID_28_)" points="263.685,323.811 270.45,332.476 268.163,331.88 267.856,333.455 266.181,332.173 
		265.062,334.579 263.776,332.714 262.07,334.525 260.992,332.274 259,333.453 259,331.907 256.333,332.369 	"/>
</g>
</svg>
