<?xml version="1.0" encoding="utf-8"?>
<!-- Generator: Adobe Illustrator 16.0.0, SVG Export Plug-In . SVG Version: 6.00 Build 0)  -->
<!DOCTYPE svg PUBLIC "-//W3C//DTD SVG 1.1//EN" "http://www.w3.org/Graphics/SVG/1.1/DTD/svg11.dtd">
<svg version="1.1" xmlns="http://www.w3.org/2000/svg" xmlns:xlink="http://www.w3.org/1999/xlink" x="0px" y="0px"
	 width="927.667px" height="814.333px" viewBox="0 0 927.667 814.333" enable-background="new 0 0 927.667 814.333"
	 xml:space="preserve">
<g id="Layer_2">
	
		<path fill="#99CC66" stroke="#99CC66" stroke-width="6" stroke-linecap="round" stroke-linejoin="round" stroke-miterlimit="10" d="
		M3,811.333c0,0,45.691-82.667,51.667-120c0,0-10.154-297.641,33.333-268.333c28.963,19.519,68.686-141.085,68.333-148.658
		C219.667,221.333,229.667,23,316.333,3l83.333,15c0,0,84.335,33.333,84.335,126.667c0,19.86-30.583,48.052-19.335,70.512
		c10.884,21.733,10.884,95.385,10.884,95.385l116.515-3.622c0,0,110.935-0.609,83.878,43.14l78.334,73.333
		c40.39,17.918,80.39,56.251,90.39,82.918s54.976,83.373,40,108.333c-10,16.667,26.667,116.668,31.667,123.334
		s8.333,73.333,8.333,73.333H3z"/>
</g>
<g id="Layer_3">
	
		<path fill="#669933" stroke="#669933" stroke-width="6" stroke-linecap="round" stroke-linejoin="round" stroke-miterlimit="10" d="
		M882.958,624.771c0,0-124.958,74.896-73.291,113.229c0,0,44.493-18.942,108.913,7.195L882.958,624.771z"/>
	
		<path fill="#669933" stroke="#669933" stroke-width="6" stroke-linecap="round" stroke-linejoin="round" stroke-miterlimit="10" d="
		M156.333,274.342c0,0,46.667,130.325,31.667,143.658s-90.588,5.574-90.588,5.574S96.333,469.017,156.333,274.342z"/>
	
		<path fill="#669933" stroke="#669933" stroke-width="6" stroke-linecap="round" stroke-linejoin="round" stroke-miterlimit="10" d="
		M484.324,145.165c-2.282-8.866-24.005,42.01-39.385,51.688l14.916,7.572C468.04,188.77,485.478,149.652,484.324,145.165z"/>
	
		<path fill="#669933" stroke="#669933" stroke-width="6" stroke-linecap="round" stroke-linejoin="round" stroke-miterlimit="10" d="
		M313,611.333c0,0,123.333-19.666,138.333-129C466.333,373,438,603,464.667,589.667s-116.485,33.333-82.409,60
		C382.257,649.667,369.667,609.667,313,611.333z"/>
	
		<path fill="#669933" stroke="#669933" stroke-width="6" stroke-linecap="round" stroke-linejoin="round" stroke-miterlimit="10" d="
		M54.667,691.333c0,0,36.667,73.333,120,63.333S22.207,743.457,11.77,794.895C11.77,794.895,43,728,54.667,691.333z"/>
</g>
<g id="Layer_1">
	<g id="Layer_1_1_">
		<path fill="none" stroke="#999999" stroke-width="6" stroke-linecap="square" stroke-miterlimit="10" d="M570.332,308.753"/>
		<path fill="none" stroke="#999999" stroke-width="6" stroke-linecap="square" stroke-miterlimit="10" d="M558.258,307.545"/>
		
			<linearGradient id="SVGID_1_" gradientUnits="userSpaceOnUse" x1="506.522" y1="640.7134" x2="504.1069" y2="636.5304" gradientTransform="matrix(1 0 0 -1 58.98 949.1865)">
			<stop  offset="0" style="stop-color:#F2F2F2"/>
			<stop  offset="0.195" style="stop-color:#F6B9BB"/>
			<stop  offset="0.3788" style="stop-color:#F9888C"/>
			<stop  offset="0.5779" style="stop-color:#FB5A60"/>
			<stop  offset="0.7551" style="stop-color:#FD3940"/>
			<stop  offset="0.9019" style="stop-color:#FF242C"/>
			<stop  offset="1" style="stop-color:#FF1D25"/>
		</linearGradient>
		<line fill="url(#SVGID_1_)" x1="559.465" y1="310.564" x2="569.124" y2="310.564"/>
		
			<polygon fill="#CCCCCC" stroke="#999999" stroke-width="6" stroke-linecap="round" stroke-linejoin="round" stroke-miterlimit="10" points="
			567.917,301.189 567.917,287.46 547.391,287.627 547.391,302.716 567.917,302.716 		"/>
		<polygon fill="#FFFFFF" stroke="#CCCCCC" stroke-width="6" stroke-linecap="round" stroke-miterlimit="10" points="
			553.465,286.416 561.581,286.416 561.413,211.557 554.26,211.557 		"/>
		
			<polygon fill="#CCCCCC" stroke="#CCCCCC" stroke-width="6" stroke-linecap="round" stroke-linejoin="round" stroke-miterlimit="10" points="
			553.465,215.179 553.465,215.179 561.71,215.179 564.79,211.557 550.684,211.557 		"/>
		
			<polyline fill="#CCCCCC" stroke="#999999" stroke-width="6" stroke-linecap="round" stroke-linejoin="round" stroke-miterlimit="10" points="
			552.824,304.527 552.824,287.255 580.594,287.067 580.594,302.716 		"/>
		
			<line fill="none" stroke="#999999" stroke-width="6" stroke-linecap="round" stroke-linejoin="round" stroke-miterlimit="10" x1="553.428" y1="304.527" x2="580.594" y2="304.527"/>
		<polygon fill="#FFFFFF" stroke="#CCCCCC" stroke-width="6" stroke-linecap="round" stroke-miterlimit="10" points="
			561.221,284.605 572.125,284.605 571.901,202.501 562.288,202.501 		"/>
		
			<polygon fill="#CCCCCC" stroke="#CCCCCC" stroke-width="6" stroke-linecap="round" stroke-linejoin="round" stroke-miterlimit="10" points="
			561.221,206.124 561.221,206.124 572.301,206.124 576.44,201.294 557.482,201.294 		"/>
		
			<polygon fill="#CCCCCC" stroke="#999999" stroke-width="6" stroke-linecap="round" stroke-linejoin="round" stroke-miterlimit="10" points="
			561.276,306.942 561.276,285.387 592.065,285.162 592.065,306.942 		"/>
		<polygon fill="#FFFFFF" stroke="#CCCCCC" stroke-width="6" stroke-linecap="round" stroke-miterlimit="10" points="
			570.53,282.794 582.823,282.794 582.569,191.031 571.733,191.031 		"/>
		
			<polygon fill="#CCCCCC" stroke="#CCCCCC" stroke-width="6" stroke-linecap="round" stroke-linejoin="round" stroke-miterlimit="10" points="
			570.53,195.257 570.53,195.257 583.019,195.257 587.686,190.427 566.315,190.427 		"/>
		
			<polygon fill="#999999" stroke="#999999" stroke-width="6" stroke-linecap="round" stroke-linejoin="round" stroke-miterlimit="10" points="
			475.55,306.942 475.55,276.153 543.768,276.153 543.768,305.703 543.768,306.942 		"/>
		
			<line fill="none" stroke="#666666" stroke-width="6" stroke-linecap="round" stroke-linejoin="round" stroke-miterlimit="10" x1="475.55" y1="284.605" x2="525.053" y2="284.605"/>
		
			<line fill="none" stroke="#666666" stroke-width="6" stroke-linecap="round" stroke-linejoin="round" stroke-miterlimit="10" x1="543.768" y1="290.642" x2="514.186" y2="290.642"/>
		
			<line fill="none" stroke="#666666" stroke-width="6" stroke-linecap="round" stroke-linejoin="round" stroke-miterlimit="10" x1="543.768" y1="297.283" x2="514.186" y2="297.283"/>
		
			<line fill="none" stroke="#666666" stroke-width="6" stroke-linecap="round" stroke-linejoin="round" stroke-miterlimit="10" x1="543.768" y1="302.716" x2="514.186" y2="302.716"/>
		
			<line fill="none" stroke="#666666" stroke-width="6" stroke-linecap="round" stroke-linejoin="round" stroke-miterlimit="10" x1="484.001" y1="274.342" x2="492.454" y2="274.342"/>
		
			<line fill="none" stroke="#666666" stroke-width="6" stroke-linecap="round" stroke-linejoin="round" stroke-miterlimit="10" x1="500.302" y1="274.342" x2="508.754" y2="274.342"/>
		
			<line fill="none" stroke="#666666" stroke-width="12" stroke-linecap="round" stroke-linejoin="round" stroke-miterlimit="10" x1="488.832" y1="306.942" x2="488.832" y2="263.475"/>
		
			<line fill="none" stroke="#666666" stroke-width="12" stroke-linecap="round" stroke-linejoin="round" stroke-miterlimit="10" x1="505.131" y1="306.942" x2="505.131" y2="263.475"/>
	</g>
</g>
</svg>
