<?xml version="1.0" encoding="utf-8"?>
<!-- Generator: Adobe Illustrator 16.0.0, SVG Export Plug-In . SVG Version: 6.00 Build 0)  -->
<!DOCTYPE svg PUBLIC "-//W3C//DTD SVG 1.1//EN" "http://www.w3.org/Graphics/SVG/1.1/DTD/svg11.dtd">
<svg version="1.1" id="Layer_1" xmlns="http://www.w3.org/2000/svg" xmlns:xlink="http://www.w3.org/1999/xlink" x="0px" y="0px"
	 width="315px" height="194px" viewBox="313 168 315 194" enable-background="new 313 168 315 194" xml:space="preserve">
<g id="Layer_2">
	
		<polygon fill="#FFFFFF" stroke="#CCCCCC" stroke-width="6" stroke-linecap="round" stroke-linejoin="round" stroke-miterlimit="10" points="
		604,295.5 604,171 584,171 583.493,295.57 574.5,359 616.5,359 	"/>
	<rect x="586" y="174" fill="#FF0000" width="15" height="16"/>
	<rect x="586" y="199" fill="#FF0000" width="15" height="16"/>
	<rect x="586" y="226" fill="#FF0000" width="15" height="16"/>
	<rect x="586" y="252" fill="#FF0000" width="15" height="16"/>
	<polygon fill="#CCCCCC" points="584,287 604,287 604,296 616.5,359 574,359 583.75,296.75 	"/>
	
		<polygon fill="#FFFFFF" stroke="#CCCCCC" stroke-width="6" stroke-linecap="round" stroke-linejoin="round" stroke-miterlimit="10" points="
		539,295.5 539,171 519,171 518.493,295.57 509.5,359 551.5,359 	"/>
	<rect x="521" y="174" fill="#FF0000" width="15" height="16"/>
	<rect x="521" y="199" fill="#FF0000" width="15" height="16"/>
	<rect x="521" y="226" fill="#FF0000" width="15" height="16"/>
	<rect x="521" y="252" fill="#FF0000" width="15" height="16"/>
	<polygon fill="#CCCCCC" points="519,287 539,287 539,296 551.5,359 509,359 518.75,296.75 	"/>
	
		<polygon fill="#FFFFFF" stroke="#CCCCCC" stroke-width="6" stroke-linecap="round" stroke-linejoin="round" stroke-miterlimit="10" points="
		479,295.5 479,171 459,171 458.493,295.57 449.5,359 491.5,359 	"/>
	<rect x="461" y="174" fill="#FF0000" width="15" height="16"/>
	<rect x="461" y="199" fill="#FF0000" width="15" height="16"/>
	<rect x="461" y="226" fill="#FF0000" width="15" height="16"/>
	<rect x="461" y="252" fill="#FF0000" width="15" height="16"/>
	<polygon fill="#CCCCCC" points="459,287 479,287 479,296 491.5,359 449,359 458.75,296.75 	"/>
	
		<polygon fill="#FFFFFF" stroke="#CCCCCC" stroke-width="6" stroke-linecap="round" stroke-linejoin="round" stroke-miterlimit="10" points="
		414,295.5 414,171 394,171 393.494,295.57 384.5,359 426.5,359 	"/>
	<rect x="396" y="174" fill="#FF0000" width="15" height="16"/>
	<rect x="396" y="199" fill="#FF0000" width="15" height="16"/>
	<rect x="396" y="226" fill="#FF0000" width="15" height="16"/>
	<rect x="396" y="252" fill="#FF0000" width="15" height="16"/>
	<polygon fill="#CCCCCC" points="394,287 414,287 414,296 426.5,359 384,359 393.75,296.75 	"/>
	<line fill="none" stroke="#666666" stroke-width="4" stroke-miterlimit="10" x1="388" y1="175" x2="420" y2="175"/>
	<line fill="none" stroke="#666666" stroke-width="4" stroke-miterlimit="10" x1="453" y1="175" x2="485" y2="175"/>
	<line fill="none" stroke="#666666" stroke-width="4" stroke-miterlimit="10" x1="513" y1="175" x2="545" y2="175"/>
	<line fill="none" stroke="#666666" stroke-width="4" stroke-miterlimit="10" x1="578" y1="175" x2="610" y2="175"/>
</g>
<g id="Layer_1_1_">
	
		<polyline fill="none" stroke="#666666" stroke-width="6" stroke-linecap="round" stroke-linejoin="round" stroke-miterlimit="10" points="
		316,359 320.078,359 625,359 	"/>
	<path fill="none" stroke="#666666" stroke-width="6" stroke-linecap="round" stroke-linejoin="round" stroke-miterlimit="10" d="
		M337.625,280"/>
	
		<line fill="none" stroke="#666666" stroke-width="6" stroke-linecap="round" stroke-linejoin="round" stroke-miterlimit="10" x1="330" y1="359" x2="330" y2="288"/>
	
		<line fill="none" stroke="#666666" stroke-width="6" stroke-linecap="round" stroke-linejoin="round" stroke-miterlimit="10" x1="378" y1="359" x2="378" y2="288"/>
	
		<line fill="none" stroke="#666666" stroke-width="12" stroke-linecap="round" stroke-linejoin="round" stroke-miterlimit="10" x1="345" y1="355" x2="345" y2="284"/>
	
		<line fill="none" stroke="#666666" stroke-width="12" stroke-linecap="round" stroke-linejoin="round" stroke-miterlimit="10" x1="364" y1="355" x2="364" y2="284"/>
	
		<line fill="none" stroke="#666666" stroke-width="12" stroke-linecap="round" stroke-linejoin="round" stroke-miterlimit="10" x1="330" y1="299" x2="378" y2="299"/>
	
		<line fill="none" stroke="#666666" stroke-width="12" stroke-linecap="round" stroke-linejoin="round" stroke-miterlimit="10" x1="330" y1="320" x2="378" y2="320"/>
	
		<line fill="none" stroke="#666666" stroke-width="4" stroke-linecap="round" stroke-linejoin="round" stroke-miterlimit="10" x1="330" y1="308" x2="361" y2="308"/>
	
		<line fill="none" stroke="#666666" stroke-width="4" stroke-linecap="round" stroke-linejoin="round" stroke-miterlimit="10" x1="346" y1="332" x2="377" y2="332"/>
	
		<line fill="none" stroke="#666666" stroke-width="4" stroke-linecap="round" stroke-linejoin="round" stroke-miterlimit="10" x1="331" y1="288" x2="378" y2="288"/>
	
		<rect x="323" y="272" fill="#FFFFFF" stroke="#999999" stroke-width="4" stroke-linecap="round" stroke-linejoin="round" stroke-miterlimit="10" width="62" height="12"/>
	<path fill="none" stroke="#666666" stroke-width="6" stroke-linecap="round" stroke-linejoin="round" stroke-miterlimit="10" d="
		M409.625,280"/>
	
		<line fill="none" stroke="#666666" stroke-width="6" stroke-linecap="round" stroke-linejoin="round" stroke-miterlimit="10" x1="402" y1="359" x2="402" y2="288"/>
	
		<line fill="none" stroke="#666666" stroke-width="6" stroke-linecap="round" stroke-linejoin="round" stroke-miterlimit="10" x1="450" y1="359" x2="450" y2="288"/>
	
		<line fill="none" stroke="#666666" stroke-width="12" stroke-linecap="round" stroke-linejoin="round" stroke-miterlimit="10" x1="417" y1="355" x2="417" y2="284"/>
	
		<line fill="none" stroke="#666666" stroke-width="12" stroke-linecap="round" stroke-linejoin="round" stroke-miterlimit="10" x1="436" y1="355" x2="436" y2="284"/>
	
		<line fill="none" stroke="#666666" stroke-width="12" stroke-linecap="round" stroke-linejoin="round" stroke-miterlimit="10" x1="402" y1="299" x2="450" y2="299"/>
	
		<line fill="none" stroke="#666666" stroke-width="12" stroke-linecap="round" stroke-linejoin="round" stroke-miterlimit="10" x1="402" y1="320" x2="450" y2="320"/>
	
		<line fill="none" stroke="#666666" stroke-width="4" stroke-linecap="round" stroke-linejoin="round" stroke-miterlimit="10" x1="402" y1="308" x2="433" y2="308"/>
	
		<line fill="none" stroke="#666666" stroke-width="4" stroke-linecap="round" stroke-linejoin="round" stroke-miterlimit="10" x1="418" y1="332" x2="449" y2="332"/>
	
		<line fill="none" stroke="#666666" stroke-width="4" stroke-linecap="round" stroke-linejoin="round" stroke-miterlimit="10" x1="403" y1="288" x2="450" y2="288"/>
	
		<rect x="395" y="272" fill="#FFFFFF" stroke="#999999" stroke-width="4" stroke-linecap="round" stroke-linejoin="round" stroke-miterlimit="10" width="62" height="12"/>
	<path fill="none" stroke="#666666" stroke-width="6" stroke-linecap="round" stroke-linejoin="round" stroke-miterlimit="10" d="
		M482.625,280"/>
	
		<line fill="none" stroke="#666666" stroke-width="6" stroke-linecap="round" stroke-linejoin="round" stroke-miterlimit="10" x1="475" y1="359" x2="475" y2="288"/>
	
		<line fill="none" stroke="#666666" stroke-width="6" stroke-linecap="round" stroke-linejoin="round" stroke-miterlimit="10" x1="523" y1="359" x2="523" y2="288"/>
	
		<line fill="none" stroke="#666666" stroke-width="12" stroke-linecap="round" stroke-linejoin="round" stroke-miterlimit="10" x1="490" y1="355" x2="490" y2="284"/>
	
		<line fill="none" stroke="#666666" stroke-width="12" stroke-linecap="round" stroke-linejoin="round" stroke-miterlimit="10" x1="509" y1="355" x2="509" y2="284"/>
	
		<line fill="none" stroke="#666666" stroke-width="12" stroke-linecap="round" stroke-linejoin="round" stroke-miterlimit="10" x1="475" y1="299" x2="523" y2="299"/>
	
		<line fill="none" stroke="#666666" stroke-width="12" stroke-linecap="round" stroke-linejoin="round" stroke-miterlimit="10" x1="475" y1="320" x2="523" y2="320"/>
	
		<line fill="none" stroke="#666666" stroke-width="4" stroke-linecap="round" stroke-linejoin="round" stroke-miterlimit="10" x1="475" y1="308" x2="506" y2="308"/>
	
		<line fill="none" stroke="#666666" stroke-width="4" stroke-linecap="round" stroke-linejoin="round" stroke-miterlimit="10" x1="491" y1="332" x2="522" y2="332"/>
	
		<line fill="none" stroke="#666666" stroke-width="4" stroke-linecap="round" stroke-linejoin="round" stroke-miterlimit="10" x1="476" y1="288" x2="523" y2="288"/>
	
		<rect x="468" y="272" fill="#FFFFFF" stroke="#999999" stroke-width="4" stroke-linecap="round" stroke-linejoin="round" stroke-miterlimit="10" width="62" height="12"/>
	<path fill="none" stroke="#666666" stroke-width="6" stroke-linecap="round" stroke-linejoin="round" stroke-miterlimit="10" d="
		M553.625,280"/>
	
		<line fill="none" stroke="#666666" stroke-width="6" stroke-linecap="round" stroke-linejoin="round" stroke-miterlimit="10" x1="546" y1="359" x2="546" y2="288"/>
	
		<line fill="none" stroke="#666666" stroke-width="6" stroke-linecap="round" stroke-linejoin="round" stroke-miterlimit="10" x1="594" y1="359" x2="594" y2="288"/>
	
		<line fill="none" stroke="#666666" stroke-width="12" stroke-linecap="round" stroke-linejoin="round" stroke-miterlimit="10" x1="561" y1="355" x2="561" y2="284"/>
	
		<line fill="none" stroke="#666666" stroke-width="12" stroke-linecap="round" stroke-linejoin="round" stroke-miterlimit="10" x1="580" y1="355" x2="580" y2="284"/>
	
		<line fill="none" stroke="#666666" stroke-width="12" stroke-linecap="round" stroke-linejoin="round" stroke-miterlimit="10" x1="546" y1="299" x2="594" y2="299"/>
	
		<line fill="none" stroke="#666666" stroke-width="12" stroke-linecap="round" stroke-linejoin="round" stroke-miterlimit="10" x1="546" y1="320" x2="594" y2="320"/>
	
		<line fill="none" stroke="#666666" stroke-width="4" stroke-linecap="round" stroke-linejoin="round" stroke-miterlimit="10" x1="546" y1="308" x2="577" y2="308"/>
	
		<line fill="none" stroke="#666666" stroke-width="4" stroke-linecap="round" stroke-linejoin="round" stroke-miterlimit="10" x1="562" y1="332" x2="593" y2="332"/>
	
		<line fill="none" stroke="#666666" stroke-width="4" stroke-linecap="round" stroke-linejoin="round" stroke-miterlimit="10" x1="547" y1="288" x2="594" y2="288"/>
	
		<rect x="539" y="272" fill="#FFFFFF" stroke="#999999" stroke-width="4" stroke-linecap="round" stroke-linejoin="round" stroke-miterlimit="10" width="62" height="12"/>
	
		<line fill="none" stroke="#666666" stroke-width="6" stroke-linecap="square" stroke-linejoin="bevel" stroke-miterlimit="10" x1="335" y1="257" x2="335" y2="268"/>
	
		<line fill="none" stroke="#666666" stroke-width="6" stroke-linecap="square" stroke-linejoin="bevel" stroke-miterlimit="10" x1="408" y1="257" x2="408" y2="268"/>
	
		<line fill="none" stroke="#666666" stroke-width="6" stroke-linecap="square" stroke-linejoin="bevel" stroke-miterlimit="10" x1="480" y1="257" x2="480" y2="268"/>
	
		<line fill="none" stroke="#666666" stroke-width="6" stroke-linecap="square" stroke-linejoin="bevel" stroke-miterlimit="10" x1="551" y1="257" x2="551" y2="268"/>
</g>
</svg>
