<?xml version="1.0" encoding="utf-8"?>
<!-- Generator: Adobe Illustrator 16.0.0, SVG Export Plug-In . SVG Version: 6.00 Build 0)  -->
<!DOCTYPE svg PUBLIC "-//W3C//DTD SVG 1.1//EN" "http://www.w3.org/Graphics/SVG/1.1/DTD/svg11.dtd">
<svg version="1.1" id="Layer_1" xmlns="http://www.w3.org/2000/svg" xmlns:xlink="http://www.w3.org/1999/xlink" x="0px" y="0px"
	 width="222px" height="205.5px" viewBox="0 0 222 205.5" enable-background="new 0 0 222 205.5" xml:space="preserve">
<g id="Layer_1_1_">
	<path fill="none" stroke="#999999" stroke-width="6" stroke-linecap="square" stroke-miterlimit="10" d="M170,199"/>
	<path fill="none" stroke="#999999" stroke-width="6" stroke-linecap="square" stroke-miterlimit="10" d="M150,197"/>
	
		<linearGradient id="SVGID_1_" gradientUnits="userSpaceOnUse" x1="103.0195" y1="-10.0161" x2="99.0195" y2="-16.9443" gradientTransform="matrix(1 0 0 -1 58.98 188.5195)">
		<stop  offset="0" style="stop-color:#F2F2F2"/>
		<stop  offset="0.195" style="stop-color:#F6B9BB"/>
		<stop  offset="0.3788" style="stop-color:#F9888C"/>
		<stop  offset="0.5779" style="stop-color:#FB5A60"/>
		<stop  offset="0.7551" style="stop-color:#FD3940"/>
		<stop  offset="0.9019" style="stop-color:#FF242C"/>
		<stop  offset="1" style="stop-color:#FF1D25"/>
	</linearGradient>
	<line fill="url(#SVGID_1_)" x1="152" y1="202" x2="168" y2="202"/>
	
		<polygon fill="#CCCCCC" stroke="#999999" stroke-width="6" stroke-linecap="round" stroke-linejoin="round" stroke-miterlimit="10" points="
		166,186.471 166,163.729 132,164.006 132,189 166,189 	"/>
	<polygon fill="#FFFFFF" stroke="#CCCCCC" stroke-width="6" stroke-linecap="round" stroke-miterlimit="10" points="142.063,162 
		155.504,162 155.227,38 143.379,38 	"/>
	
		<polygon fill="#CCCCCC" stroke="#CCCCCC" stroke-width="6" stroke-linecap="round" stroke-linejoin="round" stroke-miterlimit="10" points="
		142.063,44 142.063,44 155.72,44 160.819,38 137.456,38 	"/>
	
		<polyline fill="#CCCCCC" stroke="#999999" stroke-width="6" stroke-linecap="round" stroke-linejoin="round" stroke-miterlimit="10" points="
		141,192 141,163.39 187,163.078 187,189 	"/>
	
		<line fill="none" stroke="#999999" stroke-width="6" stroke-linecap="round" stroke-linejoin="round" stroke-miterlimit="10" x1="142" y1="192" x2="187" y2="192"/>
	<polygon fill="#FFFFFF" stroke="#CCCCCC" stroke-width="6" stroke-linecap="round" stroke-miterlimit="10" points="154.908,159 
		172.973,159 172.6,23 156.677,23 	"/>
	
		<polygon fill="#CCCCCC" stroke="#CCCCCC" stroke-width="6" stroke-linecap="round" stroke-linejoin="round" stroke-miterlimit="10" points="
		154.908,29 154.908,29 173.264,29 180.118,21 148.716,21 	"/>
	
		<polygon fill="#CCCCCC" stroke="#999999" stroke-width="6" stroke-linecap="round" stroke-linejoin="round" stroke-miterlimit="10" points="
		155,196 155,160.296 206,159.922 206,196 	"/>
	<polygon fill="#FFFFFF" stroke="#CCCCCC" stroke-width="6" stroke-linecap="round" stroke-miterlimit="10" points="170.328,156 
		190.69,156 190.271,4 172.321,4 	"/>
	
		<polygon fill="#CCCCCC" stroke="#CCCCCC" stroke-width="6" stroke-linecap="round" stroke-linejoin="round" stroke-miterlimit="10" points="
		170.328,11 170.328,11 191.018,11 198.746,3 163.348,3 	"/>
	
		<polygon fill="#999999" stroke="#999999" stroke-width="6" stroke-linecap="round" stroke-linejoin="round" stroke-miterlimit="10" points="
		13,196 13,145 126,145 126,193.948 126,196 	"/>
	
		<line fill="none" stroke="#666666" stroke-width="6" stroke-linecap="round" stroke-linejoin="round" stroke-miterlimit="10" x1="13" y1="159" x2="95" y2="159"/>
	
		<line fill="none" stroke="#666666" stroke-width="6" stroke-linecap="round" stroke-linejoin="round" stroke-miterlimit="10" x1="126" y1="169" x2="77" y2="169"/>
	
		<line fill="none" stroke="#666666" stroke-width="6" stroke-linecap="round" stroke-linejoin="round" stroke-miterlimit="10" x1="126" y1="180" x2="77" y2="180"/>
	
		<line fill="none" stroke="#666666" stroke-width="6" stroke-linecap="round" stroke-linejoin="round" stroke-miterlimit="10" x1="126" y1="189" x2="77" y2="189"/>
	
		<line fill="none" stroke="#666666" stroke-width="6" stroke-linecap="round" stroke-linejoin="round" stroke-miterlimit="10" x1="27" y1="142" x2="41" y2="142"/>
	
		<line fill="none" stroke="#666666" stroke-width="6" stroke-linecap="round" stroke-linejoin="round" stroke-miterlimit="10" x1="54" y1="142" x2="68" y2="142"/>
	
		<polyline fill="none" stroke="#666666" stroke-width="6" stroke-linecap="round" stroke-linejoin="round" stroke-miterlimit="10" points="
		3,199 19.515,199 219,199 	"/>
	
		<line fill="none" stroke="#666666" stroke-width="12" stroke-linecap="round" stroke-linejoin="round" stroke-miterlimit="10" x1="35" y1="196" x2="35" y2="124"/>
	
		<line fill="none" stroke="#666666" stroke-width="12" stroke-linecap="round" stroke-linejoin="round" stroke-miterlimit="10" x1="62" y1="196" x2="62" y2="124"/>
</g>
<path fill="none" stroke="#999999" stroke-width="6" stroke-linecap="square" stroke-miterlimit="10" d="M191.047,205.5"/>
</svg>
