<?xml version="1.0" encoding="utf-8"?>
<!-- Generator: Adobe Illustrator 16.0.0, SVG Export Plug-In . SVG Version: 6.00 Build 0)  -->
<!DOCTYPE svg PUBLIC "-//W3C//DTD SVG 1.1//EN" "http://www.w3.org/Graphics/SVG/1.1/DTD/svg11.dtd">
<svg version="1.1" xmlns="http://www.w3.org/2000/svg" xmlns:xlink="http://www.w3.org/1999/xlink" x="0px" y="0px" width="960px"
	 height="560px" viewBox="0 0 960 560" enable-background="new 0 0 960 560" xml:space="preserve">
<g id="Layer_3">
	<path fill="#99CC66" stroke="#99CC66" stroke-miterlimit="10" d="M690.22,384.095l-533.5-0.4c0,0,44.45-110.28,45.84-138.06
		c1.38-27.771,25-72.22,61.11-100c36.109-27.77,104.16-70.83,100-25c-0.237,2.613-0.426,5.185-0.566,7.713
		c-0.15,2.717-0.246,5.383-0.288,7.994c-0.067,4.157-0.001,8.175,0.191,12.037c1.546,31.057,11.2,52.026,24.272,54.206
		c1.097,0.184,12.08,5.587,23.641,12.699c13.965,8.592,28.771,19.677,28,27.061c-1.641,15.791-6.83,50.15,4.1,55.2
		c3.33,2.931,7.49,4.33,7.49,4.33h6.891c0,0-2.291-0.66-4.98-2.04c0.41,0.07,0.83,0.12,1.26,0.181
		c2.42,0.96,4.461,1.449,4.461,1.449h12.819c3.55,0.181,7.09,0.311,10.41,0.391l-30.49,0.08l31.24-0.061
		c10.07,0.25,18.01,0.15,18.01,0.15s42.48,24.59,74.08,42.79c1.2,0.689,2.39,1.37,3.55,2.05c0.561,0.32,1.12,0.64,1.67,0.95
		c0.181,0.11,0.36,0.21,0.54,0.31c11.3,6.511,20.59,11.83,25.03,14.33c3.73,2.101,10.5,4.5,19.51,6.931
		c7.79,3.02,15.84,5.75,24.04,8.01c0,0,0.01,0,0.021,0C662.23,381.175,676.29,383.664,690.22,384.095z"/>
</g>
<g id="Layer_2">
	<path fill="#669933" stroke="#669933" stroke-miterlimit="10" d="M361.934,129.314C355.457,149.886,346.477,199.762,323,197
		c-17-2,50.503-6.22,66.224,7.89C389.224,204.89,354.75,191,361.934,129.314z"/>
	<path fill="#669933" stroke="#669933" stroke-miterlimit="10" d="M205.013,230.003c0,0-5.797,53.792-20.81,89.997
		s-27.483,63-27.483,63S187.026,309.007,205.013,230.003z"/>
	<path fill="#669933" stroke="#669933" stroke-miterlimit="10" d="M440.75,239.311c-17.243,64.373-16.964,63.818-20.276,68.689
		l-0.329-11.894C420.145,296.106,430.447,276.307,440.75,239.311z"/>
	<path fill="#669933" stroke="#669933" stroke-miterlimit="10" d="M266,268.272c0,0,28,23.908,29,27.818s1,36.91,0,36.91
		s-23,11.12-23,11.12l20-19.325c0,0,2.394-13.16-4-27.945S266,268.272,266,268.272z"/>
	<path fill="#669933" stroke="#669933" stroke-width="0.5" stroke-linecap="round" stroke-miterlimit="1" d="M549.606,333.219
		c0,0,42.763,26.647,39.701,38.352c-3.062,11.705-42.284-10.071-70.631,4.58L505,383.064l165.99,0.979
		c0,0-37.988-10.517-56.383-18.175C592.747,356.77,571.939,346.318,549.606,333.219z"/>
	<g id="Layer_2_1_">
		<polygon fill="#99CC66" points="774.5,335.76 856.5,339.856 901.5,347.134 922.5,361.486 953.067,387.5 774.5,387.5 		"/>
	</g>
</g>
<g id="Layer_1">
	<g id="XMLID_1_">
		<g>
			<polygon fill="#666666" points="771,333 771,383 769.84,383 769.84,340.06 769.05,340.06 769.21,333 			"/>
			<path fill="#66CCFF" d="M769.84,383v0.46l-54.74-0.65c-34.08-2.359-66.39-7.869-87.729-13.359l-5.78-1.98l-0.01-0.91l0.42,0.19
				v-26.69h147.05L769,342.53V383H769.84z"/>
			<polygon fill="#666666" points="769.84,340.06 769.84,383 769,383 769,342.53 769.05,340.06 			"/>
			<path fill="#99CC66" d="M725.35,383.43l44.49,0.03C755.36,384.28,740.28,384.18,725.35,383.43z"/>
			<path fill="#99CC66" d="M725.35,383.43l-26.859-0.02c0.89-0.03,1.79-0.07,2.68-0.11l22.74,0.05
				C724.39,383.38,724.87,383.41,725.35,383.43z"/>
			<path fill="#99CC66" d="M723.91,383.35l-22.74-0.05c-0.89,0.04-1.79,0.08-2.68,0.11l-8.271-0.01
				c-13.93-0.431-27.989-2.92-41.649-6.7l23.39,5.02l21.58,1.58l18.62-0.52l2.939,0.029C718.02,383.02,720.96,383.2,723.91,383.35z"
				/>
			<path fill="#66CCFF" d="M715.1,382.81l-2.939-0.029l-18.62,0.52l-21.58-1.58l-23.39-5.02c-0.011,0-0.021,0-0.021,0l-21.18-7.25
				C648.71,374.94,681.02,380.45,715.1,382.81z"/>
			<path fill="#99CC66" d="M627.37,369.45l21.18,7.25c-8.2-2.26-16.25-4.99-24.04-8.01C625.44,368.94,626.39,369.2,627.37,369.45z"
				/>
			<polygon fill="#66CCFF" points="622,340.06 622,366.75 621.58,366.56 621.42,340.06 			"/>
			<polygon fill="#FFFFFF" points="622,317 622,340.06 621.42,340.06 621.58,366.56 588,350.96 588,323 588,322.81 588,317 613,317 
							"/>
			<polygon fill="#FF0000" points="614.45,308 621.29,308 621.49,308 622,308 622,317 613,317 613,308 614.29,308 			"/>
			<polygon fill="#FFFFFF" points="613,308 613,317 588,317 588,304 613,304 613,307.72 			"/>
			<path fill="#FFFFFF" d="M588,323v27.96l-48.05-29.33c-2.33-1.72-3.58-2.7-3.58-2.7l-4.76-2.39l-5.61-3.42v-14.49
				c0,0,50.52,24.54,61.78,24.18H588V323z"/>
			<polygon fill="#FFFFFF" points="522,294 522,311 521.71,311.58 500.9,301.15 500.13,301.15 500.07,294 510,294 			"/>
			<path fill="#FFFFFF" d="M500.07,294l0.06,7.15l-18.01,0.029c-0.21,0-0.42-0.01-0.63-0.02l5.51-0.01V291h3h8h2.04L500.07,294z"/>
			<polygon fill="#FFFFFF" points="498,279 498,291 490,291 490,290 490,279 			"/>
			<path fill="#66CCFF" d="M485.74,292.93v7.84h-14.78c-6.07-0.3-12.17-0.76-17.28-1.449c-3.26-1.28-7.21-3.431-7.76-6.391H485.74z"
				/>
			<path fill="#CCCCCC" d="M485.51,284.61c1.15,1.439-1.42,3.34-3.16,3.34c-1.74,0-4.26-1.86-3.149-3.34
				C479.2,284.61,482.16,286.42,485.51,284.61z"/>
			<path fill="#CCCCCC" d="M484.59,283.15c0.271,0.479,0.55,0.989,0.92,1.46c-3.35,1.81-6.31,0-6.31,0
				c0.4-0.53,0.69-1.021,0.92-1.46C480.12,283.15,482.62,284.36,484.59,283.15z"/>
			<path fill="#CCCCCC" d="M483.88,282.03c0.26,0.31,0.48,0.7,0.71,1.12c-1.97,1.21-4.47,0-4.47,0c0.25-0.44,0.45-0.82,0.67-1.12
				C480.79,282.03,482.55,282.89,483.88,282.03z"/>
			<path fill="#CCCCCC" d="M483.88,282.03c-1.33,0.859-3.09,0-3.09,0c0.36-0.49,0.79-0.771,1.56-0.771
				C483.05,281.26,483.51,281.57,483.88,282.03z"/>
			<path fill="#99CC66" d="M482.12,301.18l-31.24,0.061l30.49-0.08c0.04,0,0.08,0,0.12,0C481.7,301.17,481.91,301.18,482.12,301.18z
				"/>
			<path fill="#66CCFF" d="M470.96,300.77h-12.82c0,0-2.04-0.489-4.46-1.449C458.79,300.01,464.89,300.47,470.96,300.77z"/>
			<path fill="#666666" d="M457.4,301.18h-6.89c0,0-4.16-1.399-7.49-4.33c2.06,0.95,5.37,1.7,9.4,2.29
				C455.11,300.52,457.4,301.18,457.4,301.18z"/>
			<path fill="#666666" d="M438.97,288h5.05c-0.6,5.41,4.35,9.08,8.4,11.14c-4.03-0.59-7.34-1.34-9.4-2.29
				C440.6,294.72,438.61,291.79,438.97,288z"/>
		</g>
		<g>
			<path fill="none" stroke="#99CC66" stroke-miterlimit="10" d="M443.02,296.85"/>
			<path fill="none" stroke="#99CC66" stroke-miterlimit="10" d="M715.1,382.81c2.92,0.21,5.86,0.391,8.811,0.54
				c0.479,0.03,0.96,0.061,1.439,0.08c14.931,0.75,30.011,0.851,44.49,0.03l-44.49-0.03l-26.859-0.02l-8.271-0.01"/>
			<path fill="none" stroke="#99CC66" stroke-miterlimit="10" d="M579.97,347.43c11.3,6.511,20.59,11.83,25.03,14.33
				c3.73,2.101,10.5,4.5,19.51,6.931c0.931,0.25,1.88,0.51,2.86,0.76"/>
			<path fill="none" stroke="#99CC66" stroke-miterlimit="10" d="M577.76,346.17c0.561,0.32,1.12,0.64,1.67,0.95"/>
			<path fill="none" stroke="#99CC66" stroke-miterlimit="10" d="M481.49,301.16c0.21,0.01,0.42,0.02,0.63,0.02
				c10.07,0.25,18.01,0.15,18.01,0.15s42.48,24.59,74.08,42.79"/>
			<path fill="none" stroke="#99CC66" stroke-miterlimit="10" d="M470.96,300.77c3.55,0.181,7.09,0.311,10.41,0.391"/>
			<path fill="none" stroke="#99CC66" stroke-miterlimit="10" d="M452.42,299.14c0.41,0.07,0.83,0.12,1.26,0.181"/>
			<polyline fill="none" stroke="#66CCFF" stroke-width="6" stroke-miterlimit="10" points="648.55,376.7 627.37,369.45 
				621.59,367.47 621.58,366.56 621.42,340.06 622,340.06 769.05,340.06 			"/>
			<polyline fill="none" stroke="#66CCFF" stroke-width="6" stroke-miterlimit="10" points="769.84,383 769.84,383.46 715.1,382.81 
				712.16,382.78 693.54,383.3 671.96,381.72 648.57,376.7 			"/>
			<path fill="none" stroke="#66CCFF" stroke-width="6" stroke-miterlimit="10" d="M453.68,299.32c-3.26-1.28-7.21-3.431-7.76-6.391
				h39.82v7.84h-14.78h-12.82C458.14,300.77,456.1,300.28,453.68,299.32z"/>
			<path fill="none" stroke="#666666" stroke-width="2" stroke-linecap="round" stroke-linejoin="round" stroke-miterlimit="10" d="
				M514.34,252.47c0,0,49.68,24.08,103.33,12.79c0.01,0,0.03-0.01,0.04-0.01"/>
			
				<line fill="none" stroke="#666666" stroke-width="6" stroke-linecap="round" stroke-linejoin="round" stroke-miterlimit="10" x1="498" y1="279" x2="498" y2="291"/>
			
				<line fill="none" stroke="#666666" stroke-width="6" stroke-linecap="round" stroke-linejoin="round" stroke-miterlimit="10" x1="490" y1="290" x2="490" y2="279"/>
			
				<polygon fill="none" stroke="#666666" stroke-width="6" stroke-linecap="round" stroke-linejoin="round" stroke-miterlimit="10" points="
				482,279 481,279 481,275 500,275 500,279 498,279 490,279 			"/>
			
				<line fill="none" stroke="#666666" stroke-width="6" stroke-linecap="round" stroke-linejoin="round" stroke-miterlimit="10" x1="482" y1="281" x2="482" y2="279"/>
			<path fill="none" stroke="#666666" stroke-width="3" stroke-linecap="round" stroke-linejoin="round" stroke-miterlimit="10" d="
				M479.2,284.61c-1.11,1.479,1.41,3.34,3.149,3.34c1.74,0,4.311-1.9,3.16-3.34c-0.37-0.471-0.649-0.98-0.92-1.46
				c-0.229-0.42-0.45-0.811-0.71-1.12c-0.37-0.46-0.83-0.771-1.53-0.771c-0.77,0-1.199,0.28-1.56,0.771
				c-0.22,0.3-0.42,0.68-0.67,1.12C479.89,283.59,479.6,284.08,479.2,284.61z"/>
			<path fill="none" stroke="#666666" stroke-width="3" stroke-linecap="round" stroke-linejoin="round" stroke-miterlimit="10" d="
				M479.2,284.61c0,0,2.96,1.81,6.31,0"/>
			<path fill="none" stroke="#666666" stroke-width="3" stroke-linecap="round" stroke-linejoin="round" stroke-miterlimit="10" d="
				M480.12,283.15c0,0,2.5,1.21,4.47,0"/>
			<path fill="none" stroke="#666666" stroke-width="3" stroke-linecap="round" stroke-linejoin="round" stroke-miterlimit="10" d="
				M480.79,282.03c0,0,1.76,0.859,3.09,0"/>
			
				<polyline fill="none" stroke="#666666" stroke-width="6" stroke-linecap="round" stroke-linejoin="round" stroke-miterlimit="10" points="
				500,294 500.07,294 510,294 522,294 522,311 			"/>
			
				<polyline fill="none" stroke="#666666" stroke-width="6" stroke-linecap="round" stroke-linejoin="round" stroke-miterlimit="10" points="
				525.67,313.34 525.09,291 518.78,291 510.36,291 510,291 510,294 			"/>
			
				<polyline fill="none" stroke="#666666" stroke-width="3" stroke-linecap="round" stroke-linejoin="round" stroke-miterlimit="10" points="
				517.25,258.5 517.4,261.66 517.4,261.68 517.55,264.8 517.55,264.82 517.8,270.16 517.8,270.18 518.04,275.16 518.3,280.68 
				518.3,280.7 518.77,290.63 518.78,290.91 			"/>
			
				<polyline fill="none" stroke="#666666" stroke-width="3" stroke-linecap="round" stroke-linejoin="round" stroke-miterlimit="10" points="
				510.36,290.25 510.79,280.74 510.8,280.66 511.04,275.17 511.04,275.15 511.27,270.19 511.27,270.14 511.51,264.82 511.51,264.8 
				511.66,261.68 511.66,261.66 511.8,258.5 			"/>
			
				<polygon fill="none" stroke="#666666" stroke-width="3" stroke-linecap="round" stroke-linejoin="round" stroke-miterlimit="10" points="
				514.34,252.49 515.22,254.31 515.68,255.25 515.83,255.57 516.19,256.31 516.24,256.42 517.02,258.03 517.11,258.21 
				517.25,258.5 516.66,258.5 512.4,258.5 511.8,258.5 511.93,258.2 511.99,258.05 512.7,256.37 512.71,256.35 513.06,255.53 
				513.12,255.39 			"/>
			
				<polyline fill="none" stroke="#666666" stroke-width="3" stroke-linecap="round" stroke-linejoin="round" stroke-miterlimit="10" points="
				515.37,254.24 515.22,254.31 514.53,254.67 513.12,255.39 512.91,255.49 513.06,255.53 514.53,255.89 516.19,256.31 
				516.39,256.36 516.24,256.42 514.53,257.07 511.99,258.05 511.8,258.12 511.93,258.2 512.4,258.5 514.53,259.85 517.4,261.66 
				517.41,261.67 517.4,261.68 514.53,263.2 511.51,264.8 511.5,264.81 511.51,264.82 514.53,267.38 517.8,270.16 517.81,270.17 
				517.8,270.18 514.53,272.59 511.04,275.15 511.03,275.16 511.04,275.17 514.53,277.82 518.3,280.68 518.31,280.69 518.3,280.7 
				514.53,285.42 510.36,290.63 			"/>
			
				<polyline fill="none" stroke="#666666" stroke-width="2" stroke-linecap="round" stroke-linejoin="round" stroke-miterlimit="10" points="
				513.69,254.24 514.53,254.67 515.68,255.25 516.14,255.49 515.83,255.57 514.53,255.89 512.71,256.35 512.66,256.36 
				512.7,256.37 514.53,257.07 517.02,258.03 517.26,258.12 517.11,258.21 516.66,258.5 514.53,259.85 511.66,261.66 511.64,261.67 
				511.66,261.68 514.53,263.2 517.55,264.8 517.56,264.81 517.55,264.82 514.53,267.38 511.27,270.14 511.24,270.17 511.27,270.19 
				514.53,272.59 518.02,275.16 514.53,277.82 510.8,280.66 510.75,280.69 510.79,280.74 514.53,285.42 518.69,290.63 			"/>
			
				<polyline fill="none" stroke="#666666" stroke-width="2" stroke-linecap="round" stroke-linejoin="round" stroke-miterlimit="10" points="
				620.21,272 620.32,275.19 620.32,275.23 620.45,278.78 620.45,278.83 620.67,284.88 620.67,284.95 620.87,290.6 620.87,290.62 
				621.09,296.89 621.1,296.96 621.49,308 			"/>
			
				<polyline fill="none" stroke="#666666" stroke-width="2" stroke-linecap="round" stroke-linejoin="round" stroke-miterlimit="10" points="
				614.29,308 614.67,297 614.67,296.87 614.88,290.62 614.89,290.6 615.08,284.96 615.08,284.87 615.29,278.83 615.29,278.78 
				615.41,275.22 615.41,275.19 615.52,272 			"/>
			
				<polygon fill="none" stroke="#666666" stroke-width="2" stroke-linecap="round" stroke-linejoin="round" stroke-miterlimit="10" points="
				617.67,265.26 617.71,265.14 618.35,266.89 618.66,267.76 618.86,268.29 619.13,269.04 619.22,269.28 619.84,270.97 
				619.98,271.37 620.21,272 619.23,272 616.51,272 615.52,272 615.73,271.34 615.84,271.01 616.41,269.22 616.45,269.09 
				616.72,268.24 616.82,267.93 617.19,266.76 			"/>
			
				<polyline fill="none" stroke="#666666" stroke-width="2" stroke-linecap="round" stroke-linejoin="round" stroke-miterlimit="10" points="
				618.59,266.73 618.35,266.89 617.87,267.22 616.82,267.93 616.48,268.16 616.72,268.24 617.87,268.62 619.13,269.04 
				619.47,269.15 619.22,269.28 617.87,269.97 615.84,271.01 615.52,271.17 615.73,271.34 616.51,272 617.87,273.14 620.32,275.19 
				620.35,275.21 620.32,275.23 617.87,276.96 615.29,278.78 615.26,278.8 615.29,278.83 617.87,281.74 620.67,284.88 620.7,284.92 
				620.67,284.95 617.87,287.68 614.89,290.6 614.87,290.61 614.88,290.62 617.87,293.64 621.09,296.89 621.12,296.92 621.1,296.96 
				617.87,302.32 614.45,308 			"/>
			
				<polyline fill="none" stroke="#666666" stroke-width="2" stroke-linecap="round" stroke-linejoin="round" stroke-miterlimit="10" points="
				617.15,266.73 617.19,266.76 617.87,267.22 618.66,267.76 619.26,268.16 618.86,268.29 617.87,268.62 616.45,269.09 
				616.27,269.15 616.41,269.22 617.87,269.97 619.84,270.97 620.22,271.17 619.98,271.37 619.23,272 617.87,273.14 615.41,275.19 
				615.39,275.21 615.41,275.22 617.87,276.96 620.45,278.78 620.48,278.8 620.45,278.83 617.87,281.74 615.08,284.87 
				615.04,284.92 615.08,284.96 617.87,287.68 620.87,290.6 620.88,290.61 620.87,290.62 617.87,293.64 614.67,296.87 
				614.62,296.92 614.67,297 617.87,302.32 621.29,308 			"/>
			
				<polygon fill="none" stroke="#666666" stroke-width="6" stroke-linecap="round" stroke-linejoin="round" stroke-miterlimit="10" points="
				769.84,383 769,383 769,342.53 769.05,340.06 769.21,333 771,333 771,383 			"/>
			<path fill="none" stroke="#666666" stroke-width="6" stroke-linecap="round" stroke-linejoin="round" stroke-miterlimit="10" d="
				M452.42,299.14c2.69,1.38,4.98,2.04,4.98,2.04h-6.89c0,0-4.16-1.399-7.49-4.33c-2.42-2.13-4.41-5.06-4.05-8.85h5.05
				C443.42,293.41,448.37,297.08,452.42,299.14z"/>
			<path fill="none" stroke="#666666" stroke-width="6" stroke-linecap="round" stroke-linejoin="round" stroke-miterlimit="10" d="
				M500.13,301.33v-0.18l-0.06-7.15l-0.03-3H498h-8h-3v10.15l-5.51,0.01c-0.04,0-0.08,0-0.12,0l-30.49,0.08l31.24-0.061l18.01-0.029
				h0.771l20.81,10.43l3.87,1.939l6.03,3.021l4.76,2.39c0,0,1.25,0.98,3.58,2.7c5.72,4.24,17.95,12.92,34.26,22.49
				c1.2,0.689,2.39,1.37,3.55,2.05c0.55,0.311,1.11,0.63,1.67,0.95c0.181,0.11,0.36,0.21,0.54,0.31
				c13.021,7.34,28.21,14.94,44.54,21.261c7.79,3.02,15.84,5.75,24.04,8.01c0,0,0.01,0,0.021,0c13.66,3.78,27.72,6.27,41.649,6.7
				c2.761,0.09,5.521,0.09,8.271,0.01c0.89-0.03,1.79-0.07,2.68-0.11l22.74,0.05l45.93,0.11"/>
			
				<polyline fill="none" stroke="#666666" stroke-width="6" stroke-linecap="round" stroke-linejoin="round" stroke-miterlimit="10" points="
				588,350.96 621.58,366.56 622,366.75 622,340.06 622,317 			"/>
			
				<polyline fill="none" stroke="#666666" stroke-width="6" stroke-linecap="round" stroke-linejoin="round" stroke-miterlimit="10" points="
				588,317 588,322.81 588,323 			"/>
			
				<polyline fill="none" stroke="#666666" stroke-width="6" stroke-linecap="round" stroke-linejoin="round" stroke-miterlimit="10" points="
				613,308 613,307.72 613,304 588,304 586,304 			"/>
			
				<polyline fill="none" stroke="#666666" stroke-width="6" stroke-linecap="round" stroke-linejoin="round" stroke-miterlimit="10" points="
				588,304 588,317 613,317 			"/>
			
				<polygon fill="none" stroke="#666666" stroke-width="6" stroke-linecap="round" stroke-linejoin="round" stroke-miterlimit="10" points="
				621.49,308 622,308 622,317 613,317 613,308 614.29,308 614.45,308 621.29,308 			"/>
			<path fill="none" stroke="#666666" stroke-width="6" stroke-linecap="round" stroke-linejoin="round" stroke-miterlimit="10" d="
				M588,323v27.96l-48.05-29.33l-8.34-5.09l-5.61-3.42v-14.49c0,0,50.52,24.54,61.78,24.18"/>
		</g>
	</g>
</g>
</svg>
