<?xml version="1.0" encoding="utf-8"?>
<!-- Generator: Adobe Illustrator 16.0.0, SVG Export Plug-In . SVG Version: 6.00 Build 0)  -->
<!DOCTYPE svg PUBLIC "-//W3C//DTD SVG 1.1//EN" "http://www.w3.org/Graphics/SVG/1.1/DTD/svg11.dtd">
<svg version="1.1" id="Layer_1" xmlns="http://www.w3.org/2000/svg" xmlns:xlink="http://www.w3.org/1999/xlink" x="0px" y="0px"
	 width="901.066px" height="365.037px" viewBox="-53.338 61.01 901.066 365.037"
	 enable-background="new -53.338 61.01 901.066 365.037" xml:space="preserve">
<g id="Layer_2">
</g>
<g id="Layer_1_1_">
	<g id="XMLID_1_">
		<g>
			<polygon fill="#FFFFFF" points="410.728,214.551 410.728,239.551 340.728,239.551 340.728,202.551 410.728,202.551 			"/>
			<polygon fill="#FFFFFF" points="340.728,255.551 340.728,239.551 410.728,239.551 434.729,239.551 434.729,303.551 
				433.239,303.551 433.707,376.541 340.728,333.551 			"/>
			<polygon fill="#FFFFFF" points="150.738,167.551 168.138,167.551 170.298,229.411 169.688,230.621 158.898,225.211 
				159.728,223.551 159.728,176.551 127.728,176.551 127.728,167.551 150.538,167.551 			"/>
			<path fill="#FFFFFF" d="M340.728,255.551v78l-135.29-83.37l-0.03-0.02c-4.07-3.061-6.22-4.75-6.22-4.75l-8.021-4.021
				l-19.439-11.979v-39.86C171.728,189.551,309.338,256.26,340.728,255.551z"/>
			<polygon fill="#FFFFFF" points="100.728,125.551 100.728,134.551 93.728,134.551 72.728,134.551 50.728,134.551 47.728,134.551 
				47.728,125.551 			"/>
			<polygon fill="#FFFFFF" points="93.728,134.551 93.728,167.551 72.728,167.551 72.728,166.551 72.728,134.551 			"/>
			<polygon fill="#FFFFFF" points="159.728,176.551 159.728,223.551 158.898,225.211 101.568,196.47 99.458,196.47 99.278,176.551 
				127.728,176.551 			"/>
			<path fill="#FFFFFF" d="M99.278,176.551l0.18,19.92l-117.81,0.23c-0.01-0.01-0.021-0.01-0.04-0.021l80.12-0.21v-28.92h11h21h5.47
				L99.278,176.551z"/>
			<polygon fill="#666666" points="844.729,284.551 844.729,422.551 841.729,422.551 841.729,303.551 839.797,303.551 
				839.998,284.551 			"/>
			<polygon fill="#666666" points="841.729,303.551 841.729,422.551 839.729,422.551 839.729,310.361 839.797,303.551 			"/>
			<path fill="#66CCFF" d="M841.729,422.551v0.461l-158.762-1.87l-51.238,1.409l-59.291-4.319c-0.07-0.01-0.15-0.021-0.221-0.04
				l-64.061-13.75c-0.129-0.021-0.27-0.061-0.398-0.101l-74.029-25.329l-0.021-2.471l1.021,0.471v-73.461h405.068l-0.068,6.811
				v112.189H841.729z"/>
			<path fill="#66CCFF" d="M572.438,418.231l-0.1-0.01l-0.121-0.03C572.287,418.211,572.367,418.221,572.438,418.231z"/>
			<path fill="#66CCFF" d="M508.158,404.441l-0.211-0.04l-0.189-0.061C507.887,404.381,508.028,404.421,508.158,404.441z"/>
			<polygon fill="#66CCFF" points="434.729,303.551 434.729,377.011 433.707,376.541 433.239,303.551 			"/>
			<polygon fill="#FF0000" points="433.418,214.551 434.729,214.551 434.729,239.551 410.728,239.551 410.728,214.551 
				413.668,214.551 414.547,214.551 432.418,214.551 			"/>
			<path fill="#66CCFF" d="M59.858,173.841v21.58h-75.98c0,0-30.979-7.37-33.609-21.58H59.858z"/>
			<path fill="#CCCCCC" d="M56.688,146.93c0.729,1.33,1.5,2.74,2.52,4.021c-9.21,5-17.37,0-17.37,0
				c1.091-1.46,1.881-2.82,2.551-4.021c0,0,6.869,3.341,12.29,0H56.688z"/>
			<path fill="#CCCCCC" d="M54.748,143.85c0.71,0.87,1.311,1.95,1.94,3.08h-0.01c-5.421,3.341-12.29,0-12.29,0
				c0.67-1.199,1.22-2.25,1.84-3.08C46.228,143.85,51.078,146.231,54.748,143.85z"/>
			<path fill="#CCCCCC" d="M54.748,143.85c-3.67,2.381-8.52,0-8.52,0c0.99-1.329,2.17-2.109,4.29-2.109
				C52.438,141.741,53.708,142.591,54.748,143.85z"/>
			<path fill="#CCCCCC" d="M41.838,150.951c0,0,8.16,5,17.37,0c3.17,3.97-3.89,9.21-8.689,9.21
				C45.728,160.161,38.788,155.021,41.838,150.951z"/>
			<path fill="#666666" d="M-18.152,196.76l-11.7-0.04l11.5-0.02C-18.222,196.741-18.152,196.76-18.152,196.76z"/>
			<path fill="#666666" d="M-18.392,196.68c0.02,0.011,0.03,0.011,0.04,0.021l-11.5,0.02l-0.84-0.01L-18.392,196.68z"/>
			<path fill="#666666" d="M-18.392,196.68l-12.3,0.03l-6.41-0.02c0,0-34.15-12.141-31.78-36.141h13.91
				C-57.602,183.461-21.652,195.631-18.392,196.68z"/>
		</g>
		<g>
			<polyline fill="none" stroke="#66CCFF" stroke-width="6" stroke-miterlimit="10" points="841.729,422.551 841.729,423.011 
				682.967,421.141 631.729,422.551 572.438,418.231 572.338,418.221 572.217,418.191 508.158,404.441 507.948,404.401 
				507.758,404.341 436.167,378.994 435.834,377.011 434.729,303.551 434.729,303.551 839.797,303.551 			"/>
			<path fill="none" stroke="#66CCFF" stroke-width="6" stroke-miterlimit="10" d="M-49.732,173.841h109.59v21.58h-75.98
				C-16.122,195.421-47.102,188.051-49.732,173.841z"/>
			<path fill="none" stroke="#666666" stroke-width="2" stroke-linecap="round" stroke-linejoin="round" stroke-miterlimit="10" d="
				M138.558,62.51c0,0,136.79,66.29,284.479,35.16"/>
			
				<line fill="none" stroke="#666666" stroke-width="6" stroke-linecap="round" stroke-linejoin="round" stroke-miterlimit="10" x1="93.728" y1="134.551" x2="93.728" y2="167.551"/>
			
				<line fill="none" stroke="#666666" stroke-width="6" stroke-linecap="round" stroke-linejoin="round" stroke-miterlimit="10" x1="72.728" y1="166.551" x2="72.728" y2="134.551"/>
			
				<polygon fill="none" stroke="#666666" stroke-width="6" stroke-linecap="round" stroke-linejoin="round" stroke-miterlimit="10" points="
				50.728,134.551 47.728,134.551 47.728,125.551 100.728,125.551 100.728,134.551 93.728,134.551 72.728,134.551 			"/>
			
				<line fill="none" stroke="#666666" stroke-width="6" stroke-linecap="round" stroke-linejoin="round" stroke-miterlimit="10" x1="50.728" y1="141.551" x2="50.728" y2="134.551"/>
			<path fill="none" stroke="#666666" stroke-width="3" stroke-linecap="round" stroke-linejoin="round" stroke-miterlimit="10" d="
				M41.838,150.951c-3.05,4.07,3.891,9.21,8.681,9.21c4.8,0,11.859-5.24,8.689-9.21c-1.02-1.28-1.79-2.69-2.52-4.021
				c-0.63-1.13-1.23-2.21-1.94-3.08c-1.04-1.26-2.31-2.109-4.229-2.109c-2.12,0-3.3,0.78-4.29,2.109
				c-0.62,0.83-1.17,1.881-1.84,3.08C43.719,148.131,42.928,149.491,41.838,150.951z"/>
			<path fill="none" stroke="#666666" stroke-width="3" stroke-linecap="round" stroke-linejoin="round" stroke-miterlimit="10" d="
				M41.838,150.951c0,0,8.16,5,17.37,0"/>
			<path fill="none" stroke="#666666" stroke-width="3" stroke-linecap="round" stroke-linejoin="round" stroke-miterlimit="10" d="
				M44.388,146.93c0,0,6.869,3.341,12.29,0"/>
			<path fill="none" stroke="#666666" stroke-width="3" stroke-linecap="round" stroke-linejoin="round" stroke-miterlimit="10" d="
				M46.228,143.85c0,0,4.85,2.381,8.52,0"/>
			
				<polyline fill="none" stroke="#666666" stroke-width="6" stroke-linecap="round" stroke-linejoin="round" stroke-miterlimit="10" points="
				98.728,176.551 99.278,176.551 127.728,176.551 159.728,176.551 159.728,223.551 			"/>
			
				<polyline fill="none" stroke="#666666" stroke-width="6" stroke-linecap="round" stroke-linejoin="round" stroke-miterlimit="10" points="
				170.298,229.411 168.138,167.551 150.738,167.551 150.538,167.551 127.728,167.551 127.728,176.551 			"/>
			
				<polyline fill="none" stroke="#666666" stroke-width="3" stroke-linecap="round" stroke-linejoin="round" stroke-miterlimit="10" points="
				146.558,79.051 146.968,87.791 146.968,87.841 147.378,96.451 147.378,96.501 148.078,111.171 148.078,111.241 148.728,124.941 
				149.438,140.131 149.448,140.201 150.738,167.551 150.768,168.271 			"/>
			
				<polyline fill="none" stroke="#666666" stroke-width="3" stroke-linecap="round" stroke-linejoin="round" stroke-miterlimit="10" points="
				127.618,166.441 128.798,140.321 128.808,140.051 129.488,124.961 129.488,124.921 130.108,111.271 130.108,111.14 
				130.768,96.501 130.778,96.451 131.158,87.841 131.168,87.801 131.558,79.051 			"/>
			
				<polygon fill="none" stroke="#666666" stroke-width="3" stroke-linecap="round" stroke-linejoin="round" stroke-miterlimit="10" points="
				138.558,62.51 140.998,67.561 142.268,70.171 142.678,71.021 143.658,73.061 143.808,73.361 145.968,77.831 146.198,78.311 
				146.558,79.051 145.038,79.051 133.108,79.051 131.558,79.051 131.888,78.281 132.058,77.881 134.018,73.231 134.048,73.18 
				135.008,70.901 135.158,70.541 			"/>
			
				<polyline fill="none" stroke="#666666" stroke-width="3" stroke-linecap="round" stroke-linejoin="round" stroke-miterlimit="10" points="
				141.378,67.371 140.998,67.561 139.078,68.541 135.158,70.541 134.628,70.811 135.008,70.901 139.078,71.921 143.658,73.061 
				144.208,73.201 143.808,73.361 139.078,75.18 132.058,77.881 131.558,78.071 131.888,78.281 133.108,79.051 139.078,82.811 
				146.968,87.791 147.018,87.821 146.968,87.841 139.078,92.041 130.778,96.451 130.738,96.47 130.768,96.501 139.078,103.541 
				148.078,111.171 148.118,111.211 148.078,111.241 139.078,117.871 129.488,124.921 129.458,124.941 129.488,124.961 
				139.078,132.251 149.438,140.131 149.478,140.161 149.448,140.201 139.078,153.18 127.648,167.491 127.618,167.531 			"/>
			
				<polyline fill="none" stroke="#666666" stroke-width="2" stroke-linecap="round" stroke-linejoin="round" stroke-miterlimit="10" points="
				136.768,67.371 139.078,68.541 142.268,70.171 143.518,70.811 142.678,71.021 139.078,71.921 134.048,73.18 133.948,73.201 
				134.018,73.231 139.078,75.18 145.968,77.831 146.588,78.071 146.198,78.311 145.038,79.051 139.078,82.811 131.168,87.801 
				131.128,87.821 131.158,87.841 139.078,92.041 147.378,96.451 147.418,96.47 147.378,96.501 139.078,103.541 130.108,111.14 
				130.028,111.211 130.108,111.271 139.078,117.871 148.688,124.941 139.078,132.251 128.808,140.051 128.668,140.161 
				128.798,140.321 139.078,153.18 150.538,167.531 			"/>
			
				<polyline fill="none" stroke="#666666" stroke-width="2" stroke-linecap="round" stroke-linejoin="round" stroke-miterlimit="10" points="
				429.918,116.551 430.217,125.021 430.229,125.171 430.578,134.921 430.578,135.071 431.168,151.701 431.178,151.881 
				431.739,167.451 431.739,167.491 432.348,184.76 432.358,184.961 433.418,214.551 			"/>
			
				<polyline fill="none" stroke="#666666" stroke-width="2" stroke-linecap="round" stroke-linejoin="round" stroke-miterlimit="10" points="
				413.668,214.551 414.678,185.071 414.688,184.691 415.278,167.531 415.278,167.411 415.819,151.901 415.819,151.671 
				416.387,135.061 416.399,134.921 416.729,125.151 416.739,125.031 417.028,116.551 			"/>
			
				<polygon fill="none" stroke="#666666" stroke-width="2" stroke-linecap="round" stroke-linejoin="round" stroke-miterlimit="10" points="
				423.037,97.671 424.717,102.271 425.518,104.481 426.108,106.091 426.819,108.051 427.098,108.821 428.758,113.361 
				429.207,114.591 429.918,116.551 426.867,116.551 420.108,116.551 417.028,116.551 417.678,114.51 418.008,113.47 
				419.547,108.651 419.678,108.211 420.408,105.941 420.707,104.981 421.698,101.89 			"/>
			
				<polyline fill="none" stroke="#666666" stroke-width="2" stroke-linecap="round" stroke-linejoin="round" stroke-miterlimit="10" points="
				425.467,101.76 424.717,102.271 423.489,103.1 420.707,104.981 419.658,105.691 420.408,105.941 423.489,106.951 
				426.819,108.051 427.899,108.411 427.098,108.821 423.489,110.671 418.008,113.47 417.028,113.97 417.678,114.51 
				420.108,116.551 423.489,119.381 430.217,125.021 430.319,125.1 430.229,125.171 423.489,129.921 416.399,134.921 
				416.319,134.981 416.387,135.061 423.489,143.051 431.168,151.701 431.258,151.801 431.178,151.881 423.489,159.39 
				415.278,167.411 415.217,167.47 415.278,167.531 423.489,175.811 432.348,184.76 432.428,184.841 432.358,184.961 
				423.489,199.701 414.547,214.551 			"/>
			
				<polyline fill="none" stroke="#666666" stroke-width="2" stroke-linecap="round" stroke-linejoin="round" stroke-miterlimit="10" points="
				421.508,101.76 421.698,101.89 423.489,103.1 425.518,104.481 427.307,105.691 426.108,106.091 423.489,106.951 419.678,108.211 
				419.078,108.411 419.547,108.651 423.489,110.671 428.758,113.361 429.948,113.97 429.207,114.591 426.867,116.551 
				423.489,119.381 416.739,125.031 416.658,125.1 416.729,125.151 423.489,129.921 430.578,134.921 430.658,134.981 
				430.578,135.071 423.489,143.051 415.819,151.671 415.707,151.801 415.819,151.901 423.489,159.39 431.739,167.451 
				431.758,167.47 431.739,167.491 423.489,175.811 414.688,184.691 414.537,184.841 414.678,185.071 423.489,199.701 
				432.418,214.551 			"/>
			
				<polygon fill="none" stroke="#666666" stroke-width="6" stroke-linecap="round" stroke-linejoin="round" stroke-miterlimit="10" points="
				841.729,422.551 839.729,422.551 839.729,310.361 839.797,303.551 839.998,284.551 844.729,284.551 844.729,422.551 			"/>
			<path fill="none" stroke="#666666" stroke-width="6" stroke-linecap="round" stroke-linejoin="round" stroke-miterlimit="10" d="
				M-30.692,196.711l-6.41-0.02c0,0-34.15-12.141-31.78-36.141h13.91c-2.63,22.91,33.32,35.08,36.58,36.13
				c0.02,0.011,0.03,0.011,0.04,0.021c0.13,0.04,0.2,0.06,0.2,0.06l-11.7-0.04L-30.692,196.711z"/>
			<path fill="none" stroke="#666666" stroke-width="6" stroke-linecap="round" stroke-linejoin="round" stroke-miterlimit="10" d="
				M205.408,250.161c-4.07-3.061-6.22-4.75-6.22-4.75l-8.021-4.021l-21.479-10.77l-10.79-5.41l-57.33-28.74h-2.11l-117.81,0.23
				l-11.5,0.02l-7.04,0.011l6.2-0.021l12.3-0.03l80.12-0.21v-28.92h11h21h5.47l0.08,9l0.18,19.92v0.011"/>
			<path fill="none" stroke="#666666" stroke-width="6" stroke-linecap="round" stroke-linejoin="round" stroke-miterlimit="10" d="
				M841.729,423.011l-189-0.461c-26.57,1.36-53.5-0.319-80.291-4.319c-0.07-0.01-0.15-0.021-0.221-0.04
				c-21.529-3.21-42.971-7.92-64.061-13.75c-0.129-0.021-0.27-0.061-0.398-0.101c-25.352-7-50.189-15.609-74.09-25.18
				c-33.541-13.399-65.22-28.66-93.811-43.971c-67.311-36.029-117.47-72.28-134.42-85.011"/>
			
				<polyline fill="none" stroke="#666666" stroke-width="6" stroke-linecap="round" stroke-linejoin="round" stroke-miterlimit="10" points="
				340.728,333.551 433.707,376.541 434.729,377.011 434.729,303.551 434.729,239.551 			"/>
			
				<line fill="none" stroke="#666666" stroke-width="6" stroke-linecap="round" stroke-linejoin="round" stroke-miterlimit="10" x1="340.728" y1="239.551" x2="340.728" y2="255.551"/>
			
				<polyline fill="none" stroke="#666666" stroke-width="6" stroke-linecap="round" stroke-linejoin="round" stroke-miterlimit="10" points="
				410.728,214.551 410.728,202.551 340.728,202.551 335.728,202.551 			"/>
			
				<polyline fill="none" stroke="#666666" stroke-width="6" stroke-linecap="round" stroke-linejoin="round" stroke-miterlimit="10" points="
				340.728,202.551 340.728,239.551 410.728,239.551 			"/>
			
				<polygon fill="none" stroke="#666666" stroke-width="6" stroke-linecap="round" stroke-linejoin="round" stroke-miterlimit="10" points="
				433.418,214.551 434.729,214.551 434.729,239.551 410.728,239.551 410.728,214.551 413.668,214.551 414.547,214.551 
				432.418,214.551 			"/>
			<path fill="none" stroke="#666666" stroke-width="6" stroke-linecap="round" stroke-linejoin="round" stroke-miterlimit="10" d="
				M340.728,255.551v78l-135.29-83.37l-0.03-0.02l-14.24-8.771l-19.439-11.979v-39.86
				C171.728,189.551,309.338,256.26,340.728,255.551c0.069,0.011,0.14,0,0.21,0"/>
		</g>
	</g>
</g>
</svg>
