<?xml version="1.0" encoding="utf-8"?>
<!-- Generator: Adobe Illustrator 16.0.0, SVG Export Plug-In . SVG Version: 6.00 Build 0)  -->
<!DOCTYPE svg PUBLIC "-//W3C//DTD SVG 1.1//EN" "http://www.w3.org/Graphics/SVG/1.1/DTD/svg11.dtd">
<svg version="1.1" id="Layer_1" xmlns="http://www.w3.org/2000/svg" xmlns:xlink="http://www.w3.org/1999/xlink" x="0px" y="0px"
	 width="471.734px" height="461.466px" viewBox="360 66.87 471.734 461.466" enable-background="new 360 66.87 471.734 461.466"
	 xml:space="preserve">
<g id="Layer_1_1_">
</g>
<g>
	<g id="Layer_2">
		<g id="XMLID_2_">
			<g>
				<path fill="#FFFFFF" d="M622,355.82c19.98,0.02,40.7,1.029,46.88,0.51c18.74-1.04,79.16-8.33,84.37-31.25
					c3.13-11.46-13.54-18.75-8.33-31.25c4.16-10.41,28.12-16.66,37.5-20.83c8.66-4.75,14.7-9.8,18.45-15.14l1.34,0.56
					c6.75,13.12,15.92,27.58,22.13,41.84c5,42-46.34,53.74-75.34,56.74c-31,3-69,8-90,31l-0.05,2.48
					c-20.271-0.431-40.891-1.15-60.91,1.149c0.09-20.7,21.88-18.66,23.96-35.3V355.82z"/>
				<path fill="#FFFFFF" d="M719,286c0,15,17,26,1,39c-7,6-23,7-32,8c-42,4-99-7-128,29l0.01,0.61c-7.46,0.18-14.92,1.01-22.39,1.01
					c-16.66,1.05-34.37,1.05-51.04,1.05v-1.05c-6.25-31.24,4.17-52.08,23.96-73.95c19.79-21.88,27.08-53.13,59.38-56.25
					c42.7-3.13,86.46,5.2,125-19.8c30.2-18.74,62.5-38.54,92.7-6.24c6.6,7.51,11.649,14.66,14.72,21.47L802,229c0,1,0,3,0,4v1
					c-4,6-12,11-19,14C765,257,719,261,719,286z"/>
				<path fill="#FFFFFF" d="M415.36,208c-17.4,9.67-23.22,39.03-39.86,50H363v1.46c-0.13,0-0.25,0-0.38,0
					c1.05-21.87,10.42-48.88,9.38-69.71c0-10.42-9.38-25-7.29-34.37c2.08-8.34,18.75-27.09,26.04-32.3
					c12.5-9.37,31.25-14.58,45.83-22.91c19.8-11.46,35.42-22.92,59.38-26.05c44.79-4.16,90.62,5.21,135.42-1.04
					C642.83,71,659.5,62.67,668.88,71c4.16,4.17,11.45,28.12,12.5,35.42l0.021,1.6c-3.9,0.01-8.5,0.4-13.57,0.4
					c-18.75,0-38.54-2.09-57.29,3.12c-17.71,4.17-32.29,16.67-48.96,23.96C540.75,145.92,522,148,499.08,148
					c-18.75,0-39.58-9.38-57.29-5.21c-34.37,6.25-38.54,32.29-28.12,60.42C414.2,204.81,414.77,206.4,415.36,208z"/>
				<path fill="#FFFFFF" d="M689,110c2,9-11,26-16,34c-31,50-74,62-129,63c-38,1-108-4-105,50l0.04,1h-5.92
					c-4.04-3.09-4.03-10.38-5.91-17.29c-1.48-5.9-3.65-11.81-5.97-17.71c-1.97-5-4.04-10-5.88-15c-0.59-1.6-1.16-3.19-1.69-4.79
					c-10.42-28.13-6.25-54.17,28.12-60.42c17.71-4.17,38.54,5.21,57.29,5.21c22.92,0,41.67-2.08,62.5-12.5
					c16.67-7.29,31.25-19.79,48.96-23.96c18.75-5.21,38.54-3.12,57.29-3.12c5.07,0,9.67-0.39,13.57-0.4c3.13,0,5.81,0.23,7.939,1.1
					L689,110z"/>
				<path fill="#CCCCCC" d="M824.34,300.26c11.061,25.38,12.76,50.11-25.26,65.45c-38.54,15.62-85.41,8.33-121.87,23.96l-1.04,1.04
					c-5.7,0-11.45-0.1-17.22-0.229L659,388c21-23,59-28,90-31C778,354,829.34,342.26,824.34,300.26z"/>
				<path fill="#CCCCCC" d="M753.25,325.08c-5.21,22.92-65.63,30.21-84.37,31.25c-6.18,0.52-26.899-0.49-46.88-0.51
					c-20.42-0.03-40.08,0.979-42.71,5.72l-1.37,1.04c0,0-0.68,0-1.75,0c-3.58,0-11.55,0-13.55,0c-0.87,0-1.74,0.01-2.61,0.03
					L560,362c29-36,86-25,128-29c9-1,25-2,32-8c16-13-1-24-1-39c0-25,46-29,64-38c7-3,15-8,19-14v-1c0-1,0-3,0-4l0.34-0.15
					c4.72,10.49,4.75,20.16-1.47,29.01c-3.75,5.34-9.79,10.39-18.45,15.14c-9.38,4.17-33.34,10.42-37.5,20.83
					C739.71,306.33,756.38,313.62,753.25,325.08z"/>
				<linearGradient id="SVGID_1_" gradientUnits="userSpaceOnUse" x1="588.6604" y1="459.3347" x2="706.6702" y2="459.3347">
					<stop  offset="0" style="stop-color:#4D4D4D"/>
					<stop  offset="0.0146" style="stop-color:#595959"/>
					<stop  offset="0.0723" style="stop-color:#858585"/>
					<stop  offset="0.1326" style="stop-color:#ABABAB"/>
					<stop  offset="0.1951" style="stop-color:#C9C9C9"/>
					<stop  offset="0.2603" style="stop-color:#E1E1E1"/>
					<stop  offset="0.3294" style="stop-color:#F2F2F2"/>
					<stop  offset="0.4052" style="stop-color:#FCFCFC"/>
					<stop  offset="0.5" style="stop-color:#FFFFFF"/>
					<stop  offset="0.5558" style="stop-color:#F5F5F5"/>
					<stop  offset="0.6498" style="stop-color:#DBDBDB"/>
					<stop  offset="0.7706" style="stop-color:#B0B0B0"/>
					<stop  offset="0.9119" style="stop-color:#757575"/>
					<stop  offset="1" style="stop-color:#4D4D4D"/>
				</linearGradient>
				<path fill="url(#SVGID_1_)" d="M706.67,525.34h-91.34c-2.16-1.99-4.18-4.189-6.08-6.56l-20.59-49.17
					c13.33-1.07,10.01-76.28,10.01-76.28H680C680,393.33,674.67,509.34,706.67,525.34z"/>
				<path fill="#CCCCCC" d="M689,110l0.34-0.88c3.97,1.61,6.05,5.4,5.58,13.88c-1.04,15.62-15.63,23.96-18.75,38.54
					c-5.21,18.75-3.13,33.34-23.96,42.71c-12.5,6.25-30.21,6.25-43.75,10.42c-33.34,9.37-64.58,12.5-98.96,12.5
					c-27.82,0-52.8-3.79-55.94,27.49c-1.18,2.2-1.07,0.93-5.52,2.72c-0.61,0.23-1.21,0.43-1.78,0.62h-7.22l-0.04-1
					c-3-54,67-49,105-50c55-1,98-13,129-63C678,136,691,119,689,110z"/>
				<linearGradient id="SVGID_2_" gradientUnits="userSpaceOnUse" x1="451.3323" y1="522.0603" x2="615.3323" y2="522.0603">
					<stop  offset="0" style="stop-color:#4D4D4D"/>
					<stop  offset="0.0146" style="stop-color:#595959"/>
					<stop  offset="0.0723" style="stop-color:#858585"/>
					<stop  offset="0.1326" style="stop-color:#ABABAB"/>
					<stop  offset="0.1951" style="stop-color:#C9C9C9"/>
					<stop  offset="0.2603" style="stop-color:#E1E1E1"/>
					<stop  offset="0.3294" style="stop-color:#F2F2F2"/>
					<stop  offset="0.4052" style="stop-color:#FCFCFC"/>
					<stop  offset="0.5" style="stop-color:#FFFFFF"/>
					<stop  offset="0.5558" style="stop-color:#F5F5F5"/>
					<stop  offset="0.6498" style="stop-color:#DBDBDB"/>
					<stop  offset="0.7706" style="stop-color:#B0B0B0"/>
					<stop  offset="0.9119" style="stop-color:#757575"/>
					<stop  offset="1" style="stop-color:#4D4D4D"/>
				</linearGradient>
				<path fill="url(#SVGID_2_)" d="M615.33,525.34H612l-2.75-6.56C611.151,521.15,613.17,523.349,615.33,525.34z"/>
				<linearGradient id="SVGID_3_" gradientUnits="userSpaceOnUse" x1="423.0002" y1="523.4949" x2="455.0002" y2="523.4949">
					<stop  offset="0" style="stop-color:#4D4D4D"/>
					<stop  offset="0.0146" style="stop-color:#595959"/>
					<stop  offset="0.0723" style="stop-color:#858585"/>
					<stop  offset="0.1326" style="stop-color:#ABABAB"/>
					<stop  offset="0.1951" style="stop-color:#C9C9C9"/>
					<stop  offset="0.2603" style="stop-color:#E1E1E1"/>
					<stop  offset="0.3294" style="stop-color:#F2F2F2"/>
					<stop  offset="0.4052" style="stop-color:#FCFCFC"/>
					<stop  offset="0.5" style="stop-color:#FFFFFF"/>
					<stop  offset="0.5558" style="stop-color:#F5F5F5"/>
					<stop  offset="0.6498" style="stop-color:#DBDBDB"/>
					<stop  offset="0.7706" style="stop-color:#B0B0B0"/>
					<stop  offset="0.9119" style="stop-color:#757575"/>
					<stop  offset="1" style="stop-color:#4D4D4D"/>
				</linearGradient>
				<path fill="url(#SVGID_3_)" d="M455,521.99V525h-3.26C452.87,524.08,453.96,523.07,455,521.99z"/>
				<linearGradient id="SVGID_4_" gradientUnits="userSpaceOnUse" x1="423.0002" y1="391.4998" x2="455.0002" y2="391.4998">
					<stop  offset="0" style="stop-color:#4D4D4D"/>
					<stop  offset="0.0146" style="stop-color:#595959"/>
					<stop  offset="0.0723" style="stop-color:#858585"/>
					<stop  offset="0.1326" style="stop-color:#ABABAB"/>
					<stop  offset="0.1951" style="stop-color:#C9C9C9"/>
					<stop  offset="0.2603" style="stop-color:#E1E1E1"/>
					<stop  offset="0.3294" style="stop-color:#F2F2F2"/>
					<stop  offset="0.4052" style="stop-color:#FCFCFC"/>
					<stop  offset="0.5" style="stop-color:#FFFFFF"/>
					<stop  offset="0.5558" style="stop-color:#F5F5F5"/>
					<stop  offset="0.6498" style="stop-color:#DBDBDB"/>
					<stop  offset="0.7706" style="stop-color:#B0B0B0"/>
					<stop  offset="0.9119" style="stop-color:#757575"/>
					<stop  offset="1" style="stop-color:#4D4D4D"/>
				</linearGradient>
				<path fill="url(#SVGID_4_)" d="M453.31,258H455v263.99c-1.04,1.08-2.13,2.09-3.26,3.01H451h-28V258h10.12
					c1.41,1.1,3.32,1.67,5.98,1.53c1.95-0.1,4.3-0.58,7.16-1.53H453.31z"/>
				<linearGradient id="SVGID_5_" gradientUnits="userSpaceOnUse" x1="451.3303" y1="445.0046" x2="615.3303" y2="445.0046">
					<stop  offset="0" style="stop-color:#4D4D4D"/>
					<stop  offset="0.0146" style="stop-color:#595959"/>
					<stop  offset="0.0723" style="stop-color:#858585"/>
					<stop  offset="0.1326" style="stop-color:#ABABAB"/>
					<stop  offset="0.1951" style="stop-color:#C9C9C9"/>
					<stop  offset="0.2603" style="stop-color:#E1E1E1"/>
					<stop  offset="0.3294" style="stop-color:#F2F2F2"/>
					<stop  offset="0.4052" style="stop-color:#FCFCFC"/>
					<stop  offset="0.5" style="stop-color:#FFFFFF"/>
					<stop  offset="0.5558" style="stop-color:#F5F5F5"/>
					<stop  offset="0.6498" style="stop-color:#DBDBDB"/>
					<stop  offset="0.7706" style="stop-color:#B0B0B0"/>
					<stop  offset="0.9119" style="stop-color:#757575"/>
					<stop  offset="1" style="stop-color:#4D4D4D"/>
				</linearGradient>
				<path fill="url(#SVGID_5_)" d="M451.74,525H455v-3.01c35.91-36.73,29.67-157.32,29.67-157.32h1.91h97.25
					c0,0-5.54,56.46,4.83,104.94c4.04,18.87,10.479,36.52,20.59,49.17l2.75,6.56H455.33h-4C451.47,525.23,451.61,525.12,451.74,525z
					"/>
				<linearGradient id="SVGID_6_" gradientUnits="userSpaceOnUse" x1="423.0002" y1="258.7644" x2="455.0002" y2="258.7644">
					<stop  offset="0" style="stop-color:#4D4D4D"/>
					<stop  offset="0.0146" style="stop-color:#595959"/>
					<stop  offset="0.0723" style="stop-color:#858585"/>
					<stop  offset="0.1326" style="stop-color:#ABABAB"/>
					<stop  offset="0.1951" style="stop-color:#C9C9C9"/>
					<stop  offset="0.2603" style="stop-color:#E1E1E1"/>
					<stop  offset="0.3294" style="stop-color:#F2F2F2"/>
					<stop  offset="0.4052" style="stop-color:#FCFCFC"/>
					<stop  offset="0.5" style="stop-color:#FFFFFF"/>
					<stop  offset="0.5558" style="stop-color:#F5F5F5"/>
					<stop  offset="0.6498" style="stop-color:#DBDBDB"/>
					<stop  offset="0.7706" style="stop-color:#B0B0B0"/>
					<stop  offset="0.9119" style="stop-color:#757575"/>
					<stop  offset="1" style="stop-color:#4D4D4D"/>
				</linearGradient>
				<path fill="url(#SVGID_6_)" d="M439.04,258h7.22c-2.86,0.95-5.21,1.43-7.16,1.53L439.04,258z"/>
				<linearGradient id="SVGID_7_" gradientUnits="userSpaceOnUse" x1="423.0002" y1="258.7751" x2="455.0002" y2="258.7751">
					<stop  offset="0" style="stop-color:#4D4D4D"/>
					<stop  offset="0.0146" style="stop-color:#595959"/>
					<stop  offset="0.0723" style="stop-color:#858585"/>
					<stop  offset="0.1326" style="stop-color:#ABABAB"/>
					<stop  offset="0.1951" style="stop-color:#C9C9C9"/>
					<stop  offset="0.2603" style="stop-color:#E1E1E1"/>
					<stop  offset="0.3294" style="stop-color:#F2F2F2"/>
					<stop  offset="0.4052" style="stop-color:#FCFCFC"/>
					<stop  offset="0.5" style="stop-color:#FFFFFF"/>
					<stop  offset="0.5558" style="stop-color:#F5F5F5"/>
					<stop  offset="0.6498" style="stop-color:#DBDBDB"/>
					<stop  offset="0.7706" style="stop-color:#B0B0B0"/>
					<stop  offset="0.9119" style="stop-color:#757575"/>
					<stop  offset="1" style="stop-color:#4D4D4D"/>
				</linearGradient>
				<path fill="url(#SVGID_7_)" d="M439.04,258l0.06,1.53c-2.66,0.14-4.57-0.43-5.98-1.53H439.04z"/>
				<path fill="#CCCCCC" d="M421.24,223c-13.3,9.21-10.8,27.42-29.41,35H375.5c16.64-10.97,22.46-40.33,39.86-50
					C417.2,213,419.27,218,421.24,223z"/>
				<linearGradient id="SVGID_8_" gradientUnits="userSpaceOnUse" x1="363.0002" y1="258.8586" x2="395.0002" y2="258.8586">
					<stop  offset="0" style="stop-color:#4D4D4D"/>
					<stop  offset="0.0146" style="stop-color:#595959"/>
					<stop  offset="0.0723" style="stop-color:#858585"/>
					<stop  offset="0.1326" style="stop-color:#ABABAB"/>
					<stop  offset="0.1951" style="stop-color:#C9C9C9"/>
					<stop  offset="0.2603" style="stop-color:#E1E1E1"/>
					<stop  offset="0.3294" style="stop-color:#F2F2F2"/>
					<stop  offset="0.4052" style="stop-color:#FCFCFC"/>
					<stop  offset="0.5" style="stop-color:#FFFFFF"/>
					<stop  offset="0.5558" style="stop-color:#F5F5F5"/>
					<stop  offset="0.6498" style="stop-color:#DBDBDB"/>
					<stop  offset="0.7706" style="stop-color:#B0B0B0"/>
					<stop  offset="0.9119" style="stop-color:#757575"/>
					<stop  offset="1" style="stop-color:#4D4D4D"/>
				</linearGradient>
				<path fill="url(#SVGID_8_)" d="M375.5,258h16.33c-0.35,0.14-0.71,0.28-1.08,0.42c-5.12,1.28-11.04,1.38-17.01,1.26l0.01-0.61
					C374.35,258.74,374.93,258.38,375.5,258z"/>
				<linearGradient id="SVGID_9_" gradientUnits="userSpaceOnUse" x1="363.0002" y1="391.4998" x2="395.0002" y2="391.4998">
					<stop  offset="0" style="stop-color:#4D4D4D"/>
					<stop  offset="0.0146" style="stop-color:#595959"/>
					<stop  offset="0.0723" style="stop-color:#858585"/>
					<stop  offset="0.1326" style="stop-color:#ABABAB"/>
					<stop  offset="0.1951" style="stop-color:#C9C9C9"/>
					<stop  offset="0.2603" style="stop-color:#E1E1E1"/>
					<stop  offset="0.3294" style="stop-color:#F2F2F2"/>
					<stop  offset="0.4052" style="stop-color:#FCFCFC"/>
					<stop  offset="0.5" style="stop-color:#FFFFFF"/>
					<stop  offset="0.5558" style="stop-color:#F5F5F5"/>
					<stop  offset="0.6498" style="stop-color:#DBDBDB"/>
					<stop  offset="0.7706" style="stop-color:#B0B0B0"/>
					<stop  offset="0.9119" style="stop-color:#757575"/>
					<stop  offset="1" style="stop-color:#4D4D4D"/>
				</linearGradient>
				<path fill="url(#SVGID_9_)" d="M373.74,259.68c5.97,0.12,11.89,0.02,17.01-1.26c0.37-0.14,0.73-0.28,1.08-0.42H395v267h-4h-12
					h-16V259.46C366.49,259.47,370.13,259.61,373.74,259.68z"/>
				<linearGradient id="SVGID_10_" gradientUnits="userSpaceOnUse" x1="363.0002" y1="258.8396" x2="395.0002" y2="258.8396">
					<stop  offset="0" style="stop-color:#4D4D4D"/>
					<stop  offset="0.0146" style="stop-color:#595959"/>
					<stop  offset="0.0723" style="stop-color:#858585"/>
					<stop  offset="0.1326" style="stop-color:#ABABAB"/>
					<stop  offset="0.1951" style="stop-color:#C9C9C9"/>
					<stop  offset="0.2603" style="stop-color:#E1E1E1"/>
					<stop  offset="0.3294" style="stop-color:#F2F2F2"/>
					<stop  offset="0.4052" style="stop-color:#FCFCFC"/>
					<stop  offset="0.5" style="stop-color:#FFFFFF"/>
					<stop  offset="0.5558" style="stop-color:#F5F5F5"/>
					<stop  offset="0.6498" style="stop-color:#DBDBDB"/>
					<stop  offset="0.7706" style="stop-color:#B0B0B0"/>
					<stop  offset="0.9119" style="stop-color:#757575"/>
					<stop  offset="1" style="stop-color:#4D4D4D"/>
				</linearGradient>
				<path fill="url(#SVGID_10_)" d="M375.5,258c-0.57,0.38-1.15,0.74-1.75,1.07l-0.01,0.61c-3.61-0.07-7.25-0.21-10.74-0.22V258
					H375.5z"/>
			</g>
			<g>
				<path fill="none" stroke="#666666" stroke-linecap="round" stroke-linejoin="round" stroke-miterlimit="10" d="M362.62,259.46
					c0.13,0,0.25,0,0.38,0"/>
				<path fill="none" stroke="#666666" stroke-linecap="round" stroke-linejoin="round" stroke-miterlimit="10" d="M598.04,391.75
					c0-0.04,0-0.08,0-0.12c0.09-20.7,21.88-18.66,23.96-35.3"/>
				<path fill="none" stroke="#666666" stroke-linecap="round" stroke-linejoin="round" stroke-miterlimit="10" d="M421.24,223
					c-13.3,9.21-10.8,27.42-29.41,35"/>
				<path fill="none" stroke="#666666" stroke-linecap="round" stroke-linejoin="round" stroke-miterlimit="10" d="M486.58,364.67
					c16.67,0,34.38,0,51.04-1.05c7.47,0,14.93-0.83,22.39-1.01c0.87-0.021,1.74-0.03,2.61-0.03c2,0,9.97,0,13.55,0
					c1.07,0,1.75,0,1.75,0"/>
				<path fill="none" stroke="#666666" stroke-linecap="round" stroke-linejoin="round" stroke-miterlimit="10" d="M597,391.75
					c0.35-0.04,0.69-0.08,1.04-0.12c20.02-2.3,40.64-1.58,60.91-1.149c5.77,0.13,11.52,0.229,17.22,0.229"/>
				<path fill="none" stroke="#666666" stroke-linecap="round" stroke-linejoin="round" stroke-miterlimit="10" d="M415.36,208
					c-17.4,9.67-23.22,39.03-39.86,50"/>
				<path fill="none" stroke="#666666" stroke-linecap="round" stroke-linejoin="round" stroke-miterlimit="10" d="M446.26,258
					c0.57-0.19,1.17-0.39,1.78-0.62c4.45-1.79,4.34-0.52,5.52-2.72c0.19-0.37,0.43-0.84,0.73-1.45"/>
				<path fill="none" stroke="#666666" stroke-linecap="round" stroke-linejoin="round" stroke-miterlimit="10" d="M453.31,258
					c0.05-1.16,0.14-2.27,0.25-3.34c3.14-31.28,28.12-27.49,55.94-27.49c34.38,0,65.62-3.13,98.96-12.5
					c13.54-4.17,31.25-4.17,43.75-10.42c20.83-9.37,18.75-23.96,23.96-42.71c3.12-14.58,17.71-22.92,18.75-38.54
					c0.47-8.48-1.61-12.27-5.58-13.88c-2.13-0.87-4.81-1.1-7.939-1.1c-3.9,0.01-8.5,0.4-13.57,0.4c-18.75,0-38.54-2.09-57.29,3.12
					c-17.71,4.17-32.29,16.67-48.96,23.96C540.75,145.92,522,148,499.08,148c-18.75,0-39.58-9.38-57.29-5.21
					c-34.37,6.25-38.54,32.29-28.12,60.42c0.53,1.6,1.1,3.19,1.69,4.79c1.84,5,3.91,10,5.88,15c2.32,5.9,4.49,11.81,5.97,17.71
					c1.88,6.91,1.87,14.2,5.91,17.29"/>
				<path fill="none" stroke="#666666" stroke-linecap="round" stroke-linejoin="round" stroke-miterlimit="10" d="M486.58,363.62
					c-6.25-31.24,4.17-52.08,23.96-73.95c19.79-21.88,27.08-53.13,59.38-56.25c42.7-3.13,86.46,5.2,125-19.8
					c30.2-18.74,62.5-38.54,92.7-6.24c6.6,7.51,11.649,14.66,14.72,21.47c4.72,10.49,4.75,20.16-1.47,29.01
					c-3.75,5.34-9.79,10.39-18.45,15.14c-9.38,4.17-33.34,10.42-37.5,20.83c-5.21,12.5,11.46,19.79,8.33,31.25
					c-5.21,22.92-65.63,30.21-84.37,31.25c-6.18,0.52-26.899-0.49-46.88-0.51c-20.42-0.03-40.08,0.979-42.71,5.72"/>
				<path fill="none" stroke="#666666" stroke-linecap="round" stroke-linejoin="round" stroke-miterlimit="10" d="M802.21,258.42
					c6.75,13.12,15.92,27.58,22.13,41.84c11.061,25.38,12.76,50.11-25.26,65.45c-38.54,15.62-85.41,8.33-121.87,23.96"/>
				<path fill="none" stroke="#666666" stroke-linecap="round" stroke-linejoin="round" stroke-miterlimit="10" d="M362.62,259.46
					c1.05-21.87,10.42-48.88,9.38-69.71c0-10.42-9.38-25-7.29-34.37c2.08-8.34,18.75-27.09,26.04-32.3
					c12.5-9.37,31.25-14.58,45.83-22.91c19.8-11.46,35.42-22.92,59.38-26.05c44.79-4.16,90.62,5.21,135.42-1.04
					C642.83,71,659.5,62.67,668.88,71c4.16,4.17,11.45,28.12,12.5,35.42"/>
				<path fill="none" stroke="#666666" stroke-linecap="round" stroke-linejoin="round" stroke-miterlimit="10" d="M439,257
					c-3-54,67-49,105-50c55-1,98-13,129-63c5-8,18-25,16-34"/>
				<path fill="none" stroke="#666666" stroke-linecap="round" stroke-linejoin="round" stroke-miterlimit="10" d="M560,362
					c29-36,86-25,128-29c9-1,25-2,32-8c16-13-1-24-1-39c0-25,46-29,64-38c7-3,15-8,19-14"/>
				<path fill="none" stroke="#666666" stroke-linecap="round" stroke-linejoin="round" stroke-miterlimit="10" d="M802,229
					c0,1,0,3,0,4"/>
				<path fill="none" stroke="#666666" stroke-linecap="round" stroke-linejoin="round" stroke-miterlimit="10" d="M824.34,300.26
					c5,42-46.34,53.74-75.34,56.74c-31,3-69,8-90,31"/>
				
					<path fill="none" stroke="#666666" stroke-width="6" stroke-linecap="round" stroke-linejoin="round" stroke-miterlimit="10" d="
					M588.66,469.61c13.33-1.07,10.01-76.28,10.01-76.28H680c0,0-5.33,116.01,26.67,132.01h-91.34"/>
				
					<path fill="none" stroke="#666666" stroke-width="6" stroke-linecap="round" stroke-linejoin="round" stroke-miterlimit="10" d="
					M455,521.99c35.91-36.73,29.67-157.32,29.67-157.32h1.91h97.25c0,0-5.54,56.46,4.83,104.94c4.04,18.87,10.479,36.52,20.59,49.17
					c1.9,2.37,3.92,4.569,6.08,6.56H612H455.33h-4c0.14-0.109,0.28-0.22,0.41-0.34"/>
				
					<polyline fill="none" stroke="#666666" stroke-width="6" stroke-linecap="round" stroke-linejoin="round" stroke-miterlimit="10" points="
					455,525 455,521.99 455,258 453.31,258 446.26,258 439.04,258 433.12,258 423,258 423,525 				"/>
				
					<polyline fill="none" stroke="#666666" stroke-width="6" stroke-linecap="round" stroke-linejoin="round" stroke-miterlimit="10" points="
					395,525 395,258 391.83,258 375.5,258 363,258 363,259.46 363,525 379,525 				"/>
				
					<polyline fill="none" stroke="#666666" stroke-width="6" stroke-linecap="round" stroke-linejoin="round" stroke-miterlimit="10" points="
					473,525 455,525 451.74,525 451,525 423,525 395,525 391,525 379,525 				"/>
			</g>
		</g>
	</g>
	<g id="Layer_3">
	</g>
</g>
</svg>
