<?xml version="1.0" encoding="utf-8"?>
<!-- Generator: Adobe Illustrator 16.0.0, SVG Export Plug-In . SVG Version: 6.00 Build 0)  -->
<!DOCTYPE svg PUBLIC "-//W3C//DTD SVG 1.1//EN" "http://www.w3.org/Graphics/SVG/1.1/DTD/svg11.dtd">
<svg version="1.1" xmlns="http://www.w3.org/2000/svg" xmlns:xlink="http://www.w3.org/1999/xlink" x="0px" y="0px"
	 width="764.998px" height="199.61px" viewBox="0 0 764.998 199.61" enable-background="new 0 0 764.998 199.61"
	 xml:space="preserve">
<g id="Layer_2">
	<path fill="#99CC66" stroke="#99CC66" stroke-width="0.5" stroke-linecap="round" stroke-miterlimit="1" d="M546.719,197.9
		l-546.22-0.366l6-89.185l58-28.279l25-79.57l20,21l23-21l11,19l37-9l36,14c0,0,4,18,5,22s40-3,40-3l25,3l8.928,33.57l4.092,25.43
		l57.11,7.33l65.896,40.449L546.719,197.9z"/>
	<path fill="#99CC66" stroke="#99CC66" stroke-linecap="round" stroke-miterlimit="1" d="M626.089,151.709
		c0,0,41.285-16.853,44.285-17.493s20.063,8.671,20.063,8.671s36.781,9.751,39.781,8.691s33.781,17.922,33.781,17.922V199l-136.5-1
		l-2-42.13"/>
</g>
<g id="Layer_3">
	<polyline fill="#669933" stroke="#669933" stroke-linecap="round" stroke-miterlimit="1" points="132.499,0.5 142.499,29.5 
		180.499,10.5 143.499,19.5 132.499,0.5 	"/>
	<polygon fill="#669933" stroke="#669933" stroke-linecap="round" stroke-miterlimit="1" points="216.499,24.5 203.499,51.5 
		253.242,44.874 221.499,46.5 	"/>
	<polygon fill="#669933" stroke="#669933" stroke-linecap="round" stroke-miterlimit="1" points="89.499,0.5 81.499,83.935 
		64.499,80.07 	"/>
	<polygon fill="#669933" stroke="#669933" stroke-linecap="round" stroke-miterlimit="1" points="6.499,108.35 32.499,197.556 
		0.499,197.534 	"/>
	<polygon fill="#669933" stroke="#669933" stroke-linecap="round" stroke-miterlimit="1" points="155.749,86.535 139.999,123.08 
		139.999,158.5 164.499,117.5 170.499,92.75 221.499,84 170.499,84 155.999,66.995 155.999,83.5 	"/>
	<polygon fill="#669933" stroke="#669933" stroke-linecap="round" stroke-miterlimit="1" points="354.534,109.293 384.366,149.993 
		361.508,166.753 340.383,180.586 366.501,175.174 368.301,183.384 375.28,180.279 388.499,164 422.499,164 471.403,190.691 
		430.709,194.439 422.524,182.628 413.499,186.764 405.89,194.383 422.524,194.655 430.709,199 471.499,199 645.002,198.128 
		426.813,153.807 	"/>
	<path fill="#669933" stroke="#669933" stroke-linecap="round" stroke-miterlimit="1" d="M658.499,168.904l56,12.286l31-6.8
		l19-3.891l-1,21.055c0,0-10-6.68-12-11.055s-19,8.7-19,8.7l-27,0.977l-14,9.014L658.499,168.904z"/>
</g>
<g id="Layer_1">
	<g id="XMLID_1_">
		<g>
			<polygon fill="#666666" points="627.499,144.5 627.499,194.5 626.339,194.5 626.339,151.56 625.549,151.56 625.709,144.5 			"/>
			<path fill="#66CCFF" d="M626.339,194.5v0.46l-54.74-0.65c-34.08-2.359-66.39-7.869-87.729-13.359l-5.78-1.98l-0.01-0.91
				l0.42,0.19v-26.69h147.05l-0.05,2.471v40.47H626.339z"/>
			<polygon fill="#666666" points="626.339,151.56 626.339,194.5 625.499,194.5 625.499,154.03 625.549,151.56 			"/>
			<path fill="#99CC66" d="M581.849,194.93l44.49,0.03C611.859,195.78,596.779,195.68,581.849,194.93z"/>
			<path fill="#99CC66" d="M581.849,194.93l-26.859-0.02c0.89-0.03,1.79-0.07,2.68-0.11l22.74,0.05
				C580.889,194.88,581.369,194.91,581.849,194.93z"/>
			<path fill="#99CC66" d="M580.409,194.85l-22.74-0.05c-0.89,0.04-1.79,0.08-2.68,0.11l-8.271-0.01
				c-13.93-0.431-27.989-2.92-41.649-6.7l23.39,5.02l21.58,1.58l18.62-0.52l2.939,0.029
				C574.519,194.52,577.459,194.7,580.409,194.85z"/>
			<path fill="#66CCFF" d="M571.599,194.31l-2.939-0.029l-18.62,0.52l-21.58-1.58l-23.39-5.02c-0.011,0-0.021,0-0.021,0l-21.18-7.25
				C505.209,186.44,537.519,191.95,571.599,194.31z"/>
			<path fill="#99CC66" d="M483.869,180.95l21.18,7.25c-8.2-2.26-16.25-4.99-24.04-8.01
				C481.939,180.44,482.889,180.7,483.869,180.95z"/>
			<polygon fill="#66CCFF" points="478.499,151.56 478.499,178.25 478.079,178.06 477.919,151.56 			"/>
			<polygon fill="#FFFFFF" points="478.499,128.5 478.499,151.56 477.919,151.56 478.079,178.06 444.499,162.46 444.499,134.5 
				444.499,134.31 444.499,128.5 469.499,128.5 			"/>
			<polygon fill="#FF0000" points="470.949,119.5 477.789,119.5 477.989,119.5 478.499,119.5 478.499,128.5 469.499,128.5 
				469.499,119.5 470.789,119.5 			"/>
			<polygon fill="#FFFFFF" points="469.499,119.5 469.499,128.5 444.499,128.5 444.499,115.5 469.499,115.5 469.499,119.22 			"/>
			<path fill="#FFFFFF" d="M444.499,134.5v27.96l-48.05-29.33c-2.33-1.72-3.58-2.7-3.58-2.7l-4.76-2.39l-5.61-3.42v-14.49
				c0,0,50.52,24.54,61.78,24.18h0.22V134.5z"/>
			<polygon fill="#FFFFFF" points="378.499,105.5 378.499,122.5 378.209,123.08 357.399,112.65 356.629,112.65 356.569,105.5 
				366.499,105.5 			"/>
			<path fill="#FFFFFF" d="M356.569,105.5l0.06,7.15l-18.01,0.029c-0.21,0-0.42-0.01-0.63-0.02l5.51-0.01V102.5h3h8h2.04
				L356.569,105.5z"/>
			<polygon fill="#FFFFFF" points="354.499,90.5 354.499,102.5 346.499,102.5 346.499,101.5 346.499,90.5 			"/>
			<path fill="#66CCFF" d="M342.239,104.43v7.84h-14.78c-6.07-0.3-12.17-0.76-17.28-1.449c-3.26-1.28-7.21-3.431-7.76-6.391H342.239
				z"/>
			<path fill="#CCCCCC" d="M342.009,96.11c1.15,1.439-1.42,3.34-3.16,3.34s-4.26-1.86-3.149-3.34
				C335.699,96.11,338.659,97.92,342.009,96.11z"/>
			<path fill="#CCCCCC" d="M341.089,94.65c0.271,0.479,0.55,0.989,0.92,1.46c-3.35,1.81-6.31,0-6.31,0
				c0.4-0.53,0.69-1.021,0.92-1.46C336.619,94.65,339.119,95.86,341.089,94.65z"/>
			<path fill="#CCCCCC" d="M340.379,93.53c0.26,0.31,0.48,0.7,0.71,1.12c-1.97,1.21-4.47,0-4.47,0c0.25-0.44,0.45-0.82,0.67-1.12
				C337.289,93.53,339.049,94.39,340.379,93.53z"/>
			<path fill="#CCCCCC" d="M340.379,93.53c-1.33,0.859-3.09,0-3.09,0c0.36-0.49,0.79-0.771,1.56-0.771
				C339.549,92.76,340.009,93.07,340.379,93.53z"/>
			<path fill="#99CC66" d="M338.619,112.68l-31.24,0.061l30.49-0.08c0.04,0,0.08,0,0.12,0
				C338.199,112.67,338.409,112.68,338.619,112.68z"/>
			<path fill="#66CCFF" d="M327.459,112.27h-12.82c0,0-2.04-0.489-4.46-1.449C315.289,111.51,321.389,111.97,327.459,112.27z"/>
			<path fill="#666666" d="M313.899,112.68h-6.89c0,0-4.16-1.399-7.49-4.33c2.06,0.95,5.37,1.7,9.4,2.29
				C311.609,112.02,313.899,112.68,313.899,112.68z"/>
			<path fill="#666666" d="M295.469,99.5h5.05c-0.6,5.41,4.35,9.08,8.4,11.14c-4.03-0.59-7.34-1.34-9.4-2.29
				C297.099,106.22,295.109,103.29,295.469,99.5z"/>
		</g>
		<g>
			<path fill="none" stroke="#99CC66" stroke-width="2" stroke-miterlimit="10" d="M299.519,108.35"/>
			<path fill="none" stroke="#99CC66" stroke-width="2" stroke-miterlimit="10" d="M434.259,157.67c0.561,0.32,1.12,0.64,1.67,0.95"
				/>
			<path fill="none" stroke="#99CC66" stroke-width="2" stroke-miterlimit="10" d="M327.459,112.27
				c3.55,0.181,7.09,0.311,10.41,0.391"/>
			<path fill="none" stroke="#99CC66" stroke-width="2" stroke-miterlimit="10" d="M308.919,110.64c0.41,0.07,0.83,0.12,1.26,0.181"
				/>
			<polyline fill="none" stroke="#66CCFF" stroke-width="2" stroke-miterlimit="10" points="505.049,188.2 483.869,180.95 
				478.089,178.97 478.079,178.06 477.919,151.56 478.499,151.56 625.549,151.56 			"/>
			<polyline fill="none" stroke="#66CCFF" stroke-width="2" stroke-miterlimit="10" points="626.339,194.5 626.339,194.96 
				571.599,194.31 568.659,194.28 550.039,194.8 528.459,193.22 505.069,188.2 			"/>
			<path fill="none" stroke="#66CCFF" stroke-width="2" stroke-miterlimit="10" d="M310.179,110.82
				c-3.26-1.28-7.21-3.431-7.76-6.391h39.82v7.84h-14.78h-12.82C314.639,112.27,312.599,111.78,310.179,110.82z"/>
			<path fill="none" stroke="#666666" stroke-linecap="round" stroke-linejoin="round" stroke-miterlimit="10" d="M370.839,63.97
				c0,0,49.68,24.08,103.33,12.79c0.01,0,0.03-0.01,0.04-0.01"/>
			
				<line fill="none" stroke="#666666" stroke-width="2" stroke-linecap="round" stroke-linejoin="round" stroke-miterlimit="10" x1="354.499" y1="90.5" x2="354.499" y2="102.5"/>
			
				<line fill="none" stroke="#666666" stroke-width="2" stroke-linecap="round" stroke-linejoin="round" stroke-miterlimit="10" x1="346.499" y1="101.5" x2="346.499" y2="90.5"/>
			
				<polygon fill="none" stroke="#666666" stroke-width="2" stroke-linecap="round" stroke-linejoin="round" stroke-miterlimit="10" points="
				338.499,90.5 337.499,90.5 337.499,86.5 356.499,86.5 356.499,90.5 354.499,90.5 346.499,90.5 			"/>
			
				<line fill="none" stroke="#666666" stroke-width="2" stroke-linecap="round" stroke-linejoin="round" stroke-miterlimit="10" x1="338.499" y1="92.5" x2="338.499" y2="90.5"/>
			<path fill="none" stroke="#666666" stroke-width="2" stroke-linecap="round" stroke-linejoin="round" stroke-miterlimit="10" d="
				M335.699,96.11c-1.11,1.479,1.409,3.34,3.149,3.34s4.311-1.9,3.16-3.34c-0.37-0.471-0.649-0.98-0.92-1.46
				c-0.229-0.42-0.45-0.811-0.71-1.12c-0.37-0.46-0.83-0.771-1.53-0.771c-0.77,0-1.199,0.28-1.56,0.771
				c-0.22,0.3-0.42,0.68-0.67,1.12C336.389,95.09,336.099,95.58,335.699,96.11z"/>
			<path fill="none" stroke="#666666" stroke-width="2" stroke-linecap="round" stroke-linejoin="round" stroke-miterlimit="10" d="
				M335.699,96.11c0,0,2.96,1.81,6.31,0"/>
			<path fill="none" stroke="#666666" stroke-width="2" stroke-linecap="round" stroke-linejoin="round" stroke-miterlimit="10" d="
				M336.619,94.65c0,0,2.5,1.21,4.47,0"/>
			<path fill="none" stroke="#666666" stroke-width="2" stroke-linecap="round" stroke-linejoin="round" stroke-miterlimit="10" d="
				M337.289,93.53c0,0,1.76,0.859,3.09,0"/>
			
				<polyline fill="none" stroke="#666666" stroke-width="2" stroke-linecap="round" stroke-linejoin="round" stroke-miterlimit="10" points="
				356.499,105.5 356.569,105.5 366.499,105.5 378.499,105.5 378.499,122.5 			"/>
			
				<polyline fill="none" stroke="#666666" stroke-width="2" stroke-linecap="round" stroke-linejoin="round" stroke-miterlimit="10" points="
				382.169,124.84 381.589,102.5 375.279,102.5 366.859,102.5 366.499,102.5 366.499,105.5 			"/>
			<polyline fill="none" stroke="#666666" stroke-linecap="round" stroke-linejoin="round" stroke-miterlimit="10" points="
				373.749,70 373.899,73.16 373.899,73.18 374.049,76.3 374.049,76.32 374.299,81.66 374.299,81.68 374.539,86.66 374.799,92.18 
				374.799,92.2 375.269,102.13 375.279,102.41 			"/>
			<path fill="none" stroke="#666666" stroke-linecap="round" stroke-linejoin="round" stroke-miterlimit="10" d="M375.279,95.782"
				/>
			
				<line fill="none" stroke="#666666" stroke-linecap="round" stroke-linejoin="round" stroke-miterlimit="10" x1="368.299" y1="70" x2="366.859" y2="101.75"/>
			<polygon fill="none" stroke="#666666" stroke-linecap="round" stroke-linejoin="round" stroke-miterlimit="10" points="
				370.839,62.99 373.749,70 368.299,70 			"/>
			<polyline fill="none" stroke="#666666" stroke-linecap="round" stroke-linejoin="round" stroke-miterlimit="10" points="
				476.709,83.5 476.819,86.69 476.819,86.73 476.949,90.28 476.949,90.33 477.169,96.38 477.169,96.45 477.369,102.1 
				477.369,102.12 477.589,108.39 477.599,108.46 477.989,119.5 			"/>
			<polyline fill="none" stroke="#666666" stroke-linecap="round" stroke-linejoin="round" stroke-miterlimit="10" points="
				470.789,119.5 471.169,108.5 471.169,108.37 471.379,102.12 471.389,102.1 471.579,96.46 471.579,96.37 471.789,90.33 
				471.789,90.28 471.909,86.72 471.909,86.69 472.019,83.5 			"/>
			<polygon fill="none" stroke="#666666" stroke-linecap="round" stroke-linejoin="round" stroke-miterlimit="10" points="
				474.169,76.76 474.209,76.64 474.849,78.39 475.159,79.26 475.359,79.79 475.629,80.54 475.719,80.78 476.339,82.47 
				476.479,82.87 476.709,83.5 475.729,83.5 473.009,83.5 472.019,83.5 472.229,82.84 472.339,82.51 472.909,80.72 472.949,80.59 
				473.219,79.74 473.319,79.43 473.689,78.26 			"/>
			<polyline fill="none" stroke="#666666" stroke-linecap="round" stroke-linejoin="round" stroke-miterlimit="10" points="
				475.089,78.23 474.849,78.39 474.369,78.72 473.319,79.43 472.979,79.66 473.219,79.74 474.369,80.12 475.629,80.54 
				475.969,80.65 475.719,80.78 474.369,81.47 472.339,82.51 472.019,82.67 472.229,82.84 473.009,83.5 474.369,84.64 
				476.819,86.69 476.849,86.71 476.819,86.73 474.369,88.46 471.789,90.28 471.759,90.3 471.789,90.33 474.369,93.24 
				477.169,96.38 477.199,96.42 477.169,96.45 474.369,99.18 471.389,102.1 471.369,102.11 471.379,102.12 474.369,105.14 
				477.589,108.39 477.619,108.42 477.599,108.46 474.369,113.82 470.949,119.5 			"/>
			<polyline fill="none" stroke="#666666" stroke-linecap="round" stroke-linejoin="round" stroke-miterlimit="10" points="
				473.649,78.23 473.689,78.26 474.369,78.72 475.159,79.26 475.759,79.66 475.359,79.79 474.369,80.12 472.949,80.59 
				472.769,80.65 472.909,80.72 474.369,81.47 476.339,82.47 476.719,82.67 476.479,82.87 475.729,83.5 474.369,84.64 
				471.909,86.69 471.889,86.71 471.909,86.72 474.369,88.46 476.949,90.28 476.979,90.3 476.949,90.33 474.369,93.24 
				471.579,96.37 471.539,96.42 471.579,96.46 474.369,99.18 477.369,102.1 477.379,102.11 477.369,102.12 474.369,105.14 
				471.169,108.37 471.119,108.42 471.169,108.5 474.369,113.82 477.789,119.5 			"/>
			
				<polygon fill="none" stroke="#666666" stroke-width="2" stroke-linecap="round" stroke-linejoin="round" stroke-miterlimit="10" points="
				626.339,194.5 625.499,194.5 625.499,154.03 625.549,151.56 625.709,144.5 627.499,144.5 627.499,194.5 			"/>
			<path fill="none" stroke="#666666" stroke-width="2" stroke-linecap="round" stroke-linejoin="round" stroke-miterlimit="10" d="
				M308.919,110.64c2.69,1.38,4.98,2.04,4.98,2.04h-6.89c0,0-4.16-1.399-7.49-4.33c-2.42-2.13-4.41-5.06-4.05-8.85h5.05
				C299.919,104.91,304.869,108.58,308.919,110.64z"/>
			<path fill="none" stroke="#666666" stroke-width="2" stroke-linecap="round" stroke-linejoin="round" stroke-miterlimit="10" d="
				M356.629,112.83v-0.18l-0.06-7.15l-0.03-3h-2.04h-8h-3v10.15l-5.51,0.01c-0.04,0-0.08,0-0.12,0l-30.49,0.08l31.24-0.061
				l18.01-0.029h0.771l20.81,10.43l3.87,1.939l6.03,3.021l4.76,2.39c0,0,1.25,0.98,3.58,2.7c5.72,4.24,17.95,12.92,34.26,22.49
				c1.2,0.689,2.39,1.37,3.55,2.05c0.55,0.311,1.11,0.63,1.67,0.95c0.181,0.11,0.36,0.21,0.54,0.31
				c13.021,7.34,28.21,14.94,44.54,21.261c7.79,3.02,15.84,5.75,24.04,8.01c0,0,0.01,0,0.021,0c13.66,3.78,27.72,6.27,41.649,6.7
				c2.761,0.09,5.521,0.09,8.271,0.01c0.89-0.03,1.79-0.07,2.68-0.11l22.74,0.05l45.93,0.11"/>
			
				<polyline fill="none" stroke="#666666" stroke-width="2" stroke-linecap="round" stroke-linejoin="round" stroke-miterlimit="10" points="
				444.499,162.46 478.079,178.06 478.499,178.25 478.499,151.56 478.499,128.5 			"/>
			
				<polyline fill="none" stroke="#666666" stroke-width="2" stroke-linecap="round" stroke-linejoin="round" stroke-miterlimit="10" points="
				444.499,128.5 444.499,134.31 444.499,134.5 			"/>
			
				<polyline fill="none" stroke="#666666" stroke-width="2" stroke-linecap="round" stroke-linejoin="round" stroke-miterlimit="10" points="
				469.499,119.5 469.499,119.22 469.499,115.5 444.499,115.5 442.499,115.5 			"/>
			
				<polyline fill="none" stroke="#666666" stroke-width="2" stroke-linecap="round" stroke-linejoin="round" stroke-miterlimit="10" points="
				444.499,115.5 444.499,128.5 469.499,128.5 			"/>
			
				<polygon fill="none" stroke="#666666" stroke-width="2" stroke-linecap="round" stroke-linejoin="round" stroke-miterlimit="10" points="
				477.989,119.5 478.499,119.5 478.499,128.5 469.499,128.5 469.499,119.5 470.789,119.5 470.949,119.5 477.789,119.5 			"/>
			<path fill="none" stroke="#666666" stroke-width="2" stroke-linecap="round" stroke-linejoin="round" stroke-miterlimit="10" d="
				M444.499,134.5v27.96l-48.05-29.33l-8.34-5.09l-5.61-3.42v-14.49c0,0,50.52,24.54,61.78,24.18"/>
			<polyline fill="none" stroke="#666666" stroke-linecap="round" stroke-linejoin="round" stroke-miterlimit="10" points="
				375.269,102.13 367.859,94.65 374.661,89.248 367.716,82.868 373.334,77.125 368.299,70 372.329,67.07 			"/>
		</g>
	</g>
	
		<line fill="none" stroke="#666666" stroke-linecap="round" stroke-linejoin="round" stroke-miterlimit="10" x1="368.65" y1="77.125" x2="373.686" y2="70"/>
	
		<line fill="none" stroke="#666666" stroke-linecap="round" stroke-linejoin="round" stroke-miterlimit="10" x1="374.269" y1="82.868" x2="368.65" y2="77.125"/>
	
		<line fill="none" stroke="#666666" stroke-linecap="round" stroke-linejoin="round" stroke-miterlimit="10" x1="367.323" y1="89.248" x2="374.269" y2="82.868"/>
	
		<line fill="none" stroke="#666666" stroke-linecap="round" stroke-linejoin="round" stroke-miterlimit="10" x1="374.125" y1="94.65" x2="367.323" y2="89.248"/>
	
		<line fill="none" stroke="#666666" stroke-linecap="round" stroke-linejoin="round" stroke-miterlimit="10" x1="366.716" y1="102.13" x2="374.125" y2="94.65"/>
	
		<line fill="none" stroke="#666666" stroke-linecap="round" stroke-linejoin="round" stroke-miterlimit="10" x1="373.329" y1="70" x2="369.299" y2="67.07"/>
</g>
<g id="Layer_4">
	<linearGradient id="SVGID_1_" gradientUnits="userSpaceOnUse" x1="55.042" y1="74.3799" x2="64.1494" y2="74.3799">
		<stop  offset="0.0918" style="stop-color:#996633"/>
		<stop  offset="0.551" style="stop-color:#7F5C00"/>
		<stop  offset="0.9847" style="stop-color:#544A00"/>
	</linearGradient>
	<polygon fill="url(#SVGID_1_)" points="57.569,61.5 62.224,61.5 64.149,87.049 55.042,87.26 	"/>
	<linearGradient id="SVGID_2_" gradientUnits="userSpaceOnUse" x1="59.8413" y1="34.252" x2="59.8413" y2="74.0605">
		<stop  offset="0.0714" style="stop-color:#008400"/>
		<stop  offset="0.9847" style="stop-color:#006837"/>
	</linearGradient>
	<polygon fill="url(#SVGID_2_)" points="60.239,34.252 79.807,66.283 73.19,64.084 72.304,69.906 67.458,65.166 64.22,74.061 
		60.501,67.166 55.567,73.862 53.354,65.541 48.499,69.898 48.499,64.186 39.876,65.891 	"/>
	<linearGradient id="SVGID_3_" gradientUnits="userSpaceOnUse" x1="59.4351" y1="25.6094" x2="59.4351" y2="60.2646">
		<stop  offset="0.0714" style="stop-color:#008400"/>
		<stop  offset="0.9847" style="stop-color:#006837"/>
	</linearGradient>
	<polygon fill="url(#SVGID_3_)" points="60.135,25.609 77.169,53.494 71.41,51.58 70.638,56.647 66.419,52.521 63.601,60.265 
		60.364,54.264 56.068,60.092 53.435,52.848 48.499,56.642 48.499,51.668 41.701,53.152 	"/>
	<linearGradient id="SVGID_4_" gradientUnits="userSpaceOnUse" x1="59.7124" y1="22.2275" x2="59.7124" y2="43.8711">
		<stop  offset="0.0714" style="stop-color:#008400"/>
		<stop  offset="0.9847" style="stop-color:#006837"/>
	</linearGradient>
	<polyline fill="url(#SVGID_4_)" points="59.943,22.228 70.583,39.643 66.985,38.446 66.503,41.611 63.868,39.035 62.108,43.871 
		60.086,40.123 57.403,43.764 56.169,39.238 53.499,41.607 53.499,38.502 48.842,39.429 59.943,22.228 	"/>
	<polygon fill="#006633" points="21.716,47.152 41.284,79.184 34.669,76.982 33.782,82.805 28.935,78.064 25.698,86.96 
		21.979,80.066 17.046,86.762 14.094,78.44 8.499,82.798 8.499,77.085 0.615,78.79 	"/>
	<polygon fill="#336633" points="21.612,38.51 38.647,66.395 32.888,64.479 32.116,69.548 27.897,65.421 25.079,73.165 
		21.841,67.163 17.546,72.992 15.173,65.748 10.499,69.541 10.499,64.568 3.44,66.052 	"/>
	<polyline fill="#006633" points="21.421,35.127 32.061,52.542 28.463,51.346 27.981,54.512 25.347,51.934 23.587,56.77 
		21.563,53.021 18.882,56.662 17.408,52.139 14.499,54.508 14.499,51.401 10.081,52.328 21.421,35.127 	"/>
	<linearGradient id="SVGID_5_" gradientUnits="userSpaceOnUse" x1="16.6367" y1="91.5439" x2="25.7441" y2="91.5439">
		<stop  offset="0.0918" style="stop-color:#996633"/>
		<stop  offset="1" style="stop-color:#544A00"/>
	</linearGradient>
	<polygon fill="url(#SVGID_5_)" points="19.164,78.5 23.818,78.5 25.744,104.588 16.637,104.527 	"/>
	<linearGradient id="SVGID_6_" gradientUnits="userSpaceOnUse" x1="686.3887" y1="160.8613" x2="697.0859" y2="160.8613">
		<stop  offset="0.0918" style="stop-color:#996633"/>
		<stop  offset="0.551" style="stop-color:#7F5C00"/>
		<stop  offset="0.9847" style="stop-color:#544A00"/>
	</linearGradient>
	<polygon fill="url(#SVGID_6_)" points="687.628,149.5 694.318,149.5 697.086,172.076 686.389,172.222 	"/>
	<linearGradient id="SVGID_7_" gradientUnits="userSpaceOnUse" x1="690.0684" y1="126.5908" x2="690.0684" y2="159.1631">
		<stop  offset="0.1224" style="stop-color:#339933"/>
		<stop  offset="1" style="stop-color:#006837"/>
	</linearGradient>
	<polygon fill="url(#SVGID_7_)" points="690.719,126.591 711.182,152.8 704.263,151 703.336,155.764 698.269,151.885 
		694.884,159.163 690.994,153.522 685.835,159.001 683.048,152.192 677.499,155.758 677.499,151.083 668.955,152.479 	"/>
	<linearGradient id="SVGID_8_" gradientUnits="userSpaceOnUse" x1="690.2822" y1="119.5186" x2="690.2822" y2="147.875">
		<stop  offset="0.1224" style="stop-color:#339933"/>
		<stop  offset="1" style="stop-color:#006837"/>
	</linearGradient>
	<polygon fill="url(#SVGID_8_)" points="690.795,119.519 708.609,142.336 702.586,140.769 701.779,144.915 697.367,141.539 
		694.421,147.875 691.034,142.965 686.543,147.734 684.224,141.807 679.499,144.91 679.499,140.841 671.954,142.056 	"/>
	<linearGradient id="SVGID_9_" gradientUnits="userSpaceOnUse" x1="690.2646" y1="116.751" x2="690.2646" y2="134.4609">
		<stop  offset="0.1224" style="stop-color:#339933"/>
		<stop  offset="1" style="stop-color:#006837"/>
	</linearGradient>
	<polygon fill="url(#SVGID_9_)" points="690.595,116.751 701.721,131.001 697.959,130.022 697.455,132.612 694.699,130.504 
		692.859,134.461 690.744,131.394 687.939,134.373 686.47,130.671 683.499,132.609 683.499,130.067 678.808,130.826 	"/>
	<linearGradient id="SVGID_10_" gradientUnits="userSpaceOnUse" x1="707.3887" y1="164.8613" x2="718.0859" y2="164.8613">
		<stop  offset="0.0918" style="stop-color:#996633"/>
		<stop  offset="0.551" style="stop-color:#7F5C00"/>
		<stop  offset="0.9847" style="stop-color:#544A00"/>
	</linearGradient>
	<polygon fill="url(#SVGID_10_)" points="708.628,153.5 715.318,153.5 718.086,176.076 707.389,176.222 	"/>
	<linearGradient id="SVGID_11_" gradientUnits="userSpaceOnUse" x1="711.0684" y1="130.5908" x2="711.0684" y2="163.1631">
		<stop  offset="0.1224" style="stop-color:#339933"/>
		<stop  offset="1" style="stop-color:#006837"/>
	</linearGradient>
	<polygon fill="url(#SVGID_11_)" points="711.719,130.591 732.182,156.8 725.263,155 724.336,159.764 719.269,155.885 
		715.884,163.163 711.994,157.522 706.835,163.001 704.048,156.192 698.499,159.758 698.499,155.083 689.955,156.479 	"/>
	<linearGradient id="SVGID_12_" gradientUnits="userSpaceOnUse" x1="711.2822" y1="123.5186" x2="711.2822" y2="151.875">
		<stop  offset="0.1224" style="stop-color:#339933"/>
		<stop  offset="1" style="stop-color:#006837"/>
	</linearGradient>
	<polygon fill="url(#SVGID_12_)" points="711.795,123.519 729.609,146.336 723.586,144.769 722.779,148.915 718.367,145.539 
		715.421,151.875 712.034,146.965 707.543,151.734 705.224,145.807 700.499,148.91 700.499,144.841 692.954,146.056 	"/>
	<linearGradient id="SVGID_13_" gradientUnits="userSpaceOnUse" x1="711.2646" y1="120.751" x2="711.2646" y2="138.4609">
		<stop  offset="0.1224" style="stop-color:#339933"/>
		<stop  offset="1" style="stop-color:#006837"/>
	</linearGradient>
	<polygon fill="url(#SVGID_13_)" points="711.595,120.751 722.721,135.001 718.959,134.022 718.455,136.612 715.699,134.504 
		713.859,138.461 711.744,135.394 708.939,138.373 707.47,134.671 704.499,136.609 704.499,134.067 699.808,134.826 	"/>
	<linearGradient id="SVGID_14_" gradientUnits="userSpaceOnUse" x1="233.3955" y1="189.9316" x2="240.415" y2="189.9316">
		<stop  offset="0.0918" style="stop-color:#996633"/>
		<stop  offset="0.551" style="stop-color:#7F5C00"/>
		<stop  offset="0.9847" style="stop-color:#544A00"/>
	</linearGradient>
	<polygon fill="url(#SVGID_14_)" points="234.208,182.5 238.599,182.5 240.415,197.221 233.396,197.363 	"/>
	<linearGradient id="SVGID_15_" gradientUnits="userSpaceOnUse" x1="235.7944" y1="167.2773" x2="235.7944" y2="188.6523">
		<stop  offset="0.1224" style="stop-color:#339933"/>
		<stop  offset="1" style="stop-color:#006837"/>
	</linearGradient>
	<polygon fill="url(#SVGID_15_)" points="236.237,167.277 249.665,184.477 245.125,183.296 244.517,186.422 241.191,183.876 
		238.97,188.652 236.417,184.951 233.032,188.546 231.172,184.078 227.499,186.418 227.499,183.35 221.924,184.266 	"/>
	<linearGradient id="SVGID_16_" gradientUnits="userSpaceOnUse" x1="235.856" y1="162.6367" x2="235.856" y2="181.2451">
		<stop  offset="0.1224" style="stop-color:#339933"/>
		<stop  offset="1" style="stop-color:#006837"/>
	</linearGradient>
	<polygon fill="url(#SVGID_16_)" points="236.287,162.637 247.977,177.61 244.024,176.581 243.495,179.303 240.6,177.087 
		238.667,181.245 236.444,178.022 233.497,181.152 231.787,177.263 228.499,179.299 228.499,176.629 223.735,177.426 	"/>
	<linearGradient id="SVGID_17_" gradientUnits="userSpaceOnUse" x1="235.9385" y1="160.8203" x2="235.9385" y2="172.4424">
		<stop  offset="0.1224" style="stop-color:#339933"/>
		<stop  offset="1" style="stop-color:#006837"/>
	</linearGradient>
	<polygon fill="url(#SVGID_17_)" points="236.155,160.82 243.457,170.172 240.988,169.529 240.657,171.229 238.849,169.846 
		237.642,172.442 236.253,170.43 234.413,172.385 233.449,169.955 231.499,171.228 231.499,169.56 228.42,170.057 	"/>
	<linearGradient id="SVGID_18_" gradientUnits="userSpaceOnUse" x1="270.3887" y1="187.8613" x2="281.0859" y2="187.8613">
		<stop  offset="0.0918" style="stop-color:#996633"/>
		<stop  offset="0.551" style="stop-color:#7F5C00"/>
		<stop  offset="0.9847" style="stop-color:#544A00"/>
	</linearGradient>
	<polygon fill="url(#SVGID_18_)" points="271.628,176.5 278.318,176.5 281.086,199.076 270.389,199.222 	"/>
	<linearGradient id="SVGID_19_" gradientUnits="userSpaceOnUse" x1="274.0684" y1="153.5908" x2="274.0684" y2="186.1631">
		<stop  offset="0.1224" style="stop-color:#339933"/>
		<stop  offset="1" style="stop-color:#006837"/>
	</linearGradient>
	<polygon fill="url(#SVGID_19_)" points="274.719,153.591 295.182,179.8 288.263,178 287.336,182.764 282.269,178.885 
		278.884,186.163 274.994,180.522 269.835,186.001 267.048,179.192 261.499,182.758 261.499,178.083 252.955,179.479 	"/>
	<linearGradient id="SVGID_20_" gradientUnits="userSpaceOnUse" x1="274.2817" y1="146.5186" x2="274.2817" y2="174.875">
		<stop  offset="0.1224" style="stop-color:#339933"/>
		<stop  offset="1" style="stop-color:#006837"/>
	</linearGradient>
	<polygon fill="url(#SVGID_20_)" points="274.795,146.519 292.609,169.336 286.586,167.769 285.779,171.915 281.367,168.539 
		278.421,174.875 275.034,169.965 270.543,174.734 268.224,168.807 263.499,171.91 263.499,167.841 255.954,169.056 	"/>
	<linearGradient id="SVGID_21_" gradientUnits="userSpaceOnUse" x1="274.2642" y1="143.751" x2="274.2642" y2="161.4609">
		<stop  offset="0.1224" style="stop-color:#339933"/>
		<stop  offset="1" style="stop-color:#006837"/>
	</linearGradient>
	<polygon fill="url(#SVGID_21_)" points="274.595,143.751 285.721,158.001 281.959,157.022 281.455,159.612 278.699,157.504 
		276.859,161.461 274.744,158.394 271.939,161.373 270.47,157.671 267.499,159.609 267.499,157.067 262.808,157.826 	"/>
</g>
</svg>
