<?xml version="1.0" encoding="utf-8"?>
<!-- Generator: Adobe Illustrator 16.0.0, SVG Export Plug-In . SVG Version: 6.00 Build 0)  -->
<!DOCTYPE svg PUBLIC "-//W3C//DTD SVG 1.1//EN" "http://www.w3.org/Graphics/SVG/1.1/DTD/svg11.dtd">
<svg version="1.1" xmlns="http://www.w3.org/2000/svg" xmlns:xlink="http://www.w3.org/1999/xlink" x="0px" y="0px"
	 width="151.031px" height="144px" viewBox="0 0 151.031 144" enable-background="new 0 0 151.031 144" xml:space="preserve">
<g id="Layer_1">
	<polygon fill="#0066CC" stroke="#0066CC" stroke-miterlimit="10" points="7.531,143.5 150.531,143.5 150.531,80.235 150.531,0.5 
		7.531,0.5 	"/>
	<polygon fill="#0066CC" stroke="#0066CC" stroke-miterlimit="10" points="0.804,71.547 6.531,76.093 6.531,67 	"/>
</g>
<g id="Layer_2">
	<path fill="none" stroke="#FFFFFF" stroke-width="6" stroke-linecap="round" stroke-linejoin="round" stroke-miterlimit="10" d="
		M57.596,55.634c0-18.759,9.855-34.038,21.842-34.038c11.988,0,21.502,15.171,21.502,33.93s-8.91,33.93-21.91,33.93V105"/>
	<path fill="none" stroke="#FFFFFF" stroke-width="6" stroke-miterlimit="10" d="M40.698,63.667"/>
	<path fill="#FFFFFF" d="M83.799,119.608c0,2.395-1.941,4.334-4.336,4.334s-4.336-1.939-4.336-4.334
		c0-2.396,1.941-4.336,4.336-4.336S83.799,117.211,83.799,119.608z"/>
</g>
</svg>
