<?xml version="1.0" encoding="utf-8"?>
<!-- Generator: Adobe Illustrator 16.0.0, SVG Export Plug-In . SVG Version: 6.00 Build 0)  -->
<!DOCTYPE svg PUBLIC "-//W3C//DTD SVG 1.1//EN" "http://www.w3.org/Graphics/SVG/1.1/DTD/svg11.dtd">
<svg version="1.1" xmlns="http://www.w3.org/2000/svg" xmlns:xlink="http://www.w3.org/1999/xlink" x="0px" y="0px" width="1097px"
	 height="285px" viewBox="-130 0.968 1097 285" enable-background="new -130 0.968 1097 285" xml:space="preserve">
<g id="Layer_1">
	<g id="Layer_2" display="none">
		<g display="inline">
			<g>
				<path fill="#999999" d="M-35.052,147.781c0.326,0.373,1.303,2.443,1.682,3.265c1.727-1.009,3.454-2.02,5.181-3.027
					c-0.732-1.284-1.35-2.622-1.849-4.016c-1.828,0.771-3.656,1.541-5.483,2.313c0.574,0.859,1.147,1.721,1.722,2.58
					c2.184,3.277,6.726,0.465,5.181-3.026c-0.442-0.999-0.848-2.015-1.29-3.013c-1.728,1.01-3.454,2.02-5.181,3.027
					c0.341,0.396,0.628,0.826,0.859,1.291c1.57-1.211,3.142-2.423,4.711-3.635c-0.028-0.133-0.059-0.266-0.088-0.397
					c-1.229,1.23-2.46,2.461-3.689,3.69c0.153,0.057,0.309,0.111,0.463,0.168c3.661,1.325,5.167-4.438,1.595-5.785
					c-0.374-0.2-0.72-0.442-1.038-0.728c-0.505,1.864-1.009,3.729-1.514,5.592c1.63,0.103,3.203,0.397,4.795,0.753
					c-0.734-0.964-1.468-1.93-2.203-2.894c-0.008,1.479-0.013,2.905-0.324,4.364c1.828-0.238,3.656-0.478,5.483-0.716
					c-0.614-1.138-0.907-2.354-0.88-3.648c-1.964,0.267-3.93,0.531-5.894,0.798c0.35,1.856,0.512,3.734,0.86,5.593
					c1.929-0.532,3.856-1.063,5.786-1.597c-0.42-2.009-0.872-4.012-1.291-6.021c-0.805-3.846-6.363-2.143-5.786,1.596
					c0.293,1.896,0.315,3.746,0.324,5.654c1.964-0.267,3.929-0.531,5.893-0.798c-0.868-2.086-1.287-4.242-1.721-6.452
					c-1.929,0.532-3.857,1.063-5.786,1.596c0.646,2.453,0.743,4.854,0.753,7.375c1.964-0.266,3.929-0.531,5.893-0.798
					c-0.752-2.124-1.271-4.245-1.721-6.452c-0.791-3.874-6.288-2.118-5.786,1.596c0.331,2.448,0.318,4.91,0.323,7.375
					c1.964-0.266,3.929-0.53,5.893-0.798c-0.707-3.024-1.116-5.987-1.183-9.096c-2,0-4,0-6,0c0.362,3.44,0.426,6.867,0.43,10.324
					c2,0,4,0,6,0c-0.349-3.059-0.349-5.978,0-9.034c-2,0-4,0-6,0c0.349,3.297,0.427,6.58,0.432,9.894
					c1.964-0.266,3.929-0.53,5.893-0.798c-0.682-2.593-0.743-5.143-0.753-7.806c-1.964,0.266-3.929,0.531-5.893,0.798
					c0.652,3.729,0.371,7.486,0.322,11.247c1.965-0.266,3.93-0.531,5.894-0.798c-0.724-3.601-1.043-7.358,0.988-10.593
					c-1.728,0-3.454,0-5.182,0c1.79,4.032,0.035,9.49-0.732,13.604c1.964,0.268,3.929,0.532,5.893,0.798
					c-0.041-4.007-0.227-7.854,1.184-11.677c-1.929,0-3.856,0-5.785,0c0.591,4.021-0.009,8.072-0.107,12.106
					c1.964-0.267,3.929-0.531,5.893-0.799c-0.48-2.795-0.484-5.595,0.431-8.298c-1.93,0-3.857,0-5.786,0
					c0.653,3.058,0.266,6.033-0.107,9.097c2,0,4,0,6,0c-0.375-3.567-0.82-7.213,0.881-10.531c-1.827-0.238-3.654-0.479-5.482-0.716
					c0.576,3.265-0.104,6.42-0.86,9.59c1.93,0,3.857,0,5.786,0c-0.689-3.639-0.689-7.242,0-10.88
					c-1.964-0.268-3.929-0.532-5.893-0.799c-0.052,4.166-0.335,8.315,0,12.477c0.306,3.803,6.042,3.916,6,0
					c-0.033-3.022-0.439-6.17,1.311-8.812c-1.863-0.504-3.727-1.009-5.59-1.514c0.642,5.039-0.291,10.012-0.431,15.056
					c1.964-0.266,3.929-0.53,5.893-0.798c-1.402-3.512-2.369-7.395-0.731-11.022c-1.863-0.504-3.728-1.009-5.591-1.515
					c0.699,5.308,0.082,10.592,0,15.916c1.964-0.266,3.93-0.53,5.894-0.798c-1.109-3.943-1.859-7.774-0.432-11.74
					c-1.929,0-3.856,0-5.785,0c1.061,6.029,0.004,12.208-0.86,18.193c1.929,0,3.857,0,5.786,0
					c-1.55-5.355-1.092-10.853,0.859-16.042c-1.964-0.267-3.929-0.532-5.893-0.798c-0.125,5.78-1.201,11.459-1.721,17.207
					c2,0,4,0,6,0c-0.074-5.481-0.724-10.982,0.323-16.409c-1.964-0.267-3.929-0.532-5.893-0.798
					c-0.136,5.333-1.155,10.584-1.291,15.917c2,0,4,0,6,0c-0.501-5.752-1.562-11.58-0.106-17.271
					c-1.965-0.267-3.93-0.531-5.894-0.798c-0.156,5.047-1.146,10.008-1.29,15.058c2,0,4,0,6,0c-0.077-4.526-0.69-9.02,0.753-13.397
					c-1.964-0.267-3.929-0.532-5.893-0.798c0.33,6.029-0.264,12.052,0.43,18.066c2,0,4,0,6,0c-0.389-3.254-0.747-6.362,0.324-9.526
					c-1.964-0.267-3.929-0.532-5.894-0.798c0.354,5.019,0.044,10.033,0,15.057c1.965-0.266,3.93-0.531,5.894-0.798
					c-1.451-3.922-1.134-8.068,0.558-11.884c-1.862-0.504-3.727-1.009-5.59-1.515c0.245,4.139-0.382,8.056-1.184,12.106
					c1.929,0,3.856,0,5.786,0c-0.919-2.683-1.938-5.636-0.732-8.442c-1.828-0.237-3.655-0.478-5.483-0.716
					c0.754,3.829,0.363,7.801,0.323,11.677c1.964-0.266,3.929-0.53,5.894-0.798c-1.101-3.707-1.41-7.327,0.987-10.593
					c-1.828-0.238-3.654-0.478-5.482-0.716c0.938,3.449,0.708,6.548,0,10.019c1.964,0.268,3.929,0.532,5.893,0.798
					c-0.341-2.855-0.79-5.615,0.451-8.38c-1.828-0.237-3.655-0.478-5.483-0.716c0.565,3.029,0.309,5.757-0.431,8.729
					c1.964,0.267,3.929,0.531,5.893,0.798c-0.04-2.572-0.347-5.116,0.882-7.521c-1.828-0.238-3.655-0.479-5.483-0.717
					c0.924,3.291,0.345,6.334-0.431,9.589c1.929,0,3.856,0,5.785,0c-0.671-2.108-1.478-4.979,0.089-6.976
					c-1.707-0.707-3.414-1.414-5.121-2.121c-0.011,2.663-0.071,5.213-0.753,7.806c1.828-0.237,3.655-0.478,5.482-0.716
					c-1-1.378-1.187-2.901-0.558-4.571c-1.964-0.267-3.929-0.531-5.894-0.798c0.2,1.932,0.17,3.241-0.88,4.939
					c1.728,0,3.454,0,5.182,0c0-0.998,0-1.996,0-2.994c-1.828-0.239-3.655-0.479-5.483-0.717c0.607,2.017,0.421,3.971-0.558,5.86
					c1.727,0,3.454,0,5.181,0c-1.515-2.131-2.26-3.916-0.86-6.436c-1.828-0.238-3.654-0.479-5.482-0.716
					c0.505,2.099,0.386,3.632,0,5.717c1.929,0,3.856,0,5.786,0c-0.483-1.584-0.341-3.062,0.43-4.427c-1.929,0-3.857,0-5.786,0
					c0.682,2.593,0.743,5.143,0.753,7.806c0.013,3.323,5.172,4.172,5.894,0.798c-0.342,1.594,0.256,0.259,1.172-0.375
					c-1.011,0-2.02,0-3.028,0c0.01,0.006,0.021,0.011,0.03,0.018c-0.495-0.864-0.991-1.729-1.486-2.592c0,0.107,0,0.216,0,0.323
					c0,3.869,6,3.869,6,0c0-1.597-0.934-3.06-1.396-4.563c-0.699,1.229-1.397,2.461-2.097,3.689
					c-0.181-0.01-0.361-0.021-0.544-0.031c1.366,0.207,2.634-0.121,3.389-1.379c1.088-1.813,0.647-4.186,0.647-6.214
					c0-3.869-6-3.869-6,0c0-0.024,0.088,3.323,0.17,3.187c1.129-0.459,2.259-0.919,3.388-1.378c-0.949-0.146-1.699-0.17-2.646,0.03
					c-1.565,0.331-2.556,2.197-2.096,3.69c0.172,0.559,1.183,2.978,1.183,2.967c0,3.869,6,3.869,6,0c0-0.108,0-0.216,0-0.323
					c0-1.027-0.565-2.094-1.486-2.591c-0.01-0.005-0.02-0.011-0.029-0.016c-0.898-0.483-2.143-0.612-3.028,0
					c-1.372,0.947-3.553,2.194-3.93,3.96c1.964,0.267,3.929,0.532,5.893,0.798c-0.012-3.215-0.146-6.282-0.967-9.401
					c-0.821-3.123-4.746-2.574-5.786,0c-1.071,2.653-1.142,4.872-0.43,7.618c0.713,2.746,5.231,2.991,5.786,0
					c0.566-3.069,0.733-5.854,0-8.908c-0.606-2.52-4.241-2.953-5.483-0.716c-2.355,4.238-1.935,8.561,0.86,12.49
					c1.188,1.671,4.117,2.208,5.181,0c1.688-3.509,1.936-6.671,1.163-10.484c-0.57-2.81-4.095-2.603-5.483-0.717
					c-2.146,2.916-2.146,6.136,0,9.051c1.322,1.796,3.908,2.059,5.182,0c1.565-2.528,2.005-5.021,1.699-7.967
					c-0.327-3.169-5.06-4.32-5.893-0.798c-0.787,3.326-0.601,6.212,1.163,9.194c1.308,2.213,4.815,1.817,5.482-0.717
					c0.82-3.118,0.955-6.187,0.968-9.4c0.009-2.396-3.437-4.271-5.121-2.121c-3.005,3.831-3.079,8.266-1.632,12.813
					c0.863,2.716,5.068,3.012,5.785,0c1.024-4.304,1.646-8.452,0.432-12.779c-0.672-2.394-4.271-3.09-5.483-0.717
					c-1.755,3.435-1.76,6.746-1.701,10.549c0.053,3.345,5.063,4.141,5.894,0.798c1-4.027,1.191-7.834,0.431-11.92
					c-0.458-2.451-4.438-3.046-5.482-0.716c-1.722,3.833-1.768,7.251-1.271,11.406c0.369,3.093,5.159,4.396,5.894,0.798
					c0.92-4.512,1.22-8.725,0-13.21c-0.737-2.707-4.017-2.714-5.483-0.716c-3.289,4.479-3.115,10.086-1.594,15.216
					c0.964,3.249,5.857,2.619,5.893-0.798c0.046-4.458,0.33-8.871-0.537-13.271c-0.475-2.409-4.463-3.092-5.482-0.716
					c-1.907,4.438-1.417,8.552,0.127,13.064c0.888,2.596,5.168,3.118,5.786,0c0.902-4.562,1.674-9.036,1.397-13.702
					c-0.159-2.689-4.283-4.463-5.59-1.514c-2.321,5.233-3.192,11.021-1.163,16.507c1.141,3.083,5.862,2.744,5.893-0.798
					c0.045-5.023,0.354-10.038,0-15.057c-0.238-3.396-4.788-4.064-5.893-0.799c-1.242,3.674-0.992,7.323-0.538,11.122
					c0.453,3.787,6.443,3.847,6,0c-0.692-6.015-0.1-12.037-0.43-18.065c-0.188-3.406-4.819-4.053-5.894-0.798
					c-1.617,4.907-1.054,9.915-0.967,14.992c0.066,3.873,5.89,3.863,6,0c0.146-5.049,1.134-10.01,1.29-15.057
					c0.105-3.402-5.057-4.067-5.893-0.798c-1.604,6.278-0.661,12.513-0.107,18.866c0.332,3.805,5.9,3.92,6,0
					c0.136-5.333,1.155-10.584,1.291-15.917c0.085-3.339-5.245-4.157-5.893-0.798c-1.157,6.003-0.62,11.939-0.538,18.005
					c0.053,3.928,5.657,3.794,6,0c0.52-5.748,1.596-11.428,1.721-17.207c0.078-3.582-4.756-3.819-5.893-0.798
					c-2.306,6.128-2.685,12.931-0.86,19.232c0.761,2.628,5.339,3.095,5.786,0c1.03-7.134,2.122-14.209,0.86-21.385
					c-0.561-3.185-4.879-2.521-5.786,0c-1.772,4.923-0.953,10.011,0.431,14.932c0.925,3.286,5.841,2.59,5.893-0.798
					c0.082-5.325,0.699-10.609,0-15.916c-0.336-2.554-4.201-4.592-5.59-1.514c-2.327,5.158-1.951,10.438,0.127,15.646
					c1.215,3.042,5.794,2.775,5.894-0.798c0.14-5.044,1.072-10.017,0.431-15.056c-0.37-2.899-3.829-4.172-5.59-1.515
					c-2.37,3.575-2.175,7.706-2.13,11.839c2,0,4,0,6,0c-0.335-4.16-0.051-8.311,0-12.477c0.041-3.323-5.252-4.176-5.894-0.798
					c-0.896,4.734-0.896,9.337,0,14.071c0.561,2.949,5.119,2.792,5.786,0c1.026-4.3,1.633-8.395,0.86-12.781
					c-0.45-2.554-4.352-2.925-5.483-0.716c-2.238,4.363-2.204,8.766-1.701,13.559c0.408,3.887,5.534,3.83,6,0
					c0.445-3.653,0.665-7.074-0.106-10.69c-0.66-3.089-4.896-2.631-5.786,0c-1.265,3.737-1.091,7.645-0.43,11.488
					c0.593,3.443,5.813,2.465,5.893-0.798c0.113-4.634,0.57-9.091-0.106-13.702c-0.477-3.235-4.881-2.455-5.786,0
					c-1.595,4.318-1.444,8.735-1.398,13.272c0.033,3.294,5.256,4.209,5.894,0.798c1.125-6.03,2.721-12.384,0.128-18.228
					c-0.963-2.173-4.097-1.728-5.182,0c-2.912,4.635-2.633,10.033-1.594,15.216c0.683,3.4,5.851,2.502,5.893-0.798
					c0.056-4.337,0.215-8.555-0.536-12.844c-0.597-3.399-5.906-2.507-5.894,0.798c0.012,3.216,0.147,6.282,0.967,9.401
					c0.867,3.294,5.897,2.586,5.894-0.798c-0.004-3.313-0.083-6.597-0.432-9.895c-0.408-3.872-5.561-3.846-6,0
					c-0.349,3.059-0.349,5.978,0,9.034c0.429,3.746,6.005,3.961,6,0c-0.004-3.457-0.067-6.884-0.43-10.323
					c-0.396-3.762-6.083-3.943-6,0c0.077,3.645,0.569,7.143,1.397,10.69c0.779,3.34,5.898,2.552,5.893-0.798
					c-0.006-3.025-0.132-5.973-0.537-8.971c-1.929,0.531-3.856,1.063-5.786,1.596c0.451,2.206,0.97,4.327,1.722,6.452
					c1.099,3.101,5.907,2.729,5.893-0.798c-0.013-3.071-0.183-5.993-0.967-8.972c-0.996-3.776-6.523-2.161-5.786,1.597
					c0.434,2.209,0.853,4.364,1.721,6.451c1.227,2.946,5.908,2.846,5.894-0.798c-0.01-2.458-0.163-4.821-0.538-7.25
					c-1.929,0.532-3.857,1.063-5.786,1.597c0.42,2.009,0.872,4.012,1.291,6.021c0.795,3.805,6.495,2.171,5.786-1.596
					c-0.351-1.856-0.512-3.734-0.86-5.592c-0.627-3.335-6.077-2.561-5.893,0.798c0.134,2.45,0.679,4.451,1.7,6.676
					c1.079,2.354,4.967,1.71,5.482-0.716c0.421-1.981,0.526-3.937,0.538-5.96c0.007-1.283-0.914-2.606-2.203-2.894
					c-2.115-0.471-4.226-0.832-6.39-0.968c-3.29-0.207-3.667,3.981-1.515,5.591c0.789,0.589,1.552,0.983,2.472,1.33
					c0.532-1.929,1.063-3.856,1.595-5.785c-0.155-0.057-0.309-0.111-0.464-0.168c-2.315-0.839-4.1,1.64-3.69,3.69
					c0.237,1.183,0.7,2.255,1.633,3.044c2.545,2.153,6.436-0.534,4.711-3.635c-0.232-0.466-0.52-0.896-0.86-1.291
					c-2.301-3.143-6.748-0.519-5.181,3.026c0.44,0.999,0.848,2.015,1.29,3.013c1.727-1.01,3.453-2.02,5.181-3.027
					c-0.573-0.861-1.146-1.722-1.721-2.582c-1.802-2.7-6.651-1.057-5.483,2.313c0.667,1.923,1.506,3.643,2.454,5.446
					c1.821,3.472,6.776,0.429,5.181-3.026c-0.731-1.587-1.458-3.156-2.621-4.479C-33.368,140.627-37.595,144.888-35.052,147.781
					L-35.052,147.781z"/>
			</g>
		</g>
		
			<rect x="-68" y="142.936" display="inline" fill="#FFFFFF" stroke="#B3B3B3" stroke-width="2" stroke-linecap="round" stroke-linejoin="round" stroke-miterlimit="10" width="70" height="39"/>
		
			<rect x="-62" y="134.936" display="inline" fill="#FFFFFF" stroke="#CCCCCC" stroke-width="6" stroke-linecap="round" stroke-linejoin="round" stroke-miterlimit="10" width="59" height="6"/>
		
			<rect x="-58" y="142.936" display="inline" fill="#FFFFFF" stroke="#CCCCCC" stroke-width="2" stroke-linecap="round" stroke-linejoin="round" stroke-miterlimit="10" width="8" height="40"/>
		
			<rect x="-37" y="142.936" display="inline" fill="#FFFFFF" stroke="#CCCCCC" stroke-width="2" stroke-linecap="round" stroke-linejoin="round" stroke-miterlimit="10" width="7" height="40"/>
		
			<rect x="-35" y="142.936" display="inline" fill="#FFFFFF" stroke="#CCCCCC" stroke-width="2" stroke-linecap="round" stroke-linejoin="round" stroke-miterlimit="10" width="7" height="40"/>
		
			<rect x="-17" y="142.936" display="inline" fill="#FFFFFF" stroke="#CCCCCC" stroke-width="2" stroke-linecap="round" stroke-linejoin="round" stroke-miterlimit="10" width="7" height="40"/>
		
			<line display="inline" fill="none" stroke="#CCCCCC" stroke-width="6" stroke-linecap="round" stroke-linejoin="round" stroke-miterlimit="10" x1="-53" y1="134.936" x2="-53" y2="121.936"/>
		
			<line display="inline" fill="none" stroke="#CCCCCC" stroke-width="4" stroke-linecap="round" stroke-linejoin="round" stroke-miterlimit="10" x1="-43" y1="134.936" x2="-43" y2="121.936"/>
		
			<line display="inline" fill="none" stroke="#CCCCCC" stroke-width="4" stroke-linecap="round" stroke-linejoin="round" stroke-miterlimit="10" x1="-32" y1="134.936" x2="-32" y2="121.936"/>
		
			<line display="inline" fill="none" stroke="#CCCCCC" stroke-width="4" stroke-linecap="round" stroke-linejoin="round" stroke-miterlimit="10" x1="-21" y1="134.936" x2="-21" y2="121.936"/>
		
			<line display="inline" fill="none" stroke="#CCCCCC" stroke-width="4" stroke-linecap="round" stroke-linejoin="round" stroke-miterlimit="10" x1="-11" y1="134.936" x2="-11" y2="121.936"/>
		
			<line display="inline" fill="none" stroke="#999999" stroke-width="4" stroke-linecap="round" stroke-linejoin="round" stroke-miterlimit="10" x1="-54" y1="119.936" x2="-52" y2="119.936"/>
		
			<line display="inline" fill="none" stroke="#999999" stroke-width="4" stroke-linecap="round" stroke-linejoin="round" stroke-miterlimit="10" x1="-53" y1="127.936" x2="-51" y2="127.936"/>
		
			<line display="inline" fill="none" stroke="#999999" stroke-width="4" stroke-linecap="round" stroke-linejoin="round" stroke-miterlimit="10" x1="-53" y1="122.936" x2="-51" y2="122.936"/>
		
			<line display="inline" fill="none" stroke="#999999" stroke-width="4" stroke-linecap="round" stroke-linejoin="round" stroke-miterlimit="10" x1="-54" y1="126.936" x2="-52" y2="126.936"/>
		
			<line display="inline" fill="none" stroke="#999999" stroke-width="4" stroke-linecap="round" stroke-linejoin="round" stroke-miterlimit="10" x1="-44" y1="119.936" x2="-42" y2="119.936"/>
		
			<line display="inline" fill="none" stroke="#999999" stroke-width="4" stroke-linecap="round" stroke-linejoin="round" stroke-miterlimit="10" x1="-44" y1="122.936" x2="-42" y2="122.936"/>
		
			<line display="inline" fill="none" stroke="#999999" stroke-width="4" stroke-linecap="round" stroke-linejoin="round" stroke-miterlimit="10" x1="-44" y1="125.936" x2="-42" y2="125.936"/>
		
			<line display="inline" fill="none" stroke="#999999" stroke-width="4" stroke-linecap="round" stroke-linejoin="round" stroke-miterlimit="10" x1="-44" y1="128.936" x2="-42" y2="128.936"/>
		
			<line display="inline" fill="none" stroke="#999999" stroke-width="4" stroke-linecap="round" stroke-linejoin="round" stroke-miterlimit="10" x1="-33" y1="119.936" x2="-31" y2="119.936"/>
		
			<line display="inline" fill="none" stroke="#999999" stroke-width="4" stroke-linecap="round" stroke-linejoin="round" stroke-miterlimit="10" x1="-33" y1="122.936" x2="-31" y2="122.936"/>
		
			<line display="inline" fill="none" stroke="#999999" stroke-width="4" stroke-linecap="round" stroke-linejoin="round" stroke-miterlimit="10" x1="-33" y1="125.936" x2="-31" y2="125.936"/>
		
			<line display="inline" fill="none" stroke="#999999" stroke-width="4" stroke-linecap="round" stroke-linejoin="round" stroke-miterlimit="10" x1="-33" y1="128.936" x2="-31" y2="128.936"/>
		
			<line display="inline" fill="none" stroke="#999999" stroke-width="4" stroke-linecap="round" stroke-linejoin="round" stroke-miterlimit="10" x1="-20" y1="119.936" x2="-22" y2="119.936"/>
		
			<line display="inline" fill="none" stroke="#999999" stroke-width="4" stroke-linecap="round" stroke-linejoin="round" stroke-miterlimit="10" x1="-22" y1="122.936" x2="-20" y2="122.936"/>
		
			<line display="inline" fill="none" stroke="#999999" stroke-width="4" stroke-linecap="round" stroke-linejoin="round" stroke-miterlimit="10" x1="-22" y1="125.936" x2="-20" y2="125.936"/>
		
			<line display="inline" fill="none" stroke="#999999" stroke-width="4" stroke-linecap="round" stroke-linejoin="round" stroke-miterlimit="10" x1="-22" y1="128.936" x2="-20" y2="128.936"/>
		
			<line display="inline" fill="none" stroke="#999999" stroke-width="4" stroke-linecap="round" stroke-linejoin="round" stroke-miterlimit="10" x1="-11" y1="119.936" x2="-9" y2="119.936"/>
		
			<line display="inline" fill="none" stroke="#999999" stroke-width="4" stroke-linecap="round" stroke-linejoin="round" stroke-miterlimit="10" x1="-11" y1="122.936" x2="-9" y2="122.936"/>
		
			<line display="inline" fill="none" stroke="#999999" stroke-width="4" stroke-linecap="round" stroke-linejoin="round" stroke-miterlimit="10" x1="-11" y1="125.936" x2="-9" y2="125.936"/>
		
			<line display="inline" fill="none" stroke="#999999" stroke-width="4" stroke-linecap="round" stroke-linejoin="round" stroke-miterlimit="10" x1="-11" y1="128.936" x2="-9" y2="128.936"/>
		
			<polyline display="inline" fill="#C69C6D" stroke="#8C6239" stroke-width="2" stroke-linecap="round" stroke-linejoin="round" stroke-miterlimit="10" points="
			10,181.936 10,182.315 10,160.936 33,160.936 33,182.936 		"/>
		
			<polyline display="inline" fill="none" stroke="#999999" stroke-width="2" stroke-linecap="round" stroke-linejoin="round" stroke-miterlimit="10" points="
			-48,180.936 -48,154.936 -68,154.936 -68,182.936 52.245,182.936 -67.577,182.936 -82,182.936 -82,169.936 52,169.936 52,181.936 
					"/>
		
			<line display="inline" fill="none" stroke="#999999" stroke-width="2" stroke-linecap="round" stroke-linejoin="round" stroke-miterlimit="10" x1="-58" y1="181.936" x2="-58" y2="153.936"/>
		
			<path display="inline" fill="#FFFFFF" stroke="#999999" stroke-width="6" stroke-linecap="round" stroke-linejoin="round" stroke-miterlimit="10" d="
			M-46.965,182.225"/>
		
			<polyline display="inline" fill="#FFFFFF" stroke="#999999" stroke-width="2" stroke-linecap="round" stroke-linejoin="round" stroke-miterlimit="10" points="
			-47,154.936 -37,154.936 -37,181.936 		"/>
		
			<line display="inline" fill="none" stroke="#999999" stroke-width="4" stroke-linecap="round" stroke-linejoin="round" stroke-miterlimit="10" x1="-67" y1="162.936" x2="-67" y2="156.936"/>
		
			<line display="inline" fill="none" stroke="#999999" stroke-width="4" stroke-linecap="round" stroke-linejoin="round" stroke-miterlimit="10" x1="-57" y1="162.936" x2="-57" y2="156.936"/>
		
			<line display="inline" fill="none" stroke="#999999" stroke-width="4" stroke-linecap="round" stroke-linejoin="round" stroke-miterlimit="10" x1="-76" y1="162.936" x2="-76" y2="156.936"/>
		
			<line display="inline" fill="none" stroke="#999999" stroke-width="4" stroke-linecap="round" stroke-linejoin="round" stroke-miterlimit="10" x1="-47" y1="162.936" x2="-47" y2="156.936"/>
		
			<polyline display="inline" fill="none" stroke="#999999" stroke-width="2" stroke-linecap="round" stroke-linejoin="round" stroke-miterlimit="10" points="
			40,181.936 40,133.936 32.026,133.936 50,133.936 		"/>
		
			<line display="inline" fill="none" stroke="#999999" stroke-width="6" stroke-linecap="round" stroke-linejoin="round" stroke-miterlimit="10" x1="41" y1="132.936" x2="41" y2="122.936"/>
		
			<line display="inline" fill="none" stroke="#999999" stroke-width="6" stroke-linecap="round" stroke-linejoin="round" stroke-miterlimit="10" x1="41" y1="138.936" x2="41" y2="141.936"/>
		
			<line display="inline" fill="none" stroke="#999999" stroke-width="4" stroke-linecap="round" stroke-linejoin="round" stroke-miterlimit="10" x1="-36" y1="162.936" x2="-36" y2="156.936"/>
		
			<polyline display="inline" fill="none" stroke="#999999" stroke-width="2" stroke-linecap="round" stroke-linejoin="round" stroke-miterlimit="10" points="
			-67,154.936 -77,154.936 -77,180.936 		"/>
		
			<polyline display="inline" fill="none" stroke="#999999" stroke-width="2" stroke-linecap="round" stroke-linejoin="round" stroke-miterlimit="10" points="
			50,169.936 -31.64,169.936 52,169.936 52,182.936 -81,182.936 		"/>
		
			<path display="inline" fill="none" stroke="#666666" stroke-width="2" stroke-linecap="round" stroke-linejoin="round" stroke-miterlimit="10" d="
			M41.06,123.291c0,0-33.982,5.162-50.761-3.871"/>
		
			<path display="inline" fill="none" stroke="#999999" stroke-width="2" stroke-linecap="round" stroke-linejoin="round" stroke-miterlimit="10" d="
			M-11.852,119.42c0,0-1.08,3.238-8.175,0.829c-0.662-0.226-1.377-0.499-2.148-0.829c0,0-4.303,4.73-9.465,0"/>
		
			<path display="inline" fill="none" stroke="#999999" stroke-width="2" stroke-linecap="round" stroke-linejoin="round" stroke-miterlimit="10" d="
			M-33.791,119.42c0,0-3.441,5.592-8.604,0"/>
		
			<path display="inline" fill="none" stroke="#666666" stroke-width="2" stroke-linecap="round" stroke-linejoin="round" stroke-miterlimit="10" d="
			M40.63,128.023c0,0-45.169,5.592-51.621-6.453"/>
		
			<path display="inline" fill="none" stroke="#999999" stroke-width="2" stroke-linecap="round" stroke-linejoin="round" stroke-miterlimit="10" d="
			M-44.545,119.42c0,0-4.732,5.162-7.743,0"/>
		
			<path display="inline" fill="none" stroke="#999999" stroke-width="2" stroke-linecap="round" stroke-linejoin="round" stroke-miterlimit="10" d="
			M-76.023,157.595c0,0,34.255,1.561,38.455-0.16c4.201-1.721-0.393,4.007-0.393,4.007L-77,160.286v3.648h40"/>
		
			<polygon display="inline" fill="none" stroke="#333333" stroke-width="2" stroke-linecap="round" stroke-linejoin="round" stroke-miterlimit="10" points="
			-82,168.936 -76.378,168.936 52,168.936 52,182.936 -82,182.936 		"/>
		
			<line display="inline" fill="none" stroke="#333333" stroke-width="2" stroke-linecap="round" stroke-linejoin="round" stroke-miterlimit="10" x1="-77" y1="181.936" x2="-77" y2="168.936"/>
		
			<line display="inline" fill="none" stroke="#333333" stroke-width="2" stroke-linecap="round" stroke-linejoin="round" stroke-miterlimit="10" x1="-72" y1="181.936" x2="-72" y2="168.936"/>
		
			<line display="inline" fill="none" stroke="#333333" stroke-width="2" stroke-linecap="round" stroke-linejoin="round" stroke-miterlimit="10" x1="-67" y1="181.936" x2="-67" y2="168.936"/>
		
			<line display="inline" fill="none" stroke="#333333" stroke-width="2" stroke-linecap="round" stroke-linejoin="round" stroke-miterlimit="10" x1="-62" y1="181.936" x2="-62" y2="168.936"/>
		
			<line display="inline" fill="none" stroke="#333333" stroke-width="2" stroke-linecap="round" stroke-linejoin="round" stroke-miterlimit="10" x1="-19" y1="181.936" x2="-19" y2="168.936"/>
		
			<line display="inline" fill="none" stroke="#333333" stroke-width="2" stroke-linecap="round" stroke-linejoin="round" stroke-miterlimit="10" x1="-14" y1="181.936" x2="-14" y2="168.936"/>
		
			<line display="inline" fill="none" stroke="#333333" stroke-width="2" stroke-linecap="round" stroke-linejoin="round" stroke-miterlimit="10" x1="-10" y1="181.936" x2="-10" y2="168.936"/>
		
			<line display="inline" fill="none" stroke="#333333" stroke-width="2" stroke-linecap="round" stroke-linejoin="round" stroke-miterlimit="10" x1="8" y1="181.936" x2="8" y2="168.936"/>
		
			<line display="inline" fill="none" stroke="#333333" stroke-width="2" stroke-linecap="round" stroke-linejoin="round" stroke-miterlimit="10" x1="12" y1="181.936" x2="12" y2="168.936"/>
		
			<line display="inline" fill="none" stroke="#333333" stroke-width="2" stroke-linecap="round" stroke-linejoin="round" stroke-miterlimit="10" x1="17" y1="181.936" x2="17" y2="168.936"/>
		
			<line display="inline" fill="none" stroke="#333333" stroke-width="2" stroke-linecap="round" stroke-linejoin="round" stroke-miterlimit="10" x1="22" y1="181.936" x2="22" y2="168.936"/>
		
			<line display="inline" fill="none" stroke="#333333" stroke-width="2" stroke-linecap="round" stroke-linejoin="round" stroke-miterlimit="10" x1="27" y1="181.936" x2="27" y2="168.936"/>
		
			<line display="inline" fill="none" stroke="#333333" stroke-width="2" stroke-linecap="round" stroke-linejoin="round" stroke-miterlimit="10" x1="32" y1="181.936" x2="32" y2="168.936"/>
		
			<line display="inline" fill="none" stroke="#333333" stroke-width="2" stroke-linecap="round" stroke-linejoin="round" stroke-miterlimit="10" x1="37" y1="181.936" x2="37" y2="168.936"/>
		
			<line display="inline" fill="none" stroke="#333333" stroke-width="2" stroke-linecap="round" stroke-linejoin="round" stroke-miterlimit="10" x1="43" y1="181.936" x2="43" y2="168.936"/>
		
			<line display="inline" fill="none" stroke="#333333" stroke-width="2" stroke-linecap="round" stroke-linejoin="round" stroke-miterlimit="10" x1="47" y1="181.936" x2="47" y2="168.936"/>
		
			<line display="inline" fill="none" stroke="#333333" stroke-width="2" stroke-linecap="round" stroke-linejoin="round" stroke-miterlimit="10" x1="-6" y1="181.936" x2="-6" y2="168.936"/>
		
			<line display="inline" fill="none" stroke="#333333" stroke-width="2" stroke-linecap="round" stroke-linejoin="round" stroke-miterlimit="10" x1="-1" y1="181.936" x2="-1" y2="168.936"/>
		
			<line display="inline" fill="none" stroke="#333333" stroke-width="2" stroke-linecap="round" stroke-linejoin="round" stroke-miterlimit="10" x1="3" y1="180.936" x2="3" y2="168.936"/>
		
			<line display="inline" fill="none" stroke="#333333" stroke-width="2" stroke-linecap="round" stroke-linejoin="round" stroke-miterlimit="10" x1="-58" y1="181.936" x2="-58" y2="168.936"/>
		
			<line display="inline" fill="none" stroke="#333333" stroke-width="2" stroke-linecap="round" stroke-linejoin="round" stroke-miterlimit="10" x1="-53" y1="181.936" x2="-53" y2="168.936"/>
		
			<line display="inline" fill="none" stroke="#333333" stroke-width="2" stroke-linecap="round" stroke-linejoin="round" stroke-miterlimit="10" x1="-48" y1="181.936" x2="-48" y2="168.936"/>
		
			<line display="inline" fill="none" stroke="#333333" stroke-width="2" stroke-linecap="round" stroke-linejoin="round" stroke-miterlimit="10" x1="-43" y1="181.936" x2="-43" y2="168.936"/>
		
			<line display="inline" fill="none" stroke="#333333" stroke-width="2" stroke-linecap="round" stroke-linejoin="round" stroke-miterlimit="10" x1="-37" y1="181.936" x2="-37" y2="168.936"/>
		
			<line display="inline" fill="none" stroke="#333333" stroke-width="2" stroke-linecap="round" stroke-linejoin="round" stroke-miterlimit="10" x1="-33" y1="181.936" x2="-33" y2="168.936"/>
		
			<line display="inline" fill="none" stroke="#333333" stroke-width="2" stroke-linecap="round" stroke-linejoin="round" stroke-miterlimit="10" x1="-28" y1="181.936" x2="-28" y2="168.936"/>
		
			<line display="inline" fill="none" stroke="#333333" stroke-width="2" stroke-linecap="round" stroke-linejoin="round" stroke-miterlimit="10" x1="-24" y1="181.936" x2="-24" y2="168.936"/>
		<rect id="_x3C_Slice_x3E__1_" x="-157" y="-15.064" display="inline" fill="none" width="216" height="200"/>
		<path display="inline" fill="none" stroke="#A67C52" stroke-miterlimit="10" d="M-82,183.436c2218,0,159,0,159,0"/>
		<line display="inline" fill="none" stroke="#706F6F" stroke-miterlimit="10" x1="939" y1="183.436" x2="1376" y2="183.436"/>
		<line display="inline" fill="none" stroke="#706F6F" stroke-miterlimit="10" x1="1327" y1="183.436" x2="1735" y2="183.436"/>
	</g>
	<g id="Layer_4">
		<path fill="none" stroke="#666666" stroke-width="3" stroke-linecap="round" stroke-linejoin="round" stroke-miterlimit="10" d="
			M241.5,10.936c0,0-37.5,117.5-241.455,126.712c0,0,156.955-38.68,213.455-103.712"/>
	</g>
	<g id="Layer_5">
		<path fill="none" stroke="#666666" stroke-width="3" stroke-linecap="round" stroke-linejoin="round" stroke-miterlimit="10" d="
			M270.5,33.936c0,0,195.5,38,382,0"/>
		<path fill="none" stroke="#666666" stroke-width="3" stroke-linecap="round" stroke-linejoin="round" stroke-miterlimit="10" d="
			M241.5,10.936c0,0,252.5,55,439,0"/>
	</g>
	<g id="Layer_6">
		<path fill="none" stroke="#666666" stroke-width="3" stroke-linecap="round" stroke-linejoin="round" stroke-miterlimit="10" d="
			M707,32.436c0,0,150,79.5,427,41.5"/>
		<path fill="none" stroke="#666666" stroke-width="3" stroke-linecap="round" stroke-linejoin="round" stroke-miterlimit="10" d="
			M680.5,10.936c0,0,227.5,85,451.5,52"/>
	</g>
	<g id="Layer_7">
		<path fill="none" stroke="#666666" stroke-linecap="round" stroke-linejoin="round" stroke-miterlimit="10" d="M1156,60.936
			c0,0,156.155,62.131,310.577,21.631"/>
		<path fill="none" stroke="#666666" stroke-linecap="round" stroke-linejoin="round" stroke-miterlimit="10" d="M1155,71.936
			c0,0,122.786,60.378,307.894,21.457"/>
	</g>
	<g id="Layer_8">
		
			<polyline fill="none" stroke="#666666" stroke-width="4" stroke-linecap="round" stroke-linejoin="round" stroke-miterlimit="10" points="
			1456.577,83.963 1457,208.936 1648.75,208.936 1649.007,179.436 		"/>
		<polyline fill="none" stroke="#666666" stroke-width="2" stroke-linejoin="round" stroke-miterlimit="10" points="1148,264.936 
			1654,265.584 1654,181.936 		"/>
		
			<polyline fill="none" stroke="#666666" stroke-width="5" stroke-linecap="square" stroke-linejoin="round" stroke-miterlimit="10" points="
			2.5,182.936 2.5,266.436 730.302,266.436 1148,266.436 		"/>
		
			<rect x="1107" y="246.936" fill="#CCCCCC" stroke="#666666" stroke-width="2" stroke-linecap="round" stroke-linejoin="round" stroke-miterlimit="10" width="75" height="39"/>
		<path fill="none" stroke="#666666" stroke-linecap="round" stroke-linejoin="round" stroke-miterlimit="10" d="M264,181.436"/>
	</g>
	<g id="Layer_1_1_">
		
			<line fill="none" stroke="#706F6F" stroke-width="4" stroke-linecap="round" stroke-linejoin="round" stroke-miterlimit="10" x1="242" y1="28.903" x2="226.195" y2="17.469"/>
		<line fill="none" stroke="#706F6F" stroke-width="7" stroke-miterlimit="10" x1="241.5" y1="182.936" x2="241.5" y2="28.936"/>
		
			<line fill="none" stroke="#706F6F" stroke-width="4" stroke-linecap="round" stroke-linejoin="round" stroke-miterlimit="10" x1="258.478" y1="17.469" x2="242" y2="28.903"/>
		
			<line fill="none" stroke="#706F6F" stroke-width="4" stroke-linecap="round" stroke-linejoin="round" stroke-miterlimit="10" x1="241.328" y1="2" x2="213.417" y2="25.875"/>
		
			<line fill="none" stroke="#706F6F" stroke-width="4" stroke-linecap="round" stroke-linejoin="round" stroke-miterlimit="10" x1="241.664" y1="2" x2="270.248" y2="25.875"/>
		
			<line fill="none" stroke="#706F6F" stroke-linecap="round" stroke-linejoin="round" stroke-miterlimit="10" x1="213.5" y1="24.936" x2="213.5" y2="33.936"/>
		
			<line fill="none" stroke="#706F6F" stroke-linecap="round" stroke-linejoin="round" stroke-miterlimit="10" x1="211" y1="30.436" x2="216" y2="30.436"/>
		
			<line fill="none" stroke="#706F6F" stroke-linecap="round" stroke-linejoin="round" stroke-miterlimit="10" x1="211" y1="34.436" x2="216" y2="34.436"/>
		
			<line fill="none" stroke="#706F6F" stroke-linecap="round" stroke-linejoin="round" stroke-miterlimit="10" x1="211" y1="32.436" x2="216" y2="32.436"/>
		
			<line fill="none" stroke="#706F6F" stroke-linecap="round" stroke-linejoin="round" stroke-miterlimit="10" x1="270.5" y1="24.936" x2="270.5" y2="33.936"/>
		
			<line fill="none" stroke="#706F6F" stroke-linecap="round" stroke-linejoin="round" stroke-miterlimit="10" x1="268" y1="30.436" x2="273" y2="30.436"/>
		
			<line fill="none" stroke="#706F6F" stroke-linecap="round" stroke-linejoin="round" stroke-miterlimit="10" x1="268" y1="34.436" x2="273" y2="34.436"/>
		
			<line fill="none" stroke="#706F6F" stroke-linecap="round" stroke-linejoin="round" stroke-miterlimit="10" x1="268" y1="32.436" x2="273" y2="32.436"/>
		
			<line fill="none" stroke="#706F6F" stroke-linecap="round" stroke-linejoin="round" stroke-miterlimit="10" x1="241.5" y1="2.936" x2="241.5" y2="10.936"/>
		
			<line fill="none" stroke="#706F6F" stroke-linecap="round" stroke-linejoin="round" stroke-miterlimit="10" x1="239" y1="7.436" x2="244" y2="7.436"/>
		
			<line fill="none" stroke="#706F6F" stroke-linecap="round" stroke-linejoin="round" stroke-miterlimit="10" x1="239" y1="11.436" x2="244" y2="11.436"/>
		
			<line fill="none" stroke="#706F6F" stroke-linecap="round" stroke-linejoin="round" stroke-miterlimit="10" x1="239" y1="9.436" x2="244" y2="9.436"/>
		
			<line fill="none" stroke="#706F6F" stroke-width="4" stroke-linecap="round" stroke-linejoin="round" stroke-miterlimit="10" x1="681" y1="28.903" x2="665.195" y2="17.469"/>
		<line fill="none" stroke="#706F6F" stroke-width="7" stroke-miterlimit="10" x1="680.5" y1="182.936" x2="680.5" y2="28.936"/>
		
			<line fill="none" stroke="#706F6F" stroke-width="4" stroke-linecap="round" stroke-linejoin="round" stroke-miterlimit="10" x1="697.479" y1="17.469" x2="681" y2="28.903"/>
		
			<line fill="none" stroke="#706F6F" stroke-width="4" stroke-linecap="round" stroke-linejoin="round" stroke-miterlimit="10" x1="680.327" y1="2" x2="652.416" y2="25.875"/>
		
			<line fill="none" stroke="#706F6F" stroke-width="4" stroke-linecap="round" stroke-linejoin="round" stroke-miterlimit="10" x1="680.663" y1="2" x2="709.247" y2="25.875"/>
		
			<line fill="none" stroke="#706F6F" stroke-linecap="round" stroke-linejoin="round" stroke-miterlimit="10" x1="652.5" y1="24.936" x2="652.5" y2="33.936"/>
		
			<line fill="none" stroke="#706F6F" stroke-linecap="round" stroke-linejoin="round" stroke-miterlimit="10" x1="650" y1="30.436" x2="655" y2="30.436"/>
		
			<line fill="none" stroke="#706F6F" stroke-linecap="round" stroke-linejoin="round" stroke-miterlimit="10" x1="650" y1="34.436" x2="655" y2="34.436"/>
		
			<line fill="none" stroke="#706F6F" stroke-linecap="round" stroke-linejoin="round" stroke-miterlimit="10" x1="650" y1="32.436" x2="655" y2="32.436"/>
		
			<line fill="none" stroke="#706F6F" stroke-linecap="round" stroke-linejoin="round" stroke-miterlimit="10" x1="709.5" y1="24.936" x2="709.5" y2="33.936"/>
		
			<line fill="none" stroke="#706F6F" stroke-linecap="round" stroke-linejoin="round" stroke-miterlimit="10" x1="707" y1="30.436" x2="712" y2="30.436"/>
		
			<line fill="none" stroke="#706F6F" stroke-linecap="round" stroke-linejoin="round" stroke-miterlimit="10" x1="707" y1="34.436" x2="712" y2="34.436"/>
		
			<line fill="none" stroke="#706F6F" stroke-linecap="round" stroke-linejoin="round" stroke-miterlimit="10" x1="707" y1="32.436" x2="712" y2="32.436"/>
		
			<line fill="none" stroke="#706F6F" stroke-linecap="round" stroke-linejoin="round" stroke-miterlimit="10" x1="680.5" y1="2.936" x2="680.5" y2="10.936"/>
		
			<line fill="none" stroke="#706F6F" stroke-linecap="round" stroke-linejoin="round" stroke-miterlimit="10" x1="678" y1="7.436" x2="683" y2="7.436"/>
		
			<line fill="none" stroke="#706F6F" stroke-linecap="round" stroke-linejoin="round" stroke-miterlimit="10" x1="678" y1="11.436" x2="683" y2="11.436"/>
		
			<line fill="none" stroke="#706F6F" stroke-linecap="round" stroke-linejoin="round" stroke-miterlimit="10" x1="678" y1="9.436" x2="683" y2="9.436"/>
	</g>
	<g id="Layer_3">
		<rect x="1141" y="53.936" fill="#CC6600" width="8" height="128"/>
		
			<line fill="none" stroke="#706F6F" stroke-width="4" stroke-linecap="round" stroke-linejoin="round" stroke-miterlimit="10" x1="1151" y1="56.936" x2="1151" y2="60.936"/>
		
			<line fill="none" stroke="#706F6F" stroke-width="4" stroke-linecap="round" stroke-linejoin="round" stroke-miterlimit="10" x1="1155" y1="55.936" x2="1155" y2="61.936"/>
		
			<line fill="none" stroke="#706F6F" stroke-width="4" stroke-linecap="round" stroke-linejoin="round" stroke-miterlimit="10" x1="1158" y1="56.936" x2="1158" y2="60.936"/>
		
			<line fill="none" stroke="#706F6F" stroke-width="4" stroke-linecap="round" stroke-linejoin="round" stroke-miterlimit="10" x1="1158" y1="59.936" x2="1148" y2="59.936"/>
		
			<line fill="none" stroke="#706F6F" stroke-width="3" stroke-linecap="round" stroke-linejoin="round" stroke-miterlimit="10" x1="1152.381" y1="87.371" x2="1153.317" y2="87.416"/>
		
			<line fill="none" stroke="#706F6F" stroke-width="3" stroke-linecap="round" stroke-linejoin="round" stroke-miterlimit="10" x1="1152.102" y1="85.9" x2="1153.855" y2="85.985"/>
		
			<line fill="none" stroke="#706F6F" stroke-width="3" stroke-linecap="round" stroke-linejoin="round" stroke-miterlimit="10" x1="1152.521" y1="84.464" x2="1153.573" y2="84.516"/>
		
			<line fill="none" stroke="#706F6F" stroke-width="3" stroke-linecap="round" stroke-linejoin="round" stroke-miterlimit="10" x1="1153.107" y1="84.492" x2="1152.865" y2="89.475"/>
		
			<line fill="none" stroke="#706F6F" stroke-width="3" stroke-linecap="round" stroke-linejoin="round" stroke-miterlimit="10" x1="1157.652" y1="87.371" x2="1158.589" y2="87.416"/>
		
			<line fill="none" stroke="#706F6F" stroke-width="3" stroke-linecap="round" stroke-linejoin="round" stroke-miterlimit="10" x1="1157.373" y1="85.9" x2="1159.128" y2="85.985"/>
		
			<line fill="none" stroke="#706F6F" stroke-width="3" stroke-linecap="round" stroke-linejoin="round" stroke-miterlimit="10" x1="1157.795" y1="84.464" x2="1158.847" y2="84.516"/>
		
			<line fill="none" stroke="#706F6F" stroke-width="3" stroke-linecap="round" stroke-linejoin="round" stroke-miterlimit="10" x1="1158.379" y1="84.492" x2="1158.137" y2="89.475"/>
		
			<line fill="none" stroke="#706F6F" stroke-width="4" stroke-linecap="round" stroke-linejoin="round" stroke-miterlimit="10" x1="1151" y1="66.936" x2="1151" y2="70.936"/>
		
			<line fill="none" stroke="#706F6F" stroke-width="4" stroke-linecap="round" stroke-linejoin="round" stroke-miterlimit="10" x1="1155" y1="65.936" x2="1155" y2="71.936"/>
		
			<line fill="none" stroke="#706F6F" stroke-width="4" stroke-linecap="round" stroke-linejoin="round" stroke-miterlimit="10" x1="1158" y1="66.936" x2="1158" y2="70.936"/>
		
			<line fill="none" stroke="#706F6F" stroke-width="4" stroke-linecap="round" stroke-linejoin="round" stroke-miterlimit="10" x1="1158" y1="69.936" x2="1148" y2="69.936"/>
		
			<rect x="1148.5" y="90.436" fill="#CCCCCC" stroke="#CCCCCC" stroke-width="3" stroke-linecap="round" stroke-linejoin="round" stroke-miterlimit="10" width="11" height="16"/>
		
			<line fill="none" stroke="#999999" stroke-width="3" stroke-linecap="round" stroke-linejoin="round" stroke-miterlimit="10" x1="1159.5" y1="90.936" x2="1159.5" y2="105.936"/>
		
			<line fill="none" stroke="#999999" stroke-width="3" stroke-linecap="round" stroke-linejoin="round" stroke-miterlimit="10" x1="1156.5" y1="89.936" x2="1156.5" y2="105.936"/>
		
			<line fill="none" stroke="#706F6F" stroke-width="4" stroke-linecap="round" stroke-linejoin="round" stroke-miterlimit="10" x1="1137" y1="60.936" x2="1137" y2="62.936"/>
		
			<line fill="none" stroke="#706F6F" stroke-width="4" stroke-linecap="round" stroke-linejoin="round" stroke-miterlimit="10" x1="1134" y1="58.936" x2="1134" y2="64.936"/>
		
			<line fill="none" stroke="#706F6F" stroke-width="4" stroke-linecap="round" stroke-linejoin="round" stroke-miterlimit="10" x1="1132" y1="60.936" x2="1132" y2="63.936"/>
		
			<line fill="none" stroke="#706F6F" stroke-width="4" stroke-linecap="round" stroke-linejoin="round" stroke-miterlimit="10" x1="1141" y1="62.936" x2="1132" y2="62.936"/>
		
			<line fill="none" stroke="#706F6F" stroke-width="4" stroke-linecap="round" stroke-linejoin="round" stroke-miterlimit="10" x1="1137" y1="70.936" x2="1137" y2="71.936"/>
		
			<line fill="none" stroke="#706F6F" stroke-width="4" stroke-linecap="round" stroke-linejoin="round" stroke-miterlimit="10" x1="1134" y1="69.936" x2="1134" y2="73.936"/>
		
			<line fill="none" stroke="#706F6F" stroke-width="4" stroke-linecap="round" stroke-linejoin="round" stroke-miterlimit="10" x1="1132" y1="70.936" x2="1132" y2="72.936"/>
		
			<line fill="none" stroke="#706F6F" stroke-width="4" stroke-linecap="round" stroke-linejoin="round" stroke-miterlimit="10" x1="1132" y1="71.936" x2="1141" y2="71.936"/>
		<path fill="none" stroke="#706F6F" stroke-width="2" stroke-linecap="round" stroke-linejoin="round" stroke-miterlimit="10" d="
			M1136.635,62.58c0,0,7.906,3.954,15.813-3.954"/>
		<path fill="none" stroke="#706F6F" stroke-width="2" stroke-linecap="round" stroke-linejoin="round" stroke-miterlimit="10" d="
			M1136.635,73.387c0,0,7.906,2.9,15.813-2.9"/>
		<path fill="none" stroke="#706F6F" stroke-width="2" stroke-linecap="round" stroke-linejoin="round" stroke-miterlimit="10" d="
			M1152.448,86.391c0,0,1.978,0.089,3.954-0.087"/>
		<path fill="none" stroke="#706F6F" stroke-width="2" stroke-linecap="round" stroke-linejoin="round" stroke-miterlimit="10" d="
			M1152.448,70.487c0,0,0,15.817,3.954,15.817"/>
		<path fill="#A67C52" stroke="#A67C52" stroke-width="4" stroke-miterlimit="10" d="M1449.736,80.896"/>
		<path fill="#A67C52" stroke="#A67C52" stroke-width="4" stroke-miterlimit="10" d="M1449.736,168.564"/>
		<polygon fill="#A67C52" points="1449.736,81.963 1449.736,182.193 1456.577,182.193 1456.577,85.302 1456.577,81.963 		"/>
		
			<line fill="none" stroke="#706F6F" stroke-width="4" stroke-linecap="round" stroke-linejoin="round" stroke-miterlimit="10" x1="1462.894" y1="82.563" x2="1462.894" y2="85.77"/>
		
			<line fill="none" stroke="#706F6F" stroke-width="4" stroke-linecap="round" stroke-linejoin="round" stroke-miterlimit="10" x1="1466.577" y1="81.36" x2="1466.577" y2="87.374"/>
		
			<line fill="none" stroke="#706F6F" stroke-width="4" stroke-linecap="round" stroke-linejoin="round" stroke-miterlimit="10" x1="1470.263" y1="82.563" x2="1470.263" y2="86.171"/>
		
			<line fill="none" stroke="#706F6F" stroke-width="4" stroke-linecap="round" stroke-linejoin="round" stroke-miterlimit="10" x1="1470.263" y1="84.566" x2="1457.631" y2="83.567"/>
		
			<line fill="none" stroke="#706F6F" stroke-width="4" stroke-linecap="round" stroke-linejoin="round" stroke-miterlimit="10" x1="1462.894" y1="92.185" x2="1462.894" y2="95.393"/>
		
			<line fill="none" stroke="#706F6F" stroke-width="4" stroke-linecap="round" stroke-linejoin="round" stroke-miterlimit="10" x1="1466.577" y1="90.982" x2="1466.577" y2="96.996"/>
		
			<line fill="none" stroke="#706F6F" stroke-width="4" stroke-linecap="round" stroke-linejoin="round" stroke-miterlimit="10" x1="1470.263" y1="92.185" x2="1470.263" y2="95.793"/>
		
			<line fill="none" stroke="#706F6F" stroke-width="4" stroke-linecap="round" stroke-linejoin="round" stroke-miterlimit="10" x1="1470.263" y1="94.189" x2="1457.631" y2="93.189"/>
		
			<rect x="1643" y="136.936" fill="#FFFFFF" stroke="#CCCCCC" stroke-width="2" stroke-linecap="round" stroke-linejoin="round" stroke-miterlimit="10" width="21" height="46"/>
		
			<rect x="1645.5" y="138.436" fill="none" stroke="#CCCCCC" stroke-linecap="round" stroke-linejoin="round" stroke-miterlimit="10" width="16" height="27"/>
		
			<rect x="1645.5" y="168.436" fill="none" stroke="#CCCCCC" stroke-linecap="round" stroke-linejoin="round" stroke-miterlimit="10" width="16" height="13"/>
		
			<rect x="1645.5" y="147.436" fill="none" stroke="#CCCCCC" stroke-linecap="round" stroke-linejoin="round" stroke-miterlimit="10" width="1" height="4"/>
		
			<line fill="none" stroke="#CCCCCC" stroke-linecap="round" stroke-linejoin="round" stroke-miterlimit="10" x1="1646.5" y1="148.936" x2="1646.5" y2="149.936"/>
		
			<rect x="1645.5" y="172.436" fill="none" stroke="#CCCCCC" stroke-linecap="round" stroke-linejoin="round" stroke-miterlimit="10" width="1" height="4"/>
		
			<line fill="none" stroke="#CCCCCC" stroke-linecap="round" stroke-linejoin="round" stroke-miterlimit="10" x1="1646.5" y1="173.936" x2="1646.5" y2="174.936"/>
		<rect id="_x3C_Slice_x3E_" x="2" y="-0.064" fill="none" width="965" height="286"/>
		<rect id="_x3C_Slice_x3E__2_" x="967" y="-0.064" fill="none" width="698" height="287"/>
	</g>
	<rect id="_x3C_Slice_x3E__3_" x="-130" y="0.968" fill="none" width="1097" height="285"/>
	<rect id="_x3C_Slice_x3E__4_" x="967" y="-0.032" fill="none" width="697" height="288"/>
</g>
<g id="Layer_2_1_">
	<path fill="none" stroke="#666666" stroke-width="2" stroke-linejoin="round" stroke-miterlimit="10" d="M1658,182.968"/>
	
		<polyline fill="none" stroke="#666666" stroke-width="2" stroke-linecap="round" stroke-linejoin="round" stroke-miterlimit="10" points="
		1884,181.436 1884,208.936 1661,208.936 1661,182.968 	"/>
	
		<polyline fill="none" stroke="#666666" stroke-width="2" stroke-linecap="round" stroke-linejoin="round" stroke-miterlimit="10" points="
		1658,182.968 1658,246.968 2011,246.968 2011,181.436 	"/>
</g>
</svg>
