<?xml version="1.0" encoding="utf-8"?>
<!-- Generator: Adobe Illustrator 16.0.0, SVG Export Plug-In . SVG Version: 6.00 Build 0)  -->
<!DOCTYPE svg PUBLIC "-//W3C//DTD SVG 1.1//EN" "http://www.w3.org/Graphics/SVG/1.1/DTD/svg11.dtd">
<svg version="1.1" xmlns="http://www.w3.org/2000/svg" xmlns:xlink="http://www.w3.org/1999/xlink" x="0px" y="0px" width="840.5px"
	 height="277.271px" viewBox="0 -76.528 840.5 277.271" enable-background="new 0 -76.528 840.5 277.271" xml:space="preserve">
<g id="Layer_5">
	<linearGradient id="SVGID_1_" gradientUnits="userSpaceOnUse" x1="420.6101" y1="200.7432" x2="420.6101" y2="88.894">
		<stop  offset="0.1633" style="stop-color:#95C864;stop-opacity:0.5"/>
		<stop  offset="0.371" style="stop-color:#81B45A;stop-opacity:0.4504"/>
		<stop  offset="0.7933" style="stop-color:#4E8141;stop-opacity:0.3494"/>
		<stop  offset="1" style="stop-color:#336633;stop-opacity:0.3"/>
	</linearGradient>
	<path fill="url(#SVGID_1_)" d="M-0.33,95.5c0,0,74.902-33.393,173.879,49.973c0,0,108.207-34.687,276-1.454
		c0,0,103-48.519,215,4.104c0,0,69-24.622,177-9.052v61.673H-0.33V95.5z"/>
</g>
<g id="Layer_6">
	<linearGradient id="SVGID_2_" gradientUnits="userSpaceOnUse" x1="420.6091" y1="158.5234" x2="420.6091" y2="200.7432">
		<stop  offset="0.0816" style="stop-color:#95C864;stop-opacity:0.5"/>
		<stop  offset="0.3096" style="stop-color:#81B45A;stop-opacity:0.4504"/>
		<stop  offset="0.7731" style="stop-color:#4E8141;stop-opacity:0.3494"/>
		<stop  offset="1" style="stop-color:#336633;stop-opacity:0.3"/>
	</linearGradient>
	<path fill="url(#SVGID_2_)" d="M0,167.68c0,0,122.646-15.737,234.5,13.82c0,0,77-38.37,163-6c0,0,84-44.18,239,10
		c0,0,108-22,204-9.716l0.719,24.159L0,200.743V167.68z"/>
</g>
</svg>
