<?xml version="1.0" encoding="utf-8"?>
<!-- Generator: Adobe Illustrator 16.0.0, SVG Export Plug-In . SVG Version: 6.00 Build 0)  -->
<!DOCTYPE svg PUBLIC "-//W3C//DTD SVG 1.1//EN" "http://www.w3.org/Graphics/SVG/1.1/DTD/svg11.dtd">
<svg version="1.1" xmlns="http://www.w3.org/2000/svg" xmlns:xlink="http://www.w3.org/1999/xlink" x="0px" y="0px"
	 width="63.131px" height="110.028px" viewBox="0 0 63.131 110.028" enable-background="new 0 0 63.131 110.028"
	 xml:space="preserve">
<g id="Layer_2">
	
		<path fill-rule="evenodd" clip-rule="evenodd" fill="#FFFFFF" stroke="#005EB8" stroke-width="6" stroke-linecap="square" stroke-miterlimit="10" d="
		M58.176-7.634c6.333,1,6.5,3.498,6.5,3.498l0.166,11.502c0,0,1.834,0,4.834,0s4.333,4,4.333,4s0,102,0,107s-4,5-4,5
		s-67.667,0-73.333,0s-5.333-2.834-5.333-2.834s0.166-98.494,0-106.5C-8.806,6.87,0.009,7.366,0.009,7.366s0-6,0-10.333
		s8.667-4.667,8.667-4.667H58.176z"/>
</g>
<g id="Layer_1">
	<path fill="none" stroke="#00A3E0" stroke-width="4" stroke-miterlimit="10" d="M15.363,43.992
		c-1.039,0.699-6.546,0.795-10.798-0.021c-2.571-0.494-2.558-6.878-2.558-6.878c0-1.688-0.169-5.351,1.137-6.457
		c1.307-1.106,9.642-0.958,10.852-0.183c1.743,1.116,4.142,2.223,3.513,6.849C16.859,39.388,16.642,43.132,15.363,43.992z"/>
	<path fill="none" stroke="#00A3E0" stroke-width="4" stroke-miterlimit="10" d="M38.363,43.992
		c-1.039,0.699-6.354,0.331-6.354,0.331c-7.728-0.564-0.191,0.464-4.443-0.353c-2.571-0.494-2.728-12.229-1.422-13.334
		c1.237-1.048,10.405-0.349,11.615,0.425c1.743,1.116,2.713,1.758,2.084,6.385C39.192,39.532,39.642,43.132,38.363,43.992z"/>
	<path fill="none" stroke="#00A3E0" stroke-width="4" stroke-miterlimit="10" d="M59.363,43.992
		c-1.039,0.699-6.546,0.795-10.798-0.021c-2.571-0.494-2.559-6.878-2.559-6.878c0-1.688-0.169-5.351,1.137-6.457
		c1.307-1.106,11.965-0.43,13.175,0.344C62.062,32.096,60.642,43.132,59.363,43.992z"/>
	<path fill="none" stroke="#00A3E0" stroke-width="4" stroke-miterlimit="10" d="M47.768,65.154
		c1.039,0.699,6.546,0.795,10.798-0.021c2.571-0.494,2.559-6.878,2.559-6.878c0-1.688,0.169-5.351-1.137-6.457
		c-1.307-1.106-9.643-0.958-10.853-0.183c-1.743,1.116-4.142,2.223-3.513,6.849C46.271,60.551,46.489,64.294,47.768,65.154z"/>
	<path fill="none" stroke="#00A3E0" stroke-width="4" stroke-miterlimit="10" d="M25.768,65.154
		c1.039,0.699,6.354,0.331,6.354,0.331c7.729-0.564,0.191,0.464,4.443-0.353c2.571-0.494,2.728-12.229,1.422-13.334
		c-1.237-1.048-10.405-0.349-11.615,0.425c-1.743,1.116-2.713,1.758-2.084,6.385C24.938,60.695,24.489,64.294,25.768,65.154z"/>
	<path fill="none" stroke="#00A3E0" stroke-width="4" stroke-miterlimit="10" d="M3.768,65.154
		c1.039,0.699,6.546,0.795,10.798-0.021c2.571-0.494,2.559-6.878,2.559-6.878c0-1.688,0.169-5.351-1.137-6.457
		c-1.307-1.106-11.965-0.43-13.175,0.344C1.069,53.258,2.489,64.294,3.768,65.154z"/>
	<path fill="none" stroke="#00A3E0" stroke-width="4" stroke-miterlimit="10" d="M15.363,71.875
		c-1.039-0.698-6.546-0.795-10.798,0.021c-2.571,0.494-2.558,6.878-2.558,6.878c0,1.688-0.169,5.351,1.137,6.457
		c1.307,1.106,9.642,0.958,10.852,0.183c1.743-1.115,4.142-2.222,3.513-6.849C16.859,76.479,16.642,72.735,15.363,71.875z"/>
	<path fill="none" stroke="#00A3E0" stroke-width="4" stroke-miterlimit="10" d="M37.363,71.875
		c-1.039-0.698-6.354-0.331-6.354-0.331c-7.728,0.564-0.191-0.464-4.443,0.353c-2.571,0.494-2.728,12.229-1.422,13.334
		c1.237,1.048,10.405,0.35,11.615-0.425c1.743-1.115,2.713-1.758,2.084-6.385C38.192,76.334,38.642,72.735,37.363,71.875z"/>
	<path fill="none" stroke="#00A3E0" stroke-width="4" stroke-miterlimit="10" d="M59.363,71.875
		c-1.039-0.698-6.546-0.795-10.798,0.021c-2.571,0.494-2.559,6.878-2.559,6.878c0,1.688-0.169,5.351,1.137,6.457
		c1.307,1.106,11.965,0.431,13.175-0.344C62.062,83.771,60.642,72.735,59.363,71.875z"/>
	<path fill="none" stroke="#00A3E0" stroke-width="4" stroke-miterlimit="10" d="M15.363,93.875
		c-1.039-0.698-6.546-0.795-10.798,0.021c-2.571,0.494-2.558,6.877-2.558,6.877c0,1.688-0.169,5.352,1.137,6.457
		c1.307,1.106,9.642,0.958,10.852,0.184c1.743-1.115,2.642,0.328,2.013-4.299C15.359,101.03,16.642,94.735,15.363,93.875z"/>
	<path fill="none" stroke="#00A3E0" stroke-width="4" stroke-miterlimit="10" d="M36.165,93.712
		c-1.023-0.707-6.258-0.335-6.258-0.335c-7.61,0.571-0.188-0.469-4.375,0.356c-2.532,0.5-1.191,11.959,0.094,13.079
		c1.219,1.06,8.752,0.767,9.943-0.019c1.717-1.128,2.672-1.778,2.053-6.459C36.981,98.224,37.424,94.583,36.165,93.712z"/>
	<path fill="none" stroke="#00A3E0" stroke-width="4" stroke-miterlimit="10" d="M59.363,93.875
		c-1.039-0.698-6.546-0.795-10.798,0.021c-2.571,0.494-2.728,12.229-1.422,13.334c1.307,1.106,11.965,0.431,13.175-0.344
		C62.062,105.771,60.642,94.735,59.363,93.875z"/>
	<path fill-rule="evenodd" clip-rule="evenodd" fill="#D2D708" d="M40.184,0c0.044,0.026,0.087,0.047,0.127,0.077
		c0.101,0.074,0.138,0.174,0.138,0.298c0,1.968,0,3.936,0,5.903c0,1.009,0,2.019,0,3.027c0,0.779-0.268,1.461-0.772,2.045
		c-0.63,0.726-1.438,1.121-2.387,1.23c-0.139,0.016-0.275,0.02-0.414,0.019c-0.831,0-1.661,0.023-2.49-0.008
		c-1.527-0.057-2.876-1.067-3.262-2.493c-0.068-0.251-0.105-0.509-0.107-0.769c-0.003-0.489-0.013-0.979,0.005-1.467
		c0.047-1.184,0.62-2.063,1.609-2.683c0.589-0.371,1.244-0.543,1.94-0.543c1.275,0,2.552-0.001,3.827,0.002
		c0.11,0,0.129-0.033,0.129-0.134c-0.004-1.35,0.001-2.7-0.005-4.05C38.52,0.228,38.595,0.077,38.807,0C39.267,0,39.726,0,40.184,0z
		 M36.48,6.403c-0.618,0-1.234,0-1.852,0c-0.164,0-0.324,0.018-0.481,0.059C33.446,6.646,32.921,7.251,32.941,8
		c0.01,0.432,0.001,0.864,0.003,1.296c0,0.28,0.073,0.541,0.228,0.775c0.334,0.507,0.822,0.75,1.419,0.758
		c0.755,0.01,1.512,0.002,2.268,0.001c0.261,0,0.512-0.046,0.745-0.16c0.555-0.272,0.904-0.703,0.916-1.334
		c0.017-0.944,0.003-1.89,0.007-2.835c0-0.079-0.021-0.1-0.101-0.1C37.777,6.404,37.129,6.403,36.48,6.403z"/>
	<path fill-rule="evenodd" clip-rule="evenodd" fill="#005EB8" d="M14.223,6.663c0.035-0.013,0.021-0.046,0.026-0.069
		C14.437,5.682,15,5.101,15.852,4.781c0.281-0.104,0.575-0.147,0.873-0.147c1.955,0,3.908,0,5.862,0
		c0.301,0,0.435,0.131,0.435,0.429c0,0.3,0,0.601,0,0.901s-0.138,0.435-0.441,0.435c-0.9,0-1.802,0-2.704,0
		c-1.039,0-2.079,0-3.118,0c-0.374,0-0.622,0.246-0.622,0.618c0,0.2,0.004,0.398-0.003,0.598c-0.002,0.083,0.026,0.099,0.104,0.099
		c1.257-0.002,2.51,0,3.767-0.002c0.112,0,0.214,0.019,0.301,0.094c0.077,0.069,0.117,0.153,0.117,0.258
		c-0.003,0.345,0,0.689-0.002,1.033c0,0.214-0.127,0.356-0.341,0.377c-0.04,0.004-0.082,0.004-0.122,0.004
		c-1.236,0-2.477,0-3.715-0.002c-0.082,0-0.11,0.016-0.108,0.103c0.007,0.223,0.003,0.446,0.003,0.668
		c0,0.314,0.237,0.566,0.552,0.587c0.044,0.003,0.087,0.003,0.131,0.003c1.925,0,3.847,0,5.771,0c0.298,0,0.432,0.134,0.432,0.432
		c0,0.311,0,0.622,0,0.932c0,0.258-0.143,0.398-0.401,0.398c-1.982,0-3.964,0.001-5.944-0.001c-1.031-0.001-1.974-0.643-2.324-1.575
		c-0.059-0.153-0.075-0.318-0.129-0.473C14.223,9.255,14.223,7.959,14.223,6.663z"/>
	<path fill-rule="evenodd" clip-rule="evenodd" fill="#D2D708" d="M47.932,4.635c0.882,0,1.768,0.001,2.651,0
		c0.126-0.001,0.232,0.032,0.318,0.127c0.052,0.059,0.078,0.129,0.078,0.212c-0.003,0.358,0,0.715,0,1.073
		c0,0.195-0.134,0.339-0.327,0.354c-0.037,0.003-0.075,0.002-0.112,0.002c-1.685,0-3.367,0-5.052,0
		c-0.709,0-1.335,0.416-1.569,1.041c-0.057,0.153-0.085,0.311-0.085,0.475c-0.002,1.427-0.004,2.855-0.004,4.283
		c0,0.247-0.127,0.392-0.371,0.397c-0.4,0.008-0.804,0.007-1.206-0.001c-0.213-0.004-0.348-0.155-0.348-0.366
		c0-1.461-0.007-2.924,0.003-4.385c0.007-0.758,0.291-1.421,0.792-1.986c0.634-0.716,1.438-1.105,2.387-1.208
		c0.131-0.014,0.261-0.019,0.395-0.019C46.297,4.634,47.114,4.635,47.932,4.635z"/>
	<path fill-rule="evenodd" clip-rule="evenodd" fill="#D2D708" d="M24.512,10.006c0-0.718-0.012-1.438,0.004-2.156
		c0.017-0.83,0.341-1.541,0.922-2.127c0.719-0.727,1.6-1.078,2.617-1.087c0.759-0.007,1.518-0.001,2.277-0.001
		c0.272,0,0.413,0.139,0.413,0.409c0,0.321,0,0.642,0,0.962c0,0.25-0.144,0.397-0.395,0.397c-0.754,0-1.506-0.003-2.259,0.001
		c-0.444,0.002-0.841,0.145-1.17,0.45c-0.319,0.298-0.485,0.665-0.485,1.105c0,1.404-0.003,2.808,0.004,4.211
		c0.002,0.27-0.144,0.432-0.404,0.435c-0.395,0.003-0.789,0.016-1.184-0.008c-0.212-0.012-0.341-0.159-0.343-0.374
		c-0.001-0.74,0-1.478,0-2.218C24.512,10.006,24.512,10.006,24.512,10.006z"/>
	<path fill-rule="evenodd" clip-rule="evenodd" fill="#005EB8" d="M46.858,8.404c0.599,0,1.2,0,1.8,0
		c0.264,0,0.406,0.142,0.406,0.405c0,0.324,0,0.647,0,0.971c0,0.245-0.143,0.395-0.388,0.395c-1.213,0.001-2.427,0.001-3.644,0
		c-0.243,0-0.383-0.147-0.383-0.396c0-0.33,0-0.66,0-0.991c0.002-0.236,0.147-0.384,0.387-0.384
		C45.642,8.404,46.25,8.404,46.858,8.404z"/>
</g>
</svg>
