<?xml version="1.0" encoding="utf-8"?>
<!-- Generator: Adobe Illustrator 16.0.0, SVG Export Plug-In . SVG Version: 6.00 Build 0)  -->
<!DOCTYPE svg PUBLIC "-//W3C//DTD SVG 1.1//EN" "http://www.w3.org/Graphics/SVG/1.1/DTD/svg11.dtd">
<svg version="1.1" id="Layer_1" xmlns="http://www.w3.org/2000/svg" xmlns:xlink="http://www.w3.org/1999/xlink" x="0px" y="0px"
	 width="88.67px" height="137px" viewBox="0 0 88.67 137" enable-background="new 0 0 88.67 137" xml:space="preserve">
<g id="Layer_2">
</g>
<g id="Layer_1_1_">
	<g id="XMLID_2_">
		<g>
			<path fill="#FFFFFF" d="M78.672,120.25V107h-12.61v13.25H78.672z M78.672,101.5V88.25h-12.61v13.25H78.672z M78.353,83.25V70
				H65.743v13.25H78.353z M78.032,65V51.75h-12.61V65H78.032z M63.642,28.68c0-0.36,0-0.71,0-1.07c0-0.09-0.029-0.16-0.08-0.21
				c-0.08-0.1-0.188-0.13-0.318-0.13c-0.881,0-1.771,0-2.65,0c-0.811,0-1.63,0-2.449,0c-0.131,0-0.261,0-0.391,0.02
				c-0.95,0.1-1.75,0.49-2.391,1.21c-0.5,0.56-0.779,1.22-0.789,1.98c-0.012,1.46,0,2.92,0,4.39c0,0.21,0.13,0.36,0.34,0.36
				c0.41,0.01,0.811,0.01,1.21,0c0.239,0,0.37-0.15,0.37-0.39c0-1.43,0-2.86,0.01-4.29c0-0.16,0.02-0.32,0.08-0.47
				c0.229-0.63,0.859-1.04,1.57-1.04c1.68,0,3.369,0,5.05,0c0.04,0,0.079,0,0.108-0.01C63.512,29.02,63.642,28.88,63.642,28.68z
				 M61.731,32.41c0-0.32,0-0.64,0-0.97c0-0.26-0.148-0.4-0.408-0.4c-0.602,0-1.2,0-1.801,0c-0.609,0-1.221,0-1.819,0
				c-0.24,0-0.392,0.15-0.392,0.38c0,0.33,0,0.66,0,0.99c0,0.25,0.142,0.4,0.381,0.4c1.221,0,2.439,0,3.649,0
				C61.583,32.81,61.731,32.66,61.731,32.41z M53.112,31.94c0-1.01,0-2.02,0-3.03c0-1.97,0-3.93,0-5.9c0-0.13-0.039-0.23-0.141-0.3
				c-0.039-0.03-0.08-0.05-0.13-0.08c-0.45,0-0.909,0-1.37,0c-0.21,0.08-0.289,0.23-0.289,0.46c0.01,1.35,0,2.7,0.01,4.05
				c0,0.1-0.021,0.13-0.131,0.13c-1.279,0-2.55,0-3.83,0c-0.688,0-1.35,0.17-1.938,0.54c-0.99,0.62-1.562,1.5-1.61,2.69
				c-0.02,0.48-0.01,0.97,0,1.46c0,0.26,0.041,0.52,0.102,0.77c0.39,1.43,1.738,2.44,3.27,2.49c0.83,0.04,1.66,0.01,2.49,0.01
				c0.13,0,0.27,0,0.41-0.02c0.949-0.11,1.76-0.5,2.39-1.23C52.842,33.4,53.112,32.72,53.112,31.94z M60.612,120.25V107h-12.61
				v13.25H60.612z M60.612,101.5V88.25h-12.61v13.25H60.612z M60.293,83.25V70h-12.61v13.25H60.293z M59.972,65V51.75H47.362V65
				H59.972z M43.413,28.64c0-0.32,0-0.64,0-0.96c0-0.27-0.141-0.41-0.42-0.41c-0.762,0-1.521-0.01-2.271,0
				c-1.02,0.01-1.9,0.36-2.619,1.09c-0.58,0.58-0.91,1.29-0.92,2.12c-0.021,0.72-0.011,1.44-0.011,2.16c0,0.74,0,1.48,0,2.22
				c0,0.21,0.13,0.36,0.341,0.37c0.399,0.03,0.789,0.01,1.189,0.01c0.26,0,0.4-0.16,0.4-0.43c-0.011-1.41,0-2.81,0-4.22
				c0-0.44,0.16-0.8,0.479-1.1c0.33-0.31,0.729-0.45,1.17-0.45c0.76-0.01,1.51,0,2.26,0C43.262,29.04,43.413,28.89,43.413,28.64z
				 M35.683,34.84c0-0.31,0-0.63,0-0.94c0-0.29-0.131-0.43-0.431-0.43c-1.92,0-3.851,0-5.771,0c-0.039,0-0.09,0-0.129,0
				c-0.32-0.02-0.551-0.28-0.551-0.59c0-0.22,0-0.44-0.01-0.67c0-0.08,0.029-0.1,0.109-0.1c1.24,0,2.48,0,3.721,0
				c0.04,0,0.08,0,0.12,0c0.21-0.02,0.34-0.17,0.34-0.38c0-0.34,0-0.69,0-1.03c0-0.11-0.04-0.19-0.12-0.26
				c-0.08-0.08-0.18-0.09-0.3-0.09c-1.25,0-2.511,0-3.761,0c-0.08,0-0.109-0.02-0.109-0.1c0.01-0.2,0.01-0.4,0.01-0.6
				c0-0.37,0.25-0.62,0.62-0.62c1.04,0,2.08,0,3.12,0c0.9,0,1.8,0,2.7,0c0.31,0,0.44-0.13,0.44-0.43c0-0.3,0-0.6,0-0.9
				c0-0.3-0.131-0.43-0.431-0.43c-1.96,0-3.91,0-5.86,0c-0.3,0-0.6,0.04-0.88,0.15c-0.85,0.32-1.409,0.9-1.6,1.81
				c0,0.02,0.01,0.05-0.03,0.07c0,1.29,0,2.59,0,3.89c0.061,0.15,0.07,0.31,0.13,0.47c0.351,0.93,1.3,1.57,2.33,1.57
				c1.979,0.01,3.96,0,5.94,0C35.543,35.23,35.683,35.09,35.683,34.84z M41.913,120.25V107H29.302v13.25H41.913z M41.913,101.5
				V88.25H29.302v13.25H41.913z M41.603,83.25V70h-12.61v13.25H41.603z M41.282,65V51.75h-12.61V65H41.282z"/>
			<linearGradient id="SVGID_1_" gradientUnits="userSpaceOnUse" x1="66.0615" y1="113.625" x2="78.6719" y2="113.625">
				<stop  offset="0.0153" style="stop-color:#CCFFFF"/>
				<stop  offset="0.0551" style="stop-color:#CFFEFE"/>
				<stop  offset="0.3633" style="stop-color:#E2F7F7"/>
				<stop  offset="0.6765" style="stop-color:#EEF3F3"/>
				<stop  offset="1" style="stop-color:#F2F2F2"/>
			</linearGradient>
			<rect x="66.062" y="107" fill="url(#SVGID_1_)" width="12.61" height="13.25"/>
			<linearGradient id="SVGID_2_" gradientUnits="userSpaceOnUse" x1="66.0615" y1="94.875" x2="78.6719" y2="94.875">
				<stop  offset="0.0153" style="stop-color:#CCFFFF"/>
				<stop  offset="0.0551" style="stop-color:#CFFEFE"/>
				<stop  offset="0.3633" style="stop-color:#E2F7F7"/>
				<stop  offset="0.6765" style="stop-color:#EEF3F3"/>
				<stop  offset="1" style="stop-color:#F2F2F2"/>
			</linearGradient>
			<rect x="66.062" y="88.25" fill="url(#SVGID_2_)" width="12.61" height="13.25"/>
			<linearGradient id="SVGID_3_" gradientUnits="userSpaceOnUse" x1="65.7432" y1="76.625" x2="78.3525" y2="76.625">
				<stop  offset="0.0153" style="stop-color:#CCFFFF"/>
				<stop  offset="0.0551" style="stop-color:#CFFEFE"/>
				<stop  offset="0.3633" style="stop-color:#E2F7F7"/>
				<stop  offset="0.6765" style="stop-color:#EEF3F3"/>
				<stop  offset="1" style="stop-color:#F2F2F2"/>
			</linearGradient>
			<rect x="65.743" y="70" fill="url(#SVGID_3_)" width="12.609" height="13.25"/>
			<linearGradient id="SVGID_4_" gradientUnits="userSpaceOnUse" x1="65.4219" y1="58.375" x2="78.0322" y2="58.375">
				<stop  offset="0.0153" style="stop-color:#CCFFFF"/>
				<stop  offset="0.0551" style="stop-color:#CFFEFE"/>
				<stop  offset="0.3633" style="stop-color:#E2F7F7"/>
				<stop  offset="0.6765" style="stop-color:#EEF3F3"/>
				<stop  offset="1" style="stop-color:#F2F2F2"/>
			</linearGradient>
			<rect x="65.422" y="51.75" fill="url(#SVGID_4_)" width="12.61" height="13.25"/>
			<path fill="#D2D708" d="M63.642,27.61c0,0.36,0,0.71,0,1.07c0,0.2-0.13,0.34-0.33,0.35c-0.029,0.01-0.068,0.01-0.108,0.01
				c-1.681,0-3.37,0-5.05,0c-0.711,0-1.342,0.41-1.57,1.04c-0.061,0.15-0.08,0.31-0.08,0.47c-0.01,1.43-0.01,2.86-0.01,4.29
				c0,0.24-0.131,0.39-0.37,0.39c-0.399,0.01-0.8,0.01-1.21,0c-0.21,0-0.34-0.15-0.34-0.36c0-1.47-0.012-2.93,0-4.39
				c0.01-0.76,0.289-1.42,0.789-1.98c0.641-0.72,1.439-1.11,2.391-1.21c0.13-0.02,0.26-0.02,0.391-0.02c0.819,0,1.641,0,2.449,0
				c0.881,0,1.771,0,2.65,0c0.13,0,0.238,0.03,0.318,0.13C63.612,27.45,63.642,27.52,63.642,27.61z"/>
			<path fill="#005EB8" d="M61.731,31.44c0,0.33,0,0.65,0,0.97c0,0.25-0.148,0.4-0.39,0.4c-1.21,0-2.43,0-3.649,0
				c-0.239,0-0.381-0.15-0.381-0.4c0-0.33,0-0.66,0-0.99c0-0.23,0.15-0.38,0.392-0.38c0.6,0,1.21,0,1.819,0c0.601,0,1.199,0,1.801,0
				C61.583,31.04,61.731,31.18,61.731,31.44z"/>
			<path fill="#D2D708" d="M53.112,28.91c0,1.01,0,2.02,0,3.03c0,0.78-0.271,1.46-0.771,2.04c-0.63,0.73-1.438,1.12-2.39,1.23
				c-0.141,0.02-0.28,0.02-0.41,0.02c-0.83,0-1.66,0.03-2.49-0.01c-1.529-0.05-2.88-1.06-3.27-2.49
				c-0.061-0.25-0.102-0.51-0.102-0.77c-0.01-0.49-0.02-0.98,0-1.46c0.051-1.19,0.62-2.07,1.61-2.69c0.59-0.37,1.25-0.54,1.938-0.54
				c1.28,0,2.551,0,3.83,0c0.11,0,0.131-0.03,0.131-0.13c-0.01-1.35,0-2.7-0.01-4.05c0-0.23,0.079-0.38,0.289-0.46
				c0.461,0,0.92,0,1.37,0c0.05,0.03,0.091,0.05,0.13,0.08c0.102,0.07,0.141,0.17,0.141,0.3C53.112,24.98,53.112,26.94,53.112,28.91
				z M51.183,31.97c0.021-0.94,0-1.89,0.01-2.84c0-0.07-0.021-0.1-0.101-0.1c-0.649,0.01-1.3,0.01-1.95,0.01
				c-0.619,0-1.229,0-1.85,0c-0.16,0-0.32,0.01-0.48,0.06c-0.699,0.18-1.229,0.79-1.209,1.53c0.01,0.44,0,0.87,0.01,1.3
				c0,0.28,0.07,0.54,0.221,0.78c0.34,0.5,0.83,0.75,1.42,0.75c0.76,0.01,1.51,0.01,2.27,0c0.262,0,0.512-0.04,0.74-0.16
				C50.823,33.03,51.172,32.6,51.183,31.97z"/>
			<linearGradient id="SVGID_5_" gradientUnits="userSpaceOnUse" x1="48.002" y1="113.625" x2="60.6123" y2="113.625">
				<stop  offset="0.0153" style="stop-color:#CCFFFF"/>
				<stop  offset="0.0551" style="stop-color:#CFFEFE"/>
				<stop  offset="0.3633" style="stop-color:#E2F7F7"/>
				<stop  offset="0.6765" style="stop-color:#EEF3F3"/>
				<stop  offset="1" style="stop-color:#F2F2F2"/>
			</linearGradient>
			<rect x="48.002" y="107" fill="url(#SVGID_5_)" width="12.61" height="13.25"/>
			<linearGradient id="SVGID_6_" gradientUnits="userSpaceOnUse" x1="48.002" y1="94.875" x2="60.6123" y2="94.875">
				<stop  offset="0.0153" style="stop-color:#CCFFFF"/>
				<stop  offset="0.0551" style="stop-color:#CFFEFE"/>
				<stop  offset="0.3633" style="stop-color:#E2F7F7"/>
				<stop  offset="0.6765" style="stop-color:#EEF3F3"/>
				<stop  offset="1" style="stop-color:#F2F2F2"/>
			</linearGradient>
			<rect x="48.002" y="88.25" fill="url(#SVGID_6_)" width="12.61" height="13.25"/>
			<linearGradient id="SVGID_7_" gradientUnits="userSpaceOnUse" x1="47.6826" y1="76.625" x2="60.292" y2="76.625">
				<stop  offset="0.0153" style="stop-color:#CCFFFF"/>
				<stop  offset="0.0551" style="stop-color:#CFFEFE"/>
				<stop  offset="0.3633" style="stop-color:#E2F7F7"/>
				<stop  offset="0.6765" style="stop-color:#EEF3F3"/>
				<stop  offset="1" style="stop-color:#F2F2F2"/>
			</linearGradient>
			<rect x="47.683" y="70" fill="url(#SVGID_7_)" width="12.609" height="13.25"/>
			<linearGradient id="SVGID_8_" gradientUnits="userSpaceOnUse" x1="47.3623" y1="58.375" x2="59.9717" y2="58.375">
				<stop  offset="0.0153" style="stop-color:#CCFFFF"/>
				<stop  offset="0.0551" style="stop-color:#CFFEFE"/>
				<stop  offset="0.3633" style="stop-color:#E2F7F7"/>
				<stop  offset="0.6765" style="stop-color:#EEF3F3"/>
				<stop  offset="1" style="stop-color:#F2F2F2"/>
			</linearGradient>
			<rect x="47.362" y="51.75" fill="url(#SVGID_8_)" width="12.609" height="13.25"/>
			<path fill="#FFFFFF" d="M51.192,29.13c-0.01,0.95,0.011,1.9-0.01,2.84c-0.011,0.63-0.359,1.06-0.921,1.33
				c-0.229,0.12-0.479,0.16-0.739,0.16c-0.761,0.01-1.511,0.01-2.271,0c-0.59,0-1.08-0.25-1.42-0.75c-0.149-0.24-0.22-0.5-0.22-0.78
				c-0.012-0.43,0-0.86-0.012-1.3c-0.02-0.74,0.512-1.35,1.211-1.53c0.16-0.05,0.319-0.06,0.479-0.06c0.62,0,1.229,0,1.851,0
				c0.649,0,1.299,0,1.949-0.01C51.172,29.03,51.192,29.06,51.192,29.13z"/>
			<path fill="#D2D708" d="M43.413,27.68c0,0.32,0,0.64,0,0.96c0,0.25-0.15,0.4-0.4,0.4c-0.75,0-1.5-0.01-2.26,0
				c-0.439,0-0.84,0.14-1.17,0.45c-0.32,0.3-0.48,0.66-0.48,1.1c0,1.41-0.01,2.81,0,4.22c0,0.27-0.14,0.43-0.399,0.43
				c-0.4,0-0.79,0.021-1.19-0.01c-0.21-0.01-0.34-0.16-0.34-0.37c0-0.74,0-1.48,0-2.22c0-0.72-0.01-1.44,0.01-2.16
				c0.01-0.83,0.34-1.54,0.92-2.12c0.721-0.73,1.601-1.08,2.621-1.09c0.75-0.01,1.51,0,2.271,0
				C43.272,27.27,43.413,27.41,43.413,27.68z"/>
			<path fill="#005EB8" d="M35.683,33.9c0,0.31,0,0.63,0,0.94c0,0.25-0.141,0.39-0.4,0.39c-1.98,0-3.961,0.01-5.94,0
				c-1.03,0-1.979-0.64-2.33-1.57c-0.06-0.16-0.069-0.32-0.13-0.47c0-1.3,0-2.6,0-3.89c0.04-0.02,0.03-0.05,0.03-0.07
				c0.19-0.91,0.75-1.49,1.6-1.81c0.28-0.11,0.58-0.15,0.88-0.15c1.95,0,3.9,0,5.86,0c0.3,0,0.431,0.13,0.431,0.43
				c0,0.3,0,0.6,0,0.9c0,0.3-0.131,0.43-0.44,0.43c-0.9,0-1.8,0-2.7,0c-1.04,0-2.08,0-3.12,0c-0.37,0-0.62,0.25-0.62,0.62
				c0,0.2,0,0.4-0.01,0.6c0,0.08,0.029,0.1,0.109,0.1c1.25,0,2.511,0,3.761,0c0.12,0,0.22,0.01,0.3,0.09
				c0.08,0.07,0.12,0.15,0.12,0.26c0,0.34,0,0.69,0,1.03c0,0.21-0.13,0.36-0.34,0.38c-0.04,0-0.08,0-0.12,0c-1.24,0-2.48,0-3.721,0
				c-0.08,0-0.109,0.02-0.109,0.1c0.01,0.23,0.01,0.45,0.01,0.67c0,0.31,0.23,0.57,0.551,0.59c0.039,0,0.09,0,0.129,0
				c1.92,0,3.851,0,5.771,0C35.552,33.47,35.683,33.61,35.683,33.9z"/>
			<linearGradient id="SVGID_9_" gradientUnits="userSpaceOnUse" x1="29.3018" y1="113.625" x2="41.9121" y2="113.625">
				<stop  offset="0.0153" style="stop-color:#CCFFFF"/>
				<stop  offset="0.0551" style="stop-color:#CFFEFE"/>
				<stop  offset="0.3633" style="stop-color:#E2F7F7"/>
				<stop  offset="0.6765" style="stop-color:#EEF3F3"/>
				<stop  offset="1" style="stop-color:#F2F2F2"/>
			</linearGradient>
			<rect x="29.302" y="107" fill="url(#SVGID_9_)" width="12.61" height="13.25"/>
			<linearGradient id="SVGID_10_" gradientUnits="userSpaceOnUse" x1="29.3018" y1="94.875" x2="41.9121" y2="94.875">
				<stop  offset="0.0153" style="stop-color:#CCFFFF"/>
				<stop  offset="0.0551" style="stop-color:#CFFEFE"/>
				<stop  offset="0.3633" style="stop-color:#E2F7F7"/>
				<stop  offset="0.6765" style="stop-color:#EEF3F3"/>
				<stop  offset="1" style="stop-color:#F2F2F2"/>
			</linearGradient>
			<rect x="29.302" y="88.25" fill="url(#SVGID_10_)" width="12.61" height="13.25"/>
			<linearGradient id="SVGID_11_" gradientUnits="userSpaceOnUse" x1="28.9922" y1="76.625" x2="41.6025" y2="76.625">
				<stop  offset="0.0153" style="stop-color:#CCFFFF"/>
				<stop  offset="0.0551" style="stop-color:#CFFEFE"/>
				<stop  offset="0.3633" style="stop-color:#E2F7F7"/>
				<stop  offset="0.6765" style="stop-color:#EEF3F3"/>
				<stop  offset="1" style="stop-color:#F2F2F2"/>
			</linearGradient>
			<rect x="28.992" y="70" fill="url(#SVGID_11_)" width="12.61" height="13.25"/>
			<linearGradient id="SVGID_12_" gradientUnits="userSpaceOnUse" x1="28.6719" y1="58.375" x2="41.2822" y2="58.375">
				<stop  offset="0.0153" style="stop-color:#CCFFFF"/>
				<stop  offset="0.0551" style="stop-color:#CFFEFE"/>
				<stop  offset="0.3633" style="stop-color:#E2F7F7"/>
				<stop  offset="0.6765" style="stop-color:#EEF3F3"/>
				<stop  offset="1" style="stop-color:#F2F2F2"/>
			</linearGradient>
			<rect x="28.672" y="51.75" fill="url(#SVGID_12_)" width="12.61" height="13.25"/>
		</g>
		<g>
			
				<rect x="1.998" y="2" fill="none" stroke="#999999" stroke-width="4" stroke-linecap="square" stroke-miterlimit="10" width="84.674" height="133.75"/>
			
				<rect x="28.672" y="51.75" fill="none" stroke="#005EB8" stroke-linecap="square" stroke-miterlimit="10" width="12.61" height="13.25"/>
			
				<rect x="47.362" y="51.75" fill="none" stroke="#005EB8" stroke-linecap="square" stroke-miterlimit="10" width="12.609" height="13.25"/>
			
				<rect x="65.422" y="51.75" fill="none" stroke="#005EB8" stroke-linecap="square" stroke-miterlimit="10" width="12.61" height="13.25"/>
			
				<rect x="28.992" y="70" fill="none" stroke="#005EB8" stroke-linecap="square" stroke-miterlimit="10" width="12.61" height="13.25"/>
			
				<rect x="47.683" y="70" fill="none" stroke="#005EB8" stroke-linecap="square" stroke-miterlimit="10" width="12.609" height="13.25"/>
			
				<rect x="65.743" y="70" fill="none" stroke="#005EB8" stroke-linecap="square" stroke-miterlimit="10" width="12.609" height="13.25"/>
			
				<rect x="29.302" y="88.25" fill="none" stroke="#005EB8" stroke-linecap="square" stroke-miterlimit="10" width="12.61" height="13.25"/>
			
				<rect x="48.002" y="88.25" fill="none" stroke="#005EB8" stroke-linecap="square" stroke-miterlimit="10" width="12.61" height="13.25"/>
			
				<rect x="66.062" y="88.25" fill="none" stroke="#005EB8" stroke-linecap="square" stroke-miterlimit="10" width="12.61" height="13.25"/>
			
				<rect x="29.302" y="107" fill="none" stroke="#005EB8" stroke-linecap="square" stroke-miterlimit="10" width="12.61" height="13.25"/>
			<rect x="11.592" y="107" fill="#FFFFFF" width="12.611" height="13.25"/>
			<rect x="11.592" y="88.25" fill="#FFFFFF" width="12.611" height="13.25"/>
			<rect x="11.283" y="70" fill="#FFFFFF" width="12.61" height="13.25"/>
			<rect x="10.962" y="51.75" fill="#FFFFFF" width="12.61" height="13.25"/>
			<linearGradient id="SVGID_13_" gradientUnits="userSpaceOnUse" x1="11.5923" y1="113.625" x2="24.2026" y2="113.625">
				<stop  offset="0.0153" style="stop-color:#CCFFFF"/>
				<stop  offset="0.0551" style="stop-color:#CFFEFE"/>
				<stop  offset="0.3633" style="stop-color:#E2F7F7"/>
				<stop  offset="0.6765" style="stop-color:#EEF3F3"/>
				<stop  offset="1" style="stop-color:#F2F2F2"/>
			</linearGradient>
			<rect x="11.592" y="107" fill="url(#SVGID_13_)" width="12.61" height="13.25"/>
			<linearGradient id="SVGID_14_" gradientUnits="userSpaceOnUse" x1="11.5923" y1="94.875" x2="24.2026" y2="94.875">
				<stop  offset="0.0153" style="stop-color:#CCFFFF"/>
				<stop  offset="0.0551" style="stop-color:#CFFEFE"/>
				<stop  offset="0.3633" style="stop-color:#E2F7F7"/>
				<stop  offset="0.6765" style="stop-color:#EEF3F3"/>
				<stop  offset="1" style="stop-color:#F2F2F2"/>
			</linearGradient>
			<rect x="11.592" y="88.25" fill="url(#SVGID_14_)" width="12.61" height="13.25"/>
			<linearGradient id="SVGID_15_" gradientUnits="userSpaceOnUse" x1="11.2827" y1="76.625" x2="23.8931" y2="76.625">
				<stop  offset="0.0153" style="stop-color:#CCFFFF"/>
				<stop  offset="0.0551" style="stop-color:#CFFEFE"/>
				<stop  offset="0.3633" style="stop-color:#E2F7F7"/>
				<stop  offset="0.6765" style="stop-color:#EEF3F3"/>
				<stop  offset="1" style="stop-color:#F2F2F2"/>
			</linearGradient>
			<rect x="11.283" y="70" fill="url(#SVGID_15_)" width="12.61" height="13.25"/>
			<linearGradient id="SVGID_16_" gradientUnits="userSpaceOnUse" x1="24.8657" y1="62.7617" x2="9.6697" y2="53.9883">
				<stop  offset="0.0153" style="stop-color:#CCFFFF"/>
				<stop  offset="0.0551" style="stop-color:#CFFEFE"/>
				<stop  offset="0.3633" style="stop-color:#E2F7F7"/>
				<stop  offset="0.6765" style="stop-color:#EEF3F3"/>
				<stop  offset="1" style="stop-color:#F2F2F2"/>
			</linearGradient>
			<rect x="10.962" y="51.75" fill="url(#SVGID_16_)" width="12.61" height="13.25"/>
			
				<rect x="10.962" y="51.75" fill="none" stroke="#005EB8" stroke-linecap="square" stroke-miterlimit="10" width="12.61" height="13.25"/>
			
				<rect x="11.283" y="70" fill="none" stroke="#005EB8" stroke-linecap="square" stroke-miterlimit="10" width="12.61" height="13.25"/>
			
				<rect x="11.592" y="88.25" fill="none" stroke="#005EB8" stroke-linecap="square" stroke-miterlimit="10" width="12.61" height="13.25"/>
			
				<rect x="11.592" y="107" fill="none" stroke="#005EB8" stroke-linecap="square" stroke-miterlimit="10" width="12.61" height="13.25"/>
			
				<rect x="48.002" y="107" fill="none" stroke="#005EB8" stroke-linecap="square" stroke-miterlimit="10" width="12.61" height="13.25"/>
			
				<rect x="66.062" y="107" fill="none" stroke="#005EB8" stroke-linecap="square" stroke-miterlimit="10" width="12.61" height="13.25"/>
		</g>
	</g>
</g>
</svg>
