<?xml version="1.0" encoding="utf-8"?>
<!-- Generator: Adobe Illustrator 16.0.0, SVG Export Plug-In . SVG Version: 6.00 Build 0)  -->
<!DOCTYPE svg PUBLIC "-//W3C//DTD SVG 1.1//EN" "http://www.w3.org/Graphics/SVG/1.1/DTD/svg11.dtd">
<svg version="1.1" xmlns="http://www.w3.org/2000/svg" xmlns:xlink="http://www.w3.org/1999/xlink" x="0px" y="0px" width="88.67px"
	 height="137px" viewBox="0 0 88.67 137" enable-background="new 0 0 88.67 137" xml:space="preserve">
<g id="Layer_2">
</g>
<g id="Layer_1">
	<g id="XMLID_1_">
		<g>
			<path fill="#D2D708" d="M62.64,15.61c0,0.36,0,0.71,0,1.07c0,0.2-0.13,0.34-0.33,0.35c-0.029,0.01-0.069,0.01-0.109,0.01
				c-1.681,0-3.37,0-5.05,0c-0.711,0-1.341,0.41-1.57,1.04c-0.061,0.15-0.08,0.31-0.08,0.47c-0.01,1.43-0.01,2.86-0.01,4.29
				c0,0.24-0.13,0.39-0.37,0.39c-0.4,0.01-0.8,0.01-1.21,0c-0.21,0-0.34-0.15-0.34-0.36c0-1.47-0.011-2.93,0-4.39
				c0.01-0.76,0.29-1.42,0.79-1.98c0.64-0.72,1.439-1.11,2.39-1.21c0.13-0.02,0.26-0.02,0.39-0.02c0.82,0,1.641,0,2.45,0
				c0.88,0,1.771,0,2.65,0c0.13,0,0.239,0.03,0.319,0.13C62.611,15.45,62.64,15.52,62.64,15.61z"/>
			<path fill="#005EB8" d="M60.73,19.44c0,0.33,0,0.65,0,0.97c0,0.25-0.149,0.4-0.39,0.4c-1.21,0-2.43,0-3.65,0
				c-0.239,0-0.38-0.15-0.38-0.4c0-0.33,0-0.66,0-0.99c0-0.23,0.15-0.38,0.391-0.38c0.6,0,1.21,0,1.819,0c0.601,0,1.2,0,1.801,0
				C60.581,19.04,60.73,19.18,60.73,19.44z"/>
			<path fill="#D2D708" d="M52.111,16.91c0,1.01,0,2.02,0,3.03c0,0.78-0.271,1.46-0.771,2.04c-0.63,0.73-1.439,1.12-2.39,1.23
				c-0.141,0.02-0.28,0.02-0.41,0.02c-0.83,0-1.66,0.03-2.49-0.01c-1.53-0.05-2.88-1.06-3.27-2.49
				c-0.061-0.25-0.101-0.51-0.101-0.77c-0.01-0.49-0.02-0.98,0-1.46c0.05-1.19,0.62-2.07,1.61-2.69c0.59-0.37,1.25-0.54,1.939-0.54
				c1.28,0,2.551,0,3.83,0c0.11,0,0.13-0.03,0.13-0.13c-0.01-1.35,0-2.7-0.01-4.05c0-0.23,0.08-0.38,0.29-0.46c0.46,0,0.92,0,1.37,0
				c0.05,0.03,0.09,0.05,0.13,0.08c0.101,0.07,0.141,0.17,0.141,0.3C52.111,12.98,52.111,14.94,52.111,16.91z M50.18,19.97
				c0.021-0.94,0-1.89,0.01-2.84c0-0.07-0.02-0.1-0.1-0.1c-0.65,0.01-1.3,0.01-1.95,0.01c-0.62,0-1.229,0-1.85,0
				c-0.16,0-0.32,0.01-0.48,0.06c-0.699,0.18-1.229,0.79-1.21,1.53c0.011,0.44,0,0.87,0.011,1.3c0,0.28,0.069,0.54,0.22,0.78
				c0.34,0.5,0.83,0.75,1.42,0.75c0.76,0.01,1.51,0.01,2.27,0c0.261,0,0.511-0.04,0.74-0.16C49.821,21.03,50.17,20.6,50.18,19.97z"
				/>
			<path fill="#FFFFFF" d="M50.19,17.13c-0.01,0.95,0.011,1.9-0.01,2.84c-0.01,0.63-0.359,1.06-0.92,1.33
				c-0.229,0.12-0.479,0.16-0.74,0.16c-0.76,0.01-1.51,0.01-2.27,0c-0.59,0-1.08-0.25-1.42-0.75c-0.15-0.24-0.22-0.5-0.22-0.78
				c-0.011-0.43,0-0.86-0.011-1.3c-0.02-0.74,0.511-1.35,1.21-1.53c0.16-0.05,0.32-0.06,0.48-0.06c0.62,0,1.229,0,1.85,0
				c0.65,0,1.3,0,1.95-0.01C50.17,17.03,50.19,17.06,50.19,17.13z"/>
			<path fill="#D2D708" d="M42.411,15.68c0,0.32,0,0.64,0,0.96c0,0.25-0.15,0.4-0.4,0.4c-0.75,0-1.5-0.01-2.26,0
				c-0.44,0-0.84,0.14-1.17,0.45c-0.32,0.3-0.48,0.66-0.48,1.1c0,1.41-0.01,2.81,0,4.22c0,0.27-0.14,0.43-0.4,0.43
				c-0.4,0-0.79,0.02-1.19-0.01c-0.21-0.01-0.34-0.16-0.34-0.37c0-0.74,0-1.48,0-2.22c0-0.72-0.01-1.44,0.01-2.16
				c0.01-0.83,0.34-1.54,0.92-2.12c0.72-0.73,1.6-1.08,2.62-1.09c0.75-0.01,1.51,0,2.271,0C42.27,15.27,42.411,15.41,42.411,15.68z"
				/>
			<path fill="#005EB8" d="M34.68,21.9c0,0.31,0,0.63,0,0.94c0,0.25-0.14,0.39-0.4,0.39c-1.98,0-3.96,0.01-5.94,0
				c-1.03,0-1.98-0.64-2.33-1.57c-0.06-0.16-0.07-0.32-0.13-0.47c0-1.3,0-2.6,0-3.89c0.04-0.02,0.03-0.05,0.03-0.07
				c0.19-0.91,0.75-1.49,1.6-1.81c0.28-0.11,0.58-0.15,0.88-0.15c1.95,0,3.9,0,5.86,0c0.3,0,0.43,0.13,0.43,0.43c0,0.3,0,0.6,0,0.9
				c0,0.3-0.13,0.43-0.44,0.43c-0.9,0-1.8,0-2.7,0c-1.04,0-2.08,0-3.12,0c-0.37,0-0.62,0.25-0.62,0.62c0,0.2,0,0.4-0.01,0.6
				c0,0.08,0.03,0.1,0.11,0.1c1.25,0,2.51,0,3.76,0c0.12,0,0.22,0.01,0.3,0.09c0.08,0.07,0.12,0.15,0.12,0.26c0,0.34,0,0.69,0,1.03
				c0,0.21-0.13,0.36-0.34,0.38c-0.04,0-0.08,0-0.12,0c-1.24,0-2.48,0-3.72,0c-0.08,0-0.11,0.02-0.11,0.1
				c0.01,0.23,0.01,0.45,0.01,0.67c0,0.31,0.23,0.57,0.55,0.59c0.04,0,0.09,0,0.13,0c1.92,0,3.85,0,5.77,0
				C34.55,21.47,34.68,21.61,34.68,21.9z"/>
		</g>
		<g>
			<path fill="none" stroke="#005EB8" stroke-width="6" stroke-linecap="square" stroke-miterlimit="10" d="M69.84,3
				c6.33,1,6.5,3.5,6.5,3.5L76.5,18c0,0,1.84,0,4.84,0s4.33,4,4.33,4s0,102,0,107s-4,5-4,5S14,134,8.34,134
				C2.67,134,3,131.17,3,131.17s0.17-98.5,0-106.5C2.86,17.5,11.67,18,11.67,18s0-6,0-10.33c0-4.34,8.67-4.67,8.67-4.67H69.84z"/>
			
				<rect x="19.94" y="36.5" fill="none" stroke="#005EB8" stroke-width="3" stroke-linecap="round" stroke-linejoin="round" stroke-miterlimit="10" width="49.99" height="9.25"/>
		</g>
	</g>
	<g id="XMLID_2_">
		<g>
			<path fill="#FFFFFF" d="M85.67,22c0,0,0,102,0,107s-4,5-4,5S14,134,8.34,134C2.67,134,3,131.17,3,131.17s0.17-98.5,0-106.5
				C2.86,17.5,11.67,18,11.67,18s0-6,0-10.33c0-4.34,8.67-4.67,8.67-4.67h49.5c6.33,1,6.5,3.5,6.5,3.5L76.5,18c0,0,1.84,0,4.84,0
				S85.67,22,85.67,22z M69.67,120.25V107H57.06v13.25H69.67z M69.67,101.5V88.25H57.06v13.25H69.67z M69.35,83.25V70H56.741v13.25
				H69.35z M69.031,65V51.75H56.42V65H69.031z M69.031,45.75V32.5h-49.45v13.25H69.031z M62.64,16.68c0-0.36,0-0.71,0-1.07
				c0-0.09-0.029-0.16-0.08-0.21c-0.08-0.1-0.189-0.13-0.319-0.13c-0.88,0-1.771,0-2.65,0c-0.81,0-1.63,0-2.45,0
				c-0.13,0-0.26,0-0.39,0.02c-0.95,0.1-1.75,0.49-2.39,1.21c-0.5,0.56-0.78,1.22-0.79,1.98c-0.011,1.46,0,2.92,0,4.39
				c0,0.21,0.13,0.36,0.34,0.36c0.41,0.01,0.81,0.01,1.21,0c0.24,0,0.37-0.15,0.37-0.39c0-1.43,0-2.86,0.01-4.29
				c0-0.16,0.02-0.32,0.08-0.47c0.229-0.63,0.859-1.04,1.57-1.04c1.68,0,3.369,0,5.05,0c0.04,0,0.08,0,0.109-0.01
				C62.51,17.02,62.64,16.88,62.64,16.68z M60.73,20.41c0-0.32,0-0.64,0-0.97c0-0.26-0.149-0.4-0.409-0.4c-0.601,0-1.2,0-1.801,0
				c-0.609,0-1.22,0-1.819,0c-0.24,0-0.391,0.15-0.391,0.38c0,0.33,0,0.66,0,0.99c0,0.25,0.141,0.4,0.38,0.4c1.221,0,2.44,0,3.65,0
				C60.581,20.81,60.73,20.66,60.73,20.41z M52.111,19.94c0-1.01,0-2.02,0-3.03c0-1.97,0-3.93,0-5.9c0-0.13-0.04-0.23-0.141-0.3
				c-0.04-0.03-0.08-0.05-0.13-0.08c-0.45,0-0.91,0-1.37,0c-0.21,0.08-0.29,0.23-0.29,0.46c0.01,1.35,0,2.7,0.01,4.05
				c0,0.1-0.02,0.13-0.13,0.13c-1.279,0-2.55,0-3.83,0c-0.689,0-1.35,0.17-1.939,0.54c-0.99,0.62-1.561,1.5-1.61,2.69
				c-0.02,0.48-0.01,0.97,0,1.46c0,0.26,0.04,0.52,0.101,0.77c0.39,1.43,1.739,2.44,3.27,2.49c0.83,0.04,1.66,0.01,2.49,0.01
				c0.13,0,0.27,0,0.41-0.02c0.95-0.11,1.76-0.5,2.39-1.23C51.84,21.4,52.111,20.72,52.111,19.94z M51.611,120.25V107H39v13.25
				H51.611z M51.611,101.5V88.25H39v13.25H51.611z M51.291,83.25V70H38.68v13.25H51.291z M50.97,65V51.75H38.36V65H50.97z
				 M42.411,16.64c0-0.32,0-0.64,0-0.96c0-0.27-0.141-0.41-0.42-0.41c-0.761,0-1.521-0.01-2.271,0c-1.02,0.01-1.9,0.36-2.62,1.09
				c-0.58,0.58-0.91,1.29-0.92,2.12c-0.02,0.72-0.01,1.44-0.01,2.16c0,0.74,0,1.48,0,2.22c0,0.21,0.13,0.36,0.34,0.37
				c0.4,0.03,0.79,0.01,1.19,0.01c0.26,0,0.4-0.16,0.4-0.43c-0.01-1.41,0-2.81,0-4.22c0-0.44,0.16-0.8,0.48-1.1
				c0.33-0.31,0.73-0.45,1.17-0.45c0.76-0.01,1.51,0,2.26,0C42.26,17.04,42.411,16.89,42.411,16.64z M34.68,22.84
				c0-0.31,0-0.63,0-0.94c0-0.29-0.13-0.43-0.43-0.43c-1.92,0-3.85,0-5.77,0c-0.04,0-0.09,0-0.13,0c-0.32-0.02-0.55-0.28-0.55-0.59
				c0-0.22,0-0.44-0.01-0.67c0-0.08,0.03-0.1,0.11-0.1c1.24,0,2.48,0,3.72,0c0.04,0,0.08,0,0.12,0c0.21-0.02,0.34-0.17,0.34-0.38
				c0-0.34,0-0.69,0-1.03c0-0.11-0.04-0.19-0.12-0.26c-0.08-0.08-0.18-0.09-0.3-0.09c-1.25,0-2.51,0-3.76,0
				c-0.08,0-0.11-0.02-0.11-0.1c0.01-0.2,0.01-0.4,0.01-0.6c0-0.37,0.25-0.62,0.62-0.62c1.04,0,2.08,0,3.12,0c0.9,0,1.8,0,2.7,0
				c0.31,0,0.44-0.13,0.44-0.43c0-0.3,0-0.6,0-0.9c0-0.3-0.13-0.43-0.43-0.43c-1.96,0-3.91,0-5.86,0c-0.3,0-0.6,0.04-0.88,0.15
				c-0.85,0.32-1.41,0.9-1.6,1.81c0,0.02,0.01,0.05-0.03,0.07c0,1.29,0,2.59,0,3.89c0.06,0.15,0.07,0.31,0.13,0.47
				c0.35,0.93,1.3,1.57,2.33,1.57c1.98,0.01,3.96,0,5.94,0C34.541,23.23,34.68,23.09,34.68,22.84z M32.911,120.25V107H20.3v13.25
				H32.911z M32.911,101.5V88.25H20.3v13.25H32.911z M32.601,83.25V70H19.99v13.25H32.601z M32.28,65V51.75H19.67V65H32.28z"/>
			<rect x="57.06" y="107" fill="#FFFFFF" width="12.61" height="13.25"/>
			<rect x="57.06" y="88.25" fill="#FFFFFF" width="12.61" height="13.25"/>
			<rect x="56.741" y="70" fill="#FFFFFF" width="12.609" height="13.25"/>
			<rect x="56.42" y="51.75" fill="#FFFFFF" width="12.61" height="13.25"/>
			<rect x="19.581" y="32.5" fill="#FFFFFF" width="49.45" height="13.25"/>
			<path fill="#D2D708" d="M62.64,15.61c0,0.36,0,0.71,0,1.07c0,0.2-0.13,0.34-0.33,0.35c-0.029,0.01-0.069,0.01-0.109,0.01
				c-1.681,0-3.37,0-5.05,0c-0.711,0-1.341,0.41-1.57,1.04c-0.061,0.15-0.08,0.31-0.08,0.47c-0.01,1.43-0.01,2.86-0.01,4.29
				c0,0.24-0.13,0.39-0.37,0.39c-0.4,0.01-0.8,0.01-1.21,0c-0.21,0-0.34-0.15-0.34-0.36c0-1.47-0.011-2.93,0-4.39
				c0.01-0.76,0.29-1.42,0.79-1.98c0.64-0.72,1.439-1.11,2.39-1.21c0.13-0.02,0.26-0.02,0.39-0.02c0.82,0,1.641,0,2.45,0
				c0.88,0,1.771,0,2.65,0c0.13,0,0.239,0.03,0.319,0.13C62.611,15.45,62.64,15.52,62.64,15.61z"/>
			<path fill="#005EB8" d="M60.73,19.44c0,0.33,0,0.65,0,0.97c0,0.25-0.149,0.4-0.39,0.4c-1.21,0-2.43,0-3.65,0
				c-0.239,0-0.38-0.15-0.38-0.4c0-0.33,0-0.66,0-0.99c0-0.23,0.15-0.38,0.391-0.38c0.6,0,1.21,0,1.819,0c0.601,0,1.2,0,1.801,0
				C60.581,19.04,60.73,19.18,60.73,19.44z"/>
			<path fill="#D2D708" d="M52.111,16.91c0,1.01,0,2.02,0,3.03c0,0.78-0.271,1.46-0.771,2.04c-0.63,0.73-1.439,1.12-2.39,1.23
				c-0.141,0.02-0.28,0.02-0.41,0.02c-0.83,0-1.66,0.03-2.49-0.01c-1.53-0.05-2.88-1.06-3.27-2.49
				c-0.061-0.25-0.101-0.51-0.101-0.77c-0.01-0.49-0.02-0.98,0-1.46c0.05-1.19,0.62-2.07,1.61-2.69c0.59-0.37,1.25-0.54,1.939-0.54
				c1.28,0,2.551,0,3.83,0c0.11,0,0.13-0.03,0.13-0.13c-0.01-1.35,0-2.7-0.01-4.05c0-0.23,0.08-0.38,0.29-0.46c0.46,0,0.92,0,1.37,0
				c0.05,0.03,0.09,0.05,0.13,0.08c0.101,0.07,0.141,0.17,0.141,0.3C52.111,12.98,52.111,14.94,52.111,16.91z M50.18,19.97
				c0.021-0.94,0-1.89,0.01-2.84c0-0.07-0.02-0.1-0.1-0.1c-0.65,0.01-1.3,0.01-1.95,0.01c-0.62,0-1.229,0-1.85,0
				c-0.16,0-0.32,0.01-0.48,0.06c-0.699,0.18-1.229,0.79-1.21,1.53c0.011,0.44,0,0.87,0.011,1.3c0,0.28,0.069,0.54,0.22,0.78
				c0.34,0.5,0.83,0.75,1.42,0.75c0.76,0.01,1.51,0.01,2.27,0c0.261,0,0.511-0.04,0.74-0.16C49.821,21.03,50.17,20.6,50.18,19.97z"
				/>
			<rect x="39" y="107" fill="#FFFFFF" width="12.61" height="13.25"/>
			<rect x="39" y="88.25" fill="#FFFFFF" width="12.61" height="13.25"/>
			<rect x="38.68" y="70" fill="#FFFFFF" width="12.61" height="13.25"/>
			<rect x="38.36" y="51.75" fill="#FFFFFF" width="12.61" height="13.25"/>
			<path fill="#FFFFFF" d="M50.19,17.13c-0.01,0.95,0.011,1.9-0.01,2.84c-0.01,0.63-0.359,1.06-0.92,1.33
				c-0.229,0.12-0.479,0.16-0.74,0.16c-0.76,0.01-1.51,0.01-2.27,0c-0.59,0-1.08-0.25-1.42-0.75c-0.15-0.24-0.22-0.5-0.22-0.78
				c-0.011-0.43,0-0.86-0.011-1.3c-0.02-0.74,0.511-1.35,1.21-1.53c0.16-0.05,0.32-0.06,0.48-0.06c0.62,0,1.229,0,1.85,0
				c0.65,0,1.3,0,1.95-0.01C50.17,17.03,50.19,17.06,50.19,17.13z"/>
			<path fill="#D2D708" d="M42.411,15.68c0,0.32,0,0.64,0,0.96c0,0.25-0.15,0.4-0.4,0.4c-0.75,0-1.5-0.01-2.26,0
				c-0.44,0-0.84,0.14-1.17,0.45c-0.32,0.3-0.48,0.66-0.48,1.1c0,1.41-0.01,2.81,0,4.22c0,0.27-0.14,0.43-0.4,0.43
				c-0.4,0-0.79,0.02-1.19-0.01c-0.21-0.01-0.34-0.16-0.34-0.37c0-0.74,0-1.48,0-2.22c0-0.72-0.01-1.44,0.01-2.16
				c0.01-0.83,0.34-1.54,0.92-2.12c0.72-0.73,1.6-1.08,2.62-1.09c0.75-0.01,1.51,0,2.271,0C42.27,15.27,42.411,15.41,42.411,15.68z"
				/>
			<path fill="#005EB8" d="M34.68,21.9c0,0.31,0,0.63,0,0.94c0,0.25-0.14,0.39-0.4,0.39c-1.98,0-3.96,0.01-5.94,0
				c-1.03,0-1.98-0.64-2.33-1.57c-0.06-0.16-0.07-0.32-0.13-0.47c0-1.3,0-2.6,0-3.89c0.04-0.02,0.03-0.05,0.03-0.07
				c0.19-0.91,0.75-1.49,1.6-1.81c0.28-0.11,0.58-0.15,0.88-0.15c1.95,0,3.9,0,5.86,0c0.3,0,0.43,0.13,0.43,0.43c0,0.3,0,0.6,0,0.9
				c0,0.3-0.13,0.43-0.44,0.43c-0.9,0-1.8,0-2.7,0c-1.04,0-2.08,0-3.12,0c-0.37,0-0.62,0.25-0.62,0.62c0,0.2,0,0.4-0.01,0.6
				c0,0.08,0.03,0.1,0.11,0.1c1.25,0,2.51,0,3.76,0c0.12,0,0.22,0.01,0.3,0.09c0.08,0.07,0.12,0.15,0.12,0.26c0,0.34,0,0.69,0,1.03
				c0,0.21-0.13,0.36-0.34,0.38c-0.04,0-0.08,0-0.12,0c-1.24,0-2.48,0-3.72,0c-0.08,0-0.11,0.02-0.11,0.1
				c0.01,0.23,0.01,0.45,0.01,0.67c0,0.31,0.23,0.57,0.55,0.59c0.04,0,0.09,0,0.13,0c1.92,0,3.85,0,5.77,0
				C34.55,21.47,34.68,21.61,34.68,21.9z"/>
			<rect x="20.3" y="107" fill="#FFFFFF" width="12.61" height="13.25"/>
			<rect x="20.3" y="88.25" fill="#FFFFFF" width="12.61" height="13.25"/>
			<rect x="19.99" y="70" fill="#FFFFFF" width="12.61" height="13.25"/>
			<rect x="19.67" y="51.75" fill="#FFFFFF" width="12.61" height="13.25"/>
		</g>
		<g>
			<path fill="none" stroke="#005EB8" stroke-width="6" stroke-linecap="square" stroke-miterlimit="10" d="M69.84,3
				c6.33,1,6.5,3.5,6.5,3.5L76.5,18c0,0,1.84,0,4.84,0s4.33,4,4.33,4s0,102,0,107s-4,5-4,5S14,134,8.34,134
				C2.67,134,3,131.17,3,131.17s0.17-98.5,0-106.5C2.86,17.5,11.67,18,11.67,18s0-6,0-10.33c0-4.34,8.67-4.67,8.67-4.67H69.84z"/>
			
				<rect x="19.67" y="51.75" fill="none" stroke="#005EB8" stroke-width="3" stroke-linecap="round" stroke-linejoin="round" stroke-miterlimit="10" width="12.61" height="13.25"/>
			
				<rect x="19.581" y="32.5" fill="none" stroke="#005EB8" stroke-width="3" stroke-linecap="round" stroke-linejoin="round" stroke-miterlimit="10" width="49.45" height="13.25"/>
			
				<rect x="38.36" y="51.75" fill="none" stroke="#005EB8" stroke-width="3" stroke-linecap="round" stroke-linejoin="round" stroke-miterlimit="10" width="12.61" height="13.25"/>
			
				<rect x="56.42" y="51.75" fill="none" stroke="#005EB8" stroke-width="3" stroke-linecap="round" stroke-linejoin="round" stroke-miterlimit="10" width="12.61" height="13.25"/>
			
				<rect x="19.99" y="70" fill="none" stroke="#005EB8" stroke-width="3" stroke-linecap="round" stroke-linejoin="round" stroke-miterlimit="10" width="12.61" height="13.25"/>
			
				<rect x="38.68" y="70" fill="none" stroke="#005EB8" stroke-width="3" stroke-linecap="round" stroke-linejoin="round" stroke-miterlimit="10" width="12.61" height="13.25"/>
			
				<rect x="56.741" y="70" fill="none" stroke="#005EB8" stroke-width="3" stroke-linecap="round" stroke-linejoin="round" stroke-miterlimit="10" width="12.609" height="13.25"/>
			
				<rect x="20.3" y="88.25" fill="none" stroke="#005EB8" stroke-width="3" stroke-linecap="round" stroke-linejoin="round" stroke-miterlimit="10" width="12.61" height="13.25"/>
			
				<rect x="39" y="88.25" fill="none" stroke="#005EB8" stroke-width="3" stroke-linecap="round" stroke-linejoin="round" stroke-miterlimit="10" width="12.61" height="13.25"/>
			
				<rect x="57.06" y="88.25" fill="none" stroke="#005EB8" stroke-width="3" stroke-linecap="round" stroke-linejoin="round" stroke-miterlimit="10" width="12.61" height="13.25"/>
			
				<rect x="20.3" y="107" fill="none" stroke="#005EB8" stroke-width="3" stroke-linecap="round" stroke-linejoin="round" stroke-miterlimit="10" width="12.61" height="13.25"/>
			
				<rect x="39" y="107" fill="none" stroke="#005EB8" stroke-width="3" stroke-linecap="round" stroke-linejoin="round" stroke-miterlimit="10" width="12.61" height="13.25"/>
			
				<rect x="57.06" y="107" fill="none" stroke="#005EB8" stroke-width="3" stroke-linecap="round" stroke-linejoin="round" stroke-miterlimit="10" width="12.61" height="13.25"/>
		</g>
	</g>
</g>
</svg>
