<?xml version="1.0" encoding="utf-8"?>
<!-- Generator: Adobe Illustrator 16.0.0, SVG Export Plug-In . SVG Version: 6.00 Build 0)  -->
<!DOCTYPE svg PUBLIC "-//W3C//DTD SVG 1.1//EN" "http://www.w3.org/Graphics/SVG/1.1/DTD/svg11.dtd">
<svg version="1.1" xmlns="http://www.w3.org/2000/svg" xmlns:xlink="http://www.w3.org/1999/xlink" x="0px" y="0px" width="52.84px"
	 height="140.375px" viewBox="1.995 -3.375 52.84 140.375" enable-background="new 1.995 -3.375 52.84 140.375"
	 xml:space="preserve">
<g id="Layer_2_1_">
	
		<rect x="1.995" y="-3.375" fill="none" stroke="#999999" stroke-linecap="square" stroke-miterlimit="10" width="52.84" height="140.375"/>
	<rect x="5.07" y="17" fill="none" stroke="#999999" stroke-linecap="square" stroke-miterlimit="10" width="2.265" height="116"/>
	<rect x="8.66" y="17" fill="none" stroke="#999999" stroke-linecap="square" stroke-miterlimit="10" width="2.265" height="116"/>
	
		<rect x="15.118" y="17" fill="none" stroke="#999999" stroke-linecap="square" stroke-miterlimit="10" width="2.265" height="116"/>
	
		<rect x="18.836" y="17" fill="none" stroke="#999999" stroke-linecap="square" stroke-miterlimit="10" width="2.265" height="116"/>
	
		<rect x="24.801" y="17" fill="none" stroke="#999999" stroke-linecap="square" stroke-miterlimit="10" width="2.265" height="116"/>
	
		<rect x="28.415" y="17" fill="none" stroke="#999999" stroke-linecap="square" stroke-miterlimit="10" width="2.265" height="116"/>
	<rect x="35.32" y="17" fill="none" stroke="#999999" stroke-linecap="square" stroke-miterlimit="10" width="2.265" height="116"/>
	
		<rect x="39.107" y="17" fill="none" stroke="#999999" stroke-linecap="square" stroke-miterlimit="10" width="2.265" height="116"/>
	
		<rect x="45.868" y="17" fill="none" stroke="#999999" stroke-linecap="square" stroke-miterlimit="10" width="2.265" height="116"/>
	
		<rect x="49.629" y="17" fill="none" stroke="#999999" stroke-linecap="square" stroke-miterlimit="10" width="2.265" height="116"/>
</g>
<g id="Layer_1">
	<g id="Layer_2" display="none">
	</g>
</g>
<g id="Layer_3">
	<g>
		<path fill="#FEFEFE" d="M49.309,8.772c-0.109-0.199-0.274-0.289-0.505-0.287c-0.763,0.005-1.524,0.002-2.286,0.002h-0.129
			c-0.731,0-1.462,0-2.193,0c-0.279,0-0.466,0.156-0.469,0.399c-0.004,0.418-0.002,0.836,0,1.254c0,0.15,0.07,0.266,0.2,0.333
			c0.089,0.046,0.188,0.066,0.294,0.066c1.531-0.001,3.063-0.001,4.595,0c0.071,0,0.141-0.01,0.208-0.029
			c0.165-0.046,0.307-0.225,0.308-0.395c0.001-0.402,0-0.805,0-1.208C49.331,8.862,49.332,8.814,49.309,8.772z"/>
		<path fill="#FEFEFE" d="M18.537,13.341c0.526,0.036,1.055,0.027,1.582,0.005c0.331-0.013,0.469-0.206,0.468-0.5
			c-0.01-1.599-0.002-3.199-0.007-4.798c-0.001-0.311,0.058-0.597,0.21-0.871c0.162-0.292,0.396-0.511,0.674-0.679
			c0.404-0.245,0.851-0.336,1.322-0.333c0.613,0.005,1.227,0.001,1.841,0.001c0.316,0,0.634-0.002,0.951,0
			c0.271,0.002,0.49-0.186,0.488-0.491c-0.003-0.372-0.001-0.743-0.002-1.114c0-0.035,0.002-0.072-0.01-0.104
			c-0.092-0.239-0.264-0.345-0.523-0.343c-0.762,0.006-1.524,0-2.287,0.003c-0.371,0.002-0.742-0.014-1.113,0.024
			c-0.94,0.096-1.793,0.42-2.545,0.994c-0.313,0.238-0.583,0.525-0.812,0.845C18.552,6.293,18.39,6.639,18.27,7
			c-0.085,0.252-0.124,0.518-0.126,0.784c-0.005,0.849-0.002,1.697-0.002,2.546c0,0-0.002,0-0.003,0c0,0.86,0.003,1.72-0.002,2.581
			C18.136,13.164,18.296,13.325,18.537,13.341z"/>
		<path fill-rule="evenodd" clip-rule="evenodd" fill="#D2D708" d="M38.035-1.25c0.057,0.03,0.121,0.051,0.17,0.091
			c0.113,0.093,0.186,0.2,0.186,0.365c-0.005,3.457-0.002,6.913-0.006,10.37c0,0.458-0.121,0.895-0.3,1.311
			c-0.123,0.287-0.288,0.557-0.49,0.796c-0.33,0.391-0.714,0.718-1.158,0.979c-0.542,0.317-1.122,0.518-1.737,0.621
			c-0.262,0.043-0.525,0.066-0.791,0.066c-1.138-0.002-2.275,0.006-3.413-0.011c-0.278-0.004-0.56-0.069-0.835-0.139
			c-0.54-0.137-1.047-0.353-1.513-0.657c-0.25-0.164-0.483-0.352-0.692-0.57c-0.221-0.231-0.416-0.478-0.581-0.753
			c-0.085-0.141-0.144-0.29-0.218-0.434c-0.159-0.314-0.195-0.658-0.256-0.996c-0.014-0.079,0-0.164,0-0.246
			c0-0.59-0.008-1.181,0-1.771c0.004-0.288,0.057-0.577,0.152-0.845c0.068-0.19,0.139-0.39,0.246-0.566
			c0.24-0.394,0.51-0.764,0.869-1.065c0.193-0.163,0.393-0.316,0.608-0.449c0.472-0.291,0.98-0.486,1.521-0.608
			c0.498-0.111,1.002-0.122,1.51-0.121c1.505,0.003,3.01,0,4.516,0.004c0.105,0,0.127-0.029,0.127-0.13
			c-0.004-1.56,0.002-3.121-0.007-4.681c-0.001-0.28,0.067-0.482,0.356-0.562C36.877-1.25,37.456-1.25,38.035-1.25z M33.188,6.168
			c-0.706,0.016-1.586-0.031-2.463,0.02c-0.549,0.031-1.029,0.242-1.411,0.643c-0.261,0.272-0.452,0.59-0.456,0.981
			c-0.008,0.617-0.002,1.235-0.001,1.852c0.001,0.05,0.007,0.101,0.017,0.15c0.064,0.31,0.214,0.571,0.428,0.805
			c0.21,0.23,0.464,0.387,0.744,0.506c0.346,0.148,0.711,0.177,1.084,0.175c0.863-0.004,1.728-0.003,2.592,0
			c0.375,0.001,0.731-0.063,1.081-0.213c0.379-0.163,0.673-0.419,0.899-0.747c0.16-0.235,0.237-0.524,0.24-0.808
			c0.013-1.083,0.004-2.165,0.008-3.248c0-0.104-0.036-0.118-0.127-0.117C35.002,6.169,34.181,6.168,33.188,6.168z"/>
		<path fill-rule="evenodd" clip-rule="evenodd" fill="#0069B3" d="M5.069,6.469c0.019-0.004,0.023-0.018,0.025-0.034
			c0.023-0.256,0.129-0.487,0.244-0.709c0.223-0.432,0.553-0.768,0.959-1.036c0.384-0.253,0.801-0.414,1.248-0.504
			c0.223-0.044,0.448-0.067,0.676-0.066c2.494,0,4.988,0,7.483-0.001c0.177,0,0.325,0.039,0.452,0.175
			C16.22,4.36,16.245,4.43,16.246,4.51c0.004,0.418,0.005,0.837,0.001,1.255c-0.002,0.169-0.164,0.341-0.339,0.379
			c-0.081,0.018-0.163,0.02-0.245,0.02c-2.451,0-4.902,0.001-7.354-0.003c-0.306,0-0.545,0.112-0.727,0.348
			c-0.07,0.091-0.086,0.207-0.086,0.323c0,0.247,0.004,0.493-0.002,0.739C7.493,7.666,7.522,7.688,7.613,7.688
			c1.595-0.003,3.19-0.002,4.786-0.002c0.082,0,0.162,0,0.242,0.029c0.197,0.069,0.288,0.192,0.288,0.402
			c0.001,0.383-0.008,0.767,0.003,1.149c0.007,0.261-0.136,0.421-0.41,0.459C12.472,9.732,12.421,9.73,12.37,9.73
			c-1.58,0-3.16,0.001-4.739-0.002c-0.103,0-0.142,0.019-0.137,0.131c0.01,0.238,0.019,0.478-0.001,0.715
			C7.461,10.98,7.829,11.269,8.167,11.3c0.066,0.006,0.133,0.006,0.199,0.006c2.447,0,4.895,0,7.342,0
			c0.172,0,0.318,0.038,0.443,0.169c0.07,0.073,0.096,0.15,0.096,0.238c0.004,0.411,0.005,0.821,0,1.231
			c-0.002,0.197-0.182,0.373-0.388,0.397c-0.05,0.006-0.102,0.006-0.152,0.006c-2.503,0-5.005,0.001-7.507-0.001
			c-0.563,0-1.097-0.13-1.598-0.391c-0.313-0.163-0.595-0.363-0.837-0.623c-0.219-0.235-0.386-0.496-0.521-0.789
			c-0.085-0.186-0.106-0.383-0.176-0.57C5.069,9.473,5.069,7.971,5.069,6.469z"/>
		<path fill-rule="evenodd" clip-rule="evenodd" fill="#D2D708" d="M51.761,5.883c-0.118,0.195-0.286,0.288-0.52,0.287
			c-2.144-0.003-4.286-0.001-6.429-0.002c-0.531,0-1.017,0.145-1.445,0.459c-0.117,0.086-0.227,0.188-0.318,0.305
			c-0.252,0.32-0.37,0.679-0.368,1.092c0.007,1.619-0.005,3.238,0.006,4.856c0.001,0.259-0.228,0.463-0.438,0.466
			c-0.238,0.003-0.477,0.005-0.716,0.006c-0.25,0.001-0.5,0.001-0.75,0c-0.094,0-0.186-0.005-0.276-0.04
			c-0.171-0.065-0.267-0.19-0.267-0.371c0-1.709-0.002-3.418,0.002-5.126c0-0.358,0.066-0.71,0.195-1.043
			c0.132-0.34,0.314-0.659,0.541-0.944c0.291-0.366,0.639-0.678,1.035-0.929c0.613-0.39,1.283-0.63,2.004-0.731
			c0.295-0.041,0.591-0.05,0.889-0.05c2.111,0.001,4.223,0.002,6.335-0.001c0.233,0,0.401,0.092,0.52,0.287
			C51.761,4.897,51.761,5.39,51.761,5.883z"/>
		<path fill-rule="evenodd" clip-rule="evenodd" fill="#D2D708" d="M18.142,10.329c0-0.849-0.003-1.697,0.002-2.546
			C18.146,7.517,18.185,7.252,18.27,7c0.12-0.361,0.282-0.706,0.505-1.017c0.229-0.32,0.499-0.607,0.812-0.845
			c0.752-0.573,1.604-0.898,2.545-0.994c0.371-0.038,0.742-0.022,1.113-0.024c0.763-0.003,1.525,0.003,2.287-0.003
			c0.26-0.002,0.432,0.104,0.523,0.343c0.012,0.031,0.01,0.069,0.01,0.104c0.001,0.371-0.001,0.743,0.002,1.114
			c0.002,0.305-0.218,0.493-0.488,0.491c-0.317-0.002-0.635,0-0.951,0c-0.614,0-1.228,0.003-1.841-0.001
			c-0.472-0.003-0.918,0.088-1.322,0.333c-0.278,0.168-0.512,0.387-0.674,0.679c-0.152,0.273-0.211,0.56-0.21,0.871
			c0.005,1.599-0.003,3.199,0.007,4.798c0.001,0.294-0.137,0.487-0.468,0.5c-0.527,0.021-1.056,0.031-1.582-0.005
			c-0.241-0.017-0.401-0.177-0.4-0.432c0.005-0.86,0.002-1.721,0.002-2.581C18.14,10.329,18.142,10.329,18.142,10.329z"/>
		<path fill-rule="evenodd" clip-rule="evenodd" fill="#0069B3" d="M46.518,8.487c0.762,0,1.523,0.003,2.286-0.002
			c0.23-0.001,0.396,0.088,0.505,0.287c0.023,0.042,0.022,0.09,0.022,0.137c0,0.402,0.001,0.805,0,1.208
			c-0.001,0.17-0.143,0.348-0.308,0.395c-0.067,0.019-0.137,0.029-0.208,0.029c-1.531,0-3.063-0.001-4.595,0
			c-0.105,0-0.205-0.02-0.294-0.066c-0.13-0.068-0.2-0.183-0.2-0.333c-0.002-0.418-0.004-0.836,0-1.254
			c0.003-0.243,0.189-0.398,0.469-0.399c0.731-0.001,1.462,0,2.193,0C46.432,8.487,46.475,8.487,46.518,8.487z"/>
	</g>
</g>
</svg>
