<?xml version="1.0" encoding="utf-8"?>
<!-- Generator: Adobe Illustrator 16.0.0, SVG Export Plug-In . SVG Version: 6.00 Build 0)  -->
<!DOCTYPE svg PUBLIC "-//W3C//DTD SVG 1.1//EN" "http://www.w3.org/Graphics/SVG/1.1/DTD/svg11.dtd">
<svg version="1.1" xmlns="http://www.w3.org/2000/svg" xmlns:xlink="http://www.w3.org/1999/xlink" x="0px" y="0px"
	 width="178.001px" height="102.833px" viewBox="0 0 178.001 102.833" enable-background="new 0 0 178.001 102.833"
	 xml:space="preserve">
<g id="Layer_5">
	<polygon fill="#FAEFEA" points="14.333,20.667 103.795,20.667 104.196,50.657 14.333,49.245 	"/>
	<polygon fill="#FAEFEA" points="173.333,54.045 173.333,102.669 4,102.669 4,54.045 122.333,54.045 144.667,34.833 	"/>
</g>
<g id="Layer_6">
	<path fill="#CCFFFF" stroke="#FFFFFF" stroke-width="3" stroke-miterlimit="10" d="M24.667,26.043c1.313,0.235,16.625,0,16.625,0
		v19.237H24.667V26.043z"/>
	<line fill="none" stroke="#FFFFFF" stroke-miterlimit="10" x1="24.667" y1="32.694" x2="41.291" y2="32.694"/>
	<line fill="none" stroke="#FFFFFF" stroke-miterlimit="10" x1="24.667" y1="39.582" x2="41.291" y2="39.582"/>
	<line fill="none" stroke="#FFFFFF" stroke-miterlimit="10" x1="32.979" y1="26.135" x2="32.979" y2="44.568"/>
	<path fill="#CCFFFF" stroke="#FFFFFF" stroke-width="3" stroke-miterlimit="10" d="M124,56.356c3.105,0.501,39.333,0,39.333,0
		v40.977H124V56.356z"/>
	<line fill="none" stroke="#FFFFFF" stroke-miterlimit="10" x1="124" y1="70.522" x2="163.333" y2="70.522"/>
	<line fill="none" stroke="#FFFFFF" stroke-miterlimit="10" x1="124" y1="85.193" x2="163.333" y2="85.193"/>
	<line fill="none" stroke="#FFFFFF" stroke-miterlimit="10" x1="143.665" y1="56.551" x2="143.667" y2="95.814"/>
	<path fill="#CCFFFF" stroke="#FFFFFF" stroke-width="3" stroke-miterlimit="10" d="M68.354,25.733c1.313,0.235,16.625,0,16.625,0
		V44.97H68.354V25.733z"/>
	<line fill="none" stroke="#FFFFFF" stroke-miterlimit="10" x1="68.354" y1="32.383" x2="84.979" y2="32.383"/>
	<line fill="none" stroke="#FFFFFF" stroke-miterlimit="10" x1="68.354" y1="39.271" x2="84.979" y2="39.271"/>
	<line fill="none" stroke="#FFFFFF" stroke-miterlimit="10" x1="76.666" y1="25.825" x2="76.667" y2="44.257"/>
	<path fill="#CCFFFF" stroke="#FFFFFF" stroke-width="3" stroke-miterlimit="10" d="M64.667,60.667c1.313,0.235,16.625,0,16.625,0
		v19.237H64.667V60.667z"/>
	<line fill="none" stroke="#FFFFFF" stroke-miterlimit="10" x1="64.667" y1="67.317" x2="81.292" y2="67.317"/>
	<line fill="none" stroke="#FFFFFF" stroke-miterlimit="10" x1="64.667" y1="74.205" x2="81.292" y2="74.205"/>
	<line fill="none" stroke="#FFFFFF" stroke-miterlimit="10" x1="72.979" y1="60.758" x2="72.979" y2="79.191"/>
	<path fill="#CCFFFF" stroke="#FFFFFF" stroke-width="3" stroke-miterlimit="10" d="M93.687,60.667c1.313,0.235,16.625,0,16.625,0
		v19.237H93.687V60.667z"/>
	<line fill="none" stroke="#FFFFFF" stroke-miterlimit="10" x1="93.687" y1="67.317" x2="110.312" y2="67.317"/>
	<line fill="none" stroke="#FFFFFF" stroke-miterlimit="10" x1="93.687" y1="74.205" x2="110.312" y2="74.205"/>
	<line fill="none" stroke="#FFFFFF" stroke-miterlimit="10" x1="101.999" y1="60.758" x2="102" y2="79.191"/>
	<path fill="#CCFFFF" stroke="#FFFFFF" stroke-width="3" stroke-miterlimit="10" d="M6.021,60.667c1.313,0.235,16.625,0,16.625,0
		v19.237H6.021V60.667z"/>
	<line fill="none" stroke="#FFFFFF" stroke-miterlimit="10" x1="6.021" y1="67.317" x2="22.646" y2="67.317"/>
	<line fill="none" stroke="#FFFFFF" stroke-miterlimit="10" x1="6.021" y1="74.205" x2="22.646" y2="74.205"/>
	<line fill="none" stroke="#FFFFFF" stroke-miterlimit="10" x1="14.333" y1="60.758" x2="14.333" y2="79.191"/>
	<path fill="#CCFFFF" stroke="#FFFFFF" stroke-width="3" stroke-miterlimit="10" d="M132.218,32.093
		c9.681,1.441-0.996,0.589,18.893,0l12.61,23.747H124L132.218,32.093z"/>
	<line fill="none" stroke="#FFFFFF" stroke-miterlimit="10" x1="127" y1="43.912" x2="166.721" y2="43.912"/>
	<line fill="none" stroke="#FFFFFF" stroke-miterlimit="10" x1="127" y1="50.439" x2="166.721" y2="50.439"/>
	<line fill="none" stroke="#FFFFFF" stroke-miterlimit="10" x1="143.859" y1="37.695" x2="143.862" y2="55.165"/>
</g>
<g id="Layer_4">
	<rect x="35" y="60.667" fill="#873629" width="19.333" height="38"/>
	<polygon fill="#873629" points="0,55.667 13.891,49 102.318,49 102.318,16.667 153.639,16.667 178.001,55.667 163.333,55.109 
		143.895,36.167 123.755,55.667 	"/>
	<polygon fill="#873629" points="18.298,0 44.527,0 100.034,0 104,22.667 14.333,22.667 	"/>
	<circle fill="#FFCCCC" stroke="#FFFFFF" stroke-miterlimit="10" cx="36.7" cy="81.604" r="1.7"/>
</g>
<g id="Layer_7">
	<rect x="42.917" y="24.614" fill="#873629" width="6.833" height="22.097"/>
	<line fill="none" stroke="#330000" stroke-miterlimit="10" x1="44.667" y1="26.333" x2="48" y2="26.333"/>
	<line fill="none" stroke="#330000" stroke-miterlimit="10" x1="44.667" y1="28.333" x2="48" y2="28.333"/>
	<line fill="none" stroke="#330000" stroke-miterlimit="10" x1="44.667" y1="30.333" x2="48" y2="30.333"/>
	<line fill="none" stroke="#330000" stroke-miterlimit="10" x1="44.667" y1="38.333" x2="48" y2="38.333"/>
	<line fill="none" stroke="#330000" stroke-miterlimit="10" x1="44.667" y1="40.333" x2="48" y2="40.333"/>
	<line fill="none" stroke="#330000" stroke-miterlimit="10" x1="44.667" y1="42.333" x2="48" y2="42.333"/>
	<line fill="none" stroke="#330000" stroke-miterlimit="10" x1="44.667" y1="44.333" x2="48" y2="44.333"/>
	<line fill="none" stroke="#330000" stroke-miterlimit="10" x1="44.667" y1="32.333" x2="48" y2="32.333"/>
	<line fill="none" stroke="#330000" stroke-miterlimit="10" x1="44.667" y1="36.333" x2="48" y2="36.333"/>
	<line fill="none" stroke="#330000" stroke-miterlimit="10" x1="44.667" y1="34.333" x2="48" y2="34.333"/>
	<rect x="16.333" y="24.614" fill="#873629" width="6.833" height="22.097"/>
	<line fill="none" stroke="#330000" stroke-miterlimit="10" x1="18.083" y1="26.333" x2="21.416" y2="26.333"/>
	<line fill="none" stroke="#330000" stroke-miterlimit="10" x1="18.083" y1="28.333" x2="21.416" y2="28.333"/>
	<line fill="none" stroke="#330000" stroke-miterlimit="10" x1="18.083" y1="30.333" x2="21.416" y2="30.333"/>
	<line fill="none" stroke="#330000" stroke-miterlimit="10" x1="18.083" y1="38.333" x2="21.416" y2="38.333"/>
	<line fill="none" stroke="#330000" stroke-miterlimit="10" x1="18.083" y1="40.333" x2="21.416" y2="40.333"/>
	<line fill="none" stroke="#330000" stroke-miterlimit="10" x1="18.083" y1="42.333" x2="21.416" y2="42.333"/>
	<line fill="none" stroke="#330000" stroke-miterlimit="10" x1="18.083" y1="44.333" x2="21.416" y2="44.333"/>
	<line fill="none" stroke="#330000" stroke-miterlimit="10" x1="18.083" y1="32.333" x2="21.416" y2="32.333"/>
	<line fill="none" stroke="#330000" stroke-miterlimit="10" x1="18.083" y1="36.333" x2="21.416" y2="36.333"/>
	<line fill="none" stroke="#330000" stroke-miterlimit="10" x1="18.083" y1="34.333" x2="21.416" y2="34.333"/>
	<rect x="60.333" y="24.303" fill="#873629" width="6.833" height="22.097"/>
	<line fill="none" stroke="#330000" stroke-miterlimit="10" x1="62.083" y1="26.023" x2="65.416" y2="26.023"/>
	<line fill="none" stroke="#330000" stroke-miterlimit="10" x1="62.083" y1="28.023" x2="65.416" y2="28.023"/>
	<line fill="none" stroke="#330000" stroke-miterlimit="10" x1="62.083" y1="30.023" x2="65.416" y2="30.023"/>
	<line fill="none" stroke="#330000" stroke-miterlimit="10" x1="62.083" y1="38.023" x2="65.416" y2="38.023"/>
	<line fill="none" stroke="#330000" stroke-miterlimit="10" x1="62.083" y1="40.023" x2="65.416" y2="40.023"/>
	<line fill="none" stroke="#330000" stroke-miterlimit="10" x1="62.083" y1="42.023" x2="65.416" y2="42.023"/>
	<line fill="none" stroke="#330000" stroke-miterlimit="10" x1="62.083" y1="44.023" x2="65.416" y2="44.023"/>
	<line fill="none" stroke="#330000" stroke-miterlimit="10" x1="62.083" y1="32.023" x2="65.416" y2="32.023"/>
	<line fill="none" stroke="#330000" stroke-miterlimit="10" x1="62.083" y1="36.023" x2="65.416" y2="36.023"/>
	<line fill="none" stroke="#330000" stroke-miterlimit="10" x1="62.083" y1="34.023" x2="65.416" y2="34.023"/>
	<rect x="86.854" y="24.303" fill="#873629" width="6.833" height="22.097"/>
	<line fill="none" stroke="#330000" stroke-miterlimit="10" x1="88.604" y1="26.023" x2="91.937" y2="26.023"/>
	<line fill="none" stroke="#330000" stroke-miterlimit="10" x1="88.604" y1="28.023" x2="91.937" y2="28.023"/>
	<line fill="none" stroke="#330000" stroke-miterlimit="10" x1="88.604" y1="30.023" x2="91.937" y2="30.023"/>
	<line fill="none" stroke="#330000" stroke-miterlimit="10" x1="88.604" y1="38.023" x2="91.937" y2="38.023"/>
	<line fill="none" stroke="#330000" stroke-miterlimit="10" x1="88.604" y1="40.023" x2="91.937" y2="40.023"/>
	<line fill="none" stroke="#330000" stroke-miterlimit="10" x1="88.604" y1="42.023" x2="91.937" y2="42.023"/>
	<line fill="none" stroke="#330000" stroke-miterlimit="10" x1="88.604" y1="44.023" x2="91.937" y2="44.023"/>
	<line fill="none" stroke="#330000" stroke-miterlimit="10" x1="88.604" y1="32.023" x2="91.937" y2="32.023"/>
	<line fill="none" stroke="#330000" stroke-miterlimit="10" x1="88.604" y1="36.023" x2="91.937" y2="36.023"/>
	<line fill="none" stroke="#330000" stroke-miterlimit="10" x1="88.604" y1="34.023" x2="91.937" y2="34.023"/>
	<rect x="113.333" y="58.926" fill="#873629" width="6.833" height="22.097"/>
	<line fill="none" stroke="#330000" stroke-miterlimit="10" x1="115.083" y1="60.646" x2="118.417" y2="60.646"/>
	<line fill="none" stroke="#330000" stroke-miterlimit="10" x1="115.083" y1="62.646" x2="118.417" y2="62.646"/>
	<line fill="none" stroke="#330000" stroke-miterlimit="10" x1="115.083" y1="64.646" x2="118.417" y2="64.646"/>
	<line fill="none" stroke="#330000" stroke-miterlimit="10" x1="115.083" y1="72.646" x2="118.417" y2="72.646"/>
	<line fill="none" stroke="#330000" stroke-miterlimit="10" x1="115.083" y1="74.646" x2="118.417" y2="74.646"/>
	<line fill="none" stroke="#330000" stroke-miterlimit="10" x1="115.083" y1="76.646" x2="118.417" y2="76.646"/>
	<line fill="none" stroke="#330000" stroke-miterlimit="10" x1="115.083" y1="78.646" x2="118.417" y2="78.646"/>
	<line fill="none" stroke="#330000" stroke-miterlimit="10" x1="115.083" y1="66.646" x2="118.417" y2="66.646"/>
	<line fill="none" stroke="#330000" stroke-miterlimit="10" x1="115.083" y1="70.646" x2="118.417" y2="70.646"/>
	<line fill="none" stroke="#330000" stroke-miterlimit="10" x1="115.083" y1="68.646" x2="118.417" y2="68.646"/>
	<rect x="85.187" y="58.926" fill="#873629" width="6.833" height="22.097"/>
	<line fill="none" stroke="#330000" stroke-miterlimit="10" x1="86.937" y1="60.646" x2="90.27" y2="60.646"/>
	<line fill="none" stroke="#330000" stroke-miterlimit="10" x1="86.937" y1="62.646" x2="90.27" y2="62.646"/>
	<line fill="none" stroke="#330000" stroke-miterlimit="10" x1="86.937" y1="64.646" x2="90.27" y2="64.646"/>
	<line fill="none" stroke="#330000" stroke-miterlimit="10" x1="86.937" y1="72.646" x2="90.27" y2="72.646"/>
	<line fill="none" stroke="#330000" stroke-miterlimit="10" x1="86.937" y1="74.646" x2="90.27" y2="74.646"/>
	<line fill="none" stroke="#330000" stroke-miterlimit="10" x1="86.937" y1="76.646" x2="90.27" y2="76.646"/>
	<line fill="none" stroke="#330000" stroke-miterlimit="10" x1="86.937" y1="78.646" x2="90.27" y2="78.646"/>
	<line fill="none" stroke="#330000" stroke-miterlimit="10" x1="86.937" y1="66.646" x2="90.27" y2="66.646"/>
	<line fill="none" stroke="#330000" stroke-miterlimit="10" x1="86.937" y1="70.646" x2="90.27" y2="70.646"/>
	<line fill="none" stroke="#330000" stroke-miterlimit="10" x1="86.937" y1="68.646" x2="90.27" y2="68.646"/>
</g>
<g id="Layer_3">
	<line fill="none" stroke="#FFFFFF" stroke-width="3" stroke-miterlimit="10" x1="4" y1="86.667" x2="24.667" y2="86.667"/>
	<line fill="none" stroke="#FFFFFF" stroke-width="3" stroke-miterlimit="10" x1="57.333" y1="86.667" x2="113.333" y2="86.667"/>
	<line fill="none" stroke="#FFFFFF" stroke-miterlimit="10" x1="8.333" y1="86.667" x2="8.333" y2="101.333"/>
	<line fill="none" stroke="#FFFFFF" stroke-miterlimit="10" x1="12.333" y1="86.667" x2="12.333" y2="101.333"/>
	<line fill="none" stroke="#FFFFFF" stroke-miterlimit="10" x1="16.333" y1="86.667" x2="16.333" y2="101.333"/>
	<line fill="none" stroke="#FFFFFF" stroke-miterlimit="10" x1="20.667" y1="86.667" x2="20.667" y2="101.333"/>
	<line fill="none" stroke="#FFFFFF" stroke-miterlimit="10" x1="61.667" y1="86.667" x2="61.667" y2="101.333"/>
	<line fill="none" stroke="#FFFFFF" stroke-miterlimit="10" x1="64.667" y1="86.667" x2="64.667" y2="101.333"/>
	<line fill="none" stroke="#FFFFFF" stroke-miterlimit="10" x1="68" y1="86.667" x2="68" y2="101.333"/>
	<line fill="none" stroke="#FFFFFF" stroke-miterlimit="10" x1="71.667" y1="86.667" x2="71.667" y2="101.333"/>
	<line fill="none" stroke="#FFFFFF" stroke-miterlimit="10" x1="76.667" y1="86.667" x2="76.667" y2="101.333"/>
	<line fill="none" stroke="#FFFFFF" stroke-miterlimit="10" x1="81.667" y1="86.667" x2="81.667" y2="101.333"/>
	<line fill="none" stroke="#FFFFFF" stroke-miterlimit="10" x1="85.333" y1="86.667" x2="85.333" y2="101.333"/>
	<line fill="none" stroke="#FFFFFF" stroke-miterlimit="10" x1="89" y1="86.667" x2="89" y2="101.333"/>
	<line fill="none" stroke="#FFFFFF" stroke-miterlimit="10" x1="92.333" y1="86.667" x2="92.333" y2="101.333"/>
	<line fill="none" stroke="#FFFFFF" stroke-miterlimit="10" x1="95.667" y1="87.999" x2="95.667" y2="100"/>
	<line fill="none" stroke="#FFFFFF" stroke-miterlimit="10" x1="99" y1="87.999" x2="99" y2="100"/>
	<line fill="none" stroke="#FFFFFF" stroke-miterlimit="10" x1="102" y1="87.999" x2="102" y2="100"/>
	<line fill="none" stroke="#FFFFFF" stroke-miterlimit="10" x1="105.667" y1="87.999" x2="105.667" y2="100"/>
	<line fill="none" stroke="#FFFFFF" stroke-miterlimit="10" x1="109" y1="87.999" x2="109" y2="100"/>
</g>
<g id="Layer_2">
	<polyline fill="none" stroke="#FFFFFF" stroke-width="3" stroke-miterlimit="10" points="4,55.667 4,101.333 125.333,101.333 	"/>
	<line fill="none" stroke="#FFFFFF" stroke-width="3" stroke-miterlimit="10" x1="113.333" y1="55.667" x2="113.333" y2="101.333"/>
	<line fill="none" stroke="#FFFFFF" stroke-width="3" stroke-miterlimit="10" x1="77" y1="55.667" x2="77" y2="101.333"/>
	<line fill="none" stroke="#FFFFFF" stroke-width="3" stroke-miterlimit="10" x1="57.333" y1="55.667" x2="57.333" y2="100"/>
	<line fill="none" stroke="#FFFFFF" stroke-width="3" stroke-miterlimit="10" x1="24.667" y1="55.667" x2="24.667" y2="100"/>
</g>
</svg>
