<?xml version="1.0" encoding="utf-8"?>
<!-- Generator: Adobe Illustrator 16.0.0, SVG Export Plug-In . SVG Version: 6.00 Build 0)  -->
<!DOCTYPE svg PUBLIC "-//W3C//DTD SVG 1.1//EN" "http://www.w3.org/Graphics/SVG/1.1/DTD/svg11.dtd">
<svg version="1.1" xmlns="http://www.w3.org/2000/svg" xmlns:xlink="http://www.w3.org/1999/xlink" x="0px" y="0px"
	 width="60.689px" height="151.527px" viewBox="0 0 60.689 151.527" enable-background="new 0 0 60.689 151.527"
	 xml:space="preserve">
<g id="Layer_6">
	<path fill="#FFFFFF" stroke="#FFFFFF" stroke-linecap="round" stroke-linejoin="round" stroke-miterlimit="10" d="M30.535,31.5
		l7.34-6.54l2.63,0.92l5.03,17.36L30.915,77.5l-18.38-35.25c0,0,6.616-16.036,7.65-16.37s2.85-0.92,2.85-0.92L30.535,31.5z"/>
</g>
<g id="Layer_2">
	<g>
		<path fill="#F4D7D1" d="M32.785,3.613c-0.019,1.285,2.019,0.226,2,1.511C30.307-0.884,23.463,3.29,22.54,6.21
			c-1.432,4.531-0.505,12.047,2.067,15.709c7.828,11.143,15.939-10.356,9.805-18.155"/>
		<g>
			<path fill="#F4D7D1" d="M32.062,3.812c0.38,0.991,1.784,0.95,2,1.511c0.418-0.243,0.835-0.486,1.253-0.729
				c-3.316-3.957-10.959-4.741-13.304,0.947c-2.249,5.454-0.993,15.541,4.173,19.159c4.334,3.037,7.843-1.188,9.48-5.007
				c2.109-4.92,2.679-11.766-0.604-16.306c-0.561-0.776-1.863-0.028-1.295,0.757c2.406,3.328,2.354,7.661,1.582,11.531
				c-0.595,2.982-2.34,8.172-5.941,8.628c-5.252,0.666-6.63-9.188-6.781-12.479c-0.137-2.97,0.16-5.896,2.679-7.747
				c3.104-2.281,6.641-1.179,8.951,1.578c0.473,0.564,1.52-0.036,1.253-0.729c-0.38-0.99-1.785-0.951-2-1.511
				C33.165,2.52,31.714,2.908,32.062,3.812L32.062,3.812z"/>
		</g>
	</g>
	<g>
		<path fill="#F4D7D1" d="M21.535,14.5c-0.25-0.5-0.5-1-1.25-1c-0.5,2,1,5.25,2.75,5.75"/>
		<g>
			<path fill="#F4D7D1" d="M22.182,14.122c-0.435-0.846-0.95-1.261-1.897-1.372c-0.311-0.037-0.662,0.254-0.723,0.551
				c-0.5,2.435,0.789,5.804,3.274,6.672c0.916,0.32,1.306-1.129,0.398-1.446c-1.659-0.58-2.552-3.243-2.226-4.828
				c-0.241,0.184-0.482,0.367-0.723,0.551c0.37,0.043,0.454,0.339,0.603,0.628C21.33,15.739,22.624,14.98,22.182,14.122
				L22.182,14.122z"/>
		</g>
	</g>
	<polyline fill="#F4D7D1" stroke="#F4D7D1" stroke-miterlimit="10" points="24.274,25.88 25.36,23.5 34.535,21.5 34.535,27.5 
		29.575,31.505 	"/>
	<path fill="none" stroke="#F1A793" stroke-miterlimit="10" d="M28.285,13.5c0,0-1.383,5.25,0.934,4.5"/>
	<path stroke="#000000" stroke-linecap="round" stroke-linejoin="round" stroke-miterlimit="10" d="M21.535,11.5v-1.25V0.5
		l2.446,1.557L25.36,0.5l2.515,1.557l0.485-0.284l0.521-0.305L30.535,0.5l1.772,1.557L33.785,0.5L35.5,2.057L37.217,0.5L36.535,11
		c0,0-1.647-8.943-8.66-8.943S21.762,12,21.762,12"/>
	<g>
		<path fill="#F4D7D1" d="M37.937,13.5c0.5,2-1,5.25-2.75,5.75"/>
		<g>
			<path fill="#F4D7D1" d="M37.214,13.699c0.326,1.584-0.567,4.248-2.226,4.828c-0.907,0.317-0.517,1.767,0.398,1.446
				c2.485-0.869,3.774-4.238,3.274-6.672C38.465,12.354,37.02,12.755,37.214,13.699L37.214,13.699z"/>
		</g>
	</g>
	<g>
		<g>
			<path d="M24.535,13.75c1.935,0,1.935-3,0-3S22.6,13.75,24.535,13.75L24.535,13.75z"/>
		</g>
	</g>
	<g>
		<g>
			<path d="M32.535,13.25c1.935,0,1.935-3,0-3S30.6,13.25,32.535,13.25L32.535,13.25z"/>
		</g>
	</g>
	<path fill="#CCFFFF" d="M37.035,41.5h5c0,0,2.75,5.75-2.5,6S37.035,41.5,37.035,41.5z"/>
</g>
<g id="Layer_5">
	<path fill="#996633" stroke="#000000" stroke-linecap="round" stroke-linejoin="round" stroke-miterlimit="10" d="M21.368,143.735
		c0,0,1.443,2.467,1.187,4.335c-0.06,0.44-0.214,0.847-0.503,1.18c-1.518,1.75-10.018,0-10.018,0s-0.977-0.772-1-2.369
		c-0.012-0.826,0.232-1.872,1-3.146"/>
	<path fill="none" stroke="#000000" stroke-linecap="round" stroke-linejoin="round" stroke-miterlimit="10" d="M12.535,146.882
		c0,0,4.25-5.118,8.5,0"/>
	<path fill="#996633" stroke="#000000" stroke-linecap="round" stroke-linejoin="round" stroke-miterlimit="10" d="M38.252,143.735
		c0,0-2.443,3.467-2.187,5.335c0.06,0.44,0.214,0.847,0.503,1.18c1.518,1.75,10.018,0,10.018,0s0.977-0.772,1-2.369
		c0.012-0.826-0.232-1.872-1-3.146"/>
	<path fill="none" stroke="#000000" stroke-linecap="round" stroke-linejoin="round" stroke-miterlimit="10" d="M46.085,147.882
		c0,0-4.25-5.118-8.5,0"/>
</g>
<g id="Layer_4">
	<path fill="none" stroke="#6699FF" stroke-linecap="round" stroke-linejoin="round" stroke-miterlimit="10" d="M45.535,73"/>
	<path fill="#6699FF" stroke="#6699FF" stroke-linecap="round" stroke-linejoin="round" stroke-miterlimit="10" d="M14.535,75.25
		c0,0-4.548,25.587-4.191,33.752s2.085,33.999,2.085,33.999s7.974,3,9.623,0c0,0-0.351-26.751,1.149-33.209
		s7.708-15.595,7.708-15.595s7.833,10.47,7.313,18.97s-2.021,30-2.021,30s6.667,3.501,11,0.834c0.584-0.359,3.167-26,4.167-34.286
		S45.535,73,45.535,73"/>
	
		<line fill="none" stroke="#3366CC" stroke-linecap="round" stroke-linejoin="round" stroke-miterlimit="10" x1="38.225" y1="109.715" x2="45.535" y2="105.567"/>
	
		<line fill="none" stroke="#3366CC" stroke-linecap="round" stroke-linejoin="round" stroke-miterlimit="10" x1="38.035" y1="112" x2="42.035" y2="112"/>
	
		<line fill="none" stroke="#3366CC" stroke-linecap="round" stroke-linejoin="round" stroke-miterlimit="10" x1="38.222" y1="113.167" x2="41.816" y2="115.75"/>
	
		<line fill="none" stroke="#3366CC" stroke-linecap="round" stroke-linejoin="round" stroke-miterlimit="10" x1="23.035" y1="110.649" x2="17.36" y2="109.002"/>
	<path fill="none" stroke="#3366CC" stroke-linecap="round" stroke-linejoin="round" stroke-miterlimit="10" d="M23.035,112
		c0,0-7.85-0.5-5.675,0"/>
	
		<line fill="none" stroke="#3366CC" stroke-linecap="round" stroke-linejoin="round" stroke-miterlimit="10" x1="21.762" y1="115.75" x2="20.007" y2="116.809"/>
	<path fill="none" stroke="#3366CC" stroke-linecap="round" stroke-linejoin="round" stroke-miterlimit="10" d="M39.217,141.5
		c0,0,3.901,1.795,6.318,0"/>
	<path fill="none" stroke="#3366CC" stroke-linecap="round" stroke-linejoin="round" stroke-miterlimit="10" d="M14.535,141.5
		c0,0,3.449,1.005,5.472,0"/>
	<path fill="none" stroke="#3366CC" stroke-linecap="round" stroke-linejoin="round" stroke-miterlimit="10" d="M40.415,83.141
		c0,0-8.13,11.859,1.62,8.859"/>
	<path fill="none" stroke="#3366CC" stroke-linecap="round" stroke-linejoin="round" stroke-miterlimit="10" d="M20.007,82
		c0.778,0.25,9.528,12.24-1.722,8.62"/>
</g>
<g id="Layer_3">
	<g id="XMLID_1_">
		<g>
			<path fill="#CCFFFF" d="M60.155,61.62c0.87,13.439-15,29-15,29c1.12-6.62-2-9-2-9s17.03-17.15,3-36.24l-0.62-2.14V41.5l-0.3,0.69
				l-4.67-16.11l-0.06-0.2C40.505,25.88,57.515,20.83,60.155,61.62z"/>
			<path fill="#CCFFFF" d="M45.535,43.24V73c-2,2.38-14.62,1.62-14.62,1.62l14.32-32.43L45.535,43.24z"/>
			<polygon fill="#CCFFFF" points="45.535,41.5 45.535,43.24 45.235,42.19 			"/>
			<path fill="#CCFFFF" d="M30.535,31.82V74.5l-0.12-42.62C30.455,31.86,30.495,31.84,30.535,31.82z"/>
			<path fill="#CCFFFF" d="M30.535,31.73v0.09c-0.04,0.02-0.08,0.04-0.12,0.06C30.415,31.88,30.455,31.83,30.535,31.73z"/>
			<path fill="#CCFFFF" d="M30.535,31.5v0.23c-0.08,0.1-0.12,0.15-0.12,0.15l-10.23-6l2.85-0.92
				C27.535,28.18,30.535,31.5,30.535,31.5z"/>
			<path fill="#CCFFFF" d="M15.555,41.87l14.02,32.74c0,0-0.02,0-0.06,0.01c-0.86,0.18-10.21,2.06-14.98,0.63V45.38L15.555,41.87z"
				/>
			<path fill="#CCFFFF" d="M20.185,25.88l-4.63,15.99l-1.02-2.37v5.88c-14.03,19.09,3,36.24,3,36.24c-2,1.26-2,9-2,9
				s-15.87-15.561-15-29C3.165,20.83,20.185,25.88,20.185,25.88z"/>
			<polygon fill="#CCFFFF" points="15.555,41.87 14.535,45.38 14.535,39.5 			"/>
		</g>
		<g>
			<path fill="none" stroke="#000066" stroke-linecap="round" stroke-linejoin="round" stroke-miterlimit="10" d="M30.535,31.73
				c0.82-0.99,5.49-6.57,7.34-6.77l2.54,1.16c0,0-6.25,3.92-9.88,5.7"/>
			<path fill="none" stroke="#000066" stroke-linecap="round" stroke-linejoin="round" stroke-miterlimit="10" d="M30.535,74.5
				V31.82v-0.09V31.5c0,0-3-3.32-7.5-6.54l-2.85,0.92l10.23,6"/>
			<path fill="none" stroke="#000066" stroke-linecap="round" stroke-linejoin="round" stroke-miterlimit="10" d="M30.915,74.62
				c0,0,12.62,0.76,14.62-1.62V43.24"/>
			<path fill="none" stroke="#000066" stroke-linecap="round" stroke-linejoin="round" stroke-miterlimit="10" d="M29.575,74.61
				c0,0-0.02,0-0.06,0.01c-0.86,0.18-10.21,2.06-14.98,0.63V45.38"/>
			<path fill="none" stroke="#000066" stroke-linecap="round" stroke-linejoin="round" stroke-miterlimit="10" d="M20.185,25.88
				c0,0-17.02-5.05-19.65,35.74c-0.87,13.439,15,29,15,29s0-7.74,2-9c0,0-17.03-17.15-3-36.24"/>
			<path fill="none" stroke="#000066" stroke-linecap="round" stroke-linejoin="round" stroke-miterlimit="10" d="M46.155,45.38
				c14.03,19.09-3,36.24-3,36.24s3.12,2.38,2,9c0,0,15.87-15.561,15-29c-2.64-40.79-19.65-35.74-19.65-35.74"/>
		</g>
	</g>
	<path fill="none" stroke="#000000" stroke-miterlimit="10" d="M30.915,10.25c0,0,3.12-0.75,3.62,0"/>
	<path fill="none" stroke="#000000" stroke-miterlimit="10" d="M22.915,10.25c0,0,3.12-0.75,3.62,0"/>
</g>
</svg>
