<?xml version="1.0" encoding="utf-8"?>
<!-- Generator: Adobe Illustrator 16.0.0, SVG Export Plug-In . SVG Version: 6.00 Build 0)  -->
<!DOCTYPE svg PUBLIC "-//W3C//DTD SVG 1.1//EN" "http://www.w3.org/Graphics/SVG/1.1/DTD/svg11.dtd">
<svg version="1.1" xmlns="http://www.w3.org/2000/svg" xmlns:xlink="http://www.w3.org/1999/xlink" x="0px" y="0px"
	 width="117.167px" height="248.521px" viewBox="0 0 117.167 248.521" enable-background="new 0 0 117.167 248.521"
	 xml:space="preserve">
<g id="Layer_6">
	<g>
		<g>
			<path fill="#F1A793" d="M86.386,20.507c0.389,1.011,0.779,2.022,1.168,3.033c0.293,0.762,0.998,1.281,1.845,1.047
				c0.729-0.201,1.342-1.081,1.047-1.845c-0.389-1.011-0.779-2.022-1.168-3.033c-0.293-0.762-0.998-1.281-1.845-1.047
				C86.704,18.863,86.092,19.743,86.386,20.507L86.386,20.507z"/>
		</g>
	</g>
	<g>
		<g>
			<path fill="#F4D7D1" d="M96.886,40.24c2.357,1.93,6.031,2.892,9.013,2.305c0.814-0.16,1.237-1.099,1.047-1.845
				c-0.226-0.892-0.614-1.557-1.254-2.214c-0.606,0.785-1.212,1.57-1.818,2.356c0.905,0.427,1.432,0.972,2.487,1.021
				c0.966,0.044,1.717-0.993,1.446-1.899c-0.335-1.12-0.66-1.977-1.386-2.904c-0.486,0.835-0.973,1.671-1.459,2.507
				c0.315,0.089,0.63,0.178,0.946,0.267c1.866,0.527,2.654-2.361,0.797-2.893c-0.013-0.003-0.025-0.007-0.038-0.011
				c0.367,0.482,0.734,0.964,1.101,1.446c-0.048-1.511-0.204-2.056-1.137-3.219c-0.606,0.785-1.212,1.57-1.817,2.356
				c1.47,0.792,3.039,0.503,3.25-1.341c0.213-1.867-2.82-2.268-4.035-2.087c-2.765,0.41-6.98,3.095-5.563,6.364
				c0.786-0.605,1.571-1.211,2.356-1.817c-0.564-0.602-1.313-0.887-2.09-1.115c0,0.964,0,1.928,0,2.893
				c1.009-0.272,1.844-0.754,2.603-1.472c-0.835-0.486-1.671-0.973-2.507-1.459c-0.143,0.504-0.285,1.009-0.427,1.513
				c0.914-0.119,1.828-0.239,2.742-0.358c-0.019-0.039-0.037-0.078-0.056-0.118c0,0.505,0,1.01,0,1.514
				c0.007,0.023,0.014,0.047,0.021,0.07c-0.615-0.615-1.23-1.23-1.845-1.845c-0.214,0.76-0.645,1.654-0.168,2.401
				c0.382,0.598,1.009,0.831,1.694,0.689c1.2-0.248,2.912-1.451,3.581-2.46c-0.864-0.504-1.727-1.009-2.591-1.514
				c-0.481,0.894-1.95,1.123-2.489,2.123c-0.821,1.528,1.089,2.958,2.356,1.818c0.955-0.859,2.375-1.135,3.025-2.341
				c-0.914-0.12-1.828-0.239-2.742-0.358c-0.098-0.543-0.161,0.452-0.173,0.522c-0.07,0.386-0.018,0.696,0.05,1.076
				c0.218,1.217,2.238,1.533,2.742,0.358c0.171-0.4,0.403-0.764,0.645-1.126c-0.914-0.385-1.828-0.771-2.742-1.156
				c-0.143,0.505-0.285,1.009-0.427,1.514c-0.381,1.354,1.063,2.235,2.203,1.694c0.357-0.169,0.655-0.337,0.862-0.692
				c0.094-0.188,0.167-0.382,0.22-0.584c0.066-0.503,0.071-0.532,0.015-0.085c-0.932-0.252-1.864-0.505-2.795-0.757
				c0.087,0.729,0.22,1.174,0.553,1.836c0.557,1.106,2.526,0.917,2.742-0.358c0.154-0.911,0.208-1.897-0.093-2.784
				c-0.482,0.633-0.964,1.266-1.446,1.899c-0.891-0.696-1.1-0.775-0.628-0.236c0.238,0.194,0.431,0.362,0.736,0.446
				c0.618,0.17,1.167-0.095,1.642-0.462c0.694-0.535,0.922-1.237,0.539-2.053c-0.588-1.25-1.986-1.376-2.96-0.474
				c0.854,0.354,1.707,0.707,2.561,1.061c-0.028-0.724,0.26-1.466,0.295-2.204c0.051-1.091-1.331-1.932-2.257-1.295
				c-0.368,0.252-0.876,0.875-1.279,1.021c0.615,0.615,1.23,1.23,1.845,1.845c0.021-0.022,0.043-0.043,0.064-0.065
				c-0.298,0.23-0.597,0.459-0.896,0.689c0.085-0.032,0.171-0.064,0.257-0.097c-0.565-0.734-1.129-1.469-1.694-2.204
				c-0.344,0.448-0.688,0.896-1.033,1.344c-0.883,1.148,0.566,2.431,1.694,2.203c0.193-0.039,0.932-0.292,0.68-0.295
				c-0.432-0.752-0.863-1.505-1.295-2.257c-0.871,1.678-0.521,2.786,1.02,3.82c1.611,1.081,3.111-1.519,1.514-2.591
				c-0.463-0.361-0.444-0.266,0.058,0.285c0.522-1.007-0.12-2.24-1.295-2.257c-0.619-0.009-0.941,0.294-1.478,0.403
				c0.565,0.734,1.129,1.469,1.694,2.203c0.344-0.447,0.688-0.896,1.033-1.343c0.792-1.03-0.521-2.647-1.694-2.204
				c-0.825,0.312-1.221,0.737-1.52,1.567c-0.375,1.04,0.804,2.222,1.845,1.845c0.837-0.303,1.282-0.833,1.995-1.323
				c-0.752-0.432-1.504-0.864-2.257-1.295c-0.036,0.758-0.325,1.437-0.295,2.204c0.052,1.325,1.586,1.962,2.561,1.061
				c-0.202,0.098-0.404,0.195-0.605,0.292c-0.432-0.248-0.864-0.496-1.295-0.743c0.05,0.106,0.1,0.212,0.149,0.318
				c0.18-0.685,0.359-1.369,0.539-2.053c-0.043,0.053-0.086,0.106-0.128,0.16c0.486,0.128,0.973,0.257,1.459,0.386
				c0.458,0.375-0.457-0.42-0.437-0.405c-0.341-0.26-0.716-0.295-1.13-0.297c-0.933-0.006-1.762,0.97-1.446,1.899
				c0.125,0.368,0.158,0.801,0.093,1.188c0.914-0.119,1.828-0.239,2.742-0.358c-0.048-0.107-0.096-0.214-0.144-0.322
				c-0.183-1.534-1.862-1.98-2.795-0.757c-0.261,0.342-0.266,0.634-0.386,1.028c0.23-0.299,0.46-0.598,0.689-0.896
				c-0.108,0.051-0.216,0.103-0.324,0.153c0.734,0.565,1.469,1.129,2.203,1.694c0.142-0.505,0.285-1.009,0.427-1.514
				c0.48-1.696-1.82-2.536-2.742-1.156c-0.241,0.361-0.473,0.725-0.645,1.126c0.914,0.119,1.828,0.239,2.742,0.358
				c0.098,0.543,0.161-0.454,0.174-0.523c0.07-0.386,0.018-0.696-0.05-1.075c-0.233-1.292-2.156-1.444-2.742-0.358
				c-0.378,0.702-1.927,1.169-2.555,1.735c0.785,0.606,1.57,1.212,2.356,1.818c0.48-0.894,1.95-1.124,2.489-2.124
				c0.923-1.714-1.527-3.12-2.591-1.514c-0.054,0.082-1.738,1.071-1.787,1.081c0.564,0.23,1.129,0.46,1.694,0.689
				c-0.007-0.012-0.015-0.023-0.022-0.035c0.05,0.385,0.101,0.771,0.151,1.156c0.114-0.404,0.228-0.807,0.341-1.21
				c0.338-1.202-0.761-2.01-1.845-1.845c-0.787,0.12-1.377,0.68-1.813,1.309c-0.318,0.459-0.221,1.048,0,1.514
				c0.019,0.04,0.037,0.079,0.056,0.118c0.577,1.219,2.412,0.809,2.742-0.358c0.143-0.504,0.285-1.009,0.427-1.513
				c0.418-1.479-1.434-2.474-2.507-1.459c-0.396,0.375-0.759,0.56-1.279,0.7c-1.455,0.392-1.41,2.479,0,2.893
				c0.275,0.081,0.561,0.125,0.767,0.344c1.258,1.341,2.989-0.358,2.356-1.817c0.209,0.482,0.153,0.032,0.528-0.371
				c0.381-0.41,0.854-0.698,1.334-0.975c0.622-0.357,1.95-0.958,2.584-0.357c-0.146-0.354-0.293-0.707-0.439-1.061
				c-0.009,0.081-0.019,0.162-0.028,0.243c0.248-0.432,0.495-0.863,0.743-1.295c-0.057,0.025-0.114,0.05-0.171,0.076
				c0.385-0.05,0.771-0.101,1.156-0.151c-0.184-0.027-0.282-0.039-0.436-0.122c-1.58-0.852-2.853,1.064-1.817,2.356
				c0.179,0.223,0.355,0.437,0.554,0.642c-0.233-0.745-0.337-0.883-0.312-0.412c-0.004,0.29,0.001,0.579,0.016,0.868
				c0.021,0.675,0.443,1.258,1.101,1.446c0.013,0.004,0.025,0.007,0.038,0.011c0.266-0.964,0.532-1.928,0.797-2.893
				c-0.315-0.089-0.63-0.178-0.945-0.267c-1.577-0.446-2.325,1.402-1.459,2.507c0.364,0.465,0.449,1.027,0.615,1.581
				c0.482-0.633,0.964-1.266,1.446-1.899c-0.122-0.006-0.738-0.501-0.973-0.612c-1.5-0.708-3.061,1.079-1.818,2.356
				c0.298,0.223,0.458,0.52,0.483,0.891c0.349-0.615,0.698-1.23,1.047-1.845c-1.824,0.359-4.637-0.341-6.094-1.534
				C97.524,36.904,95.388,39.013,96.886,40.24L96.886,40.24z"/>
		</g>
	</g>
	<g>
		<g>
			<path fill="#333333" d="M105.72,38.899c0.783,2.7,0.694,5.565,0.696,8.351c0.982-0.133,1.964-0.266,2.946-0.399
				c-0.272-1.919-0.064-3.839-0.5-5.75c-0.476-2.09-2.058-3.658-2.196-5.851c-0.982,0.133-1.964,0.266-2.946,0.399
				c1.07,4.779,6.146,3.934,7.393-0.25c-0.982-0.133-1.964-0.266-2.946-0.399c-0.067,1.16-0.395,1.151-1.189,0.439
				c-1.436-1.287-3.565,0.828-2.121,2.121c2.926,2.621,6.081,1.379,6.311-2.561c0.101-1.736-2.476-1.979-2.946-0.399
				c-0.411,1.379-1.221,1.977-1.607,0.25c-0.368-1.643-3.053-1.294-2.946,0.399c0.148,2.339,1.275,3.896,2.119,6.001
				c0.792,1.977,0.39,4.319,0.685,6.397c0.243,1.71,2.947,1.246,2.946-0.399c-0.002-3.052,0.054-6.191-0.804-9.149
				C108.075,36.247,105.18,37.037,105.72,38.899L105.72,38.899z"/>
		</g>
	</g>
	<path fill="#3333CC" stroke="#000033" stroke-miterlimit="10" d="M90.993,39.001c0.147,0.692,7.345-3.819,8.584-2.222
		c1.239,1.598,4.578,4.453,1.683,6.036c-2.895,1.582-8.851,3.904-8.851,3.904"/>
	<g>
		<g>
			<path fill="#F4D7D1" d="M102.508,46.744c1.774-0.883,3.786-1.716,5.705-0.76c-0.18-0.684-0.359-1.369-0.539-2.052
				c-0.269,0.491-0.49,0.712-0.981,0.982c-1.613,0.885-0.414,2.967,1.156,2.742c0.402-0.058,1.099-0.485,1.482-0.381
				c-0.299-0.734-0.598-1.469-0.896-2.203c-0.419,0.652-0.718,1.282-1.362,1.741c-1.162,0.829-0.831,2.795,0.757,2.795
				c0.4,0,0.8,0,1.2,0c1.935,0,1.935-3,0-3c-0.02,0-0.04,0-0.06,0c-0.688,0-1.242,0.462-1.446,1.101
				c-0.153,0.477-0.286,0.956-0.418,1.438c0.555-0.586,0.663-0.769,0.323-0.549c-0.257,0.148-0.495,0.322-0.734,0.495
				c-1.355,0.979-0.571,3.14,1.156,2.742c0.143-0.033,0.23-0.04,0.324,0c-0.299-0.23-0.598-0.46-0.896-0.689
				c0.026,0.048,0.052,0.097,0.078,0.145c-0.05-0.385-0.101-0.771-0.151-1.156c-0.02,0.078-0.04,0.156-0.06,0.234
				c0.229-0.299,0.459-0.598,0.689-0.896c-1.281,0.699-3.701-1.846-2.742-2.963c1.056-1.23-0.31-3.336-1.817-2.356
				c-0.334,0.217-0.761,0.172-1.144,0.175c-1.487,0.011-2.055,2.04-0.757,2.795c0.601,0.349,1.013,0.761,1.362,1.362
				c0.751,1.293,2.795,0.734,2.795-0.757c0-0.633,0-1.267,0-1.9c0-1.097-1.289-1.923-2.257-1.295
				c-0.033,0.021-0.065,0.042-0.098,0.063c-0.416,0.27-0.793,0.766-0.743,1.295c0.111,1.163,0.849,2.138,1.958,2.524
				c0.932,0.324,1.899-0.52,1.899-1.446c0-0.314-0.089-0.958-0.043-1.171c-0.914,0.119-1.828,0.239-2.742,0.358
				c-0.098-0.22,0.144,0.884,0.165,1.192c0.131,1.911,3,1.953,3,0c0-0.76,0-1.52,0-2.279c-0.982,0.133-1.964,0.266-2.946,0.399
				c0.247,0.641,0.318,1.195,0.326,1.88c0.015,1.457,2.067,2.095,2.795,0.757c0.317-0.583,0.118-1.416,0.38-1.899
				c-0.932-0.252-1.864-0.504-2.795-0.757c0.076,0.663,0.227,1.285,0.434,1.919c0.517,1.585,2.946,1.339,2.946-0.399
				c0-0.633,0-1.267,0-1.9c-0.854,0.354-1.707,0.707-2.561,1.061c0.109,0.095,0.217,0.19,0.326,0.285
				c-0.146-0.354-0.292-0.707-0.439-1.061c0.01,0.472-0.075,0.794,0.107,1.254c0.524,1.328,2.442,1.522,2.893,0
				c0.125-0.16,0.25-0.319,0.375-0.479c-0.854-0.354-1.707-0.707-2.561-1.061c-0.046,0.515-0.249,1.108-0.556,1.522
				c-0.601,0.81,0.053,1.942,0.896,2.203c0.814,0.251,1.462,0.063,2.071-0.514c-0.354,0.146-0.708,0.293-1.061,0.439
				c0.035,0,0.069,0,0.103,0.001c-0.354-0.146-0.707-0.293-1.061-0.439c0.063,0.068,0.127,0.136,0.19,0.204
				c0.079-0.605,0.157-1.211,0.235-1.817c-0.093,0.107-0.186,0.213-0.279,0.32c0.486-0.128,0.973-0.257,1.459-0.386
				c0.138,0.123,0.277,0.246,0.416,0.369c-0.708-1.157-2.318-0.853-2.742,0.358c-0.305,0.872-0.161,1.773-0.38,2.66
				c0.835-0.22,1.671-0.441,2.507-0.662c-0.658-0.77-0.954-1.545-1.823-2.135c-0.927-0.628-2.312,0.199-2.257,1.295
				c0.043,0.873,0.326,1.624,1.123,2.055c1.045,0.566,2.726-0.388,2.203-1.694c-0.253-0.633-0.506-1.267-0.76-1.9
				c-0.615,0.615-1.23,1.23-1.845,1.845c-0.812-0.279-0.465-0.264-0.07,0.177c0.304,0.34,0.78,0.507,1.21,0.583
				c1.144,0.2,2.103-0.662,1.845-1.845c-0.025-0.596-0.17-0.557-0.436,0.119c0.176-0.057,0.353-0.114,0.528-0.172
				c1.831-0.598,1.047-3.495-0.798-2.893c-1.949,0.637-2.634,1.692-2.187,3.744c0.615-0.615,1.23-1.23,1.845-1.845
				c0.208,0.036-0.151-0.144-0.314-0.318c-0.227-0.241-0.524-0.338-0.826-0.442c-1.014-0.349-2.266,0.794-1.845,1.845
				c0.253,0.633,0.506,1.267,0.76,1.9c0.734-0.565,1.469-1.129,2.203-1.694c0.122,0.179,0.243,0.357,0.364,0.536
				c-0.752,0.432-1.505,0.863-2.257,1.295c0.47,0.318,0.834,1.219,1.216,1.666c0.736,0.861,2.25,0.379,2.507-0.662
				c0.215-0.871,0.09-1.833,0.38-2.66c-0.914,0.119-1.828,0.239-2.742,0.358c0.749,1.225,2.17,1.391,3.116,0.304
				c0.412-0.473,0.646-1.253,0.235-1.817c-0.441-0.605-0.887-1.242-1.721-1.251c-0.307-0.003-0.591,0.046-0.86,0.204
				c-1.065,0.624,0.521-0.03,0.544-0.023c0.299,0.734,0.598,1.469,0.896,2.203c0.62-0.836,0.874-2.016,0.965-3.036
				c0.119-1.332-1.705-1.949-2.561-1.061c-0.535,0.555-0.926,1.058-1.146,1.802c0.964,0,1.928,0,2.893,0
				c0.187,0.472,0.005-0.217,0-0.457c-0.013-0.608-0.333-0.968-0.766-1.346c-0.958-0.836-2.561-0.314-2.561,1.061
				c0,0.633,0,1.267,0,1.9c0.982-0.133,1.964-0.266,2.946-0.399c-0.116-0.356-0.283-0.749-0.326-1.122
				c-0.157-1.366-2.015-2.193-2.795-0.757c-0.316,0.583-0.118,1.417-0.38,1.899c0.932,0.252,1.864,0.504,2.795,0.757
				c-0.01-0.945-0.092-1.792-0.433-2.678c-0.583-1.516-2.946-1.391-2.946,0.399c0,0.76,0,1.52,0,2.279c1,0,2,0,3,0
				c-0.062-0.899-0.205-1.879-0.575-2.706c-0.531-1.188-2.482-0.844-2.741,0.358c-0.137,0.634-0.064,1.324-0.064,1.969
				c0.633-0.482,1.266-0.964,1.899-1.446c0.401,0.14,0.196-0.137,0.244,0.369c-0.248,0.432-0.495,0.864-0.743,1.295
				c0.032-0.021,0.065-0.042,0.097-0.063c-0.752-0.432-1.504-0.864-2.257-1.295c0,0.633,0,1.267,0,1.9
				c0.932-0.252,1.863-0.505,2.795-0.757c-0.601-1.034-1.405-1.837-2.439-2.439c-0.252,0.932-0.504,1.864-0.757,2.795
				c0.919-0.006,1.869-0.072,2.657-0.584c-0.605-0.786-1.211-1.571-1.817-2.356c-2.263,2.636-0.168,6.924,2.816,8.008
				c1.463,0.532,3.854,0.315,4.31-1.463c0.487-1.897-1.717-2.296-3.045-1.99c0.385,0.914,0.771,1.828,1.156,2.742
				c0.528-0.381,1.189-0.665,1.559-1.221c0.361-0.542,0.457-1.353,0.65-1.957c-0.482,0.367-0.964,0.734-1.446,1.101
				c0.02,0,0.04,0,0.06,0c1.935,0,1.935-3,0-3c-0.4,0-0.8,0-1.2,0c0.252,0.932,0.505,1.863,0.757,2.795
				c1.108-0.791,1.713-1.688,2.438-2.818c0.526-0.82,0.009-1.956-0.896-2.203c-1.173-0.32-1.955,0.219-3.078,0.381
				c0.385,0.914,0.771,1.828,1.156,2.742c0.913-0.501,1.558-1.145,2.058-2.059c0.372-0.679,0.208-1.68-0.539-2.052
				c-2.988-1.488-5.897-0.651-8.733,0.76C99.262,45.015,100.782,47.603,102.508,46.744L102.508,46.744z"/>
		</g>
	</g>
	<g>
		<g>
			<path fill="#F4D7D1" d="M108.951,50.008c-0.027,0.448,0,0.032,0.021-0.068c0.033-0.146,0.074-0.291,0.115-0.435
				c0.058-0.208,0.122-0.414,0.189-0.618c-0.964-0.266-1.928-0.532-2.893-0.798c-0.06,0.402-0.319,0.734-0.379,1.141
				c-0.1,0.678,0.056,1.323,0.689,1.694c0.666,0.39,1.693,0.196,2.052-0.539c0.301-0.616,0.525-1.212,0.584-1.897c-1,0-2,0-3,0
				c0,0.253,0,0.506,0,0.76c0.5-0.5,1-1,1.5-1.5c-0.126,0-0.253,0-0.379,0c0.432,0.752,0.863,1.505,1.295,2.257
				c0.22-0.489,0.379-0.961,0.49-1.485c0.078-0.371,0.132-0.871,0.27-1.175c0.336-0.745,0.222-1.607-0.539-2.052
				c-0.649-0.38-1.716-0.207-2.052,0.539c-0.221,0.489-0.379,0.961-0.49,1.485c-0.079,0.37-0.133,0.871-0.27,1.175
				c-0.452,1.004,0.067,2.257,1.295,2.257c0.126,0,0.253,0,0.379,0c0.818,0,1.5-0.682,1.5-1.5c0-0.253,0-0.506,0-0.76
				c0-0.818-0.682-1.5-1.5-1.5c-0.871,0-1.43,0.686-1.5,1.5c0.03-0.346-0.105,0.232-0.136,0.313c0.098-0.256-0.011,0.015-0.039,0.07
				c0.914,0.385,1.828,0.771,2.742,1.156c0.06-0.402,0.319-0.734,0.379-1.141c0.12-0.808-0.188-1.609-1.047-1.845
				c-0.818-0.225-1.589,0.272-1.845,1.047c-0.206,0.623-0.394,1.261-0.433,1.918c-0.049,0.817,0.719,1.5,1.5,1.5
				C108.305,51.508,108.902,50.824,108.951,50.008L108.951,50.008z"/>
		</g>
	</g>
	<g>
		<path d="M79.901,101.883l13.869-0.2c2.424-7.638-8.732-5.114-8.74-5.319c-0.013-0.344,0.57-3.42,0.57-3.42
			c-2.329-1.863-5.889,0-5.889,0L79.901,101.883z"/>
		<g>
			<path d="M79.901,103.383c4.623-0.067,9.246-0.133,13.869-0.2c0.671-0.01,1.264-0.451,1.446-1.101
				c0.881-3.145,0.016-5.799-3.147-6.983c-1.347-0.503-2.94-0.507-4.357-0.457c-0.55,0.02-1.1,0.075-1.647,0.132
				c-0.704,0.074-1.278-0.15-0.277,0.294c0.248,0.432,0.495,0.864,0.743,1.295c0.079-1.01,0.329-2.025,0.516-3.021
				c0.13-0.688-0.083-1.31-0.689-1.694c-2.308-1.464-5.022-1.181-7.403,0c-0.457,0.227-0.753,0.798-0.743,1.295
				c0.063,2.98,0.126,5.959,0.19,8.939c0.041,1.932,3.041,1.936,3,0c-0.063-2.98-0.126-5.959-0.19-8.939
				c-0.248,0.432-0.495,0.863-0.743,1.295c1.418-0.704,2.998-0.874,4.375,0c-0.23-0.565-0.46-1.129-0.689-1.694
				c-0.238,1.261-0.523,2.538-0.624,3.819c-0.037,0.472,0.302,1.1,0.743,1.295c2.63,1.167,9.641-2.054,8.051,3.625
				c0.482-0.367,0.964-0.734,1.446-1.101c-4.623,0.067-9.246,0.133-13.869,0.2C77.968,100.411,77.965,103.411,79.901,103.383z"/>
		</g>
	</g>
	<g>
		<path fill="#3333CC" d="M75.531,68.705c3.04,2.659,2.66,18.539,1.9,23.479c3.136-0.068,6.459-0.068,9.5,0
			c1.52-5.32,5.699-19.06,3.04-23.998"/>
		<g>
			<path fill="#000033" d="M74.471,69.766c2.274,2.466,1.874,7.863,1.971,10.963c0.115,3.661,0.048,7.423-0.457,11.056
				c-0.13,0.933,0.374,1.918,1.446,1.899c3.167-0.057,6.332-0.059,9.5,0c0.671,0.012,1.265-0.468,1.446-1.101
				c2.104-7.328,6.22-17.684,2.889-25.154c-0.787-1.764-3.372-0.237-2.591,1.514c2.868,6.43-1.369,16.498-3.19,22.842
				c0.482-0.367,0.964-0.734,1.446-1.101c-3.167-0.059-6.332-0.057-9.5,0c0.482,0.633,0.964,1.266,1.446,1.899
				c0.649-4.669,0.694-9.42,0.476-14.122c-0.16-3.45-0.277-8.121-2.762-10.816C75.278,66.219,73.162,68.346,74.471,69.766
				L74.471,69.766z"/>
		</g>
	</g>
	<g>
		<path fill="#3333CC" d="M76.838,26.449c9.934,1.52,13.665,12.54,17.485,22.418c2.292,6.459,0.339,18.883,0.339,18.883h-24.22
			c0,0-0.841-13.25-1.156-23.063c-0.116-3.605,4.113-23.179,9.844-18.239"/>
		<g>
			<path fill="#000033" d="M76.439,27.895c9.517,1.896,12.861,12.07,15.939,20.077c2.319,6.031,1.797,13.081,0.837,19.379
				c0.482-0.367,0.964-0.734,1.446-1.101c-8.073,0-16.146,0-24.22,0c0.5,0.5,1,1,1.5,1.5c-0.491-7.785-1.199-15.659-1.154-23.46
				c0.016-2.817,3.596-19.469,7.585-16.546c1.563,1.146,3.057-1.46,1.514-2.591c-6.692-4.904-10.18,8.998-11.119,12.948
				c-2.266,9.526-0.435,19.985,0.174,29.648c0.051,0.816,0.644,1.5,1.5,1.5c8.073,0,16.146,0,24.22,0
				c0.607,0,1.348-0.452,1.446-1.101c1.249-8.192,1.166-15.819-1.843-23.581c-3.23-8.333-7.372-17.642-17.028-19.566
				C75.348,24.626,74.542,27.517,76.439,27.895L76.439,27.895z"/>
		</g>
	</g>
	<g>
		<g>
			<path fill="#000033" d="M73.103,41.646c-0.052,7.58-0.323,20.902,10.788,19.549c1.895-0.231,1.917-3.233,0-3
				c-8.927,1.087-7.828-10.647-7.788-16.549C76.116,39.711,73.116,39.712,73.103,41.646L73.103,41.646z"/>
		</g>
	</g>
	<g>
		<path fill="#3333CC" d="M84.651,49.627c3.419-1.9,14.438-5.32,17.099-3.04c9.119,7.599-14.984,13.577-20.519,13.015"/>
		<g>
			<path fill="#000033" d="M85.408,50.922c3.574-1.871,7.782-3.042,11.778-3.513c3.9-0.459,6.887,2.435,3.114,5.259
				c-4.755,3.559-13.129,5.858-19.068,5.433c-1.932-0.138-1.918,2.863,0,3c4.241,0.304,8.799-0.994,12.793-2.253
				c3.795-1.197,8.993-3.044,10.829-6.922c1.519-3.209-1.348-7.04-4.617-7.473c-5.319-0.704-11.674,1.436-16.341,3.878
				C82.179,49.229,83.696,51.818,85.408,50.922L85.408,50.922z"/>
		</g>
	</g>
	<g>
		<g>
			<path fill="#F4D7D1" d="M77.07,2.964c-6.561-1.335-10.57,7.753-9.878,13.225c0.239,1.893,3.242,1.916,3,0
				c-0.404-3.194,1.766-11.21,6.081-10.333C78.161,6.241,78.965,3.35,77.07,2.964L77.07,2.964z"/>
		</g>
	</g>
	<g>
		<path fill="#F4D7D1" d="M85.55,7.83c2.66,1.52,2.28,3.42,2.66,6.459c0.379,3.04-2.368,16.404-5.027,14.885l-8.642-0.365
			c-1.52-4.56-6.47-5.4-6.85-9.96c-0.38-3.799,0.38-10.639,3.42-12.918C74.531,3.271,82.891,4.411,85.55,7.83"/>
		<g>
			<path fill="#F4D7D1" d="M84.793,9.125c4.022,2.822,1.312,11.596,0.198,15.263c-0.438,1.442-0.736,3.331-2.286,3.266
				c-2.15-0.091-4.3-0.182-6.45-0.273c-0.529-0.022-1.058-0.044-1.587-0.067c1.748,0.074-0.668-2.319-0.912-2.618
				c-2.549-3.123-4.728-4.372-4.631-8.87c0.081-3.722,0.938-8.395,4.945-9.602c3.356-1.011,8.064,0.123,10.42,2.666
				c1.317,1.422,3.434-0.704,2.121-2.121c-4.6-4.968-14.861-5.65-18.549,0.617c-1.912,3.25-2.134,7.808-1.87,11.462
				c0.345,4.778,5.313,6.633,7.054,10.717c0.206,0.482,0.814,0.722,1.295,0.743c5.136,0.217,10.58,2.268,12.76-3.492
				c2.137-5.644,4.96-16.105-0.994-20.283C84.719,5.421,83.223,8.023,84.793,9.125L84.793,9.125z"/>
		</g>
	</g>
	<g>
		<g>
			<path fill="#663300" d="M88.547,14.358c-1.344-0.022-2.625-0.232-3.961,0.054c-0.799,0.171-1.255,1.092-1.047,1.845
				c0.226,0.822,1.046,1.218,1.845,1.047c1.025-0.219,2.125,0.037,3.163,0.054C90.482,17.39,90.479,14.39,88.547,14.358
				L88.547,14.358z"/>
		</g>
	</g>
	<path fill="#FDFDFD" stroke="#FDFDFD" stroke-miterlimit="10" d="M71.352,29.678"/>
	<g>
		<g>
			<path fill="#999999" d="M87.265,20.353c1.935,0,1.935-3,0-3S85.33,20.353,87.265,20.353L87.265,20.353z"/>
		</g>
	</g>
	<g>
		<g>
			<path fill="#000033" d="M75.909,32.684c6.675-4.534,8.22,11.352,10.106,15.04c0.881,1.723,3.469,0.205,2.591-1.514
				c-2.668-5.219-4.262-22.874-14.211-16.117C72.804,31.173,74.303,33.774,75.909,32.684L75.909,32.684z"/>
		</g>
	</g>
	<g>
		<g>
			<path fill="#333333" d="M107.72,36.351c-0.222,1.246-0.546,2.499-1.099,3.642c-0.356,0.736-0.208,1.615,0.539,2.052
				c0.663,0.388,1.696,0.197,2.052-0.539c0.669-1.384,1.132-2.845,1.401-4.358c0.143-0.804-0.205-1.614-1.047-1.845
				C108.833,35.102,107.863,35.545,107.72,36.351L107.72,36.351z"/>
		</g>
	</g>
	<g>
		<path fill="#663300" d="M70.147,24.62c-1.852-4.015-4.241-9.833-3.375-14.333C68.677,0.453,80.321,2.167,86.9,5.5
			c4.156,2.333,2.383,4.286-1.946,5.953c-1.558,0.5-3.29,0.667-4.675,1.5c-1.731,1-2.078,2.5-3.463,3.667
			c-1.732-4.5-4.849-2.333-5.714,1C70.408,19.787,73.091,23.787,70.147,24.62"/>
		<g>
			<path fill="#663300" d="M71.443,23.862c-2.114-4.655-4.709-10.446-2.488-15.511c1.561-3.559,5.676-4.104,9.081-3.903
				c1.594,0.094,3.165,0.519,4.688,0.97c2.499,0.741,6.201,2.766,1.833,4.589c-1.642,0.685-3.399,0.882-5.034,1.651
				c-1.619,0.762-2.567,2.689-3.766,3.901c0.785,0.101,1.57,0.202,2.356,0.303c-1.131-2.393-3.96-4.791-6.408-2.212
				c-1.16,1.222-1.888,2.601-2.164,4.271c-0.225,1.359,1.313,4.716-0.149,5.403c-1.75,0.823-0.226,3.408,1.514,2.591
				c1.56-0.733,2.071-1.816,2.151-3.495c0.044-0.93-0.286-1.991-0.463-2.889c-0.404-2.047,1.601-4.962,2.928-2.154
				c0.418,0.883,1.72,0.946,2.356,0.303c1.08-1.091,1.916-2.521,3.16-3.432c1.577-1.155,4.128-1.119,5.894-2.009
				c1.628-0.82,4.233-2.25,3.774-4.515c-0.868-4.279-8.208-5.816-11.81-6.188c-4.736-0.49-9.257,0.5-12.112,4.557
				c-4,5.68-0.417,13.806,2.07,19.283C69.651,27.136,72.236,25.61,71.443,23.862L71.443,23.862z"/>
		</g>
	</g>
	<g>
		<g>
			<path fill="#F1A793" d="M75.647,23.172c-0.418-1.042-0.561-2.086-0.576-3.203c-0.006-0.492,0.036-0.982,0.086-1.471
				c0.157-0.513-0.065-0.452-0.669,0.185c0.297,0.154,0.571,0.378,0.855,0.556c1.645,1.03,3.149-1.566,1.515-2.591
				c-0.804-0.503-1.479-0.993-2.467-0.997c-1.223-0.003-1.956,1.029-2.134,2.104c-0.337,2.036-0.279,4.283,0.498,6.215
				C73.467,25.741,76.37,24.968,75.647,23.172L75.647,23.172z"/>
		</g>
	</g>
</g>
<g id="Layer_7">
</g>
<g id="Layer_5">
	<g>
		<polygon fill="#333333" stroke="#666666" stroke-miterlimit="10" points="53.667,168.625 21.667,199.75 25.167,202.75 56.917,171 
			67.542,160.375 65.667,159.25 54.667,169.125 		"/>
		<line fill="#333333" stroke="#666666" stroke-miterlimit="10" x1="56.917" y1="171" x2="54.667" y2="169.125"/>
	</g>
	<polyline fill="#333333" points="89.167,64.289 97.917,64.289 97.667,78.75 89.167,78.25 89.167,64.289 	"/>
	<path fill="none" stroke="#333333" stroke-miterlimit="10" d="M91.167,75.75c0,0-5.879,14.01-8.729,12.5s-13.164,8-9.468,16"/>
</g>
<g id="Layer_3">
	<g>
		<polygon fill="#FFFF33" stroke="#FFCC00" stroke-miterlimit="10" points="0.5,217.75 84.167,217.75 84.167,230.25 20.495,230.25 
			0.5,230.25 		"/>
		<rect x="20.167" y="230.25" fill="#FFFF33" stroke="#FFCC00" stroke-miterlimit="10" width="45.5" height="10.5"/>
		<polygon fill="#FFFF33" stroke="#FFCC00" stroke-linecap="round" stroke-linejoin="round" stroke-miterlimit="10" points="
			13.667,116.75 67.667,139.25 11.167,164.75 67.667,194.75 16.167,217.75 30.167,217.75 75.167,194.75 19.166,165.25 
			75.167,139.25 24.167,116.75 		"/>
		<polygon fill="#FFFF33" stroke="#FFCC33" stroke-linecap="round" stroke-linejoin="round" stroke-miterlimit="10" points="
			72.667,116.75 18.667,139.25 75.167,164.75 18.667,194.75 70.167,217.75 56.167,217.75 11.167,194.75 67.167,165.25 
			11.167,139.25 62.167,116.75 		"/>
		<rect x="3.667" y="101.75" fill="#FFFF33" stroke="#FFCC00" stroke-miterlimit="10" width="76" height="15"/>
		<rect x="79.667" y="101.75" fill="#FFFF33" stroke="#FFCC00" stroke-miterlimit="10" width="36.5" height="5"/>
		<polyline fill="none" stroke="#FFCC00" stroke-width="2" stroke-miterlimit="10" points="3.667,101.75 3.667,57.75 79.667,58.25 
			79.667,101.75 		"/>
		<path fill="none" stroke="#FFCC00" stroke-miterlimit="10" d="M3.667,64.25c38.585,0,68.267,0,68.267,0h22.261l21.973,0.039"/>
		<line fill="none" stroke="#FFCC00" stroke-miterlimit="10" x1="3.667" y1="75.75" x2="116.167" y2="75.75"/>
		<line fill="none" stroke="#FFCC00" stroke-miterlimit="10" x1="116.167" y1="92.25" x2="3.667" y2="92.25"/>
		<polyline fill="none" stroke="#FFCC00" stroke-width="2" stroke-miterlimit="10" points="79.667,58.25 116.167,58.25 
			116.167,101.75 		"/>
		
			<circle fill="#FFFFFF" stroke="#999999" stroke-width="3" stroke-linecap="round" stroke-linejoin="round" stroke-miterlimit="10" cx="9.971" cy="239.636" r="7.386"/>
		
			<circle fill="#FFFFFF" stroke="#999999" stroke-width="3" stroke-linecap="round" stroke-linejoin="round" stroke-miterlimit="10" cx="75.052" cy="239.636" r="7.386"/>
		<circle fill="#999999" stroke="#999999" stroke-miterlimit="10" cx="9.971" cy="239.636" r="2.082"/>
		<circle fill="#999999" stroke="#999999" stroke-miterlimit="10" cx="75.052" cy="239.636" r="2.082"/>
	</g>
</g>
<g id="Layer_4">
	<circle fill="#999999" cx="16.32" cy="139.25" r="1.347"/>
	<circle fill="#999999" cx="70.013" cy="139.25" r="1.347"/>
	<circle fill="#999999" cx="70.013" cy="164.903" r="1.347"/>
	<circle fill="#999999" cx="26.166" cy="235.5" r="1.347"/>
	<circle fill="#999999" cx="33.166" cy="235.5" r="1.347"/>
	<circle fill="#999999" cx="43.166" cy="235.5" r="1.347"/>
	<circle fill="#999999" cx="16.666" cy="164.903" r="1.347"/>
	<circle fill="#999999" cx="70.361" cy="194.597" r="1.347"/>
	<circle fill="#999999" cx="15.973" cy="194.943" r="1.347"/>
	<line fill="none" stroke="#333333" stroke-miterlimit="10" x1="49.667" y1="234.153" x2="59.917" y2="234.153"/>
	<line fill="none" stroke="#333333" stroke-miterlimit="10" x1="49.667" y1="237.554" x2="59.917" y2="237.554"/>
	<line fill="none" stroke="#333333" stroke-miterlimit="10" x1="7.889" y1="224" x2="49.667" y2="224"/>
</g>
</svg>
