<?xml version="1.0" encoding="utf-8"?>
<!-- Generator: Adobe Illustrator 16.0.0, SVG Export Plug-In . SVG Version: 6.00 Build 0)  -->
<!DOCTYPE svg PUBLIC "-//W3C//DTD SVG 1.1//EN" "http://www.w3.org/Graphics/SVG/1.1/DTD/svg11.dtd">
<svg version="1.1" xmlns="http://www.w3.org/2000/svg" xmlns:xlink="http://www.w3.org/1999/xlink" x="0px" y="0px"
	 width="200.865px" height="207.727px" viewBox="0 0 200.865 207.727" enable-background="new 0 0 200.865 207.727"
	 xml:space="preserve">
<g id="Layer_2">
	<polyline fill="none" stroke="#CCCCCC" stroke-linecap="square" stroke-linejoin="bevel" stroke-miterlimit="10" points="
		196.716,57.203 160.216,75.703 118.216,174.703 159.216,75.703 188.972,45.092 	"/>
	<polyline fill="none" stroke="#CCCCCC" stroke-linecap="square" stroke-linejoin="bevel" stroke-miterlimit="10" points="
		180.583,36.207 159.216,76.203 119.216,174.703 159.216,76.203 184.216,41.706 	"/>
	<polyline fill="none" stroke="#CCCCCC" stroke-linecap="square" stroke-linejoin="bevel" stroke-miterlimit="10" points="
		171.216,33.203 137.216,76.703 119.216,173.203 137.216,76.703 132.644,22.124 	"/>
	
		<line fill="none" stroke="#CCCCCC" stroke-linecap="square" stroke-linejoin="bevel" stroke-miterlimit="10" x1="150.716" y1="19.24" x2="137.216" y2="76.703"/>
	
		<line fill="none" stroke="#CCCCCC" stroke-linecap="square" stroke-linejoin="bevel" stroke-miterlimit="10" x1="158.673" y1="22.124" x2="137.216" y2="76.703"/>
	<polyline fill="none" stroke="#CCCCCC" stroke-linecap="square" stroke-linejoin="bevel" stroke-miterlimit="10" points="
		128.716,17.112 117.216,82.203 112.216,17.112 	"/>
	<polyline fill="none" stroke="#CCCCCC" stroke-linecap="square" stroke-linejoin="bevel" stroke-miterlimit="10" points="
		98.387,19.24 117.216,82.203 86.197,22.347 	"/>
	<line fill="none" stroke="#CCCCCC" stroke-miterlimit="10" x1="119.216" y1="174.703" x2="116.716" y2="80.703"/>
	<polyline fill="none" stroke="#CCCCCC" stroke-linecap="square" stroke-linejoin="bevel" stroke-miterlimit="10" points="
		105.216,19.24 86.197,90.203 59.353,31.869 	"/>
	<polyline fill="none" stroke="#CCCCCC" stroke-linecap="square" stroke-linejoin="bevel" stroke-miterlimit="10" points="
		70.66,27.555 85.216,88.181 85.216,25.203 	"/>
	<line fill="none" stroke="#CCCCCC" stroke-miterlimit="10" x1="86.197" y1="90.203" x2="104.216" y2="176.703"/>
	<polyline fill="none" stroke="#CCCCCC" stroke-linecap="square" stroke-linejoin="bevel" stroke-miterlimit="10" points="
		50.394,36.207 66.216,90.203 32.327,47.972 	"/>
	<polyline fill="none" stroke="#CCCCCC" stroke-linecap="square" stroke-linejoin="bevel" stroke-miterlimit="10" points="
		23.106,56.691 66.216,90.203 40.987,41.706 	"/>
	<line fill="none" stroke="#CCCCCC" stroke-miterlimit="10" x1="104.216" y1="176.703" x2="66.216" y2="90.203"/>
	<polyline fill="none" stroke="#CCCCCC" stroke-linecap="square" stroke-linejoin="bevel" stroke-miterlimit="10" points="
		9.161,82.203 41.716,103.203 29.095,50.722 	"/>
	<polyline fill="none" stroke="#CCCCCC" stroke-linecap="square" stroke-linejoin="bevel" stroke-miterlimit="10" points="
		19.76,60.735 41.716,103.203 12.447,73.39 	"/>
	<line fill="none" stroke="#CCCCCC" stroke-miterlimit="10" x1="104.216" y1="176.703" x2="41.716" y2="103.203"/>
	
		<line fill="none" stroke="#999999" stroke-width="2" stroke-miterlimit="10" x1="118.716" y1="184.203" x2="118.716" y2="170.203"/>
	
		<line fill="none" stroke="#999999" stroke-width="2" stroke-miterlimit="10" x1="111.716" y1="189.203" x2="102.716" y2="173.203"/>
</g>
<g id="Layer_3">
	<polyline fill="none" stroke="#CCCCCC" stroke-miterlimit="10" points="19.76,60.735 41.716,103.203 12.447,73.39 	"/>
	<path fill="#FF3333" d="M8.277,87.203c0,0-0.072-42.89,96.939-59c48.243-8.012,94.97,32,93.948,31c0,0,23.987-70-108.204-57.5
		C90.96,1.703-32.555,19.703,8.277,87.203z"/>
	<g>
		<g>
			<path fill="#666666" d="M117.011,182.446c-0.84-1.447-1.613-2.408-1.849-4.142c-0.964,0.266-1.929,0.531-2.893,0.797
				c1.35,4.075-1.169,7.128-2.089,10.942c-0.635,2.634,0.125,5.763,1.203,8.176c1.346,3.01,3.853,5.354,7.173,3.539
				c3.104-1.695,4.261-6.167,4.365-9.39c0.151-4.643-3.011-7.987-7.308-9.112c-0.901-0.236-1.953,0.454-1.898,1.446
				c0.194,3.496,1.175,6.402,3.205,9.257c0.959,1.35,3.181,0.567,2.741-1.155c-0.563-2.208-1.23-4.279-2.151-6.358
				c-0.685-1.548-3.375-0.419-2.741,1.155c1.087,2.699,2.222,5.318,3.651,7.858c0.785-0.605,1.57-1.212,2.355-1.817
				c-1.88-1.805-3.829-3.494-5.5-5.5c-0.93-1.116-3.088,0.08-2.507,1.459c1.257,2.986,2.71,5.751,4.651,8.358
				c1.125,1.511,3.617,0.182,2.59-1.514c-1.527-2.521-3.018-4.843-5.234-6.804c-1.308-1.157-3.092,0.277-2.355,1.817
				c1.04,2.178,1.951,4.403,2.849,6.642c0.914-0.385,1.827-0.771,2.741-1.155c-1.5-2-3-4-4.5-6c-1.128-1.505-3.642-0.166-2.59,1.514
				c1.547,2.473,3.228,4.691,5.234,6.804c1.177,1.238,3.247-0.363,2.355-1.817c-1.766-2.879-3.666-5.636-5.734-8.304
				c-0.882-1.138-2.478-0.08-2.561,1.061c-0.48,6.629,1.113,15.538,9.5,15c0.854-0.055,1.448-0.643,1.5-1.5
				c0.319-5.297,2.488-9.626,0.295-14.757c-0.687-1.607-3.147-0.436-2.741,1.155c0.409,1.601,0.574,3.172,0.621,4.817
				c0.01,0.853-0.045,1.7-0.164,2.545c-0.25,1.794-0.443-0.915-0.716-1.518c-0.785,0.605-1.57,1.212-2.355,1.817
				c0.828,0.802,1.366,1.748,1.614,2.838c0.836-0.486,1.671-0.973,2.507-1.459c-0.735-0.865-1.353-1.619-2.304-2.234
				c-1.075-0.696-2.631,0.456-2.203,1.693c0.599,1.733,1.249,3.271,2.151,4.858c0.439,0.775,1.744,1.064,2.355,0.304
				c5.869-7.299,1.917-15.795-3.5-22.121c-1.26-1.472-3.372,0.66-2.121,2.121c4.17,4.869,8.235,11.989,3.5,17.879
				c0.785,0.102,1.57,0.202,2.355,0.304c-0.803-1.302-1.419-2.683-1.849-4.142c-0.734,0.564-1.469,1.129-2.203,1.693
				c0.625,0.532,1.19,1.121,1.696,1.766c0.979,1.151,2.955-0.069,2.507-1.459c-0.551-1.71-1.183-2.83-2.386-4.162
				c-1.225-1.356-3.013,0.365-2.355,1.817c0.7,1.549,3.323,6.109,5.361,2.978c1.96-3.011,1.213-7.873,0.38-11.133
				c-0.914,0.385-1.827,0.771-2.741,1.155c1.812,4.24-0.442,8.89-0.705,13.243c0.5-0.5,1-1,1.5-1.5c-6.57,0.422-6.85-7.175-6.5-12
				c-0.854,0.354-1.707,0.707-2.561,1.061c1.912,2.467,3.635,5.038,5.266,7.696c0.785-0.605,1.57-1.212,2.355-1.817
				c-1.827-1.923-3.361-3.955-4.766-6.196c-0.863,0.505-1.727,1.009-2.59,1.514c1.5,2,3,4,4.5,6
				c0.928,1.238,3.428,0.556,2.741-1.155c-0.994-2.48-1.999-4.947-3.151-7.358c-0.785,0.605-1.57,1.212-2.355,1.817
				c2.015,1.782,3.386,3.919,4.766,6.196c0.863-0.505,1.727-1.009,2.59-1.514c-1.782-2.395-3.189-4.887-4.349-7.642
				c-0.836,0.486-1.671,0.973-2.507,1.459c1.671,2.007,3.62,3.695,5.5,5.5c1.233,1.185,3.198-0.32,2.355-1.817
				c-1.299-2.309-2.359-4.685-3.349-7.142c-0.914,0.385-1.827,0.771-2.741,1.155c0.826,1.868,1.349,3.684,1.849,5.642
				c0.914-0.385,1.827-0.771,2.741-1.155c-1.752-2.465-2.627-4.723-2.795-7.743c-0.633,0.482-1.266,0.964-1.898,1.446
				c3.571,0.936,5.199,3.32,5.081,6.944c-0.069,2.117-1.183,5.509-3.371,6.324c-3.678,1.371-3.212-9.608-2.831-10.737
				c1.267-3.755,2.794-6.367,1.466-10.376c-0.625-1.888-3.146-1.073-2.893,0.797c0.261,1.923,1.183,3.19,2.151,4.858
				C115.391,185.633,117.984,184.123,117.011,182.446L117.011,182.446z"/>
		</g>
	</g>
	<g>
		<g>
			<path fill="#666666" d="M115.77,197.805c0.264-1.263,1.837-0.922,1.056-1.003c-0.139-0.014-0.275-0.033-0.415-0.044
				c-0.421-0.031-0.963,0.076-1.302,0.338c-1.345,1.037-0.811,2.562-0.188,3.864c0.863-0.505,1.727-1.009,2.59-1.514
				c-0.979-1.471-1.885-2.921-2.349-4.642c-0.503-1.868-3.369-1.078-2.893,0.797c0.468,1.843,1.032,3.658,1.5,5.5
				c0.914-0.385,1.827-0.771,2.741-1.155c-0.112-0.248-0.215-0.521-0.238-0.795c0.002-0.074,0.003-0.149,0.004-0.224
				c-0.068,0.416-0.336,0.692-0.803,0.831c-0.385-0.05-0.771-0.101-1.155-0.151c-0.201-0.301-0.401-0.603-0.603-0.904
				c0.128,1.92,3.129,1.933,3,0c-0.096-1.426-1.597-2.623-2.824-1.395c-1.109,1.109-0.52,2.942,0.029,4.151
				c0.723,1.594,3.146,0.438,2.741-1.155c-0.468-1.843-1.032-3.658-1.5-5.5c-0.964,0.266-1.929,0.531-2.893,0.797
				c0.53,1.969,1.53,3.676,2.651,5.358c1.08,1.622,3.421,0.226,2.59-1.514c-0.115-0.242-0.198-0.446-0.272-0.7
				c0.105,0.359-0.361,0.87-0.734,0.975c-0.405,0.113,0.139,0.059,0.321,0.081c0.791,0.098,1.665-0.377,1.837-1.2
				C119.057,196.715,116.166,195.911,115.77,197.805L115.77,197.805z"/>
		</g>
	</g>
	<g>
		<g>
			<path fill="#666666" d="M110.656,188.143c-2.381,2.138-4.375-2.659-4.439-4.439c-0.07-1.94-2.896-1.927-3,0
				c-0.166,3.084,1.597,5.991,4.861,6.297c3.188,0.299,5.695-1.984,6.585-4.898c0.566-1.854-2.329-2.642-2.893-0.797
				c-1.1,3.6-5.777,3.553-5.554-0.602c-1,0-2,0-3,0c0.167,4.605,4.912,10.736,9.561,6.561
				C114.219,188.969,112.09,186.854,110.656,188.143L110.656,188.143z"/>
		</g>
	</g>
	<g>
		<g>
			<path fill="#666666" d="M115.216,179.703c0-0.139,0-0.278,0-0.417c0-1.935-3-1.935-3,0c0,2.806,0,5.611,0,8.417
				c0,1.935,3,1.935,3,0c0-2.806,0-5.611,0-8.417c0-1.935-3-1.935-3,0c0,0.139,0,0.278,0,0.417
				C112.216,181.638,115.216,181.638,115.216,179.703L115.216,179.703z"/>
		</g>
	</g>
	<g>
		<g>
			<path fill="#666666" d="M116.163,183.602c0.532-1.742,0.553-3.592,0.554-5.398c0-0.828-0.683-1.486-1.5-1.5
				c0.333,0.333,0.667,0.667,1,1c-0.016-0.961-0.948-1.724-1.898-1.446c-1,0.292-1.888,0.77-2.27,1.795
				c-0.229,0.612-0.064,1.234-0.278,1.753c-0.313,0.757,0.332,1.648,1.048,1.845c0.861,0.237,1.533-0.292,1.845-1.048
				c0.172-0.417,0.214-0.871,0.221-1.32c-0.001,0.011,0.052-0.524,0-0.278c-0.088,0.425-0.444,0.344,0.231,0.146
				c-0.633-0.482-1.266-0.964-1.898-1.446c0.021,1.263,0.737,1.979,2,2c-0.5-0.5-1-1-1.5-1.5c-0.001,1.549,0.01,3.106-0.446,4.602
				C112.704,184.66,115.6,185.447,116.163,183.602L116.163,183.602z"/>
		</g>
	</g>
	<g>
		<g>
			<path fill="#666666" d="M115.216,203.203c3.721-0.171,5.17-2.445,7.561-4.939c-0.605,0.078-1.212,0.156-1.817,0.234
				c2.468,1.839,2.725,4.857,2.757,7.705c1,0,2,0,3,0c-0.103-3.32-1.166-6.125-3.439-8.561c-1.146-1.229-3.359,0.42-2.355,1.817
				c1.584,2.206,2.818,4.634,3.849,7.142c0.384,0.936,1.697,1.622,2.507,0.662c1.069-1.268,1.411-2.596,1.886-4.162
				c0.563-1.856-2.333-2.644-2.893-0.797c-0.294,0.97-0.438,2.036-1.114,2.838c0.836,0.221,1.671,0.441,2.507,0.662
				c-1.131-2.752-2.41-5.435-4.151-7.858c-0.785,0.605-1.57,1.212-2.355,1.817c1.732,1.856,2.483,3.918,2.561,6.439
				c0.06,1.929,3.021,1.938,3,0c-0.046-4.079-0.829-7.752-4.243-10.295c-0.524-0.392-1.391-0.211-1.817,0.234
				c-1.676,1.749-2.789,3.938-5.439,4.061C113.291,200.292,113.282,203.292,115.216,203.203L115.216,203.203z"/>
		</g>
	</g>
	<g>
		<g>
			<path fill="#666666" d="M119.115,196.149c1.536-0.464,2.967-0.824,4.358-1.651c-0.605-0.785-1.212-1.57-1.817-2.355c-1,1-2,2-3,3
				c0.785,0.605,1.57,1.212,2.355,1.817c1.64-2.244,3.07-4.619,4.5-7c-0.432,0.248-0.863,0.495-1.295,0.743c0.167,0,0.333,0,0.5,0
				c-0.432-0.248-0.863-0.495-1.295-0.743c2.231,4.079,3.523,8.297,7.538,11.038c1.63,1.113,3.009-1.449,1.514-2.59
				c-3.307-2.525-5.142-6.329-6.962-9.962c-0.785,0.605-1.57,1.212-2.355,1.817c2.346,2.823,4.654,5.677,7,8.5
				c0.927,1.116,2.446,0.093,2.561-1.061c0.112-1.129,0.704-2.026,0.946-3.102c-0.964,0-1.929,0-2.893,0
				c0.402,0.724,0.466,1.492,0.189,2.307c-1.737,0.853-0.216,3.439,1.514,2.59c2.017-0.989,1.827-3.961,1.189-5.693
				c-0.476-1.293-2.541-1.563-2.893,0c-0.304,1.348-0.914,2.489-1.054,3.898c0.854-0.354,1.707-0.707,2.561-1.061
				c-2.346-2.823-4.654-5.677-7-8.5c-1.146-1.379-3.078,0.375-2.355,1.817c2.095,4.184,4.258,8.152,8.038,11.038
				c0.505-0.863,1.009-1.727,1.514-2.59c-3.459-2.362-4.545-6.459-6.462-9.962c-0.251-0.46-0.778-0.743-1.295-0.743
				c-1.29,0-1.641,0.486-2.295,1.575c-1.263,2.104-2.553,4.186-4,6.168c-1.027,1.406,1.182,2.991,2.355,1.817c1-1,2-2,3-3
				c1.205-1.205-0.343-3.232-1.817-2.355c-1.158,0.688-2.367,0.964-3.642,1.349C116.47,193.814,117.258,196.71,119.115,196.149
				L119.115,196.149z"/>
		</g>
	</g>
	<g>
		<g>
			<path fill="#666666" d="M119.973,187.998c3.459-1.61,3.188-6.035,2.689-9.193c-0.262-1.664-3.163-1.274-2.946,0.398
				c0.328,2.527-0.687,4.552-1.795,6.743c-0.871,1.722,1.717,3.24,2.59,1.514c1.329-2.626,2.598-5.229,2.205-8.257
				c-0.982,0.133-1.964,0.266-2.946,0.398c0.289,1.834,0.737,4.853-1.311,5.807C116.707,186.224,118.231,188.81,119.973,187.998
				L119.973,187.998z"/>
		</g>
	</g>
	<g>
		<g>
			<path fill="#666666" d="M104.656,180.143c-1.041,1.093-1.415,2.586-1.439,4.061c-0.032,1.936,2.968,1.933,3,0
				c0.008-0.48,0.061-0.861,0.205-1.322c0.067-0.178,0.074-0.204,0.022-0.081c0.041-0.086,0.084-0.171,0.132-0.255
				c0.043-0.077,0.09-0.151,0.14-0.225c-0.18,0.275,0.01-0.003,0.062-0.057C108.11,180.863,105.992,178.738,104.656,180.143
				L104.656,180.143z"/>
		</g>
	</g>
</g>
<g id="Layer_4">
	<path fill="none" stroke="#CCCC45" stroke-linecap="square" stroke-linejoin="bevel" stroke-miterlimit="10" d="M184.716,16.203
		c7,6.5,3,23.5-5,29.5"/>
	<path fill="none" stroke="#CCCC45" stroke-linecap="square" stroke-linejoin="bevel" stroke-miterlimit="10" d="M162.716,5.203
		c5.75,8.5,5.688,27-1,31.5"/>
	<path fill="none" stroke="#CCCC45" stroke-linecap="square" stroke-linejoin="bevel" stroke-miterlimit="10" d="M140.716,1.203
		c7.229,5.25,7.229,24,0.5,28.5"/>
	<path fill="none" stroke="#CCCC45" stroke-linecap="square" stroke-linejoin="bevel" stroke-miterlimit="10" d="M120.216,0.703
		c7.5,6,10,17,6,26"/>
	<path fill="none" stroke="#CCCC45" stroke-linecap="square" stroke-linejoin="bevel" stroke-miterlimit="10" d="M103.216,0.703
		c7.5,6,10,17,6,26"/>
	<path fill="none" stroke="#CCCC45" stroke-linecap="square" stroke-linejoin="bevel" stroke-miterlimit="10" d="M85.216,3.203
		c-4.5,8-3,19,2,27"/>
	<path fill="none" stroke="#CCCC45" stroke-linecap="square" stroke-linejoin="bevel" stroke-miterlimit="10" d="M65.216,7.703
		c-3.5,3.5-7.25,22.25,2,28.5"/>
	<path fill="none" stroke="#CCCC45" stroke-linecap="square" stroke-linejoin="bevel" stroke-miterlimit="10" d="M42.691,15.703
		c-7.534,10-4.521,21,5.525,28.5"/>
	<path fill="none" stroke="#CCCC45" stroke-linecap="square" stroke-linejoin="bevel" stroke-miterlimit="10" d="M26.716,24.203
		c-5.75,7-8.5,19.5,3.5,30"/>
	<path fill="none" stroke="#CCCC45" stroke-miterlimit="10" d="M8.716,38.203c-4.5,7-3.5,28,4.5,33.5"/>
</g>
</svg>
