<?xml version="1.0" encoding="utf-8"?>
<!-- Generator: Adobe Illustrator 16.0.0, SVG Export Plug-In . SVG Version: 6.00 Build 0)  -->
<!DOCTYPE svg PUBLIC "-//W3C//DTD SVG 1.1//EN" "http://www.w3.org/Graphics/SVG/1.1/DTD/svg11.dtd">
<svg version="1.1" id="Layer_1" xmlns="http://www.w3.org/2000/svg" xmlns:xlink="http://www.w3.org/1999/xlink" x="0px" y="0px"
	 width="226.846px" height="172.42px" viewBox="423.942 117.579 226.846 172.42"
	 enable-background="new 423.942 117.579 226.846 172.42" xml:space="preserve">
<g id="Layer_4">
	<path fill="#CC9900" stroke="#CC9900" stroke-width="2" stroke-miterlimit="10" d="M619.195,121.752l28.89-3.104
		c0,0,7.399,15.227-8.638,24.023l-5.453,1.368l-4.75-18.929l-0.4-1.604l-10.908,2.737l-0.966-3.849L619.195,121.752z"/>
	<polyline fill="#CC9900" stroke="#CC9900" stroke-width="2" stroke-miterlimit="10" points="633.335,140.039 628.88,143.976 
		635.433,143.063 	"/>
	
		<polygon fill="#FFCC00" stroke="#CC9900" stroke-width="2" stroke-linecap="round" stroke-linejoin="round" stroke-miterlimit="10" points="
		587.119,197.671 601.153,183.638 622.191,127.025 615.875,120.71 583.021,182.813 	"/>
	<circle fill="none" stroke="#FFCC00" stroke-width="2" stroke-miterlimit="10" cx="590.093" cy="187.251" r="2.358"/>
	<circle fill="none" stroke="#FFCC00" stroke-width="2" stroke-miterlimit="10" cx="616.286" cy="131.118" r="2.359"/>
</g>
<g id="Layer_6">
	<path fill="#FFCC00" stroke="#CC9900" stroke-width="2" stroke-miterlimit="10" d="M531.277,195.171
		c0,0-31.276,7.525-33.276,38.617v5.954l10.452,4.631c0,0,11.017-28.115,30.862-34.729c19.846-6.615,50.822-17.531,50.822-17.531
		s12.742-7.938-2.474-8.931L531.277,195.171z"/>
	<circle fill="none" stroke="#999999" stroke-width="2" stroke-miterlimit="10" cx="591.562" cy="187.078" r="1.272"/>
</g>
<g id="Layer_5">
	<path stroke="#000000" stroke-width="2" stroke-miterlimit="10" d="M514.276,226h-32.415c0,0-3.639,0.587-4.631,4.557
		c-0.121,0.481,0.099,1.409-0.072,2.442C475.928,240.467,474,260.25,474,260.25v3.97l44.614-1.248
		C518.615,262.972,525.191,246,514.276,226z"/>
	<polygon fill="#999999" stroke="#333333" stroke-width="2" stroke-miterlimit="10" points="466.977,232 476.9,232 475.303,239 
		466.646,239 	"/>
	<polygon fill="#999999" stroke="#333333" stroke-width="2" stroke-miterlimit="10" points="462.677,225 440.184,225 
		438.199,232.135 465.984,231.662 	"/>
	<polygon fill="#999999" stroke="#333333" stroke-width="2" stroke-miterlimit="10" points="475.906,237 466.646,237 465.323,259 
		473.261,259 	"/>
	<polygon fill="#999999" stroke="#333333" stroke-width="2" stroke-miterlimit="10" points="503.857,264.772 469.705,264.75 
		469.622,270 498.4,270 	"/>
	<path fill="#CCFFFF" stroke="#333333" stroke-width="2" stroke-miterlimit="10" d="M514.276,228h-26.462l-0.496,31h30.928
		C518.791,257,523.434,247,514.276,228z"/>
	<line fill="none" stroke="#333333" stroke-width="2" stroke-miterlimit="10" x1="520" y1="244" x2="488" y2="244"/>
	<polygon fill="#333333" stroke="#000000" stroke-width="2" stroke-miterlimit="10" points="486.911,226.548 481,226.726 481,259 
		486.967,259 	"/>
	<line fill="none" stroke="#333333" stroke-width="2" stroke-miterlimit="10" x1="463" y1="236" x2="457" y2="236"/>
</g>
<g id="Layer_3">
	<path fill="#FFFFFF" stroke="#333333" stroke-width="2" stroke-miterlimit="10" d="M544,277.938c0-4.384-3.556-7.938-7.938-7.938
		h-89.123c-4.384,0-7.938,3.555-7.938,7.938v3.123c0,4.385,3.554,7.938,7.938,7.938h89.123c4.384,0,7.938-3.554,7.938-7.938V277.938
		z"/>
	<rect x="437" y="261" fill="#FFCC00" stroke="#CC9900" stroke-width="2" stroke-miterlimit="10" width="82" height="3"/>
	<polygon fill="#FFCC00" stroke="#CC9900" stroke-width="2" stroke-miterlimit="10" points="465.984,233 438.861,233 436.877,261 
		464.66,261 	"/>
	<path fill="#FFFF33" stroke="#CC9900" stroke-width="2" stroke-miterlimit="10" d="M424.969,255.619c0,0-0.331,4.961,1.322,6.615
		c1.654,1.654,9.924,1.985,9.924,1.985l1.983-31.093c0,0-9.923-3.638-10.915,4.961C426.291,246.688,424.969,255.619,424.969,255.619
		z"/>
	<path fill="none" stroke="#333333" stroke-width="3" stroke-miterlimit="10" d="M442.5,279.456c0,3.276,1.709,6.044,5.041,6.044
		h85.509c3.333,0,6.45-2.768,6.45-6.044v-0.043c0-3.276-3.117-4.913-6.45-4.913h-85.509c-3.332,0-5.041,1.637-5.041,4.913V279.456z"
		/>
	<circle fill="#333333" cx="534.452" cy="279.765" r="5.954"/>
	<circle fill="#333333" cx="448.453" cy="279.765" r="5.954"/>
	<circle fill="#666666" cx="534.25" cy="279.968" r="2.85"/>
	<circle fill="#666666" cx="447.589" cy="279.968" r="2.85"/>
	<polygon fill="none" stroke="#333333" stroke-width="2" stroke-miterlimit="10" points="530.152,280 452.754,280 450.769,284 
		531.477,284 	"/>
	<line fill="none" stroke="#333333" stroke-miterlimit="10" x1="532" y1="277.5" x2="452" y2="277.5"/>
	<line fill="none" stroke="#CC9900" stroke-width="2" stroke-miterlimit="10" x1="463" y1="236" x2="459" y2="236"/>
	<line fill="none" stroke="#FFCC00" stroke-width="2" stroke-miterlimit="10" x1="434" y1="260" x2="430" y2="260"/>
	<line fill="none" stroke="#CC9900" stroke-width="2" stroke-miterlimit="10" x1="463" y1="239" x2="459" y2="239"/>
	<line fill="none" stroke="#FFCC00" stroke-width="2" stroke-miterlimit="10" x1="437" y1="239" x2="432" y2="239"/>
	<line fill="none" stroke="#CC9900" stroke-width="2" stroke-miterlimit="10" x1="463" y1="242" x2="459" y2="242"/>
	<line fill="none" stroke="#FFCC00" stroke-width="2" stroke-miterlimit="10" x1="436" y1="243" x2="432" y2="243"/>
	
		<line fill="none" stroke="#FFCC00" stroke-width="2" stroke-miterlimit="10" x1="431.238" y1="235.204" x2="429.907" y2="246.935"/>
	
		<line fill="none" stroke="#CC9900" stroke-width="2" stroke-miterlimit="10" x1="462.677" y1="254.461" x2="440.184" y2="254.301"/>
	
		<line fill="none" stroke="#CC9900" stroke-width="2" stroke-miterlimit="10" x1="462.677" y1="251.154" x2="440.184" y2="250.994"/>
</g>
</svg>
