<?xml version="1.0" encoding="utf-8"?>
<!-- Generator: Adobe Illustrator 16.0.0, SVG Export Plug-In . SVG Version: 6.00 Build 0)  -->
<!DOCTYPE svg PUBLIC "-//W3C//DTD SVG 1.1//EN" "http://www.w3.org/Graphics/SVG/1.1/DTD/svg11.dtd">
<svg version="1.1" xmlns="http://www.w3.org/2000/svg" xmlns:xlink="http://www.w3.org/1999/xlink" x="0px" y="0px" width="960px"
	 height="560px" viewBox="0 0 960 560" enable-background="new 0 0 960 560" xml:space="preserve">
<g id="Layer_4">
	
		<polygon fill="#FFFF33" stroke="#FFCC00" stroke-width="2" stroke-linecap="round" stroke-linejoin="round" stroke-miterlimit="10" points="
		436,150 436,180 397.5,263 384,263 415.5,161.5 	"/>
	<path fill="#FFCC00" stroke="#FFCC00" stroke-width="2" stroke-miterlimit="10" d="M380.384,248.045l-2.897,43.827
		c0,0,23.456,10.234,35.75-14.532l1.729-8.322l-28.883-6l-2.448-0.508l3.458-16.645l-5.875-1.221L380.384,248.045z"/>
	<polyline fill="#FFFF33" stroke="#FFCC00" stroke-width="2" stroke-miterlimit="10" points="410.034,267.491 415,260 415,270 	"/>
	<circle fill="none" stroke="#FFCC00" stroke-width="2" stroke-miterlimit="10" cx="427.565" cy="164.315" r="3.565"/>
	<circle fill="none" stroke="#FFCC00" stroke-width="2" stroke-miterlimit="10" cx="395.565" cy="252.315" r="3.565"/>
</g>
<g id="Layer_6">
	<path fill="#FFFF33" stroke="#FFCC00" stroke-width="2" stroke-miterlimit="10" d="M525,188.625c0,0,46.5,11.375,51,58.375v9
		l-16.5,7c0,0-17-42.5-47-52.5s-77-26.5-77-26.5s-19-12,4-13.5L525,188.625z"/>
	<circle fill="none" stroke="#FFCC00" stroke-width="2" stroke-miterlimit="10" cx="433.174" cy="176.391" r="1.924"/>
</g>
<g id="Layer_5">
	<path fill="#999999" stroke="#333333" stroke-width="2" stroke-miterlimit="10" d="M550,236h49c0,0,5.5,0.5,7,6.5
		c0.183,0.729,0.409,1.938,0.667,3.5c1.86,11.288,5.333,41,5.333,41v6l-68-1.5C544,291.5,533.5,265.5,550,236z"/>
	<polygon fill="#999999" stroke="#333333" stroke-width="2" stroke-miterlimit="10" points="621.5,244 606.5,244 608.914,254 
		622,254 	"/>
	<polygon fill="#999999" stroke="#333333" stroke-width="2" stroke-miterlimit="10" points="628,234 662,234 665,244.644 623,244 	
		"/>
	<polygon fill="#999999" stroke="#333333" stroke-width="2" stroke-miterlimit="10" points="608,252 622,252 624,285 612,285 	"/>
	<polygon fill="#999999" stroke="#333333" stroke-width="2" stroke-miterlimit="10" points="565.75,293.968 617.375,294 617.5,302 
		574,302 	"/>
	<path fill="#CCFFFF" stroke="#333333" stroke-width="2" stroke-miterlimit="10" d="M550,238h40l0.75,47H544
		C543.177,281.268,536.157,266.066,550,238z"/>
	<line fill="none" stroke="#333333" stroke-width="2" stroke-miterlimit="10" x1="542" y1="263" x2="590" y2="263"/>
	<polygon fill="#333333" stroke="#333333" stroke-width="2" stroke-miterlimit="10" points="590.356,236 600,236.323 600,285 
		590.75,285 	"/>
	<line fill="none" stroke="#333333" stroke-width="2" stroke-miterlimit="10" x1="628" y1="251" x2="636" y2="251"/>
</g>
<g id="Layer_3">
	<path fill="#FFFFFF" stroke="#333333" stroke-width="2" stroke-miterlimit="10" d="M665,319c0,6.627-5.373,12-12,12H518
		c-6.627,0-12-5.373-12-12v-5c0-6.627,5.373-12,12-12h135c6.627,0,12,5.373,12,12V319z"/>
	<rect x="544" y="287" fill="#FFFF33" stroke="#FFCC00" stroke-width="2" stroke-miterlimit="10" width="124" height="6"/>
	<polygon fill="#FFFF33" stroke="#FFCC00" stroke-width="2" stroke-miterlimit="10" points="623,246 664,246 667,287 625,287 	"/>
	<path fill="#FFFF33" stroke="#FFCC00" stroke-width="2" stroke-miterlimit="10" d="M685,280c0,0,0.5,7.5-2,10s-15,3-15,3l-3-47
		c0,0,15-5.5,16.5,7.5S685,280,685,280z"/>
	<path fill="none" stroke="#333333" stroke-width="3" stroke-miterlimit="10" d="M659.5,316.033c0,4.952-3.584,9.467-8.621,9.467
		H521.621c-5.037,0-10.121-4.515-10.121-9.467v-0.066c0-4.952,5.084-8.467,10.121-8.467h129.258c5.037,0,8.621,3.515,8.621,8.467
		V316.033z"/>
	<circle fill="#333333" cx="519.5" cy="316.5" r="9"/>
	<circle fill="#333333" cx="649.5" cy="316.5" r="9"/>
	<circle fill="#666666" cx="519.808" cy="316.808" r="4.308"/>
	<circle fill="#666666" cx="650.808" cy="316.808" r="4.308"/>
	<polygon fill="none" stroke="#333333" stroke-width="2" stroke-miterlimit="10" points="526,317 643,317 646,322 524,322 	"/>
	<line fill="none" stroke="#333333" stroke-miterlimit="10" x1="524" y1="312.5" x2="644" y2="312.5"/>
	<line fill="#FFFF33" stroke="#FFCC00" stroke-width="2" stroke-miterlimit="10" x1="628" y1="251" x2="634" y2="251"/>
	<line fill="#FFFF33" stroke="#FFCC00" stroke-width="2" stroke-miterlimit="10" x1="669" y1="252" x2="675" y2="252"/>
	<line fill="#FFFF33" stroke="#FFCC00" stroke-width="2" stroke-miterlimit="10" x1="628" y1="255" x2="634" y2="255"/>
	<line fill="#FFFF33" stroke="#FFCC00" stroke-width="2" stroke-miterlimit="10" x1="669" y1="256" x2="675" y2="256"/>
	<line fill="#FFFF33" stroke="#FFCC00" stroke-width="2" stroke-miterlimit="10" x1="628" y1="259" x2="634" y2="259"/>
	<line fill="#FFFF33" stroke="#FFCC00" stroke-width="2" stroke-miterlimit="10" x1="669" y1="261" x2="675" y2="261"/>
	<line fill="#FFFF33" stroke="#FFCC00" stroke-width="2" stroke-miterlimit="10" x1="678" y1="264" x2="681.25" y2="281.734"/>
	<line fill="#FFFF33" stroke="#FFCC00" stroke-width="2" stroke-miterlimit="10" x1="628" y1="278.25" x2="662" y2="278.008"/>
	<line fill="#FFFF33" stroke="#FFCC00" stroke-width="2" stroke-miterlimit="10" x1="628" y1="273.25" x2="662" y2="273.008"/>
</g>
</svg>
