<?xml version="1.0" encoding="utf-8"?>
<!-- Generator: Adobe Illustrator 16.0.0, SVG Export Plug-In . SVG Version: 6.00 Build 0)  -->
<!DOCTYPE svg PUBLIC "-//W3C//DTD SVG 1.1//EN" "http://www.w3.org/Graphics/SVG/1.1/DTD/svg11.dtd">
<svg version="1.1" id="Layer_1" xmlns="http://www.w3.org/2000/svg" xmlns:xlink="http://www.w3.org/1999/xlink" x="0px" y="0px"
	 width="316px" height="156.293px" viewBox="224 224 316 156.293" enable-background="new 224 224 316 156.293"
	 xml:space="preserve">
<g id="Layer_3">
	<g>
		<g>
			<path fill="#999999" d="M337.939,289.061c2.206,2.331,3.497,5.828,4.766,8.696c0.863-0.506,1.727-1.01,2.591-1.515
				c-1.801-3.498-3.734-6.843-4.85-10.642c-0.913,0.385-1.827,0.771-2.741,1.154c1.222,2.082,2.778,3.918,4,6
				c0.996,1.698,3.385,0.214,2.591-1.514c-1.063-2.309-1.938-4.692-3-7c-0.786,0.605-1.571,1.212-2.356,1.817
				c0.715,0.868,1.254,1.722,1.766,2.695c0.684-0.684,1.369-1.367,2.052-2.052c-1.058-0.572-1.162-2.045-1.312-3.104
				c-0.614,0.614-1.229,1.229-1.845,1.845c0.236,0.08,0.474,0.16,0.709,0.239c0.385-0.913,0.771-1.827,1.156-2.741
				c-1.268-0.454-2.363-1.139-3.405-2.005c-0.354,0.854-0.707,1.707-1.061,2.561c4.251,0.125,8.474,0.963,12.601,1.946
				c-0.367-0.482-0.733-0.964-1.101-1.446c-0.004,3.86,0.086,7.854-0.946,11.603c0.914-0.12,1.828-0.239,2.742-0.358
				c-1.804-3.725-2.699-7.092-2.795-11.243c-0.982,0.133-1.964,0.267-2.946,0.398c0.924,4.297,1.075,8.703,2,13
				c0.408,1.896,3.279,1.088,2.893-0.797c-0.956-4.678-2.043-9.324-3-14c-0.391-1.909-3.224-1.083-2.893,0.797
				c0.854,4.853,0.941,9.688,0.946,14.602c0.932-0.252,1.862-0.505,2.795-0.757c-2.098-4.617-2.875-9.703-3.85-14.642
				c-0.964,0.266-1.928,0.53-2.893,0.797c1.822,6.08,1.94,12.306,1.946,18.602c0.981-0.133,1.964-0.266,2.945-0.397
				c-1.847-4.88-2.975-9.896-4-15c-0.386-1.925-3.177-1.072-2.893,0.797c0.938,6.167,0.944,12.379,0.946,18.602
				c0.981-0.133,1.964-0.266,2.945-0.397c-1.81-7.463-2.871-14.918-2.945-22.603c-1,0-2,0-3,0c0.922,7.979,0.998,15.979,1,24
				c1,0,2,0,3,0c-0.913-7.03-0.913-13.969,0-21c-1,0-2,0-3,0c0.884,7.647,0.998,15.312,1,23c0.981-0.133,1.964-0.266,2.945-0.397
				c-1.915-6.396-1.94-12.982-1.945-19.603c-0.982,0.133-1.964,0.267-2.946,0.398c1.829,9.114,1.004,18.379,0.946,27.602
				c0.981-0.133,1.964-0.266,2.945-0.397c-2.01-9.457-2.928-20.491,2.85-28.846c-0.864,0-1.728,0-2.591,0
				c5.323,10.587,0.869,24.897-1.151,35.846c0.982,0.133,1.964,0.266,2.946,0.397c-0.052-9.662-0.797-19.457,2.945-28.602
				c-0.964,0-1.928,0-2.893,0c1.729,9.838,0.063,19.711-0.054,29.602c0.981-0.133,1.964-0.266,2.945-0.397
				c-1.35-7.216-1.677-15.264,1-22.203c-0.964,0-1.928,0-2.893,0c1.875,7.475,0.883,15.064-0.054,22.602c1,0,2,0,3,0
				c-0.998-9.135-1.978-18.946,2.795-27.242c-0.914-0.119-1.828-0.238-2.742-0.358c1.819,8.415,0.018,16.991-2,25.203
				c0.964,0,1.928,0,2.893,0c-1.921-9.3-1.921-18.903,0-28.203c-0.981-0.133-1.964-0.267-2.945-0.398
				c-0.058,9.667-0.937,19.353,0,29c0.183,1.89,3.012,1.97,3,0c-0.049-7.782-1.146-16.632,3.795-23.242
				c-0.914-0.119-1.828-0.238-2.742-0.358c1.813,11.49-0.909,23.082-1.054,34.602c0.932-0.252,1.862-0.505,2.795-0.757
				c-3.884-9.146-5.669-20.305-1-29.485c-0.914-0.119-1.828-0.238-2.742-0.358c1.826,12.143,0.036,24.406-0.054,36.602
				c0.981-0.133,1.964-0.266,2.945-0.397c-2.846-9.771-4.934-20.442-1-30.203c-0.964,0-1.928,0-2.893,0
				c2.939,14.904,0.131,30.381-2,45.203c0.964,0,1.928,0,2.893,0c-4.055-12.947-2.994-27.662,2-40.203
				c-0.981-0.133-1.964-0.266-2.945-0.397c-0.138,13.438-2.886,26.64-4,40c1,0,2,0,3,0c-0.087-13.224-1.837-26.53,0.945-39.603
				c-0.981-0.133-1.964-0.266-2.945-0.397c-0.144,12.401-2.857,24.598-3,37c1,0,2,0,3,0c-1.13-13.782-3.914-28.01-0.055-41.603
				c-0.981-0.133-1.964-0.266-2.945-0.397c-0.162,11.736-2.852,23.256-3,35c1,0,2,0,3,0c-0.098-10.896-1.885-22.116,1.945-32.603
				c-0.981-0.133-1.964-0.266-2.945-0.397c0.935,14.001-0.82,28.037,1,42c0.246,1.886,3.236,1.922,3,0
				c-0.972-7.877-1.971-16.011,0.945-23.603c-0.981-0.133-1.964-0.266-2.945-0.397c0.948,11.651,0.05,23.331,0,35
				c0.981-0.134,1.964-0.267,2.945-0.398c-4.146-10.099-2.757-22.14,1.85-31.845c-0.933-0.252-1.864-0.505-2.795-0.757
				c0.818,10.032-0.99,19.799-2.946,29.602c0.964,0,1.928,0,2.893,0c-2.722-7.522-4.988-16.311-1.15-23.845
				c-0.914-0.119-1.828-0.238-2.742-0.358c2.086,9.328,0.998,19.129,0.946,28.602c0.981-0.133,1.964-0.266,2.945-0.397
				c-2.933-9.244-3.873-20.536,2.614-28.541c-0.835-0.221-1.671-0.441-2.507-0.662c2.667,8.767,1.895,17.364,0,26.203
				c0.982,0.133,1.964,0.266,2.946,0.397c-0.939-7.577-1.843-15.197,1.795-22.242c-0.914-0.119-1.828-0.238-2.742-0.358
				c1.723,7.771,1.061,15.566-1,23.203c0.982,0.133,1.964,0.266,2.946,0.397c-0.061-6.893-0.884-14.062,2.795-20.242
				c-0.914-0.119-1.828-0.238-2.742-0.358c2.757,8.313,1.031,16.928-1,25.203c0.964,0,1.928,0,2.894,0
				c-2.366-6.803-3.593-15.695,1.613-21.541c-0.854-0.354-1.707-0.707-2.561-1.062c-0.005,6.619-0.031,13.205-1.946,19.603
				c0.914-0.12,1.828-0.239,2.742-0.358c-3.097-4.594-3.362-9.602-1.849-14.845c-0.965,0-1.929,0-2.894,0
				c0.698,5.045,0.078,9.596-2.849,13.845c0.786-0.102,1.57-0.202,2.355-0.304c-3.244-3.721-3.244-8.158,0-11.879
				c-0.835-0.221-1.671-0.441-2.507-0.662c1.544,6.166,1.242,12.209-1.849,17.845c0.786-0.102,1.57-0.201,2.355-0.304
				c-4.686-6.024-6.02-13.553-1.765-20.183c-0.914-0.119-1.828-0.238-2.742-0.358c1.57,5.508,1.077,10.658,0,16.203
				c0.964,0,1.928,0,2.893,0c-1.512-4.51-1.116-8.552,0.85-12.845c-0.914-0.119-1.828-0.238-2.742-0.358
				c1.916,6.396,1.941,12.982,1.946,19.603c0.854-0.354,1.707-0.707,2.561-1.062c-0.027-0.025-0.057-0.051-0.085-0.076
				c0.078,0.605,0.156,1.212,0.234,1.817c0.937-1.626,3.923-3.757,5.632-4.496c-0.684-0.684-1.368-1.368-2.052-2.052
				c-0.364,0.471-0.29,1.057-0.29,1.616c0,1.936,3,1.936,3,0c0-1.244-0.142-1.424-0.948-2.475c-1.314-1.711-1.329-4.675-2.105-6.674
				c-0.229,0.563-0.459,1.129-0.688,1.693c1.107-0.472,2.954,0.746,3.474-1.12c0.945-3.396,0.271-7.669,0.271-11.176
				c0-1.935-3-1.935-3,0c0,2.832,0,5.664,0,8.495c0,1.125,0.762,0.883-0.804,0.709c-0.441-0.049-1.099,0.351-1.453,0.501
				c-0.566,0.24-0.908,1.133-0.689,1.693c0.586,1.509,0.899,3.075,1.294,4.642c0.257,1.02,1.652,2.813,1.652,3.71
				c0,1.936,3,1.936,3,0c-0.04-0.033-0.08-0.068-0.12-0.104c1.041-1.348-0.873-2.563-2.052-2.052
				c-2.111,0.912-5.561,3.577-6.708,5.571c-0.322,0.561-0.268,1.37,0.233,1.817c0.028,0.025,0.058,0.051,0.085,0.076
				c0.953,0.851,2.563,0.304,2.562-1.062c-0.005-6.892-0.062-13.746-2.054-20.397c-0.343-1.144-2.172-1.604-2.742-0.358
				c-2.292,5.007-2.922,9.874-1.151,15.155c0.438,1.303,2.59,1.557,2.894,0c1.171-6.026,1.705-11.815,0-17.797
				c-0.366-1.284-2.048-1.441-2.742-0.358c-5.025,7.832-3.263,16.75,2.234,23.817c0.595,0.765,1.932,0.471,2.356-0.305
				c3.474-6.335,3.89-13.216,2.151-20.154c-0.263-1.048-1.764-1.517-2.508-0.662c-4.389,5.033-4.389,11.088,0,16.121
				c0.678,0.775,1.844,0.44,2.356-0.304c3.407-4.945,3.96-10.312,3.151-16.155c-0.215-1.551-2.515-1.313-2.894,0
				c-1.718,5.95-1.371,11.931,2.151,17.155c0.72,1.066,2.354,0.936,2.742-0.358c1.992-6.652,2.048-13.507,2.054-20.398
				c0.001-1.253-1.67-2.061-2.562-1.061c-5.958,6.688-5.144,16.531-2.386,24.459c0.463,1.333,2.519,1.526,2.894,0
				c2.152-8.771,3.92-17.997,1-26.797c-0.403-1.215-2.054-1.516-2.742-0.358c-3.98,6.688-3.271,14.274-3.205,21.757
				c0.015,1.69,2.502,2.049,2.946,0.398c2.198-8.152,2.838-16.509,1-24.797c-0.276-1.247-2.155-1.495-2.742-0.358
				c-3.915,7.581-3.224,15.539-2.205,23.757c0.191,1.546,2.561,2.196,2.946,0.398c2-9.33,2.814-18.544,0-27.797
				c-0.301-0.985-1.762-1.583-2.508-0.662c-7.211,8.896-6.688,21.049-3.386,31.459c0.507,1.6,2.938,1.329,2.946-0.398
				c0.053-9.768,1.099-19.777-1.054-29.397c-0.277-1.24-2.159-1.502-2.742-0.358c-4.233,8.312-2.18,17.788,0.849,26.155
				c0.462,1.278,2.578,1.577,2.894,0c2.007-10.054,3.895-20.104,3.054-30.398c-0.11-1.346-2.099-2.226-2.795-0.757
				c-4.926,10.381-6.604,23.313-2.151,34.155c0.61,1.487,2.938,1.413,2.946-0.398c0.05-11.668,0.948-23.348,0-35
				c-0.142-1.729-2.335-1.988-2.946-0.397c-3.011,7.836-2.058,16.258-1.054,24.397c1,0,2,0,3,0c-1.82-13.962-0.065-27.999-1-42
				c-0.115-1.726-2.362-1.997-2.946-0.397c-3.928,10.75-2.153,22.225-2.054,33.397c0.017,1.936,2.976,1.935,3,0
				c0.148-11.743,2.838-23.263,3-35c0.022-1.712-2.486-2.019-2.946-0.397c-3.941,13.882-1.208,28.32-0.054,42.397
				c0.156,1.903,2.978,1.959,3,0c0.143-12.401,2.856-24.598,3-37c0.019-1.67-2.589-2.075-2.946-0.397
				c-2.844,13.354-1.143,26.887-1.054,40.397c0.013,1.96,2.841,1.901,3,0c1.114-13.359,3.863-26.562,4-40
				c0.019-1.807-2.354-1.89-2.946-0.397c-5.176,12.995-6.2,28.39-2,41.797c0.403,1.288,2.667,1.569,2.894,0
				c2.215-15.403,5.054-31.315,2-46.797c-0.318-1.616-2.397-1.23-2.894,0c-4.118,10.217-1.979,21.566,1,31.797
				c0.474,1.628,2.935,1.308,2.946-0.398c0.092-12.494,1.816-24.959-0.054-37.397c-0.194-1.291-2.188-1.447-2.742-0.358
				c-5.206,10.237-3.334,22.311,1,32.515c0.614,1.445,2.777,0.617,2.795-0.758c0.147-11.831,2.81-23.595,0.946-35.397
				c-0.228-1.441-2.069-1.259-2.742-0.358c-5.276,7.06-4.256,16.448-4.205,24.757c1,0,2,0,3,0c-0.937-9.647-0.058-19.333,0-29
				c0.01-1.664-2.6-2.083-2.946-0.397c-2.033,9.844-2.033,19.953,0,29.797c0.303,1.469,2.548,1.403,2.894,0
				c2.15-8.756,3.937-17.837,2-26.797c-0.279-1.292-2.119-1.441-2.742-0.358c-5.061,8.798-4.268,19.035-3.205,28.757
				c0.212,1.942,2.762,1.916,3,0c0.973-7.825,1.891-15.649-0.054-23.397c-0.391-1.558-2.394-1.297-2.894,0
				c-2.875,7.453-2.447,16.063-1,23.797c0.319,1.707,2.927,1.247,2.946-0.398c0.12-10.188,1.728-20.265-0.054-30.397
				c-0.288-1.639-2.399-1.205-2.894,0c-3.842,9.385-3.106,19.475-3.054,29.397c0.009,1.649,2.632,2.103,2.946,0.398
				c2.188-11.864,6.611-26.694,0.849-38.155c-0.543-1.081-1.996-0.859-2.591,0c-6.238,9.02-5.323,20.938-3.151,31.155
				c0.359,1.689,2.937,1.261,2.946-0.398c0.06-9.508,0.831-19.006-1.054-28.397c-0.34-1.691-2.948-1.262-2.946,0.397
				c0.005,6.893,0.061,13.746,2.054,20.398c0.483,1.614,2.947,1.318,2.946-0.398c-0.002-7.688-0.116-15.353-1-23
				c-0.226-1.94-2.751-1.916-3,0c-0.913,7.031-0.913,13.97,0,21c0.241,1.856,3,1.993,3,0c-0.002-8.021-0.078-16.021-1-24
				c-0.216-1.87-3.02-1.98-3,0c0.077,7.957,1.179,15.674,3.054,23.398c0.404,1.665,2.947,1.28,2.946-0.398
				c-0.002-6.503-0.075-12.958-1.054-19.397c-0.965,0.266-1.929,0.53-2.894,0.797c1.025,5.104,2.152,10.121,4,15
				c0.577,1.523,2.948,1.386,2.946-0.398c-0.006-6.566-0.155-13.063-2.054-19.397c-0.561-1.87-3.265-1.086-2.894,0.797
				c1.03,5.229,1.935,10.478,4.151,15.358c0.641,1.41,2.797,0.646,2.795-0.758c-0.005-5.183-0.153-10.286-1.054-15.397
				c-0.965,0.266-1.929,0.53-2.894,0.797c0.957,4.677,2.043,9.324,3,14c0.964-0.267,1.928-0.531,2.894-0.797
				c-0.925-4.298-1.075-8.703-2-13c-0.359-1.669-2.985-1.278-2.946,0.397c0.106,4.621,1.197,8.61,3.205,12.757
				c0.583,1.205,2.417,0.823,2.742-0.357c1.104-4.011,1.049-8.271,1.054-12.398c0-0.648-0.456-1.293-1.102-1.446
				c-4.377-1.043-8.889-1.921-13.398-2.054c-1.238-0.037-2.082,1.711-1.062,2.562c1.443,1.199,2.952,2.141,4.729,2.775
				c1.593,0.57,2.708-2.052,1.156-2.741c-0.472-0.21-0.934-0.369-1.426-0.542c-1.204-0.422-1.988,0.822-1.845,1.846
				c0.264,1.886,0.935,3.948,2.689,4.896c1.348,0.729,2.752-0.716,2.052-2.052c-0.632-1.207-1.372-2.258-2.235-3.304
				c-1.163-1.41-3.016,0.384-2.355,1.816c1.063,2.31,1.938,4.692,3,7c0.864-0.505,1.727-1.009,2.591-1.514
				c-1.222-2.082-2.779-3.918-4-6c-0.857-1.46-3.226-0.493-2.742,1.155c1.188,4.05,3.229,7.623,5.151,11.358
				c0.9,1.748,3.354,0.216,2.591-1.515c-1.39-3.143-2.822-6.756-5.235-9.304C338.729,285.532,336.61,287.657,337.939,289.061
				L337.939,289.061z"/>
		</g>
	</g>
</g>
<g id="Layer_2">
	
		<rect x="258" y="280" fill="#FFFFFF" stroke="#CCCCCC" stroke-width="6" stroke-linecap="round" stroke-linejoin="round" stroke-miterlimit="10" width="164" height="89"/>
	
		<rect x="271" y="263" fill="#FFFFFF" stroke="#CCCCCC" stroke-width="6" stroke-linecap="round" stroke-linejoin="round" stroke-miterlimit="10" width="137" height="13"/>
	
		<rect x="283" y="280" fill="#FFFFFF" stroke="#CCCCCC" stroke-width="6" stroke-linecap="round" stroke-linejoin="round" stroke-miterlimit="10" width="17" height="93"/>
	
		<rect x="331" y="280" fill="#FFFFFF" stroke="#CCCCCC" stroke-width="6" stroke-linecap="round" stroke-linejoin="round" stroke-miterlimit="10" width="17" height="93"/>
	
		<rect x="335" y="280" fill="#FFFFFF" stroke="#CCCCCC" stroke-width="6" stroke-linecap="round" stroke-linejoin="round" stroke-miterlimit="10" width="17" height="93"/>
	
		<rect x="377" y="280" fill="#FFFFFF" stroke="#CCCCCC" stroke-width="6" stroke-linecap="round" stroke-linejoin="round" stroke-miterlimit="10" width="17" height="93"/>
	
		<line fill="none" stroke="#CCCCCC" stroke-width="6" stroke-linecap="round" stroke-linejoin="round" stroke-miterlimit="10" x1="291" y1="263" x2="291" y2="232"/>
	
		<line fill="none" stroke="#CCCCCC" stroke-width="6" stroke-linecap="round" stroke-linejoin="round" stroke-miterlimit="10" x1="314" y1="263" x2="314" y2="232"/>
	
		<line fill="none" stroke="#CCCCCC" stroke-width="6" stroke-linecap="round" stroke-linejoin="round" stroke-miterlimit="10" x1="340" y1="263" x2="340" y2="232"/>
	
		<line fill="none" stroke="#CCCCCC" stroke-width="6" stroke-linecap="round" stroke-linejoin="round" stroke-miterlimit="10" x1="366" y1="263" x2="366" y2="232"/>
	
		<line fill="none" stroke="#CCCCCC" stroke-width="6" stroke-linecap="round" stroke-linejoin="round" stroke-miterlimit="10" x1="390" y1="263" x2="390" y2="232"/>
	
		<line fill="none" stroke="#999999" stroke-width="6" stroke-linecap="round" stroke-linejoin="round" stroke-miterlimit="10" x1="289" y1="227" x2="294" y2="227"/>
	
		<line fill="none" stroke="#999999" stroke-width="6" stroke-linecap="round" stroke-linejoin="round" stroke-miterlimit="10" x1="289" y1="234" x2="294" y2="234"/>
	
		<line fill="none" stroke="#999999" stroke-width="6" stroke-linecap="round" stroke-linejoin="round" stroke-miterlimit="10" x1="289" y1="241" x2="294" y2="241"/>
	
		<line fill="none" stroke="#999999" stroke-width="6" stroke-linecap="round" stroke-linejoin="round" stroke-miterlimit="10" x1="289" y1="248" x2="294" y2="248"/>
	
		<line fill="none" stroke="#999999" stroke-width="6" stroke-linecap="round" stroke-linejoin="round" stroke-miterlimit="10" x1="312" y1="227" x2="317" y2="227"/>
	
		<line fill="none" stroke="#999999" stroke-width="6" stroke-linecap="round" stroke-linejoin="round" stroke-miterlimit="10" x1="312" y1="234" x2="317" y2="234"/>
	
		<line fill="none" stroke="#999999" stroke-width="6" stroke-linecap="round" stroke-linejoin="round" stroke-miterlimit="10" x1="312" y1="241" x2="317" y2="241"/>
	
		<line fill="none" stroke="#999999" stroke-width="6" stroke-linecap="round" stroke-linejoin="round" stroke-miterlimit="10" x1="312" y1="248" x2="317" y2="248"/>
	
		<line fill="none" stroke="#999999" stroke-width="6" stroke-linecap="round" stroke-linejoin="round" stroke-miterlimit="10" x1="337" y1="227" x2="342" y2="227"/>
	
		<line fill="none" stroke="#999999" stroke-width="6" stroke-linecap="round" stroke-linejoin="round" stroke-miterlimit="10" x1="337" y1="234" x2="342" y2="234"/>
	
		<line fill="none" stroke="#999999" stroke-width="6" stroke-linecap="round" stroke-linejoin="round" stroke-miterlimit="10" x1="337" y1="241" x2="342" y2="241"/>
	
		<line fill="none" stroke="#999999" stroke-width="6" stroke-linecap="round" stroke-linejoin="round" stroke-miterlimit="10" x1="337" y1="248" x2="342" y2="248"/>
	
		<line fill="none" stroke="#999999" stroke-width="6" stroke-linecap="round" stroke-linejoin="round" stroke-miterlimit="10" x1="369" y1="227" x2="364" y2="227"/>
	
		<line fill="none" stroke="#999999" stroke-width="6" stroke-linecap="round" stroke-linejoin="round" stroke-miterlimit="10" x1="364" y1="234" x2="369" y2="234"/>
	
		<line fill="none" stroke="#999999" stroke-width="6" stroke-linecap="round" stroke-linejoin="round" stroke-miterlimit="10" x1="364" y1="241" x2="369" y2="241"/>
	
		<line fill="none" stroke="#999999" stroke-width="6" stroke-linecap="round" stroke-linejoin="round" stroke-miterlimit="10" x1="364" y1="248" x2="369" y2="248"/>
	
		<line fill="none" stroke="#999999" stroke-width="6" stroke-linecap="round" stroke-linejoin="round" stroke-miterlimit="10" x1="388" y1="227" x2="393" y2="227"/>
	
		<line fill="none" stroke="#999999" stroke-width="6" stroke-linecap="round" stroke-linejoin="round" stroke-miterlimit="10" x1="388" y1="234" x2="393" y2="234"/>
	
		<line fill="none" stroke="#999999" stroke-width="6" stroke-linecap="round" stroke-linejoin="round" stroke-miterlimit="10" x1="388" y1="241" x2="393" y2="241"/>
	
		<line fill="none" stroke="#999999" stroke-width="6" stroke-linecap="round" stroke-linejoin="round" stroke-miterlimit="10" x1="388" y1="248" x2="393" y2="248"/>
	
		<polyline fill="#C69C6D" stroke="#8C6239" stroke-width="6" stroke-linecap="round" stroke-linejoin="round" stroke-miterlimit="10" points="
		441,373 441,369 441,322 494,322 494,369 	"/>
</g>
<g id="Layer_1_1_">
	
		<path fill="#FFFFFF" stroke="#999999" stroke-width="6" stroke-linecap="round" stroke-linejoin="round" stroke-miterlimit="10" d="
		M249.083,380.293"/>
	
		<polyline fill="none" stroke="#999999" stroke-width="6" stroke-linecap="round" stroke-linejoin="round" stroke-miterlimit="10" points="
		306,369 306,308 259,308 259,373 537,373 258.459,373 227,373 227,341 537,341 537,373 	"/>
	
		<line fill="none" stroke="#999999" stroke-width="6" stroke-linecap="round" stroke-linejoin="round" stroke-miterlimit="10" x1="283" y1="373" x2="283" y2="308"/>
	
		<path fill="#FFFFFF" stroke="#999999" stroke-width="6" stroke-linecap="round" stroke-linejoin="round" stroke-miterlimit="10" d="
		M306.375,373"/>
	
		<polyline fill="#FFFFFF" stroke="#999999" stroke-width="6" stroke-linecap="round" stroke-linejoin="round" stroke-miterlimit="10" points="
		306,308 330,308 330,373 	"/>
	
		<line fill="none" stroke="#999999" stroke-width="12" stroke-linecap="round" stroke-linejoin="round" stroke-miterlimit="10" x1="259" y1="329" x2="259" y2="315"/>
	
		<line fill="none" stroke="#999999" stroke-width="12" stroke-linecap="round" stroke-linejoin="round" stroke-miterlimit="10" x1="283" y1="329" x2="283" y2="315"/>
	
		<line fill="none" stroke="#999999" stroke-width="12" stroke-linecap="round" stroke-linejoin="round" stroke-miterlimit="10" x1="238" y1="329" x2="238" y2="315"/>
	
		<line fill="none" stroke="#999999" stroke-width="12" stroke-linecap="round" stroke-linejoin="round" stroke-miterlimit="10" x1="306" y1="329" x2="306" y2="315"/>
	
		<polyline fill="none" stroke="#999999" stroke-width="6" stroke-linecap="round" stroke-linejoin="round" stroke-miterlimit="10" points="
		511,373 511,258 490,258 530,258 	"/>
	
		<line fill="none" stroke="#999999" stroke-width="12" stroke-linecap="round" stroke-linejoin="round" stroke-miterlimit="10" x1="511" y1="258" x2="511" y2="236"/>
	
		<line fill="none" stroke="#999999" stroke-width="12" stroke-linecap="round" stroke-linejoin="round" stroke-miterlimit="10" x1="511" y1="272" x2="511" y2="280"/>
	
		<line fill="none" stroke="#999999" stroke-width="12" stroke-linecap="round" stroke-linejoin="round" stroke-miterlimit="10" x1="330" y1="329" x2="330" y2="315"/>
	
		<polyline fill="none" stroke="#999999" stroke-width="6" stroke-linecap="round" stroke-linejoin="round" stroke-miterlimit="10" points="
		259,308 238,308 238,369 	"/>
	
		<polyline fill="none" stroke="#999999" stroke-width="6" stroke-linecap="round" stroke-linejoin="round" stroke-miterlimit="10" points="
		530,341 342,341 537,341 537,373 227,373 	"/>
</g>
<g id="Layer_4">
	<path fill="none" stroke="#999999" stroke-width="2" stroke-linecap="round" stroke-linejoin="round" stroke-miterlimit="10" d="
		M511,236c0,0-79,12-118-9"/>
	<path fill="none" stroke="#999999" stroke-width="2" stroke-linecap="round" stroke-linejoin="round" stroke-miterlimit="10" d="
		M388,227c0,0-2.509,7.528-19.001,1.93c-1.541-0.523-3.204-1.16-4.999-1.93c0,0-10,11-22,0"/>
	<path fill="none" stroke="#999999" stroke-width="2" stroke-linecap="round" stroke-linejoin="round" stroke-miterlimit="10" d="
		M337,227c0,0-8,13-20,0"/>
	<path fill="none" stroke="#999999" stroke-width="2" stroke-linecap="round" stroke-linejoin="round" stroke-miterlimit="10" d="
		M510,247c0,0-105,13-120-15"/>
	<path fill="none" stroke="#999999" stroke-width="2" stroke-linecap="round" stroke-linejoin="round" stroke-miterlimit="10" d="
		M312,227c0,0-11,12-18,0"/>
	<path fill="none" stroke="#999999" stroke-width="2" stroke-linecap="round" stroke-linejoin="round" stroke-miterlimit="10" d="
		M238,315c0,0,82,4,92,0s0,9.5,0,9.5l-92-2.5v7h92"/>
</g>
<g id="Layer_5">
	
		<polygon fill="none" stroke="#333333" stroke-width="6" stroke-linecap="round" stroke-linejoin="round" stroke-miterlimit="10" points="
		227,341 238,341 537,341 537,373 227,373 	"/>
	
		<line fill="none" stroke="#333333" stroke-width="6" stroke-linecap="round" stroke-linejoin="round" stroke-miterlimit="10" x1="238" y1="371" x2="238" y2="343"/>
	
		<line fill="none" stroke="#333333" stroke-width="6" stroke-linecap="round" stroke-linejoin="round" stroke-miterlimit="10" x1="249" y1="371" x2="249" y2="343"/>
	
		<line fill="none" stroke="#333333" stroke-width="6" stroke-linecap="round" stroke-linejoin="round" stroke-miterlimit="10" x1="261" y1="371" x2="261" y2="343"/>
	
		<line fill="none" stroke="#333333" stroke-width="6" stroke-linecap="round" stroke-linejoin="round" stroke-miterlimit="10" x1="272" y1="371" x2="272" y2="343"/>
	
		<line fill="none" stroke="#333333" stroke-width="6" stroke-linecap="round" stroke-linejoin="round" stroke-miterlimit="10" x1="373" y1="371" x2="373" y2="343"/>
	
		<line fill="none" stroke="#333333" stroke-width="6" stroke-linecap="round" stroke-linejoin="round" stroke-miterlimit="10" x1="384" y1="371" x2="384" y2="343"/>
	
		<line fill="none" stroke="#333333" stroke-width="6" stroke-linecap="round" stroke-linejoin="round" stroke-miterlimit="10" x1="394" y1="371" x2="394" y2="343"/>
	
		<line fill="none" stroke="#333333" stroke-width="6" stroke-linecap="round" stroke-linejoin="round" stroke-miterlimit="10" x1="435" y1="371" x2="435" y2="343"/>
	
		<line fill="none" stroke="#333333" stroke-width="6" stroke-linecap="round" stroke-linejoin="round" stroke-miterlimit="10" x1="445" y1="371" x2="445" y2="343"/>
	
		<line fill="none" stroke="#333333" stroke-width="6" stroke-linecap="round" stroke-linejoin="round" stroke-miterlimit="10" x1="456" y1="371" x2="456" y2="343"/>
	
		<line fill="none" stroke="#333333" stroke-width="6" stroke-linecap="round" stroke-linejoin="round" stroke-miterlimit="10" x1="468" y1="371" x2="468" y2="343"/>
	
		<line fill="none" stroke="#333333" stroke-width="6" stroke-linecap="round" stroke-linejoin="round" stroke-miterlimit="10" x1="479" y1="371" x2="479" y2="343"/>
	
		<line fill="none" stroke="#333333" stroke-width="6" stroke-linecap="round" stroke-linejoin="round" stroke-miterlimit="10" x1="492" y1="371" x2="492" y2="343"/>
	
		<line fill="none" stroke="#333333" stroke-width="6" stroke-linecap="round" stroke-linejoin="round" stroke-miterlimit="10" x1="504" y1="371" x2="504" y2="343"/>
	
		<line fill="none" stroke="#333333" stroke-width="6" stroke-linecap="round" stroke-linejoin="round" stroke-miterlimit="10" x1="516" y1="371" x2="516" y2="343"/>
	
		<line fill="none" stroke="#333333" stroke-width="6" stroke-linecap="round" stroke-linejoin="round" stroke-miterlimit="10" x1="526" y1="371" x2="526" y2="343"/>
	
		<line fill="none" stroke="#333333" stroke-width="6" stroke-linecap="round" stroke-linejoin="round" stroke-miterlimit="10" x1="404" y1="371" x2="404" y2="343"/>
	
		<line fill="none" stroke="#333333" stroke-width="6" stroke-linecap="round" stroke-linejoin="round" stroke-miterlimit="10" x1="414" y1="371" x2="414" y2="343"/>
	
		<line fill="none" stroke="#333333" stroke-width="6" stroke-linecap="round" stroke-linejoin="round" stroke-miterlimit="10" x1="425" y1="369" x2="425" y2="341"/>
	
		<line fill="none" stroke="#333333" stroke-width="6" stroke-linecap="round" stroke-linejoin="round" stroke-miterlimit="10" x1="283" y1="371" x2="283" y2="343"/>
	
		<line fill="none" stroke="#333333" stroke-width="6" stroke-linecap="round" stroke-linejoin="round" stroke-miterlimit="10" x1="294" y1="371" x2="294" y2="343"/>
	
		<line fill="none" stroke="#333333" stroke-width="6" stroke-linecap="round" stroke-linejoin="round" stroke-miterlimit="10" x1="306" y1="371" x2="306" y2="343"/>
	
		<line fill="none" stroke="#333333" stroke-width="6" stroke-linecap="round" stroke-linejoin="round" stroke-miterlimit="10" x1="318" y1="371" x2="318" y2="343"/>
	
		<line fill="none" stroke="#333333" stroke-width="6" stroke-linecap="round" stroke-linejoin="round" stroke-miterlimit="10" x1="330" y1="371" x2="330" y2="343"/>
	
		<line fill="none" stroke="#333333" stroke-width="6" stroke-linecap="round" stroke-linejoin="round" stroke-miterlimit="10" x1="341" y1="371" x2="341" y2="343"/>
	
		<line fill="none" stroke="#333333" stroke-width="6" stroke-linecap="round" stroke-linejoin="round" stroke-miterlimit="10" x1="352" y1="371" x2="352" y2="343"/>
	
		<line fill="none" stroke="#333333" stroke-width="6" stroke-linecap="round" stroke-linejoin="round" stroke-miterlimit="10" x1="362" y1="371" x2="362" y2="343"/>
</g>
</svg>
