<?xml version="1.0" encoding="utf-8"?>
<!-- Generator: Adobe Illustrator 16.0.0, SVG Export Plug-In . SVG Version: 6.00 Build 0)  -->
<!DOCTYPE svg PUBLIC "-//W3C//DTD SVG 1.1//EN" "http://www.w3.org/Graphics/SVG/1.1/DTD/svg11.dtd">
<svg version="1.1" id="Layer_1" xmlns="http://www.w3.org/2000/svg" xmlns:xlink="http://www.w3.org/1999/xlink" x="0px" y="0px"
	 width="124px" height="293px" viewBox="518 69 124 293" enable-background="new 518 69 124 293" xml:space="preserve">
<g id="Layer_1_1_">
</g>
<g id="Layer_2">
	
		<polygon fill="none" stroke="#999999" stroke-width="6" stroke-linecap="round" stroke-linejoin="round" stroke-miterlimit="10" points="
		588,155 588,72 575,72 575,155 562,359 601,359 	"/>
</g>
<g id="Layer_3">
	
		<polygon fill="none" stroke="#999999" stroke-width="4" stroke-linecap="round" stroke-linejoin="round" stroke-miterlimit="10" points="
		539,87 620,87 588,72 575,72 	"/>
	<g>
		
			<polygon fill="none" stroke="#999999" stroke-width="4" stroke-linecap="round" stroke-linejoin="round" stroke-miterlimit="10" points="
			520.5,115 638.5,115 588.189,102 576.299,102 		"/>
	</g>
	
		<polygon fill="none" stroke="#999999" stroke-width="4" stroke-linecap="round" stroke-linejoin="round" stroke-miterlimit="10" points="
		527.5,150 632,150 590.394,137 577.814,137 	"/>
	
		<polygon fill="none" stroke="#999999" stroke-width="4" stroke-linecap="round" stroke-linejoin="round" stroke-miterlimit="10" points="
		539,176 618.5,176 587.781,166 573.352,166 	"/>
</g>
<g id="Layer_4">
	
		<polyline fill="none" stroke="#999999" stroke-width="2" stroke-linecap="round" stroke-linejoin="round" stroke-miterlimit="10" points="
		575,72 588,87 575,95 588,108 575,119 588,128 575,137 588,150 574,166 588,176 572.227,198.515 591.855,215.5 569.393,242.993 
		595.395,271.039 565.349,306.459 601,359 	"/>
	
		<polyline fill="none" stroke="#999999" stroke-width="2" stroke-linecap="round" stroke-linejoin="round" stroke-miterlimit="10" points="
		587.348,72 574.348,87 587.348,95 574.348,108 587.348,119 574.348,128 587.348,137 574.348,150 588.348,166 574.348,176 
		590.12,198.515 570.491,215.5 592.954,242.993 566.952,271.039 596.998,306.459 561.348,359 	"/>
</g>
<g id="Layer_5">
	
		<polyline fill="none" stroke="#999999" stroke-width="2" stroke-linecap="round" stroke-linejoin="round" stroke-miterlimit="10" points="
		599.556,77.417 588,87 575,86.247 562,77.417 	"/>
	
		<polyline fill="none" stroke="#999999" stroke-width="2" stroke-linecap="round" stroke-linejoin="round" stroke-miterlimit="10" points="
		574.348,115 562,104.771 550,115 	"/>
	
		<polyline fill="none" stroke="#999999" stroke-width="2" stroke-linecap="round" stroke-linejoin="round" stroke-miterlimit="10" points="
		588,115 601,104.771 610,115 	"/>
	
		<polyline fill="none" stroke="#999999" stroke-width="2" stroke-linecap="round" stroke-linejoin="round" stroke-miterlimit="10" points="
		574.348,150 561.348,140.413 550,150 	"/>
	
		<polyline fill="none" stroke="#999999" stroke-width="2" stroke-linecap="round" stroke-linejoin="round" stroke-miterlimit="10" points="
		588,150 599,140.413 610,150 	"/>
	
		<line fill="none" stroke="#999999" stroke-width="2" stroke-linecap="round" stroke-linejoin="round" stroke-miterlimit="10" x1="565.349" y1="168.472" x2="573.661" y2="176"/>
	
		<line fill="none" stroke="#999999" stroke-width="2" stroke-linecap="round" stroke-linejoin="round" stroke-miterlimit="10" x1="589.338" y1="176" x2="596.998" y2="168.472"/>
	
		<line fill="none" stroke="#999999" stroke-width="2" stroke-linecap="round" stroke-linejoin="round" stroke-miterlimit="10" x1="575" y1="72" x2="561.348" y2="87"/>
	
		<line fill="none" stroke="#999999" stroke-width="2" stroke-linecap="round" stroke-linejoin="round" stroke-miterlimit="10" x1="587.348" y1="72" x2="599.556" y2="85"/>
	
		<polyline fill="none" stroke="#999999" stroke-width="2" stroke-linecap="round" stroke-linejoin="round" stroke-miterlimit="10" points="
		589.338,102 599.556,115 610,107.2 	"/>
	
		<polyline fill="none" stroke="#999999" stroke-width="2" stroke-linecap="round" stroke-linejoin="round" stroke-miterlimit="10" points="
		573.661,102.285 562.174,115 550,107.328 	"/>
	
		<polyline fill="none" stroke="#999999" stroke-width="2" stroke-linecap="round" stroke-linejoin="round" stroke-miterlimit="10" points="
		573.661,137.334 562.174,150 550,143.25 	"/>
	
		<polyline fill="none" stroke="#999999" stroke-width="2" stroke-linecap="round" stroke-linejoin="round" stroke-miterlimit="10" points="
		588,137 599,150 610,145.207 	"/>
</g>
<g id="Layer_6">
	
		<polyline fill="none" stroke="#999999" stroke-width="2" stroke-linecap="round" stroke-linejoin="round" stroke-miterlimit="10" points="
		539,99 539,93 539,87 	"/>
	
		<line fill="none" stroke="#999999" stroke-width="2" stroke-linecap="round" stroke-linejoin="round" stroke-miterlimit="10" x1="537" y1="93" x2="541" y2="93"/>
	
		<polyline fill="none" stroke="#999999" stroke-width="2" stroke-linecap="round" stroke-linejoin="round" stroke-miterlimit="10" points="
		537,95 541,95 537,97 541,97 	"/>
	
		<polyline fill="none" stroke="#999999" stroke-width="2" stroke-linecap="round" stroke-linejoin="round" stroke-miterlimit="10" points="
		521,127 521,121 521,115 	"/>
	
		<line fill="none" stroke="#999999" stroke-width="2" stroke-linecap="round" stroke-linejoin="round" stroke-miterlimit="10" x1="519" y1="121" x2="523" y2="121"/>
	
		<polyline fill="none" stroke="#999999" stroke-width="2" stroke-linecap="round" stroke-linejoin="round" stroke-miterlimit="10" points="
		519,123 523,123 519,125 523,125 	"/>
	
		<polyline fill="none" stroke="#999999" stroke-width="2" stroke-linecap="round" stroke-linejoin="round" stroke-miterlimit="10" points="
		539,187 539,181 539,175 	"/>
	
		<line fill="none" stroke="#999999" stroke-width="2" stroke-linecap="round" stroke-linejoin="round" stroke-miterlimit="10" x1="537" y1="181" x2="541" y2="181"/>
	
		<polyline fill="none" stroke="#999999" stroke-width="2" stroke-linecap="round" stroke-linejoin="round" stroke-miterlimit="10" points="
		537,183 541,183 537,185 541,185 	"/>
	
		<polyline fill="none" stroke="#999999" stroke-width="2" stroke-linecap="round" stroke-linejoin="round" stroke-miterlimit="10" points="
		528,162 528,156 528,150 	"/>
	
		<line fill="none" stroke="#999999" stroke-width="2" stroke-linecap="round" stroke-linejoin="round" stroke-miterlimit="10" x1="526" y1="156" x2="530" y2="156"/>
	
		<polyline fill="none" stroke="#999999" stroke-width="2" stroke-linecap="round" stroke-linejoin="round" stroke-miterlimit="10" points="
		526,158 530,158 526,160 530,160 	"/>
	
		<polyline fill="none" stroke="#999999" stroke-width="2" stroke-linecap="round" stroke-linejoin="round" stroke-miterlimit="10" points="
		639,127 639,121 639,115 	"/>
	
		<line fill="none" stroke="#999999" stroke-width="2" stroke-linecap="round" stroke-linejoin="round" stroke-miterlimit="10" x1="637" y1="121" x2="641" y2="121"/>
	
		<polyline fill="none" stroke="#999999" stroke-width="2" stroke-linecap="round" stroke-linejoin="round" stroke-miterlimit="10" points="
		637,123 641,123 637,125 641,125 	"/>
	
		<polyline fill="none" stroke="#999999" stroke-width="2" stroke-linecap="round" stroke-linejoin="round" stroke-miterlimit="10" points="
		639,127 639,121 639,115 	"/>
	
		<line fill="none" stroke="#999999" stroke-width="2" stroke-linecap="round" stroke-linejoin="round" stroke-miterlimit="10" x1="637" y1="121" x2="641" y2="121"/>
	
		<polyline fill="none" stroke="#999999" stroke-width="2" stroke-linecap="round" stroke-linejoin="round" stroke-miterlimit="10" points="
		637,123 641,123 637,125 641,125 	"/>
	
		<polyline fill="none" stroke="#999999" stroke-width="2" stroke-linecap="round" stroke-linejoin="round" stroke-miterlimit="10" points="
		639,127 639,121 639,115 	"/>
	
		<line fill="none" stroke="#999999" stroke-width="2" stroke-linecap="round" stroke-linejoin="round" stroke-miterlimit="10" x1="637" y1="121" x2="641" y2="121"/>
	
		<polyline fill="none" stroke="#999999" stroke-width="2" stroke-linecap="round" stroke-linejoin="round" stroke-miterlimit="10" points="
		637,123 641,123 637,125 641,125 	"/>
	
		<polyline fill="none" stroke="#999999" stroke-width="2" stroke-linecap="round" stroke-linejoin="round" stroke-miterlimit="10" points="
		639,127 639,121 639,115 	"/>
	
		<line fill="none" stroke="#999999" stroke-width="2" stroke-linecap="round" stroke-linejoin="round" stroke-miterlimit="10" x1="637" y1="121" x2="641" y2="121"/>
	
		<polyline fill="none" stroke="#999999" stroke-width="2" stroke-linecap="round" stroke-linejoin="round" stroke-miterlimit="10" points="
		637,123 641,123 637,125 641,125 	"/>
	
		<polyline fill="none" stroke="#999999" stroke-width="2" stroke-linecap="round" stroke-linejoin="round" stroke-miterlimit="10" points="
		632,162 632,156 632,150 	"/>
	
		<polyline fill="none" stroke="#999999" stroke-width="2" stroke-linecap="round" stroke-linejoin="round" stroke-miterlimit="10" points="
		630,158 634,158 630,160 634,160 	"/>
	
		<polyline fill="none" stroke="#999999" stroke-width="2" stroke-linecap="round" stroke-linejoin="round" stroke-miterlimit="10" points="
		632,162 632,156 632,150 	"/>
	
		<polyline fill="none" stroke="#999999" stroke-width="2" stroke-linecap="round" stroke-linejoin="round" stroke-miterlimit="10" points="
		630,158 634,158 630,160 634,160 	"/>
	
		<polyline fill="none" stroke="#999999" stroke-width="2" stroke-linecap="round" stroke-linejoin="round" stroke-miterlimit="10" points="
		632,162 632,156 632,150 	"/>
	
		<polyline fill="none" stroke="#999999" stroke-width="2" stroke-linecap="round" stroke-linejoin="round" stroke-miterlimit="10" points="
		630,158 634,158 630,160 634,160 	"/>
	
		<polyline fill="none" stroke="#999999" stroke-width="2" stroke-linecap="round" stroke-linejoin="round" stroke-miterlimit="10" points="
		632,162 632,156 632,150 	"/>
	
		<polyline fill="none" stroke="#999999" stroke-width="2" stroke-linecap="round" stroke-linejoin="round" stroke-miterlimit="10" points="
		630,158 634,158 630,160 634,160 	"/>
	
		<polyline fill="none" stroke="#999999" stroke-width="2" stroke-linecap="round" stroke-linejoin="round" stroke-miterlimit="10" points="
		618,187 618,181 618,175 	"/>
	
		<polyline fill="none" stroke="#999999" stroke-width="2" stroke-linecap="round" stroke-linejoin="round" stroke-miterlimit="10" points="
		616,183 620,183 616,185 620,185 	"/>
	
		<polyline fill="none" stroke="#999999" stroke-width="2" stroke-linecap="round" stroke-linejoin="round" stroke-miterlimit="10" points="
		618,187 618,181 618,175 	"/>
	
		<polyline fill="none" stroke="#999999" stroke-width="2" stroke-linecap="round" stroke-linejoin="round" stroke-miterlimit="10" points="
		616,183 620,183 616,185 620,185 	"/>
	
		<polyline fill="none" stroke="#999999" stroke-width="2" stroke-linecap="round" stroke-linejoin="round" stroke-miterlimit="10" points="
		618,187 618,181 618,175 	"/>
	
		<polyline fill="none" stroke="#999999" stroke-width="2" stroke-linecap="round" stroke-linejoin="round" stroke-miterlimit="10" points="
		616,183 620,183 616,185 620,185 	"/>
	
		<polyline fill="none" stroke="#999999" stroke-width="2" stroke-linecap="round" stroke-linejoin="round" stroke-miterlimit="10" points="
		618,187 618,181 618,175 	"/>
	
		<polyline fill="none" stroke="#999999" stroke-width="2" stroke-linecap="round" stroke-linejoin="round" stroke-miterlimit="10" points="
		616,183 620,183 616,185 620,185 	"/>
	
		<polyline fill="none" stroke="#999999" stroke-width="2" stroke-linecap="round" stroke-linejoin="round" stroke-miterlimit="10" points="
		620,99 620,93 620,87 	"/>
	
		<polyline fill="none" stroke="#999999" stroke-width="2" stroke-linecap="round" stroke-linejoin="round" stroke-miterlimit="10" points="
		618,95 622,95 618,97 622,97 	"/>
	
		<polyline fill="none" stroke="#999999" stroke-width="2" stroke-linecap="round" stroke-linejoin="round" stroke-miterlimit="10" points="
		620,99 620,93 620,87 	"/>
	
		<polyline fill="none" stroke="#999999" stroke-width="2" stroke-linecap="round" stroke-linejoin="round" stroke-miterlimit="10" points="
		618,95 622,95 618,97 622,97 	"/>
	
		<polyline fill="none" stroke="#999999" stroke-width="2" stroke-linecap="round" stroke-linejoin="round" stroke-miterlimit="10" points="
		620,99 620,93 620,87 	"/>
	
		<polyline fill="none" stroke="#999999" stroke-width="2" stroke-linecap="round" stroke-linejoin="round" stroke-miterlimit="10" points="
		618,95 622,95 618,97 622,97 	"/>
	
		<polyline fill="none" stroke="#999999" stroke-width="2" stroke-linecap="round" stroke-linejoin="round" stroke-miterlimit="10" points="
		620,99 620,93 620,87 	"/>
	
		<polyline fill="none" stroke="#999999" stroke-width="2" stroke-linecap="round" stroke-linejoin="round" stroke-miterlimit="10" points="
		618,95 622,95 618,97 622,97 	"/>
</g>
</svg>
