<?xml version="1.0" encoding="utf-8"?>
<!-- Generator: Adobe Illustrator 16.0.0, SVG Export Plug-In . SVG Version: 6.00 Build 0)  -->
<!DOCTYPE svg PUBLIC "-//W3C//DTD SVG 1.1//EN" "http://www.w3.org/Graphics/SVG/1.1/DTD/svg11.dtd">
<svg version="1.1" id="Layer_1" xmlns="http://www.w3.org/2000/svg" xmlns:xlink="http://www.w3.org/1999/xlink" x="0px" y="0px"
	 width="242px" height="394px" viewBox="455.5 114 242 394" enable-background="new 455.5 114 242 394" xml:space="preserve">
<g id="Layer_1_1_">
	<g>
		
			<line fill="none" stroke="#999999" stroke-width="6" stroke-linecap="round" stroke-linejoin="round" stroke-miterlimit="10" x1="504" y1="144" x2="648" y2="144"/>
		
			<polygon fill="none" stroke="#999999" stroke-width="6" stroke-linecap="round" stroke-linejoin="round" stroke-miterlimit="10" points="
			621.666,287 658,195 658,144 496,144 496,195 529.666,287 		"/>
		
			<polyline fill="none" stroke="#999999" stroke-width="6" stroke-linecap="round" stroke-linejoin="round" stroke-miterlimit="10" points="
			630,162 522,162 514,162 639,162 639,216 576.5,276.708 514,216 514,162 		"/>
		
			<polygon fill="none" stroke="#999999" stroke-width="6" stroke-linecap="round" stroke-linejoin="round" stroke-miterlimit="10" points="
			658,117 658,144 639,144 		"/>
		
			<polygon fill="none" stroke="#999999" stroke-width="6" stroke-linecap="round" stroke-linejoin="round" stroke-miterlimit="10" points="
			496,144 496,117 514,144 		"/>
		
			<polyline fill="none" stroke="#999999" stroke-width="6" stroke-linecap="round" stroke-linejoin="round" stroke-miterlimit="10" points="
			514,195 514,216 460.33,215.5 496,195 514,195 		"/>
		
			<polyline fill="none" stroke="#999999" stroke-width="6" stroke-linecap="round" stroke-linejoin="round" stroke-miterlimit="10" points="
			692,216 639,216 658,195 639,216 655.666,144 639,144 638.332,211 		"/>
		
			<polygon fill="none" stroke="#999999" stroke-width="6" stroke-linecap="round" stroke-linejoin="round" stroke-miterlimit="10" points="
			496,144 514,144 514,210 		"/>
		
			<polygon fill="none" stroke="#999999" stroke-width="6" stroke-linecap="round" stroke-linejoin="round" stroke-miterlimit="10" points="
			576.334,276.708 567.666,287 584,287 		"/>
		
			<polygon fill="none" stroke="#999999" stroke-width="6" stroke-linecap="round" stroke-linejoin="round" stroke-miterlimit="10" points="
			529.584,286.562 529.183,290.128 505,505 648,505 647.569,501.435 621.666,287 593.666,286.867 		"/>
		
			<polyline fill="none" stroke="#999999" stroke-width="6" stroke-linecap="round" stroke-linejoin="round" stroke-miterlimit="10" points="
			594.166,502.332 593.584,286.867 557,286.562 557,505 594,505 		"/>
	</g>
	
		<line fill="none" stroke="#999999" stroke-width="6" stroke-linecap="round" stroke-linejoin="round" stroke-miterlimit="10" x1="497.43" y1="198.907" x2="514" y2="216"/>
	<path fill="none" stroke="#999999" stroke-width="6" stroke-linecap="round" stroke-linejoin="round" stroke-miterlimit="10" d="
		M692,216"/>
	
		<line fill="none" stroke="#999999" stroke-width="6" stroke-linecap="round" stroke-linejoin="round" stroke-miterlimit="10" x1="658" y1="195" x2="692" y2="216"/>
	
		<polygon fill="none" stroke="#999999" stroke-width="6" stroke-linecap="round" stroke-linejoin="round" stroke-miterlimit="10" points="
		675,252 602,252 620.903,233.578 	"/>
	
		<polyline fill="none" stroke="#999999" stroke-width="6" stroke-linecap="round" stroke-linejoin="round" stroke-miterlimit="10" points="
		531.097,233.578 477,252 550,252 	"/>
</g>
<g id="Layer_2">
	
		<polyline fill="none" stroke="#999999" stroke-width="3" stroke-linecap="round" stroke-linejoin="round" stroke-miterlimit="10" points="
		514,144 531,162 550,144 567.666,162 585.666,144 603.332,162 621.666,144 639,162 	"/>
	
		<polyline fill="none" stroke="#999999" stroke-width="3" stroke-linecap="round" stroke-linejoin="round" stroke-miterlimit="10" points="
		514,162 530.909,145.667 549.809,162 567.381,145.667 585.284,162 602.856,145.667 621.093,162 638.332,145.667 	"/>
	
		<polyline fill="none" stroke="#999999" stroke-width="3" stroke-linecap="round" stroke-linejoin="round" stroke-miterlimit="10" points="
		506.48,132.971 495.875,143.938 513.438,153.802 497.398,161.234 513.984,170.242 495.991,179.996 513.245,188.248 495.5,195 
		495.5,214 484.975,201.336 477,215.5 	"/>
	
		<polyline fill="none" stroke="#999999" stroke-width="3" stroke-linecap="round" stroke-linejoin="round" stroke-miterlimit="10" points="
		647.332,130.971 658.993,142.27 639.684,152.433 657.318,160.09 639.082,169.371 658.865,179.42 639.942,187.923 659.5,194.879 
		659.5,214.454 671.025,201.407 679.77,216 	"/>
	
		<polyline fill="none" stroke="#999999" stroke-width="3" stroke-linecap="round" stroke-linejoin="round" stroke-miterlimit="10" points="
		514.391,215.779 509.841,232.178 531.194,233.523 518.549,251.972 550.024,250.725 523.431,269.5 570,269.5 529.112,285.5 
		568,285.5 570,270.395 	"/>
	
		<polyline fill="none" stroke="#999999" stroke-width="3" stroke-linecap="round" stroke-linejoin="round" stroke-miterlimit="10" points="
		638.048,216.279 642.748,232.913 620.684,234.277 633.752,252.991 601.227,251.592 628.705,270.5 580.586,270.5 622.835,287.5 
		582.652,287.5 580.586,271.928 	"/>
	
		<polyline fill="none" stroke="#999999" stroke-width="3" stroke-linecap="round" stroke-linejoin="round" stroke-miterlimit="10" points="
		529.666,287 557,306 525.273,324.862 557,342.5 521.445,358.882 557,378 517.291,395.781 557,414 514,432 557,449 509.168,467.964 
		557,487 505,505 	"/>
	
		<polyline fill="none" stroke="#999999" stroke-width="3" stroke-linecap="round" stroke-linejoin="round" stroke-miterlimit="10" points="
		619.729,287 593.666,306 623.919,324.862 593.666,342.5 627.566,358.882 593.666,378 631.528,395.781 593.666,414 634.668,432 
		593.666,449 639.275,467.964 593.666,487 643.248,505 	"/>
	
		<polyline fill="none" stroke="#999999" stroke-width="3" stroke-linecap="round" stroke-linejoin="round" stroke-miterlimit="10" points="
		556,287.5 592.666,306 556,324 592.666,342.5 556,359 592.666,378 556,395.781 592.666,411.5 556,431.5 592.666,449 556,468.5 
		592.666,487 556,505 	"/>
	
		<polyline fill="none" stroke="#999999" stroke-width="3" stroke-linecap="round" stroke-linejoin="round" stroke-miterlimit="10" points="
		593.666,287.5 555.5,306 593.666,324 555.5,342.5 593.666,359 555.5,378 593.666,395.781 555.5,411.5 593.666,431.5 555.5,449 
		593.666,468.5 555.5,487 593.666,505 	"/>
</g>
<g id="Layer_3">
	
		<polyline fill="none" stroke="#999999" stroke-width="3" stroke-linecap="round" stroke-linejoin="round" stroke-miterlimit="10" points="
		513.5,219 513.5,239 531.097,233.578 523.431,269.5 557,257.768 529.112,285.5 576.334,276.708 619.729,287 594.166,259.549 
		625.596,268.36 611.668,242.549 639.082,239.769 635.547,219.354 	"/>
	
		<polyline fill="none" stroke="#999999" stroke-width="3" stroke-linecap="round" stroke-linejoin="round" stroke-miterlimit="10" points="
		593.766,287.354 623.945,305.38 593.691,323.965 628.26,341.452 594.172,377.71 634.671,431.85 594.166,486.5 646,486.5 596,505 	
		"/>
	
		<polyline fill="none" stroke="#999999" stroke-width="3" stroke-linecap="round" stroke-linejoin="round" stroke-miterlimit="10" points="
		557.003,286.562 527.616,304.734 557.075,323.474 523.416,341.107 556.608,377.663 517.172,431.823 556.614,486.5 506.141,486.5 
		554.827,505.58 	"/>
	
		<polyline fill="none" stroke="#999999" stroke-width="3" stroke-linecap="round" stroke-linejoin="round" stroke-miterlimit="10" points="
		523.416,341.107 628.26,341.452 517.291,395.781 634.863,396.25 	"/>
	
		<line fill="none" stroke="#999999" stroke-width="3" stroke-linecap="round" stroke-linejoin="round" stroke-miterlimit="10" x1="496" y1="117.5" x2="484" y2="117.5"/>
	
		<line fill="none" stroke="#999999" stroke-width="3" stroke-linecap="round" stroke-linejoin="round" stroke-miterlimit="10" x1="496" y1="126.5" x2="486" y2="126.5"/>
	
		<polyline fill="none" stroke="#999999" stroke-width="3" stroke-linecap="round" stroke-linejoin="round" stroke-miterlimit="10" points="
		460.5,216 460.5,227.5 457,227.5 464,227.5 	"/>
	
		<polyline fill="none" stroke="#999999" stroke-width="3" stroke-linecap="round" stroke-linejoin="round" stroke-miterlimit="10" points="
		476.5,253 476.5,264.5 473,264.5 480,264.5 	"/>
	
		<polyline fill="none" stroke="#999999" stroke-width="3" stroke-linecap="round" stroke-linejoin="round" stroke-miterlimit="10" points="
		692.5,216 692.5,227.5 689,227.5 696,227.5 	"/>
	
		<polyline fill="none" stroke="#999999" stroke-width="3" stroke-linecap="round" stroke-linejoin="round" stroke-miterlimit="10" points="
		675.5,252 675.5,263.5 672,263.5 679,263.5 	"/>
	
		<line fill="none" stroke="#999999" stroke-width="3" stroke-linecap="round" stroke-linejoin="round" stroke-miterlimit="10" x1="658" y1="117.5" x2="670" y2="117.5"/>
	
		<line fill="none" stroke="#999999" stroke-width="3" stroke-linecap="round" stroke-linejoin="round" stroke-miterlimit="10" x1="658" y1="126.5" x2="668" y2="126.5"/>
	
		<polyline fill="none" stroke="#999999" stroke-width="3" stroke-linecap="round" stroke-linejoin="round" stroke-miterlimit="10" points="
		601.5,165 601.5,180.5 597,180.5 605,180.5 	"/>
	
		<polyline fill="none" stroke="#999999" stroke-width="3" stroke-linecap="round" stroke-linejoin="round" stroke-miterlimit="10" points="
		550.5,164 550.5,179.5 546,179.5 554,179.5 	"/>
</g>
</svg>
