<?xml version="1.0" encoding="utf-8"?>
<!-- Generator: Adobe Illustrator 16.0.0, SVG Export Plug-In . SVG Version: 6.00 Build 0)  -->
<!DOCTYPE svg PUBLIC "-//W3C//DTD SVG 1.1//EN" "http://www.w3.org/Graphics/SVG/1.1/DTD/svg11.dtd">
<svg version="1.1" id="Layer_1" xmlns="http://www.w3.org/2000/svg" xmlns:xlink="http://www.w3.org/1999/xlink" x="0px" y="0px"
	 width="811.833px" height="394px" viewBox="67.611 114 811.833 394" enable-background="new 67.611 114 811.833 394"
	 xml:space="preserve">
<g id="Layer_1_1_">
	<g>
		
			<line fill="none" stroke="#999999" stroke-width="6" stroke-linecap="round" stroke-linejoin="round" stroke-miterlimit="10" x1="400" y1="144" x2="544" y2="144"/>
		
			<polygon fill="none" stroke="#999999" stroke-width="6" stroke-linecap="round" stroke-linejoin="round" stroke-miterlimit="10" points="
			517.666,287 554,195 554,144 392,144 392,195 425.666,287 		"/>
		
			<polyline fill="none" stroke="#999999" stroke-width="6" stroke-linecap="round" stroke-linejoin="round" stroke-miterlimit="10" points="
			526,162 418,162 410,162 535,162 535,216 472.5,276.708 410,216 410,162 		"/>
		
			<polygon fill="none" stroke="#999999" stroke-width="6" stroke-linecap="round" stroke-linejoin="round" stroke-miterlimit="10" points="
			554,117 554,144 535,144 		"/>
		
			<polygon fill="none" stroke="#999999" stroke-width="6" stroke-linecap="round" stroke-linejoin="round" stroke-miterlimit="10" points="
			392,144 392,117 410,144 		"/>
		
			<polyline fill="none" stroke="#999999" stroke-width="6" stroke-linecap="round" stroke-linejoin="round" stroke-miterlimit="10" points="
			410,195 410,216 356.331,215.5 392,195 410,195 		"/>
		
			<polyline fill="none" stroke="#999999" stroke-width="6" stroke-linecap="round" stroke-linejoin="round" stroke-miterlimit="10" points="
			588,216 535,216 554,195 535,216 551.666,144 535,144 534.332,211 		"/>
		
			<polygon fill="none" stroke="#999999" stroke-width="6" stroke-linecap="round" stroke-linejoin="round" stroke-miterlimit="10" points="
			392,144 410,144 410,210 		"/>
		
			<polygon fill="none" stroke="#999999" stroke-width="6" stroke-linecap="round" stroke-linejoin="round" stroke-miterlimit="10" points="
			472.334,276.708 463.666,287 480,287 		"/>
		
			<polygon fill="none" stroke="#999999" stroke-width="6" stroke-linecap="round" stroke-linejoin="round" stroke-miterlimit="10" points="
			425.584,286.562 425.183,290.128 401,505 544,505 543.569,501.435 517.666,287 489.666,286.867 		"/>
		
			<polyline fill="none" stroke="#999999" stroke-width="6" stroke-linecap="round" stroke-linejoin="round" stroke-miterlimit="10" points="
			490.166,502.332 489.584,286.867 453,286.562 453,505 490,505 		"/>
	</g>
	
		<line fill="none" stroke="#999999" stroke-width="6" stroke-linecap="round" stroke-linejoin="round" stroke-miterlimit="10" x1="393.43" y1="198.907" x2="410" y2="216"/>
	<path fill="none" stroke="#999999" stroke-width="6" stroke-linecap="round" stroke-linejoin="round" stroke-miterlimit="10" d="
		M588,216"/>
	
		<line fill="none" stroke="#999999" stroke-width="6" stroke-linecap="round" stroke-linejoin="round" stroke-miterlimit="10" x1="554" y1="195" x2="588" y2="216"/>
	
		<polygon fill="none" stroke="#999999" stroke-width="6" stroke-linecap="round" stroke-linejoin="round" stroke-miterlimit="10" points="
		571,252 498,252 516.903,233.578 	"/>
	
		<polyline fill="none" stroke="#999999" stroke-width="6" stroke-linecap="round" stroke-linejoin="round" stroke-miterlimit="10" points="
		427.097,233.578 373,252 446,252 	"/>
</g>
<g id="Layer_2">
	
		<polyline fill="none" stroke="#999999" stroke-width="3" stroke-linecap="round" stroke-linejoin="round" stroke-miterlimit="10" points="
		410,144 427,162 446,144 463.666,162 481.666,144 499.332,162 517.666,144 535,162 	"/>
	
		<polyline fill="none" stroke="#999999" stroke-width="3" stroke-linecap="round" stroke-linejoin="round" stroke-miterlimit="10" points="
		410,162 426.909,145.667 445.809,162 463.381,145.667 481.284,162 498.856,145.667 517.093,162 534.332,145.667 	"/>
	
		<polyline fill="none" stroke="#999999" stroke-width="3" stroke-linecap="round" stroke-linejoin="round" stroke-miterlimit="10" points="
		402.48,132.971 391.875,143.938 409.438,153.802 393.398,161.234 409.984,170.242 391.992,179.996 409.246,188.248 391.5,195 
		391.5,214 380.975,201.336 373,215.5 	"/>
	
		<polyline fill="none" stroke="#999999" stroke-width="3" stroke-linecap="round" stroke-linejoin="round" stroke-miterlimit="10" points="
		543.332,130.971 554.993,142.27 535.684,152.433 553.318,160.09 535.082,169.371 554.865,179.42 535.942,187.923 555.5,194.879 
		555.5,214.454 567.025,201.407 575.77,216 	"/>
	
		<polyline fill="none" stroke="#999999" stroke-width="3" stroke-linecap="round" stroke-linejoin="round" stroke-miterlimit="10" points="
		410.391,215.779 405.841,232.178 427.194,233.523 414.549,251.972 446.024,250.725 419.431,269.5 466,269.5 425.112,285.5 
		464,285.5 466,270.395 	"/>
	
		<polyline fill="none" stroke="#999999" stroke-width="3" stroke-linecap="round" stroke-linejoin="round" stroke-miterlimit="10" points="
		534.048,216.279 538.748,232.913 516.684,234.277 529.752,252.991 497.227,251.592 524.705,270.5 476.586,270.5 518.835,287.5 
		478.652,287.5 476.586,271.928 	"/>
	
		<polyline fill="none" stroke="#999999" stroke-width="3" stroke-linecap="round" stroke-linejoin="round" stroke-miterlimit="10" points="
		425.666,287 453,306 421.273,324.862 453,342.5 417.445,358.882 453,378 413.292,395.781 453,414 410,432 453,449 405.168,467.964 
		453,487 401,505 	"/>
	
		<polyline fill="none" stroke="#999999" stroke-width="3" stroke-linecap="round" stroke-linejoin="round" stroke-miterlimit="10" points="
		515.729,287 489.666,306 519.919,324.862 489.666,342.5 523.566,358.882 489.666,378 527.528,395.781 489.666,414 530.668,432 
		489.666,449 535.275,467.964 489.666,487 539.248,505 	"/>
	
		<polyline fill="none" stroke="#999999" stroke-width="3" stroke-linecap="round" stroke-linejoin="round" stroke-miterlimit="10" points="
		452,287.5 488.666,306 452,324 488.666,342.5 452,359 488.666,378 452,395.781 488.666,411.5 452,431.5 488.666,449 452,468.5 
		488.666,487 452,505 	"/>
	
		<polyline fill="none" stroke="#999999" stroke-width="3" stroke-linecap="round" stroke-linejoin="round" stroke-miterlimit="10" points="
		489.666,287.5 451.5,306 489.666,324 451.5,342.5 489.666,359 451.5,378 489.666,395.781 451.5,411.5 489.666,431.5 451.5,449 
		489.666,468.5 451.5,487 489.666,505 	"/>
</g>
<g id="Layer_3">
	
		<polyline fill="none" stroke="#999999" stroke-width="3" stroke-linecap="round" stroke-linejoin="round" stroke-miterlimit="10" points="
		409.5,219 409.5,239 427.097,233.578 419.431,269.5 453,257.768 425.112,285.5 472.334,276.708 515.729,287 490.166,259.549 
		521.596,268.36 507.668,242.549 535.082,239.769 531.547,219.354 	"/>
	
		<polyline fill="none" stroke="#999999" stroke-width="3" stroke-linecap="round" stroke-linejoin="round" stroke-miterlimit="10" points="
		489.766,287.354 519.945,305.38 489.691,323.965 524.26,341.452 490.172,377.71 530.671,431.85 490.166,486.5 542,486.5 492,505 	
		"/>
	
		<polyline fill="none" stroke="#999999" stroke-width="3" stroke-linecap="round" stroke-linejoin="round" stroke-miterlimit="10" points="
		453.003,286.562 423.616,304.734 453.075,323.474 419.416,341.107 452.608,377.663 413.172,431.823 452.614,486.5 402.141,486.5 
		450.827,505.58 	"/>
	
		<polyline fill="none" stroke="#999999" stroke-width="3" stroke-linecap="round" stroke-linejoin="round" stroke-miterlimit="10" points="
		419.416,341.107 524.26,341.452 413.292,395.781 530.863,396.25 	"/>
	
		<line fill="none" stroke="#999999" stroke-width="3" stroke-linecap="round" stroke-linejoin="round" stroke-miterlimit="10" x1="392" y1="126.5" x2="382" y2="126.5"/>
	
		<polyline fill="none" stroke="#999999" stroke-width="3" stroke-linecap="round" stroke-linejoin="round" stroke-miterlimit="10" points="
		356.5,216 356.5,227.5 353,227.5 360,227.5 	"/>
	
		<polyline fill="none" stroke="#999999" stroke-width="3" stroke-linecap="round" stroke-linejoin="round" stroke-miterlimit="10" points="
		372.5,253 372.5,264.5 369,264.5 376,264.5 	"/>
	
		<polyline fill="none" stroke="#999999" stroke-width="3" stroke-linecap="round" stroke-linejoin="round" stroke-miterlimit="10" points="
		588.5,216 588.5,227.5 585,227.5 592,227.5 	"/>
	
		<polyline fill="none" stroke="#999999" stroke-width="3" stroke-linecap="round" stroke-linejoin="round" stroke-miterlimit="10" points="
		571.5,252 571.5,263.5 568,263.5 575,263.5 	"/>
	
		<line fill="none" stroke="#999999" stroke-width="3" stroke-linecap="round" stroke-linejoin="round" stroke-miterlimit="10" x1="554" y1="126.5" x2="566" y2="126.5"/>
	
		<line fill="none" stroke="#999999" stroke-width="3" stroke-linecap="round" stroke-linejoin="round" stroke-miterlimit="10" x1="554" y1="126.5" x2="564" y2="126.5"/>
	
		<polyline fill="none" stroke="#999999" stroke-width="3" stroke-linecap="round" stroke-linejoin="round" stroke-miterlimit="10" points="
		497.5,165 497.5,180.5 493,180.5 501,180.5 	"/>
	
		<polyline fill="none" stroke="#999999" stroke-width="3" stroke-linecap="round" stroke-linejoin="round" stroke-miterlimit="10" points="
		446.5,164 446.5,179.5 442,179.5 450,179.5 	"/>
</g>
<g id="Layer_4">
	<path fill="none" stroke="#999999" stroke-width="3" stroke-linecap="round" stroke-linejoin="round" stroke-miterlimit="10" d="
		M69.111,125.5c146.993,27.599,310.89,0,310.89,0h12"/>
	<path fill="none" stroke="#999999" stroke-width="3" stroke-linecap="round" stroke-linejoin="round" stroke-miterlimit="10" d="
		M69.111,134.5c146.992,27.599,310.89,0,310.89,0h12"/>
	<path fill="none" stroke="#999999" stroke-width="3" stroke-linecap="round" stroke-linejoin="round" stroke-miterlimit="10" d="
		M69.861,228.5c132.652,30.099,280.811,0,280.811,0H361"/>
	<path fill="none" stroke="#999999" stroke-width="3" stroke-linecap="round" stroke-linejoin="round" stroke-miterlimit="10" d="
		M69.611,264.5c139.716,30.099,296.011,0,296.011,0H376"/>
	<path fill="none" stroke="#999999" stroke-width="3" stroke-linecap="round" stroke-linejoin="round" stroke-miterlimit="10" d="
		M877.944,124.5c-146.992,27.599-310.833,0-310.833,0H555"/>
	<path fill="none" stroke="#999999" stroke-width="3" stroke-linecap="round" stroke-linejoin="round" stroke-miterlimit="10" d="
		M877.944,133.5c-146.992,27.599-310.833,0-310.833,0H555"/>
	<path fill="none" stroke="#999999" stroke-width="3" stroke-linecap="round" stroke-linejoin="round" stroke-miterlimit="10" d="
		M876.944,228.5c-132.652,30.099-281.004,0-281.004,0H586"/>
	<path fill="none" stroke="#999999" stroke-width="3" stroke-linecap="round" stroke-linejoin="round" stroke-miterlimit="10" d="
		M874.194,263.5c-139.715,30.099-296.204,0-296.204,0H568"/>
	<path fill="none" stroke="#999999" stroke-width="3" stroke-linecap="round" stroke-linejoin="round" stroke-miterlimit="10" d="
		M69.861,179.5c172.292,30.099,364.724,0,364.724,0H448"/>
	<path fill="none" stroke="#999999" stroke-width="3" stroke-linecap="round" stroke-linejoin="round" stroke-miterlimit="10" d="
		M871.069,180.5c-172.293,30.099-364.792,0-364.792,0H493"/>
	
		<polyline fill="none" stroke="#999999" stroke-width="3" stroke-linecap="round" stroke-linejoin="round" stroke-miterlimit="10" points="
		446,179.5 498,179.5 503.666,180.5 435,180.5 431.218,180 	"/>
</g>
</svg>
