<?xml version="1.0" encoding="utf-8"?>
<!-- Generator: Adobe Illustrator 16.0.0, SVG Export Plug-In . SVG Version: 6.00 Build 0)  -->
<!DOCTYPE svg PUBLIC "-//W3C//DTD SVG 1.1//EN" "http://www.w3.org/Graphics/SVG/1.1/DTD/svg11.dtd">
<svg version="1.1" id="Layer_1" xmlns="http://www.w3.org/2000/svg" xmlns:xlink="http://www.w3.org/1999/xlink" x="0px" y="0px"
	 width="226.45px" height="87px" viewBox="0 0 226.45 87" enable-background="new 0 0 226.45 87" xml:space="preserve">
<path fill="#FBFF97" stroke="#FFFF6F" stroke-width="3" stroke-linecap="round" stroke-linejoin="round" stroke-miterlimit="10" d="
	M136.95,25.02c0,5.788-4.692,10.48-10.48,10.48h-8.039c-5.788,0-10.48-4.692-10.48-10.48v-0.04c0-5.788,4.692-10.48,10.48-10.48
	h8.039c5.788,0,10.48,4.692,10.48,10.48V25.02z"/>
<path fill="#FBFF97" stroke="#FFFF6F" stroke-width="3" stroke-linecap="round" stroke-linejoin="round" stroke-miterlimit="10" d="
	M89.95,23.02c0,5.788-4.692,10.48-10.48,10.48h-8.039c-5.788,0-10.48-4.692-10.48-10.48v-0.04c0-5.788,4.692-10.48,10.48-10.48
	h8.039c5.788,0,10.48,4.692,10.48,10.48V23.02z"/>
<path fill="#FBFF97" stroke="#FFFF6F" stroke-width="3" stroke-linecap="round" stroke-linejoin="round" stroke-miterlimit="10" d="
	M65.95,23.02c0,5.788-4.692,10.48-10.48,10.48h-8.039c-5.788,0-10.48-4.692-10.48-10.48v-0.04c0-5.788,4.692-10.48,10.48-10.48
	h8.039c5.788,0,10.48,4.692,10.48,10.48V23.02z"/>
<path fill="#FBFF97" stroke="#FBFF97" stroke-width="3" stroke-linecap="round" stroke-linejoin="round" stroke-miterlimit="10" d="
	M41.95,22.02c0,5.788-4.692,10.48-10.48,10.48h-8.039c-5.788,0-10.48-4.692-10.48-10.48v-0.04c0-5.788,4.692-10.48,10.48-10.48
	h8.039c5.788,0,10.48,4.692,10.48,10.48V22.02z"/>
<path fill="#FBFF97" stroke="#FFFF66" stroke-width="3" stroke-linecap="round" stroke-linejoin="round" stroke-miterlimit="10" d="
	M112.95,23.02c0,5.788-4.692,10.48-10.48,10.48h-8.039c-5.788,0-10.48-4.692-10.48-10.48v-0.04c0-5.788,4.692-10.48,10.48-10.48
	h8.039c5.788,0,10.48,4.692,10.48,10.48V23.02z"/>
<path fill="none" stroke="#666666" stroke-miterlimit="10" d="M126.45,46.75c-0.5-3.75,4.75-6,7.25-3.5s1.25,6.75-2.25,6.75
	c-3.25,0-4.5-3.75-2.25-5.75c2.5-2,7.75-0.5,9.75,1.25c10.75,9.75-14,10-5.75,0.75c4.5-4.75,18.25,1.75,12.75,7
	c-2.75,2.75-8,0.5-3.5-3.5c2-1.75,4.75-2,7.25-0.75"/>
<g>
	<g>
		<path fill="none" stroke="#A3A3A3" stroke-miterlimit="10" d="M133.95,47.25"/>
	</g>
</g>
<polygon fill="#FF1D25" stroke="#FF1D25" stroke-miterlimit="10" points="38.95,50.5 38.95,57 119.95,56.5 119.95,50.5 "/>
<polygon fill="#FEBC50" stroke="#FEBC50" stroke-miterlimit="10" points="33.45,51.5 127.45,51.5 139.45,26.5 9.95,24.75 0.7,53.5 
	"/>
<path fill="#FEBC50" stroke="#FEBC50" stroke-miterlimit="10" d="M6.7,29"/>
<path fill="#FF1D25" stroke="#FF0000" stroke-miterlimit="10" d="M114.45,62.5c0,0,10,1,13.5,8.5c0,0,5.426,6.234,18.713,2.492l1-6
	C134.376,71.234,128.95,65,128.95,65c-3.5-7.5-13.5-8.5-13.5-8.5L114.45,62.5z"/>
<rect x="21.95" y="54.5" fill="#FF1D25" stroke="#FF0000" stroke-miterlimit="10" width="106" height="8"/>
<rect x="29.95" y="49.5" fill="#FF3333" stroke="#FF0000" stroke-miterlimit="10" width="2" height="8"/>
<rect x="31.95" y="49.5" fill="#FF3333" stroke="#FF0000" stroke-miterlimit="10" width="2" height="8"/>
<rect x="27.95" y="49.5" fill="#FF3333" stroke="#FF0000" stroke-miterlimit="10" width="2" height="8"/>
<path fill="#FF1D25" stroke="#FF0000" stroke-miterlimit="10" d="M147.413,52.625c0,0,13.787-19.988,39.162,1.688
	c0,0-1.375,6.688,1.488,16.188h9.387c0,0,24.072-8.229,24.297-8s0.772-8,0-17c0,0,4.203-14.27-32.297-12.75
	c0,0-20.574-0.25-41.787,9.25C147.663,42,143.626,43.75,147.413,52.625z"/>
<path fill="none" stroke="#FF0000" stroke-miterlimit="10" d="M221.747,45.5c0,0-4.297-6-39.297-6"/>
<polygon fill="#FF9933" stroke="#FF9933" stroke-miterlimit="10" points="41.95,27.5 138.804,27.93 135.389,34.96 37.95,34.75 "/>
<line fill="none" stroke="#FF9933" stroke-miterlimit="10" x1="42.197" y1="25.199" x2="30.95" y2="48.592"/>
<path fill="#FF9933" stroke="#FF9933" stroke-miterlimit="10" d="M127.95,44.063c0,2.451-1.986,4.438-4.438,4.438H82.388
	c-2.451,0-4.438-1.986-4.438-4.438v-0.125c0-2.451,1.986-4.438,4.438-4.438h41.125c2.451,0,4.438,1.987,4.438,4.438V44.063z"/>
<polyline fill="none" stroke="#FF9933" stroke-miterlimit="10" points="39.159,31.586 21.95,43.5 3.45,43.5 "/>
<path fill="#CCFFFF" stroke="#333333" stroke-width="3" stroke-linecap="round" stroke-linejoin="round" stroke-miterlimit="10" d="
	M184.218,47.207"/>
<path fill="#CCFFFF" stroke="#333333" stroke-width="3" stroke-linecap="round" stroke-linejoin="round" stroke-miterlimit="10" d="
	M184.218,45.207c2.409-3.415,2.232-7.812,2.232-7.812l-7-29.896h-22.5l-1.859,32.625C155.091,40.125,170.772,32.637,184.218,45.207"
	/>
<line fill="#CCFFFF" stroke="#333333" stroke-width="3" stroke-linecap="round" stroke-linejoin="round" stroke-miterlimit="10" x1="167.95" y1="8" x2="167.95" y2="38"/>
<line fill="none" stroke="#333333" stroke-width="3" stroke-linecap="round" stroke-linejoin="round" stroke-miterlimit="10" x1="189.95" y1="10" x2="189.95" y2="54"/>
<line fill="none" stroke="#E6E6E6" stroke-width="3" stroke-linecap="round" stroke-linejoin="round" stroke-miterlimit="10" x1="153.45" y1="5.5" x2="182.45" y2="5.5"/>
<rect x="161.95" y="1.5" fill="#E66625" stroke="#E66625" stroke-width="3" stroke-linecap="round" stroke-linejoin="round" stroke-miterlimit="10" width="3" height="4"/>
<polyline fill="none" stroke="#333333" stroke-width="2" stroke-linecap="round" stroke-linejoin="round" stroke-miterlimit="10" points="
	189.45,14 193.45,14 189.95,18 193.45,18 "/>
<line fill="none" stroke="#333333" stroke-width="2" stroke-linecap="round" stroke-linejoin="round" stroke-miterlimit="10" x1="190.814" y1="66.732" x2="195.812" y2="66.544"/>
<line fill="none" stroke="#333333" stroke-width="2" stroke-linecap="round" stroke-linejoin="round" stroke-miterlimit="10" x1="190.45" y1="59" x2="200.45" y2="59"/>
<path fill="none" stroke="#000000" stroke-miterlimit="10" d="M145.792,51.568"/>
<path fill="none" stroke="#333333" stroke-miterlimit="10" d="M146.359,49.708c4.474-6.185,11.75-10.208,19.966-10.208
	c13.6,0,24.625,11.025,24.625,24.625c0,0.881-0.046,1.751-0.136,2.607l4.997-0.188c2.453-6.456,8.697-11.044,16.014-11.044
	c3.845,0,7.394,1.268,10.251,3.406"/>
<circle fill="#666666" stroke="#666666" stroke-miterlimit="10" cx="55.95" cy="72.5" r="14"/>
<circle fill="#666666" stroke="#666666" stroke-miterlimit="10" cx="90.95" cy="72.5" r="14"/>
<circle fill="#666666" stroke="#666666" stroke-miterlimit="10" cx="211.95" cy="72.5" r="14"/>
<path fill="#666666" stroke="#666666" stroke-miterlimit="10" d="M188.061,64.418c0.189,11.938-9.333,21.77-21.271,21.959
	c-8.954,0.143-16.722-5.179-20.126-12.885c-1.139-2.568-1.791-5.401-1.833-8.387c-0.048-2.984,0.513-5.837,1.564-8.44
	c3.158-7.81,10.753-13.375,19.707-13.518C178.04,42.957,187.87,52.48,188.061,64.418z"/>
<circle fill="#999999" stroke="#333333" stroke-width="5" stroke-miterlimit="10" cx="55.834" cy="72.616" r="7.884"/>
<circle fill="#999999" stroke="#333333" stroke-width="5" stroke-miterlimit="10" cx="90.834" cy="72.616" r="7.884"/>
<circle fill="#999999" stroke="#333333" stroke-width="5" stroke-miterlimit="10" cx="211.834" cy="72.616" r="7.884"/>
<circle fill="#999999" stroke="#333333" stroke-width="5" stroke-miterlimit="10" cx="166.459" cy="64.241" r="12.509"/>
</svg>
