<?xml version="1.0" encoding="utf-8"?>
<!-- Generator: Adobe Illustrator 16.0.0, SVG Export Plug-In . SVG Version: 6.00 Build 0)  -->
<!DOCTYPE svg PUBLIC "-//W3C//DTD SVG 1.1//EN" "http://www.w3.org/Graphics/SVG/1.1/DTD/svg11.dtd">
<svg version="1.1" xmlns="http://www.w3.org/2000/svg" xmlns:xlink="http://www.w3.org/1999/xlink" x="0px" y="0px"
	 width="228.243px" height="366.833px" viewBox="0 0 228.243 366.833" enable-background="new 0 0 228.243 366.833"
	 xml:space="preserve">
<g id="Layer_5" display="none">
	<linearGradient id="SVGID_1_" gradientUnits="userSpaceOnUse" x1="306.1006" y1="219.5825" x2="357.6387" y2="219.5825">
		<stop  offset="0.0918" style="stop-color:#996633"/>
		<stop  offset="0.551" style="stop-color:#7F5C00"/>
		<stop  offset="0.9847" style="stop-color:#544A00"/>
	</linearGradient>
	<polygon display="inline" fill="url(#SVGID_1_)" points="320.4,146.333 346.741,146.333 357.639,292.375 306.101,292.833 	"/>
	<linearGradient id="SVGID_2_" gradientUnits="userSpaceOnUse" x1="332.1216" y1="-4.9478" x2="332.1216" y2="220.3281">
		<stop  offset="0.0714" style="stop-color:#008400"/>
		<stop  offset="0.9847" style="stop-color:#006837"/>
	</linearGradient>
	<polygon display="inline" fill="url(#SVGID_2_)" points="335.505,-4.948 446.243,176.319 408.801,163.866 403.783,196.814 
		376.358,169.99 358.041,220.328 336.992,181.314 309.072,219.207 294.27,172.114 264.518,196.773 264.518,164.444 218,174.093 	"/>
	<linearGradient id="SVGID_3_" gradientUnits="userSpaceOnUse" x1="332.0718" y1="-53.8584" x2="332.0718" y2="142.2573">
		<stop  offset="0.0714" style="stop-color:#008400"/>
		<stop  offset="0.9847" style="stop-color:#006837"/>
	</linearGradient>
	<polygon display="inline" fill="url(#SVGID_3_)" points="334.917,-53.858 431.32,103.946 398.726,93.104 394.358,121.788 
		370.483,98.435 354.537,142.257 336.213,108.294 311.905,141.282 299.219,100.285 273.518,121.752 273.518,93.607 232.823,102.007 
			"/>
	<linearGradient id="SVGID_4_" gradientUnits="userSpaceOnUse" x1="332.0649" y1="-73" x2="332.0649" y2="49.4814">
		<stop  offset="0.0714" style="stop-color:#008400"/>
		<stop  offset="0.9847" style="stop-color:#006837"/>
	</linearGradient>
	<polyline display="inline" fill="url(#SVGID_4_)" points="333.835,-73 394.043,25.555 373.685,18.784 370.958,36.697 
		356.046,22.113 346.088,49.481 334.643,28.27 319.462,48.872 311.554,23.268 295.518,36.675 295.518,19.098 270.087,24.344 
		333.835,-73 	"/>
</g>
<g id="Layer_6">
	<linearGradient id="SVGID_5_" gradientUnits="userSpaceOnUse" x1="83.1006" y1="293.5825" x2="134.6387" y2="293.5825">
		<stop  offset="0.0918" style="stop-color:#996633"/>
		<stop  offset="1" style="stop-color:#544A00"/>
	</linearGradient>
	<polygon fill="url(#SVGID_5_)" points="97.4,220.333 123.741,220.333 134.639,366.375 83.101,366.833 	"/>
	<polygon fill="#006633" points="117.505,68.052 228.243,249.319 190.801,236.866 185.783,269.814 158.358,242.99 140.041,293.328 
		118.992,254.314 91.072,292.207 76.27,245.114 46.518,269.773 46.518,237.444 0,247.093 	"/>
	<polygon fill="#336633" points="116.917,19.142 213.32,176.946 180.726,166.104 176.358,194.788 152.483,171.435 136.537,215.257 
		118.213,181.294 93.905,214.282 81.219,173.285 55.518,194.752 55.518,166.607 14.823,175.007 	"/>
	<polyline fill="#006633" points="115.835,0 176.043,98.555 155.685,91.784 152.958,109.698 138.046,95.113 128.088,122.481 
		116.643,101.27 101.462,121.872 93.554,96.268 77.518,109.675 77.518,92.098 52.087,97.344 115.835,0 	"/>
</g>
<g id="Layer_8" display="none">
	<polygon display="inline" fill="#996600" points="638.287,218.333 671.442,218.333 685.159,382.487 620.287,383.086 	"/>
	<polygon display="inline" fill="#006633" points="663.593,46.653 802.98,250.61 755.851,236.597 749.535,273.669 715.016,243.488 
		691.959,300.126 665.464,256.23 630.322,298.866 611.826,245.878 574.518,273.624 574.518,237.248 515.826,248.105 	"/>
	<polygon display="inline" fill="#006633" points="662.853,-8.379 784.196,169.177 743.169,156.979 737.672,189.252 707.62,162.977 
		687.549,212.285 664.483,174.07 633.888,211.187 617.895,165.058 585.518,189.212 585.518,157.544 534.32,166.996 	"/>
	<polyline display="inline" fill="#006633" points="661.491,-29.917 737.275,80.975 711.649,73.355 708.218,93.512 689.448,77.101 
		676.913,107.895 662.507,84.029 643.398,107.209 633.074,78.401 612.518,93.486 612.518,73.709 580.879,79.612 661.491,-29.917 	
		"/>
</g>
<g id="Layer_7" display="none">
	<polygon display="inline" fill="#996600" points="764.4,275.333 790.741,275.333 801.639,421.375 750.101,421.833 	"/>
	<polygon display="inline" fill="#006633" points="784.505,123.052 895.243,304.319 857.801,291.866 852.783,324.814 
		825.358,297.99 807.041,348.328 785.992,309.314 758.072,347.207 743.27,300.114 713.518,324.773 713.518,292.444 667,302.093 	"/>
	<polygon display="inline" fill="#009900" points="783.917,74.142 880.32,231.946 847.726,221.104 843.358,249.788 819.483,226.435 
		803.537,270.257 785.213,236.294 760.905,269.282 748.219,228.285 722.518,249.752 722.518,221.607 681.823,230.007 	"/>
	<linearGradient id="SVGID_6_" gradientUnits="userSpaceOnUse" x1="781.0645" y1="55" x2="781.0645" y2="177.481">
		<stop  offset="0.0714" style="stop-color:#008400"/>
		<stop  offset="0.9847" style="stop-color:#006837"/>
	</linearGradient>
	<polyline display="inline" fill="url(#SVGID_6_)" points="782.835,55 843.043,153.555 822.685,146.784 819.958,164.698 
		805.046,150.113 795.088,177.481 783.643,156.27 768.462,176.872 760.554,151.268 744.518,164.675 744.518,147.098 
		719.087,152.344 782.835,55 	"/>
</g>
<g id="Layer_4" display="none">
	<linearGradient id="SVGID_7_" gradientUnits="userSpaceOnUse" x1="538.5586" y1="316.5825" x2="607.3086" y2="316.5825">
		<stop  offset="0.0918" style="stop-color:#996633"/>
		<stop  offset="0.551" style="stop-color:#7F5C00"/>
		<stop  offset="0.9847" style="stop-color:#544A00"/>
	</linearGradient>
	<polygon display="inline" fill="url(#SVGID_7_)" points="546.518,243.333 589.518,243.333 607.309,389.375 538.559,389.833 	"/>
</g>
<g id="Layer_2" display="none">
	<linearGradient id="SVGID_8_" gradientUnits="userSpaceOnUse" x1="562.4785" y1="97.9878" x2="562.4785" y2="307.3281">
		<stop  offset="0.1224" style="stop-color:#339933"/>
		<stop  offset="1" style="stop-color:#006837"/>
	</linearGradient>
	<polygon display="inline" fill="url(#SVGID_8_)" points="566.388,97.988 697.897,266.432 653.432,254.86 647.473,285.477 
		614.904,260.55 593.15,307.328 568.153,271.074 534.996,306.286 517.633,262.524 482.518,285.439 482.518,255.397 427.059,264.364 
			"/>
</g>
<g id="Layer_3" display="none">
	<linearGradient id="SVGID_9_" gradientUnits="userSpaceOnUse" x1="563.3867" y1="52.5371" x2="563.3867" y2="234.7803">
		<stop  offset="0.1224" style="stop-color:#339933"/>
		<stop  offset="1" style="stop-color:#006837"/>
	</linearGradient>
	<polygon display="inline" fill="url(#SVGID_9_)" points="566.877,52.537 681.363,199.178 642.654,189.104 637.468,215.758 
		609.114,194.057 590.177,234.78 568.415,203.219 539.549,233.874 524.261,195.776 493.518,215.725 493.518,189.571 445.41,197.377 
			"/>
</g>
<g id="Layer_1" display="none">
	<linearGradient id="SVGID_10_" gradientUnits="userSpaceOnUse" x1="563.3477" y1="34.7495" x2="563.3477" y2="148.5669">
		<stop  offset="0.1224" style="stop-color:#339933"/>
		<stop  offset="1" style="stop-color:#006837"/>
	</linearGradient>
	<polygon display="inline" fill="url(#SVGID_10_)" points="565.591,34.75 637.093,126.333 612.916,120.041 609.678,136.687 
		591.969,123.134 580.143,148.567 566.551,128.856 548.522,148 538.847,124.208 519.518,136.666 519.518,120.333 489.602,125.208 	
		"/>
</g>
</svg>
