<?xml version="1.0" encoding="utf-8"?>
<!-- Generator: Adobe Illustrator 16.0.0, SVG Export Plug-In . SVG Version: 6.00 Build 0)  -->
<!DOCTYPE svg PUBLIC "-//W3C//DTD SVG 1.1//EN" "http://www.w3.org/Graphics/SVG/1.1/DTD/svg11.dtd">
<svg version="1.1" xmlns="http://www.w3.org/2000/svg" xmlns:xlink="http://www.w3.org/1999/xlink" x="0px" y="0px"
	 width="270.839px" height="355.084px" viewBox="0 0 270.839 355.084" enable-background="new 0 0 270.839 355.084"
	 xml:space="preserve">
<g id="Layer_5" display="none">
	<linearGradient id="SVGID_1_" gradientUnits="userSpaceOnUse" x1="-120.958" y1="184.833" x2="-69.4199" y2="184.833">
		<stop  offset="0.0918" style="stop-color:#996633"/>
		<stop  offset="0.551" style="stop-color:#7F5C00"/>
		<stop  offset="0.9847" style="stop-color:#544A00"/>
	</linearGradient>
	<polygon display="inline" fill="url(#SVGID_1_)" points="-106.658,111.583 -80.317,111.583 -69.42,257.626 -120.958,258.084 	"/>
	<linearGradient id="SVGID_2_" gradientUnits="userSpaceOnUse" x1="-94.937" y1="-39.6973" x2="-94.937" y2="185.5786">
		<stop  offset="0.0714" style="stop-color:#008400"/>
		<stop  offset="0.9847" style="stop-color:#006837"/>
	</linearGradient>
	<polygon display="inline" fill="url(#SVGID_2_)" points="-91.554,-39.697 19.185,141.569 -18.258,129.116 -23.275,162.064 
		-50.7,135.24 -69.018,185.578 -90.066,146.564 -117.986,184.457 -132.789,137.364 -162.541,162.023 -162.541,129.694 
		-209.059,139.344 	"/>
	<linearGradient id="SVGID_3_" gradientUnits="userSpaceOnUse" x1="-94.9868" y1="-88.6079" x2="-94.9868" y2="107.5078">
		<stop  offset="0.0714" style="stop-color:#008400"/>
		<stop  offset="0.9847" style="stop-color:#006837"/>
	</linearGradient>
	<polygon display="inline" fill="url(#SVGID_3_)" points="-92.142,-88.608 4.262,69.196 -28.333,58.354 -32.7,87.038 
		-56.575,63.686 -72.521,107.508 -90.846,73.545 -115.153,106.532 -127.84,65.535 -153.541,87.003 -153.541,58.857 -194.235,67.258 
			"/>
	<linearGradient id="SVGID_4_" gradientUnits="userSpaceOnUse" x1="-94.9937" y1="-107.7495" x2="-94.9937" y2="14.7319">
		<stop  offset="0.0714" style="stop-color:#008400"/>
		<stop  offset="0.9847" style="stop-color:#006837"/>
	</linearGradient>
	<polyline display="inline" fill="url(#SVGID_4_)" points="-93.224,-107.75 -33.016,-9.195 -53.374,-15.966 -56.101,1.948 
		-71.013,-12.637 -80.971,14.732 -92.416,-6.479 -107.597,14.123 -115.505,-11.481 -131.541,1.926 -131.541,-15.652 
		-156.972,-10.406 -93.224,-107.75 	"/>
</g>
<g id="Layer_6" display="none">
	<linearGradient id="SVGID_5_" gradientUnits="userSpaceOnUse" x1="-343.958" y1="258.833" x2="-292.4199" y2="258.833">
		<stop  offset="0.0918" style="stop-color:#996633"/>
		<stop  offset="1" style="stop-color:#544A00"/>
	</linearGradient>
	<polygon display="inline" fill="url(#SVGID_5_)" points="-329.658,185.583 -303.317,185.583 -292.42,331.626 -343.958,332.084 	"/>
	<polygon display="inline" fill="#006633" points="-309.554,33.303 -198.815,214.569 -236.258,202.116 -241.275,235.064 
		-268.7,208.24 -287.018,258.578 -308.066,219.564 -335.986,257.457 -350.789,210.364 -380.541,235.023 -380.541,202.694 
		-427.059,212.344 	"/>
	<polygon display="inline" fill="#336633" points="-310.142,-15.608 -213.738,142.196 -246.333,131.354 -250.7,160.038 
		-274.575,136.686 -290.521,180.508 -308.846,146.545 -333.153,179.532 -345.84,138.535 -371.541,160.003 -371.541,131.857 
		-412.235,140.258 	"/>
	<polyline display="inline" fill="#006633" points="-311.224,-34.75 -251.016,63.806 -271.374,57.034 -274.101,74.948 
		-289.013,60.363 -298.971,87.731 -310.416,66.521 -325.597,87.122 -333.505,61.519 -349.541,74.926 -349.541,57.349 
		-374.972,62.595 -311.224,-34.75 	"/>
</g>
<g id="Layer_8" display="none">
	<polygon display="inline" fill="#996600" points="211.229,183.583 244.384,183.583 258.101,347.737 193.229,348.337 	"/>
	<polygon display="inline" fill="#006633" points="236.534,11.904 375.922,215.86 328.792,201.848 322.477,238.92 287.957,208.738 
		264.9,265.377 238.405,221.48 203.264,264.116 184.768,211.129 147.459,238.874 147.459,202.498 88.768,213.355 	"/>
	<polygon display="inline" fill="#006633" points="235.794,-43.129 357.138,134.428 316.11,122.229 310.613,154.503 
		280.562,128.228 260.49,177.535 237.425,139.321 206.829,176.438 190.836,130.309 158.459,154.463 158.459,122.795 
		107.262,132.247 	"/>
	<polyline display="inline" fill="#006633" points="234.433,-64.667 310.217,46.225 284.591,38.606 281.159,58.762 262.39,42.352 
		249.854,73.146 235.448,49.28 216.34,72.46 206.016,43.651 185.459,58.737 185.459,38.959 153.82,44.862 234.433,-64.667 	"/>
</g>
<g id="Layer_7" display="none">
	<polygon display="inline" fill="#996600" points="337.342,240.583 363.683,240.583 374.58,386.626 323.042,387.084 	"/>
	<polygon display="inline" fill="#006633" points="357.446,88.303 468.185,269.569 430.742,257.116 425.725,290.064 398.3,263.24 
		379.982,313.578 358.934,274.564 331.014,312.457 316.211,265.364 286.459,290.023 286.459,257.694 239.941,267.344 	"/>
	<polygon display="inline" fill="#009900" points="356.858,39.392 453.262,197.196 420.667,186.354 416.3,215.038 392.425,191.686 
		376.479,235.508 358.154,201.545 333.847,234.532 321.16,193.535 295.459,215.003 295.459,186.857 254.765,195.258 	"/>
	<linearGradient id="SVGID_6_" gradientUnits="userSpaceOnUse" x1="354.0059" y1="20.2505" x2="354.0059" y2="142.7314">
		<stop  offset="0.0714" style="stop-color:#008400"/>
		<stop  offset="0.9847" style="stop-color:#006837"/>
	</linearGradient>
	<polyline display="inline" fill="url(#SVGID_6_)" points="355.776,20.25 415.984,118.806 395.626,112.034 392.899,129.948 
		377.987,115.363 368.029,142.731 356.584,121.521 341.403,142.122 333.495,116.519 317.459,129.926 317.459,112.349 
		292.028,117.595 355.776,20.25 	"/>
</g>
<g id="Layer_4">
	<linearGradient id="SVGID_7_" gradientUnits="userSpaceOnUse" x1="111.5" y1="281.833" x2="180.25" y2="281.833">
		<stop  offset="0.0918" style="stop-color:#996633"/>
		<stop  offset="0.551" style="stop-color:#7F5C00"/>
		<stop  offset="0.9847" style="stop-color:#544A00"/>
	</linearGradient>
	<polygon fill="url(#SVGID_7_)" points="119.459,208.583 162.459,208.583 180.25,354.626 111.5,355.084 	"/>
</g>
<g id="Layer_2">
	<linearGradient id="SVGID_8_" gradientUnits="userSpaceOnUse" x1="135.4199" y1="63.2383" x2="135.4199" y2="272.5786">
		<stop  offset="0.1224" style="stop-color:#339933"/>
		<stop  offset="1" style="stop-color:#006837"/>
	</linearGradient>
	<polygon fill="url(#SVGID_8_)" points="139.329,63.238 270.839,231.683 226.373,220.11 220.414,250.728 187.846,225.801 
		166.092,272.578 141.095,236.324 107.938,271.536 90.574,227.774 55.459,250.689 55.459,220.647 0,229.614 	"/>
</g>
<g id="Layer_3">
	<linearGradient id="SVGID_9_" gradientUnits="userSpaceOnUse" x1="136.3281" y1="17.7876" x2="136.3281" y2="200.0308">
		<stop  offset="0.1224" style="stop-color:#339933"/>
		<stop  offset="1" style="stop-color:#006837"/>
	</linearGradient>
	<polygon fill="url(#SVGID_9_)" points="139.818,17.788 254.305,164.429 215.596,154.354 210.409,181.009 182.056,159.308 
		163.118,200.03 141.356,168.47 112.49,199.124 97.202,161.026 66.459,180.976 66.459,154.821 18.352,162.628 	"/>
</g>
<g id="Layer_1">
	<linearGradient id="SVGID_10_" gradientUnits="userSpaceOnUse" x1="136.2891" y1="0" x2="136.2891" y2="113.8174">
		<stop  offset="0.1224" style="stop-color:#339933"/>
		<stop  offset="1" style="stop-color:#006837"/>
	</linearGradient>
	<polygon fill="url(#SVGID_10_)" points="138.532,0 210.034,91.583 185.857,85.291 182.619,101.938 164.91,88.385 153.084,113.817 
		139.492,94.106 121.464,113.251 111.788,89.458 92.459,101.917 92.459,85.583 62.543,90.458 	"/>
</g>
</svg>
