<?xml version="1.0" encoding="utf-8"?>
<!-- Generator: Adobe Illustrator 16.0.0, SVG Export Plug-In . SVG Version: 6.00 Build 0)  -->
<!DOCTYPE svg PUBLIC "-//W3C//DTD SVG 1.1//EN" "http://www.w3.org/Graphics/SVG/1.1/DTD/svg11.dtd">
<svg version="1.1" xmlns="http://www.w3.org/2000/svg" xmlns:xlink="http://www.w3.org/1999/xlink" x="0px" y="0px" width="960px"
	 height="560px" viewBox="0 0 960 560" enable-background="new 0 0 960 560" xml:space="preserve">
<g id="Layer_1">
	<polygon fill="#0066CC" stroke="#0066CC" stroke-miterlimit="10" points="360.5,287.5 503.5,287.5 503.5,224.235 503.5,144.5 
		360.5,144.5 	"/>
	<polygon fill="#0066CC" stroke="#0066CC" stroke-miterlimit="10" points="353.773,215.547 359.5,220.093 359.5,211 	"/>
</g>
<g id="Layer_2">
	<path fill="none" stroke="#FFFFFF" stroke-width="6" stroke-linecap="round" stroke-linejoin="round" stroke-miterlimit="10" d="
		M410.565,199.634c0-18.759,9.855-34.038,21.842-34.038c11.988,0,21.502,15.171,21.502,33.93s-8.91,33.93-21.91,33.93V249"/>
	<path fill="none" stroke="#FFFFFF" stroke-width="6" stroke-miterlimit="10" d="M393.667,207.667"/>
	<path fill="#FFFFFF" d="M436.768,263.608c0,2.395-1.941,4.334-4.336,4.334s-4.336-1.939-4.336-4.334
		c0-2.396,1.941-4.336,4.336-4.336S436.768,261.211,436.768,263.608z"/>
</g>
</svg>
