<?xml version="1.0" encoding="utf-8"?>
<!-- Generator: Adobe Illustrator 16.0.0, SVG Export Plug-In . SVG Version: 6.00 Build 0)  -->
<!DOCTYPE svg PUBLIC "-//W3C//DTD SVG 1.1//EN" "http://www.w3.org/Graphics/SVG/1.1/DTD/svg11.dtd">
<svg version="1.1" xmlns="http://www.w3.org/2000/svg" xmlns:xlink="http://www.w3.org/1999/xlink" x="0px" y="0px"
	 width="618.658px" height="157.169px" viewBox="0 0 618.658 157.169" enable-background="new 0 0 618.658 157.169"
	 xml:space="preserve">
<g id="Layer_1">
	<path fill="#66CCFF" d="M14.279,52.904h580C594.279,52.904,311.11,287.5,14.279,52.904z"/>
</g>
<g id="Layer_2">
	<g>
		<g>
			<path fill="#99CC66" d="M15.639,52.914c1.227,0.507,1.497,1.74,3.125,2.084c0.749,0.158,1.686-0.21,1.845-1.048
				c2.886-15.127-1.929-29.505-7.292-43.506c-0.685-1.788-3.586-1.013-2.893,0.797c5.135,13.406,10.063,27.385,7.292,41.912
				c0.615-0.35,1.23-0.699,1.845-1.048c-1.293-0.273-1.918-1.586-3.125-2.084C14.648,49.283,13.877,52.187,15.639,52.914
				L15.639,52.914z"/>
		</g>
	</g>
	<g>
		<g>
			<path fill="#99CC66" d="M22.746,53.552c-0.064-9.732-0.977-19.435-1.042-29.167c-0.013-1.934-3.013-1.936-3,0
				c0.064,9.732,0.977,19.435,1.042,29.167C19.758,55.485,22.758,55.487,22.746,53.552L22.746,53.552z"/>
		</g>
	</g>
	<g>
		<g>
			<path fill="#99CC66" d="M24.829,51.468c-0.052-11.418-0.8-22.791,2.03-33.977c0.475-1.876-2.418-2.672-2.893-0.797
				c-2.896,11.445-2.191,23.081-2.137,34.773C21.838,53.402,24.838,53.402,24.829,51.468L24.829,51.468z"/>
		</g>
	</g>
	<g>
		<g>
			<path fill="#99CC66" d="M27.954,50.427c-0.783-16.78,5.239-32.547,9.321-48.561c0.479-1.876-2.415-2.671-2.893-0.797
				c-4.149,16.274-10.224,32.306-9.429,49.357C25.044,52.353,28.044,52.361,27.954,50.427L27.954,50.427z"/>
		</g>
	</g>
	<g>
		<g>
			<path fill="#99CC66" d="M33.109,48.986c-1.057-6.426-1.955-12.872-2.03-19.394c-0.022-1.934-3.022-1.936-3,0
				c0.078,6.786,1.037,13.505,2.137,20.19C30.53,51.689,33.42,50.878,33.109,48.986L33.109,48.986z"/>
		</g>
	</g>
	<g>
		<g>
			<path fill="#99CC66" d="M21.5,50.711C16.347,39.536,10.114,28.96,3.791,18.42c-0.994-1.657-3.588-0.149-2.591,1.514
				c6.323,10.541,12.556,21.117,17.708,32.291C19.718,53.98,22.304,52.455,21.5,50.711L21.5,50.711z"/>
		</g>
	</g>
	<g>
		<g>
			<path fill="#99CC66" d="M16.496,49.385c0.87-8.729-0.904-17.331-4.22-25.398c-0.725-1.764-3.628-0.992-2.893,0.797
				c3.223,7.842,4.959,16.11,4.113,24.602C13.304,51.31,16.306,51.291,16.496,49.385L16.496,49.385z"/>
		</g>
	</g>
	<g>
		<g>
			<path fill="#99CC66" d="M587.329,51.468c0.003-15.418,0.399-30.621,5.154-45.435c0.593-1.847-2.304-2.632-2.893-0.797
				c-4.835,15.063-5.259,30.545-5.262,46.231C584.329,53.402,587.329,53.402,587.329,51.468L587.329,51.468z"/>
		</g>
	</g>
	<g>
		<g>
			<path fill="#99CC66" d="M590.454,49.385c0.002-5.779-0.059-11.604,0.988-17.31c0.348-1.891-2.544-2.698-2.893-0.797
				c-1.098,5.979-1.094,12.048-1.096,18.106C587.453,51.319,590.453,51.319,590.454,49.385L590.454,49.385z"/>
		</g>
	</g>
	<g>
		<g>
			<path fill="#99CC66" d="M593.579,50.427c0.173-7.843,2.999-14.738,7.894-20.814c1.201-1.491-0.907-3.628-2.121-2.121
				c-5.416,6.723-8.581,14.251-8.772,22.936C590.536,52.362,593.536,52.358,593.579,50.427L593.579,50.427z"/>
		</g>
	</g>
	<g>
		<g>
			<path fill="#99CC66" d="M597.692,49.783c3.448-13.766,12.475-24.864,20.682-36.1c1.144-1.564-1.461-3.059-2.59-1.514
				c-8.37,11.458-17.47,22.784-20.984,36.816C594.329,50.863,597.223,51.659,597.692,49.783L597.692,49.783z"/>
		</g>
	</g>
	<g>
		<g>
			<path fill="#99CC66" d="M590.454,51.468c0.857-9.538-1.265-18.468-4.221-27.481c-0.6-1.83-3.497-1.047-2.893,0.797
				c2.87,8.754,4.947,17.409,4.113,26.685C587.281,53.396,590.282,53.379,590.454,51.468L590.454,51.468z"/>
		</g>
	</g>
	<g>
		<g>
			<path fill="#99CC66" d="M588.371,47.302c0.768-13.954-5.565-25.798-13.981-36.478c-1.196-1.519-3.305,0.62-2.121,2.121
				c7.921,10.052,13.825,21.224,13.103,34.356C585.265,49.235,588.266,49.226,588.371,47.302L588.371,47.302z"/>
		</g>
	</g>
	<g>
		<g>
			<path fill="#99CC66" d="M593.525,49.783c2.019-7.627,2.134-15.473,2.137-23.315c0.001-1.935-2.999-1.935-3,0
				c-0.003,7.578-0.078,15.144-2.029,22.519C590.137,50.858,593.031,51.652,593.525,49.783L593.525,49.783z"/>
		</g>
	</g>
	<g>
		<g>
			<path fill="#99CC66" d="M598.733,49.783c3.152-15.332,8.31-30.052,14.433-44.434c0.749-1.759-1.834-3.289-2.59-1.514
				c-6.227,14.625-11.528,29.555-14.735,45.15C595.452,50.874,598.344,51.678,598.733,49.783L598.733,49.783z"/>
		</g>
	</g>
	<g>
		<g>
			<path fill="#99CC66" d="M601.858,50.825c2.176-6.899,7.697-11.623,13.156-16.005c1.509-1.211-0.628-3.319-2.121-2.121
				c-5.911,4.744-11.582,9.89-13.928,17.329C598.382,51.878,601.279,52.664,601.858,50.825L601.858,50.825z"/>
		</g>
	</g>
	<g>
		<g>
			<path fill="#99CC66" d="M603.557,51.487c2.187-2.125,4.791-3.807,7.671-4.823c1.812-0.639,1.032-3.538-0.797-2.893
				c-3.377,1.191-6.428,3.1-8.995,5.595C600.046,50.717,602.169,52.836,603.557,51.487L603.557,51.487z"/>
		</g>
	</g>
	<g>
		<g>
			<path fill="#99CC66" d="M585.848,50.407c-6.25-5.204-12.571-10.418-20.453-12.886c-1.851-0.58-2.637,2.316-0.797,2.893
				c7.372,2.309,13.284,7.249,19.129,12.114C585.202,53.757,587.336,51.646,585.848,50.407L585.848,50.407z"/>
		</g>
	</g>
	<g>
		<g>
			<path fill="#99CC66" d="M28.996,55.635c0-6.598,0-13.194,0-19.792c0-1.935-3-1.935-3,0c0,6.598,0,13.194,0,19.792
				C25.996,57.569,28.996,57.569,28.996,55.635L28.996,55.635z"/>
		</g>
	</g>
	<g>
		<g>
			<path fill="#99CC66" d="M33.109,50.028c-1.722-5.536-1.034-11.754,5.203-13.78c1.832-0.595,1.047-3.492-0.798-2.893
				c-7.792,2.531-9.546,10.244-7.297,17.47C30.789,52.666,33.686,51.88,33.109,50.028L33.109,50.028z"/>
		</g>
	</g>
	<g>
		<g>
			<path fill="#99CC66" d="M36.288,48.343c0.123-3.345,2.544-6.047,4.769-8.314c1.355-1.381-0.765-3.504-2.121-2.121
				c-2.827,2.881-5.493,6.234-5.647,10.436C33.217,50.278,36.217,50.271,36.288,48.343L36.288,48.343z"/>
		</g>
	</g>
	<g>
		<g>
			<path fill="#99CC66" d="M16.442,51.069C15.146,43.25,8.934,39.602,1.853,37.521c-1.861-0.547-2.65,2.349-0.798,2.893
				c6.144,1.806,11.367,4.651,12.494,11.452C13.865,53.771,16.755,52.961,16.442,51.069L16.442,51.069z"/>
		</g>
	</g>
	<g>
		<g>
			<path fill="#99CC66" d="M595.662,54.593c0.047-2.393,0.824-4.421,1.879-6.534c0.862-1.725-1.726-3.245-2.59-1.514
				c-1.295,2.592-2.231,5.115-2.289,8.048C592.624,56.528,595.624,56.524,595.662,54.593L595.662,54.593z"/>
		</g>
	</g>
	<g>
		<g>
			<path fill="#99CC66" d="M585.572,53.93c1.789,1.209,3.111-0.286,3.309-2.025c0.22-1.941-0.435-3.937-0.105-5.871
				c0.322-1.892-2.568-2.701-2.893-0.797c-0.22,1.29-0.158,2.569-0.077,3.87c0.043,0.692,0.088,1.385,0.1,2.079
				c0.003,0.24-0.009,0.479-0.024,0.719c-0.045,0.663,1.885-0.105,1.205-0.564C585.479,50.253,583.979,52.854,585.572,53.93
				L585.572,53.93z"/>
		</g>
	</g>
	<g>
		<g>
			<path fill="#99CC66" d="M588.329,52.635c0.006,0.148,0.009,0.302,0.059,0.441c0.418,1.172,2.064,1.56,2.741,0.358
				c0.397-0.704,0.357-1.708,0.45-2.487c0.11-0.931,0.237-1.874,0.25-2.813c0.025-1.936-2.975-1.933-3,0
				c-0.011,0.812-0.116,1.625-0.206,2.432c-0.046,0.415-0.098,0.831-0.151,1.246c0.039-0.303-0.025,0.171-0.034,0.226
				c-0.036,0.235-0.147,0.323,0.102-0.117c0.914,0.119,1.827,0.238,2.741,0.358c0.017,0.118,0.032,0.237,0.049,0.355
				C591.254,50.707,588.254,50.699,588.329,52.635L588.329,52.635z"/>
		</g>
	</g>
	<g>
		<g>
			<path fill="#99CC66" d="M593.329,52.635c0-1.667,0-3.333,0-5c0-1.935-3-1.935-3,0c0,1.667,0,3.333,0,5
				C590.329,54.569,593.329,54.569,593.329,52.635L593.329,52.635z"/>
		</g>
	</g>
	<g>
		<g>
			<path fill="#99CC66" d="M596.829,52.635c0-0.418-0.004-1.103,0.037-1.368c0.072-0.463,0.18-0.709,0.523-1.071
				c1.332-1.401-0.786-3.526-2.121-2.121c-1.239,1.304-1.438,2.83-1.439,4.561C593.828,54.569,596.828,54.569,596.829,52.635
				L596.829,52.635z"/>
		</g>
	</g>
	<g>
		<g>
			<path fill="#99CC66" d="M598.329,52.635c0.011-0.317-0.058,0.226,0.04-0.266c0.074-0.376,0.187-0.743,0.308-1.106
				c0.253-0.763,0.66-1.484,1.213-2.067c1.331-1.402-0.787-3.526-2.121-2.121c-1.357,1.431-2.369,3.56-2.439,5.561
				C595.262,54.57,598.262,54.563,598.329,52.635L598.329,52.635z"/>
		</g>
	</g>
	<g>
		<g>
			<path fill="#99CC66" d="M599.775,52.533c0.03-0.075,0.184-0.438,0.047-0.117c0.137-0.322,0.281-0.643,0.427-0.962
				c0.404-0.881,0.847-1.749,1.375-2.563c1.059-1.627-1.54-3.129-2.59-1.514c-0.882,1.355-1.549,2.86-2.151,4.358
				c-0.306,0.76,0.327,1.646,1.048,1.845C598.786,53.816,599.471,53.291,599.775,52.533L599.775,52.533z"/>
		</g>
	</g>
	<g>
		<g>
			<path fill="#99CC66" d="M600.775,52.533c0.37-1.008,1.497-1.619,2.452-1.952c0.771-0.269,1.275-1.018,1.048-1.845
				c-0.206-0.749-1.072-1.316-1.845-1.048c-2.042,0.71-3.782,1.963-4.548,4.048c-0.282,0.768,0.309,1.642,1.048,1.845
				C599.769,53.812,600.494,53.301,600.775,52.533L600.775,52.533z"/>
		</g>
	</g>
	<g>
		<g>
			<path fill="#99CC66" d="M601.775,52.533c0.387-1.068,1.325-2.079,2.311-2.604c1.709-0.908,0.193-3.498-1.514-2.59
				c-1.698,0.903-3.043,2.608-3.689,4.396c-0.278,0.77,0.306,1.641,1.048,1.845C600.766,53.811,601.497,53.302,601.775,52.533
				L601.775,52.533z"/>
		</g>
	</g>
	<g>
		<g>
			<path fill="#99CC66" d="M17.275,52.033c0.402-1.031,0.115-2.297-0.107-3.335c-0.319-1.491-0.881-2.95-1.544-4.32
				c-0.842-1.741-3.429-0.22-2.591,1.514c0.454,0.939,0.789,1.921,1.072,2.923c0.198,0.701,0.541,1.746,0.277,2.422
				C13.679,53.041,16.581,53.815,17.275,52.033L17.275,52.033z"/>
		</g>
	</g>
	<g>
		<g>
			<path fill="#99CC66" d="M25.329,53.135c-0.001-2.313-0.033-4.635-0.554-6.898c-0.434-1.886-3.326-1.086-2.893,0.797
				c0.46,2,0.445,4.061,0.446,6.102C22.33,55.069,25.33,55.069,25.329,53.135L25.329,53.135z"/>
		</g>
	</g>
	<g>
		<g>
			<path fill="#99CC66" d="M26.775,52.236c-0.641-1.934-1.395-4.053-1.446-6.102c-0.048-1.931-3.048-1.936-3,0
				c0.059,2.33,0.825,4.701,1.554,6.898C24.488,54.86,27.386,54.077,26.775,52.236L26.775,52.236z"/>
		</g>
	</g>
	<g>
		<g>
			<path fill="#99CC66" d="M28.329,49.135c0.039,2.475,0.254,6.105,1.939,8.061c1.265,1.468,3.377-0.664,2.121-2.121
				c-0.451-0.523-0.604-2.053-0.739-2.838c-0.176-1.019-0.305-2.067-0.321-3.102C31.299,47.202,28.299,47.199,28.329,49.135
				L28.329,49.135z"/>
		</g>
	</g>
	<g>
		<g>
			<path fill="#99CC66" d="M33.329,59.135c0-3.5,0-7,0-10.5c0-1.935-3-1.935-3,0c0,3.5,0,7,0,10.5
				C30.329,61.069,33.329,61.069,33.329,59.135L33.329,59.135z"/>
		</g>
	</g>
	<g>
		<g>
			<path fill="#99CC66" d="M35.775,54.736c-0.822-3.065-0.903-6.26,1.614-8.541c1.437-1.302-0.691-3.417-2.121-2.121
				c-3.308,2.997-3.479,7.387-2.386,11.459C33.383,57.4,36.277,56.607,35.775,54.736L35.775,54.736z"/>
		</g>
	</g>
	<g>
		<g>
			<path fill="#99CC66" d="M18.125,50.378c-0.513-1.027-0.979-2.054-1.349-3.142c-0.619-1.821-3.517-1.04-2.893,0.797
				c0.452,1.33,1.024,2.604,1.651,3.858c0.366,0.731,1.382,0.931,2.052,0.538C18.325,51.997,18.49,51.109,18.125,50.378
				L18.125,50.378z"/>
		</g>
	</g>
</g>
</svg>
