<?xml version="1.0" encoding="utf-8"?>
<!-- Generator: Adobe Illustrator 16.0.0, SVG Export Plug-In . SVG Version: 6.00 Build 0)  -->
<!DOCTYPE svg PUBLIC "-//W3C//DTD SVG 1.1//EN" "http://www.w3.org/Graphics/SVG/1.1/DTD/svg11.dtd">
<svg version="1.1" xmlns="http://www.w3.org/2000/svg" xmlns:xlink="http://www.w3.org/1999/xlink" x="0px" y="0px"
	 width="120.712px" height="417.065px" viewBox="0 0 120.712 417.065" enable-background="new 0 0 120.712 417.065"
	 xml:space="preserve">
<g id="Layer_2">
	<polyline fill="none" stroke="#000000" stroke-width="4" stroke-miterlimit="10" points="74.835,318.882 74.835,0.079 
		85.835,277.979 	"/>
	<line stroke="#000000" stroke-width="3" stroke-miterlimit="10" x1="75.835" y1="52.382" x2="78.835" y2="52.382"/>
	<line stroke="#000000" stroke-width="3" stroke-miterlimit="10" x1="74.835" y1="123.382" x2="80.835" y2="123.382"/>
	<line stroke="#000000" stroke-width="3" stroke-miterlimit="10" x1="75.835" y1="188.382" x2="83.835" y2="188.382"/>
	<line stroke="#000000" stroke-width="3" stroke-miterlimit="10" x1="75.835" y1="256.382" x2="85.835" y2="256.382"/>
	<path fill="#333333" stroke="#000000" stroke-miterlimit="10" d="M91.517,278.91c0,0.576-0.08,1.135-0.229,1.664
		c-0.724,2.564-3.082,4.443-5.879,4.443c-2.53,0-4.7-1.537-5.628-3.729c-0.31-0.73-0.48-1.535-0.48-2.379
		c0-3.373,2.734-6.107,6.108-6.107C88.781,272.802,91.517,275.537,91.517,278.91z"/>
	<polygon stroke="#000000" stroke-miterlimit="10" points="91.337,292.478 79.335,292.548 79.335,279.074 91.836,278.91 	"/>
	<polygon stroke="#000000" stroke-miterlimit="10" points="76.335,295.447 87.335,294.58 87.335,299.08 76.335,301.531 	"/>
	<path stroke="#000000" stroke-miterlimit="10" d="M120.712,352.271"/>
	<polygon stroke="#000000" stroke-miterlimit="10" points="84.335,290.382 87.335,290.382 87.335,294.08 84.335,294.58 	"/>
	<polygon fill="#333333" stroke="#000000" stroke-miterlimit="10" points="85.335,295.382 92.335,295.382 92.335,298.08 
		85.335,297.548 	"/>
	<rect x="71.835" y="307.882" stroke="#000000" stroke-width="4" stroke-miterlimit="10" width="5" height="25"/>
</g>
<g id="Layer_3">
	<g>
		<g>
			<path fill="#F4D7D1" d="M66.259,317.844c3.517-1.75,7.369-3.217,11.152-1.333c-0.18-0.684-0.359-1.368-0.538-2.052
				c-0.549,1.003-1.126,1.579-2.128,2.129c-1.613,0.884-0.413,2.967,1.155,2.741c0.979-0.141,2.212-0.938,3.203-0.667
				c-0.299-0.734-0.598-1.469-0.896-2.203c-0.854,1.328-1.481,2.524-2.796,3.462c-1.162,0.828-0.831,2.795,0.757,2.795
				c0.702,0,1.403,0,2.105,0c1.935,0,1.935-3,0-3c-0.035,0-0.07,0-0.105,0c-0.688,0-1.241,0.462-1.446,1.102
				c-0.269,0.836-0.501,1.676-0.734,2.521c0.379-0.438,0.394-0.533,0.046-0.287c-0.45,0.26-0.867,0.564-1.288,0.869
				c-1.355,0.979-0.57,3.139,1.155,2.741c0.135-0.032,0.271-0.06,0.406-0.083c1.285-0.252,0.028-1.61-0.95-1.494
				c-1.28,0.151-2.428-0.72-3.289-1.546c-1.309-1.255-2.942-4.255-1.505-5.93c1.056-1.23-0.31-3.336-1.817-2.355
				c-0.773,0.502-1.694,0.456-2.577,0.462c-1.486,0.011-2.056,2.04-0.757,2.795c1.213,0.705,2.09,1.582,2.796,2.795
				c0.751,1.292,2.795,0.734,2.795-0.757c0-1.111,0-2.222,0-3.333c0-1.098-1.288-1.922-2.257-1.295
				c-0.058,0.037-0.114,0.073-0.172,0.11c-0.416,0.27-0.793,0.766-0.742,1.295c0.143,1.507,1.172,2.838,2.605,3.336
				c0.932,0.324,1.898-0.52,1.898-1.446c0-0.71-0.182-1.677-0.035-2.354c-0.914,0.119-1.827,0.238-2.741,0.358
				c0.308,0.688,0.391,1.885,0.443,2.663c0.131,1.911,3,1.952,3,0c0-1.333,0-2.667,0-4c-0.982,0.133-1.964,0.266-2.946,0.398
				c0.463,1.202,0.599,2.317,0.612,3.602c0.015,1.456,2.068,2.097,2.795,0.757c0.571-1.052,0.146-2.373,0.667-3.334
				c-0.932-0.252-1.863-0.505-2.795-0.757c0.121,1.056,0.391,2.056,0.721,3.065c0.518,1.586,2.946,1.34,2.946-0.398
				c0-1.111,0-2.222,0-3.333c-0.854,0.354-1.707,0.707-2.561,1.061c0.065,0.058,0.2,1.135,0.28,1.338
				c0.524,1.329,2.441,1.522,2.893,0c0.316-0.445,0.632-0.892,0.948-1.338c-0.854-0.354-1.707-0.707-2.561-1.061
				c-0.098,1.093-0.478,2.363-1.129,3.243c-0.6,0.81,0.051,1.943,0.896,2.203c0.572,0.176,0.962,0.213,1.544,0.073
				c2.064-0.492-0.852-0.66-0.44-0.097c0.078-0.605,0.156-1.212,0.234-1.817c-0.163,0.188-0.326,0.375-0.489,0.563
				c0.486-0.128,0.973-0.257,1.459-0.386c0.018,0.042,0.035,0.085,0.053,0.127c-0.707-1.158-2.317-0.853-2.741,0.358
				c-0.533,1.521-0.28,3.106-0.667,4.667c0.836-0.221,1.671-0.441,2.507-0.662c-1.085-1.269-1.558-2.609-2.97-3.567
				c-0.926-0.629-2.312,0.198-2.257,1.295c0.057,1.14,0.375,2.068,1.409,2.628c1.045,0.565,2.726-0.388,2.203-1.693
				c-0.444-1.111-0.889-2.223-1.333-3.333c-0.615,0.614-1.229,1.229-1.845,1.845c0.186,0.064,1.114,1.179,2,1.333
				c1.143,0.2,2.103-0.662,1.845-1.845c-0.301-1.382-0.286-1.083,0.952-1.488c1.83-0.599,1.047-3.496-0.797-2.893
				c-2.832,0.926-3.7,2.181-3.048,5.178c0.615-0.615,1.229-1.229,1.845-1.845c-0.736-0.129-1.233-1.069-2-1.333
				c-1.014-0.349-2.266,0.794-1.845,1.845c0.444,1.111,0.889,2.223,1.333,3.333c0.734-0.564,1.469-1.129,2.203-1.693
				c0.025-0.013,0.052-0.025,0.077-0.038c-0.752,0.432-1.505,0.863-2.257,1.295c0.974,0.662,1.586,2.191,2.362,3.099
				c0.736,0.861,2.249,0.38,2.507-0.662c0.381-1.536,0.149-3.189,0.667-4.667c-0.914,0.12-1.827,0.239-2.741,0.358
				c0.96,1.572,2.524,1.643,3.688,0.304c0.411-0.473,0.646-1.253,0.234-1.817c-0.509-0.699-1.058-1.623-2.041-1.634
				c-0.333-0.003-0.643,0.03-0.938,0.203c-0.99,0.58,0.052,0.065,0.082,0.075c0.299,0.734,0.598,1.469,0.896,2.203
				c0.975-1.315,1.396-3.149,1.539-4.757c0.119-1.332-1.704-1.949-2.561-1.061c-0.804,0.834-1.389,1.543-1.72,2.662
				c0.964,0,1.929,0,2.893,0c-0.472-1.195,0.11-1.648-1.052-2.662c-0.958-0.836-2.561-0.314-2.561,1.061c0,1.111,0,2.222,0,3.333
				c0.982-0.133,1.964-0.266,2.946-0.398c-0.239-0.732-0.525-1.501-0.613-2.269c-0.157-1.365-2.016-2.193-2.795-0.757
				c-0.571,1.052-0.146,2.373-0.667,3.334c0.932,0.252,1.863,0.505,2.795,0.757c-0.017-1.579-0.148-2.917-0.72-4.398
				c-0.584-1.517-2.946-1.392-2.946,0.398c0,1.333,0,2.667,0,4c1,0,2,0,3,0c-0.094-1.368-0.29-2.919-0.854-4.178
				c-0.53-1.188-2.481-0.844-2.741,0.358c-0.217,1.002-0.072,2.132-0.072,3.152c0.633-0.482,1.266-0.964,1.898-1.446
				c-0.186-0.064-0.437-0.802-0.402-0.443c-0.248,0.433-0.495,0.864-0.743,1.296c0.057-0.037,0.114-0.074,0.171-0.111
				c-0.752-0.432-1.505-0.863-2.257-1.295c0,1.111,0,2.222,0,3.333c0.932-0.252,1.863-0.505,2.795-0.757
				c-0.961-1.652-2.219-2.91-3.872-3.871c-0.252,0.932-0.505,1.863-0.757,2.795c1.418-0.01,2.873-0.08,4.091-0.872
				c-0.605-0.785-1.212-1.57-1.817-2.355c-3.383,3.942,0.045,10.562,4.442,12.159c1.953,0.71,5.534,0.708,6.17-1.777
				c0.604-2.362-2.509-2.433-3.95-2.101c0.385,0.914,0.771,1.827,1.155,2.741c0.727-0.524,1.816-0.965,2.329-1.734
				c0.579-0.867,0.716-2.194,1.026-3.162c-0.482,0.367-0.964,0.734-1.446,1.102c0.035,0,0.07,0,0.105,0c1.935,0,1.935-3,0-3
				c-0.702,0-1.403,0-2.105,0c0.252,0.932,0.505,1.863,0.757,2.795c1.777-1.267,2.709-2.728,3.872-4.538
				c0.527-0.82,0.01-1.956-0.896-2.203c-1.809-0.494-3.046,0.415-4.797,0.667c0.385,0.914,0.771,1.827,1.155,2.741
				c1.444-0.791,2.413-1.76,3.204-3.205c0.372-0.68,0.209-1.681-0.538-2.052c-4.846-2.413-9.597-0.948-14.18,1.333
				C63.013,316.116,64.533,318.704,66.259,317.844L66.259,317.844z"/>
		</g>
	</g>
	<g>
		<g>
			<path fill="#F4D7D1" d="M77.002,324.549c0.035-0.59,0.381-1.566,0.612-2.268c-0.964-0.266-1.929-0.531-2.893-0.797
				c-0.104,0.707-0.561,1.285-0.666,2c-0.229,1.543,1.928,2.814,2.741,1.155c0.433-0.881,0.787-1.773,0.871-2.757c-1,0-2,0-3,0
				c0,0.444,0,0.889,0,1.333c0.5-0.5,1-1,1.5-1.5c-0.222,0-0.444,0-0.666,0c0.432,0.752,0.863,1.505,1.295,2.257
				c0.675-1.497,0.667-3.189,1.333-4.667c0.788-1.748-1.796-3.275-2.59-1.514c-0.675,1.497-0.668,3.188-1.333,4.667
				c-0.452,1.004,0.067,2.257,1.295,2.257c0.222,0,0.444,0,0.666,0c0.817,0,1.5-0.683,1.5-1.5c0-0.444,0-0.889,0-1.333
				c0-1.962-2.838-1.898-3,0c-0.036,0.417-0.277,0.869-0.461,1.243c0.913,0.385,1.827,0.771,2.741,1.155
				c0.104-0.707,0.561-1.285,0.666-2c0.278-1.877-2.272-2.676-2.893-0.797c-0.327,0.99-0.657,2.018-0.72,3.064
				C73.886,326.483,76.887,326.471,77.002,324.549L77.002,324.549z"/>
		</g>
	</g>
	<g>
		<path fill="#666666" d="M27.165,415.565l24.334-0.351c4.253-13.399-15.32-8.973-15.334-9.334c-0.022-0.602,1-6,1-6
			c-4.087-3.268-10.333,0-10.333,0L27.165,415.565z"/>
		<g>
			<path fill="#666666" d="M27.165,417.065c8.111-0.117,16.223-0.233,24.334-0.351c0.671-0.01,1.265-0.451,1.446-1.102
				c1.75-6.249-1.072-10.547-7.47-11.447c-2.487-0.351-5.008-0.203-7.496,0.059c-2.763,0.292-0.09-0.098-0.251,1.056
				c0.234-1.675,0.57-3.34,0.883-5.001c0.13-0.688-0.083-1.31-0.689-1.693c-3.701-2.347-8.02-1.898-11.847,0
				c-0.457,0.227-0.754,0.798-0.743,1.295c0.111,5.229,0.222,10.456,0.333,15.685c0.041,1.932,3.041,1.936,3,0
				c-0.076-3.574-0.151-7.147-0.228-10.722c-0.033-1.552-0.066-3.103-0.099-4.654c0.015,0.722-1.173,1.054,0.966,0.313
				c2.498-0.865,4.849-0.755,7.104,0.674c-0.23-0.564-0.46-1.129-0.689-1.693c-0.398,2.113-0.887,4.252-1.054,6.398
				c-0.037,0.473,0.302,1.099,0.743,1.295c1.804,0.806,4.901-0.189,6.823-0.216c5.35-0.076,9.514,1.813,7.821,7.856
				c0.482-0.367,0.964-0.734,1.446-1.102c-8.111,0.117-16.223,0.233-24.334,0.351C25.232,414.093,25.229,417.093,27.165,417.065z"/>
		</g>
	</g>
	<g>
		<path fill="#CC9933" d="M19.499,367.88c5.333,4.667,4.666,22,3.333,30.667c5.503-0.119,11.333-0.119,16.667,0
			c2.666-9.333,10-24.667,5.333-33.333"/>
		<g>
			<path fill="#CC9933" d="M18.438,368.941c3.436,3.429,3.579,9.541,3.786,14.065c0.229,5.036-0.112,10.157-0.839,15.143
				c-0.136,0.932,0.379,1.919,1.446,1.898c5.557-0.106,11.11-0.109,16.667,0c0.675,0.014,1.259-0.47,1.446-1.102
				c3.118-10.502,10.34-23.574,5.182-34.488c-0.826-1.748-3.412-0.225-2.59,1.514c4.619,9.774-2.686,22.748-5.484,32.178
				c0.482-0.367,0.964-0.734,1.446-1.102c-5.557-0.109-11.11-0.106-16.667,0c0.482,0.633,0.964,1.266,1.446,1.898
				c0.894-6.131,1.211-12.323,0.803-18.509c-0.309-4.668-1.06-10.162-4.521-13.617C19.189,365.452,17.067,367.574,18.438,368.941
				L18.438,368.941z"/>
		</g>
	</g>
	<g>
		<path fill="#F1D53C" d="M25.499,283.214c17.333,2.666,27.333,22,34,39.333c4,11.333,9.577,42.667,9.577,42.667l-67.574,4.168
			c0,0,1.997-39.502,7.33-54.168c2-6,10.667-40.667,20.667-32"/>
		<g>
			<path fill="#F1D53C" d="M25.101,284.661c19.238,3.467,29.77,26.437,34.512,43.373c3.447,12.309,5.773,25.002,8.018,37.579
				c0.482-0.633,0.964-1.266,1.446-1.898c-22.524,1.39-45.05,2.778-67.574,4.168c0.5,0.5,1,1,1.5,1.5
				c0.83-16.216,1.982-32.871,5.775-48.688c1.47-6.129,11.572-42.814,19.661-36.419c1.5,1.187,3.639-0.922,2.121-2.121
				C17.826,272.085,9.7,307.463,7.501,314.46c-5.499,17.498-6.565,36.684-7.499,54.922c-0.04,0.78,0.713,1.549,1.5,1.5
				c22.524-1.39,45.05-2.778,67.574-4.168c1.034-0.063,1.624-0.904,1.446-1.898c-2.408-13.499-4.867-27.175-8.811-40.32
				c-5.136-17.124-16.471-39.242-35.814-42.728C24.007,281.427,23.198,284.318,25.101,284.661L25.101,284.661z"/>
		</g>
	</g>
	<g>
		<g>
			<path fill="#CC9933" d="M10.665,309.88c-0.05,7.405-0.568,14.834,2.104,21.911c3.473,9.198,12.195,12.161,21.396,11.256
				c1.907-0.188,1.925-3.189,0-3c-9.62,0.946-16.899-2.54-19.507-12.168c-1.591-5.874-1.033-11.998-0.993-17.999
				C13.678,307.945,10.678,307.947,10.665,309.88L10.665,309.88z"/>
		</g>
	</g>
	<g>
		<path fill="#F1D53C" d="M35.499,323.88c6-3.333,25.333-9.333,30-5.333c16,13.333-26.289,23.822-36,22.835"/>
		<g>
			<path fill="#CC9933" d="M36.256,325.175c6.883-3.66,15.406-6.056,23.181-6.444c6.922-0.347,10.521,5.91,5.126,10.664
				c-4.975,4.384-12.323,6.423-18.575,8.106c-5.226,1.407-11.035,2.818-16.488,2.381c-1.93-0.154-1.915,2.847,0,3
				c7.28,0.583,15.215-1.715,22.064-3.887c6.324-2.005,14.913-4.979,18.231-11.261c2.749-5.202-2.305-11.396-7.581-11.896
				c-8.979-0.851-19.608,2.563-27.472,6.746C33.033,323.494,34.549,326.083,36.256,325.175L36.256,325.175z"/>
		</g>
	</g>
	<g>
		<g>
			<path fill="#F4D7D1" d="M21.897,243.101c-10.738-2.185-17.005,13.373-15.898,22.113c0.239,1.893,3.242,1.916,3,0
				c-0.821-6.486,3.642-20.942,12.102-19.221C22.988,246.378,23.793,243.486,21.897,243.101L21.897,243.101z"/>
		</g>
	</g>
	<g>
		<path fill="#375C74" d="M20.165,239.214c1.334-1.333-0.333-0.332,0.334-2.332c-13.334-8.667-13.667,9.665-1,2.332"/>
		<g>
			<path fill="#375C74" d="M21.226,240.275c0.703-0.711,1.321-1.64,0.736-2.639c-0.085-0.145-0.199-0.278-0.319-0.398
				c-0.23-0.232,0.186,0.284,0.08,0.113c0.109,0.286,0.14,0.357,0.091,0.212c-0.08-0.245,0.027,0.422,0.021,0.122
				c-0.007-0.318-0.077,0.377-0.002-0.002c0.026-0.136,0.07-0.269,0.112-0.401c0.209-0.659-0.138-1.338-0.689-1.694
				c-1.618-1.045-3.404-1.967-5.301-2.371c-1.321-0.281-2.801-0.346-4.078,0.166c-2.229,0.894-3.558,3.099-2.994,5.493
				c0.415,1.762,1.96,3.061,3.686,3.448c2.66,0.596,5.417-0.507,7.688-1.813c1.677-0.964,0.166-3.556-1.514-2.591
				c-0.422,0.243-0.851,0.471-1.289,0.681c-0.101,0.048-0.739,0.327-0.349,0.164c-0.223,0.093-0.448,0.177-0.675,0.257
				c-0.354,0.125-0.715,0.229-1.08,0.315c-0.166,0.039-0.335,0.072-0.503,0.102c-0.106,0.019-0.417,0.06,0.076-0.006
				c-0.104,0.014-0.208,0.024-0.312,0.033c-0.29,0.026-0.581,0.029-0.871,0.014c-0.14-0.007-0.649-0.076-0.063,0.007
				c-0.146-0.021-0.289-0.05-0.431-0.084c-0.116-0.028-0.229-0.063-0.343-0.1c-0.055-0.018-0.108-0.039-0.162-0.059
				c-0.233-0.088,0.377,0.165,0.151,0.064c-0.211-0.094-0.41-0.213-0.599-0.347c-0.191-0.137,0.324,0.257,0.143,0.11
				c-0.039-0.031-0.077-0.064-0.114-0.098c-0.073-0.066-0.143-0.136-0.21-0.208c-0.033-0.036-0.064-0.073-0.096-0.109
				c-0.148-0.174,0.253,0.335,0.116,0.152c-0.066-0.088-0.125-0.182-0.182-0.277c-0.047-0.08-0.089-0.164-0.129-0.248
				c-0.097-0.205,0.162,0.398,0.078,0.188c-0.017-0.043-0.032-0.086-0.048-0.13c-0.065-0.188-0.173-0.887-0.088-0.225
				c-0.023-0.181-0.026-0.364-0.018-0.546c0.002-0.045,0.007-0.091,0.011-0.136c0.021-0.228-0.064,0.445-0.029,0.218
				c0.016-0.105,0.04-0.21,0.067-0.313c0.023-0.089,0.053-0.176,0.084-0.263c0.105-0.291-0.192,0.408-0.022,0.061
				c0.084-0.173,0.506-0.74,0.121-0.253c0.07-0.089,0.147-0.172,0.227-0.253c0.107-0.108,0.514-0.426,0.037-0.061
				c0.11-0.085,0.229-0.16,0.348-0.23c0.132-0.077,0.638-0.296,0.085-0.065c0.275-0.115,0.566-0.192,0.859-0.247
				c0.363-0.068-0.338,0.038-0.079,0.007c0.089-0.01,0.179-0.017,0.268-0.023c0.189-0.013,0.379-0.013,0.568-0.007
				c0.178,0.005,0.355,0.021,0.532,0.04c0.265,0.028-0.41-0.064,0.002,0.002c0.111,0.018,0.222,0.04,0.332,0.063
				c0.489,0.099,0.968,0.246,1.438,0.415c0.129,0.046,0.258,0.097,0.386,0.147c0.151,0.062,0.131,0.053-0.062-0.028
				c0.067,0.029,0.134,0.058,0.201,0.088c0.281,0.124,0.557,0.26,0.831,0.4c0.616,0.315,1.21,0.672,1.791,1.047
				c-0.23-0.565-0.46-1.129-0.689-1.694c-0.244,0.771-0.376,1.751,0.13,2.457c0.093,0.129,0.198,0.273,0.313,0.393
				c0.017,0.017,0.033,0.033,0.05,0.05c-0.008-0.007-0.257-0.433-0.301-0.541c-0.06-0.224-0.061-0.448-0.005-0.672
				c0.103-0.387,0.152-0.326,0.045-0.173c0.299-0.427-0.09,0.065-0.181,0.157c-0.574,0.582-0.581,1.541,0,2.121
				C19.68,240.85,20.651,240.856,21.226,240.275L21.226,240.275z"/>
		</g>
	</g>
	<g>
		<g>
			<path fill="#F1A793" d="M44.719,270.279c0.291,0.808,0.674,1.548,1.101,2.289c0.326,0.568,0.42,0.945,0.233,1.581
				c0.615-0.35,1.229-0.699,1.845-1.048c-0.304-0.112-0.125-0.097-0.038,0.134c-0.134-0.356-0.01,0.232-0.026-0.188
				c-0.007-0.175,0.005-0.352,0.012-0.525c0.043-1.032-0.003-2.026-0.233-3.039C47.183,267.595,44.29,268.395,44.719,270.279
				c0.235,1.034,0.036,2.039,0.135,3.076c0.132,1.385,0.988,2.176,2.247,2.639c0.777,0.286,1.629-0.313,1.845-1.048
				c0.287-0.979,0.317-1.977-0.072-2.931c-0.358-0.877-0.94-1.642-1.262-2.533C46.96,267.676,44.061,268.455,44.719,270.279
				L44.719,270.279z"/>
		</g>
	</g>
	<g>
		<path fill="#F4D7D1" d="M38.832,250.547c4.666,2.667,4,6,4.667,11.333c0.666,5.334,0.666,31.334-4,28.667l-23.334-3.333
			c-2.666-8-8-9.334-8.666-17.334c-0.667-6.666,0.666-18.666,6-22.666C19.499,242.547,34.165,244.547,38.832,250.547"/>
		<g>
			<path fill="#F4D7D1" d="M38.075,251.843c4.652,3.026,4.088,10.246,4.212,15.323c0.133,5.484-0.003,11.051-0.743,16.491
				c-0.234,1.729-0.534,3.578-1.298,5.164c-0.271,0.564-0.39,0.274-1.573,0.105c-4.444-0.635-8.888-1.27-13.332-1.904
				c-1.944-0.278-3.888-0.556-5.832-0.833c-0.715-0.103-1.43-0.205-2.145-0.307c-1.239-0.177-0.093,0.024-0.319-0.582
				c-1.114-2.98-3.131-5.462-5.014-7.978c-2.425-3.237-3.122-6.783-3.19-10.757c-0.121-6.953,1.121-17.106,8.692-19.695
				c6.305-2.156,15.806-0.358,20.238,4.737c1.271,1.462,3.385-0.669,2.121-2.121c-6.736-7.744-23.289-9.403-29.826-0.734
				c-3.803,5.043-4.311,12.927-4.205,18.981c0.145,8.318,6.125,12.574,8.857,19.879c0.169,0.452,0.517,0.972,1.048,1.048
				c5.761,0.823,11.522,1.646,17.284,2.469c3.332,0.477,8.178,2.544,10.015-1.271c2.874-5.965,2.266-14.454,2.246-20.874
				c-0.021-6.823,0.621-15.607-5.723-19.733C37.962,248.194,36.46,250.792,38.075,251.843L38.075,251.843z"/>
		</g>
	</g>
	<g>
		<g>
			<path fill="#F1A793" d="M15.719,266.482c-1.285,3.198-1.433,6.925-0.873,10.301c0.255,1.534,0.79,2.238,2.254,2.808
				c1.434,0.557,3.069-0.859,4.156-1.541c1.635-1.024,0.131-3.62-1.514-2.59c-0.139,0.087-1.892,1.185-1.907,1.105
				c-0.222-1.104-0.256-2.242-0.274-3.364c-0.032-2.032,0.293-4.036,1.051-5.922C19.333,265.483,16.431,264.71,15.719,266.482
				L15.719,266.482z"/>
		</g>
	</g>
	<g>
		<g>
			<path fill="#FDFDFD" d="M42.335,263.132c-2.244-0.037-4.422-0.423-6.648,0.054c-1.892,0.404-1.09,3.296,0.797,2.893
				c1.92-0.41,3.913,0.021,5.852,0.054C44.271,266.165,44.268,263.165,42.335,263.132L42.335,263.132z"/>
		</g>
	</g>
	<polygon fill="#FDFDFD" stroke="#FDFDFD" stroke-miterlimit="10" points="4.832,274.989 12.165,270.882 14.464,281.832 
		16.165,287.214 12.165,288.88 8.832,282.214 	"/>
	<g>
		<g>
			<path fill="#FDFDFD" d="M10.781,282.484c-0.182-0.438-0.485-0.966-0.612-1.422c-0.128,0.486-0.257,0.973-0.386,1.459
				c0.018,0.037,0.034,0.074,0.052,0.111c-0.354-0.854-0.707-1.707-1.061-2.561c-1.695,1.324-3.033-2.131-0.838-1.243
				c-0.221-0.836-0.441-1.671-0.662-2.507c0.002,0.153,0.005,0.307,0.007,0.459c0.286-0.728-0.308-1.69-1.048-1.845
				c-0.461-0.097-0.729-0.347-1.142-0.599c-0.119,0.914-0.238,1.827-0.358,2.741c1.503-0.219,3.805-2.765,5.095-2.151
				c0.77,0.366,1.573,0.188,2.052-0.538c0.727-1.102,1.388-1.796,1.651-3.108c-0.964,0-1.929,0-2.893,0
				c0.479,1.968,0.214,4.002,0.5,6c0.271,1.896,1.493,3.42,1.696,5.352c0.085,0.808,0.618,1.507,1.5,1.5
				c-0.613-0.253-0.679,0.046-0.196,0.898c0.914-0.385,1.827-0.771,2.741-1.155c-0.27-0.505-0.548-0.934-0.984-1.304
				c-1.287-1.093-3.177,0.263-2.355,1.817c0.182,0.748,0.363,1.495,0.545,2.243c0.633-0.482,1.266-0.964,1.898-1.446
				c0.68,0.271-0.528-0.661-0.75-0.75c-1.334-0.534-2.216,1.159-1.693,2.203c0.166,0.334,0.333,0.667,0.5,1
				c0.299-0.734,0.598-1.469,0.896-2.203c-1.929,0.66-2.064,0.273-3.146,1.939c0.785-0.102,1.57-0.202,2.355-0.304
				c-0.396-0.27-0.729-0.604-1-1c-1.266-1.504-3.273,0.63-2.121,2.121c0.182,0.253,0.304,0.532,0.364,0.838
				c0.836-0.486,1.671-0.973,2.507-1.459c-0.562-0.53-1.062-1.113-1.5-1.75c-0.781-1.01-2.694-0.185-2.561,1.061
				c0.125,0.583,0.125,1.167,0,1.75c0.752-0.432,1.505-0.863,2.257-1.295c-0.231-0.465-0.464-0.93-0.696-1.395
				c-0.836-0.221-1.671-0.441-2.507-0.662c0.021,0.073,0.042,0.146,0.063,0.219c0.482-0.633,0.964-1.266,1.446-1.898
				c-0.104,0.011-0.208,0.021-0.313,0.031c0.432,0.248,0.863,0.495,1.295,0.743c0.089-0.728,0.178-1.455,0.266-2.183
				c-0.707,0-1.414,0-2.121,0c1.214-0.109,1.479-0.258,0.794-0.444c-0.903-0.442-0.696-1.723-0.537-2.468
				c-0.982-0.133-1.964-0.266-2.946-0.398c-0.065,0.45-0.131,0.9-0.196,1.352c0.836-0.221,1.671-0.441,2.507-0.662
				c-0.205-0.431-0.409-0.86-0.614-1.291c0.39-1.888-2.502-2.691-2.893-0.797c-0.37,1.79,0.138,2.913,1.386,4.209
				c0.79,0.82,2.207,0.408,2.507-0.662c0.232-0.829,0.275-1.271,0.304-2.148c0.055-1.681-2.59-2.063-2.946-0.398
				c-0.561,2.62,0.226,6.013,3.408,6.35c3.307,0.351,2.776-3.04,1.349-4.762c-0.515-0.62-1.595-0.55-2.121,0
				c-1.739,1.816-1.844,3.619-0.734,5.817c0.216,0.429,0.808,0.792,1.295,0.743c0.104-0.011,0.208-0.021,0.313-0.031
				c0.947-0.095,1.735-0.888,1.446-1.898c-0.021-0.073-0.042-0.146-0.063-0.219c-0.289-1.011-1.758-1.555-2.507-0.662
				c-1.863,2.22-1.413,4.846,1.304,6.105c1.093,0.508,2.13-0.114,2.257-1.295c0.125-0.583,0.125-1.167,0-1.75
				c-0.854,0.354-1.707,0.707-2.561,1.061c0.438,0.637,0.938,1.22,1.5,1.75c1.027,1.07,2.956-0.021,2.507-1.459
				c-0.279-0.896-0.558-1.415-1.136-2.162c-0.707,0.707-1.414,1.414-2.121,2.121c0.271,0.397,0.604,0.73,1,1
				c0.768,0.624,1.791,0.566,2.355-0.304c0.243-0.374,0.426-0.669,0.445-1.127c-0.976,0.647-1.031,0.931-0.166,0.852
				c0.375-0.024,0.733-0.119,1.074-0.285c0.955-0.327,1.348-1.303,0.896-2.203c-0.166-0.334-0.333-0.667-0.5-1
				c-0.564,0.734-1.129,1.469-1.693,2.203c-0.68-0.271,0.528,0.661,0.75,0.75c0.905,0.362,1.924-0.548,1.898-1.446
				c-0.04-1.451-0.276-2.471-0.955-3.757c-0.785,0.605-1.57,1.212-2.355,1.817c0.225,0.196,0.396,0.429,0.516,0.696
				c0.843,1.573,3.06,0.444,2.741-1.155c-0.326-1.639-0.8-3.117-2.696-3.102c0.5,0.5,1,1,1.5,1.5
				c-0.2-1.907-0.911-3.408-1.587-5.185c-0.814-2.139-0.169-4.713-0.717-6.964c-0.341-1.401-2.598-1.471-2.893,0
				c-0.169,0.842-0.877,1.675-1.349,2.392c0.684-0.18,1.368-0.359,2.052-0.538c-3.553-1.691-4.259,1.39-7.405,1.849
				c-1.363,0.198-1.357,2.131-0.358,2.741c0.727,0.444,0.997,0.723,1.858,0.901c-0.35-0.615-0.699-1.229-1.048-1.845
				c-1.473,3.75,2.708,5.229,5.007,2.459c0.77-0.927,0.428-2.066-0.662-2.507c-3.183-1.288-5.289,0.892-4.802,4.072
				c0.578,3.771,4.423,4.171,6.964,2.185c1.008-0.788,0.187-2.688-1.061-2.561c-0.954,0.098-1.463,0.127-2.173,0.768
				c-0.391,0.353-0.523,0.964-0.386,1.459c0.147,0.531,0.398,0.908,0.612,1.422C8.622,285.04,11.525,284.269,10.781,282.484
				L10.781,282.484z"/>
		</g>
	</g>
	<g>
		<g>
			<path fill="#999999" d="M40.085,269.632c1.935,0,1.935-3,0-3S38.15,269.632,40.085,269.632L40.085,269.632z"/>
		</g>
	</g>
	<g>
		<g>
			<path fill="#FDFDFD" d="M20.085,268.382c0.063,1.515,0.954,2.662,2.352,3.196c0.765,0.292,1.644-0.316,1.845-1.048
				c0.232-0.846-0.284-1.553-1.048-1.845c0.133,0.058,0.12,0.044-0.035-0.039c0.256,0.151-0.155-0.198,0.025,0.041
				c-0.026-0.035-0.203-0.423-0.103-0.149c-0.14-0.379-0.02,0.244-0.036-0.156c-0.033-0.816-0.657-1.5-1.5-1.5
				C20.793,266.882,20.051,267.565,20.085,268.382L20.085,268.382z"/>
		</g>
	</g>
	<g>
		<g>
			<path fill="#FDFDFD" d="M23.483,270.829c0.103-0.229,0.204-0.459,0.307-0.689c0.501,0.689,1.268,0.94,2.052,0.538
				c1.494-0.267,1.749-1.103,0.766-2.506c0.836-0.221,1.671-0.441,2.507-0.662c-0.091,0.556-0.182,1.112-0.272,1.668
				c-0.734-0.299-1.469-0.598-2.203-0.896c0.457,1.308,0.779,2.302,1.401,3.608c0.725,1.526,3.383,0.419,2.741-1.155
				c-0.243-0.476-0.41-0.976-0.5-1.5c-0.964,0.266-1.929,0.531-2.893,0.797c0.472,0.972,0.704,2.006,0.696,3.102
				c0.982-0.133,1.964-0.266,2.946-0.398c-0.083-0.417-0.167-0.834-0.25-1.25c-0.914,0.385-1.827,0.771-2.741,1.155
				c0.265,0.915,0.53,1.829,0.795,2.743c0.982-0.133,1.964-0.266,2.946-0.398c-0.065-0.284-0.131-0.567-0.196-0.852
				c-0.932,0.252-1.863,0.505-2.795,0.757c0.265,0.915,0.53,1.829,0.795,2.743c0.111,0.937,0.876,1.747,1.898,1.446
				c0.111-0.032,0.222-0.065,0.332-0.098c-0.615-0.349-1.229-0.698-1.845-1.048c0.385,0.925,0.506,1.862,0.668,2.848
				c0.276,1.686,3.006,1.269,2.946-0.398c-0.03-0.843-0.099-1.328-0.304-2.148c-0.914,0.385-1.827,0.771-2.741,1.155
				c0.348,0.915,0.696,1.829,1.045,2.743c0.236,1.86,3,1.99,3,0c0-0.667,0-1.333,0-2c-0.932,0.252-1.863,0.505-2.795,0.757
				c0.282,0.798,0.565,1.595,0.849,2.392c0.381,1.676,2.946,1.271,2.946-0.398c0-0.417,0-0.833,0-1.25
				c-0.982,0.133-1.964,0.266-2.946,0.398c0.227,0.594,0.524,1.159,0.75,1.75c0.58,1.521,2.946,1.389,2.946-0.398
				c0-0.667,0-1.333,0-2c-0.982,0.133-1.964,0.266-2.946,0.398c0.272,0.759,0.547,1.376,0.901,2.108
				c0.564-0.734,1.129-1.469,1.693-2.203c0.627,0.567,0.911,0.633,0.852,0.196c-0.932,0.252-1.863,0.505-2.795,0.757
				c0.34,0.657,0.782,1.223,1.234,1.804c0.842,1.082,2.561,0.131,2.561-1.061c0-0.5,0-1,0-1.5c-0.854,0.354-1.707,0.707-2.561,1.061
				c0.417,0.417,0.833,0.833,1.25,1.25c1.155,1.155,2.717-0.063,2.507-1.459c0-0.151,0-0.302,0-0.453
				c-0.482,0.367-0.964,0.734-1.446,1.102c0.5,0,1,0,1.5,0c0.524,0,1.034-0.285,1.295-0.743c-0.231,0.146-0.462,0.293-0.693,0.439
				c0.93,0.335,1.898-0.527,1.898-1.446c0-0.25,0-0.5,0-0.75c-0.752,0.432-1.505,0.863-2.257,1.295c0.333,0.25,0.666,0.5,1,0.75
				c0.646,0.484,1.688,0.116,2.052-0.538c0.002-0.01,0.004-0.02,0.007-0.029c-0.606,0.078-1.212,0.156-1.818,0.234
				c0.253,0.111,0.507,0.222,0.76,0.333c1.003,0.44,2.261-0.058,2.257-1.295c0.046-0.311,0.093-0.62,0.139-0.931
				c-0.564,0.23-1.129,0.46-1.693,0.689c0.331,0.184,0.662,0.368,0.994,0.552c0.763,0.62,2.324,0.574,2.507-0.662
				c0.063-0.503,0.146-1.003,0.25-1.5c-0.836,0.221-1.671,0.441-2.507,0.662c0.187,0.132,0.358,0.281,0.516,0.446
				c0.576,1.345,2.328,0.676,2.741-0.358c0.114-0.285,0.127-0.575,0.146-0.88c-0.5,0.5-1,1-1.5,1.5
				c-0.263-0.306-0.526-0.611-0.789-0.917c0.615-0.35,1.229-0.699,1.845-1.048c0.201,0.148,0.401,0.298,0.602,0.446
				c-0.932,0.252-1.863,0.505-2.795,0.757c0.474,0.393,0.571,0.891,0.295,1.493c0.932-0.252,1.863-0.505,2.795-0.757
				c-0.098-0.415-0.196-0.829-0.295-1.243c-0.854,0.354-1.707,0.707-2.561,1.061c0.355-0.285,0.712-0.57,1.067-0.855
				c-1.456-0.812-3.114,1.185-1.817,2.355c0.121,0.514,0.243,1.027,0.364,1.541c0.836-0.221,1.671-0.441,2.507-0.662
				c-0.338-0.398-0.677-0.798-1.016-1.196c-0.684,0.684-1.368,1.368-2.052,2.052c0.27,0.686,0.54,1.371,0.811,2.057
				c0.914-0.12,1.827-0.239,2.741-0.358c-0.182-0.581-0.363-1.162-0.545-1.743c-0.854,0.354-1.707,0.707-2.561,1.061
				c0.288,0.847,0.576,1.693,0.864,2.541c0.914-0.12,1.827-0.239,2.741-0.358c-0.098-0.415-0.196-0.829-0.295-1.243
				c-0.854,0.354-1.707,0.707-2.561,1.061c0.167,1.533,0.79,1.909,1.871,1.129c-1.5-1.165-3.64,0.903-2.121,2.121
				c0.205,0.597,0.409,1.193,0.614,1.791c0.734-0.299,1.469-0.598,2.203-0.896c-0.252-0.485-0.505-0.97-0.757-1.455
				c-0.932,0.252-1.863,0.505-2.795,0.757c0.199,0.548,0.398,1.095,0.599,1.642c0.482-0.633,0.964-1.266,1.446-1.898
				c-1.413-0.018-1.048-0.134-0.955-0.007c-0.947-1.284-3.288-0.583-2.741,1.155c0.256,0.646,0.423,1.312,0.5,2
				c0.734-0.564,1.469-1.129,2.203-1.693c-0.57-0.571-1.141-1.142-1.712-1.712c-0.684,0.684-1.368,1.368-2.052,2.052
				c0.07,0.071,0.141,0.142,0.212,0.212c0.564-0.734,1.129-1.469,1.693-2.203c-0.284-0.187-0.568-0.374-0.854-0.561
				c-0.785-1.069-2.94-0.888-2.795,0.757c0.018,0.45,0.036,0.9,0.054,1.352c0.836-0.221,1.671-0.441,2.507-0.662
				c-0.595-0.407-1.049-0.937-1.364-1.588c-0.608-1.485-2.946-1.414-2.946,0.398c0,0.583,0,1.167,0,1.75
				c0.752-0.432,1.505-0.863,2.257-1.295c-0.525-0.307-0.976-0.694-1.5-1c-1.478-0.862-3.026,1.146-1.817,2.355
				c0.094,0.094,0.188,0.188,0.281,0.281c-0.078-0.605-0.156-1.212-0.234-1.817c-0.094,0.156-0.188,0.313-0.281,0.469
				c0.684-0.18,1.368-0.359,2.052-0.538c-0.221-0.235-0.458-0.306-0.712-0.212c-0.59-1.062-2.522-0.954-2.741,0.358
				c-0.038,0.029-0.076,0.059-0.114,0.088c0.707,0,1.414,0,2.121,0c-0.479-0.579-0.955-1.039-1.554-1.484
				c-1.249-0.931-2.781,0.837-2.052,2.052c-0.051-0.052-0.102-0.104-0.151-0.155c0.836-0.221,1.671-0.441,2.507-0.662
				c-0.437-0.563-0.937-1.063-1.5-1.5c-0.502-0.446-1.216-0.598-1.817-0.234c-1.202,0.384-2.317,0.25-3.345-0.401
				c-0.266,0.964-0.531,1.929-0.797,2.893c0.13,0.033,0.261,0.066,0.392,0.099c1.446,0.644,3.188-1.134,1.817-2.355
				c-0.627-0.559-1.216-1.1-1.75-1.75c-0.336-0.41-0.977-0.505-1.459-0.386c-0.117-0.518-0.234-1.036-0.352-1.554
				c-0.854,0.354-1.707,0.707-2.561,1.061c0.205,0.363,0.409,0.726,0.614,1.088c0.734-0.564,1.469-1.129,2.203-1.693
				c-0.335-0.652-0.671-1.304-1.007-1.955c-0.752,0.432-1.505,0.863-2.257,1.295c0.07,0.071,0.141,0.142,0.212,0.212
				c0.785-0.605,1.57-1.212,2.355-1.817c-0.187-0.646-0.374-1.293-0.561-1.939c-0.932,0.252-1.863,0.505-2.795,0.757
				c0.3,0.475,0.55,0.975,0.75,1.5c0.785-0.605,1.57-1.212,2.355-1.817c-0.121-0.847-0.243-1.693-0.364-2.541
				c-0.836,0.221-1.671,0.441-2.507,0.662c0.255,0.398,0.51,0.798,0.766,1.196c0.785-0.605,1.57-1.212,2.355-1.817
				c-0.187-0.729-0.374-1.46-0.561-2.189c-0.752,0.432-1.505,0.863-2.257,1.295c0.481,0.339,0.964,0.678,1.446,1.016
				c1.448,1.332,3.329-0.645,2.121-2.121c-0.422-0.648-0.844-1.298-1.266-1.946c-0.496-0.921-2.129-1.037-2.59,0
				c-0.165,0.371-0.296,0.714-0.401,1.108c0.836-0.221,1.671-0.441,2.507-0.662c-0.121-0.681-0.243-1.36-0.364-2.041
				c-0.914,0.12-1.827,0.239-2.741,0.358c0.199,0.464,0.398,0.928,0.599,1.392c0.615-0.615,1.229-1.229,1.845-1.845
				c-0.402,0.169-0.806,0.338-1.209,0.507c0.605-0.785,1.212-1.57,1.817-2.355c-0.403-0.487-0.808-0.975-1.212-1.462
				c-0.684,0.684-1.368,1.368-2.052,2.052c0.085,0.152,0.171,0.304,0.257,0.455c0.854-0.354,1.707-0.707,2.561-1.061
				c-0.288-0.613-0.576-1.226-0.864-1.838c-0.836,0.486-1.671,0.973-2.507,1.459c0.226,0.259,0.451,0.518,0.677,0.775
				c0.349-0.615,0.698-1.229,1.048-1.845c-0.136-0.096-0.271-0.191-0.407-0.286c-0.119,0.914-0.238,1.827-0.358,2.741
				c0.378-0.408,0.66-0.459,0.845-0.151c1.418,0.608,3.268-1.195,1.817-2.355c-0.417-0.333-0.833-0.667-1.25-1
				c-0.354,0.854-0.707,1.707-1.061,2.561c0.651,0.336,1.303,0.672,1.955,1.007c0.564-0.734,1.129-1.469,1.693-2.203
				c0.216,0.401,0.432,0.802,0.646,1.203c-0.684,0.18-1.368,0.359-2.052,0.538c-0.013,0.899-0.025,1.799-0.038,2.698
				c0.914,0.119,1.827,0.238,2.741,0.358c0.033-0.698,0.066-1.396,0.099-2.095c-0.785,0.102-1.57,0.202-2.355,0.304
				c0.083,1.293,0.167,2.586,0.25,3.879c0.836,0.221,1.671,0.441,2.507,0.662c-0.232-0.572-0.674-1.439-0.302-2.021
				c-0.684,0.18-1.368,0.358-2.052,0.538c1.073,1.646,1.11,3.354,0.112,5.125c0.863,0,1.727,0,2.59,0
				c0.339-1.061,0.678-2.122,1.016-3.183c-0.785-0.102-1.57-0.202-2.355-0.304c0,1.495,0,2.991,0,4.486
				c0.785-0.102,1.57-0.202,2.355-0.304c-0.524,0.576-0.711,1.263-0.561,2.061c0.932-0.252,1.863-0.505,2.795-0.757
				c0-0.995,0-1.991,0-2.986c-0.785,0.102-1.57,0.202-2.355,0.304c1.376,1.503,1.542,3.212,0.5,5.129
				c0.785,0.102,1.57,0.202,2.355,0.304c-0.083-1.079-0.166-2.157-0.25-3.236c-0.914-0.119-1.827-0.238-2.741-0.358
				c-0.25,1-0.5,2-0.75,3c0.482-0.633,0.964-1.266,1.446-1.898c-0.167-0.417-0.333-0.833-0.5-1.25c-0.5,0.5-1,1-1.5,1.5
				c1.879,0.729,2.813,1.946,2.804,3.648c0.836-0.486,1.671-0.973,2.507-1.459c-0.187,0.687-0.374,1.374-0.561,2.061
				c0.932-0.252,1.863-0.505,2.795-0.757c-0.032-0.865-0.065-1.729-0.099-2.595c-0.734,0.299-1.469,0.598-2.203,0.896
				c0.502,0.985,1.005,1.97,1.507,2.955c0.854-0.354,1.707-0.707,2.561-1.061c-0.086,0.153-0.171,0.307-0.257,0.459
				c0.734-0.564,1.469-1.129,2.203-1.693c0.448,0.415,0.529,0.93,0.243,1.545c0.854-0.354,1.707-0.707,2.561-1.061
				c-0.793-1.082-1.063-0.895-0.811,0.561c0.752-0.432,1.505-0.863,2.257-1.295c-0.401,0.549-0.802,1.098-1.203,1.646
				c0.734-0.299,1.469-0.598,2.203-0.896c-0.691-0.756-1.12-0.657-1.288,0.295c-2.651,0.319,0.644,0.185,0.365,1.334
				c0.127-0.523,0.546-1.122,0.873-1.535c-0.965,1.217-1.047-1.997-1.457,1.201c0.854-0.354,1.707-0.707,2.561-1.061
				c-0.502-0.264-1.005-0.527-1.507-0.791c0.964-0.266,1.929-0.531,2.893-0.797c-0.065-0.534-0.131-1.067-0.196-1.602
				c-0.854,0.354-1.707,0.707-2.561,1.061c1.917,1.654,1.625,5.559-1.088,6.493c-1.818,0.626-1.037,3.524,0.797,2.893
				c4.579-1.576,6.235-8.209,2.412-11.507c-0.936-0.808-2.604-0.335-2.561,1.061c0.029,0.94,0.103,1.478,0.304,2.398
				c0.415,1.898,3.266,1.086,2.893-0.797c-1.32-6.677-8.269-0.119-3.507,3.709c1.079,0.868,2.389,0.281,2.561-1.061
				c0.402-3.136-1.766-6.291-4.207-2.63c-1.256,1.882-1.922,6.126,1.702,4.537c2.648-1.16,4.271-5.785,0.169-5.896
				c-4.327-0.116-3.717,3.637-0.671,5.283c0.775,0.42,2.043,0.1,2.203-0.896c0.374-2.319,0.063-6.906-3.564-5.505
				c-3.022,1.167-1.612,4.354,0.361,5.651c0.999,0.658,2.207-0.223,2.257-1.295c0.428-9.125-9.676-3.408-4.311,1.561
				c1.01,0.936,2.449,0.234,2.561-1.061c0.752-8.716-10.74-2.805-4.757,1.045c1.186,0.764,2.446-0.484,2.203-1.693
				c-1.354-6.732-9.532-2.934-4.757,2.459c0.872,0.984,2.595,0.205,2.561-1.061c-0.069-2.554-0.956-4.078-2.993-5.545
				c-0.85-0.612-1.893,0.07-2.203,0.896c-0.74,1.97-0.652,3.13,0.401,4.905c0.708,1.193,2.975,0.795,2.795-0.757
				c-0.199-1.724-1.298-6.447-4.211-5.228c-2.62,1.097-2.028,3.546-0.35,5.288c1.15,1.194,2.695-0.09,2.507-1.459
				c-0.448-3.251-2.411-5.525-5.696-5.852c-0.89-0.088-1.402,0.756-1.5,1.5c-0.353,2.681,0.96,3.993,3.5,4.25
				c0.942,0.096,1.746-1.035,1.446-1.898c-0.586-1.69-1.201-3.257-3.249-2.793c-1.413,0.32-1.826,2.521-1.507,3.682
				c0.415,1.508,2.505,2.01,3.784,1.445c2.372-1.048,2.529-3.063,1.722-5.334c-0.387-1.089-2.159-1.653-2.741-0.358
				c-1.043,2.318-0.928,3.986,0.25,6.264c0.434,0.84,1.722,0.994,2.355,0.304c2.518-2.743,1.858-6.723-0.5-9.371
				c-0.677-0.761-1.849-0.458-2.355,0.304c-1.407,2.11-1.407,3.903,0,6.014c0.849,1.273,2.687,0.744,2.795-0.757
				c0.21-2.906-0.465-6.491-4.117-5.978c-3.372,0.474-2.102,4.625-0.443,6.038c0.704,0.6,1.872,0.605,2.355-0.304
				c1.395-2.621,1.395-4.893,0-7.514c-0.493-0.929-1.637-0.878-2.355-0.304c-2.353,1.877-2.736,4.17-1.484,6.817
				c0.454,0.962,2.148,1.001,2.59,0c1.118-2.534,2.163-7.747-1.188-9.229c-0.771-0.341-1.574-0.209-2.052,0.538
				c-0.804,1.257-0.537,3.015-0.001,4.333c0.378,0.931,1.706,1.629,2.507,0.662c2.141-2.583,2.316-5.739-0.25-8.121
				c-0.694-0.645-1.869-0.566-2.355,0.304c-0.897,1.603-1.054,2.644-0.401,4.405c0.449,1.214,2.007,1.508,2.741,0.358
				c1.52-2.375,1.742-5.371-1.038-6.802c-0.653-0.337-1.721-0.243-2.052,0.538c-0.498,1.171-0.374,2.883,1.146,3.203
				c1.29,0.271,2.34-1.005,1.693-2.203c-1.043-1.934-2.368-2.581-4.545-2.493c-1.178,0.047-2.156,1.685-1.061,2.561
				c0.417,0.333,0.833,0.667,1.25,1c0.605-0.785,1.212-1.57,1.817-2.355c-1.352-0.58-1.785-0.665-3.155-0.151
				c-1.169,0.438-1.56,2.044-0.358,2.741c1.082,0.629,1.543,1.012,2.718,0.589c0.788-0.283,1.251-1.003,1.048-1.845
				c-0.27-1.118-0.526-1.297-1.448-2.1c-1.15-1.002-2.814-0.04-2.507,1.459c0.283,1.38,0.632,2.172,1.636,3.162
				c0.854,0.843,2.71,0.301,2.561-1.061c-0.174-1.581-0.41-2.151-1.743-3.045c-1.316-0.883-2.719,0.801-2.052,2.052
				c0.613,1.152,1.199,1.821,2.288,2.538c1.456,0.96,2.982-1.161,1.817-2.355c-3.525-3.614-6.656,2.727-1.709,4.507
				c1.068,0.385,2.18-0.805,1.845-1.845c-0.27-0.84-0.481-1.326-0.901-2.108c-0.647-1.209-2.349-0.811-2.741,0.358
				c-0.722,2.149-0.307,3.27,1.136,4.959c0.745,0.874,2.232,0.367,2.507-0.662c0.033-0.13,0.066-0.261,0.099-0.392
				c-0.863,0-1.727,0-2.59,0c0.636,1.182,0.891,1.523,1.734,2.554c0.707-0.707,1.414-1.414,2.121-2.121
				c-0.802-0.738-1.092-0.957-2.054-1.484c-1.032-0.566-2.194,0.154-2.257,1.295c-0.105,1.908,0.18,2.913,1.439,4.311
				c1.206,1.339,3.058-0.36,2.355-1.817c-0.41-0.854-0.604-1.108-1.234-1.804c-0.816-0.903-2.141-0.328-2.507,0.662
				c-0.807,2.177-0.331,3.756,1.136,5.459c1.2,1.395,2.995-0.38,2.355-1.817c-0.199-0.525-0.449-1.025-0.75-1.5
				c-0.73-1.279-2.837-0.744-2.795,0.757c0.049,1.758,0.152,2.842,1.439,4.061c1.223,1.158,3.25-0.326,2.355-1.817
				c-0.32-0.534-0.744-0.986-1.288-1.288c-0.949-0.527-2.315,0.124-2.257,1.295c0.11,2.194,0.738,3.248,2.493,4.545
				c1.087,0.804,2.558-0.517,2.203-1.693c-0.302-1.003-0.735-1.595-1.386-2.412c-0.864-1.088-2.532-0.125-2.561,1.061
				c-0.096,3.947,2.15,3.771,4.439,5.811c0.605-0.785,1.212-1.57,1.817-2.355c-0.371-0.165-0.714-0.296-1.108-0.401
				c-1.928-0.515-2.523,2.168-0.797,2.893c2.164,0.908,3.62,1.327,5.655,0.099c-0.605-0.078-1.212-0.156-1.817-0.234
				c0.563,0.438,1.063,0.938,1.5,1.5c0.757,0.865,2.225,0.374,2.507-0.662c0.239-0.876,0.323-1.365-0.151-2.155
				c-0.684,0.684-1.368,1.368-2.052,2.052c0.344,0.313,0.659,0.651,0.946,1.016c0.55,0.664,1.547,0.492,2.121,0
				c0.518-0.443,0.773-0.734,0.886-1.412c-0.914,0.12-1.827,0.239-2.741,0.358c0.366,0.66,1.134,0.989,1.788,1.288
				c0.75,0.344,1.601,0.215,2.052-0.538c0.094-0.156,0.188-0.313,0.281-0.469c0.347-0.577,0.238-1.345-0.234-1.817
				c-0.094-0.094-0.188-0.188-0.281-0.281c-0.605,0.785-1.212,1.57-1.817,2.355c0.525,0.307,0.976,0.694,1.5,1
				c0.982,0.573,2.257-0.157,2.257-1.295c0-0.583,0-1.167,0-1.75c-0.982,0.133-1.964,0.266-2.946,0.398
				c0.549,1.341,1.021,1.938,2.136,2.912c0.743,0.649,2.342,0.553,2.507-0.662c0.114-0.84,0.132-1.261,0.054-2.148
				c-0.932,0.252-1.863,0.505-2.795,0.757c0.827,1.126,1.344,1.461,2.646,1.939c1.268,0.466,2.334-1.137,1.693-2.203
				c-0.32-0.534-0.744-0.986-1.288-1.288c-1.248-0.693-2.933,0.753-2.052,2.052c0.798,1.179,1.657,1.932,2.788,2.788
				c1.174,0.89,2.396-0.572,2.203-1.693c-0.077-0.688-0.244-1.355-0.5-2c-0.914,0.385-1.827,0.771-2.741,1.155
				c1.157,1.569,1.688,1.471,3.545,1.493c0.973,0.012,1.708-0.967,1.446-1.898c-0.264-0.938-0.484-1.471-0.901-2.358
				c-0.655-1.399-2.795-0.655-2.795,0.757c0,2.057,0.595,2.87,2.243,4.045c0.8,0.571,1.965-0.024,2.203-0.896
				c0.57-2.084,0.329-3.334-1.386-4.709c-0.707,0.707-1.414,1.414-2.121,2.121c4.282,3.324,4.703-2.681,2.371-5.371
				c-0.909-1.049-2.508-0.152-2.561,1.061c-0.051,1.173,0.046,1.781,0.705,2.757c0.714,1.058,2.365,0.946,2.741-0.358
				c0.661-2.295,0.273-3.965-1.636-5.459c-1.042-0.815-2.455-0.327-2.561,1.061c-0.109,1.429,0.084,2.124,0.955,3.257
				c0.679,0.885,2.512,1.095,2.741-0.358c0.374-2.362,0.078-4.281-2.189-5.443c-1.252-0.643-2.939,0.721-2.052,2.052
				c0.551,0.826,0.775,1.165,1.484,1.804c0.804,0.724,2.231,0.489,2.507-0.662c0.474-1.981,0.411-3.062-1.136-4.459
				c-0.605,0.785-1.212,1.57-1.817,2.355c1.397,0.778,1.776,0.918,3.201,0.281c0.468-0.208,0.743-0.812,0.743-1.295
				c0-1.493-0.301-1.726-1.377-2.842c-0.945-0.98-2.506-0.204-2.561,1.061c-0.051,1.173,0.046,1.781,0.705,2.757
				c0.868,1.286,2.653,0.732,2.795-0.757c0.132-1.387,0.105-1.87-0.705-3.007c-0.798-1.121-2.876-0.858-2.795,0.757
				c0.052,1.029,0.469,2.22,1.602,2.446c0.869,0.174,1.529-0.243,1.845-1.048c0.622-1.582-0.519-2.952-2.104-2.88
				c-0.856,0.039-1.447,0.655-1.5,1.5c-0.013,0.027-0.026,0.055-0.039,0.083c0.914-0.12,1.827-0.239,2.741-0.358
				c-0.2-0.469-0.591-0.748-0.984-1.054c-0.799-0.621-2.272-0.571-2.507,0.662c-0.104,0.496-0.188,0.996-0.25,1.5
				c0.836-0.221,1.671-0.441,2.507-0.662c-0.909-0.739-1.227-1.097-2.318-1.323c-0.698-0.146-1.296,0.099-1.693,0.689
				c-0.607,0.9-0.553,1.302-0.549,2.444c0.752-0.432,1.505-0.863,2.257-1.295c-0.253-0.111-0.506-0.223-0.759-0.334
				c-0.598-0.262-1.337-0.307-1.818,0.235c-0.178,0.2-0.344,0.401-0.475,0.637c0.684-0.18,1.368-0.359,2.052-0.538
				c-0.333-0.25-0.666-0.5-1-0.75c-0.941-0.707-2.257,0.257-2.257,1.295c0,0.25,0,0.5,0,0.75c0.633-0.482,1.266-0.964,1.898-1.446
				c-0.634-0.229-1.265-0.423-1.896-0.053c-1.242,0.729,1.015,0.249-1.002,0.249c-0.606,0-1.349,0.452-1.446,1.102
				c-0.115,0.768-0.115,1.279,0,2.047c0.836-0.486,1.671-0.973,2.507-1.459c-0.417-0.417-0.833-0.833-1.25-1.25
				c-0.926-0.926-2.561-0.248-2.561,1.061c0,0.5,0,1,0,1.5c0.854-0.354,1.707-0.707,2.561-1.061
				c-0.315-0.361-0.57-0.761-0.766-1.196c-0.69-1.333-2.83-0.705-2.795,0.757c0.014,0.554,0.08,1.082,0.159,1.629
				c0.065,0.45,0.595,0.986,1.048,1.048c0.048,0.007,0.096,0.013,0.145,0.02c1.313,0.178,2.311-0.929,1.693-2.203
				c-0.199-0.464-0.398-0.928-0.599-1.392c-0.557-1.547-2.946-1.368-2.946,0.398c0,0.667,0,1.333,0,2
				c0.982-0.133,1.964-0.266,2.946-0.398c-0.227-0.594-0.524-1.159-0.75-1.75c-0.58-1.521-2.946-1.389-2.946,0.398
				c0,0.417,0,0.833,0,1.25c0.982-0.133,1.964-0.266,2.946-0.398c-0.342-1.503-0.448-1.702-1.151-3.108
				c-0.686-1.371-2.795-0.676-2.795,0.757c0,0.667,0,1.333,0,2c1,0,2,0,3,0c-0.209-1.646-0.586-2.837-1.455-4.257
				c-0.894-1.461-3.156-0.503-2.741,1.155c0.065,0.451,0.131,0.901,0.196,1.352c0.982-0.133,1.964-0.266,2.946-0.398
				c-0.161-0.986-0.283-1.924-0.668-2.848c-0.31-0.744-0.986-1.301-1.845-1.048c-0.111,0.032-0.222,0.065-0.332,0.098
				c0.633,0.482,1.266,0.964,1.898,1.446c-0.188-1.566-0.56-2.818-1.205-4.257c-0.609-1.36-2.898-0.687-2.795,0.757
				c0.043,0.599,0.144,1.055,0.304,1.648c0.445,1.654,2.921,1.287,2.946-0.398c0.025-1.701-0.328-2.805-1.205-4.257
				c-0.909-1.508-3.068-0.481-2.741,1.155c0.083,0.417,0.167,0.834,0.25,1.25c0.331,1.657,3.06,1.286,2.946-0.398
				c-0.095-1.409-0.287-2.567-0.804-3.898c-0.688-1.772-3.35-1.12-2.893,0.797c0.09,0.525,0.256,1.025,0.5,1.5
				c0.914-0.385,1.827-0.771,2.741-1.155c-0.468-0.985-0.747-1.887-1.099-2.892c-0.294-0.84-1.364-1.496-2.203-0.896
				c-1.047,0.747-1.418,2.114-0.335,3.043c0.767,0.657,2.306,0.546,2.507-0.662c0.011-0.063,0.021-0.125,0.031-0.188
				c0.082-0.488,0.052-1.118-0.386-1.459c-1.778-1.383-3.046-0.144-4.817,0.766c0.684,0.179,1.368,0.358,2.052,0.538
				c-1.108-1.524-1.948-1.271-3.693-0.689C20.86,268.544,21.644,271.442,23.483,270.829L23.483,270.829z"/>
		</g>
	</g>
	<g>
		<g>
			<path fill="#375C74" d="M43.499,250.214c-8.667,17.599-29.381,16.563-38.667,22.774"/>
			<g>
				<path fill="#375C74" d="M42.204,249.458C37.941,257.62,30.847,262.045,22.369,265c-6.088,2.121-12.772,3.205-18.294,6.693
					c-1.631,1.03-0.127,3.627,1.514,2.59c6.216-3.927,14.038-4.958,20.835-7.586c7.921-3.063,14.405-8.134,18.37-15.727
					C45.688,249.259,43.1,247.742,42.204,249.458L42.204,249.458z"/>
			</g>
		</g>
		<g>
			<path fill="#375C74" d="M3.832,274.989c-6.667-22.774,14-51.108,39.247-24.706"/>
			<g>
				<path fill="#375C74" d="M5.278,274.59c-2.634-9.729-0.868-20.704,6.121-28.238c9.512-10.254,22.592-3.127,30.619,4.991
					c1.361,1.377,3.482-0.745,2.121-2.121c-8.396-8.49-21.548-15.809-32.497-7.083c-9.747,7.768-12.398,21.643-9.257,33.248
					C2.891,277.252,5.785,276.46,5.278,274.59L5.278,274.59z"/>
			</g>
		</g>
	</g>
	<g>
		<g>
			<path fill="#CC9933" d="M19.589,293.175c13.084-8.933,15.654,19.746,19.281,26.796c0.885,1.721,3.474,0.203,2.59-1.514
				c-4.357-8.473-7.042-39.031-23.385-27.872C16.488,291.668,17.986,294.27,19.589,293.175L19.589,293.175z"/>
		</g>
	</g>
</g>
</svg>
