<?xml version="1.0" encoding="utf-8"?>
<!-- Generator: Adobe Illustrator 16.0.0, SVG Export Plug-In . SVG Version: 6.00 Build 0)  -->
<!DOCTYPE svg PUBLIC "-//W3C//DTD SVG 1.1//EN" "http://www.w3.org/Graphics/SVG/1.1/DTD/svg11.dtd">
<svg version="1.1" id="Layer_1" xmlns="http://www.w3.org/2000/svg" xmlns:xlink="http://www.w3.org/1999/xlink" x="0px" y="0px"
	 width="28.595px" height="14.295px" viewBox="0 0 28.595 14.295" enable-background="new 0 0 28.595 14.295" xml:space="preserve">
<g>
	<g>
		<path fill="#330000" d="M2.188,5.402c-0.863,1.842-1.507,3.764-2.151,5.691c0.964,0.266,1.928,0.531,2.893,0.797
			c0.687-3.441,1.33-6.88,1.387-10.398C3.462,1.845,2.609,2.199,1.755,2.552C3.534,4.33,5.311,6.108,7.089,7.885
			C7.19,7.1,7.292,6.315,7.393,5.529C5.881,6.691,4.449,7.927,3.089,9.264c-0.86,0.845-2.085,1.936-2.386,3.162
			c-0.461,1.879,2.432,2.676,2.893,0.797c0.155-0.631,1.177-1.393,1.614-1.838c1.149-1.17,2.396-2.266,3.696-3.265
			C9.659,7.542,9.96,6.513,9.21,5.764C7.432,3.987,5.655,2.208,3.876,0.431c-0.937-0.937-2.54-0.239-2.561,1.061
			c-0.053,3.255-0.644,6.419-1.279,9.602c-0.378,1.894,2.277,2.64,2.893,0.797c0.561-1.678,1.097-3.37,1.849-4.975
			C5.593,5.175,3.008,3.651,2.188,5.402L2.188,5.402z"/>
	</g>
</g>
<g>
	<path fill="#99FF66" d="M6.816,8.159c3.334-1.334,10.667-6,14.667-4.667c5.333,1.333,8,4.667,2.667,8c-5.334,3.333-16-2-19.334-6"
		/>
	<g>
		<path fill="#330000" d="M7.573,9.454c2.766-1.18,5.376-2.671,8.184-3.762c1.68-0.653,3.531-1.178,5.328-0.753
			c3.161,0.748,6.13,2.568,2.309,5.259C18.477,13.658,9.182,8.116,5.876,4.431C4.583,2.988,2.468,5.117,3.755,6.552
			c4.936,5.503,20.132,12.511,24.496,2.678c1.858-4.187-4.278-7.164-7.508-7.413C15.475,1.41,10.696,4.885,6.059,6.863
			C4.284,7.621,5.814,10.205,7.573,9.454L7.573,9.454z"/>
	</g>
</g>
<g>
	<g>
		<path fill="#330000" d="M23.65,6.825c0-0.222,0-0.444,0-0.666c0-1.935-3-1.935-3,0c0,0.222,0,0.444,0,0.666
			C20.65,8.759,23.65,8.759,23.65,6.825L23.65,6.825z"/>
	</g>
</g>
</svg>
